<svg xmlns="http://www.w3.org/2000/svg" viewBox="0 0 462 432"><title>applications3</title><line x1="123.732" x2="123.732" y1="80.68" y2="85.77" fill="none" stroke="#737e90" stroke-miterlimit="10" stroke-width="1.25"/><line x1="119.567" x2="119.567" y1="78.232" y2="87.728" fill="none" stroke="#737e90" stroke-miterlimit="10" stroke-width="1.25"/><line x1="115.402" x2="115.402" y1="76.96" y2="89.001" fill="none" stroke="#737e90" stroke-miterlimit="10" stroke-width="1.25"/><line x1="111.237" x2="111.237" y1="79.373" y2="85.77" fill="none" stroke="#737e90" stroke-miterlimit="10" stroke-width="1.25"/><line x1="107.072" x2="107.072" y1="76.96" y2="89.001" fill="none" stroke="#737e90" stroke-miterlimit="10" stroke-width="1.25"/><line x1="98.741" x2="98.741" y1="80.68" y2="85.77" fill="none" stroke="#737e90" stroke-miterlimit="10" stroke-width="1.25"/><line x1="102.907" x2="102.907" y1="78.232" y2="87.728" fill="none" stroke="#737e90" stroke-miterlimit="10" stroke-width="1.25"/><line x1="94.576" x2="94.576" y1="78.232" y2="87.728" fill="none" stroke="#737e90" stroke-miterlimit="10" stroke-width="1.25"/><line x1="90.411" x2="90.411" y1="76.96" y2="89.001" fill="none" stroke="#737e90" stroke-miterlimit="10" stroke-width="1.25"/><line x1="86.246" x2="86.246" y1="79.373" y2="85.77" fill="none" stroke="#737e90" stroke-miterlimit="10" stroke-width="1.25"/><line x1="82.081" x2="82.081" y1="76.96" y2="89.001" fill="none" stroke="#737e90" stroke-miterlimit="10" stroke-width="1.25"/><line x1="73.751" x2="73.751" y1="80.68" y2="85.77" fill="none" stroke="#737e90" stroke-miterlimit="10" stroke-width="1.25"/><line x1="77.916" x2="77.916" y1="78.232" y2="87.728" fill="none" stroke="#737e90" stroke-miterlimit="10" stroke-width="1.25"/><rect width="49.981" height="22.232" x="73.751" y="102.907" fill="none" stroke="#737e90" stroke-miterlimit="10" stroke-width="1.25"/><path fill="none" stroke="#737e90" stroke-miterlimit="10" stroke-width="1.25" d="M73.75113,114.25347h3.35806a1.98378,1.98378,0,0,0,1.79348-1.136l.68547-1.45006a1.98378,1.98378,0,0,1,3.65262.15574l1.39332,3.7429a1.98378,1.98378,0,0,0,3.68272.08892l.08512-.19875a1.98378,1.98378,0,0,1,1.82357-1.20278h2.04961a1.98378,1.98378,0,0,0,1.79348-1.136l.68547-1.45006a1.98378,1.98378,0,0,1,3.65262.15574L99.8,115.56609a1.98378,1.98378,0,0,0,3.68272.08892l.08512-.19875a1.98378,1.98378,0,0,1,1.82357-1.20278H107.441a1.98378,1.98378,0,0,0,1.79348-1.136l.68547-1.45006a1.98378,1.98378,0,0,1,3.65262.15574l1.345,3.613a1.98378,1.98378,0,0,0,3.69709.05447h0a1.98378,1.98378,0,0,1,1.83794-1.23723h3.27915" opacity=".25"/><rect width="474.781" height="434.985" x="-3.973" y="-14.328" fill="#0f2631"/><rect width="489.008" height="188.693" x="-18.2" y="253.15" fill="#031e28" transform="translate(452.60799 694.99333) rotate(-180)"/><rect width="268.994" height="127.243" x="-18.2" y="196.783" fill="#031e28" transform="translate(232.59424 520.80925) rotate(-180)"/><rect width="7.497" height="97.91" x="117.725" y="97.8" fill="#173045"/><rect width="118.73" height="36.998" x="64.367" y="65.913" fill="#2a3d58"/><rect width="20.587" height="36.998" x="43.779" y="65.913" fill="#031e28"/><rect width="118.73" height="36.998" x="64.367" y="112.313" fill="#2a3d58"/><rect width="20.587" height="36.998" x="43.779" y="112.313" fill="#031e28"/><rect width="118.73" height="36.998" x="64.367" y="158.713" fill="#2a3d58"/><rect width="20.587" height="36.998" x="43.779" y="158.713" fill="#031e28"/><line x1="123.732" x2="123.732" y1="82.537" y2="87.628" fill="none" stroke="#18ffff" stroke-miterlimit="10" stroke-width="1.25"/><line x1="119.567" x2="119.567" y1="80.09" y2="89.586" fill="none" stroke="#18ffff" stroke-miterlimit="10" stroke-width="1.25"/><line x1="115.402" x2="115.402" y1="78.817" y2="90.858" fill="none" stroke="#18ffff" stroke-miterlimit="10" stroke-width="1.25"/><line x1="111.237" x2="111.237" y1="81.23" y2="87.628" fill="none" stroke="#18ffff" stroke-miterlimit="10" stroke-width="1.25"/><line x1="107.072" x2="107.072" y1="78.817" y2="90.858" fill="none" stroke="#18ffff" stroke-miterlimit="10" stroke-width="1.25"/><line x1="98.741" x2="98.741" y1="82.537" y2="87.628" fill="none" stroke="#18ffff" stroke-miterlimit="10" stroke-width="1.25"/><line x1="102.907" x2="102.907" y1="80.09" y2="89.586" fill="none" stroke="#18ffff" stroke-miterlimit="10" stroke-width="1.25"/><line x1="94.576" x2="94.576" y1="80.09" y2="89.586" fill="none" stroke="#18ffff" stroke-miterlimit="10" stroke-width="1.25"/><line x1="90.411" x2="90.411" y1="78.817" y2="90.858" fill="none" stroke="#18ffff" stroke-miterlimit="10" stroke-width="1.25"/><line x1="86.246" x2="86.246" y1="81.23" y2="87.628" fill="none" stroke="#18ffff" stroke-miterlimit="10" stroke-width="1.25"/><line x1="82.081" x2="82.081" y1="78.817" y2="90.858" fill="none" stroke="#18ffff" stroke-miterlimit="10" stroke-width="1.25"/><line x1="73.751" x2="73.751" y1="82.537" y2="87.628" fill="none" stroke="#18ffff" stroke-miterlimit="10" stroke-width="1.25"/><line x1="77.916" x2="77.916" y1="80.09" y2="89.586" fill="none" stroke="#18ffff" stroke-miterlimit="10" stroke-width="1.25"/><line x1="173.712" x2="173.712" y1="82.537" y2="87.628" fill="none" stroke="#18ffff" stroke-miterlimit="10" stroke-width="1.25"/><line x1="169.547" x2="169.547" y1="80.09" y2="89.586" fill="none" stroke="#18ffff" stroke-miterlimit="10" stroke-width="1.25"/><line x1="165.382" x2="165.382" y1="78.817" y2="90.858" fill="none" stroke="#18ffff" stroke-miterlimit="10" stroke-width="1.25"/><line x1="161.217" x2="161.217" y1="81.23" y2="87.628" fill="none" stroke="#18ffff" stroke-miterlimit="10" stroke-width="1.25"/><line x1="157.052" x2="157.052" y1="78.817" y2="90.858" fill="none" stroke="#18ffff" stroke-miterlimit="10" stroke-width="1.25"/><line x1="148.722" x2="148.722" y1="82.537" y2="87.628" fill="none" stroke="#18ffff" stroke-miterlimit="10" stroke-width="1.25"/><line x1="152.887" x2="152.887" y1="80.09" y2="89.586" fill="none" stroke="#18ffff" stroke-miterlimit="10" stroke-width="1.25"/><line x1="144.557" x2="144.557" y1="80.09" y2="89.586" fill="none" stroke="#18ffff" stroke-miterlimit="10" stroke-width="1.25"/><line x1="140.392" x2="140.392" y1="78.817" y2="90.858" fill="none" stroke="#18ffff" stroke-miterlimit="10" stroke-width="1.25"/><line x1="136.227" x2="136.227" y1="81.23" y2="87.628" fill="none" stroke="#18ffff" stroke-miterlimit="10" stroke-width="1.25"/><line x1="132.062" x2="132.062" y1="78.817" y2="90.858" fill="none" stroke="#18ffff" stroke-miterlimit="10" stroke-width="1.25"/><line x1="127.897" x2="127.897" y1="80.09" y2="89.586" fill="none" stroke="#18ffff" stroke-miterlimit="10" stroke-width="1.25"/><rect width="49.981" height="22.232" x="73.659" y="119.682" fill="none" stroke="#18ffff" stroke-miterlimit="10" stroke-width="1.25"/><circle cx="75.456" cy="186.596" r="1.796" fill="#18ffff"/><circle cx="93.509" cy="186.596" r="1.796" fill="#18ffff"/><circle cx="102.536" cy="186.596" r="1.796" fill="#18ffff"/><circle cx="84.482" cy="186.596" r="1.796" fill="#18ffff"/><polyline fill="none" stroke="#18ffff" stroke-miterlimit="10" stroke-width="1.25" points="73.806 174.293 82.144 174.293 87.604 178.268 173.712 178.268" opacity=".25"/><line x1="73.806" x2="173.712" y1="166.031" y2="166.031" fill="none" stroke="#18ffff" stroke-miterlimit="10" stroke-width="1.25" opacity=".25"/><circle cx="143.512" cy="130.325" r="1.796" fill="#18ffff"/><circle cx="161.566" cy="130.325" r="1.796" fill="#18ffff"/><circle cx="170.592" cy="130.325" r="1.796" fill="#18ffff"/><circle cx="152.539" cy="130.325" r="1.796" fill="#18ffff"/><line x1="381.817" x2="439.323" y1="236.079" y2="293.585" fill="none" stroke="#2a3d58" stroke-miterlimit="10" stroke-width="1.25"/><line x1="381.817" x2="423.949" y1="251.453" y2="293.585" fill="none" stroke="#2a3d58" stroke-miterlimit="10" stroke-width="1.25"/><line x1="381.817" x2="408.575" y1="266.827" y2="293.585" fill="none" stroke="#2a3d58" stroke-miterlimit="10" stroke-width="1.25"/><line x1="381.817" x2="393.201" y1="282.201" y2="293.585" fill="none" stroke="#2a3d58" stroke-miterlimit="10" stroke-width="1.25"/><line x1="427.939" x2="439.323" y1="236.079" y2="247.463" fill="none" stroke="#2a3d58" stroke-miterlimit="10" stroke-width="1.25"/><line x1="412.565" x2="439.323" y1="236.079" y2="262.837" fill="none" stroke="#2a3d58" stroke-miterlimit="10" stroke-width="1.25"/><line x1="397.191" x2="439.323" y1="236.079" y2="278.211" fill="none" stroke="#2a3d58" stroke-miterlimit="10" stroke-width="1.25"/></svg>