<svg xmlns="http://www.w3.org/2000/svg" viewBox="0 0 564 564"><title>applications1</title><rect x="0.60009" y="0.25535" width="564" height="564" style="fill:#0f2631"/><polygon points="184.329 367.761 147.064 367.761 153.069 334.5 178.324 334.5 184.329 367.761" style="fill:#031e28"/><rect x="-30.4" y="368.11855" width="519.21419" height="216.4261" transform="translate(458.41419 952.6632) rotate(-180)" style="fill:#031e28"/><rect x="420.63473" y="465.51597" width="175.30223" height="119.02868" style="fill:#031e28"/><rect x="366.47198" y="175.61911" width="85.89099" height="192.95761" style="fill:#031e28"/><polygon points="190.368 367.761 153.103 367.761 159.108 334.5 184.363 334.5 190.368 367.761" style="fill:#173045"/><rect x="72.60642" y="215.84417" width="198.25786" height="126.32222" style="fill:#2a3d58"/><rect x="64.0286" y="215.84417" width="8.57782" height="126.32222" style="fill:#031e28"/><rect x="383.84981" y="69.82137" width="58.84633" height="105.79774" style="fill:#2a3d58"/><polygon points="437.538 162.574 389.008 162.43 389.008 74.906 437.538 75.05 437.538 162.574" style="fill:#434d72"/><rect x="375.272" y="69.82137" width="8.57782" height="105.79774" style="fill:#031e28"/><path d="M270.86428,279.00528h38.83067A11.78526,11.78526,0,0,0,321.48021,267.22V131.51032a11.78526,11.78526,0,0,1,11.78526-11.78526H375.272" style="fill:none;stroke:#18ffff;stroke-miterlimit:10;stroke-width:1.25px"/><rect x="80.27315" y="223.5109" width="182.92439" height="110.98875" style="fill:#434d72"/><rect x="87.55263" y="231.72381" width="150.57409" height="4.58466" rx="2.29233" ry="2.29233" style="fill:#173045"/><circle cx="244.38431" cy="234.01613" r="1.59315" style="fill:#173045"/><circle cx="249.80911" cy="234.01613" r="1.59315" style="fill:#173045"/><circle cx="255.23392" cy="234.01613" r="1.59315" style="fill:#173045"/><path d="M81.22181,61.2245A17.19325,17.19325,0,0,0,64.0286,44.03122V61.22449Z" style="fill:#173045"/><path d="M115.60831,61.22452A17.19325,17.19325,0,0,0,98.4151,44.03124V61.22451Z" style="fill:#173045"/><path d="M81.22188,78.41776A17.1932,17.1932,0,0,0,98.4151,61.2245H81.22181Z" style="fill:#173045"/><path d="M115.80789,78.41778A17.1932,17.1932,0,0,0,133.0011,61.22452H115.80782Z" style="fill:#173045"/><path d="M98.61471,78.41785a17.19339,17.19339,0,0,0,17.1932,17.19365l0-17.19372Z" style="fill:#173045"/><path d="M505.67747,192.454a17.19325,17.19325,0,0,0-17.19328,17.19321h17.19327Z" style="fill:#173045"/><path d="M505.67749,158.06748a17.19325,17.19325,0,0,0-17.19328,17.19321h17.19327Z" style="fill:#173045"/><path d="M522.87073,192.45391a17.1932,17.1932,0,0,0-17.19326-17.19322V192.454Z" style="fill:#173045"/><path d="M522.87075,157.8679a17.1932,17.1932,0,0,0-17.19326-17.19322V157.868Z" style="fill:#173045"/><path d="M522.87082,175.06108a17.19339,17.19339,0,0,0,17.19365-17.1932l-17.19372,0Z" style="fill:#173045"/><line x1="437.5376" y1="263.27058" x2="495.04335" y2="320.77633" style="fill:none;stroke:#2a3d58;stroke-miterlimit:10;stroke-width:1.25px"/><line x1="437.5376" y1="278.64438" x2="479.66919" y2="320.77633" style="fill:none;stroke:#2a3d58;stroke-miterlimit:10;stroke-width:1.25px"/><line x1="437.5376" y1="294.01843" x2="464.29527" y2="320.77633" style="fill:none;stroke:#2a3d58;stroke-miterlimit:10;stroke-width:1.25px"/><line x1="437.5376" y1="309.39248" x2="448.92136" y2="320.77633" style="fill:none;stroke:#2a3d58;stroke-miterlimit:10;stroke-width:1.25px"/><line x1="483.6596" y1="263.27058" x2="495.04335" y2="274.65443" style="fill:none;stroke:#2a3d58;stroke-miterlimit:10;stroke-width:1.25px"/><line x1="468.28568" y1="263.27058" x2="495.04335" y2="290.02848" style="fill:none;stroke:#2a3d58;stroke-miterlimit:10;stroke-width:1.25px"/><line x1="452.91177" y1="263.27058" x2="495.04335" y2="305.40252" style="fill:none;stroke:#2a3d58;stroke-miterlimit:10;stroke-width:1.25px"/><line x1="167.90182" y1="80.13623" x2="225.40757" y2="137.64198" style="fill:none;stroke:#2a3d58;stroke-miterlimit:10;stroke-width:1.25px"/><line x1="167.90182" y1="95.51003" x2="210.03341" y2="137.64198" style="fill:none;stroke:#2a3d58;stroke-miterlimit:10;stroke-width:1.25px"/><line x1="167.90182" y1="110.88408" x2="194.65949" y2="137.64198" style="fill:none;stroke:#2a3d58;stroke-miterlimit:10;stroke-width:1.25px"/><line x1="167.90182" y1="126.25813" x2="179.28558" y2="137.64198" style="fill:none;stroke:#2a3d58;stroke-miterlimit:10;stroke-width:1.25px"/><line x1="214.02382" y1="80.13623" x2="225.40757" y2="91.52008" style="fill:none;stroke:#2a3d58;stroke-miterlimit:10;stroke-width:1.25px"/><line x1="198.6499" y1="80.13623" x2="225.40757" y2="106.89413" style="fill:none;stroke:#2a3d58;stroke-miterlimit:10;stroke-width:1.25px"/><line x1="183.27598" y1="80.13623" x2="225.40757" y2="122.26818" style="fill:none;stroke:#2a3d58;stroke-miterlimit:10;stroke-width:1.25px"/></svg>