<svg xmlns="http://www.w3.org/2000/svg" viewBox="0 0 564 564"><title>applications4</title><rect x="-4.42817" y="-4.88885" width="572.82826" height="578.95536" style="fill:#0f2631"/><line x1="71.52909" y1="115.87515" x2="129.03484" y2="173.3809" style="fill:none;stroke:#2a3d58;stroke-miterlimit:10;stroke-width:1.25px"/><line x1="71.52909" y1="131.24895" x2="113.66068" y2="173.3809" style="fill:none;stroke:#2a3d58;stroke-miterlimit:10;stroke-width:1.25px"/><line x1="71.52909" y1="146.623" x2="98.28676" y2="173.3809" style="fill:none;stroke:#2a3d58;stroke-miterlimit:10;stroke-width:1.25px"/><line x1="71.52909" y1="161.99705" x2="82.91284" y2="173.3809" style="fill:none;stroke:#2a3d58;stroke-miterlimit:10;stroke-width:1.25px"/><line x1="117.65109" y1="115.87515" x2="129.03484" y2="127.259" style="fill:none;stroke:#2a3d58;stroke-miterlimit:10;stroke-width:1.25px"/><line x1="102.27717" y1="115.87515" x2="129.03484" y2="142.63305" style="fill:none;stroke:#2a3d58;stroke-miterlimit:10;stroke-width:1.25px"/><line x1="86.90325" y1="115.87515" x2="129.03484" y2="158.0071" style="fill:none;stroke:#2a3d58;stroke-miterlimit:10;stroke-width:1.25px"/><line x1="132.02934" y1="61.06672" x2="189.53509" y2="118.57247" style="fill:none;stroke:#2a3d58;stroke-miterlimit:10;stroke-width:1.25px"/><line x1="132.02934" y1="76.44053" x2="174.16093" y2="118.57247" style="fill:none;stroke:#2a3d58;stroke-miterlimit:10;stroke-width:1.25px"/><line x1="132.02934" y1="91.81458" x2="158.78701" y2="118.57247" style="fill:none;stroke:#2a3d58;stroke-miterlimit:10;stroke-width:1.25px"/><line x1="132.02934" y1="107.18862" x2="143.41309" y2="118.57247" style="fill:none;stroke:#2a3d58;stroke-miterlimit:10;stroke-width:1.25px"/><line x1="178.15133" y1="61.06672" x2="189.53509" y2="72.45057" style="fill:none;stroke:#2a3d58;stroke-miterlimit:10;stroke-width:1.25px"/><line x1="162.77742" y1="61.06672" x2="189.53509" y2="87.82462" style="fill:none;stroke:#2a3d58;stroke-miterlimit:10;stroke-width:1.25px"/><line x1="147.4035" y1="61.06672" x2="189.53509" y2="103.19867" style="fill:none;stroke:#2a3d58;stroke-miterlimit:10;stroke-width:1.25px"/><path d="M431.53592,278.48811a17.19325,17.19325,0,0,0-17.19328,17.19321h17.19327Z" style="fill:#173045"/><path d="M431.53594,244.10161a17.19325,17.19325,0,0,0-17.19328,17.19321h17.19327Z" style="fill:#173045"/><path d="M448.72918,278.488a17.1932,17.1932,0,0,0-17.19326-17.19322v17.19329Z" style="fill:#173045"/><path d="M448.7292,243.902a17.1932,17.1932,0,0,0-17.19326-17.19322V243.9021Z" style="fill:#173045"/><path d="M448.72927,261.09521a17.19339,17.19339,0,0,0,17.19365-17.1932l-17.19372,0Z" style="fill:#173045"/><path d="M483.11613,243.902a17.19324,17.19324,0,0,0-17.1932-17.19328V243.902Z" style="fill:#173045"/><path d="M517.50263,243.90206a17.19324,17.19324,0,0,0-17.1932-17.19328V243.902Z" style="fill:#173045"/><path d="M483.11618,261.09527A17.1932,17.1932,0,0,0,500.30941,243.902H483.11613Z" style="fill:#173045"/><path d="M517.70219,261.09531a17.1932,17.1932,0,0,0,17.19323-17.19324H517.70214Z" style="fill:#173045"/><path d="M500.509,261.09537A17.19338,17.19338,0,0,0,517.7022,278.289V261.09531Z" style="fill:#173045"/><rect x="-26.6" y="381.93291" width="616.47429" height="216.4261" transform="translate(563.27429 980.29192) rotate(-180)" style="fill:#031e28"/><rect x="424.43473" y="475.32713" width="175.30223" height="119.02868" style="fill:#031e28"/><rect x="130.53209" y="331.36565" width="311.736" height="101.26274" style="fill:#031e28"/></svg>