<svg xmlns="http://www.w3.org/2000/svg" viewBox="0 0 564 564"><title>applications1</title><rect width="564" height="564" x=".6" y=".255" fill="#0f2631"/><polygon fill="#031e28" points="184.329 367.761 147.064 367.761 153.069 334.5 178.324 334.5 184.329 367.761"/><rect width="519.214" height="216.426" x="-30.4" y="368.119" fill="#031e28" transform="translate(458.41419 952.6632) rotate(-180)"/><rect width="175.302" height="119.029" x="420.635" y="465.516" fill="#031e28"/><rect width="85.891" height="192.958" x="366.472" y="175.619" fill="#031e28"/><polygon fill="#173045" points="190.368 367.761 153.103 367.761 159.108 334.5 184.363 334.5 190.368 367.761"/><rect width="198.258" height="126.322" x="72.606" y="215.844" fill="#2a3d58"/><rect width="8.578" height="126.322" x="64.029" y="215.844" fill="#031e28"/><rect width="58.846" height="105.798" x="383.85" y="69.821" fill="#2a3d58"/><polygon fill="#434d72" points="437.538 162.574 389.008 162.43 389.008 74.906 437.538 75.05 437.538 162.574"/><rect width="8.578" height="105.798" x="375.272" y="69.821" fill="#031e28"/><path fill="none" stroke="#18ffff" stroke-miterlimit="10" stroke-width="1.25" d="M270.86428,279.00528h38.83067A11.78526,11.78526,0,0,0,321.48021,267.22V131.51032a11.78526,11.78526,0,0,1,11.78526-11.78526H375.272"/><rect width="182.924" height="110.989" x="80.273" y="223.511" fill="#434d72"/><rect width="150.574" height="4.585" x="87.553" y="231.724" fill="#173045" rx="2.292" ry="2.292"/><circle cx="244.384" cy="234.016" r="1.593" fill="#173045"/><circle cx="249.809" cy="234.016" r="1.593" fill="#173045"/><circle cx="255.234" cy="234.016" r="1.593" fill="#173045"/><path fill="#173045" d="M81.22181,61.2245A17.19325,17.19325,0,0,0,64.0286,44.03122V61.22449Z"/><path fill="#173045" d="M115.60831,61.22452A17.19325,17.19325,0,0,0,98.4151,44.03124V61.22451Z"/><path fill="#173045" d="M81.22188,78.41776A17.1932,17.1932,0,0,0,98.4151,61.2245H81.22181Z"/><path fill="#173045" d="M115.80789,78.41778A17.1932,17.1932,0,0,0,133.0011,61.22452H115.80782Z"/><path fill="#173045" d="M98.61471,78.41785a17.19339,17.19339,0,0,0,17.1932,17.19365l0-17.19372Z"/><path fill="#173045" d="M505.67747,192.454a17.19325,17.19325,0,0,0-17.19328,17.19321h17.19327Z"/><path fill="#173045" d="M505.67749,158.06748a17.19325,17.19325,0,0,0-17.19328,17.19321h17.19327Z"/><path fill="#173045" d="M522.87073,192.45391a17.1932,17.1932,0,0,0-17.19326-17.19322V192.454Z"/><path fill="#173045" d="M522.87075,157.8679a17.1932,17.1932,0,0,0-17.19326-17.19322V157.868Z"/><path fill="#173045" d="M522.87082,175.06108a17.19339,17.19339,0,0,0,17.19365-17.1932l-17.19372,0Z"/><line x1="437.538" x2="495.043" y1="263.271" y2="320.776" fill="none" stroke="#2a3d58" stroke-miterlimit="10" stroke-width="1.25"/><line x1="437.538" x2="479.669" y1="278.644" y2="320.776" fill="none" stroke="#2a3d58" stroke-miterlimit="10" stroke-width="1.25"/><line x1="437.538" x2="464.295" y1="294.018" y2="320.776" fill="none" stroke="#2a3d58" stroke-miterlimit="10" stroke-width="1.25"/><line x1="437.538" x2="448.921" y1="309.392" y2="320.776" fill="none" stroke="#2a3d58" stroke-miterlimit="10" stroke-width="1.25"/><line x1="483.66" x2="495.043" y1="263.271" y2="274.654" fill="none" stroke="#2a3d58" stroke-miterlimit="10" stroke-width="1.25"/><line x1="468.286" x2="495.043" y1="263.271" y2="290.028" fill="none" stroke="#2a3d58" stroke-miterlimit="10" stroke-width="1.25"/><line x1="452.912" x2="495.043" y1="263.271" y2="305.403" fill="none" stroke="#2a3d58" stroke-miterlimit="10" stroke-width="1.25"/><line x1="167.902" x2="225.408" y1="80.136" y2="137.642" fill="none" stroke="#2a3d58" stroke-miterlimit="10" stroke-width="1.25"/><line x1="167.902" x2="210.033" y1="95.51" y2="137.642" fill="none" stroke="#2a3d58" stroke-miterlimit="10" stroke-width="1.25"/><line x1="167.902" x2="194.659" y1="110.884" y2="137.642" fill="none" stroke="#2a3d58" stroke-miterlimit="10" stroke-width="1.25"/><line x1="167.902" x2="179.286" y1="126.258" y2="137.642" fill="none" stroke="#2a3d58" stroke-miterlimit="10" stroke-width="1.25"/><line x1="214.024" x2="225.408" y1="80.136" y2="91.52" fill="none" stroke="#2a3d58" stroke-miterlimit="10" stroke-width="1.25"/><line x1="198.65" x2="225.408" y1="80.136" y2="106.894" fill="none" stroke="#2a3d58" stroke-miterlimit="10" stroke-width="1.25"/><line x1="183.276" x2="225.408" y1="80.136" y2="122.268" fill="none" stroke="#2a3d58" stroke-miterlimit="10" stroke-width="1.25"/></svg>