<svg xmlns="http://www.w3.org/2000/svg" viewBox="0 0 564 564"><title>applications4</title><rect width="572.828" height="578.955" x="-4.428" y="-4.889" fill="#0f2631"/><line x1="71.529" x2="129.035" y1="115.875" y2="173.381" fill="none" stroke="#2a3d58" stroke-miterlimit="10" stroke-width="1.25"/><line x1="71.529" x2="113.661" y1="131.249" y2="173.381" fill="none" stroke="#2a3d58" stroke-miterlimit="10" stroke-width="1.25"/><line x1="71.529" x2="98.287" y1="146.623" y2="173.381" fill="none" stroke="#2a3d58" stroke-miterlimit="10" stroke-width="1.25"/><line x1="71.529" x2="82.913" y1="161.997" y2="173.381" fill="none" stroke="#2a3d58" stroke-miterlimit="10" stroke-width="1.25"/><line x1="117.651" x2="129.035" y1="115.875" y2="127.259" fill="none" stroke="#2a3d58" stroke-miterlimit="10" stroke-width="1.25"/><line x1="102.277" x2="129.035" y1="115.875" y2="142.633" fill="none" stroke="#2a3d58" stroke-miterlimit="10" stroke-width="1.25"/><line x1="86.903" x2="129.035" y1="115.875" y2="158.007" fill="none" stroke="#2a3d58" stroke-miterlimit="10" stroke-width="1.25"/><line x1="132.029" x2="189.535" y1="61.067" y2="118.572" fill="none" stroke="#2a3d58" stroke-miterlimit="10" stroke-width="1.25"/><line x1="132.029" x2="174.161" y1="76.441" y2="118.572" fill="none" stroke="#2a3d58" stroke-miterlimit="10" stroke-width="1.25"/><line x1="132.029" x2="158.787" y1="91.815" y2="118.572" fill="none" stroke="#2a3d58" stroke-miterlimit="10" stroke-width="1.25"/><line x1="132.029" x2="143.413" y1="107.189" y2="118.572" fill="none" stroke="#2a3d58" stroke-miterlimit="10" stroke-width="1.25"/><line x1="178.151" x2="189.535" y1="61.067" y2="72.451" fill="none" stroke="#2a3d58" stroke-miterlimit="10" stroke-width="1.25"/><line x1="162.777" x2="189.535" y1="61.067" y2="87.825" fill="none" stroke="#2a3d58" stroke-miterlimit="10" stroke-width="1.25"/><line x1="147.404" x2="189.535" y1="61.067" y2="103.199" fill="none" stroke="#2a3d58" stroke-miterlimit="10" stroke-width="1.25"/><path fill="#173045" d="M431.53592,278.48811a17.19325,17.19325,0,0,0-17.19328,17.19321h17.19327Z"/><path fill="#173045" d="M431.53594,244.10161a17.19325,17.19325,0,0,0-17.19328,17.19321h17.19327Z"/><path fill="#173045" d="M448.72918,278.488a17.1932,17.1932,0,0,0-17.19326-17.19322v17.19329Z"/><path fill="#173045" d="M448.7292,243.902a17.1932,17.1932,0,0,0-17.19326-17.19322V243.9021Z"/><path fill="#173045" d="M448.72927,261.09521a17.19339,17.19339,0,0,0,17.19365-17.1932l-17.19372,0Z"/><path fill="#173045" d="M483.11613,243.902a17.19324,17.19324,0,0,0-17.1932-17.19328V243.902Z"/><path fill="#173045" d="M517.50263,243.90206a17.19324,17.19324,0,0,0-17.1932-17.19328V243.902Z"/><path fill="#173045" d="M483.11618,261.09527A17.1932,17.1932,0,0,0,500.30941,243.902H483.11613Z"/><path fill="#173045" d="M517.70219,261.09531a17.1932,17.1932,0,0,0,17.19323-17.19324H517.70214Z"/><path fill="#173045" d="M500.509,261.09537A17.19338,17.19338,0,0,0,517.7022,278.289V261.09531Z"/><rect width="616.474" height="216.426" x="-26.6" y="381.933" fill="#031e28" transform="translate(563.27429 980.29192) rotate(-180)"/><rect width="175.302" height="119.029" x="424.435" y="475.327" fill="#031e28"/><rect width="311.736" height="101.263" x="130.532" y="331.366" fill="#031e28"/></svg>