<svg xmlns="http://www.w3.org/2000/svg" viewBox="0 0 462 456.613"><title>applications2</title><rect width="473.753" height="462.812" x="-11.753" y="-3.333" fill="#0f2631"/><rect width="159.522" height="193.416" x="317.949" y="191.254" fill="#031e28"/><path fill="#173045" d="M387.17313,274.90091a17.19325,17.19325,0,0,0-17.19328,17.19321h17.19327Z"/><path fill="#173045" d="M387.17315,240.51441a17.19325,17.19325,0,0,0-17.19328,17.19321h17.19327Z"/><path fill="#173045" d="M404.36639,274.90084a17.1932,17.1932,0,0,0-17.19326-17.19322v17.19329Z"/><path fill="#173045" d="M404.36641,240.31483a17.1932,17.1932,0,0,0-17.19326-17.19322v17.19329Z"/><path fill="#173045" d="M404.36648,257.508a17.19339,17.19339,0,0,0,17.19365-17.1932l-17.19372,0Z"/><line x1="137.652" x2="195.158" y1="64.52" y2="122.026" fill="none" stroke="#2a3d58" stroke-miterlimit="10" stroke-width="1.25"/><line x1="137.652" x2="179.784" y1="79.894" y2="122.026" fill="none" stroke="#2a3d58" stroke-miterlimit="10" stroke-width="1.25"/><line x1="137.652" x2="164.41" y1="95.268" y2="122.026" fill="none" stroke="#2a3d58" stroke-miterlimit="10" stroke-width="1.25"/><line x1="137.652" x2="149.036" y1="110.642" y2="122.026" fill="none" stroke="#2a3d58" stroke-miterlimit="10" stroke-width="1.25"/><line x1="183.774" x2="195.158" y1="64.52" y2="75.904" fill="none" stroke="#2a3d58" stroke-miterlimit="10" stroke-width="1.25"/><line x1="168.4" x2="195.158" y1="64.52" y2="91.278" fill="none" stroke="#2a3d58" stroke-miterlimit="10" stroke-width="1.25"/><line x1="153.027" x2="195.158" y1="64.52" y2="106.652" fill="none" stroke="#2a3d58" stroke-miterlimit="10" stroke-width="1.25"/><rect width="498.409" height="174.561" x="-24.408" y="304.95" fill="#031e28" transform="translate(449.59238 784.46095) rotate(-180)"/><rect width="183.126" height="110.204" x="-24.408" y="260.74" fill="#031e28"/></svg>