<svg xmlns="http://www.w3.org/2000/svg" viewBox="0 0 462 432"><title>applications3</title><line x1="123.73178" y1="80.6798" x2="123.73178" y2="85.77021" style="fill:none;stroke:#737e90;stroke-miterlimit:10;stroke-width:1.25px"/><line x1="119.56673" y1="78.23249" x2="119.56673" y2="87.72806" style="fill:none;stroke:#737e90;stroke-miterlimit:10;stroke-width:1.25px"/><line x1="115.40167" y1="76.95988" x2="115.40167" y2="89.00066" style="fill:none;stroke:#737e90;stroke-miterlimit:10;stroke-width:1.25px"/><line x1="111.23662" y1="79.3728" x2="111.23662" y2="85.77021" style="fill:none;stroke:#737e90;stroke-miterlimit:10;stroke-width:1.25px"/><line x1="107.07156" y1="76.95988" x2="107.07156" y2="89.00066" style="fill:none;stroke:#737e90;stroke-miterlimit:10;stroke-width:1.25px"/><line x1="98.74145" y1="80.6798" x2="98.74145" y2="85.77021" style="fill:none;stroke:#737e90;stroke-miterlimit:10;stroke-width:1.25px"/><line x1="102.90651" y1="78.23249" x2="102.90651" y2="87.72806" style="fill:none;stroke:#737e90;stroke-miterlimit:10;stroke-width:1.25px"/><line x1="94.5764" y1="78.23249" x2="94.5764" y2="87.72806" style="fill:none;stroke:#737e90;stroke-miterlimit:10;stroke-width:1.25px"/><line x1="90.41135" y1="76.95988" x2="90.41135" y2="89.00066" style="fill:none;stroke:#737e90;stroke-miterlimit:10;stroke-width:1.25px"/><line x1="86.24629" y1="79.3728" x2="86.24629" y2="85.77021" style="fill:none;stroke:#737e90;stroke-miterlimit:10;stroke-width:1.25px"/><line x1="82.08124" y1="76.95988" x2="82.08124" y2="89.00066" style="fill:none;stroke:#737e90;stroke-miterlimit:10;stroke-width:1.25px"/><line x1="73.75113" y1="80.6798" x2="73.75113" y2="85.77021" style="fill:none;stroke:#737e90;stroke-miterlimit:10;stroke-width:1.25px"/><line x1="77.91618" y1="78.23249" x2="77.91618" y2="87.72806" style="fill:none;stroke:#737e90;stroke-miterlimit:10;stroke-width:1.25px"/><rect x="73.75113" y="102.90741" width="49.98065" height="22.23237" style="fill:none;stroke:#737e90;stroke-miterlimit:10;stroke-width:1.25px"/><path d="M73.75113,114.25347h3.35806a1.98378,1.98378,0,0,0,1.79348-1.136l.68547-1.45006a1.98378,1.98378,0,0,1,3.65262.15574l1.39332,3.7429a1.98378,1.98378,0,0,0,3.68272.08892l.08512-.19875a1.98378,1.98378,0,0,1,1.82357-1.20278h2.04961a1.98378,1.98378,0,0,0,1.79348-1.136l.68547-1.45006a1.98378,1.98378,0,0,1,3.65262.15574L99.8,115.56609a1.98378,1.98378,0,0,0,3.68272.08892l.08512-.19875a1.98378,1.98378,0,0,1,1.82357-1.20278H107.441a1.98378,1.98378,0,0,0,1.79348-1.136l.68547-1.45006a1.98378,1.98378,0,0,1,3.65262.15574l1.345,3.613a1.98378,1.98378,0,0,0,3.69709.05447h0a1.98378,1.98378,0,0,1,1.83794-1.23723h3.27915" style="fill:none;stroke:#737e90;stroke-miterlimit:10;stroke-width:1.25px;opacity:0.25"/><rect x="-3.97326" y="-14.32783" width="474.78125" height="434.98472" style="fill:#0f2631"/><rect x="-18.2" y="253.15022" width="489.00799" height="188.69289" transform="translate(452.60799 694.99333) rotate(-180)" style="fill:#031e28"/><rect x="-18.2" y="196.78323" width="268.99424" height="127.24278" transform="translate(232.59424 520.80925) rotate(-180)" style="fill:#031e28"/><rect x="117.72496" y="97.80031" width="7.49658" height="97.9102" style="fill:#173045"/><rect x="64.36668" y="65.91349" width="118.7302" height="36.99754" style="fill:#2a3d58"/><rect x="43.77926" y="65.91349" width="20.58742" height="36.99754" style="fill:#031e28"/><rect x="64.36668" y="112.31323" width="118.7302" height="36.99754" style="fill:#2a3d58"/><rect x="43.77926" y="112.31323" width="20.58742" height="36.99754" style="fill:#031e28"/><rect x="64.36668" y="158.71298" width="118.7302" height="36.99754" style="fill:#2a3d58"/><rect x="43.77926" y="158.71298" width="20.58742" height="36.99754" style="fill:#031e28"/><line x1="123.73178" y1="82.53737" x2="123.73178" y2="87.62778" style="fill:none;stroke:#18ffff;stroke-miterlimit:10;stroke-width:1.25px"/><line x1="119.56673" y1="80.09006" x2="119.56673" y2="89.58563" style="fill:none;stroke:#18ffff;stroke-miterlimit:10;stroke-width:1.25px"/><line x1="115.40167" y1="78.81746" x2="115.40167" y2="90.85824" style="fill:none;stroke:#18ffff;stroke-miterlimit:10;stroke-width:1.25px"/><line x1="111.23662" y1="81.23038" x2="111.23662" y2="87.62778" style="fill:none;stroke:#18ffff;stroke-miterlimit:10;stroke-width:1.25px"/><line x1="107.07156" y1="78.81746" x2="107.07156" y2="90.85824" style="fill:none;stroke:#18ffff;stroke-miterlimit:10;stroke-width:1.25px"/><line x1="98.74145" y1="82.53737" x2="98.74145" y2="87.62778" style="fill:none;stroke:#18ffff;stroke-miterlimit:10;stroke-width:1.25px"/><line x1="102.90651" y1="80.09006" x2="102.90651" y2="89.58563" style="fill:none;stroke:#18ffff;stroke-miterlimit:10;stroke-width:1.25px"/><line x1="94.5764" y1="80.09006" x2="94.5764" y2="89.58563" style="fill:none;stroke:#18ffff;stroke-miterlimit:10;stroke-width:1.25px"/><line x1="90.41135" y1="78.81746" x2="90.41135" y2="90.85824" style="fill:none;stroke:#18ffff;stroke-miterlimit:10;stroke-width:1.25px"/><line x1="86.24629" y1="81.23038" x2="86.24629" y2="87.62778" style="fill:none;stroke:#18ffff;stroke-miterlimit:10;stroke-width:1.25px"/><line x1="82.08124" y1="78.81746" x2="82.08124" y2="90.85824" style="fill:none;stroke:#18ffff;stroke-miterlimit:10;stroke-width:1.25px"/><line x1="73.75113" y1="82.53737" x2="73.75113" y2="87.62778" style="fill:none;stroke:#18ffff;stroke-miterlimit:10;stroke-width:1.25px"/><line x1="77.91618" y1="80.09006" x2="77.91618" y2="89.58563" style="fill:none;stroke:#18ffff;stroke-miterlimit:10;stroke-width:1.25px"/><line x1="173.71243" y1="82.53737" x2="173.71243" y2="87.62778" style="fill:none;stroke:#18ffff;stroke-miterlimit:10;stroke-width:1.25px"/><line x1="169.54738" y1="80.09006" x2="169.54738" y2="89.58563" style="fill:none;stroke:#18ffff;stroke-miterlimit:10;stroke-width:1.25px"/><line x1="165.38232" y1="78.81746" x2="165.38232" y2="90.85824" style="fill:none;stroke:#18ffff;stroke-miterlimit:10;stroke-width:1.25px"/><line x1="161.21727" y1="81.23038" x2="161.21727" y2="87.62778" style="fill:none;stroke:#18ffff;stroke-miterlimit:10;stroke-width:1.25px"/><line x1="157.05221" y1="78.81746" x2="157.05221" y2="90.85824" style="fill:none;stroke:#18ffff;stroke-miterlimit:10;stroke-width:1.25px"/><line x1="148.72211" y1="82.53737" x2="148.72211" y2="87.62778" style="fill:none;stroke:#18ffff;stroke-miterlimit:10;stroke-width:1.25px"/><line x1="152.88716" y1="80.09006" x2="152.88716" y2="89.58563" style="fill:none;stroke:#18ffff;stroke-miterlimit:10;stroke-width:1.25px"/><line x1="144.55705" y1="80.09006" x2="144.55705" y2="89.58563" style="fill:none;stroke:#18ffff;stroke-miterlimit:10;stroke-width:1.25px"/><line x1="140.392" y1="78.81746" x2="140.392" y2="90.85824" style="fill:none;stroke:#18ffff;stroke-miterlimit:10;stroke-width:1.25px"/><line x1="136.22694" y1="81.23038" x2="136.22694" y2="87.62778" style="fill:none;stroke:#18ffff;stroke-miterlimit:10;stroke-width:1.25px"/><line x1="132.06189" y1="78.81746" x2="132.06189" y2="90.85824" style="fill:none;stroke:#18ffff;stroke-miterlimit:10;stroke-width:1.25px"/><line x1="127.89683" y1="80.09006" x2="127.89683" y2="89.58563" style="fill:none;stroke:#18ffff;stroke-miterlimit:10;stroke-width:1.25px"/><rect x="73.65937" y="119.68171" width="49.98065" height="22.23237" style="fill:none;stroke:#18ffff;stroke-miterlimit:10;stroke-width:1.25px"/><circle cx="75.45573" cy="186.59607" r="1.79637" style="fill:#18ffff"/><circle cx="93.50924" cy="186.59607" r="1.79637" style="fill:#18ffff"/><circle cx="102.53599" cy="186.59607" r="1.79637" style="fill:#18ffff"/><circle cx="84.48249" cy="186.59607" r="1.79637" style="fill:#18ffff"/><polyline points="73.806 174.293 82.144 174.293 87.604 178.268 173.712 178.268" style="fill:none;stroke:#18ffff;stroke-miterlimit:10;stroke-width:1.25px;opacity:0.25"/><line x1="73.80649" y1="166.03105" x2="173.71243" y2="166.03105" style="fill:none;stroke:#18ffff;stroke-miterlimit:10;stroke-width:1.25px;opacity:0.25"/><circle cx="143.51208" cy="130.32491" r="1.79637" style="fill:#18ffff"/><circle cx="161.56559" cy="130.32491" r="1.79637" style="fill:#18ffff"/><circle cx="170.59235" cy="130.32491" r="1.79637" style="fill:#18ffff"/><circle cx="152.53884" cy="130.32491" r="1.79637" style="fill:#18ffff"/><line x1="381.81703" y1="236.07938" x2="439.32278" y2="293.58513" style="fill:none;stroke:#2a3d58;stroke-miterlimit:10;stroke-width:1.25px"/><line x1="381.81703" y1="251.45318" x2="423.94862" y2="293.58513" style="fill:none;stroke:#2a3d58;stroke-miterlimit:10;stroke-width:1.25px"/><line x1="381.81703" y1="266.82723" x2="408.5747" y2="293.58513" style="fill:none;stroke:#2a3d58;stroke-miterlimit:10;stroke-width:1.25px"/><line x1="381.81703" y1="282.20128" x2="393.20079" y2="293.58513" style="fill:none;stroke:#2a3d58;stroke-miterlimit:10;stroke-width:1.25px"/><line x1="427.93903" y1="236.07938" x2="439.32278" y2="247.46323" style="fill:none;stroke:#2a3d58;stroke-miterlimit:10;stroke-width:1.25px"/><line x1="412.56511" y1="236.07938" x2="439.32278" y2="262.83727" style="fill:none;stroke:#2a3d58;stroke-miterlimit:10;stroke-width:1.25px"/><line x1="397.1912" y1="236.07938" x2="439.32278" y2="278.21132" style="fill:none;stroke:#2a3d58;stroke-miterlimit:10;stroke-width:1.25px"/></svg>