<svg xmlns="http://www.w3.org/2000/svg" viewBox="0 0 462 456.6133"><title>applications2</title><rect x="-11.75272" y="-3.33333" width="473.75272" height="462.81225" style="fill:#0f2631"/><rect x="317.9486" y="191.2539" width="159.52203" height="193.41579" style="fill:#031e28"/><path d="M387.17313,274.90091a17.19325,17.19325,0,0,0-17.19328,17.19321h17.19327Z" style="fill:#173045"/><path d="M387.17315,240.51441a17.19325,17.19325,0,0,0-17.19328,17.19321h17.19327Z" style="fill:#173045"/><path d="M404.36639,274.90084a17.1932,17.1932,0,0,0-17.19326-17.19322v17.19329Z" style="fill:#173045"/><path d="M404.36641,240.31483a17.1932,17.1932,0,0,0-17.19326-17.19322v17.19329Z" style="fill:#173045"/><path d="M404.36648,257.508a17.19339,17.19339,0,0,0,17.19365-17.1932l-17.19372,0Z" style="fill:#173045"/><line x1="137.65235" y1="64.51992" x2="195.1581" y2="122.02567" style="fill:none;stroke:#2a3d58;stroke-miterlimit:10;stroke-width:1.25px"/><line x1="137.65235" y1="79.89372" x2="179.78394" y2="122.02567" style="fill:none;stroke:#2a3d58;stroke-miterlimit:10;stroke-width:1.25px"/><line x1="137.65235" y1="95.26777" x2="164.41002" y2="122.02567" style="fill:none;stroke:#2a3d58;stroke-miterlimit:10;stroke-width:1.25px"/><line x1="137.65235" y1="110.64182" x2="149.0361" y2="122.02567" style="fill:none;stroke:#2a3d58;stroke-miterlimit:10;stroke-width:1.25px"/><line x1="183.77434" y1="64.51992" x2="195.1581" y2="75.90377" style="fill:none;stroke:#2a3d58;stroke-miterlimit:10;stroke-width:1.25px"/><line x1="168.40043" y1="64.51992" x2="195.1581" y2="91.27782" style="fill:none;stroke:#2a3d58;stroke-miterlimit:10;stroke-width:1.25px"/><line x1="153.02651" y1="64.51992" x2="195.1581" y2="106.65187" style="fill:none;stroke:#2a3d58;stroke-miterlimit:10;stroke-width:1.25px"/><rect x="-24.40843" y="304.95009" width="498.40924" height="174.56077" transform="translate(449.59238 784.46095) rotate(-180)" style="fill:#031e28"/><rect x="-24.40834" y="260.74017" width="183.12648" height="110.20445" style="fill:#031e28"/></svg>