<svg xmlns="http://www.w3.org/2000/svg" width="668" height="377" fill="none" viewBox="0 0 668 377"><path fill="#0F2631" fill-rule="evenodd" d="M231.004 220.88L211.681 206.114L182.996 203.152L178.729 210.318L172.92 208.335L170.074 197.266L161.485 196.651L165.057 186.177L157.895 185.437L150.714 191.373L145.698 183.956L150.001 171.424L169.372 168.462L172.92 178.791L177.973 178.069V168.462L191.584 149.272L208.792 139.671L231.004 129.367L215.228 93.1711L208.066 97.6014L202.355 81.3736L188.701 82.1078L185.172 110.899L180.137 111.645L159.321 88.7533L163.624 76.9366L185.172 72.5189V44.4559L131.361 50.3735L103.432 33.3923L90.5159 45.9369L55.3573 26L36.0227 37.8104L43.1849 48.905H35.285L33.1454 57.0127L43.8917 58.4874L33.1454 67.3418L36.7173 79.886L46.0434 82.1078L31 94.6583L54.6563 82.8542L67.548 75.4431L88.3459 88.7533L104.846 117.538V143.374L114.885 162.57L131.361 189.139L151.452 196.494L160.053 200.937L170.074 214.222L177.077 213.105L169.372 226.05L175.809 252.595L189.445 265.133L172.92 333.816L178.692 348.576L195.174 353L185.172 341.918L198.759 315.354L228.157 289.519L230.303 277.709L244.657 275.481L259 245.228L233.905 232.696L231.004 220.88Z" clip-rule="evenodd"/><path fill="#0F2631" fill-rule="evenodd" d="M574.457 226L572.918 238.658L562.579 234.761L564.49 227.907L553.187 226.957L538.539 241.122L523 246.963L526.802 268.908L525.368 273.266L531.05 276.687L554.09 270.77L563.001 276.149L567.242 273.697L570.068 282.573L581.811 286L590.301 280.609L595 254.293L582.305 241.122L574.457 226Z" clip-rule="evenodd"/><path fill="#0F2631" fill-rule="evenodd" d="M517.801 213.685L529.556 216L535 198.81L531.815 196L516 206.238L517.801 213.685Z" clip-rule="evenodd"/><path fill="#0F2631" fill-rule="evenodd" d="M588 227L583.837 217.728L564.769 208L555 208.955L567.545 222.611L574.749 223.142L577.785 220.163L588 227Z" clip-rule="evenodd"/><path fill="#0F2631" fill-rule="evenodd" d="M578.152 100H574.793L574.292 117.316L565.606 135.6L554.489 143.803L554 151L574.292 138.977L575.251 126.468L582 120.213L576.723 115.887L579.581 105.799L578.152 100Z" clip-rule="evenodd"/><path fill="#0F2631" fill-rule="evenodd" d="M628.458 275L629.911 288.76L615 303.024L624.633 304L633.256 290.718L640 281.399L635.677 280.927L628.458 275Z" clip-rule="evenodd"/><path fill="#0F2631" fill-rule="evenodd" d="M313.876 71.9051V86L323.333 81.71L326 77.376L315.753 57L309.721 61.3277L310.092 66.7986L304.395 73.89L304 81.3143H310.845L313.876 71.9051Z" clip-rule="evenodd"/><path fill="#0F2631" fill-rule="evenodd" d="M400.378 238.021L400 253.345L406.024 256L412 237.641L410.488 230L400.378 238.021Z" clip-rule="evenodd"/><path fill="#0F2631" fill-rule="evenodd" d="M407.319 135.205L409.196 127.7L405 116.691L416.883 110V115.896L412.276 117.865L416.135 123.786L418 136L407.319 135.205ZM393.684 128L385.625 125.737L374.568 127.639L372 122.697L377.873 112L397 122.324L393.684 128ZM625.014 70.2538L642 60.581L637.284 47.0742L512.187 29C512.187 29 436.386 37.2131 394.584 41.7175L358.365 34.8826L343.837 43.0832L338.124 57.5426L331.237 63.0368L330.858 75.1528L334.681 77.4771L342.688 72.8035L346.541 85.2955L353.386 82.564L357.98 70.047L353.386 64.9789L357.601 55.6005L362.525 49.3295L365.546 49.8181L362.727 57.1542L359.503 59.516L360.677 62.4917L360.457 62.9929L360.879 63.0368L363.687 70.047L371.712 67.7228L374.471 71.0369L365.595 73.9876L367.528 81.4176L361.766 79.4254L357.595 90.3887L342.681 90.0003L340.009 82.1819L336.583 86.8679L337.733 91.9549L332.375 92.3559L325.891 101.34L314.061 105.249L317.125 111.902L322.049 120.103L306.427 118.925L307.185 134.581L319.407 136.535L327.414 123.617L338.889 117.747L343.825 123.617L350.682 133.027L355.674 127.126L346.119 120.51L345.728 114.245L350.309 116.582L357.962 122.859L357.582 129.074L363.296 136.529L365.975 127.119L369.033 128.698L373.217 136.134L386.155 138.34L384.05 145.582L379.187 148.564L360.445 143.652L355.729 150.405L343.483 142.192L341.587 134.017L311.418 139.304L295.845 158.625L293 184.693L309.063 200.643L337.831 198.701L346.297 225.752L343.024 241.195L356.677 275L372.251 272.099L387.794 242.154L396.278 235.394L393.941 214.651L409.032 200.637L413.748 183.728L398.645 190.976L383.231 154.816L386.381 154.265L401.489 184.687L430.734 166.826L420.801 159.108L413.265 162.967L408.542 151.364L411.851 149.453L418.439 155.229L441.109 159.577L450.504 171.18L459.001 192.9L465.625 186.159V177.946L483.994 164.877L490.595 179.393L496.063 177.977L497.195 192.417L502.865 203.036L490.601 196.752L499.574 209.777L509.477 219.463L533.046 223.798L520.323 218.498L510.86 215.109L507.581 199.647L500.021 190.926L500.308 182.212L508.994 191.427L517.478 184.185L509.483 172.107L513.233 165.83L530.691 164.865L538.698 149.911L533.058 133.516L540.129 125.785L545.341 133.027L547.225 142.192L553.348 138.841L550.993 128.686L556.174 120.961L564.67 119.526L574.555 91.5038L566.077 85.2266L577.852 73.6242L593.426 74.5827L606.167 63.9765L616.058 62.5105L600.038 82.326L600.503 99.6981L612.774 84.243L612.296 73.123L625.014 70.2538Z" clip-rule="evenodd"/><path fill="#0F2631" fill-rule="evenodd" d="M247.236 40.9442L236.842 38L224 52.2664L240.522 97.0019L248.337 99L248.971 84.4659L254.249 81.0736L254.555 75.5525L260 64.9021L256.206 56.8165L247.236 40.9442Z" clip-rule="evenodd"/><path fill="#434D72" fill-rule="evenodd" d="M500 72H557V54H500V72Z" clip-rule="evenodd"/><path fill="#434D72" fill-rule="evenodd" d="M503 54H511V48H503V54Z" clip-rule="evenodd"/><path fill="#434D72" fill-rule="evenodd" d="M513 45C513 47.2092 510.314 49 507 49C503.686 49 501 47.2092 501 45C501 42.7908 503.686 41 507 41C510.314 41 513 42.7908 513 45Z" clip-rule="evenodd"/><path fill="#434D72" fill-rule="evenodd" d="M506.397 49L501 43.4464L506.633 36L512 43.235L506.397 49Z" clip-rule="evenodd"/><path fill="#434D72" fill-rule="evenodd" d="M546 54H554V48H546V54Z" clip-rule="evenodd"/><path fill="#434D72" fill-rule="evenodd" d="M555 45C555 47.2092 552.538 49 549.5 49C546.463 49 544 47.2092 544 45C544 42.7908 546.463 41 549.5 41C552.538 41 555 42.7908 555 45Z" clip-rule="evenodd"/><path fill="#434D72" fill-rule="evenodd" d="M548.907 49L544 43.4464L549.121 36L554 43.235L548.907 49Z" clip-rule="evenodd"/><path fill="#2A3D58" fill-rule="evenodd" d="M545 50H554V49H545V50Z" clip-rule="evenodd"/><path fill="#173045" fill-rule="evenodd" d="M498 56H558V54H498V56Z" clip-rule="evenodd"/><path fill="#434D72" fill-rule="evenodd" d="M520 54H537V41H520V54Z" clip-rule="evenodd"/><path fill="#434D72" fill-rule="evenodd" d="M540 35C540 39.9706 534.628 44 528 44C521.372 44 516 39.9706 516 35C516 30.0294 521.372 26 528 26C534.628 26 540 30.0294 540 35Z" clip-rule="evenodd"/><path fill="#434D72" fill-rule="evenodd" d="M527.794 42L517 31.3202L528.267 17L539 30.9131L527.794 42Z" clip-rule="evenodd"/><path fill="#2A3D58" fill-rule="evenodd" d="M518 46H539V42H518V46Z" clip-rule="evenodd"/><path fill="#434D72" fill-rule="evenodd" d="M513 44.9285C513 44.1743 512.734 43.4652 512.269 42.8471L512.272 42.8439L507.064 36L501.981 42.5495C501.843 42.7016 501.722 42.8618 501.611 43.0264L501.597 43.0443L501.598 43.0453C501.219 43.6159 501 44.253 501 44.9285C501 46.2418 501.807 47.4162 503.077 48.2137V48.3697H502.033V50.184H503.077V54H510.923V50.184H511.968V48.3697H510.923V48.2137C512.193 47.4162 513 46.2418 513 44.9285Z" clip-rule="evenodd"/><path fill="#2A3D58" fill-rule="evenodd" d="M502 50H512V49H502V50Z" clip-rule="evenodd"/><path fill="#173045" fill-rule="evenodd" d="M507 36L501.971 42.5492C501.834 42.7016 501.714 42.8618 501.604 43.0264L501.591 43.0439L501.592 43.0453C501.217 43.6156 501 44.2526 501 44.9285C501 46.2418 501.798 47.4162 503.055 48.2134V48.3697H502.022V50.1836H503.055V54H506.937L507 36Z" clip-rule="evenodd"/><path fill="#173045" fill-rule="evenodd" d="M549 36L544.809 42.5493C544.695 42.7016 544.595 42.8619 544.503 43.0264L544.492 43.0442L544.493 43.0453C544.18 43.6158 544 44.2529 544 44.9284C544 46.2417 544.665 47.416 545.712 48.2134V48.3699H544.851V50.1837H545.712V54H548.947L549 36Z" clip-rule="evenodd"/><path fill="#173045" fill-rule="evenodd" d="M529 17L518.103 30.4382C517.808 30.7506 517.547 31.079 517.309 31.4168L517.28 31.4531L517.282 31.4555C516.469 32.626 516 33.9334 516 35.3194C516 38.0139 517.73 40.4239 520.452 42.06V42.3804H518.213V46.1029L520.452 46.0545V54H528.863L529 17Z" clip-rule="evenodd"/><path fill="#031E28" fill-rule="evenodd" d="M512 72V63.844C512 61.7213 510.209 60 508 60C505.791 60 504 61.7213 504 63.844V72" clip-rule="evenodd"/><path fill="#031E28" fill-rule="evenodd" d="M525 72V63.844C525 61.7213 523.209 60 521 60C518.791 60 517 61.7213 517 63.844V72" clip-rule="evenodd"/><path fill="#031E28" fill-rule="evenodd" d="M539 72V63.844C539 61.7213 537.209 60 535 60C532.791 60 531 61.7213 531 63.844V72" clip-rule="evenodd"/><path fill="#031E28" fill-rule="evenodd" d="M552 72V63.844C552 61.7213 550.209 60 548 60C545.791 60 544 61.7213 544 63.844V72" clip-rule="evenodd"/><path fill="#434D72" fill-rule="evenodd" d="M480 146H510V131H480V146Z" clip-rule="evenodd"/><path fill="#434D72" fill-rule="evenodd" d="M486 131H504V121H486V131Z" clip-rule="evenodd"/><path fill="#2A3D58" fill-rule="evenodd" d="M518 131.036L494.506 134L471 131.036V130L494.506 131.111L518 130V131.036Z" clip-rule="evenodd"/><path fill="#434D72" fill-rule="evenodd" d="M489 121H501V115H489V121Z" clip-rule="evenodd"/><path fill="#173045" fill-rule="evenodd" d="M493 122L487 121.607V116L493 116.983V122Z" clip-rule="evenodd"/><path fill="#173045" fill-rule="evenodd" d="M489 131L484 130.697V123L489 123.966V131Z" clip-rule="evenodd"/><path fill="#173045" fill-rule="evenodd" d="M486 146H479V132L486 133.093V146Z" clip-rule="evenodd"/><path fill="#2A3D58" fill-rule="evenodd" d="M513 120.991L495.471 124L478 120.991V120L495.471 121.237L513 120V120.991Z" clip-rule="evenodd"/><path fill="#173045" fill-rule="evenodd" d="M495 124L478 120.991V120L495 121.237V124Z" clip-rule="evenodd"/><path fill="#173045" fill-rule="evenodd" d="M495 134L471 131.036V130L495 131.111V134Z" clip-rule="evenodd"/><path fill="#2A3D58" fill-rule="evenodd" d="M508 114.663L495.479 117L483 114.663V114L495.438 114.987L508 114V114.663Z" clip-rule="evenodd"/><path fill="#173045" fill-rule="evenodd" d="M495 117L483 114.664V114L494.979 114.985L495 117Z" clip-rule="evenodd"/><path fill="#2A3D58" fill-rule="evenodd" d="M491 114.663L495.497 109L500 114.668L495.5 115L491 114.663Z" clip-rule="evenodd"/><path fill="#173045" fill-rule="evenodd" d="M491 114.663L494.997 109L495 115L491 114.663Z" clip-rule="evenodd"/><path fill="#1DE9B6" fill-rule="evenodd" d="M494.515 135L471 131.507L471.079 131L494.515 134.481L517.921 131L518 131.507L494.515 135Z" clip-rule="evenodd"/><path fill="#1DE9B6" fill-rule="evenodd" d="M495.525 125L495.481 124.991L478 121.565L478.088 121L495.525 124.417L512.912 121L513 121.565L495.525 125Z" clip-rule="evenodd"/><path fill="#1DE9B6" fill-rule="evenodd" d="M495.026 117L482 115.359L482.098 115L495.026 116.629L507.902 115L508 115.359L495.026 117Z" clip-rule="evenodd"/><path fill="#031E28" fill-rule="evenodd" d="M489 146H501V137H489V146Z" clip-rule="evenodd"/><path fill="#434D72" fill-rule="evenodd" d="M319 111H375V93H319V111Z" clip-rule="evenodd"/><path fill="#173045" fill-rule="evenodd" d="M318 94H375V93H318V94Z" clip-rule="evenodd"/><path fill="#031E28" fill-rule="evenodd" d="M365 107H369V101H365V107Z" clip-rule="evenodd"/><path fill="#031E28" fill-rule="evenodd" d="M358 107H361V101H358V107Z" clip-rule="evenodd"/><path fill="#031E28" fill-rule="evenodd" d="M350 107H353V101H350V107Z" clip-rule="evenodd"/><path fill="#031E28" fill-rule="evenodd" d="M342 107H345V101H342V107Z" clip-rule="evenodd"/><path fill="#031E28" fill-rule="evenodd" d="M334 107H337V101H334V107Z" clip-rule="evenodd"/><path fill="#031E28" fill-rule="evenodd" d="M326 107H330V101H326V107Z" clip-rule="evenodd"/><path fill="#434D72" fill-rule="evenodd" d="M327 93H341V84H327V93Z" clip-rule="evenodd"/><path fill="#434D72" fill-rule="evenodd" d="M375 111H386V67H375V111Z" clip-rule="evenodd"/><path fill="#434D72" fill-rule="evenodd" d="M375 67L380.5 53L386 67H375Z" clip-rule="evenodd"/><path fill="#173045" fill-rule="evenodd" d="M375 67L381 53V67H375Z" clip-rule="evenodd"/><path fill="#434D72" fill-rule="evenodd" d="M327 82L334 73L341 82H327Z" clip-rule="evenodd"/><path fill="#173045" fill-rule="evenodd" d="M327 82L334 73V82H327Z" clip-rule="evenodd"/><path fill="#173045" fill-rule="evenodd" d="M327 93H334V84H327V93Z" clip-rule="evenodd"/><path fill="#2A3D58" fill-rule="evenodd" d="M325 86H342V82H325V86Z" clip-rule="evenodd"/><path fill="#173045" fill-rule="evenodd" d="M325 86H334V82H325V86Z" clip-rule="evenodd"/><path fill="#173045" fill-rule="evenodd" d="M375 111H381V67H375V111Z" clip-rule="evenodd"/><path fill="#434D72" fill-rule="evenodd" d="M373 78H388V67H373V78Z" clip-rule="evenodd"/><path fill="#173045" fill-rule="evenodd" d="M373 78H381V67H373V78Z" clip-rule="evenodd"/><path fill="#2A3D58" fill-rule="evenodd" d="M372 68H388V67H372V68Z" clip-rule="evenodd"/><path fill="#173045" fill-rule="evenodd" d="M372 68H381V67H372V68Z" clip-rule="evenodd"/><path fill="#2A3D58" fill-rule="evenodd" d="M372 78H388V76H372V78Z" clip-rule="evenodd"/><path fill="#173045" fill-rule="evenodd" d="M372 78H381V76H372V78Z" clip-rule="evenodd"/><path fill="#1DE9B6" fill-rule="evenodd" d="M383 72.5C383 73.8807 381.881 75 380.5 75C379.12 75 378 73.8807 378 72.5C378 71.1193 379.12 70 380.5 70C381.881 70 383 71.1193 383 72.5Z" clip-rule="evenodd"/><path fill="#1DE9B6" fill-rule="evenodd" d="M325 83H342V82H325V83Z" clip-rule="evenodd"/><path fill="#434D72" fill-rule="evenodd" d="M494 304H513V286H494V304Z" clip-rule="evenodd"/><path fill="#173045" fill-rule="evenodd" d="M493 288H513V286H493V288Z" clip-rule="evenodd"/><path fill="#031E28" fill-rule="evenodd" d="M506 299H509V293H506V299Z" clip-rule="evenodd"/><path fill="#031E28" fill-rule="evenodd" d="M498 299H501V293H498V299Z" clip-rule="evenodd"/><path fill="#434D72" fill-rule="evenodd" d="M548 304H568V286H548V304Z" clip-rule="evenodd"/><path fill="#173045" fill-rule="evenodd" d="M548 288H569V286H548V288Z" clip-rule="evenodd"/><path fill="#031E28" fill-rule="evenodd" d="M553 299H556V293H553V299Z" clip-rule="evenodd"/><path fill="#031E28" fill-rule="evenodd" d="M561 299H564V293H561V299Z" clip-rule="evenodd"/><path fill="#434D72" fill-rule="evenodd" d="M513 304H548V283H513V304Z" clip-rule="evenodd"/><path fill="#434D72" fill-rule="evenodd" d="M515 268C515 259.778 522.164 255 531 255C539.836 255 547 259.778 547 268H515Z" clip-rule="evenodd"/><path fill="#434D72" fill-rule="evenodd" d="M515 277H547V268H515V277Z" clip-rule="evenodd"/><path fill="#173045" fill-rule="evenodd" d="M515 277H531V268H515V277Z" clip-rule="evenodd"/><path fill="#434D72" fill-rule="evenodd" d="M510 277L530.5 272L551 277H510Z" clip-rule="evenodd"/><path fill="#173045" fill-rule="evenodd" d="M510 277L531 272V277H510Z" clip-rule="evenodd"/><path fill="#173045" fill-rule="evenodd" d="M513 304H531V283H513V304Z" clip-rule="evenodd"/><path fill="#2A3D58" fill-rule="evenodd" d="M510 283H551V277H510V283Z" clip-rule="evenodd"/><path fill="#173045" fill-rule="evenodd" d="M510 283H531V277H510V283Z" clip-rule="evenodd"/><path fill="#1DE9B6" fill-rule="evenodd" d="M550.861 277L530.5 272.451L510.139 277L510 276.58L530.5 272L530.569 272.015L551 276.58L550.861 277Z" clip-rule="evenodd"/><path fill="#1DE9B6" fill-rule="evenodd" d="M515 269H547V268H515V269Z" clip-rule="evenodd"/><path fill="#031E28" fill-rule="evenodd" d="M539 304V295.696C539 292.678 535.418 289 531 289C526.582 289 523 292.678 523 295.696V304" clip-rule="evenodd"/><path fill="#434D72" fill-rule="evenodd" d="M313 162C313 160.896 314.343 160 316 160C317.657 160 319 160.896 319 162H313Z" clip-rule="evenodd"/><path fill="#434D72" fill-rule="evenodd" d="M313 211H320V166H313V211Z" clip-rule="evenodd"/><path fill="#173045" fill-rule="evenodd" d="M313 211H316V166H313V211Z" clip-rule="evenodd"/><path fill="#434D72" fill-rule="evenodd" d="M313 166H319V163H313V166Z" clip-rule="evenodd"/><path fill="#173045" fill-rule="evenodd" d="M313 166H316V163H313V166Z" clip-rule="evenodd"/><path fill="#2A3D58" fill-rule="evenodd" d="M312 168H320V166H312V168Z" clip-rule="evenodd"/><path fill="#173045" fill-rule="evenodd" d="M312 168H316V166H312V168Z" clip-rule="evenodd"/><path fill="#2A3D58" fill-rule="evenodd" d="M313 163H320V162H313V163Z" clip-rule="evenodd"/><path fill="#173045" fill-rule="evenodd" d="M313 163H316V162H313V163Z" clip-rule="evenodd"/><path fill="#434D72" fill-rule="evenodd" d="M351 211H362V192H351V211Z" clip-rule="evenodd"/><path fill="#173045" fill-rule="evenodd" d="M351 194H364V192H351V194Z" clip-rule="evenodd"/><path fill="#031E28" fill-rule="evenodd" d="M354 207H358V200H354V207Z" clip-rule="evenodd"/><path fill="#434D72" fill-rule="evenodd" d="M301 211H313V192H301V211Z" clip-rule="evenodd"/><path fill="#173045" fill-rule="evenodd" d="M299 194H313V192H299V194Z" clip-rule="evenodd"/><path fill="#031E28" fill-rule="evenodd" d="M305 207H309V200H305V207Z" clip-rule="evenodd"/><path fill="#434D72" fill-rule="evenodd" d="M344 162C344 160.895 345.343 160 347 160C348.657 160 350 160.895 350 162H344Z" clip-rule="evenodd"/><path fill="#434D72" fill-rule="evenodd" d="M343 211H351V166H343V211Z" clip-rule="evenodd"/><path fill="#173045" fill-rule="evenodd" d="M343 211H347V166H343V211Z" clip-rule="evenodd"/><path fill="#434D72" fill-rule="evenodd" d="M344 166H350V164H344V166Z" clip-rule="evenodd"/><path fill="#173045" fill-rule="evenodd" d="M344 166H347V164H344V166Z" clip-rule="evenodd"/><path fill="#2A3D58" fill-rule="evenodd" d="M342 168H351V166H342V168Z" clip-rule="evenodd"/><path fill="#173045" fill-rule="evenodd" d="M342 168H347V166H342V168Z" clip-rule="evenodd"/><path fill="#2A3D58" fill-rule="evenodd" d="M343 164H351V162H343V164Z" clip-rule="evenodd"/><path fill="#173045" fill-rule="evenodd" d="M343 164H347V162H343V164Z" clip-rule="evenodd"/><path fill="#434D72" fill-rule="evenodd" d="M321 177C321 173.134 325.701 170 331.5 170C337.299 170 342 173.134 342 177H321Z" clip-rule="evenodd"/><path fill="#434D72" fill-rule="evenodd" d="M321 184H342V177H321V184Z" clip-rule="evenodd"/><path fill="#173045" fill-rule="evenodd" d="M321 184H331V177H321V184Z" clip-rule="evenodd"/><path fill="#2A3D58" fill-rule="evenodd" d="M327 171H336V170H327V171Z" clip-rule="evenodd"/><path fill="#173045" fill-rule="evenodd" d="M327 171H331V170H327V171Z" clip-rule="evenodd"/><path fill="#434D72" fill-rule="evenodd" d="M320 211H343V189H320V211Z" clip-rule="evenodd"/><path fill="#173045" fill-rule="evenodd" d="M320 211H331V189H320V211Z" clip-rule="evenodd"/><path fill="#2A3D58" fill-rule="evenodd" d="M318 189H345V184H318V189Z" clip-rule="evenodd"/><path fill="#173045" fill-rule="evenodd" d="M318 189H331V184H318V189Z" clip-rule="evenodd"/><path fill="#031E28" fill-rule="evenodd" d="M339 211V204.818C339 201.382 338.105 200 337 200C335.895 200 335 201.382 335 204.818V211" clip-rule="evenodd"/><path fill="#031E28" fill-rule="evenodd" d="M328 211V204.818C328 201.382 326.881 200 325.5 200C324.119 200 323 201.382 323 204.818V211" clip-rule="evenodd"/><path fill="#434D72" fill-rule="evenodd" d="M184 238C184 236.896 185.343 236 187 236C188.657 236 190 236.896 190 238H184Z" clip-rule="evenodd"/><path fill="#434D72" fill-rule="evenodd" d="M175 273H200V245H175V273Z" clip-rule="evenodd"/><path fill="#173045" fill-rule="evenodd" d="M175 273H187V245H175V273Z" clip-rule="evenodd"/><path fill="#2A3D58" fill-rule="evenodd" d="M172 245H201V244H172V245Z" clip-rule="evenodd"/><path fill="#173045" fill-rule="evenodd" d="M172 245H187V244H172V245Z" clip-rule="evenodd"/><path fill="#434D72" fill-rule="evenodd" d="M152 244C152 240.686 154.238 238 157 238C159.761 238 162 240.686 162 244H152Z" clip-rule="evenodd"/><path fill="#434D72" fill-rule="evenodd" d="M152 273H162V244H152V273Z" clip-rule="evenodd"/><path fill="#173045" fill-rule="evenodd" d="M152 273H157V244H152V273Z" clip-rule="evenodd"/><path fill="#2A3D58" fill-rule="evenodd" d="M151 250H163V248H151V250Z" clip-rule="evenodd"/><path fill="#173045" fill-rule="evenodd" d="M151 250H157V248H151V250Z" clip-rule="evenodd"/><path fill="#2A3D58" fill-rule="evenodd" d="M151 245H163V244H151V245Z" clip-rule="evenodd"/><path fill="#173045" fill-rule="evenodd" d="M151 245H157V244H151V245Z" clip-rule="evenodd"/><path fill="#434D72" fill-rule="evenodd" d="M162 273H175V253H162V273Z" clip-rule="evenodd"/><path fill="#173045" fill-rule="evenodd" d="M162 255H175V253H162V255Z" clip-rule="evenodd"/><path fill="#031E28" fill-rule="evenodd" d="M170 268V264.066C170 261.879 169.329 261 168.5 261C167.672 261 167 261.879 167 264.066V268H170Z" clip-rule="evenodd"/><path fill="#434D72" fill-rule="evenodd" d="M212 244C212 240.686 214.238 238 217 238C219.762 238 222 240.686 222 244H212Z" clip-rule="evenodd"/><path fill="#434D72" fill-rule="evenodd" d="M212 273H222V244H212V273Z" clip-rule="evenodd"/><path fill="#173045" fill-rule="evenodd" d="M212 273H217V244H212V273Z" clip-rule="evenodd"/><path fill="#2A3D58" fill-rule="evenodd" d="M211 250H223V248H211V250Z" clip-rule="evenodd"/><path fill="#173045" fill-rule="evenodd" d="M211 250H217V248H211V250Z" clip-rule="evenodd"/><path fill="#2A3D58" fill-rule="evenodd" d="M211 245H223V244H211V245Z" clip-rule="evenodd"/><path fill="#173045" fill-rule="evenodd" d="M211 245H217V244H211V245Z" clip-rule="evenodd"/><path fill="#434D72" fill-rule="evenodd" d="M200 273H212V253H200V273Z" clip-rule="evenodd"/><path fill="#173045" fill-rule="evenodd" d="M200 255H212V253H200V255Z" clip-rule="evenodd"/><path fill="#031E28" fill-rule="evenodd" d="M204 268V264.066C204 261.879 204.672 261 205.5 261C206.328 261 207 261.879 207 264.066V268H204Z" clip-rule="evenodd"/><path fill="#031E28" fill-rule="evenodd" d="M189 255V251.066C189 248.879 188.105 248 187 248C185.895 248 185 248.879 185 251.066V255H189Z" clip-rule="evenodd"/><path fill="#031E28" fill-rule="evenodd" d="M192 273V265.694C192 261.633 189.761 260 187 260C184.239 260 182 261.633 182 265.694V273H192Z" clip-rule="evenodd"/><path fill="#173045" fill-rule="evenodd" d="M183.157 240L180 244H187V240H183.157Z" clip-rule="evenodd"/><path fill="#2A3D58" fill-rule="evenodd" d="M182 240H192V238H182V240Z" clip-rule="evenodd"/><path fill="#173045" fill-rule="evenodd" d="M182 240H187V238H182V240Z" clip-rule="evenodd"/><path fill="#434D72" fill-rule="evenodd" d="M190.294 240L193 244H187V240H190.294Z" clip-rule="evenodd"/><path fill="#1DE9B6" fill-rule="evenodd" d="M182 239H192V238H182V239Z" clip-rule="evenodd"/><path fill="#434D72" fill-rule="evenodd" d="M103 139H125V124H103V139Z" clip-rule="evenodd"/><path fill="#434D72" fill-rule="evenodd" d="M138 139H146V123H138V139Z" clip-rule="evenodd"/><path fill="#434D72" fill-rule="evenodd" d="M81 139H91V126H81V139Z" clip-rule="evenodd"/><path fill="#434D72" fill-rule="evenodd" d="M81 124H91V116H81V124Z" clip-rule="evenodd"/><path fill="#434D72" fill-rule="evenodd" d="M153 139H163V119H153V139Z" clip-rule="evenodd"/><path fill="#434D72" fill-rule="evenodd" d="M155 117H161V115H155V117Z" clip-rule="evenodd"/><path fill="#434D72" fill-rule="evenodd" d="M156 113H160V110H156V113Z" clip-rule="evenodd"/><path fill="#434D72" fill-rule="evenodd" d="M125 139H138V110H125V139Z" clip-rule="evenodd"/><path fill="#434D72" fill-rule="evenodd" d="M125 109L131.5 102L138 109H125Z" clip-rule="evenodd"/><path fill="#173045" fill-rule="evenodd" d="M125 109L132 102V109H125Z" clip-rule="evenodd"/><path fill="#434D72" fill-rule="evenodd" d="M81 114L86 109L91 114H81Z" clip-rule="evenodd"/><path fill="#434D72" fill-rule="evenodd" d="M125 139H118V94L121.5 96.1272L125 94V139Z" clip-rule="evenodd"/><path fill="#434D72" fill-rule="evenodd" d="M91 139H103V106H91V139Z" clip-rule="evenodd"/><path fill="#2A3D58" fill-rule="evenodd" d="M93 106H102V104H93V106Z" clip-rule="evenodd"/><path fill="#434D72" fill-rule="evenodd" d="M94 104H101V102H94V104Z" clip-rule="evenodd"/><path fill="#2A3D58" fill-rule="evenodd" d="M94 102H100V101H94V102Z" clip-rule="evenodd"/><path fill="#173045" fill-rule="evenodd" d="M94 102H97V101H94V102Z" clip-rule="evenodd"/><path fill="#173045" fill-rule="evenodd" d="M94 104H97V102H94V104Z" clip-rule="evenodd"/><path fill="#173045" fill-rule="evenodd" d="M93 106H97V104H93V106Z" clip-rule="evenodd"/><path fill="#173045" fill-rule="evenodd" d="M91 139H97V106H91V139Z" clip-rule="evenodd"/><path fill="#434D72" fill-rule="evenodd" d="M147 94L149 83L151 94H147Z" clip-rule="evenodd"/><path fill="#434D72" fill-rule="evenodd" d="M146 139H153V101H146V139Z" clip-rule="evenodd"/><path fill="#434D72" fill-rule="evenodd" d="M147 99H152V95H147V99Z" clip-rule="evenodd"/><path fill="#173045" fill-rule="evenodd" d="M146 139H149V101H146V139Z" clip-rule="evenodd"/><path fill="#173045" fill-rule="evenodd" d="M147 99H149V95H147V99Z" clip-rule="evenodd"/><path fill="#173045" fill-rule="evenodd" d="M147 94L149 83V94H147Z" clip-rule="evenodd"/><path fill="#173045" fill-rule="evenodd" d="M81 114L87 109V114H81Z" clip-rule="evenodd"/><path fill="#173045" fill-rule="evenodd" d="M122 139H118V94L122 96.1289V139Z" clip-rule="evenodd"/><path fill="#2A3D58" fill-rule="evenodd" d="M145 101H154V99H145V101Z" clip-rule="evenodd"/><path fill="#2A3D58" fill-rule="evenodd" d="M145 95H154V94H145V95Z" clip-rule="evenodd"/><path fill="#173045" fill-rule="evenodd" d="M145 101H149V99H145V101Z" clip-rule="evenodd"/><path fill="#173045" fill-rule="evenodd" d="M145 95H149V94H145V95Z" clip-rule="evenodd"/><path fill="#2A3D58" fill-rule="evenodd" d="M153 119H164V117H153V119Z" clip-rule="evenodd"/><path fill="#173045" fill-rule="evenodd" d="M153 119H158V117H153V119Z" clip-rule="evenodd"/><path fill="#2A3D58" fill-rule="evenodd" d="M155 115H162V113H155V115Z" clip-rule="evenodd"/><path fill="#173045" fill-rule="evenodd" d="M155 115H158V113H155V115Z" clip-rule="evenodd"/><path fill="#2A3D58" fill-rule="evenodd" d="M125 110H139V109H125V110Z" clip-rule="evenodd"/><path fill="#2A3D58" fill-rule="evenodd" d="M103 124H118V123H103V124Z" clip-rule="evenodd"/><path fill="#2A3D58" fill-rule="evenodd" d="M125 123H146V121H125V123Z" clip-rule="evenodd"/><path fill="#173045" fill-rule="evenodd" d="M125 110H132V109H125V110Z" clip-rule="evenodd"/><path fill="#2A3D58" fill-rule="evenodd" d="M80 116H91V114H80V116Z" clip-rule="evenodd"/><path fill="#173045" fill-rule="evenodd" d="M80 116H87V114H80V116Z" clip-rule="evenodd"/><path fill="#2A3D58" fill-rule="evenodd" d="M80 126H91V124H80V126Z" clip-rule="evenodd"/><path fill="#173045" fill-rule="evenodd" d="M80 126H87V124H80V126Z" clip-rule="evenodd"/><path fill="#031E28" fill-rule="evenodd" d="M83 134H86V130H83V134Z" clip-rule="evenodd"/><path fill="#031E28" fill-rule="evenodd" d="M87 134H89V130H87V134Z" clip-rule="evenodd"/><path fill="#031E28" fill-rule="evenodd" d="M83 123H86V118H83V123Z" clip-rule="evenodd"/><path fill="#031E28" fill-rule="evenodd" d="M87 123H89V118H87V123Z" clip-rule="evenodd"/><path fill="#031E28" fill-rule="evenodd" d="M109 134H112V130H109V134Z" clip-rule="evenodd"/><path fill="#031E28" fill-rule="evenodd" d="M113 134H116V130H113V134Z" clip-rule="evenodd"/><path fill="#031E28" fill-rule="evenodd" d="M106 134H108V130H106V134Z" clip-rule="evenodd"/><path fill="#031E28" fill-rule="evenodd" d="M155 134H157V130H155V134Z" clip-rule="evenodd"/><path fill="#031E28" fill-rule="evenodd" d="M159 134H162V130H159V134Z" clip-rule="evenodd"/><path fill="#031E28" fill-rule="evenodd" d="M155 129H157V124H155V129Z" clip-rule="evenodd"/><path fill="#031E28" fill-rule="evenodd" d="M159 129H162V124H159V129Z" clip-rule="evenodd"/><path fill="#031E28" fill-rule="evenodd" d="M137 134H139V130H137V134Z" clip-rule="evenodd"/><path fill="#031E28" fill-rule="evenodd" d="M140 134H143V130H140V134Z" clip-rule="evenodd"/><path fill="#031E28" fill-rule="evenodd" d="M133 134H136V130H133V134Z" clip-rule="evenodd"/><path fill="#031E28" fill-rule="evenodd" d="M126 134H128V130H126V134Z" clip-rule="evenodd"/><path fill="#031E28" fill-rule="evenodd" d="M130 134H132V130H130V134Z" clip-rule="evenodd"/><path fill="#031E28" fill-rule="evenodd" d="M130 115H134V113H130V115Z" clip-rule="evenodd"/><path fill="#031E28" fill-rule="evenodd" d="M130 119H134V117H130V119Z" clip-rule="evenodd"/><path fill="#031E28" fill-rule="evenodd" d="M99 124H102V121H99V124Z" clip-rule="evenodd"/><path fill="#031E28" fill-rule="evenodd" d="M99 119H102V115H99V119Z" clip-rule="evenodd"/><path fill="#031E28" fill-rule="evenodd" d="M99 113H102V109H99V113Z" clip-rule="evenodd"/><path fill="#1DE9B6" fill-rule="evenodd" d="M122.04 97L118 94.5231L118.25 94L122.037 96.3218L125.746 94.0012L126 94.5219L122.04 97Z" clip-rule="evenodd"/><path fill="#1DE9B6" fill-rule="evenodd" d="M80 115H91V114H80V115Z" clip-rule="evenodd"/></svg>