<?xml version="1.0" encoding="iso-8859-1"?>
<!-- Generator: Adobe Illustrator 19.0.0, SVG Export Plug-In . SVG Version: 6.00 Build 0)  -->
<svg version="1.1" id="Capa_1" xmlns="http://www.w3.org/2000/svg" xmlns:xlink="http://www.w3.org/1999/xlink" x="0px" y="0px"
	 viewBox="0 0 480.21 480.21" style="enable-background:new 0 0 480.21 480.21;" xml:space="preserve">
<g>
	<g>
		<path d="M372.189,256.191l-51.928-66.104c18.439-18.904,29.574-43.737,31.424-70.08h80.408v8.8
			c-18.613,3.825-31.979,20.198-32,39.2c0.005,22.091,17.917,39.996,40.008,39.992s39.996-17.917,39.992-40.008
			c-0.004-19.005-13.379-35.383-32-39.184v-16.8c0-4.418-3.582-8-8-8h-88.408c-1.564-22.165-9.728-43.355-23.44-60.84l11.16-11.16
			h94.16c4.418,12.497,18.131,19.046,30.627,14.627c12.497-4.418,19.046-18.131,14.627-30.627S460.689-3.039,448.193,1.379
			c-6.835,2.416-12.211,7.793-14.627,14.627h-97.472c-2.122,0-4.156,0.844-5.656,2.344l-12.92,12.92
			c-44.458-42.816-115.208-41.485-158.025,2.973c-18.198,18.896-29.169,43.592-30.991,69.763h-67.2L35.149,45.183
			C46.84,39.03,51.33,24.566,45.178,12.875S24.561-3.305,12.87,2.847C1.18,8.999-3.31,23.463,2.842,35.154
			c3.233,6.144,8.977,10.581,15.739,12.156l30.2,67.952c1.286,2.887,4.152,4.746,7.312,4.744h72.408
			c1.842,26.04,12.762,50.608,30.856,69.424l-67.536,67.536c-43.669-6.543-84.374,23.553-90.917,67.222
			c-6.543,43.669,23.553,84.374,67.222,90.917c1.318,0.198,2.641,0.362,3.967,0.493v40.408c0,4.418,3.582,8,8,8h73.472
			c4.418,12.497,18.131,19.046,30.627,14.627s19.046-18.131,14.627-30.627s-18.131-19.046-30.627-14.627
			c-6.835,2.416-12.211,7.793-14.627,14.627H88.093v-32.408c43.938-4.38,76.007-43.55,71.627-87.489
			c-2.964-29.732-22.26-55.331-50.027-66.367l61.6-61.6c40.116,31.586,96.582,31.813,136.952,0.552l44.384,56.496
			c-61.285,8.549-104.036,65.16-95.487,126.444c8.549,61.285,65.16,104.036,126.444,95.487
			c61.285-8.549,104.036-65.16,95.487-126.444C471.565,298.847,426.504,258.17,372.189,256.191z M464.093,168.007
			c0,13.255-10.745,24-24,24s-24-10.745-24-24s10.745-24,24-24S464.093,154.752,464.093,168.007z M456.093,16.007
			c4.418,0,8,3.582,8,8s-3.582,8-8,8s-8-3.582-8-8S451.675,16.007,456.093,16.007z M24.093,32.007c-4.418,0-8-3.582-8-8s3.582-8,8-8
			s8,3.582,8,8S28.511,32.007,24.093,32.007z M176.093,448.007c4.418,0,8,3.582,8,8s-3.582,8-8,8s-8-3.582-8-8
			S171.675,448.007,176.093,448.007z M112.093,391.351c-19.771,11.546-44.229,11.546-64,0v-15.344c0-17.673,14.327-32,32-32
			s32,14.327,32,32V391.351z M64.093,312.007c0-8.837,7.163-16,16-16s16,7.163,16,16s-7.163,16-16,16S64.093,320.843,64.093,312.007
			z M128.093,293.535c10.342,11.727,16.034,26.835,16,42.472c-0.003,15.546-5.694,30.553-16,42.192v-2.192
			c-0.01-17.49-9.533-33.591-24.856-42.024c12.203-12.784,11.731-33.04-1.053-45.243c-12.784-12.202-33.04-11.731-45.243,1.053
			c-11.803,12.365-11.803,31.824,0,44.189c-15.32,8.435-24.839,24.535-24.848,42.024v2.192
			c-23.379-26.51-20.841-66.953,5.668-90.332C64.271,264.487,104.714,267.025,128.093,293.535z M296.093,189.799
			c-33.397,24.246-78.603,24.246-112,0v-19.392c0-14.58,11.82-26.4,26.4-26.4h17.76l-11.608,29.024
			c-1.189,2.973-0.49,6.37,1.776,8.632l16,16c3.124,3.123,8.188,3.123,11.312,0l16-16c2.266-2.263,2.965-5.659,1.776-8.632
			l-11.6-29.024h17.784c14.58,0,26.4,11.82,26.4,26.4V189.799z M241.238,59.887c-0.3,0.5-0.544,1.03-0.728,1.583
			c-4.048,12.136-25.903,16.736-39.975,18.072c2.146-26.81,14.762-39.536,39.559-39.536c22.704,0,35.2,10.736,38.776,33.136
			l-26.656-16C248.424,54.87,243.51,56.099,241.238,59.887z M251.125,75.159l28.592,17.16
			c-3.208,19.584-27.344,35.688-39.624,35.688c-17.843-3.039-32.686-15.412-38.888-32.416
			C214.901,94.463,239.629,90.311,251.125,75.159z M246.701,174.079l-6.608,6.616l-6.608-6.616l6.608-16.536L246.701,174.079z
			 M274.997,128.375c12.48-9.821,20.159-24.515,21.096-40.368c0-52.896-30.456-64-56-64s-56,11.104-56,64
			c0.93,15.862,8.61,30.566,21.096,40.392c-21.206,2.613-37.127,20.641-37.096,42.008v4.864
			c-35.069-39.764-31.263-100.429,8.502-135.498C216.36,4.704,277.024,8.51,312.093,48.274c32,36.285,32,90.711,0,126.996v-4.864
			C312.136,149.031,296.212,130.988,274.997,128.375z M424.093,445.799c-33.397,24.246-78.603,24.246-112,0v-19.392
			c0-14.58,11.82-26.4,26.4-26.4h17.76l-11.608,29.024c-1.189,2.973-0.49,6.369,1.776,8.632l16,16c3.124,3.123,8.188,3.123,11.312,0
			l16-16c2.266-2.263,2.965-5.659,1.776-8.632l-11.6-29.024h17.784c14.58,0,26.4,11.82,26.4,26.4V445.799z M379.125,331.159l0-0.008
			l28.592,17.16c-3.208,19.592-27.344,35.696-39.624,35.696c-17.843-3.039-32.686-15.412-38.888-32.416
			C342.901,350.463,367.629,346.31,379.125,331.159z M328.533,335.543L328.533,335.543c2.144-26.808,14.76-39.536,39.56-39.536
			c22.704,0,35.2,10.736,38.776,33.136l-26.656-16c-3.789-2.273-8.703-1.044-10.976,2.745c-0.3,0.5-0.544,1.03-0.728,1.583
			C364.461,329.607,342.605,334.207,328.533,335.543z M374.701,430.079l-6.608,6.616l-6.608-6.616l6.608-16.536L374.701,430.079z
			 M440.093,431.294v-4.888c0.043-21.376-15.881-39.418-37.096-42.032c12.48-9.821,20.159-24.515,21.096-40.368
			c0-52.896-30.456-64-56-64s-56,11.104-56,64c0.93,15.862,8.61,30.566,21.096,40.392c-21.206,2.613-37.127,20.641-37.096,42.008
			v4.864c-34.987-39.795-31.089-100.419,8.706-135.406c39.795-34.987,100.419-31.089,135.406,8.706
			c15.416,17.534,23.909,40.088,23.888,63.435C464.088,391.325,455.552,413.836,440.093,431.294z"/>
	</g>
</g>
<g>
</g>
<g>
</g>
<g>
</g>
<g>
</g>
<g>
</g>
<g>
</g>
<g>
</g>
<g>
</g>
<g>
</g>
<g>
</g>
<g>
</g>
<g>
</g>
<g>
</g>
<g>
</g>
<g>
</g>
</svg>
