<?xml version="1.0" encoding="utf-8"?>
<!-- Generator: Adobe Illustrator 22.0.0, SVG Export Plug-In . SVG Version: 6.00 Build 0)  -->
<svg version="1.1" id="图层_1" xmlns="http://www.w3.org/2000/svg" xmlns:xlink="http://www.w3.org/1999/xlink" x="0px" y="0px"
	 viewBox="0 0 300 300" style="enable-background:new 0 0 300 300;" xml:space="preserve">
<style type="text/css">
	.st0{fill:#FFFFFF;}
	.st1{fill:#8FFBD5;}
	.st2{fill:#6DE6BA;}
	.st3{fill:#69789C;}
	.st4{fill:#434D70;}
	.st5{fill:#172C41;}
</style>
<rect class="st0" width="300" height="300"/>
<g>
	<polygon class="st1" points="105.5,150 80.5,150 129.5,99 154.5,99 	"/>
	<polygon class="st2" points="105.5,150 80.5,150 129.5,201 154.5,201 	"/>
	<polygon class="st3" points="138.5,150 113.5,150 162.5,99 187.5,99 	"/>
	<polygon class="st4" points="138.5,150 113.5,150 162.5,201 187.5,201 	"/>
	<g>
		<polygon class="st3" points="171.5,150 146.5,150 195.5,99 220.5,99 		"/>
		<polygon class="st4" points="171.5,150 146.5,150 195.5,201 220.5,201 		"/>
	</g>
	<rect x="167.5" y="99" class="st3" width="31" height="16"/>
	<g>
		<path class="st5" d="M219.5,127.3l22.7,22.7l-22.7,22.7L196.8,150L219.5,127.3 M219.5,99l-51,51l51,51l51-51L219.5,99L219.5,99z"
			/>
	</g>
	<g>
		<rect x="219.5" y="99" class="st0" width="51" height="102"/>
	</g>
</g>
</svg>
