<svg xmlns="http://www.w3.org/2000/svg" xmlns:xlink="http://www.w3.org/1999/xlink" viewBox="0 0 1968.87 668.23297"><defs><clipPath id="a"><rect width="1968.87" height="668.23297" style="fill:none"/></clipPath><clipPath id="b"><rect width="1968.86597" height="668.23297" style="fill:none"/></clipPath><clipPath id="c"><rect x="1379.59998" y="125.45398" width="58.39001" height="58.38998" style="fill:none"/></clipPath><clipPath id="d"><rect x="1815.22998" y="572.24257" width="58.39001" height="58.3896" style="fill:none"/></clipPath><clipPath id="e"><rect x="526.047" y="362.16498" width="58.39001" height="58.38899" style="fill:none"/></clipPath><clipPath id="f"><rect x="435.142" y="186.64197" width="60.422" height="60.422" style="fill:none"/></clipPath><clipPath id="g"><rect x="515.448" y="186.64398" width="60.42102" height="60.42798" style="fill:none"/></clipPath><clipPath id="h"><rect x="382.03101" y="559.54597" width="156.31201" height="42.51649" style="fill:none"/></clipPath><clipPath id="i"><rect x="1605.21997" y="81.38196" width="156.32007" height="42.51703" style="fill:none"/></clipPath><clipPath id="j"><rect x="1470.90002" y="290.91098" width="68.63" height="42.86899" style="fill:none"/></clipPath><clipPath id="k"><rect x="1593.43994" y="552.97797" width="42.87012" height="112.8625" style="fill:none"/></clipPath><clipPath id="l"><rect x="285.59698" y="62.27899" width="34.81302" height="155.57498" style="fill:none"/></clipPath></defs><title>footer-illus-bg</title><g style="clip-path:url(#a)"><rect x="496.742" y="332.85999" width="117" height="116.99998" style="fill:#172c3b"/><rect x="613.742" y="276.728" width="56.13098" height="56.13199" style="fill:#172c3b"/><rect x="1715.05396" y="363.60596" width="117" height="117" style="fill:#172c3b"/><rect x="1832.05396" y="480.60587" width="136.81195" height="136.81149" style="fill:#172c3b"/><rect x="10.65" y="414.42097" width="117" height="117" style="fill:#172c3b"/><rect x="127.6502" y="531.42047" width="136.81198" height="136.8125" style="fill:#172c3b"/><rect x="1832.05408" y="307.47498" width="56.13196" height="56.13101" style="fill:#172c3b"/><rect x="613.742" y="87.974" width="56.13098" height="56.13098" style="fill:#172c3b"/><rect x="1310.28894" y="56.13196" width="117" height="117" style="fill:#172c3b"/><rect x="1254.15796" y="0.00098" width="56.13098" height="56.13" style="fill:#172c3b"/><g style="clip-path:url(#b)"><g style="opacity:0.6000059843063354"><g style="clip-path:url(#c)"><line x1="1380.03906" y1="125.89606" x2="1437.54504" y2="183.40207" style="fill:none;stroke:#1de9b6;stroke-miterlimit:10;stroke-width:1.25px"/><line x1="1380.03906" y1="141.26917" x2="1422.17102" y2="183.40219" style="fill:none;stroke:#1de9b6;stroke-miterlimit:10;stroke-width:1.25px"/><line x1="1380.03906" y1="156.64417" x2="1406.797" y2="183.40219" style="fill:none;stroke:#1de9b6;stroke-miterlimit:10;stroke-width:1.25px"/><line x1="1380.03906" y1="172.01816" x2="1391.42297" y2="183.40216" style="fill:none;stroke:#1de9b6;stroke-miterlimit:10;stroke-width:1.25px"/><line x1="1426.16113" y1="125.89606" x2="1437.54504" y2="137.28009" style="fill:none;stroke:#1de9b6;stroke-miterlimit:10;stroke-width:1.25px"/><line x1="1410.78711" y1="125.89606" x2="1437.54504" y2="152.65411" style="fill:none;stroke:#1de9b6;stroke-miterlimit:10;stroke-width:1.25px"/><line x1="1395.41309" y1="125.89606" x2="1437.54504" y2="168.02808" style="fill:none;stroke:#1de9b6;stroke-miterlimit:10;stroke-width:1.25px"/></g></g><g style="opacity:0.6000059843063354"><g style="clip-path:url(#d)"><line x1="1815.66797" y1="572.68427" x2="1873.17395" y2="630.19027" style="fill:none;stroke:#1de9b6;stroke-miterlimit:10;stroke-width:1.25px"/><line x1="1815.66797" y1="588.05827" x2="1857.79993" y2="630.19027" style="fill:none;stroke:#1de9b6;stroke-miterlimit:10;stroke-width:1.25px"/><line x1="1815.66797" y1="603.43227" x2="1842.4259" y2="630.19027" style="fill:none;stroke:#1de9b6;stroke-miterlimit:10;stroke-width:1.25px"/><line x1="1815.66797" y1="618.80627" x2="1827.05188" y2="630.19027" style="fill:none;stroke:#1de9b6;stroke-miterlimit:10;stroke-width:1.25px"/><line x1="1861.79004" y1="572.68427" x2="1873.17395" y2="584.06828" style="fill:none;stroke:#1de9b6;stroke-miterlimit:10;stroke-width:1.25px"/><line x1="1846.41602" y1="572.68427" x2="1873.17395" y2="599.44228" style="fill:none;stroke:#1de9b6;stroke-miterlimit:10;stroke-width:1.25px"/><line x1="1831.04199" y1="572.68427" x2="1873.17395" y2="614.81627" style="fill:none;stroke:#1de9b6;stroke-miterlimit:10;stroke-width:1.25px"/></g></g><g style="opacity:0.6000059843063354"><g style="clip-path:url(#e)"><line x1="526.48932" y1="362.60709" x2="583.9953" y2="420.1131" style="fill:none;stroke:#1de9b6;stroke-miterlimit:10;stroke-width:1.25px"/><line x1="526.48932" y1="377.98016" x2="568.6203" y2="420.11317" style="fill:none;stroke:#1de9b6;stroke-miterlimit:10;stroke-width:1.25px"/><line x1="526.48932" y1="393.35416" x2="553.24628" y2="420.11316" style="fill:none;stroke:#1de9b6;stroke-miterlimit:10;stroke-width:1.25px"/><line x1="526.48932" y1="408.72916" x2="537.87329" y2="420.11316" style="fill:none;stroke:#1de9b6;stroke-miterlimit:10;stroke-width:1.25px"/><line x1="572.61139" y1="362.60709" x2="583.99536" y2="373.99109" style="fill:none;stroke:#1de9b6;stroke-miterlimit:10;stroke-width:1.25px"/><line x1="557.23743" y1="362.60709" x2="583.99542" y2="389.36511" style="fill:none;stroke:#1de9b6;stroke-miterlimit:10;stroke-width:1.25px"/><line x1="541.86328" y1="362.60709" x2="583.99524" y2="404.73911" style="fill:none;stroke:#1de9b6;stroke-miterlimit:10;stroke-width:1.25px"/></g></g><g style="opacity:0.6000059843063354"><g style="clip-path:url(#f)"><circle cx="465.353" cy="216.85327" r="29.58537" transform="translate(-17.03968 392.56911) rotate(-45)" style="fill:none;stroke:#1de9b6;stroke-miterlimit:10;stroke-width:1.25px"/><path d="M451.72079,211.31808a14.76092,14.76092,0,0,1,8.097-8.098" style="fill:none;stroke:#1de9b6;stroke-miterlimit:10;stroke-width:1.25px"/><path d="M459.8179,230.485a14.74652,14.74652,0,0,1-8.097-8.097" style="fill:none;stroke:#1de9b6;stroke-miterlimit:10;stroke-width:1.25px"/><path d="M470.88821,203.22137a14.71694,14.71694,0,0,1,0,27.264" style="fill:none;stroke:#1de9b6;stroke-miterlimit:10;stroke-width:1.25px"/><path d="M473.50491,236.93036a21.687,21.687,0,0,1-28.229-11.926" style="fill:none;stroke:#1de9b6;stroke-miterlimit:10;stroke-width:1.25px"/><path d="M473.50491,196.77606a21.68841,21.68841,0,0,1,11.925,28.229" style="fill:none;stroke:#1de9b6;stroke-miterlimit:10;stroke-width:1.25px"/><path d="M445.2764,208.70178a21.73637,21.73637,0,0,1,11.925-11.926" style="fill:none;stroke:#1de9b6;stroke-miterlimit:10;stroke-width:1.25px"/></g></g><g style="opacity:0.6000059843063354"><g style="clip-path:url(#g)"><circle cx="545.65872" cy="216.85747" r="29.58747" transform="translate(6.46725 449.32931) rotate(-44.99726)" style="fill:none;stroke:#1de9b6;stroke-miterlimit:10;stroke-width:1.25px"/><path d="M551.19342,203.22427a14.753,14.753,0,0,1,8.097,8.098" style="fill:none;stroke:#1de9b6;stroke-miterlimit:10;stroke-width:1.25px"/><path d="M532.02588,211.322a14.76066,14.76066,0,0,1,8.097-8.098" style="fill:none;stroke:#1de9b6;stroke-miterlimit:10;stroke-width:1.25px"/><path d="M559.29108,222.39316a14.71748,14.71748,0,0,1-27.265,0" style="fill:none;stroke:#1de9b6;stroke-miterlimit:10;stroke-width:1.25px"/><path d="M525.58209,225.01038a21.68569,21.68569,0,0,1,11.924-28.231" style="fill:none;stroke:#1de9b6;stroke-miterlimit:10;stroke-width:1.25px"/><path d="M565.73541,225.01038a21.68469,21.68469,0,0,1-28.229,11.926" style="fill:none;stroke:#1de9b6;stroke-miterlimit:10;stroke-width:1.25px"/><path d="M553.81012,196.779a21.7368,21.7368,0,0,1,11.925,11.926" style="fill:none;stroke:#1de9b6;stroke-miterlimit:10;stroke-width:1.25px"/></g></g><g style="opacity:0.6000059843063354"><g style="clip-path:url(#h)"><circle cx="535.92171" cy="565.56607" r="1.79624" style="fill:none;stroke:#1de9b6;stroke-miterlimit:10;stroke-width:1.25px"/><circle cx="517.8683" cy="565.56607" r="1.796" style="fill:none;stroke:#1de9b6;stroke-miterlimit:10;stroke-width:1.25px"/><circle cx="508.84174" cy="565.56607" r="1.79625" style="fill:none;stroke:#1de9b6;stroke-miterlimit:10;stroke-width:1.25px"/><circle cx="526.89491" cy="565.56607" r="1.79624" style="fill:none;stroke:#1de9b6;stroke-miterlimit:10;stroke-width:1.25px"/><circle cx="411.53263" cy="565.56582" r="1.7965" style="fill:none;stroke:#1de9b6;stroke-miterlimit:10;stroke-width:1.25px"/><circle cx="393.47895" cy="565.56582" r="1.7965" style="fill:none;stroke:#1de9b6;stroke-miterlimit:10;stroke-width:1.25px"/><circle cx="384.45203" cy="565.56582" r="1.7965" style="fill:none;stroke:#1de9b6;stroke-miterlimit:10;stroke-width:1.25px"/><circle cx="402.50574" cy="565.56582" r="1.7965" style="fill:none;stroke:#1de9b6;stroke-miterlimit:10;stroke-width:1.25px"/><polyline points="537.718 589.282 511.595 589.282 506.135 585.307 462.815 585.307" style="fill:none;stroke:#1de9b6;stroke-miterlimit:10;stroke-width:1.25px"/><polyline points="382.656 581.332 414.035 581.332 419.496 585.308 462.816 585.308" style="fill:none;stroke:#1de9b6;stroke-miterlimit:10;stroke-width:1.25px"/><line x1="537.71832" y1="601.43717" x2="382.65631" y2="601.43717" style="fill:none;stroke:#1de9b6;stroke-miterlimit:10;stroke-width:1.25px"/><line x1="485.17731" y1="567.86687" x2="485.17731" y2="562.77588" style="fill:none;stroke:#1de9b6;stroke-miterlimit:10;stroke-width:1.25px"/><line x1="481.0123" y1="570.31407" x2="481.0123" y2="560.81808" style="fill:none;stroke:#1de9b6;stroke-miterlimit:10;stroke-width:1.25px"/><line x1="476.8472" y1="571.58657" x2="476.8472" y2="559.54557" style="fill:none;stroke:#1de9b6;stroke-miterlimit:10;stroke-width:1.25px"/><line x1="472.68219" y1="569.17347" x2="472.68219" y2="562.77647" style="fill:none;stroke:#1de9b6;stroke-miterlimit:10;stroke-width:1.25px"/><line x1="468.51721" y1="571.58657" x2="468.51721" y2="559.54557" style="fill:none;stroke:#1de9b6;stroke-miterlimit:10;stroke-width:1.25px"/><line x1="460.1871" y1="567.86687" x2="460.1871" y2="562.77588" style="fill:none;stroke:#1de9b6;stroke-miterlimit:10;stroke-width:1.25px"/><line x1="464.35211" y1="570.31407" x2="464.35211" y2="560.81808" style="fill:none;stroke:#1de9b6;stroke-miterlimit:10;stroke-width:1.25px"/><line x1="456.022" y1="570.31407" x2="456.022" y2="560.81808" style="fill:none;stroke:#1de9b6;stroke-miterlimit:10;stroke-width:1.25px"/><line x1="451.85699" y1="571.58657" x2="451.85699" y2="559.54557" style="fill:none;stroke:#1de9b6;stroke-miterlimit:10;stroke-width:1.25px"/><line x1="447.69199" y1="569.17347" x2="447.69199" y2="562.77647" style="fill:none;stroke:#1de9b6;stroke-miterlimit:10;stroke-width:1.25px"/><line x1="443.52689" y1="571.58657" x2="443.52689" y2="559.54557" style="fill:none;stroke:#1de9b6;stroke-miterlimit:10;stroke-width:1.25px"/><line x1="435.19681" y1="567.86687" x2="435.19681" y2="562.77588" style="fill:none;stroke:#1de9b6;stroke-miterlimit:10;stroke-width:1.25px"/><line x1="439.36191" y1="570.31407" x2="439.36191" y2="560.81808" style="fill:none;stroke:#1de9b6;stroke-miterlimit:10;stroke-width:1.25px"/></g></g><g style="opacity:0.6000059843063354"><g style="clip-path:url(#i)"><circle cx="1759.11356" cy="87.40271" r="1.79648" style="fill:none;stroke:#1de9b6;stroke-miterlimit:10;stroke-width:1.25px"/><circle cx="1741.06039" cy="87.40271" r="1.79648" style="fill:none;stroke:#1de9b6;stroke-miterlimit:10;stroke-width:1.25px"/><circle cx="1732.03348" cy="87.40271" r="1.79648" style="fill:none;stroke:#1de9b6;stroke-miterlimit:10;stroke-width:1.25px"/><circle cx="1750.08719" cy="87.40271" r="1.79648" style="fill:none;stroke:#1de9b6;stroke-miterlimit:10;stroke-width:1.25px"/><circle cx="1634.72446" cy="87.40271" r="1.79648" style="fill:none;stroke:#1de9b6;stroke-miterlimit:10;stroke-width:1.25px"/><circle cx="1616.67075" cy="87.40271" r="1.79648" style="fill:none;stroke:#1de9b6;stroke-miterlimit:10;stroke-width:1.25px"/><circle cx="1607.64438" cy="87.40271" r="1.79648" style="fill:none;stroke:#1de9b6;stroke-miterlimit:10;stroke-width:1.25px"/><circle cx="1625.69754" cy="87.40271" r="1.79648" style="fill:none;stroke:#1de9b6;stroke-miterlimit:10;stroke-width:1.25px"/><polyline points="1760.91 111.119 1734.787 111.119 1729.327 107.143 1686.007 107.143" style="fill:none;stroke:#1de9b6;stroke-miterlimit:10;stroke-width:1.25px"/><polyline points="1605.848 103.169 1637.227 103.169 1642.688 107.144 1686.007 107.144" style="fill:none;stroke:#1de9b6;stroke-miterlimit:10;stroke-width:1.25px"/><line x1="1760.91016" y1="123.27405" x2="1605.84814" y2="123.27405" style="fill:none;stroke:#1de9b6;stroke-miterlimit:10;stroke-width:1.25px"/><line x1="1708.36914" y1="89.70276" x2="1708.36914" y2="84.61279" style="fill:none;stroke:#1de9b6;stroke-miterlimit:10;stroke-width:1.25px"/><line x1="1704.2041" y1="92.15009" x2="1704.2041" y2="82.65509" style="fill:none;stroke:#1de9b6;stroke-miterlimit:10;stroke-width:1.25px"/><line x1="1700.03906" y1="93.42346" x2="1700.03906" y2="81.38251" style="fill:none;stroke:#1de9b6;stroke-miterlimit:10;stroke-width:1.25px"/><line x1="1695.87402" y1="91.01038" x2="1695.87402" y2="84.6134" style="fill:none;stroke:#1de9b6;stroke-miterlimit:10;stroke-width:1.25px"/><line x1="1691.70898" y1="93.42346" x2="1691.70898" y2="81.38251" style="fill:none;stroke:#1de9b6;stroke-miterlimit:10;stroke-width:1.25px"/><line x1="1683.37891" y1="89.70276" x2="1683.37891" y2="84.61279" style="fill:none;stroke:#1de9b6;stroke-miterlimit:10;stroke-width:1.25px"/><line x1="1687.54395" y1="92.15009" x2="1687.54395" y2="82.65509" style="fill:none;stroke:#1de9b6;stroke-miterlimit:10;stroke-width:1.25px"/><line x1="1679.21387" y1="92.15009" x2="1679.21387" y2="82.65509" style="fill:none;stroke:#1de9b6;stroke-miterlimit:10;stroke-width:1.25px"/><line x1="1675.04883" y1="93.42346" x2="1675.04883" y2="81.38251" style="fill:none;stroke:#1de9b6;stroke-miterlimit:10;stroke-width:1.25px"/><line x1="1670.88379" y1="91.01038" x2="1670.88379" y2="84.6134" style="fill:none;stroke:#1de9b6;stroke-miterlimit:10;stroke-width:1.25px"/><line x1="1666.71875" y1="93.42346" x2="1666.71875" y2="81.38251" style="fill:none;stroke:#1de9b6;stroke-miterlimit:10;stroke-width:1.25px"/><line x1="1658.38867" y1="89.70276" x2="1658.38867" y2="84.61279" style="fill:none;stroke:#1de9b6;stroke-miterlimit:10;stroke-width:1.25px"/><line x1="1662.55371" y1="92.15009" x2="1662.55371" y2="82.65509" style="fill:none;stroke:#1de9b6;stroke-miterlimit:10;stroke-width:1.25px"/></g></g><g style="opacity:0.6000059843063354"><g style="clip-path:url(#j)"><polyline points="1470.896 324.071 1489.947 324.071 1502.423 333.155 1539.53 333.155" style="fill:none;stroke:#1de9b6;stroke-miterlimit:10;stroke-width:1.25px"/><line x1="1539.53027" y1="312.34537" x2="1470.89624" y2="312.34537" style="fill:none;stroke:#1de9b6;stroke-miterlimit:10;stroke-width:1.25px"/><line x1="1508.00195" y1="291.53577" x2="1470.89685" y2="291.53577" style="fill:none;stroke:#1de9b6;stroke-miterlimit:10;stroke-width:1.25px"/><polyline points="1470.896 300.62 1508.001 300.62 1515.617 291.536 1524.211 291.536" style="fill:none;stroke:#1de9b6;stroke-miterlimit:10;stroke-width:1.25px"/><line x1="1539.53027" y1="324.07098" x2="1503.0282" y2="324.07098" style="fill:none;stroke:#1de9b6;stroke-miterlimit:10;stroke-width:1.25px"/><rect x="1529.14294" y="291.53598" width="9.48401" height="9.08401" style="fill:none;stroke:#1de9b6;stroke-miterlimit:10;stroke-width:1.25px"/></g></g><g style="opacity:0.6000059843063354"><g style="clip-path:url(#k)"><polyline points="1626.601 665.84 1626.601 602.56 1635.683 590.083 1635.683 552.978" style="fill:none;stroke:#1de9b6;stroke-miterlimit:10;stroke-width:1.25px"/><line x1="1614.87402" y1="552.97717" x2="1614.87402" y2="665.84017" style="fill:none;stroke:#1de9b6;stroke-miterlimit:10;stroke-width:1.25px"/><line x1="1594.06543" y1="584.50557" x2="1594.06543" y2="665.84057" style="fill:none;stroke:#1de9b6;stroke-miterlimit:10;stroke-width:1.25px"/><polyline points="1603.148 665.84 1603.148 584.505 1594.065 576.89 1594.065 568.295" style="fill:none;stroke:#1de9b6;stroke-miterlimit:10;stroke-width:1.25px"/><line x1="1626.60059" y1="552.97717" x2="1626.60059" y2="589.48017" style="fill:none;stroke:#1de9b6;stroke-miterlimit:10;stroke-width:1.25px"/><rect x="1594.06494" y="553.88097" width="9.08301" height="9.484" style="fill:none;stroke:#1de9b6;stroke-miterlimit:10;stroke-width:1.25px"/></g></g><g style="opacity:0.6000059843063354"><g style="clip-path:url(#l)"><circle cx="288.14999" cy="64.83167" r="1.92774" style="fill:none;stroke:#1de9b6;stroke-miterlimit:10;stroke-width:1.25px"/><circle cx="288.14999" cy="84.54352" r="1.92774" style="fill:none;stroke:#1de9b6;stroke-miterlimit:10;stroke-width:1.25px"/><circle cx="288.14999" cy="94.40002" r="1.92774" style="fill:none;stroke:#1de9b6;stroke-miterlimit:10;stroke-width:1.25px"/><circle cx="288.14999" cy="74.68811" r="1.92774" style="fill:none;stroke:#1de9b6;stroke-miterlimit:10;stroke-width:1.25px"/><circle cx="288.14999" cy="104.25568" r="1.92799" style="fill:none;stroke:#1de9b6;stroke-miterlimit:10;stroke-width:1.25px"/><circle cx="288.14999" cy="123.96832" r="1.92774" style="fill:none;stroke:#1de9b6;stroke-miterlimit:10;stroke-width:1.25px"/><circle cx="288.14999" cy="133.82385" r="1.92774" style="fill:none;stroke:#1de9b6;stroke-miterlimit:10;stroke-width:1.25px"/><circle cx="288.14999" cy="114.11194" r="1.92774" style="fill:none;stroke:#1de9b6;stroke-miterlimit:10;stroke-width:1.25px"/><polyline points="306.083 62.904 306.083 82.345 301.817 88.206 301.817 134.695" style="fill:none;stroke:#1de9b6;stroke-miterlimit:10;stroke-width:1.25px"/><polyline points="297.551 217.854 297.551 187.044 301.817 181.185 301.817 134.695" style="fill:none;stroke:#1de9b6;stroke-miterlimit:10;stroke-width:1.25px"/><line x1="319.78519" y1="62.90399" x2="319.78519" y2="217.854" style="fill:none;stroke:#1de9b6;stroke-miterlimit:10;stroke-width:1.25px"/></g></g><path d="M1424.91895,528.17058a51.60054,51.60054,0,0,0-51.6001,51.6h51.6001Z" style="fill:#172c3b"/><path d="M1476.51953,528.17058a51.60161,51.60161,0,0,0-51.60107-51.601v51.601Z" style="fill:#172c3b"/><path d="M1476.51953,475.97137a51.60136,51.60136,0,0,0,51.601-51.6h-51.601Z" style="fill:#172c3b"/><path d="M127.6505,368.01627a46.40428,46.40428,0,0,0-46.404-46.404v46.404Z" style="fill:#172c3b"/><path d="M220.4586,368.01627a46.40428,46.40428,0,0,0-46.404-46.404v46.404Z" style="fill:#172c3b"/><path d="M127.6505,414.42058a46.40362,46.40362,0,0,0,46.404-46.404h-46.404Z" style="fill:#172c3b"/><path d="M220.9971,414.42058a46.40362,46.40362,0,0,0,46.404-46.404h-46.404Z" style="fill:#172c3b"/><path d="M174.59331,414.42058a46.40448,46.40448,0,0,0,46.404,46.405v-46.405Z" style="fill:#172c3b"/><path d="M139.751,149.09827a46.40363,46.40363,0,0,0,46.404,46.404v-46.404Z" style="fill:#172c3b"/><path d="M46.9429,149.09827a46.403,46.403,0,0,0,46.404,46.404v-46.404Z" style="fill:#172c3b"/><path d="M139.751,102.694A46.40429,46.40429,0,0,0,93.347,149.098h46.404Z" style="fill:#172c3b"/><path d="M46.4039,102.694A46.40429,46.40429,0,0,0-.0001,149.098h46.404Z" style="fill:#172c3b"/><path d="M92.8082,102.694a46.40449,46.40449,0,0,0-46.404-46.405v46.405Z" style="fill:#172c3b"/></g></g></svg>