<svg xmlns="http://www.w3.org/2000/svg" xmlns:xlink="http://www.w3.org/1999/xlink" viewBox="0 0 409.618 272.225"><defs><clipPath id="a"><rect width="409.618" height="272.225" fill="none"/></clipPath></defs><title>footer-illus-bg-mob</title><g clip-path="url(#a)"><circle cx="155.41" cy="255.624" r=".898" fill="none" stroke="#1de9b6" stroke-miterlimit="10" stroke-width=".637"/><circle cx="164.441" cy="255.624" r=".898" fill="none" stroke="#1de9b6" stroke-miterlimit="10" stroke-width=".637"/><circle cx="168.957" cy="255.624" r=".898" fill="none" stroke="#1de9b6" stroke-miterlimit="10" stroke-width=".637"/><circle cx="159.925" cy="255.624" r=".898" fill="none" stroke="#1de9b6" stroke-miterlimit="10" stroke-width=".637"/><circle cx="217.636" cy="255.624" r=".898" fill="none" stroke="#1de9b6" stroke-miterlimit="10" stroke-width=".637"/><circle cx="226.668" cy="255.624" r=".898" fill="none" stroke="#1de9b6" stroke-miterlimit="10" stroke-width=".637"/><circle cx="231.184" cy="255.624" r=".898" fill="none" stroke="#1de9b6" stroke-miterlimit="10" stroke-width=".637"/><circle cx="222.152" cy="255.624" r=".898" fill="none" stroke="#1de9b6" stroke-miterlimit="10" stroke-width=".637"/><polyline fill="none" stroke="#1de9b6" stroke-miterlimit="10" stroke-width=".637" points="154.511 243.76 167.579 243.76 170.311 245.748 191.982 245.748"/><polyline fill="none" stroke="#1de9b6" stroke-miterlimit="10" stroke-width=".637" points="232.082 247.737 216.384 247.737 213.652 245.748 191.981 245.748"/><line x1="154.511" x2="232.082" y1="237.679" y2="237.679" fill="none" stroke="#1de9b6" stroke-miterlimit="10" stroke-width=".637"/><line x1="180.795" x2="180.795" y1="254.473" y2="257.02" fill="none" stroke="#1de9b6" stroke-miterlimit="10" stroke-width=".637"/><line x1="182.878" x2="182.878" y1="253.249" y2="257.999" fill="none" stroke="#1de9b6" stroke-miterlimit="10" stroke-width=".637"/><line x1="184.962" x2="184.962" y1="252.612" y2="258.635" fill="none" stroke="#1de9b6" stroke-miterlimit="10" stroke-width=".637"/><line x1="187.046" x2="187.046" y1="253.819" y2="257.019" fill="none" stroke="#1de9b6" stroke-miterlimit="10" stroke-width=".637"/><line x1="189.129" x2="189.129" y1="252.612" y2="258.635" fill="none" stroke="#1de9b6" stroke-miterlimit="10" stroke-width=".637"/><line x1="193.296" x2="193.296" y1="254.473" y2="257.02" fill="none" stroke="#1de9b6" stroke-miterlimit="10" stroke-width=".637"/><line x1="191.213" x2="191.213" y1="253.249" y2="257.999" fill="none" stroke="#1de9b6" stroke-miterlimit="10" stroke-width=".637"/><line x1="195.38" x2="195.38" y1="253.249" y2="257.999" fill="none" stroke="#1de9b6" stroke-miterlimit="10" stroke-width=".637"/><line x1="197.464" x2="197.464" y1="252.612" y2="258.635" fill="none" stroke="#1de9b6" stroke-miterlimit="10" stroke-width=".637"/><line x1="199.547" x2="199.547" y1="253.819" y2="257.019" fill="none" stroke="#1de9b6" stroke-miterlimit="10" stroke-width=".637"/><line x1="201.631" x2="201.631" y1="252.612" y2="258.635" fill="none" stroke="#1de9b6" stroke-miterlimit="10" stroke-width=".637"/><line x1="205.798" x2="205.798" y1="254.473" y2="257.02" fill="none" stroke="#1de9b6" stroke-miterlimit="10" stroke-width=".637"/><line x1="203.715" x2="203.714" y1="253.249" y2="257.999" fill="none" stroke="#1de9b6" stroke-miterlimit="10" stroke-width=".637"/><circle cx="332.627" cy="117.23" r=".898" fill="none" stroke="#1de9b6" stroke-miterlimit="10" stroke-width=".637"/><circle cx="341.659" cy="117.23" r=".898" fill="none" stroke="#1de9b6" stroke-miterlimit="10" stroke-width=".637"/><circle cx="346.174" cy="117.23" r=".898" fill="none" stroke="#1de9b6" stroke-miterlimit="10" stroke-width=".637"/><circle cx="337.143" cy="117.23" r=".898" fill="none" stroke="#1de9b6" stroke-miterlimit="10" stroke-width=".637"/><circle cx="394.854" cy="117.23" r=".898" fill="none" stroke="#1de9b6" stroke-miterlimit="10" stroke-width=".637"/><circle cx="403.885" cy="117.23" r=".898" fill="none" stroke="#1de9b6" stroke-miterlimit="10" stroke-width=".637"/><circle cx="408.401" cy="117.23" r=".898" fill="none" stroke="#1de9b6" stroke-miterlimit="10" stroke-width=".637"/><circle cx="399.369" cy="117.23" r=".898" fill="none" stroke="#1de9b6" stroke-miterlimit="10" stroke-width=".637"/><polyline fill="none" stroke="#1de9b6" stroke-miterlimit="10" stroke-width=".637" points="331.729 105.365 344.796 105.365 347.529 107.354 369.2 107.354"/><polyline fill="none" stroke="#1de9b6" stroke-miterlimit="10" stroke-width=".637" points="409.3 109.343 393.602 109.343 390.87 107.355 369.199 107.355"/><line x1="331.729" x2="409.3" y1="99.285" y2="99.285" fill="none" stroke="#1de9b6" stroke-miterlimit="10" stroke-width=".637"/><line x1="358.012" x2="358.012" y1="116.079" y2="118.625" fill="none" stroke="#1de9b6" stroke-miterlimit="10" stroke-width=".637"/><line x1="360.096" x2="360.096" y1="114.855" y2="119.605" fill="none" stroke="#1de9b6" stroke-miterlimit="10" stroke-width=".637"/><line x1="362.18" x2="362.18" y1="114.218" y2="120.241" fill="none" stroke="#1de9b6" stroke-miterlimit="10" stroke-width=".637"/><line x1="364.263" x2="364.263" y1="115.425" y2="118.625" fill="none" stroke="#1de9b6" stroke-miterlimit="10" stroke-width=".637"/><line x1="366.347" x2="366.347" y1="114.218" y2="120.241" fill="none" stroke="#1de9b6" stroke-miterlimit="10" stroke-width=".637"/><line x1="370.514" x2="370.514" y1="116.079" y2="118.625" fill="none" stroke="#1de9b6" stroke-miterlimit="10" stroke-width=".637"/><line x1="368.431" x2="368.431" y1="114.855" y2="119.605" fill="none" stroke="#1de9b6" stroke-miterlimit="10" stroke-width=".637"/><line x1="372.598" x2="372.598" y1="114.855" y2="119.605" fill="none" stroke="#1de9b6" stroke-miterlimit="10" stroke-width=".637"/><line x1="374.681" x2="374.681" y1="114.218" y2="120.241" fill="none" stroke="#1de9b6" stroke-miterlimit="10" stroke-width=".637"/><line x1="376.765" x2="376.765" y1="115.425" y2="118.625" fill="none" stroke="#1de9b6" stroke-miterlimit="10" stroke-width=".637"/><line x1="378.849" x2="378.849" y1="114.218" y2="120.241" fill="none" stroke="#1de9b6" stroke-miterlimit="10" stroke-width=".637"/><line x1="383.016" x2="383.016" y1="116.079" y2="118.625" fill="none" stroke="#1de9b6" stroke-miterlimit="10" stroke-width=".637"/><line x1="380.932" x2="380.932" y1="114.855" y2="119.605" fill="none" stroke="#1de9b6" stroke-miterlimit="10" stroke-width=".637"/><polyline fill="none" stroke="#1de9b6" stroke-miterlimit="10" stroke-width=".637" points="270.507 168.622 260.792 168.622 254.43 163.99 235.507 163.989"/><line x1="235.507" x2="270.508" y1="174.602" y2="174.602" fill="none" stroke="#1de9b6" stroke-miterlimit="10" stroke-width=".637"/><line x1="251.585" x2="270.508" y1="185.214" y2="185.214" fill="none" stroke="#1de9b6" stroke-miterlimit="10" stroke-width=".637"/><polyline fill="none" stroke="#1de9b6" stroke-miterlimit="10" stroke-width=".637" points="270.508 180.581 251.585 180.581 247.701 185.214 243.319 185.214"/><line x1="235.507" x2="254.121" y1="168.622" y2="168.622" fill="none" stroke="#1de9b6" stroke-miterlimit="10" stroke-width=".637"/><rect width="4.837" height="4.633" x="235.968" y="180.581" fill="none" stroke="#1de9b6" stroke-miterlimit="10" stroke-width=".637"/><polyline fill="none" stroke="#1de9b6" stroke-miterlimit="10" stroke-width=".637" points="221.067 6.709 221.067 38.531 216.499 44.806 216.499 63.465"/><line x1="226.963" x2="226.963" y1="63.465" y2="6.709" fill="none" stroke="#1de9b6" stroke-miterlimit="10" stroke-width=".637"/><line x1="237.428" x2="237.427" y1="47.61" y2="6.709" fill="none" stroke="#1de9b6" stroke-miterlimit="10" stroke-width=".637"/><polyline fill="none" stroke="#1de9b6" stroke-miterlimit="10" stroke-width=".637" points="232.859 6.709 232.859 47.61 237.427 51.44 237.427 55.762"/><line x1="221.067" x2="221.067" y1="63.465" y2="45.11" fill="none" stroke="#1de9b6" stroke-miterlimit="10" stroke-width=".637"/><rect width="4.568" height="4.77" x="232.86" y="58.241" fill="none" stroke="#1de9b6" stroke-miterlimit="10" stroke-width=".637"/><path fill="#172c3b" d="M267.72769,92.19531a25.78948,25.78948,0,0,0-25.789,25.789h25.789Z"/><path fill="#172c3b" d="M293.51682,92.19531a25.788,25.788,0,0,0-25.789-25.788v25.788Z"/><path fill="#172c3b" d="M293.51682,66.10741a25.78881,25.78881,0,0,0,25.789-25.789h-25.789Z"/><rect width="66.445" height="66.444" x="52.318" y="8.631" fill="#172c3b"/><rect width="57.95" height="57.95" x="118.763" y="75.075" fill="#172c3b"/><rect width="27.479" height="27.479" x="91.284" y="133.025" fill="#172c3b"/><rect width="58.944" height="58.944" x="305.483" y="213.28" fill="#172c3b"/><rect width="58.944" height="58.944" x="39.927" y="213.28" fill="#172c3b"/><line x1="299.005" x2="331.728" y1="206.797" y2="239.522" fill="none" stroke="#1de9b6" stroke-miterlimit="10" stroke-width=".637"/><line x1="299.005" x2="322.98" y1="215.544" y2="239.521" fill="none" stroke="#1de9b6" stroke-miterlimit="10" stroke-width=".637"/><line x1="299.005" x2="314.231" y1="224.291" y2="239.519" fill="none" stroke="#1de9b6" stroke-miterlimit="10" stroke-width=".637"/><line x1="299.005" x2="305.483" y1="233.038" y2="239.517" fill="none" stroke="#1de9b6" stroke-miterlimit="10" stroke-width=".637"/><line x1="325.25" x2="331.729" y1="206.803" y2="213.281" fill="none" stroke="#1de9b6" stroke-miterlimit="10" stroke-width=".637"/><line x1="316.502" x2="331.729" y1="206.801" y2="222.028" fill="none" stroke="#1de9b6" stroke-miterlimit="10" stroke-width=".637"/><line x1="307.754" x2="331.729" y1="206.799" y2="230.776" fill="none" stroke="#1de9b6" stroke-miterlimit="10" stroke-width=".637"/><line x1="53.037" x2="85.76" y1="226.391" y2="259.116" fill="none" stroke="#1de9b6" stroke-miterlimit="10" stroke-width=".637"/><line x1="53.037" x2="77.012" y1="235.138" y2="259.114" fill="none" stroke="#1de9b6" stroke-miterlimit="10" stroke-width=".637"/><line x1="53.037" x2="68.263" y1="243.885" y2="259.112" fill="none" stroke="#1de9b6" stroke-miterlimit="10" stroke-width=".637"/><line x1="53.037" x2="59.515" y1="252.632" y2="259.111" fill="none" stroke="#1de9b6" stroke-miterlimit="10" stroke-width=".637"/><line x1="79.282" x2="85.761" y1="226.396" y2="232.875" fill="none" stroke="#1de9b6" stroke-miterlimit="10" stroke-width=".637"/><line x1="70.534" x2="85.761" y1="226.394" y2="241.622" fill="none" stroke="#1de9b6" stroke-miterlimit="10" stroke-width=".637"/><line x1="61.785" x2="85.76" y1="226.392" y2="250.369" fill="none" stroke="#1de9b6" stroke-miterlimit="10" stroke-width=".637"/><line x1="95.633" x2="128.356" y1=".225" y2="32.951" fill="none" stroke="#1de9b6" stroke-miterlimit="10" stroke-width=".637"/><line x1="95.633" x2="119.608" y1="8.972" y2="32.949" fill="none" stroke="#1de9b6" stroke-miterlimit="10" stroke-width=".637"/><line x1="95.632" x2="110.859" y1="17.719" y2="32.947" fill="none" stroke="#1de9b6" stroke-miterlimit="10" stroke-width=".637"/><line x1="95.632" x2="102.111" y1="26.467" y2="32.945" fill="none" stroke="#1de9b6" stroke-miterlimit="10" stroke-width=".637"/><line x1="121.878" x2="128.356" y1=".231" y2="6.71" fill="none" stroke="#1de9b6" stroke-miterlimit="10" stroke-width=".637"/><line x1="113.13" x2="128.356" y1=".229" y2="15.457" fill="none" stroke="#1de9b6" stroke-miterlimit="10" stroke-width=".637"/><line x1="104.381" x2="128.356" y1=".227" y2="24.204" fill="none" stroke="#1de9b6" stroke-miterlimit="10" stroke-width=".637"/><circle cx="16.048" cy="171.876" r="15.729" fill="none" stroke="#1de9b6" stroke-miterlimit="10" stroke-width=".637" transform="translate(-116.83425 61.68902) rotate(-45)"/><path fill="none" stroke="#1de9b6" stroke-miterlimit="10" stroke-width=".637" d="M8.8,168.93361a7.85927,7.85927,0,0,1,4.306-4.306"/><path fill="none" stroke="#1de9b6" stroke-miterlimit="10" stroke-width=".637" d="M13.1056,179.124a7.85088,7.85088,0,0,1-4.306-4.306"/><path fill="none" stroke="#1de9b6" stroke-miterlimit="10" stroke-width=".637" d="M18.9904,164.628a7.8243,7.8243,0,0,1,0,14.496"/><path fill="none" stroke="#1de9b6" stroke-miterlimit="10" stroke-width=".637" d="M20.382,182.5498a11.5299,11.5299,0,0,1-15.008-6.34"/><path fill="none" stroke="#1de9b6" stroke-miterlimit="10" stroke-width=".637" d="M20.382,161.20221a11.528,11.528,0,0,1,6.34,15.008"/><path fill="none" stroke="#1de9b6" stroke-miterlimit="10" stroke-width=".637" d="M5.3742,167.542a11.55512,11.55512,0,0,1,6.34-6.34"/><circle cx="58.743" cy="171.879" r="15.73" fill="none" stroke="#1de9b6" stroke-miterlimit="10" stroke-width=".637" transform="translate(-104.32748 91.87226) rotate(-44.99744)"/><path fill="none" stroke="#1de9b6" stroke-miterlimit="10" stroke-width=".637" d="M61.6857,164.62991a7.845,7.845,0,0,1,4.305,4.306"/><path fill="none" stroke="#1de9b6" stroke-miterlimit="10" stroke-width=".637" d="M51.4953,168.93561a7.845,7.845,0,0,1,4.305-4.306"/><path fill="none" stroke="#1de9b6" stroke-miterlimit="10" stroke-width=".637" d="M65.9904,174.8213a7.82371,7.82371,0,0,1-14.495,0"/><path fill="none" stroke="#1de9b6" stroke-miterlimit="10" stroke-width=".637" d="M48.0685,176.21291a11.53312,11.53312,0,0,1,6.34-15.01"/><path fill="none" stroke="#1de9b6" stroke-miterlimit="10" stroke-width=".637" d="M69.4171,176.21291a11.53084,11.53084,0,0,1-15.008,6.341"/><path fill="none" stroke="#1de9b6" stroke-miterlimit="10" stroke-width=".637" d="M63.0763,161.20311a11.54445,11.54445,0,0,1,6.34,6.341"/></g></svg>