<svg xmlns="http://www.w3.org/2000/svg" xmlns:xlink="http://www.w3.org/1999/xlink" viewBox="0 0 409.61801 272.22501"><defs><clipPath id="a"><rect width="409.61801" height="272.22501" style="fill:none"/></clipPath></defs><title>footer-illus-bg-mob</title><g style="clip-path:url(#a)"><circle cx="155.40954" cy="255.62401" r="0.89825" style="fill:none;stroke:#1de9b6;stroke-miterlimit:10;stroke-width:0.6370000243186951px"/><circle cx="164.44099" cy="255.62401" r="0.8985" style="fill:none;stroke:#1de9b6;stroke-miterlimit:10;stroke-width:0.6370000243186951px"/><circle cx="168.9566" cy="255.62401" r="0.8985" style="fill:none;stroke:#1de9b6;stroke-miterlimit:10;stroke-width:0.6370000243186951px"/><circle cx="159.92514" cy="255.62401" r="0.89825" style="fill:none;stroke:#1de9b6;stroke-miterlimit:10;stroke-width:0.6370000243186951px"/><circle cx="217.63629" cy="255.62401" r="0.8985" style="fill:none;stroke:#1de9b6;stroke-miterlimit:10;stroke-width:0.6370000243186951px"/><circle cx="226.6681" cy="255.62401" r="0.8985" style="fill:none;stroke:#1de9b6;stroke-miterlimit:10;stroke-width:0.6370000243186951px"/><circle cx="231.18369" cy="255.62401" r="0.8985" style="fill:none;stroke:#1de9b6;stroke-miterlimit:10;stroke-width:0.6370000243186951px"/><circle cx="222.1524" cy="255.62401" r="0.8985" style="fill:none;stroke:#1de9b6;stroke-miterlimit:10;stroke-width:0.6370000243186951px"/><polyline points="154.511 243.76 167.579 243.76 170.311 245.748 191.982 245.748" style="fill:none;stroke:#1de9b6;stroke-miterlimit:10;stroke-width:0.6370000243186951px"/><polyline points="232.082 247.737 216.384 247.737 213.652 245.748 191.981 245.748" style="fill:none;stroke:#1de9b6;stroke-miterlimit:10;stroke-width:0.6370000243186951px"/><line x1="154.51089" y1="237.67871" x2="232.08189" y2="237.67871" style="fill:none;stroke:#1de9b6;stroke-miterlimit:10;stroke-width:0.6370000243186951px"/><line x1="180.7951" y1="254.47271" x2="180.7951" y2="257.01971" style="fill:none;stroke:#1de9b6;stroke-miterlimit:10;stroke-width:0.6370000243186951px"/><line x1="182.8781" y1="253.24901" x2="182.8781" y2="257.99901" style="fill:none;stroke:#1de9b6;stroke-miterlimit:10;stroke-width:0.6370000243186951px"/><line x1="184.9621" y1="252.61231" x2="184.9621" y2="258.63531" style="fill:none;stroke:#1de9b6;stroke-miterlimit:10;stroke-width:0.6370000243186951px"/><line x1="187.0461" y1="253.81941" x2="187.0461" y2="257.01941" style="fill:none;stroke:#1de9b6;stroke-miterlimit:10;stroke-width:0.6370000243186951px"/><line x1="189.1291" y1="252.61231" x2="189.1291" y2="258.63531" style="fill:none;stroke:#1de9b6;stroke-miterlimit:10;stroke-width:0.6370000243186951px"/><line x1="193.2961" y1="254.47271" x2="193.2961" y2="257.01971" style="fill:none;stroke:#1de9b6;stroke-miterlimit:10;stroke-width:0.6370000243186951px"/><line x1="191.213" y1="253.24901" x2="191.213" y2="257.99901" style="fill:none;stroke:#1de9b6;stroke-miterlimit:10;stroke-width:0.6370000243186951px"/><line x1="195.38" y1="253.24901" x2="195.38" y2="257.99901" style="fill:none;stroke:#1de9b6;stroke-miterlimit:10;stroke-width:0.6370000243186951px"/><line x1="197.464" y1="252.61231" x2="197.464" y2="258.63531" style="fill:none;stroke:#1de9b6;stroke-miterlimit:10;stroke-width:0.6370000243186951px"/><line x1="199.547" y1="253.81941" x2="199.547" y2="257.01941" style="fill:none;stroke:#1de9b6;stroke-miterlimit:10;stroke-width:0.6370000243186951px"/><line x1="201.631" y1="252.61231" x2="201.631" y2="258.63531" style="fill:none;stroke:#1de9b6;stroke-miterlimit:10;stroke-width:0.6370000243186951px"/><line x1="205.798" y1="254.47271" x2="205.798" y2="257.01971" style="fill:none;stroke:#1de9b6;stroke-miterlimit:10;stroke-width:0.6370000243186951px"/><line x1="203.715" y1="253.24901" x2="203.71399" y2="257.99901" style="fill:none;stroke:#1de9b6;stroke-miterlimit:10;stroke-width:0.6370000243186951px"/><circle cx="332.62725" cy="117.22951" r="0.89826" style="fill:none;stroke:#1de9b6;stroke-miterlimit:10;stroke-width:0.6370000243186951px"/><circle cx="341.65853" cy="117.22951" r="0.89826" style="fill:none;stroke:#1de9b6;stroke-miterlimit:10;stroke-width:0.6370000243186951px"/><circle cx="346.17413" cy="117.22951" r="0.89826" style="fill:none;stroke:#1de9b6;stroke-miterlimit:10;stroke-width:0.6370000243186951px"/><circle cx="337.14294" cy="117.22951" r="0.89826" style="fill:none;stroke:#1de9b6;stroke-miterlimit:10;stroke-width:0.6370000243186951px"/><circle cx="394.85384" cy="117.22951" r="0.89826" style="fill:none;stroke:#1de9b6;stroke-miterlimit:10;stroke-width:0.6370000243186951px"/><circle cx="403.88529" cy="117.22951" r="0.8985" style="fill:none;stroke:#1de9b6;stroke-miterlimit:10;stroke-width:0.6370000243186951px"/><circle cx="408.40098" cy="117.22951" r="0.8985" style="fill:none;stroke:#1de9b6;stroke-miterlimit:10;stroke-width:0.6370000243186951px"/><circle cx="399.36944" cy="117.22951" r="0.89826" style="fill:none;stroke:#1de9b6;stroke-miterlimit:10;stroke-width:0.6370000243186951px"/><polyline points="331.729 105.365 344.796 105.365 347.529 107.354 369.2 107.354" style="fill:none;stroke:#1de9b6;stroke-miterlimit:10;stroke-width:0.6370000243186951px"/><polyline points="409.3 109.343 393.602 109.343 390.87 107.355 369.199 107.355" style="fill:none;stroke:#1de9b6;stroke-miterlimit:10;stroke-width:0.6370000243186951px"/><line x1="331.7287" y1="99.2852" x2="409.29968" y2="99.2852" style="fill:none;stroke:#1de9b6;stroke-miterlimit:10;stroke-width:0.6370000243186951px"/><line x1="358.0119" y1="116.0791" x2="358.0119" y2="118.62511" style="fill:none;stroke:#1de9b6;stroke-miterlimit:10;stroke-width:0.6370000243186951px"/><line x1="360.09589" y1="114.85451" x2="360.09589" y2="119.60451" style="fill:none;stroke:#1de9b6;stroke-miterlimit:10;stroke-width:0.6370000243186951px"/><line x1="362.17981" y1="114.2178" x2="362.17981" y2="120.24081" style="fill:none;stroke:#1de9b6;stroke-miterlimit:10;stroke-width:0.6370000243186951px"/><line x1="364.26279" y1="115.4248" x2="364.26279" y2="118.62482" style="fill:none;stroke:#1de9b6;stroke-miterlimit:10;stroke-width:0.6370000243186951px"/><line x1="366.3468" y1="114.2178" x2="366.3468" y2="120.24081" style="fill:none;stroke:#1de9b6;stroke-miterlimit:10;stroke-width:0.6370000243186951px"/><line x1="370.51379" y1="116.0791" x2="370.51379" y2="118.62511" style="fill:none;stroke:#1de9b6;stroke-miterlimit:10;stroke-width:0.6370000243186951px"/><line x1="368.43079" y1="114.85451" x2="368.43079" y2="119.60451" style="fill:none;stroke:#1de9b6;stroke-miterlimit:10;stroke-width:0.6370000243186951px"/><line x1="372.59781" y1="114.85451" x2="372.59781" y2="119.60451" style="fill:none;stroke:#1de9b6;stroke-miterlimit:10;stroke-width:0.6370000243186951px"/><line x1="374.68079" y1="114.2178" x2="374.68079" y2="120.24081" style="fill:none;stroke:#1de9b6;stroke-miterlimit:10;stroke-width:0.6370000243186951px"/><line x1="376.7648" y1="115.4248" x2="376.7648" y2="118.62482" style="fill:none;stroke:#1de9b6;stroke-miterlimit:10;stroke-width:0.6370000243186951px"/><line x1="378.84879" y1="114.2178" x2="378.84879" y2="120.24081" style="fill:none;stroke:#1de9b6;stroke-miterlimit:10;stroke-width:0.6370000243186951px"/><line x1="383.01581" y1="116.0791" x2="383.01581" y2="118.62511" style="fill:none;stroke:#1de9b6;stroke-miterlimit:10;stroke-width:0.6370000243186951px"/><line x1="380.93179" y1="114.85451" x2="380.93179" y2="119.60451" style="fill:none;stroke:#1de9b6;stroke-miterlimit:10;stroke-width:0.6370000243186951px"/><polyline points="270.507 168.622 260.792 168.622 254.43 163.99 235.507 163.989" style="fill:none;stroke:#1de9b6;stroke-miterlimit:10;stroke-width:0.6370000243186951px"/><line x1="235.507" y1="174.60161" x2="270.508" y2="174.60161" style="fill:none;stroke:#1de9b6;stroke-miterlimit:10;stroke-width:0.6370000243186951px"/><line x1="251.5851" y1="185.21391" x2="270.50809" y2="185.21391" style="fill:none;stroke:#1de9b6;stroke-miterlimit:10;stroke-width:0.6370000243186951px"/><polyline points="270.508 180.581 251.585 180.581 247.701 185.214 243.319 185.214" style="fill:none;stroke:#1de9b6;stroke-miterlimit:10;stroke-width:0.6370000243186951px"/><line x1="235.507" y1="168.62211" x2="254.121" y2="168.62211" style="fill:none;stroke:#1de9b6;stroke-miterlimit:10;stroke-width:0.6370000243186951px"/><rect x="235.96799" y="180.581" width="4.83701" height="4.633" style="fill:none;stroke:#1de9b6;stroke-miterlimit:10;stroke-width:0.6370000243186951px"/><polyline points="221.067 6.709 221.067 38.531 216.499 44.806 216.499 63.465" style="fill:none;stroke:#1de9b6;stroke-miterlimit:10;stroke-width:0.6370000243186951px"/><line x1="226.963" y1="63.4649" x2="226.963" y2="6.70892" style="fill:none;stroke:#1de9b6;stroke-miterlimit:10;stroke-width:0.6370000243186951px"/><line x1="237.4279" y1="47.61041" x2="237.4269" y2="6.70941" style="fill:none;stroke:#1de9b6;stroke-miterlimit:10;stroke-width:0.6370000243186951px"/><polyline points="232.859 6.709 232.859 47.61 237.427 51.44 237.427 55.762" style="fill:none;stroke:#1de9b6;stroke-miterlimit:10;stroke-width:0.6370000243186951px"/><line x1="221.0666" y1="63.4649" x2="221.0666" y2="45.10991" style="fill:none;stroke:#1de9b6;stroke-miterlimit:10;stroke-width:0.6370000243186951px"/><rect x="232.86" y="58.241" width="4.56799" height="4.77" style="fill:none;stroke:#1de9b6;stroke-miterlimit:10;stroke-width:0.6370000243186951px"/><path d="M267.72769,92.19531a25.78948,25.78948,0,0,0-25.789,25.789h25.789Z" style="fill:#172c3b"/><path d="M293.51682,92.19531a25.788,25.788,0,0,0-25.789-25.788v25.788Z" style="fill:#172c3b"/><path d="M293.51682,66.10741a25.78881,25.78881,0,0,0,25.789-25.789h-25.789Z" style="fill:#172c3b"/><rect x="52.3179" y="8.63092" width="66.4445" height="66.444" style="fill:#172c3b"/><rect x="118.763" y="75.07501" width="57.95" height="57.95" style="fill:#172c3b"/><rect x="91.284" y="133.02501" width="27.479" height="27.479" style="fill:#172c3b"/><rect x="305.48288" y="213.28031" width="58.9445" height="58.944" style="fill:#172c3b"/><rect x="39.9267" y="213.28031" width="58.9445" height="58.944" style="fill:#172c3b"/><line x1="299.005" y1="206.79691" x2="331.728" y2="239.5219" style="fill:none;stroke:#1de9b6;stroke-miterlimit:10;stroke-width:0.6370000243186951px"/><line x1="299.005" y1="215.54401" x2="322.97998" y2="239.52101" style="fill:none;stroke:#1de9b6;stroke-miterlimit:10;stroke-width:0.6370000243186951px"/><line x1="299.005" y1="224.29101" x2="314.23099" y2="239.51901" style="fill:none;stroke:#1de9b6;stroke-miterlimit:10;stroke-width:0.6370000243186951px"/><line x1="299.005" y1="233.03811" x2="305.483" y2="239.51711" style="fill:none;stroke:#1de9b6;stroke-miterlimit:10;stroke-width:0.6370000243186951px"/><line x1="325.25021" y1="206.8028" x2="331.72919" y2="213.2808" style="fill:none;stroke:#1de9b6;stroke-miterlimit:10;stroke-width:0.6370000243186951px"/><line x1="316.50211" y1="206.8008" x2="331.7291" y2="222.02781" style="fill:none;stroke:#1de9b6;stroke-miterlimit:10;stroke-width:0.6370000243186951px"/><line x1="307.75409" y1="206.7989" x2="331.72906" y2="230.77591" style="fill:none;stroke:#1de9b6;stroke-miterlimit:10;stroke-width:0.6370000243186951px"/><line x1="53.0373" y1="226.39061" x2="85.7603" y2="259.1156" style="fill:none;stroke:#1de9b6;stroke-miterlimit:10;stroke-width:0.6370000243186951px"/><line x1="53.0373" y1="235.13771" x2="77.0123" y2="259.11371" style="fill:none;stroke:#1de9b6;stroke-miterlimit:10;stroke-width:0.6370000243186951px"/><line x1="53.0373" y1="243.88481" x2="68.2633" y2="259.11181" style="fill:none;stroke:#1de9b6;stroke-miterlimit:10;stroke-width:0.6370000243186951px"/><line x1="53.0373" y1="252.63191" x2="59.5153" y2="259.11091" style="fill:none;stroke:#1de9b6;stroke-miterlimit:10;stroke-width:0.6370000243186951px"/><line x1="79.2824" y1="226.39551" x2="85.7614" y2="232.87451" style="fill:none;stroke:#1de9b6;stroke-miterlimit:10;stroke-width:0.6370000243186951px"/><line x1="70.5343" y1="226.3936" x2="85.7613" y2="241.6216" style="fill:none;stroke:#1de9b6;stroke-miterlimit:10;stroke-width:0.6370000243186951px"/><line x1="61.7853" y1="226.39161" x2="85.7603" y2="250.3686" style="fill:none;stroke:#1de9b6;stroke-miterlimit:10;stroke-width:0.6370000243186951px"/><line x1="95.633" y1="0.22461" x2="128.356" y2="32.95062" style="fill:none;stroke:#1de9b6;stroke-miterlimit:10;stroke-width:0.6370000243186951px"/><line x1="95.633" y1="8.97171" x2="119.608" y2="32.94872" style="fill:none;stroke:#1de9b6;stroke-miterlimit:10;stroke-width:0.6370000243186951px"/><line x1="95.632" y1="17.71881" x2="110.859" y2="32.94682" style="fill:none;stroke:#1de9b6;stroke-miterlimit:10;stroke-width:0.6370000243186951px"/><line x1="95.632" y1="26.46681" x2="102.111" y2="32.94482" style="fill:none;stroke:#1de9b6;stroke-miterlimit:10;stroke-width:0.6370000243186951px"/><line x1="121.8781" y1="0.2305" x2="128.35609" y2="6.7095" style="fill:none;stroke:#1de9b6;stroke-miterlimit:10;stroke-width:0.6370000243186951px"/><line x1="113.13" y1="0.22852" x2="128.35599" y2="15.45654" style="fill:none;stroke:#1de9b6;stroke-miterlimit:10;stroke-width:0.6370000243186951px"/><line x1="104.381" y1="0.22659" x2="128.35599" y2="24.2036" style="fill:none;stroke:#1de9b6;stroke-miterlimit:10;stroke-width:0.6370000243186951px"/><circle cx="16.0481" cy="171.87591" r="15.72888" transform="translate(-116.83425 61.68902) rotate(-45)" style="fill:none;stroke:#1de9b6;stroke-miterlimit:10;stroke-width:0.6370000243186951px"/><path d="M8.8,168.93361a7.85927,7.85927,0,0,1,4.306-4.306" style="fill:none;stroke:#1de9b6;stroke-miterlimit:10;stroke-width:0.6370000243186951px"/><path d="M13.1056,179.124a7.85088,7.85088,0,0,1-4.306-4.306" style="fill:none;stroke:#1de9b6;stroke-miterlimit:10;stroke-width:0.6370000243186951px"/><path d="M18.9904,164.628a7.8243,7.8243,0,0,1,0,14.496" style="fill:none;stroke:#1de9b6;stroke-miterlimit:10;stroke-width:0.6370000243186951px"/><path d="M20.382,182.5498a11.5299,11.5299,0,0,1-15.008-6.34" style="fill:none;stroke:#1de9b6;stroke-miterlimit:10;stroke-width:0.6370000243186951px"/><path d="M20.382,161.20221a11.528,11.528,0,0,1,6.34,15.008" style="fill:none;stroke:#1de9b6;stroke-miterlimit:10;stroke-width:0.6370000243186951px"/><path d="M5.3742,167.542a11.55512,11.55512,0,0,1,6.34-6.34" style="fill:none;stroke:#1de9b6;stroke-miterlimit:10;stroke-width:0.6370000243186951px"/><circle cx="58.7429" cy="171.87851" r="15.7303" transform="translate(-104.32748 91.87226) rotate(-44.99744)" style="fill:none;stroke:#1de9b6;stroke-miterlimit:10;stroke-width:0.6370000243186951px"/><path d="M61.6857,164.62991a7.845,7.845,0,0,1,4.305,4.306" style="fill:none;stroke:#1de9b6;stroke-miterlimit:10;stroke-width:0.6370000243186951px"/><path d="M51.4953,168.93561a7.845,7.845,0,0,1,4.305-4.306" style="fill:none;stroke:#1de9b6;stroke-miterlimit:10;stroke-width:0.6370000243186951px"/><path d="M65.9904,174.8213a7.82371,7.82371,0,0,1-14.495,0" style="fill:none;stroke:#1de9b6;stroke-miterlimit:10;stroke-width:0.6370000243186951px"/><path d="M48.0685,176.21291a11.53312,11.53312,0,0,1,6.34-15.01" style="fill:none;stroke:#1de9b6;stroke-miterlimit:10;stroke-width:0.6370000243186951px"/><path d="M69.4171,176.21291a11.53084,11.53084,0,0,1-15.008,6.341" style="fill:none;stroke:#1de9b6;stroke-miterlimit:10;stroke-width:0.6370000243186951px"/><path d="M63.0763,161.20311a11.54445,11.54445,0,0,1,6.34,6.341" style="fill:none;stroke:#1de9b6;stroke-miterlimit:10;stroke-width:0.6370000243186951px"/></g></svg>