<svg xmlns="http://www.w3.org/2000/svg" viewBox="0 0 136.5 181.89353"><title>footer-shield</title><path d="M0,0V113.63789a68.25,68.25,0,1,0,136.5,0V0Z" style="fill:#0f2631"/><path d="M27,130.75768l2.92627,5.5498-1.43994.75879-1.98828-3.76953-1.6626.877,1.87109,3.54688-1.40869.74316-1.87061-3.54785L21.542,135.91l2.04443,3.876-1.44043.75977-2.98242-5.65527Z" style="fill:#434d72"/><path d="M31.86332,139.13854l1.28955,1.543-5.54834,4.63574,2.64795,3.16895-1.249,1.04395-3.9375-4.71191Z" style="fill:#434d72"/><path d="M39.98247,147.55065l1.61768,1.252-2.79932,9.03027-1.7124-1.32617.54736-1.66406-2.5166-1.94824-1.46484.9541-1.7124-1.32617ZM38.20805,153.243l1.05322-3.11914-2.73682,1.81543Z" style="fill:#434d72"/><path d="M51.34819,160.60045a1.61315,1.61315,0,0,0,1.27295,1.93262c.856.27051,1.42334.02246,1.57129-.44531.54346-1.72363-4.44385-2.10449-3.49316-5.11816.48242-1.5293,1.9126-2.2832,3.7959-1.68848,2.271.71582,2.9375,2.14355,2.55371,3.918l-1.86035-.58691a1.46365,1.46365,0,0,0-1.11133-1.76855c-.81006-.25586-1.248.05762-1.39551.52539-.51172,1.62109,4.498,1.97168,3.48242,5.19043-.48242,1.5293-2.00879,2.15234-3.94922,1.54-2.36279-.74609-3.22754-2.02246-2.71582-4.082Z" style="fill:#434d72"/><path d="M61.36918,157.13366l6.25244.52734-.13721,1.623-4.24756-.3584-.1582,1.873,3.99707.33691-.13379,1.58789-3.99707-.33789-.17969,2.124,4.36768.36816-.13721,1.623-6.37207-.53711Z" style="fill:#434d72"/><path d="M79.57133,163.37682a3.71247,3.71247,0,0,1-3.30029,2.57129c-2.79785.39648-4.51123-1.19922-4.89062-3.87891-.38281-2.70312.8999-4.74707,3.53223-5.11914a3.53976,3.53976,0,0,1,3.98047,1.89063l-1.68945.96484a1.86165,1.86165,0,0,0-2.10693-1.21289c-1.35156.19141-1.95605,1.38965-1.7041,3.168.24658,1.74219,1.28369,2.74512,2.65869,2.5498a1.9528,1.9528,0,0,0,1.665-1.48145Z" style="fill:#434d72"/><path d="M81.63237,155.704l1.86377-.75684,1.94922,4.80371c.52637,1.29785,1.43506,1.627,2.42236,1.22656,1.02051-.41406,1.4209-1.27441.89453-2.57227L86.813,153.60143l1.86377-.75586,2.03467,5.01367c.89551,2.208-.04541,3.86816-2.17529,4.73242-2.14111.86914-3.97314.334-4.86914-1.874Z" style="fill:#434d72"/><path d="M91.68559,151.12975l3.28564-2.35645a2.67722,2.67722,0,0,1,3.98633.4668,2.514,2.514,0,0,1-.09424,3.43945,3.97526,3.97526,0,0,1,1.09619.21484l3.2334.875-1.94385,1.39453-2.51025-.6875c-1.40381-.377-1.55518-.3418-2.0415.00684l-.0874.06348,1.86914,2.60449-1.6333,1.17188Zm5.312,1.166a1.13653,1.13653,0,0,0,.39111-1.75293,1.15924,1.15924,0,0,0-1.73193-.25977l-1.38965.99707,1.40869,1.96387Z" style="fill:#434d72"/><path d="M99.793,144.78209l4.18164-4.67676,1.21387,1.085L102.3477,144.368l1.40137,1.25293,2.67334-2.99023,1.187,1.06152-2.67334,2.99023,1.58887,1.4209,2.9209-3.26758,1.21387,1.08594-4.26123,4.7666Z" style="fill:#434d72"/><path d="M105.97709,137.38366l1.69727-3.09668a4.43411,4.43411,0,0,1,7.76855,4.25684l-1.69727,3.09668Zm8.02051.40918c.63281-1.1543.09375-2.4873-1.38623-3.29883-1.46973-.80469-2.894-.54785-3.52686.60645l-.71289,1.30176,4.91309,2.69238Z" style="fill:#434d72"/><rect x="76.14904" y="65.50668" width="3.51405" height="12.87493" style="fill:#434d72"/><rect x="72.72023" y="52.63174" width="3.51417" height="9.16408" transform="translate(148.95456 114.42764) rotate(-179.99994)" style="fill:#434d72"/><polygon points="72.72 61.796 75.273 59.366 77.906 62.262 77.906 65.506 76.149 65.507 72.72 61.796" style="fill:#434d72"/><rect x="79.57774" y="52.63174" width="3.51417" height="9.16408" style="fill:#434d72"/><polygon points="83.092 61.796 80.539 59.366 77.906 62.262 77.906 65.506 79.663 65.507 83.092 61.796" style="fill:#434d72"/><rect x="105.41495" y="52.63177" width="3.51409" height="25.74982" transform="translate(214.3427 131.01548) rotate(-179.99886)" style="fill:#434d72"/><rect x="101.98614" y="71.43862" width="3.51411" height="10.37169" transform="translate(180.36768 -27.11872) rotate(90.00001)" style="fill:#434d72"/><rect x="98.55735" y="52.63164" width="3.51421" height="25.74981" style="fill:#434d72"/><rect x="92.49639" y="52.63177" width="3.51409" height="25.74982" transform="translate(188.50557 131.01522) rotate(-179.99886)" style="fill:#434d72"/><rect x="89.06758" y="71.43862" width="3.51411" height="10.37169" transform="translate(167.44911 -14.20016) rotate(90.00001)" style="fill:#434d72"/><rect x="89.06758" y="49.20291" width="3.51411" height="10.37169" transform="translate(145.2134 -36.43587) rotate(90.00001)" style="fill:#434d72"/><rect x="85.63879" y="52.63164" width="3.51421" height="25.74981" style="fill:#434d72"/><polygon points="118.333 52.632 121.848 52.632 121.848 63.75 118.333 67.264 118.333 52.632" style="fill:#434d72"/><rect x="111.47588" y="52.6318" width="3.51412" height="25.74982" style="fill:#434d72"/><rect x="114.90471" y="49.20297" width="3.51411" height="10.37177" transform="translate(62.27291 171.05061) rotate(-90)" style="fill:#434d72"/><rect x="113.14759" y="62.07794" width="3.51411" height="6.85753" transform="translate(49.39794 180.41135) rotate(-90)" style="fill:#434d72"/><rect x="118.33341" y="67.26377" width="3.51424" height="11.11785" transform="translate(240.18098 145.64551) rotate(-179.99994)" style="fill:#434d72"/><polygon points="40.547 17.246 40.547 37.33 49.467 37.33 49.467 21.32 45.392 17.246 40.547 17.246" style="fill:#2a3d58"/><polygon points="52.511 17.246 52.511 37.33 61.43 37.33 61.43 21.32 57.356 17.246 52.511 17.246" style="fill:#2a3d58"/><polygon points="16.621 17.246 16.621 37.33 25.54 37.33 25.54 21.32 21.465 17.246 16.621 17.246" style="fill:#2a3d58"/><polygon points="28.584 17.246 28.584 37.33 37.503 37.33 37.503 21.32 33.429 17.246 28.584 17.246" style="fill:#2a3d58"/><polygon points="48.579 67.418 16.621 67.418 16.621 40.169 32.252 40.169 38.772 40.169 45.823 40.169 64.366 40.169 64.366 54.634 48.579 67.418" style="fill:#173045"/><rect x="16.62054" y="70.258" width="31.95849" height="8.12361" style="fill:#434d72"/><polygon points="48.579 67.418 16.621 67.418 16.621 57.651 31.231 46.426 64.366 46.426 64.366 54.634 48.579 67.418" style="fill:#434d72"/><rect x="47.16593" y="29.86877" width="9.53261" height="14.57989" transform="translate(14.77413 89.09138) rotate(-90.00068)" style="fill:#434d72"/><polygon points="54.833 32.392 54.833 52.476 64.366 52.476 64.366 36.466 60.292 32.392 54.833 32.392" style="fill:#434d72"/><polygon points="99.065 42.355 95.573 42.355 95.573 31.511 99.065 28.083 99.065 42.355" style="fill:#434d72"/><rect x="85.63949" y="17.2458" width="3.51409" height="25.74982" transform="translate(174.79247 60.24315) rotate(-179.99886)" style="fill:#434d72"/><rect x="105.41557" y="17.2458" width="3.51409" height="25.74982" transform="translate(214.34463 60.24354) rotate(-179.99886)" style="fill:#434d72"/><rect x="95.52634" y="29.59373" width="3.51411" height="23.29021" transform="translate(138.51996 -56.04552) rotate(89.99866)" style="fill:#434d72"/><rect x="79.57786" y="17.2458" width="3.51409" height="25.74982" transform="translate(162.66922 60.24303) rotate(-179.99886)" style="fill:#434d72"/><rect x="76.14905" y="36.05265" width="3.51411" height="10.37169" transform="translate(119.14462 -36.6676) rotate(90.00001)" style="fill:#434d72"/><rect x="76.14905" y="13.81694" width="3.51411" height="10.37169" transform="translate(96.90891 -58.90332) rotate(90.00001)" style="fill:#434d72"/><rect x="72.72026" y="17.24567" width="3.51421" height="25.74981" style="fill:#434d72"/><rect x="118.33356" y="17.2458" width="3.51409" height="25.74982" transform="translate(240.18061 60.2438) rotate(-179.99886)" style="fill:#434d72"/><rect x="114.90475" y="13.81694" width="3.51411" height="10.37169" transform="translate(135.66461 -97.65901) rotate(90.00001)" style="fill:#434d72"/><rect x="111.47595" y="17.24567" width="3.51421" height="25.74981" style="fill:#434d72"/><rect x="57.23964" y="88.0174" width="3.51412" height="25.74982" style="fill:#434d72"/><rect x="60.66847" y="84.58857" width="3.51411" height="10.37177" transform="translate(-27.34893 152.19998) rotate(-90)" style="fill:#434d72"/><rect x="60.66847" y="95.70643" width="3.51411" height="10.37177" transform="translate(-38.46679 163.31784) rotate(-90)" style="fill:#434d72"/><rect x="60.66847" y="106.82428" width="3.51411" height="10.37177" transform="translate(-49.58464 174.43569) rotate(-90)" style="fill:#434d72"/><rect x="97.91682" y="88.0174" width="3.51412" height="25.74982" style="fill:#434d72"/><rect x="101.34565" y="84.58857" width="3.51411" height="10.37177" transform="translate(13.32825 192.87716) rotate(-90)" style="fill:#434d72"/><rect x="101.34565" y="95.70643" width="3.51411" height="10.37177" transform="translate(2.21039 203.99501) rotate(-90)" style="fill:#434d72"/><rect x="101.34565" y="106.82428" width="3.51411" height="10.37177" transform="translate(-8.90746 215.11287) rotate(-90)" style="fill:#434d72"/><polygon points="77.656 88.017 81.17 88.017 81.17 99.135 77.656 102.649 77.656 88.017" style="fill:#434d72"/><rect x="70.7987" y="88.01743" width="3.51412" height="25.74982" style="fill:#434d72"/><rect x="74.22753" y="84.58859" width="3.51411" height="10.37177" transform="translate(-13.7899 165.75906) rotate(-90)" style="fill:#434d72"/><rect x="72.47041" y="97.46357" width="3.51411" height="6.85753" transform="translate(-26.66487 175.1198) rotate(-90)" style="fill:#434d72"/><rect x="77.65623" y="102.64939" width="3.51424" height="11.11785" transform="translate(158.82658 216.41672) rotate(-179.99994)" style="fill:#434d72"/><rect x="84.35776" y="88.01748" width="3.51412" height="25.74982" style="fill:#434d72"/><rect x="87.78659" y="84.58865" width="3.51411" height="10.37177" transform="translate(-0.23089 179.31817) rotate(-90)" style="fill:#434d72"/><rect x="91.21529" y="88.01748" width="3.51424" height="25.74981" transform="translate(185.94471 201.78488) rotate(-179.99994)" style="fill:#434d72"/><rect x="30.12152" y="88.01743" width="3.51412" height="25.74982" style="fill:#434d72"/><rect x="33.55035" y="84.58859" width="3.51411" height="10.37177" transform="translate(-54.46708 125.08188) rotate(-90)" style="fill:#434d72"/><rect x="36.97905" y="88.01743" width="3.51424" height="25.74981" transform="translate(77.47223 201.78471) rotate(-179.99994)" style="fill:#434d72"/><rect x="19.99129" y="106.82429" width="3.51411" height="10.37178" transform="translate(133.75853 90.26187) rotate(90.00002)" style="fill:#434d72"/><rect x="20.11092" y="88.01741" width="3.51424" height="25.74981" style="fill:#434d72"/><rect x="19.99129" y="84.58859" width="3.51411" height="10.37178" transform="translate(111.52282 68.02616) rotate(90.00002)" style="fill:#434d72"/><rect x="47.22905" y="88.01741" width="3.51424" height="25.74981" style="fill:#434d72"/><rect x="47.10941" y="84.58859" width="3.51411" height="10.37178" transform="translate(138.64096 40.90804) rotate(90.00002)" style="fill:#434d72"/><rect x="115.02434" y="88.01741" width="3.51424" height="25.74981" style="fill:#434d72"/><rect x="114.90471" y="84.58859" width="3.51411" height="10.37178" transform="translate(206.43628 -26.88726) rotate(90.00002)" style="fill:#434d72"/><polygon points="69.904 134.945 76.463 131.158 69.904 127.349 69.904 134.945" style="fill:#1de9b6"/><polygon points="69.904 134.945 63.344 131.158 69.904 127.349 69.904 134.945" style="fill:#43af92"/><polygon points="76.463 123.562 69.904 127.349 76.463 131.158 76.463 123.562" style="fill:#43af92"/><polygon points="76.463 123.562 83.022 127.349 76.463 131.158 76.463 123.562" style="fill:#1de9b6"/><polygon points="63.344 123.562 56.785 127.349 63.344 131.158 63.344 123.562" style="fill:#43af92"/><polygon points="63.344 123.562 69.904 127.349 63.344 131.158 63.344 123.562" style="fill:#1de9b6"/><polygon points="69.904 145.391 76.463 141.604 69.904 137.794 69.904 145.391" style="fill:#1de9b6"/><polygon points="69.904 145.391 63.344 141.604 69.904 137.794 69.904 145.391" style="fill:#43af92"/><polygon points="76.463 134.007 69.904 137.794 76.463 141.604 76.463 134.007" style="fill:#43af92"/><polygon points="76.463 134.007 83.022 137.794 76.463 141.604 76.463 134.007" style="fill:#1de9b6"/><polygon points="63.344 134.007 56.785 137.794 63.344 141.604 63.344 134.007" style="fill:#43af92"/><polygon points="63.344 134.007 69.904 137.794 63.344 141.604 63.344 134.007" style="fill:#1de9b6"/></svg>