<svg xmlns="http://www.w3.org/2000/svg" xmlns:xlink="http://www.w3.org/1999/xlink" viewBox="0 0 1968.87 668.233"><defs><clipPath id="a"><rect width="1968.87" height="668.233" fill="none"/></clipPath><clipPath id="b"><rect width="1968.866" height="668.233" fill="none"/></clipPath><clipPath id="c"><rect width="58.39" height="58.39" x="1379.6" y="125.454" fill="none"/></clipPath><clipPath id="d"><rect width="58.39" height="58.39" x="1815.23" y="572.243" fill="none"/></clipPath><clipPath id="e"><rect width="58.39" height="58.389" x="526.047" y="362.165" fill="none"/></clipPath><clipPath id="f"><rect width="60.422" height="60.422" x="435.142" y="186.642" fill="none"/></clipPath><clipPath id="g"><rect width="60.421" height="60.428" x="515.448" y="186.644" fill="none"/></clipPath><clipPath id="h"><rect width="156.312" height="42.516" x="382.031" y="559.546" fill="none"/></clipPath><clipPath id="i"><rect width="156.32" height="42.517" x="1605.22" y="81.382" fill="none"/></clipPath><clipPath id="j"><rect width="68.63" height="42.869" x="1470.9" y="290.911" fill="none"/></clipPath><clipPath id="k"><rect width="42.87" height="112.862" x="1593.44" y="552.978" fill="none"/></clipPath><clipPath id="l"><rect width="34.813" height="155.575" x="285.597" y="62.279" fill="none"/></clipPath></defs><title>footer-illus-bg</title><g clip-path="url(#a)"><rect width="117" height="117" x="496.742" y="332.86" fill="#172c3b"/><rect width="56.131" height="56.132" x="613.742" y="276.728" fill="#172c3b"/><rect width="117" height="117" x="1715.054" y="363.606" fill="#172c3b"/><rect width="136.812" height="136.811" x="1832.054" y="480.606" fill="#172c3b"/><rect width="117" height="117" x="10.65" y="414.421" fill="#172c3b"/><rect width="136.812" height="136.813" x="127.65" y="531.42" fill="#172c3b"/><rect width="56.132" height="56.131" x="1832.054" y="307.475" fill="#172c3b"/><rect width="56.131" height="56.131" x="613.742" y="87.974" fill="#172c3b"/><rect width="117" height="117" x="1310.289" y="56.132" fill="#172c3b"/><rect width="56.131" height="56.13" x="1254.158" y=".001" fill="#172c3b"/><g clip-path="url(#b)"><g opacity=".6"><g clip-path="url(#c)"><line x1="1380.039" x2="1437.545" y1="125.896" y2="183.402" fill="none" stroke="#1de9b6" stroke-miterlimit="10" stroke-width="1.25"/><line x1="1380.039" x2="1422.171" y1="141.269" y2="183.402" fill="none" stroke="#1de9b6" stroke-miterlimit="10" stroke-width="1.25"/><line x1="1380.039" x2="1406.797" y1="156.644" y2="183.402" fill="none" stroke="#1de9b6" stroke-miterlimit="10" stroke-width="1.25"/><line x1="1380.039" x2="1391.423" y1="172.018" y2="183.402" fill="none" stroke="#1de9b6" stroke-miterlimit="10" stroke-width="1.25"/><line x1="1426.161" x2="1437.545" y1="125.896" y2="137.28" fill="none" stroke="#1de9b6" stroke-miterlimit="10" stroke-width="1.25"/><line x1="1410.787" x2="1437.545" y1="125.896" y2="152.654" fill="none" stroke="#1de9b6" stroke-miterlimit="10" stroke-width="1.25"/><line x1="1395.413" x2="1437.545" y1="125.896" y2="168.028" fill="none" stroke="#1de9b6" stroke-miterlimit="10" stroke-width="1.25"/></g></g><g opacity=".6"><g clip-path="url(#d)"><line x1="1815.668" x2="1873.174" y1="572.684" y2="630.19" fill="none" stroke="#1de9b6" stroke-miterlimit="10" stroke-width="1.25"/><line x1="1815.668" x2="1857.8" y1="588.058" y2="630.19" fill="none" stroke="#1de9b6" stroke-miterlimit="10" stroke-width="1.25"/><line x1="1815.668" x2="1842.426" y1="603.432" y2="630.19" fill="none" stroke="#1de9b6" stroke-miterlimit="10" stroke-width="1.25"/><line x1="1815.668" x2="1827.052" y1="618.806" y2="630.19" fill="none" stroke="#1de9b6" stroke-miterlimit="10" stroke-width="1.25"/><line x1="1861.79" x2="1873.174" y1="572.684" y2="584.068" fill="none" stroke="#1de9b6" stroke-miterlimit="10" stroke-width="1.25"/><line x1="1846.416" x2="1873.174" y1="572.684" y2="599.442" fill="none" stroke="#1de9b6" stroke-miterlimit="10" stroke-width="1.25"/><line x1="1831.042" x2="1873.174" y1="572.684" y2="614.816" fill="none" stroke="#1de9b6" stroke-miterlimit="10" stroke-width="1.25"/></g></g><g opacity=".6"><g clip-path="url(#e)"><line x1="526.489" x2="583.995" y1="362.607" y2="420.113" fill="none" stroke="#1de9b6" stroke-miterlimit="10" stroke-width="1.25"/><line x1="526.489" x2="568.62" y1="377.98" y2="420.113" fill="none" stroke="#1de9b6" stroke-miterlimit="10" stroke-width="1.25"/><line x1="526.489" x2="553.246" y1="393.354" y2="420.113" fill="none" stroke="#1de9b6" stroke-miterlimit="10" stroke-width="1.25"/><line x1="526.489" x2="537.873" y1="408.729" y2="420.113" fill="none" stroke="#1de9b6" stroke-miterlimit="10" stroke-width="1.25"/><line x1="572.611" x2="583.995" y1="362.607" y2="373.991" fill="none" stroke="#1de9b6" stroke-miterlimit="10" stroke-width="1.25"/><line x1="557.237" x2="583.995" y1="362.607" y2="389.365" fill="none" stroke="#1de9b6" stroke-miterlimit="10" stroke-width="1.25"/><line x1="541.863" x2="583.995" y1="362.607" y2="404.739" fill="none" stroke="#1de9b6" stroke-miterlimit="10" stroke-width="1.25"/></g></g><g opacity=".6"><g clip-path="url(#f)"><circle cx="465.353" cy="216.853" r="29.585" fill="none" stroke="#1de9b6" stroke-miterlimit="10" stroke-width="1.25" transform="translate(-17.03968 392.56911) rotate(-45)"/><path fill="none" stroke="#1de9b6" stroke-miterlimit="10" stroke-width="1.25" d="M451.72079,211.31808a14.76092,14.76092,0,0,1,8.097-8.098"/><path fill="none" stroke="#1de9b6" stroke-miterlimit="10" stroke-width="1.25" d="M459.8179,230.485a14.74652,14.74652,0,0,1-8.097-8.097"/><path fill="none" stroke="#1de9b6" stroke-miterlimit="10" stroke-width="1.25" d="M470.88821,203.22137a14.71694,14.71694,0,0,1,0,27.264"/><path fill="none" stroke="#1de9b6" stroke-miterlimit="10" stroke-width="1.25" d="M473.50491,236.93036a21.687,21.687,0,0,1-28.229-11.926"/><path fill="none" stroke="#1de9b6" stroke-miterlimit="10" stroke-width="1.25" d="M473.50491,196.77606a21.68841,21.68841,0,0,1,11.925,28.229"/><path fill="none" stroke="#1de9b6" stroke-miterlimit="10" stroke-width="1.25" d="M445.2764,208.70178a21.73637,21.73637,0,0,1,11.925-11.926"/></g></g><g opacity=".6"><g clip-path="url(#g)"><circle cx="545.659" cy="216.857" r="29.587" fill="none" stroke="#1de9b6" stroke-miterlimit="10" stroke-width="1.25" transform="translate(6.46725 449.32931) rotate(-44.99726)"/><path fill="none" stroke="#1de9b6" stroke-miterlimit="10" stroke-width="1.25" d="M551.19342,203.22427a14.753,14.753,0,0,1,8.097,8.098"/><path fill="none" stroke="#1de9b6" stroke-miterlimit="10" stroke-width="1.25" d="M532.02588,211.322a14.76066,14.76066,0,0,1,8.097-8.098"/><path fill="none" stroke="#1de9b6" stroke-miterlimit="10" stroke-width="1.25" d="M559.29108,222.39316a14.71748,14.71748,0,0,1-27.265,0"/><path fill="none" stroke="#1de9b6" stroke-miterlimit="10" stroke-width="1.25" d="M525.58209,225.01038a21.68569,21.68569,0,0,1,11.924-28.231"/><path fill="none" stroke="#1de9b6" stroke-miterlimit="10" stroke-width="1.25" d="M565.73541,225.01038a21.68469,21.68469,0,0,1-28.229,11.926"/><path fill="none" stroke="#1de9b6" stroke-miterlimit="10" stroke-width="1.25" d="M553.81012,196.779a21.7368,21.7368,0,0,1,11.925,11.926"/></g></g><g opacity=".6"><g clip-path="url(#h)"><circle cx="535.922" cy="565.566" r="1.796" fill="none" stroke="#1de9b6" stroke-miterlimit="10" stroke-width="1.25"/><circle cx="517.868" cy="565.566" r="1.796" fill="none" stroke="#1de9b6" stroke-miterlimit="10" stroke-width="1.25"/><circle cx="508.842" cy="565.566" r="1.796" fill="none" stroke="#1de9b6" stroke-miterlimit="10" stroke-width="1.25"/><circle cx="526.895" cy="565.566" r="1.796" fill="none" stroke="#1de9b6" stroke-miterlimit="10" stroke-width="1.25"/><circle cx="411.533" cy="565.566" r="1.796" fill="none" stroke="#1de9b6" stroke-miterlimit="10" stroke-width="1.25"/><circle cx="393.479" cy="565.566" r="1.796" fill="none" stroke="#1de9b6" stroke-miterlimit="10" stroke-width="1.25"/><circle cx="384.452" cy="565.566" r="1.796" fill="none" stroke="#1de9b6" stroke-miterlimit="10" stroke-width="1.25"/><circle cx="402.506" cy="565.566" r="1.796" fill="none" stroke="#1de9b6" stroke-miterlimit="10" stroke-width="1.25"/><polyline fill="none" stroke="#1de9b6" stroke-miterlimit="10" stroke-width="1.25" points="537.718 589.282 511.595 589.282 506.135 585.307 462.815 585.307"/><polyline fill="none" stroke="#1de9b6" stroke-miterlimit="10" stroke-width="1.25" points="382.656 581.332 414.035 581.332 419.496 585.308 462.816 585.308"/><line x1="537.718" x2="382.656" y1="601.437" y2="601.437" fill="none" stroke="#1de9b6" stroke-miterlimit="10" stroke-width="1.25"/><line x1="485.177" x2="485.177" y1="567.867" y2="562.776" fill="none" stroke="#1de9b6" stroke-miterlimit="10" stroke-width="1.25"/><line x1="481.012" x2="481.012" y1="570.314" y2="560.818" fill="none" stroke="#1de9b6" stroke-miterlimit="10" stroke-width="1.25"/><line x1="476.847" x2="476.847" y1="571.587" y2="559.546" fill="none" stroke="#1de9b6" stroke-miterlimit="10" stroke-width="1.25"/><line x1="472.682" x2="472.682" y1="569.173" y2="562.776" fill="none" stroke="#1de9b6" stroke-miterlimit="10" stroke-width="1.25"/><line x1="468.517" x2="468.517" y1="571.587" y2="559.546" fill="none" stroke="#1de9b6" stroke-miterlimit="10" stroke-width="1.25"/><line x1="460.187" x2="460.187" y1="567.867" y2="562.776" fill="none" stroke="#1de9b6" stroke-miterlimit="10" stroke-width="1.25"/><line x1="464.352" x2="464.352" y1="570.314" y2="560.818" fill="none" stroke="#1de9b6" stroke-miterlimit="10" stroke-width="1.25"/><line x1="456.022" x2="456.022" y1="570.314" y2="560.818" fill="none" stroke="#1de9b6" stroke-miterlimit="10" stroke-width="1.25"/><line x1="451.857" x2="451.857" y1="571.587" y2="559.546" fill="none" stroke="#1de9b6" stroke-miterlimit="10" stroke-width="1.25"/><line x1="447.692" x2="447.692" y1="569.173" y2="562.776" fill="none" stroke="#1de9b6" stroke-miterlimit="10" stroke-width="1.25"/><line x1="443.527" x2="443.527" y1="571.587" y2="559.546" fill="none" stroke="#1de9b6" stroke-miterlimit="10" stroke-width="1.25"/><line x1="435.197" x2="435.197" y1="567.867" y2="562.776" fill="none" stroke="#1de9b6" stroke-miterlimit="10" stroke-width="1.25"/><line x1="439.362" x2="439.362" y1="570.314" y2="560.818" fill="none" stroke="#1de9b6" stroke-miterlimit="10" stroke-width="1.25"/></g></g><g opacity=".6"><g clip-path="url(#i)"><circle cx="1759.114" cy="87.403" r="1.796" fill="none" stroke="#1de9b6" stroke-miterlimit="10" stroke-width="1.25"/><circle cx="1741.06" cy="87.403" r="1.796" fill="none" stroke="#1de9b6" stroke-miterlimit="10" stroke-width="1.25"/><circle cx="1732.033" cy="87.403" r="1.796" fill="none" stroke="#1de9b6" stroke-miterlimit="10" stroke-width="1.25"/><circle cx="1750.087" cy="87.403" r="1.796" fill="none" stroke="#1de9b6" stroke-miterlimit="10" stroke-width="1.25"/><circle cx="1634.724" cy="87.403" r="1.796" fill="none" stroke="#1de9b6" stroke-miterlimit="10" stroke-width="1.25"/><circle cx="1616.671" cy="87.403" r="1.796" fill="none" stroke="#1de9b6" stroke-miterlimit="10" stroke-width="1.25"/><circle cx="1607.644" cy="87.403" r="1.796" fill="none" stroke="#1de9b6" stroke-miterlimit="10" stroke-width="1.25"/><circle cx="1625.698" cy="87.403" r="1.796" fill="none" stroke="#1de9b6" stroke-miterlimit="10" stroke-width="1.25"/><polyline fill="none" stroke="#1de9b6" stroke-miterlimit="10" stroke-width="1.25" points="1760.91 111.119 1734.787 111.119 1729.327 107.143 1686.007 107.143"/><polyline fill="none" stroke="#1de9b6" stroke-miterlimit="10" stroke-width="1.25" points="1605.848 103.169 1637.227 103.169 1642.688 107.144 1686.007 107.144"/><line x1="1760.91" x2="1605.848" y1="123.274" y2="123.274" fill="none" stroke="#1de9b6" stroke-miterlimit="10" stroke-width="1.25"/><line x1="1708.369" x2="1708.369" y1="89.703" y2="84.613" fill="none" stroke="#1de9b6" stroke-miterlimit="10" stroke-width="1.25"/><line x1="1704.204" x2="1704.204" y1="92.15" y2="82.655" fill="none" stroke="#1de9b6" stroke-miterlimit="10" stroke-width="1.25"/><line x1="1700.039" x2="1700.039" y1="93.423" y2="81.383" fill="none" stroke="#1de9b6" stroke-miterlimit="10" stroke-width="1.25"/><line x1="1695.874" x2="1695.874" y1="91.01" y2="84.613" fill="none" stroke="#1de9b6" stroke-miterlimit="10" stroke-width="1.25"/><line x1="1691.709" x2="1691.709" y1="93.423" y2="81.383" fill="none" stroke="#1de9b6" stroke-miterlimit="10" stroke-width="1.25"/><line x1="1683.379" x2="1683.379" y1="89.703" y2="84.613" fill="none" stroke="#1de9b6" stroke-miterlimit="10" stroke-width="1.25"/><line x1="1687.544" x2="1687.544" y1="92.15" y2="82.655" fill="none" stroke="#1de9b6" stroke-miterlimit="10" stroke-width="1.25"/><line x1="1679.214" x2="1679.214" y1="92.15" y2="82.655" fill="none" stroke="#1de9b6" stroke-miterlimit="10" stroke-width="1.25"/><line x1="1675.049" x2="1675.049" y1="93.423" y2="81.383" fill="none" stroke="#1de9b6" stroke-miterlimit="10" stroke-width="1.25"/><line x1="1670.884" x2="1670.884" y1="91.01" y2="84.613" fill="none" stroke="#1de9b6" stroke-miterlimit="10" stroke-width="1.25"/><line x1="1666.719" x2="1666.719" y1="93.423" y2="81.383" fill="none" stroke="#1de9b6" stroke-miterlimit="10" stroke-width="1.25"/><line x1="1658.389" x2="1658.389" y1="89.703" y2="84.613" fill="none" stroke="#1de9b6" stroke-miterlimit="10" stroke-width="1.25"/><line x1="1662.554" x2="1662.554" y1="92.15" y2="82.655" fill="none" stroke="#1de9b6" stroke-miterlimit="10" stroke-width="1.25"/></g></g><g opacity=".6"><g clip-path="url(#j)"><polyline fill="none" stroke="#1de9b6" stroke-miterlimit="10" stroke-width="1.25" points="1470.896 324.071 1489.947 324.071 1502.423 333.155 1539.53 333.155"/><line x1="1539.53" x2="1470.896" y1="312.345" y2="312.345" fill="none" stroke="#1de9b6" stroke-miterlimit="10" stroke-width="1.25"/><line x1="1508.002" x2="1470.897" y1="291.536" y2="291.536" fill="none" stroke="#1de9b6" stroke-miterlimit="10" stroke-width="1.25"/><polyline fill="none" stroke="#1de9b6" stroke-miterlimit="10" stroke-width="1.25" points="1470.896 300.62 1508.001 300.62 1515.617 291.536 1524.211 291.536"/><line x1="1539.53" x2="1503.028" y1="324.071" y2="324.071" fill="none" stroke="#1de9b6" stroke-miterlimit="10" stroke-width="1.25"/><rect width="9.484" height="9.084" x="1529.143" y="291.536" fill="none" stroke="#1de9b6" stroke-miterlimit="10" stroke-width="1.25"/></g></g><g opacity=".6"><g clip-path="url(#k)"><polyline fill="none" stroke="#1de9b6" stroke-miterlimit="10" stroke-width="1.25" points="1626.601 665.84 1626.601 602.56 1635.683 590.083 1635.683 552.978"/><line x1="1614.874" x2="1614.874" y1="552.977" y2="665.84" fill="none" stroke="#1de9b6" stroke-miterlimit="10" stroke-width="1.25"/><line x1="1594.065" x2="1594.065" y1="584.506" y2="665.841" fill="none" stroke="#1de9b6" stroke-miterlimit="10" stroke-width="1.25"/><polyline fill="none" stroke="#1de9b6" stroke-miterlimit="10" stroke-width="1.25" points="1603.148 665.84 1603.148 584.505 1594.065 576.89 1594.065 568.295"/><line x1="1626.601" x2="1626.601" y1="552.977" y2="589.48" fill="none" stroke="#1de9b6" stroke-miterlimit="10" stroke-width="1.25"/><rect width="9.083" height="9.484" x="1594.065" y="553.881" fill="none" stroke="#1de9b6" stroke-miterlimit="10" stroke-width="1.25"/></g></g><g opacity=".6"><g clip-path="url(#l)"><circle cx="288.15" cy="64.832" r="1.928" fill="none" stroke="#1de9b6" stroke-miterlimit="10" stroke-width="1.25"/><circle cx="288.15" cy="84.544" r="1.928" fill="none" stroke="#1de9b6" stroke-miterlimit="10" stroke-width="1.25"/><circle cx="288.15" cy="94.4" r="1.928" fill="none" stroke="#1de9b6" stroke-miterlimit="10" stroke-width="1.25"/><circle cx="288.15" cy="74.688" r="1.928" fill="none" stroke="#1de9b6" stroke-miterlimit="10" stroke-width="1.25"/><circle cx="288.15" cy="104.256" r="1.928" fill="none" stroke="#1de9b6" stroke-miterlimit="10" stroke-width="1.25"/><circle cx="288.15" cy="123.968" r="1.928" fill="none" stroke="#1de9b6" stroke-miterlimit="10" stroke-width="1.25"/><circle cx="288.15" cy="133.824" r="1.928" fill="none" stroke="#1de9b6" stroke-miterlimit="10" stroke-width="1.25"/><circle cx="288.15" cy="114.112" r="1.928" fill="none" stroke="#1de9b6" stroke-miterlimit="10" stroke-width="1.25"/><polyline fill="none" stroke="#1de9b6" stroke-miterlimit="10" stroke-width="1.25" points="306.083 62.904 306.083 82.345 301.817 88.206 301.817 134.695"/><polyline fill="none" stroke="#1de9b6" stroke-miterlimit="10" stroke-width="1.25" points="297.551 217.854 297.551 187.044 301.817 181.185 301.817 134.695"/><line x1="319.785" x2="319.785" y1="62.904" y2="217.854" fill="none" stroke="#1de9b6" stroke-miterlimit="10" stroke-width="1.25"/></g></g><path fill="#172c3b" d="M1424.91895,528.17058a51.60054,51.60054,0,0,0-51.6001,51.6h51.6001Z"/><path fill="#172c3b" d="M1476.51953,528.17058a51.60161,51.60161,0,0,0-51.60107-51.601v51.601Z"/><path fill="#172c3b" d="M1476.51953,475.97137a51.60136,51.60136,0,0,0,51.601-51.6h-51.601Z"/><path fill="#172c3b" d="M127.6505,368.01627a46.40428,46.40428,0,0,0-46.404-46.404v46.404Z"/><path fill="#172c3b" d="M220.4586,368.01627a46.40428,46.40428,0,0,0-46.404-46.404v46.404Z"/><path fill="#172c3b" d="M127.6505,414.42058a46.40362,46.40362,0,0,0,46.404-46.404h-46.404Z"/><path fill="#172c3b" d="M220.9971,414.42058a46.40362,46.40362,0,0,0,46.404-46.404h-46.404Z"/><path fill="#172c3b" d="M174.59331,414.42058a46.40448,46.40448,0,0,0,46.404,46.405v-46.405Z"/><path fill="#172c3b" d="M139.751,149.09827a46.40363,46.40363,0,0,0,46.404,46.404v-46.404Z"/><path fill="#172c3b" d="M46.9429,149.09827a46.403,46.403,0,0,0,46.404,46.404v-46.404Z"/><path fill="#172c3b" d="M139.751,102.694A46.40429,46.40429,0,0,0,93.347,149.098h46.404Z"/><path fill="#172c3b" d="M46.4039,102.694A46.40429,46.40429,0,0,0-.0001,149.098h46.404Z"/><path fill="#172c3b" d="M92.8082,102.694a46.40449,46.40449,0,0,0-46.404-46.405v46.405Z"/></g></g></svg>