<svg xmlns="http://www.w3.org/2000/svg" xmlns:xlink="http://www.w3.org/1999/xlink" viewBox="0 0 611.19629 574.21301"><defs><clipPath id="a"><path d="M305.86284,215.03224a44.99347,44.99347,0,0,1,89.98694,0Z" style="fill:none"/></clipPath><clipPath id="b"><path d="M282.43369,430.36923a57.05876,57.05876,0,0,1,114.11752,0Z" style="fill:none"/></clipPath><clipPath id="c"><path d="M282.43369,430.36923a57.05876,57.05876,0,0,1,114.11752,0V261.7994H282.43369Z" style="fill:none"/></clipPath></defs><title>footer-city</title><polygon points="294.943 299.716 401.621 238.125 294.943 176.168 294.943 299.716" style="fill:#2a3d58"/><polygon points="294.943 299.716 188.266 238.125 294.943 176.168 294.943 299.716" style="fill:#173045"/><polygon points="401.621 114.577 294.943 176.168 401.621 238.125 401.621 114.577" style="fill:#173045"/><polygon points="401.621 114.577 508.299 176.168 401.621 238.125 401.621 114.577" style="fill:#2a3d58"/><polygon points="188.266 114.577 81.588 176.168 188.266 238.125 188.266 114.577" style="fill:#173045"/><polygon points="188.266 114.577 294.943 176.168 188.266 238.125 188.266 114.577" style="fill:#2a3d58"/><polygon points="294.943 469.595 401.621 408.005 294.943 346.047 294.943 469.595" style="fill:#2a3d58"/><polygon points="294.943 469.595 188.266 408.005 294.943 346.047 294.943 469.595" style="fill:#173045"/><polygon points="401.621 284.457 294.943 346.047 401.621 408.005 401.621 284.457" style="fill:#173045"/><polygon points="401.621 284.457 508.299 346.047 401.621 408.005 401.621 284.457" style="fill:#2a3d58"/><polygon points="188.266 284.457 81.588 346.047 188.266 408.005 188.266 284.457" style="fill:#173045"/><polygon points="188.266 284.457 294.943 346.047 188.266 408.005 188.266 284.457" style="fill:#2a3d58"/><rect x="335.96723" y="295.6168" width="46.72073" height="99.74176" style="fill:#031e28"/><rect x="81.58789" y="279.19288" width="120.64568" height="128.8119" style="fill:#031e28"/><rect x="178.84542" y="107.96941" width="93.94173" height="140.02387" style="fill:#031e28"/><rect x="40.98508" y="173.17231" width="93.94173" height="57.46041" style="fill:#031e28"/><rect x="441.43963" y="157.41969" width="93.94173" height="73.21303" style="fill:#031e28"/><polygon points="354.551 518.193 156.403 481.612 156.403 368.131 354.551 368.131 354.551 518.193" style="fill:#031e28"/><circle cx="241.09161" cy="425.63534" r="1.79637" style="fill:#18ffff"/><circle cx="259.14512" cy="425.63534" r="1.79637" style="fill:#18ffff"/><circle cx="268.17187" cy="425.63534" r="1.79637" style="fill:#18ffff"/><circle cx="250.11836" cy="425.63534" r="1.79637" style="fill:#18ffff"/><polyline points="239.442 415.334 247.78 415.334 253.24 419.309 269.479 419.309" style="fill:none;stroke:#1de9b6;stroke-miterlimit:10;stroke-width:1.25px"/><line x1="239.44237" y1="410.20195" x2="269.4792" y2="410.20195" style="fill:none;stroke:#1de9b6;stroke-miterlimit:10;stroke-width:1.25px"/><line x1="239.44237" y1="405.07032" x2="269.4792" y2="405.07032" style="fill:none;stroke:#1de9b6;stroke-miterlimit:10;stroke-width:1.25px"/><circle cx="241.09161" cy="456.686" r="1.79637" style="fill:#18ffff"/><circle cx="259.14512" cy="456.686" r="1.79637" style="fill:#18ffff"/><circle cx="268.17187" cy="456.686" r="1.79637" style="fill:#18ffff"/><circle cx="250.11836" cy="456.686" r="1.79637" style="fill:#18ffff"/><polyline points="239.442 446.384 247.78 446.384 253.24 450.359 269.479 450.359" style="fill:none;stroke:#1de9b6;stroke-miterlimit:10;stroke-width:1.25px"/><line x1="239.44237" y1="441.25262" x2="269.4792" y2="441.25262" style="fill:none;stroke:#1de9b6;stroke-miterlimit:10;stroke-width:1.25px"/><line x1="239.44237" y1="436.12099" x2="269.4792" y2="436.12099" style="fill:none;stroke:#1de9b6;stroke-miterlimit:10;stroke-width:1.25px"/><polygon points="445.15 242.265 286.186 299.268 151.985 208.324 445.15 208.324 445.15 242.265" style="fill:#031e28"/><path d="M305.86284,215.03224a44.99347,44.99347,0,0,1,89.98694,0Z" style="fill:#031e28"/><g style="clip-path:url(#a)"><circle cx="315.56918" cy="204.90807" r="1.08466" style="fill:#1de9b6"/><circle cx="326.47004" cy="204.90807" r="1.08466" style="fill:#1de9b6"/><circle cx="331.92047" cy="204.90807" r="1.08466" style="fill:#1de9b6"/><circle cx="321.01961" cy="204.90807" r="1.08466" style="fill:#1de9b6"/><polyline points="308.669 194.818 319.608 194.818 322.905 197.218 349.062 197.218" style="fill:none;stroke:#1de9b6;stroke-miterlimit:10;stroke-width:1.25px"/><polyline points="395.85 199.619 378.515 199.619 375.218 197.218 349.062 197.218" style="fill:none;stroke:#1de9b6;stroke-miterlimit:10;stroke-width:1.25px"/><line x1="308.66891" y1="191.70871" x2="392.6282" y2="191.70871" style="fill:none;stroke:#1de9b6;stroke-miterlimit:10;stroke-width:1.25px"/><line x1="341.42438" y1="203.51902" x2="341.42438" y2="206.59265" style="fill:none;stroke:#1de9b6;stroke-miterlimit:10;stroke-width:1.25px"/><line x1="343.93928" y1="202.04131" x2="343.93928" y2="207.77482" style="fill:none;stroke:#1de9b6;stroke-miterlimit:10;stroke-width:1.25px"/><line x1="346.45417" y1="201.2729" x2="346.45417" y2="208.54323" style="fill:none;stroke:#1de9b6;stroke-miterlimit:10;stroke-width:1.25px"/><line x1="348.96906" y1="202.72984" x2="348.96906" y2="206.59265" style="fill:none;stroke:#1de9b6;stroke-miterlimit:10;stroke-width:1.25px"/><line x1="351.48396" y1="201.2729" x2="351.48396" y2="208.54323" style="fill:none;stroke:#1de9b6;stroke-miterlimit:10;stroke-width:1.25px"/><line x1="356.51375" y1="203.51902" x2="356.51375" y2="206.59265" style="fill:none;stroke:#1de9b6;stroke-miterlimit:10;stroke-width:1.25px"/><line x1="353.99885" y1="202.04131" x2="353.99885" y2="207.77482" style="fill:none;stroke:#1de9b6;stroke-miterlimit:10;stroke-width:1.25px"/><line x1="359.02864" y1="202.04131" x2="359.02864" y2="207.77482" style="fill:none;stroke:#1de9b6;stroke-miterlimit:10;stroke-width:1.25px"/><line x1="361.54354" y1="201.2729" x2="361.54354" y2="208.54323" style="fill:none;stroke:#1de9b6;stroke-miterlimit:10;stroke-width:1.25px"/><line x1="364.05843" y1="202.72984" x2="364.05843" y2="206.59265" style="fill:none;stroke:#1de9b6;stroke-miterlimit:10;stroke-width:1.25px"/><line x1="366.57333" y1="201.2729" x2="366.57333" y2="208.54323" style="fill:none;stroke:#1de9b6;stroke-miterlimit:10;stroke-width:1.25px"/><line x1="371.60312" y1="203.51902" x2="371.60312" y2="206.59265" style="fill:none;stroke:#1de9b6;stroke-miterlimit:10;stroke-width:1.25px"/><line x1="369.08822" y1="202.04131" x2="369.08822" y2="207.77482" style="fill:none;stroke:#1de9b6;stroke-miterlimit:10;stroke-width:1.25px"/></g><rect x="410.85042" y="245.07434" width="111.29201" height="285.45531" style="fill:#434d72"/><rect x="396.76919" y="245.07434" width="14.08123" height="14.08123" style="fill:#031e28"/><rect x="396.76919" y="259.15557" width="14.08123" height="218.55017" style="fill:#434d72"/><rect x="382.68796" y="273.2368" width="14.08123" height="186.63545" style="fill:#434d72"/><rect x="382.68796" y="259.15557" width="14.08123" height="14.08123" style="fill:#031e28"/><rect x="368.60673" y="273.2368" width="14.08123" height="149.42034" style="fill:#031e28"/><rect x="392.98697" y="299.61718" width="21.64569" height="246.07995" rx="10.82283" ry="10.82283" style="fill:#0f2631"/><path d="M403.80982,299.61714a10.70814,10.70814,0,0,0-3.52027.60312A10.85614,10.85614,0,0,1,407.592,310.44V534.8742a10.85614,10.85614,0,0,1-7.30249,10.21978,10.70814,10.70814,0,0,0,3.52027.60312,10.85463,10.85463,0,0,0,10.82283-10.82289V310.44A10.85463,10.85463,0,0,0,403.80982,299.61714Z" style="fill:#031e28"/><rect x="391.46425" y="354.11003" width="14.08123" height="165.31904" transform="translate(797.00974 873.53911) rotate(-180)" style="fill:#434d72"/><rect x="400.94981" y="354.11003" width="23.27258" height="14.08123" transform="translate(825.1722 722.3013) rotate(-180)" style="fill:#031e28"/><rect x="405.54549" y="368.19126" width="14.08123" height="98.41391" transform="translate(825.1722 834.79644) rotate(-180)" style="fill:#434d72"/><rect x="419.62672" y="382.27249" width="14.08123" height="186.63545" transform="translate(853.33467 951.18044) rotate(-180)" style="fill:#434d72"/><rect x="415.03104" y="368.19126" width="23.27258" height="14.08123" transform="translate(853.33467 750.46376) rotate(-180)" style="fill:#031e28"/><rect x="433.70795" y="382.27249" width="37.53538" height="75.36951" transform="translate(904.95128 839.9145) rotate(-180)" style="fill:#031e28"/><rect x="401.76326" y="389.14516" width="21.64568" height="125.94368" rx="10.82283" ry="10.82283" transform="translate(825.1722 904.23401) rotate(-180)" style="fill:#0f2631"/><path d="M412.58609,389.14513a10.70814,10.70814,0,0,1,3.52027.60312,10.85614,10.85614,0,0,0-7.30249,10.21978v104.2979a10.85614,10.85614,0,0,0,7.30249,10.21978,10.70814,10.70814,0,0,1-3.52027.60312,10.85463,10.85463,0,0,1-10.82283-10.82289V399.968A10.85463,10.85463,0,0,1,412.58609,389.14513Z" style="fill:#031e28"/><path d="M282.43369,430.36923a57.05876,57.05876,0,0,1,114.11752,0Z" style="fill:#434d72"/><g style="clip-path:url(#b)"><circle cx="294.74284" cy="417.53019" r="1.37552" style="fill:#1de9b6"/><circle cx="308.56684" cy="417.53019" r="1.37552" style="fill:#1de9b6"/><circle cx="315.47884" cy="417.53019" r="1.37552" style="fill:#1de9b6"/><circle cx="301.65484" cy="417.53019" r="1.37552" style="fill:#1de9b6"/><polyline points="285.992 404.735 299.864 404.735 304.045 407.778 337.216 407.778" style="fill:none;stroke:#1de9b6;stroke-miterlimit:10;stroke-width:1.25px"/><polyline points="396.551 410.822 374.569 410.822 370.387 407.778 337.216 407.778" style="fill:none;stroke:#1de9b6;stroke-miterlimit:10;stroke-width:1.25px"/><line x1="285.99222" y1="400.79134" x2="392.46573" y2="400.79134" style="fill:none;stroke:#1de9b6;stroke-miterlimit:10;stroke-width:1.25px"/><line x1="327.53128" y1="415.76866" x2="327.53128" y2="419.66651" style="fill:none;stroke:#737e90;stroke-miterlimit:10;stroke-width:1.25px"/><line x1="330.72056" y1="413.8947" x2="330.72056" y2="421.16568" style="fill:none;stroke:#737e90;stroke-miterlimit:10;stroke-width:1.25px"/><line x1="333.90984" y1="412.92024" x2="333.90984" y2="422.14014" style="fill:none;stroke:#737e90;stroke-miterlimit:10;stroke-width:1.25px"/><line x1="337.09912" y1="414.76786" x2="337.09912" y2="419.66651" style="fill:none;stroke:#737e90;stroke-miterlimit:10;stroke-width:1.25px"/><line x1="340.2884" y1="412.92024" x2="340.2884" y2="422.14014" style="fill:none;stroke:#737e90;stroke-miterlimit:10;stroke-width:1.25px"/><line x1="346.66696" y1="415.76866" x2="346.66696" y2="419.66651" style="fill:none;stroke:#737e90;stroke-miterlimit:10;stroke-width:1.25px"/><line x1="343.47768" y1="413.8947" x2="343.47768" y2="421.16568" style="fill:none;stroke:#737e90;stroke-miterlimit:10;stroke-width:1.25px"/><line x1="349.85624" y1="413.8947" x2="349.85624" y2="421.16568" style="fill:none;stroke:#737e90;stroke-miterlimit:10;stroke-width:1.25px"/><line x1="353.04552" y1="412.92024" x2="353.04552" y2="422.14014" style="fill:none;stroke:#737e90;stroke-miterlimit:10;stroke-width:1.25px"/><line x1="356.2348" y1="414.76786" x2="356.2348" y2="419.66651" style="fill:none;stroke:#737e90;stroke-miterlimit:10;stroke-width:1.25px"/><line x1="359.42408" y1="412.92024" x2="359.42408" y2="422.14014" style="fill:none;stroke:#737e90;stroke-miterlimit:10;stroke-width:1.25px"/><line x1="365.80264" y1="415.76866" x2="365.80264" y2="419.66651" style="fill:none;stroke:#737e90;stroke-miterlimit:10;stroke-width:1.25px"/><line x1="362.61336" y1="413.8947" x2="362.61336" y2="421.16568" style="fill:none;stroke:#737e90;stroke-miterlimit:10;stroke-width:1.25px"/></g><rect x="282.43369" y="427.54387" width="82.21968" height="114.54564" style="fill:#434d72"/><rect x="448.18429" y="329.77289" width="23.5503" height="99.04645" style="fill:#2a3d58"/><rect x="433.6" y="329.77289" width="14.58429" height="100.03297" style="fill:#173045"/><circle cx="454.20871" cy="350.67066" r="1.37552" style="fill:#1de9b6"/><circle cx="468.03271" cy="350.67066" r="1.37552" style="fill:#1de9b6"/><circle cx="474.9447" cy="350.67066" r="1.37552" style="fill:#1de9b6"/><circle cx="461.12071" cy="350.67066" r="1.37552" style="fill:#1de9b6"/><polyline points="452.946 342.782 459.33 342.782 463.511 345.826 475.946 345.826" style="fill:none;stroke:#1de9b6;stroke-miterlimit:10;stroke-width:1.25px"/><line x1="452.94585" y1="338.85296" x2="475.94576" y2="338.85296" style="fill:none;stroke:#1de9b6;stroke-miterlimit:10;stroke-width:1.25px"/><line x1="452.94585" y1="334.92355" x2="475.94576" y2="334.92355" style="fill:none;stroke:#1de9b6;stroke-miterlimit:10;stroke-width:1.25px"/><rect x="147.31779" y="347.20451" width="9.54617" height="52.54143" transform="translate(304.18174 746.95046) rotate(-180)" style="fill:#fff"/><polygon points="149.192 342.999 158.738 342.999 156.864 347.205 147.318 347.205 149.192 342.999" style="fill:#fff"/><polygon points="132.184 324.933 149.192 330.209 149.192 342.999 147.318 347.205 147.318 399.746 132.184 399.746 132.184 324.933" style="fill:#c3cbd8"/><rect x="149.19208" y="330.2092" width="9.54617" height="12.79027" transform="translate(307.93033 673.20867) rotate(-180)" style="fill:#fff"/><polygon points="158.738 330.209 142.51 324.933 132.184 324.933 149.192 330.209 158.738 330.209" style="fill:#031e28"/><rect x="131.97213" y="353.74533" width="35.64164" height="94.91594" style="fill:#fff"/><rect x="115.84496" y="353.74533" width="16.12717" height="94.91594" style="fill:#c3cbd8"/><circle cx="138.63388" cy="376.85389" r="1.52104" style="fill:#18ffff"/><circle cx="153.92033" cy="376.85389" r="1.52104" style="fill:#18ffff"/><circle cx="161.56355" cy="376.85389" r="1.52104" style="fill:#18ffff"/><circle cx="146.2771" cy="376.85389" r="1.52104" style="fill:#18ffff"/><polyline points="137.237 368.131 144.297 368.131 148.921 371.497 162.671 371.497" style="fill:none;stroke:#737e90;stroke-miterlimit:10;stroke-width:1.25px"/><line x1="137.23742" y1="363.78598" x2="162.6705" y2="363.78598" style="fill:none;stroke:#737e90;stroke-miterlimit:10;stroke-width:1.25px"/><line x1="137.23742" y1="359.44088" x2="162.6705" y2="359.44088" style="fill:none;stroke:#737e90;stroke-miterlimit:10;stroke-width:1.25px"/><line x1="162.6705" y1="385.91597" x2="137.37861" y2="385.91597" style="fill:none;stroke:#737e90;stroke-miterlimit:10;stroke-width:1.25px"/><line x1="140.45672" y1="393.40964" x2="140.45672" y2="397.30748" style="fill:none;stroke:#1de9b6;stroke-miterlimit:10;stroke-width:1.25px"/><line x1="143.646" y1="391.53567" x2="143.646" y2="398.80665" style="fill:none;stroke:#1de9b6;stroke-miterlimit:10;stroke-width:1.25px"/><line x1="146.83528" y1="390.56121" x2="146.83528" y2="399.78112" style="fill:none;stroke:#1de9b6;stroke-miterlimit:10;stroke-width:1.25px"/><line x1="150.02456" y1="392.40884" x2="150.02456" y2="397.30748" style="fill:none;stroke:#1de9b6;stroke-miterlimit:10;stroke-width:1.25px"/><line x1="153.21384" y1="390.56121" x2="153.21384" y2="399.78112" style="fill:none;stroke:#1de9b6;stroke-miterlimit:10;stroke-width:1.25px"/><line x1="159.59239" y1="393.40964" x2="159.59239" y2="397.30748" style="fill:none;stroke:#1de9b6;stroke-miterlimit:10;stroke-width:1.25px"/><line x1="156.40312" y1="391.53567" x2="156.40312" y2="398.80665" style="fill:none;stroke:#1de9b6;stroke-miterlimit:10;stroke-width:1.25px"/><path d="M304.75833,240.3698h6.03011a0,0,0,0,1,0,0v66.05814a0,0,0,0,1,0,0H282.91281a0,0,0,0,1,0,0V262.21532a21.84552,21.84552,0,0,1,21.84552-21.84552Z" style="fill:#c3cbd8"/><rect x="310.78844" y="240.3698" width="21.75397" height="66.05814" transform="translate(643.33085 546.79774) rotate(-180)" style="fill:#fff"/><rect x="318.60746" y="249.31656" width="6.11593" height="4.70858" transform="translate(643.33085 503.34169) rotate(-180)" style="fill:#1de9b6"/><rect x="318.60746" y="260.30305" width="6.11593" height="4.70858" transform="translate(643.33085 525.31467) rotate(-180)" style="fill:#1de9b6"/><rect x="318.60746" y="271.28954" width="6.11593" height="4.70858" transform="translate(643.33085 547.28765) rotate(-180)" style="fill:#1de9b6"/><rect x="318.60746" y="282.27602" width="6.11593" height="4.70858" transform="translate(643.33085 569.26062) rotate(-180)" style="fill:#1de9b6"/><rect x="318.60746" y="293.26251" width="6.11593" height="4.70858" transform="translate(643.33085 591.2336) rotate(-180)" style="fill:#1de9b6"/><circle cx="296.85063" cy="266.31801" r="7.2205" style="fill:#031e28"/><path d="M293.14009,266.318a7.21686,7.21686,0,0,1,5.46556-6.99672,7.22055,7.22055,0,1,0,0,13.99343A7.21686,7.21686,0,0,1,293.14009,266.318Z" style="fill:#2e3554"/><circle cx="296.85063" cy="286.41338" r="7.2205" style="fill:#031e28"/><path d="M293.14009,286.41338a7.21686,7.21686,0,0,1,5.46556-6.99672,7.22055,7.22055,0,1,0,0,13.99343A7.21686,7.21686,0,0,1,293.14009,286.41338Z" style="fill:#2e3554"/><rect x="169.57795" y="104.99479" width="44.39569" height="147.80767" style="fill:#434d72"/><rect x="154.63015" y="104.99479" width="14.94779" height="14.94779" style="fill:#031e28"/><rect x="154.63015" y="119.94259" width="14.94779" height="110.24273" style="fill:#434d72"/><polygon points="154.63 220.801 139.682 220.801 139.682 134.89 154.63 127.653 154.63 220.801" style="fill:#434d72"/><rect x="124.73457" y="134.89038" width="14.94779" height="78.79696" style="fill:#031e28"/><rect x="150.61517" y="142.18599" width="22.97777" height="106.00915" rx="11.48887" ry="11.48887" style="fill:#031e28"/><path d="M162.10407,142.186a11.36713,11.36713,0,0,0-3.73691.64023,11.52422,11.52422,0,0,1,7.75189,10.8487v83.03128a11.52422,11.52422,0,0,1-7.75189,10.8487,11.36713,11.36713,0,0,0,3.73691.64023,11.52263,11.52263,0,0,0,11.48887-11.48894V153.67489A11.52263,11.52263,0,0,0,162.10407,142.186Z" style="fill:#173045"/><rect x="197.11643" y="152.91661" width="10.23428" height="9.00617" style="fill:none;stroke:#737e90;stroke-miterlimit:10;stroke-width:1.25px"/><rect x="179.94728" y="152.91661" width="10.23428" height="9.00617" style="fill:none;stroke:#737e90;stroke-miterlimit:10;stroke-width:1.25px"/><circle cx="181.34712" cy="198.38614" r="1.39983" style="fill:#1de9b6"/><circle cx="193.5857" cy="198.38614" r="1.39983" style="fill:#1de9b6"/><circle cx="187.46641" cy="198.38614" r="1.39983" style="fill:#1de9b6"/><polyline points="180.062 190.358 186.559 190.358 190.814 193.456 207.522 193.456" style="fill:none;stroke:#1de9b6;stroke-miterlimit:10;stroke-width:1.25px"/><line x1="180.06193" y1="185.9917" x2="207.35071" y2="185.9917" style="fill:none;stroke:#1de9b6;stroke-miterlimit:10;stroke-width:1.25px"/><circle cx="180.71186" cy="174.75008" r="0.936" style="fill:#1de9b6"/><circle cx="183.7838" cy="174.75008" r="0.936" style="fill:#1de9b6"/><circle cx="187.00358" cy="174.75008" r="0.936" style="fill:#1de9b6"/><line x1="207.52214" y1="174.75008" x2="192.51468" y2="174.75008" style="fill:none;stroke:#1de9b6;stroke-miterlimit:10;stroke-width:1.25px"/><rect x="236.81518" y="200.34978" width="23.5503" height="99.04645" style="fill:#2a3d58"/><rect x="222.23089" y="200.34978" width="14.58429" height="100.03297" style="fill:#173045"/><circle cx="242.8396" cy="221.24755" r="1.37552" style="fill:#18ffff"/><circle cx="256.6636" cy="221.24755" r="1.37552" style="fill:#18ffff"/><circle cx="263.57559" cy="221.24755" r="1.37552" style="fill:#18ffff"/><circle cx="249.7516" cy="221.24755" r="1.37552" style="fill:#18ffff"/><polyline points="241.577 213.359 247.961 213.359 252.142 216.403 264.577 216.403" style="fill:none;stroke:#737e90;stroke-miterlimit:10;stroke-width:1.25px"/><line x1="241.57674" y1="209.42984" x2="264.57665" y2="209.42984" style="fill:none;stroke:#737e90;stroke-miterlimit:10;stroke-width:1.25px"/><line x1="241.57674" y1="205.50043" x2="264.57665" y2="205.50043" style="fill:none;stroke:#737e90;stroke-miterlimit:10;stroke-width:1.25px"/><polygon points="282.022 418.902 282.022 365.34 298.842 418.902 282.022 418.902" style="fill:#fff"/><polygon points="282.022 418.902 282.022 365.34 265.202 418.902 282.022 418.902" style="fill:#434d72"/><rect x="282.02208" y="418.90165" width="16.81961" height="70.81349" style="fill:#173045"/><rect x="265.20247" y="418.90165" width="16.81961" height="70.84566" style="fill:#031e28"/><path d="M0,0V574.213H611.19629V0ZM401.62109,408.00476,294.94336,469.59485,188.26563,408.00476,81.58789,346.04724l106.67773-61.59033,106.67725,61.59033h.00049l106.67773-61.59033,106.67773,61.59058Zm0-169.87964L294.94336,299.71545,188.26563,238.12512,81.58789,176.1676l106.67773-61.59033L294.94336,176.1676l106.67773-61.59033,106.67773,61.59058Z" style="fill:#0f2631"/><polygon points="458.2 205.32 480.211 192.536 480.211 115.166 458.2 115.166 458.2 205.32" style="fill:#2a3d58"/><polygon points="411.981 232.163 458.2 205.32 458.2 115.166 411.981 115.166 411.981 232.163" style="fill:#173045"/><polygon points="414.086 114.721 456.095 114.627 456.095 101.044 414.086 101.138 414.086 114.721" style="fill:#173045"/><polygon points="456.095 114.721 478.693 114.627 478.693 101.044 456.095 101.138 456.095 114.721" style="fill:#2a3d58"/><polyline points="456.095 101.138 459.841 86.37 459.841 86.37 478.693 101.138" style="fill:#1de9b6"/><polyline points="456.095 101.138 459.841 86.37 432.938 86.37 414.086 101.138" style="fill:#031e28"/><line x1="473.1577" y1="115.25988" x2="473.1577" y2="194.88278" style="fill:none;stroke:#1de9b6;stroke-miterlimit:10;stroke-width:1.25px"/><line x1="466.13917" y1="115.25988" x2="466.13917" y2="197.04108" style="fill:none;stroke:#1de9b6;stroke-miterlimit:10;stroke-width:1.25px"/><circle cx="448.32983" cy="141.2244" r="1.57618" style="fill:#1de9b6"/><circle cx="434.54943" cy="141.2244" r="1.57618" style="fill:#1de9b6"/><circle cx="441.43963" cy="141.2244" r="1.57618" style="fill:#1de9b6"/><polyline points="449.777 132.185 442.461 132.185 437.67 135.673 418.857 135.673" style="fill:none;stroke:#737e90;stroke-miterlimit:10;stroke-width:1.25px"/><line x1="449.77692" y1="127.26851" x2="419.0503" y2="127.26851" style="fill:none;stroke:#737e90;stroke-miterlimit:10;stroke-width:1.25px"/><circle cx="449.04511" cy="114.61067" r="1.05392" style="fill:#1de9b6"/><circle cx="445.58617" cy="114.61067" r="1.05392" style="fill:#1de9b6"/><circle cx="441.96076" cy="114.61067" r="1.05392" style="fill:#1de9b6"/><line x1="418.85728" y1="114.61067" x2="435.75538" y2="114.61067" style="fill:none;stroke:#737e90;stroke-miterlimit:10;stroke-width:1.25px"/><g style="clip-path:url(#c)"><rect x="338.69527" y="340.4102" width="12.25301" height="38.31156" transform="translate(689.64356 719.13197) rotate(-180)" style="fill:#434d72"/><polygon points="341.101 335.013 353.354 335.013 350.948 340.41 338.695 340.41 341.101 335.013" style="fill:#434d72"/><polygon points="323.524 322.745 341.101 322.745 341.101 335.013 338.695 340.41 338.695 378.722 323.524 378.722 323.524 322.745" style="fill:#173045"/><rect x="341.10102" y="322.74512" width="12.25301" height="12.26769" transform="translate(694.45506 657.75793) rotate(-180)" style="fill:#434d72"/><line x1="354.35703" y1="340.41023" x2="321.81" y2="340.4102" style="fill:none;stroke:#1de9b6;stroke-miterlimit:10;stroke-width:1.25px"/><line x1="354.35703" y1="345.15596" x2="321.80999" y2="345.15594" style="fill:none;stroke:#1de9b6;stroke-miterlimit:10;stroke-width:1.25px"/><line x1="354.35702" y1="349.90169" x2="321.80999" y2="349.90167" style="fill:none;stroke:#1de9b6;stroke-miterlimit:10;stroke-width:1.25px"/><line x1="354.35701" y1="354.64742" x2="321.80998" y2="354.6474" style="fill:none;stroke:#1de9b6;stroke-miterlimit:10;stroke-width:1.25px"/></g><line x1="457.61564" y1="329.66288" x2="457.61564" y2="321.97662" style="fill:none;stroke:#1de9b6;stroke-miterlimit:10;stroke-width:1.25px"/><polygon points="217.634 424.959 239.656 437.699 239.656 289.878 217.634 289.878 217.634 424.959" style="fill:#173045"/><polygon points="181.686 404.242 217.634 424.959 217.634 289.878 181.686 289.878 181.686 404.242" style="fill:#434d72"/><rect x="187.58223" y="282.56391" width="24.15495" height="7.31438" transform="translate(399.31931 572.44228) rotate(-179.99998)" style="fill:#434d72"/><polyline points="211.737 282.564 199.66 274.341 187.582 282.564" style="fill:#434d72"/><rect x="211.73718" y="282.56392" width="24.15495" height="7.31438" transform="translate(447.62922 572.4423) rotate(-179.99998)" style="fill:#173045"/><polyline points="211.737 282.564 223.815 274.341 235.892 282.564" style="fill:#173045"/><polygon points="199.66 274.341 223.815 274.341 211.737 282.564 199.66 274.341" style="fill:#1de9b6"/><line x1="241.44048" y1="289.87831" x2="179.82247" y2="289.87829" style="fill:none;stroke:#1de9b6;stroke-miterlimit:10;stroke-width:1.25px"/><line x1="241.44047" y1="294.62404" x2="179.82246" y2="294.62402" style="fill:none;stroke:#1de9b6;stroke-miterlimit:10;stroke-width:1.25px"/><line x1="241.44046" y1="299.36978" x2="179.82245" y2="299.36975" style="fill:none;stroke:#1de9b6;stroke-miterlimit:10;stroke-width:1.25px"/><line x1="241.44046" y1="304.11551" x2="179.82245" y2="304.11549" style="fill:none;stroke:#1de9b6;stroke-miterlimit:10;stroke-width:1.25px"/><line x1="352.1824" y1="169.9875" x2="352.1824" y2="162.30124" style="fill:none;stroke:#1de9b6;stroke-miterlimit:10;stroke-width:1.25px"/><rect x="432.06456" y="155.07133" width="3.54545" height="52.92256" transform="translate(867.67457 363.06523) rotate(-180)" style="fill:#031e28"/><rect x="226.83692" y="331.35882" width="3.54545" height="52.92256" style="fill:#031e28"/><line x1="331.01341" y1="322.74512" x2="331.01341" y2="311.83897" style="fill:none;stroke:#1de9b6;stroke-miterlimit:10;stroke-width:1.25px"/></svg>