<svg xmlns="http://www.w3.org/2000/svg" xmlns:xlink="http://www.w3.org/1999/xlink" viewBox="0 0 611.196 574.213"><defs><clipPath id="a"><path fill="none" d="M305.86284,215.03224a44.99347,44.99347,0,0,1,89.98694,0Z"/></clipPath><clipPath id="b"><path fill="none" d="M282.43369,430.36923a57.05876,57.05876,0,0,1,114.11752,0Z"/></clipPath><clipPath id="c"><path fill="none" d="M282.43369,430.36923a57.05876,57.05876,0,0,1,114.11752,0V261.7994H282.43369Z"/></clipPath></defs><title>footer-city</title><polygon fill="#2a3d58" points="294.943 299.716 401.621 238.125 294.943 176.168 294.943 299.716"/><polygon fill="#173045" points="294.943 299.716 188.266 238.125 294.943 176.168 294.943 299.716"/><polygon fill="#173045" points="401.621 114.577 294.943 176.168 401.621 238.125 401.621 114.577"/><polygon fill="#2a3d58" points="401.621 114.577 508.299 176.168 401.621 238.125 401.621 114.577"/><polygon fill="#173045" points="188.266 114.577 81.588 176.168 188.266 238.125 188.266 114.577"/><polygon fill="#2a3d58" points="188.266 114.577 294.943 176.168 188.266 238.125 188.266 114.577"/><polygon fill="#2a3d58" points="294.943 469.595 401.621 408.005 294.943 346.047 294.943 469.595"/><polygon fill="#173045" points="294.943 469.595 188.266 408.005 294.943 346.047 294.943 469.595"/><polygon fill="#173045" points="401.621 284.457 294.943 346.047 401.621 408.005 401.621 284.457"/><polygon fill="#2a3d58" points="401.621 284.457 508.299 346.047 401.621 408.005 401.621 284.457"/><polygon fill="#173045" points="188.266 284.457 81.588 346.047 188.266 408.005 188.266 284.457"/><polygon fill="#2a3d58" points="188.266 284.457 294.943 346.047 188.266 408.005 188.266 284.457"/><rect width="46.721" height="99.742" x="335.967" y="295.617" fill="#031e28"/><rect width="120.646" height="128.812" x="81.588" y="279.193" fill="#031e28"/><rect width="93.942" height="140.024" x="178.845" y="107.969" fill="#031e28"/><rect width="93.942" height="57.46" x="40.985" y="173.172" fill="#031e28"/><rect width="93.942" height="73.213" x="441.44" y="157.42" fill="#031e28"/><polygon fill="#031e28" points="354.551 518.193 156.403 481.612 156.403 368.131 354.551 368.131 354.551 518.193"/><circle cx="241.092" cy="425.635" r="1.796" fill="#18ffff"/><circle cx="259.145" cy="425.635" r="1.796" fill="#18ffff"/><circle cx="268.172" cy="425.635" r="1.796" fill="#18ffff"/><circle cx="250.118" cy="425.635" r="1.796" fill="#18ffff"/><polyline fill="none" stroke="#1de9b6" stroke-miterlimit="10" stroke-width="1.25" points="239.442 415.334 247.78 415.334 253.24 419.309 269.479 419.309"/><line x1="239.442" x2="269.479" y1="410.202" y2="410.202" fill="none" stroke="#1de9b6" stroke-miterlimit="10" stroke-width="1.25"/><line x1="239.442" x2="269.479" y1="405.07" y2="405.07" fill="none" stroke="#1de9b6" stroke-miterlimit="10" stroke-width="1.25"/><circle cx="241.092" cy="456.686" r="1.796" fill="#18ffff"/><circle cx="259.145" cy="456.686" r="1.796" fill="#18ffff"/><circle cx="268.172" cy="456.686" r="1.796" fill="#18ffff"/><circle cx="250.118" cy="456.686" r="1.796" fill="#18ffff"/><polyline fill="none" stroke="#1de9b6" stroke-miterlimit="10" stroke-width="1.25" points="239.442 446.384 247.78 446.384 253.24 450.359 269.479 450.359"/><line x1="239.442" x2="269.479" y1="441.253" y2="441.253" fill="none" stroke="#1de9b6" stroke-miterlimit="10" stroke-width="1.25"/><line x1="239.442" x2="269.479" y1="436.121" y2="436.121" fill="none" stroke="#1de9b6" stroke-miterlimit="10" stroke-width="1.25"/><polygon fill="#031e28" points="445.15 242.265 286.186 299.268 151.985 208.324 445.15 208.324 445.15 242.265"/><path fill="#031e28" d="M305.86284,215.03224a44.99347,44.99347,0,0,1,89.98694,0Z"/><g clip-path="url(#a)"><circle cx="315.569" cy="204.908" r="1.085" fill="#1de9b6"/><circle cx="326.47" cy="204.908" r="1.085" fill="#1de9b6"/><circle cx="331.92" cy="204.908" r="1.085" fill="#1de9b6"/><circle cx="321.02" cy="204.908" r="1.085" fill="#1de9b6"/><polyline fill="none" stroke="#1de9b6" stroke-miterlimit="10" stroke-width="1.25" points="308.669 194.818 319.608 194.818 322.905 197.218 349.062 197.218"/><polyline fill="none" stroke="#1de9b6" stroke-miterlimit="10" stroke-width="1.25" points="395.85 199.619 378.515 199.619 375.218 197.218 349.062 197.218"/><line x1="308.669" x2="392.628" y1="191.709" y2="191.709" fill="none" stroke="#1de9b6" stroke-miterlimit="10" stroke-width="1.25"/><line x1="341.424" x2="341.424" y1="203.519" y2="206.593" fill="none" stroke="#1de9b6" stroke-miterlimit="10" stroke-width="1.25"/><line x1="343.939" x2="343.939" y1="202.041" y2="207.775" fill="none" stroke="#1de9b6" stroke-miterlimit="10" stroke-width="1.25"/><line x1="346.454" x2="346.454" y1="201.273" y2="208.543" fill="none" stroke="#1de9b6" stroke-miterlimit="10" stroke-width="1.25"/><line x1="348.969" x2="348.969" y1="202.73" y2="206.593" fill="none" stroke="#1de9b6" stroke-miterlimit="10" stroke-width="1.25"/><line x1="351.484" x2="351.484" y1="201.273" y2="208.543" fill="none" stroke="#1de9b6" stroke-miterlimit="10" stroke-width="1.25"/><line x1="356.514" x2="356.514" y1="203.519" y2="206.593" fill="none" stroke="#1de9b6" stroke-miterlimit="10" stroke-width="1.25"/><line x1="353.999" x2="353.999" y1="202.041" y2="207.775" fill="none" stroke="#1de9b6" stroke-miterlimit="10" stroke-width="1.25"/><line x1="359.029" x2="359.029" y1="202.041" y2="207.775" fill="none" stroke="#1de9b6" stroke-miterlimit="10" stroke-width="1.25"/><line x1="361.544" x2="361.544" y1="201.273" y2="208.543" fill="none" stroke="#1de9b6" stroke-miterlimit="10" stroke-width="1.25"/><line x1="364.058" x2="364.058" y1="202.73" y2="206.593" fill="none" stroke="#1de9b6" stroke-miterlimit="10" stroke-width="1.25"/><line x1="366.573" x2="366.573" y1="201.273" y2="208.543" fill="none" stroke="#1de9b6" stroke-miterlimit="10" stroke-width="1.25"/><line x1="371.603" x2="371.603" y1="203.519" y2="206.593" fill="none" stroke="#1de9b6" stroke-miterlimit="10" stroke-width="1.25"/><line x1="369.088" x2="369.088" y1="202.041" y2="207.775" fill="none" stroke="#1de9b6" stroke-miterlimit="10" stroke-width="1.25"/></g><rect width="111.292" height="285.455" x="410.85" y="245.074" fill="#434d72"/><rect width="14.081" height="14.081" x="396.769" y="245.074" fill="#031e28"/><rect width="14.081" height="218.55" x="396.769" y="259.156" fill="#434d72"/><rect width="14.081" height="186.635" x="382.688" y="273.237" fill="#434d72"/><rect width="14.081" height="14.081" x="382.688" y="259.156" fill="#031e28"/><rect width="14.081" height="149.42" x="368.607" y="273.237" fill="#031e28"/><rect width="21.646" height="246.08" x="392.987" y="299.617" fill="#0f2631" rx="10.823" ry="10.823"/><path fill="#031e28" d="M403.80982,299.61714a10.70814,10.70814,0,0,0-3.52027.60312A10.85614,10.85614,0,0,1,407.592,310.44V534.8742a10.85614,10.85614,0,0,1-7.30249,10.21978,10.70814,10.70814,0,0,0,3.52027.60312,10.85463,10.85463,0,0,0,10.82283-10.82289V310.44A10.85463,10.85463,0,0,0,403.80982,299.61714Z"/><rect width="14.081" height="165.319" x="391.464" y="354.11" fill="#434d72" transform="translate(797.00974 873.53911) rotate(-180)"/><rect width="23.273" height="14.081" x="400.95" y="354.11" fill="#031e28" transform="translate(825.1722 722.3013) rotate(-180)"/><rect width="14.081" height="98.414" x="405.545" y="368.191" fill="#434d72" transform="translate(825.1722 834.79644) rotate(-180)"/><rect width="14.081" height="186.635" x="419.627" y="382.272" fill="#434d72" transform="translate(853.33467 951.18044) rotate(-180)"/><rect width="23.273" height="14.081" x="415.031" y="368.191" fill="#031e28" transform="translate(853.33467 750.46376) rotate(-180)"/><rect width="37.535" height="75.37" x="433.708" y="382.272" fill="#031e28" transform="translate(904.95128 839.9145) rotate(-180)"/><rect width="21.646" height="125.944" x="401.763" y="389.145" fill="#0f2631" rx="10.823" ry="10.823" transform="translate(825.1722 904.23401) rotate(-180)"/><path fill="#031e28" d="M412.58609,389.14513a10.70814,10.70814,0,0,1,3.52027.60312,10.85614,10.85614,0,0,0-7.30249,10.21978v104.2979a10.85614,10.85614,0,0,0,7.30249,10.21978,10.70814,10.70814,0,0,1-3.52027.60312,10.85463,10.85463,0,0,1-10.82283-10.82289V399.968A10.85463,10.85463,0,0,1,412.58609,389.14513Z"/><path fill="#434d72" d="M282.43369,430.36923a57.05876,57.05876,0,0,1,114.11752,0Z"/><g clip-path="url(#b)"><circle cx="294.743" cy="417.53" r="1.376" fill="#1de9b6"/><circle cx="308.567" cy="417.53" r="1.376" fill="#1de9b6"/><circle cx="315.479" cy="417.53" r="1.376" fill="#1de9b6"/><circle cx="301.655" cy="417.53" r="1.376" fill="#1de9b6"/><polyline fill="none" stroke="#1de9b6" stroke-miterlimit="10" stroke-width="1.25" points="285.992 404.735 299.864 404.735 304.045 407.778 337.216 407.778"/><polyline fill="none" stroke="#1de9b6" stroke-miterlimit="10" stroke-width="1.25" points="396.551 410.822 374.569 410.822 370.387 407.778 337.216 407.778"/><line x1="285.992" x2="392.466" y1="400.791" y2="400.791" fill="none" stroke="#1de9b6" stroke-miterlimit="10" stroke-width="1.25"/><line x1="327.531" x2="327.531" y1="415.769" y2="419.667" fill="none" stroke="#737e90" stroke-miterlimit="10" stroke-width="1.25"/><line x1="330.721" x2="330.721" y1="413.895" y2="421.166" fill="none" stroke="#737e90" stroke-miterlimit="10" stroke-width="1.25"/><line x1="333.91" x2="333.91" y1="412.92" y2="422.14" fill="none" stroke="#737e90" stroke-miterlimit="10" stroke-width="1.25"/><line x1="337.099" x2="337.099" y1="414.768" y2="419.667" fill="none" stroke="#737e90" stroke-miterlimit="10" stroke-width="1.25"/><line x1="340.288" x2="340.288" y1="412.92" y2="422.14" fill="none" stroke="#737e90" stroke-miterlimit="10" stroke-width="1.25"/><line x1="346.667" x2="346.667" y1="415.769" y2="419.667" fill="none" stroke="#737e90" stroke-miterlimit="10" stroke-width="1.25"/><line x1="343.478" x2="343.478" y1="413.895" y2="421.166" fill="none" stroke="#737e90" stroke-miterlimit="10" stroke-width="1.25"/><line x1="349.856" x2="349.856" y1="413.895" y2="421.166" fill="none" stroke="#737e90" stroke-miterlimit="10" stroke-width="1.25"/><line x1="353.046" x2="353.046" y1="412.92" y2="422.14" fill="none" stroke="#737e90" stroke-miterlimit="10" stroke-width="1.25"/><line x1="356.235" x2="356.235" y1="414.768" y2="419.667" fill="none" stroke="#737e90" stroke-miterlimit="10" stroke-width="1.25"/><line x1="359.424" x2="359.424" y1="412.92" y2="422.14" fill="none" stroke="#737e90" stroke-miterlimit="10" stroke-width="1.25"/><line x1="365.803" x2="365.803" y1="415.769" y2="419.667" fill="none" stroke="#737e90" stroke-miterlimit="10" stroke-width="1.25"/><line x1="362.613" x2="362.613" y1="413.895" y2="421.166" fill="none" stroke="#737e90" stroke-miterlimit="10" stroke-width="1.25"/></g><rect width="82.22" height="114.546" x="282.434" y="427.544" fill="#434d72"/><rect width="23.55" height="99.046" x="448.184" y="329.773" fill="#2a3d58"/><rect width="14.584" height="100.033" x="433.6" y="329.773" fill="#173045"/><circle cx="454.209" cy="350.671" r="1.376" fill="#1de9b6"/><circle cx="468.033" cy="350.671" r="1.376" fill="#1de9b6"/><circle cx="474.945" cy="350.671" r="1.376" fill="#1de9b6"/><circle cx="461.121" cy="350.671" r="1.376" fill="#1de9b6"/><polyline fill="none" stroke="#1de9b6" stroke-miterlimit="10" stroke-width="1.25" points="452.946 342.782 459.33 342.782 463.511 345.826 475.946 345.826"/><line x1="452.946" x2="475.946" y1="338.853" y2="338.853" fill="none" stroke="#1de9b6" stroke-miterlimit="10" stroke-width="1.25"/><line x1="452.946" x2="475.946" y1="334.924" y2="334.924" fill="none" stroke="#1de9b6" stroke-miterlimit="10" stroke-width="1.25"/><rect width="9.546" height="52.541" x="147.318" y="347.205" fill="#fff" transform="translate(304.18174 746.95046) rotate(-180)"/><polygon fill="#fff" points="149.192 342.999 158.738 342.999 156.864 347.205 147.318 347.205 149.192 342.999"/><polygon fill="#c3cbd8" points="132.184 324.933 149.192 330.209 149.192 342.999 147.318 347.205 147.318 399.746 132.184 399.746 132.184 324.933"/><rect width="9.546" height="12.79" x="149.192" y="330.209" fill="#fff" transform="translate(307.93033 673.20867) rotate(-180)"/><polygon fill="#031e28" points="158.738 330.209 142.51 324.933 132.184 324.933 149.192 330.209 158.738 330.209"/><rect width="35.642" height="94.916" x="131.972" y="353.745" fill="#fff"/><rect width="16.127" height="94.916" x="115.845" y="353.745" fill="#c3cbd8"/><circle cx="138.634" cy="376.854" r="1.521" fill="#18ffff"/><circle cx="153.92" cy="376.854" r="1.521" fill="#18ffff"/><circle cx="161.564" cy="376.854" r="1.521" fill="#18ffff"/><circle cx="146.277" cy="376.854" r="1.521" fill="#18ffff"/><polyline fill="none" stroke="#737e90" stroke-miterlimit="10" stroke-width="1.25" points="137.237 368.131 144.297 368.131 148.921 371.497 162.671 371.497"/><line x1="137.237" x2="162.671" y1="363.786" y2="363.786" fill="none" stroke="#737e90" stroke-miterlimit="10" stroke-width="1.25"/><line x1="137.237" x2="162.671" y1="359.441" y2="359.441" fill="none" stroke="#737e90" stroke-miterlimit="10" stroke-width="1.25"/><line x1="162.671" x2="137.379" y1="385.916" y2="385.916" fill="none" stroke="#737e90" stroke-miterlimit="10" stroke-width="1.25"/><line x1="140.457" x2="140.457" y1="393.41" y2="397.307" fill="none" stroke="#1de9b6" stroke-miterlimit="10" stroke-width="1.25"/><line x1="143.646" x2="143.646" y1="391.536" y2="398.807" fill="none" stroke="#1de9b6" stroke-miterlimit="10" stroke-width="1.25"/><line x1="146.835" x2="146.835" y1="390.561" y2="399.781" fill="none" stroke="#1de9b6" stroke-miterlimit="10" stroke-width="1.25"/><line x1="150.025" x2="150.025" y1="392.409" y2="397.307" fill="none" stroke="#1de9b6" stroke-miterlimit="10" stroke-width="1.25"/><line x1="153.214" x2="153.214" y1="390.561" y2="399.781" fill="none" stroke="#1de9b6" stroke-miterlimit="10" stroke-width="1.25"/><line x1="159.592" x2="159.592" y1="393.41" y2="397.307" fill="none" stroke="#1de9b6" stroke-miterlimit="10" stroke-width="1.25"/><line x1="156.403" x2="156.403" y1="391.536" y2="398.807" fill="none" stroke="#1de9b6" stroke-miterlimit="10" stroke-width="1.25"/><path fill="#c3cbd8" d="M304.75833,240.3698h6.03011a0,0,0,0,1,0,0v66.05814a0,0,0,0,1,0,0H282.91281a0,0,0,0,1,0,0V262.21532a21.84552,21.84552,0,0,1,21.84552-21.84552Z"/><rect width="21.754" height="66.058" x="310.788" y="240.37" fill="#fff" transform="translate(643.33085 546.79774) rotate(-180)"/><rect width="6.116" height="4.709" x="318.607" y="249.317" fill="#1de9b6" transform="translate(643.33085 503.34169) rotate(-180)"/><rect width="6.116" height="4.709" x="318.607" y="260.303" fill="#1de9b6" transform="translate(643.33085 525.31467) rotate(-180)"/><rect width="6.116" height="4.709" x="318.607" y="271.29" fill="#1de9b6" transform="translate(643.33085 547.28765) rotate(-180)"/><rect width="6.116" height="4.709" x="318.607" y="282.276" fill="#1de9b6" transform="translate(643.33085 569.26062) rotate(-180)"/><rect width="6.116" height="4.709" x="318.607" y="293.263" fill="#1de9b6" transform="translate(643.33085 591.2336) rotate(-180)"/><circle cx="296.851" cy="266.318" r="7.221" fill="#031e28"/><path fill="#2e3554" d="M293.14009,266.318a7.21686,7.21686,0,0,1,5.46556-6.99672,7.22055,7.22055,0,1,0,0,13.99343A7.21686,7.21686,0,0,1,293.14009,266.318Z"/><circle cx="296.851" cy="286.413" r="7.221" fill="#031e28"/><path fill="#2e3554" d="M293.14009,286.41338a7.21686,7.21686,0,0,1,5.46556-6.99672,7.22055,7.22055,0,1,0,0,13.99343A7.21686,7.21686,0,0,1,293.14009,286.41338Z"/><rect width="44.396" height="147.808" x="169.578" y="104.995" fill="#434d72"/><rect width="14.948" height="14.948" x="154.63" y="104.995" fill="#031e28"/><rect width="14.948" height="110.243" x="154.63" y="119.943" fill="#434d72"/><polygon fill="#434d72" points="154.63 220.801 139.682 220.801 139.682 134.89 154.63 127.653 154.63 220.801"/><rect width="14.948" height="78.797" x="124.735" y="134.89" fill="#031e28"/><rect width="22.978" height="106.009" x="150.615" y="142.186" fill="#031e28" rx="11.489" ry="11.489"/><path fill="#173045" d="M162.10407,142.186a11.36713,11.36713,0,0,0-3.73691.64023,11.52422,11.52422,0,0,1,7.75189,10.8487v83.03128a11.52422,11.52422,0,0,1-7.75189,10.8487,11.36713,11.36713,0,0,0,3.73691.64023,11.52263,11.52263,0,0,0,11.48887-11.48894V153.67489A11.52263,11.52263,0,0,0,162.10407,142.186Z"/><rect width="10.234" height="9.006" x="197.116" y="152.917" fill="none" stroke="#737e90" stroke-miterlimit="10" stroke-width="1.25"/><rect width="10.234" height="9.006" x="179.947" y="152.917" fill="none" stroke="#737e90" stroke-miterlimit="10" stroke-width="1.25"/><circle cx="181.347" cy="198.386" r="1.4" fill="#1de9b6"/><circle cx="193.586" cy="198.386" r="1.4" fill="#1de9b6"/><circle cx="187.466" cy="198.386" r="1.4" fill="#1de9b6"/><polyline fill="none" stroke="#1de9b6" stroke-miterlimit="10" stroke-width="1.25" points="180.062 190.358 186.559 190.358 190.814 193.456 207.522 193.456"/><line x1="180.062" x2="207.351" y1="185.992" y2="185.992" fill="none" stroke="#1de9b6" stroke-miterlimit="10" stroke-width="1.25"/><circle cx="180.712" cy="174.75" r=".936" fill="#1de9b6"/><circle cx="183.784" cy="174.75" r=".936" fill="#1de9b6"/><circle cx="187.004" cy="174.75" r=".936" fill="#1de9b6"/><line x1="207.522" x2="192.515" y1="174.75" y2="174.75" fill="none" stroke="#1de9b6" stroke-miterlimit="10" stroke-width="1.25"/><rect width="23.55" height="99.046" x="236.815" y="200.35" fill="#2a3d58"/><rect width="14.584" height="100.033" x="222.231" y="200.35" fill="#173045"/><circle cx="242.84" cy="221.248" r="1.376" fill="#18ffff"/><circle cx="256.664" cy="221.248" r="1.376" fill="#18ffff"/><circle cx="263.576" cy="221.248" r="1.376" fill="#18ffff"/><circle cx="249.752" cy="221.248" r="1.376" fill="#18ffff"/><polyline fill="none" stroke="#737e90" stroke-miterlimit="10" stroke-width="1.25" points="241.577 213.359 247.961 213.359 252.142 216.403 264.577 216.403"/><line x1="241.577" x2="264.577" y1="209.43" y2="209.43" fill="none" stroke="#737e90" stroke-miterlimit="10" stroke-width="1.25"/><line x1="241.577" x2="264.577" y1="205.5" y2="205.5" fill="none" stroke="#737e90" stroke-miterlimit="10" stroke-width="1.25"/><polygon fill="#fff" points="282.022 418.902 282.022 365.34 298.842 418.902 282.022 418.902"/><polygon fill="#434d72" points="282.022 418.902 282.022 365.34 265.202 418.902 282.022 418.902"/><rect width="16.82" height="70.813" x="282.022" y="418.902" fill="#173045"/><rect width="16.82" height="70.846" x="265.202" y="418.902" fill="#031e28"/><path fill="#0f2631" d="M0,0V574.213H611.19629V0ZM401.62109,408.00476,294.94336,469.59485,188.26563,408.00476,81.58789,346.04724l106.67773-61.59033,106.67725,61.59033h.00049l106.67773-61.59033,106.67773,61.59058Zm0-169.87964L294.94336,299.71545,188.26563,238.12512,81.58789,176.1676l106.67773-61.59033L294.94336,176.1676l106.67773-61.59033,106.67773,61.59058Z"/><polygon fill="#2a3d58" points="458.2 205.32 480.211 192.536 480.211 115.166 458.2 115.166 458.2 205.32"/><polygon fill="#173045" points="411.981 232.163 458.2 205.32 458.2 115.166 411.981 115.166 411.981 232.163"/><polygon fill="#173045" points="414.086 114.721 456.095 114.627 456.095 101.044 414.086 101.138 414.086 114.721"/><polygon fill="#2a3d58" points="456.095 114.721 478.693 114.627 478.693 101.044 456.095 101.138 456.095 114.721"/><polyline fill="#1de9b6" points="456.095 101.138 459.841 86.37 459.841 86.37 478.693 101.138"/><polyline fill="#031e28" points="456.095 101.138 459.841 86.37 432.938 86.37 414.086 101.138"/><line x1="473.158" x2="473.158" y1="115.26" y2="194.883" fill="none" stroke="#1de9b6" stroke-miterlimit="10" stroke-width="1.25"/><line x1="466.139" x2="466.139" y1="115.26" y2="197.041" fill="none" stroke="#1de9b6" stroke-miterlimit="10" stroke-width="1.25"/><circle cx="448.33" cy="141.224" r="1.576" fill="#1de9b6"/><circle cx="434.549" cy="141.224" r="1.576" fill="#1de9b6"/><circle cx="441.44" cy="141.224" r="1.576" fill="#1de9b6"/><polyline fill="none" stroke="#737e90" stroke-miterlimit="10" stroke-width="1.25" points="449.777 132.185 442.461 132.185 437.67 135.673 418.857 135.673"/><line x1="449.777" x2="419.05" y1="127.269" y2="127.269" fill="none" stroke="#737e90" stroke-miterlimit="10" stroke-width="1.25"/><circle cx="449.045" cy="114.611" r="1.054" fill="#1de9b6"/><circle cx="445.586" cy="114.611" r="1.054" fill="#1de9b6"/><circle cx="441.961" cy="114.611" r="1.054" fill="#1de9b6"/><line x1="418.857" x2="435.755" y1="114.611" y2="114.611" fill="none" stroke="#737e90" stroke-miterlimit="10" stroke-width="1.25"/><g clip-path="url(#c)"><rect width="12.253" height="38.312" x="338.695" y="340.41" fill="#434d72" transform="translate(689.64356 719.13197) rotate(-180)"/><polygon fill="#434d72" points="341.101 335.013 353.354 335.013 350.948 340.41 338.695 340.41 341.101 335.013"/><polygon fill="#173045" points="323.524 322.745 341.101 322.745 341.101 335.013 338.695 340.41 338.695 378.722 323.524 378.722 323.524 322.745"/><rect width="12.253" height="12.268" x="341.101" y="322.745" fill="#434d72" transform="translate(694.45506 657.75793) rotate(-180)"/><line x1="354.357" x2="321.81" y1="340.41" y2="340.41" fill="none" stroke="#1de9b6" stroke-miterlimit="10" stroke-width="1.25"/><line x1="354.357" x2="321.81" y1="345.156" y2="345.156" fill="none" stroke="#1de9b6" stroke-miterlimit="10" stroke-width="1.25"/><line x1="354.357" x2="321.81" y1="349.902" y2="349.902" fill="none" stroke="#1de9b6" stroke-miterlimit="10" stroke-width="1.25"/><line x1="354.357" x2="321.81" y1="354.647" y2="354.647" fill="none" stroke="#1de9b6" stroke-miterlimit="10" stroke-width="1.25"/></g><line x1="457.616" x2="457.616" y1="329.663" y2="321.977" fill="none" stroke="#1de9b6" stroke-miterlimit="10" stroke-width="1.25"/><polygon fill="#173045" points="217.634 424.959 239.656 437.699 239.656 289.878 217.634 289.878 217.634 424.959"/><polygon fill="#434d72" points="181.686 404.242 217.634 424.959 217.634 289.878 181.686 289.878 181.686 404.242"/><rect width="24.155" height="7.314" x="187.582" y="282.564" fill="#434d72" transform="translate(399.31931 572.44228) rotate(-179.99998)"/><polyline fill="#434d72" points="211.737 282.564 199.66 274.341 187.582 282.564"/><rect width="24.155" height="7.314" x="211.737" y="282.564" fill="#173045" transform="translate(447.62922 572.4423) rotate(-179.99998)"/><polyline fill="#173045" points="211.737 282.564 223.815 274.341 235.892 282.564"/><polygon fill="#1de9b6" points="199.66 274.341 223.815 274.341 211.737 282.564 199.66 274.341"/><line x1="241.44" x2="179.822" y1="289.878" y2="289.878" fill="none" stroke="#1de9b6" stroke-miterlimit="10" stroke-width="1.25"/><line x1="241.44" x2="179.822" y1="294.624" y2="294.624" fill="none" stroke="#1de9b6" stroke-miterlimit="10" stroke-width="1.25"/><line x1="241.44" x2="179.822" y1="299.37" y2="299.37" fill="none" stroke="#1de9b6" stroke-miterlimit="10" stroke-width="1.25"/><line x1="241.44" x2="179.822" y1="304.116" y2="304.115" fill="none" stroke="#1de9b6" stroke-miterlimit="10" stroke-width="1.25"/><line x1="352.182" x2="352.182" y1="169.988" y2="162.301" fill="none" stroke="#1de9b6" stroke-miterlimit="10" stroke-width="1.25"/><rect width="3.545" height="52.923" x="432.065" y="155.071" fill="#031e28" transform="translate(867.67457 363.06523) rotate(-180)"/><rect width="3.545" height="52.923" x="226.837" y="331.359" fill="#031e28"/><line x1="331.013" x2="331.013" y1="322.745" y2="311.839" fill="none" stroke="#1de9b6" stroke-miterlimit="10" stroke-width="1.25"/></svg>