<svg xmlns="http://www.w3.org/2000/svg" width="171" height="171" fill="none" viewBox="0 0 171 171"><rect width="170.772" height="170.8" fill="#0F2631"/><path fill="#2A3D58" fill-rule="evenodd" d="M87 27V65H104V34.7084L96.2349 27H87Z" clip-rule="evenodd"/><path fill="#2A3D58" fill-rule="evenodd" d="M110 27V65H127V34.7084L119.235 27H110Z" clip-rule="evenodd"/><path fill="#2A3D58" fill-rule="evenodd" d="M41 27V65H58V34.7084L50.2349 27H41Z" clip-rule="evenodd"/><path fill="#2A3D58" fill-rule="evenodd" d="M64 27V65H81V34.7084L73.2349 27H64Z" clip-rule="evenodd"/><path fill="#173045" fill-rule="evenodd" d="M102.58 122H41V71H71.1198H83.6831H97.2706H133V98.0731L102.58 122Z" clip-rule="evenodd"/><path fill="#434D72" fill-rule="evenodd" d="M41 144H103V128H41V144Z" clip-rule="evenodd"/><path fill="#434D72" fill-rule="evenodd" d="M102.58 122H41V103.39L69.1523 82H133V97.6413L102.58 122Z" clip-rule="evenodd"/><path fill="#434D72" fill-rule="evenodd" d="M95 74V56L123 56.0011V74H95Z" clip-rule="evenodd"/><path fill="#434D72" fill-rule="evenodd" d="M115 56V94H133V63.7082L125.307 56H115Z" clip-rule="evenodd"/></svg>