<svg xmlns="http://www.w3.org/2000/svg" xmlns:xlink="http://www.w3.org/1999/xlink" viewBox="0 0 1550 630"><defs><clipPath id="a"><path fill="none" d="M474.15858,226.22952a44.99347,44.99347,0,1,1,89.98694,0Z"/></clipPath><clipPath id="b"><path fill="none" d="M561.3998,377.05524a57.05876,57.05876,0,0,1,114.11752,0Z"/></clipPath></defs><title>hero-base</title><path fill="#0f2631" d="M174.225,482.00851a3.65387,3.65387,0,0,1-3.60986-3.83789V150.05245c0-2.39844,1.35352-3.83789,3.60986-3.83789h83.9292a3.67155,3.67155,0,0,1,3.60986,3.83789v40.77441c0,2.39844-1.80518,3.3584-3.60986,3.3584h-39.7085v93.0625h39.7085a3.67155,3.67155,0,0,1,3.60986,3.83789V331.861c0,2.87793-1.80518,3.83691-3.60986,3.83691h-39.7085v97.86035h39.7085a3.57,3.57,0,0,1,3.60986,3.35742v41.25488c0,2.87891-1.80518,3.83789-3.60986,3.83789Z"/><path fill="#0f2631" d="M325.29286,482.00851a3.65387,3.65387,0,0,1-3.60986-3.83789V150.05245c0-2.39844,1.35352-3.83789,3.60986-3.83789H365.9037c2.25635,0,3.60986,1.43945,3.60986,3.83789V433.55831h43.31836a3.682,3.682,0,0,1,3.60986,3.83789v40.77441c0,2.87891-1.354,3.83789-3.60986,3.83789Z"/><path fill="#0f2631" d="M565.931,146.21456a3.65387,3.65387,0,0,1,3.60986,3.83789l50.98926,328.11816c0,2.39844-1.35352,3.83789-3.60986,3.83789h-42.416a3.67155,3.67155,0,0,1-3.60986-3.83789L560.516,398.06026H523.06386l-11.28076,80.11035c0,2.39844-1.354,3.83789-3.60986,3.83789h-42.416c-2.25635,0-3.60986-1.43945-3.60986-3.83789l53.69678-328.11816a3.65387,3.65387,0,0,1,3.60986-3.83789Zm-36.09863,203.875h24.81787l-11.73242-92.583Z"/><path fill="#0f2631" d="M670.8871,188.42843c0-29.74121,12.18311-47.01074,45.57422-47.01074H762.4872c33.39111,0,45.57373,17.26953,45.57373,46.53125v44.6123c0,2.39844-1.35352,3.3584-3.60937,3.3584H763.84071c-1.80469,0-3.60937-.96-3.60937-3.3584V192.26632c0-1.91895-.45166-2.39844-2.25635-2.39844H720.974c-1.80518,0-2.25635.47949-2.25635,2.39844v92.583c0,1.91895.45117,2.39844,2.25635,2.39844H762.4872c35.647,0,45.57373,17.26953,45.57373,46.05176V434.99776c0,29.74121-9.92676,47.01074-45.12256,47.01074H717.36415c-36.09863,0-46.47705-17.26953-46.47705-46.05176V386.54757c0-2.39941,1.35352-3.3584,3.60986-3.3584H715.1078c1.80518,0,3.60986.959,3.60986,3.3584v44.6123c0,1.91895.45117,2.39844,2.25635,2.39844h37.001c1.80469,0,2.25635-.47949,2.25635-2.39844V338.0964c0-1.918-.45166-2.39844-2.25635-2.39844H716.46132c-32.48877,0-45.57422-6.71582-45.57422-46.05176Z"/><path fill="#0f2631" d="M945.86757,194.18526V478.17062c0,2.87891-1.35352,3.83789-3.15918,3.83789H901.64686c-2.25684,0-3.61035-2.39844-3.61035-3.83789V194.18526H863.74257a3.29586,3.29586,0,0,1-3.60937-3.3584V150.05245c0-2.39844,1.35352-3.83789,3.60938-3.83789H980.61268a3.67117,3.67117,0,0,1,3.60938,3.83789v40.77441c0,2.39844-1.80469,3.3584-3.60937,3.3584Z"/><path fill="#0f2631" d="M1037.059,435.95675V188.42843c0-29.74121,12.18359-47.01074,45.57422-47.01074h46.02637c33.3916,0,45.57422,17.26953,45.57422,46.53125V434.99776c0,29.74121-9.92676,47.01074-45.123,47.01074h-45.57422C1047.43788,482.00851,1037.059,464.739,1037.059,435.95675Zm87.08789-246.08887h-37.001c-1.80469,0-2.25586.47949-2.25586,2.39844V431.15987c0,1.91895.45117,2.39844,2.25586,2.39844h37.001c1.80469,0,2.25684-.47949,2.25684-2.39844V192.26632C1126.4037,190.34737,1125.95155,189.86788,1124.14686,189.86788Z"/><path fill="#0f2631" d="M1233.38808,188.42843c0-29.74121,12.18359-47.01074,45.57422-47.01074h46.02637c33.39063,0,45.57422,17.26953,45.57422,46.53125v44.6123c0,2.39844-1.35352,3.3584-3.61035,3.3584h-40.61035c-1.80469,0-3.61035-.96-3.61035-3.3584V192.26632c0-1.91895-.45117-2.39844-2.25586-2.39844h-37.001c-1.80469,0-2.25586.47949-2.25586,2.39844v92.583c0,1.91895.45117,2.39844,2.25586,2.39844h41.51367c35.64648,0,45.57422,17.26953,45.57422,46.05176V434.99776c0,29.74121-9.92773,47.01074-45.123,47.01074h-45.5752c-36.09863,0-46.47656-17.26953-46.47656-46.05176V386.54757c0-2.39941,1.35352-3.3584,3.60938-3.3584h40.61133c1.80469,0,3.61035.959,3.61035,3.3584v44.6123c0,1.91895.45117,2.39844,2.25586,2.39844h37.001c1.80469,0,2.25586-.47949,2.25586-2.39844V338.0964c0-1.918-.45117-2.39844-2.25586-2.39844h-41.51367c-32.48828,0-45.57422-6.71582-45.57422-46.05176Z"/><rect width="176.601" height="148" x="477.858" y="226.23" fill="#173045"/><rect width="47.597" height="181.812" x="567.497" y="257.507" fill="#434d72"/><rect width="12.888" height="12.888" x="554.609" y="257.507" fill="#031e28"/><rect width="12.888" height="168.924" x="554.609" y="270.394" fill="#434d72"/><rect width="41.422" height="156.037" x="513.188" y="283.282" fill="#434d72"/><rect width="12.888" height="12.888" x="541.722" y="270.394" fill="#031e28"/><rect width="30.664" height="104.286" x="528.512" y="320.317" fill="#031e28"/><rect width="41.171" height="174.815" x="574.494" y="264.504" fill="#031e28"/><rect width="41.171" height="161.927" x="561.607" y="277.391" fill="#031e28"/><rect width="50.353" height="149.039" x="517.065" y="290.279" fill="#031e28"/><path fill="#434d72" d="M474.15858,226.22952a44.99347,44.99347,0,1,1,89.98694,0Z"/><g clip-path="url(#a)"><circle cx="483.865" cy="216.105" r="1.085" fill="#18ffff"/><circle cx="494.766" cy="216.105" r="1.085" fill="#18ffff"/><circle cx="500.216" cy="216.105" r="1.085" fill="#18ffff"/><circle cx="489.315" cy="216.105" r="1.085" fill="#18ffff"/><polyline fill="none" stroke="#737e90" stroke-miterlimit="10" stroke-width="1.25" points="476.965 206.015 487.903 206.015 491.2 208.416 517.357 208.416"/><polyline fill="none" stroke="#737e90" stroke-miterlimit="10" stroke-width="1.25" points="564.146 210.816 546.811 210.816 543.514 208.416 517.357 208.416"/><line x1="476.965" x2="560.924" y1="202.906" y2="202.906" fill="none" stroke="#737e90" stroke-miterlimit="10" stroke-width="1.25"/><line x1="509.72" x2="509.72" y1="214.716" y2="217.79" fill="none" stroke="#1de9b6" stroke-miterlimit="10" stroke-width="1.25"/><line x1="512.235" x2="512.235" y1="213.239" y2="218.972" fill="none" stroke="#1de9b6" stroke-miterlimit="10" stroke-width="1.25"/><line x1="514.75" x2="514.75" y1="212.47" y2="219.741" fill="none" stroke="#1de9b6" stroke-miterlimit="10" stroke-width="1.25"/><line x1="517.265" x2="517.265" y1="213.927" y2="217.79" fill="none" stroke="#1de9b6" stroke-miterlimit="10" stroke-width="1.25"/><line x1="519.78" x2="519.78" y1="212.47" y2="219.741" fill="none" stroke="#1de9b6" stroke-miterlimit="10" stroke-width="1.25"/><line x1="524.809" x2="524.809" y1="214.716" y2="217.79" fill="none" stroke="#1de9b6" stroke-miterlimit="10" stroke-width="1.25"/><line x1="522.295" x2="522.295" y1="213.239" y2="218.972" fill="none" stroke="#1de9b6" stroke-miterlimit="10" stroke-width="1.25"/><line x1="527.324" x2="527.324" y1="213.239" y2="218.972" fill="none" stroke="#1de9b6" stroke-miterlimit="10" stroke-width="1.25"/><line x1="529.839" x2="529.839" y1="212.47" y2="219.741" fill="none" stroke="#1de9b6" stroke-miterlimit="10" stroke-width="1.25"/><line x1="532.354" x2="532.354" y1="213.927" y2="217.79" fill="none" stroke="#1de9b6" stroke-miterlimit="10" stroke-width="1.25"/><line x1="534.869" x2="534.869" y1="212.47" y2="219.741" fill="none" stroke="#1de9b6" stroke-miterlimit="10" stroke-width="1.25"/><line x1="539.899" x2="539.899" y1="214.716" y2="217.79" fill="none" stroke="#1de9b6" stroke-miterlimit="10" stroke-width="1.25"/><line x1="537.384" x2="537.384" y1="213.239" y2="218.972" fill="none" stroke="#1de9b6" stroke-miterlimit="10" stroke-width="1.25"/></g><path fill="#434d72" d="M561.3998,377.05524a57.05876,57.05876,0,0,1,114.11752,0Z"/><g clip-path="url(#b)"><circle cx="573.709" cy="364.216" r="1.376" fill="#1de9b6"/><circle cx="587.533" cy="364.216" r="1.376" fill="#1de9b6"/><circle cx="594.445" cy="364.216" r="1.376" fill="#1de9b6"/><circle cx="580.621" cy="364.216" r="1.376" fill="#1de9b6"/><polyline fill="none" stroke="#1de9b6" stroke-miterlimit="10" stroke-width="1.25" points="564.958 351.421 578.83 351.421 583.011 354.465 616.182 354.465"/><polyline fill="none" stroke="#737e90" stroke-miterlimit="10" stroke-width="1.25" points="675.517 357.508 653.535 357.508 649.354 354.465 616.182 354.465"/><line x1="564.958" x2="671.432" y1="347.477" y2="347.477" fill="none" stroke="#1de9b6" stroke-miterlimit="10" stroke-width="1.25"/><line x1="606.497" x2="606.497" y1="362.455" y2="366.353" fill="none" stroke="#737e90" stroke-miterlimit="10" stroke-width="1.25"/><line x1="609.687" x2="609.687" y1="360.581" y2="367.852" fill="none" stroke="#737e90" stroke-miterlimit="10" stroke-width="1.25"/><line x1="612.876" x2="612.876" y1="359.606" y2="368.826" fill="none" stroke="#737e90" stroke-miterlimit="10" stroke-width="1.25"/><line x1="616.065" x2="616.065" y1="361.454" y2="366.353" fill="none" stroke="#737e90" stroke-miterlimit="10" stroke-width="1.25"/><line x1="619.255" x2="619.255" y1="359.606" y2="368.826" fill="none" stroke="#737e90" stroke-miterlimit="10" stroke-width="1.25"/><line x1="625.633" x2="625.633" y1="362.455" y2="366.353" fill="none" stroke="#737e90" stroke-miterlimit="10" stroke-width="1.25"/><line x1="622.444" x2="622.444" y1="360.581" y2="367.852" fill="none" stroke="#737e90" stroke-miterlimit="10" stroke-width="1.25"/><line x1="628.822" x2="628.822" y1="360.581" y2="367.852" fill="none" stroke="#737e90" stroke-miterlimit="10" stroke-width="1.25"/><line x1="632.012" x2="632.012" y1="359.606" y2="368.826" fill="none" stroke="#737e90" stroke-miterlimit="10" stroke-width="1.25"/><line x1="635.201" x2="635.201" y1="361.454" y2="366.353" fill="none" stroke="#737e90" stroke-miterlimit="10" stroke-width="1.25"/><line x1="638.39" x2="638.39" y1="359.606" y2="368.826" fill="none" stroke="#737e90" stroke-miterlimit="10" stroke-width="1.25"/><line x1="644.769" x2="644.769" y1="362.455" y2="366.353" fill="none" stroke="#737e90" stroke-miterlimit="10" stroke-width="1.25"/><line x1="641.579" x2="641.579" y1="360.581" y2="367.852" fill="none" stroke="#737e90" stroke-miterlimit="10" stroke-width="1.25"/></g><rect width="22.678" height="85.548" x="1297.496" y="444.315" fill="#2a3d58"/><rect width="66.563" height="147.107" x="1234.363" y="458.31" fill="#2a3d58"/><rect width="51.695" height="261.263" x="1336.635" y="288.659" fill="#434d72"/><rect width="12.888" height="12.888" x="1323.747" y="288.659" fill="#031e28"/><rect width="12.888" height="200.028" x="1323.747" y="301.547" fill="#434d72"/><rect width="12.888" height="170.818" x="1310.859" y="314.435" fill="#434d72"/><rect width="12.888" height="12.888" x="1310.859" y="301.547" fill="#031e28"/><rect width="12.888" height="68.982" x="1297.972" y="314.435" fill="#031e28"/><rect width="19.811" height="225.224" x="1320.286" y="320.725" fill="#0f2631" rx="9.906" ry="9.906"/><path fill="#031e28" d="M1330.1912,320.72521a9.80062,9.80062,0,0,0-3.22192.552,9.93607,9.93607,0,0,1,6.68359,9.35364V536.04393a9.93607,9.93607,0,0,1-6.68359,9.35364,9.80062,9.80062,0,0,0,3.22192.552,9.93469,9.93469,0,0,0,9.90558-9.90564V330.63085A9.93469,9.93469,0,0,0,1330.1912,320.72521Z"/><rect width="12.888" height="151.308" x="1318.892" y="388.454" fill="#434d72" transform="translate(2650.67169 928.21637) rotate(-180)"/><rect width="21.3" height="12.888" x="1327.574" y="388.454" fill="#031e28" transform="translate(2676.44735 789.79616) rotate(-180)"/><rect width="12.888" height="90.073" x="1331.78" y="401.342" fill="#434d72" transform="translate(2676.44735 892.75719) rotate(-180)"/><rect width="12.888" height="170.818" x="1344.668" y="414.23" fill="#434d72" transform="translate(2702.223 999.2775) rotate(-180)"/><rect width="21.3" height="12.888" x="1340.461" y="401.342" fill="#031e28" transform="translate(2702.223 815.57181) rotate(-180)"/><rect width="34.354" height="68.982" x="1357.555" y="414.23" fill="#031e28" transform="translate(2749.46504 897.44149) rotate(-180)"/><rect width="19.811" height="115.27" x="1328.318" y="420.52" fill="#0f2631" rx="9.906" ry="9.906" transform="translate(2676.44735 956.30984) rotate(180)"/><path fill="#031e28" d="M1338.22366,420.52a9.80061,9.80061,0,0,1,3.22192.552,9.93607,9.93607,0,0,0-6.68359,9.35364v95.45852a9.93607,9.93607,0,0,0,6.68359,9.35364,9.80061,9.80061,0,0,1-3.22192.552,9.93468,9.93468,0,0,1-9.90558-9.90564V430.42563A9.93468,9.93468,0,0,1,1338.22366,420.52Z"/><rect width="30.181" height="215.452" x="1046.042" y="175.282" fill="#2a3d58"/><circle cx="1050.765" cy="196.206" r="1.376" fill="#18ffff"/><circle cx="1064.589" cy="196.206" r="1.376" fill="#18ffff"/><circle cx="1071.501" cy="196.206" r="1.376" fill="#18ffff"/><circle cx="1057.677" cy="196.206" r="1.376" fill="#18ffff"/><polyline fill="none" stroke="#737e90" stroke-miterlimit="10" stroke-width="1.25" points="1049.502 188.318 1055.886 188.318 1060.067 191.362 1072.502 191.362"/><line x1="1049.502" x2="1072.502" y1="184.388" y2="184.388" fill="none" stroke="#737e90" stroke-miterlimit="10" stroke-width="1.25"/><line x1="1049.502" x2="1072.502" y1="180.459" y2="180.459" fill="none" stroke="#737e90" stroke-miterlimit="10" stroke-width="1.25"/><circle cx="1050.765" cy="219.982" r="1.376" fill="#18ffff"/><circle cx="1064.589" cy="219.982" r="1.376" fill="#18ffff"/><circle cx="1071.501" cy="219.982" r="1.376" fill="#18ffff"/><circle cx="1057.677" cy="219.982" r="1.376" fill="#18ffff"/><polyline fill="none" stroke="#737e90" stroke-miterlimit="10" stroke-width="1.25" points="1049.502 212.094 1055.886 212.094 1060.067 215.138 1072.502 215.138"/><line x1="1049.502" x2="1072.502" y1="208.164" y2="208.164" fill="none" stroke="#737e90" stroke-miterlimit="10" stroke-width="1.25"/><line x1="1049.502" x2="1072.502" y1="204.235" y2="204.235" fill="none" stroke="#737e90" stroke-miterlimit="10" stroke-width="1.25"/><polygon fill="#434d72" points="643.619 488.776 451.196 488.776 469.962 374.23 643.619 374.23 643.619 488.776"/><polygon fill="#fff" points="1150.714 218.078 1150.714 163.08 1167.984 218.078 1150.714 218.078"/><polygon fill="#434d72" points="1150.714 218.078 1150.714 163.08 1133.443 218.078 1150.714 218.078"/><rect width="17.271" height="186.297" x="1150.714" y="218.078" fill="#2a3d58"/><rect width="17.271" height="264.055" x="1133.443" y="218.078" fill="#173045"/><rect width="22.678" height="85.548" x="1097.314" y="442.209" fill="#2a3d58"/><rect width="31.649" height="85.548" x="1072.74" y="452.886" fill="#2a3d58"/><rect width="79.827" height="144.077" x="1074.537" y="461.341" fill="#2a3d58"/><rect width="22.678" height="85.548" x="598.644" y="416.483" fill="#2a3d58"/><rect width="41.71" height="85.548" x="563.242" y="438.994" fill="#2a3d58"/><rect width="61.262" height="85.548" x="455.121" y="452.886" fill="#2a3d58"/><rect width="79.827" height="144.077" x="565.039" y="461.341" fill="#2a3d58"/><rect width="22.678" height="85.548" x="370.053" y="458.024" fill="#434d72"/><rect width="16.855" height="162.88" x="1281.216" y="177.094" fill="#434d72" transform="translate(2579.28592 517.06745) rotate(-180)"/><rect width="35.39" height="159.873" x="1245.825" y="177.094" fill="#2a3d58" transform="translate(2527.04062 514.06014) rotate(-180)"/><polygon fill="#2a3d58" points="1247.436 177.165 1279.604 177.094 1279.604 166.693 1247.436 166.764 1247.436 177.165"/><polygon fill="#434d72" points="1279.604 177.165 1296.908 177.094 1296.908 166.693 1279.604 166.764 1279.604 177.165"/><polyline fill="#1de9b6" points="1264.74 166.764 1264.74 155.456 1282.473 155.456 1296.908 166.764"/><polyline fill="#031e28" points="1279.604 166.764 1282.473 155.456 1261.872 155.456 1247.436 166.764"/><line x1="1292.669" x2="1292.669" y1="177.165" y2="334.983" fill="none" stroke="#1de9b6" stroke-miterlimit="10" stroke-width="1.25"/><line x1="1287.295" x2="1287.295" y1="177.165" y2="339.974" fill="none" stroke="#1de9b6" stroke-miterlimit="10" stroke-width="1.25"/><circle cx="1272.125" cy="285.151" r="1.207" fill="#1de9b6"/><circle cx="1261.573" cy="285.151" r="1.207" fill="#1de9b6"/><circle cx="1266.849" cy="285.151" r="1.207" fill="#1de9b6"/><polyline fill="none" stroke="#737e90" stroke-miterlimit="10" stroke-width="1.25" points="1273.233 278.229 1267.632 278.229 1263.963 280.9 1249.557 280.9"/><line x1="1273.233" x2="1249.705" y1="274.464" y2="274.464" fill="none" stroke="#737e90" stroke-miterlimit="10" stroke-width="1.25"/><circle cx="1272.673" cy="264.772" r=".807" fill="#1de9b6"/><circle cx="1270.024" cy="264.772" r=".807" fill="#1de9b6"/><circle cx="1267.248" cy="264.772" r=".807" fill="#1de9b6"/><line x1="1249.557" x2="1262.497" y1="264.772" y2="264.772" fill="none" stroke="#737e90" stroke-miterlimit="10" stroke-width="1.25"/><circle cx="1272.125" cy="202.917" r="1.207" fill="#1de9b6"/><circle cx="1261.573" cy="202.917" r="1.207" fill="#1de9b6"/><circle cx="1266.849" cy="202.917" r="1.207" fill="#1de9b6"/><polyline fill="none" stroke="#737e90" stroke-miterlimit="10" stroke-width="1.25" points="1273.233 195.996 1267.632 195.996 1263.963 198.667 1249.557 198.667"/><line x1="1273.233" x2="1249.705" y1="192.231" y2="192.231" fill="none" stroke="#737e90" stroke-miterlimit="10" stroke-width="1.25"/><circle cx="1272.673" cy="182.539" r=".807" fill="#1de9b6"/><circle cx="1270.024" cy="182.539" r=".807" fill="#1de9b6"/><circle cx="1267.248" cy="182.539" r=".807" fill="#1de9b6"/><line x1="1249.557" x2="1262.497" y1="182.539" y2="182.539" fill="none" stroke="#737e90" stroke-miterlimit="10" stroke-width="1.25"/><rect width="29.547" height="106.347" x="717.978" y="286.85" fill="#2a3d58"/><rect width="23.55" height="219.851" x="697.546" y="136.896" fill="#2a3d58"/><rect width="31.169" height="222.412" x="666.377" y="136.896" fill="#173045"/><circle cx="703.571" cy="173.289" r="1.376" fill="#18ffff"/><circle cx="717.395" cy="173.289" r="1.376" fill="#18ffff"/><circle cx="724.307" cy="173.289" r="1.376" fill="#18ffff"/><circle cx="710.483" cy="173.289" r="1.376" fill="#18ffff"/><polyline fill="none" stroke="#737e90" stroke-miterlimit="10" stroke-width="1.25" points="702.308 165.401 708.692 165.401 712.873 168.445 725.308 168.445"/><line x1="702.308" x2="725.308" y1="161.472" y2="161.472" fill="none" stroke="#737e90" stroke-miterlimit="10" stroke-width="1.25"/><line x1="702.308" x2="725.308" y1="157.542" y2="157.542" fill="none" stroke="#737e90" stroke-miterlimit="10" stroke-width="1.25"/><path fill="#2a3d58" d="M186.91076,269.41231a17.19327,17.19327,0,0,0-17.19327,17.19327h17.19327Z"/><path fill="#2a3d58" d="M186.91076,235.02571A17.19327,17.19327,0,0,0,169.71749,252.219h17.19327Z"/><path fill="#2a3d58" d="M204.104,269.41225A17.19323,17.19323,0,0,0,186.91074,252.219v17.19334Z"/><path fill="#2a3d58" d="M204.104,234.82612a17.19323,17.19323,0,0,0-17.19327-17.19327v17.19334Z"/><path fill="#2a3d58" d="M204.10409,252.01936a17.19341,17.19341,0,0,0,17.19363-17.19326l-17.19371,0Z"/><path fill="#2a3d58" d="M186.91076,199.575a17.19327,17.19327,0,0,0-17.19327,17.19327h17.19327Z"/><path fill="#2a3d58" d="M186.91076,165.18834a17.19327,17.19327,0,0,0-17.19327,17.19327h17.19327Z"/><path fill="#2a3d58" d="M204.104,199.57488a17.19323,17.19323,0,0,0-17.19327-17.19327V199.575Z"/><path fill="#2a3d58" d="M204.104,164.98876a17.19323,17.19323,0,0,0-17.19327-17.19327v17.19334Z"/><path fill="#2a3d58" d="M204.10409,182.182a17.19341,17.19341,0,0,0,17.19363-17.19326l-17.19371,0Z"/><rect width="20.881" height="54.581" x="951.575" y="171.037" fill="#fff" transform="translate(1924.03072 396.65576) rotate(-180)"/><rect width="34.085" height="205.585" x="917.49" y="171.037" fill="#434d72" transform="translate(1869.06459 547.65994) rotate(-180)"/><rect width="22.903" height="6.935" x="923.081" y="164.102" fill="#434d72" transform="translate(1869.06459 335.13927) rotate(-180)"/><polyline fill="#434d72" points="945.984 164.102 934.532 156.305 923.081 164.102"/><rect width="22.903" height="6.935" x="945.984" y="164.102" fill="#fff" transform="translate(1914.87078 335.13927) rotate(-180)"/><polyline fill="#fff" points="945.984 164.102 957.435 156.305 968.887 164.102"/><polygon fill="#031e28" points="934.532 156.305 957.435 156.305 945.984 164.102 934.532 156.305"/><line x1="974.148" x2="915.723" y1="171.037" y2="171.037" fill="none" stroke="#1de9b6" stroke-miterlimit="10" stroke-width="1.25"/><line x1="974.148" x2="915.723" y1="175.537" y2="175.537" fill="none" stroke="#1de9b6" stroke-miterlimit="10" stroke-width="1.25"/><line x1="974.148" x2="915.723" y1="180.037" y2="180.037" fill="none" stroke="#1de9b6" stroke-miterlimit="10" stroke-width="1.25"/><line x1="974.148" x2="915.723" y1="184.537" y2="184.537" fill="none" stroke="#1de9b6" stroke-miterlimit="10" stroke-width="1.25"/><rect width="20.313" height="116.458" x="1186.295" y="305.78" fill="#fff" transform="translate(2392.90211 728.01778) rotate(-180)"/><rect width="42.652" height="185.599" x="1143.643" y="305.78" fill="#434d72" transform="translate(2329.9375 797.15846) rotate(-180)"/><polygon fill="#434d72" points="1145.585 305.866 1184.353 305.78 1184.353 293.245 1145.585 293.331 1145.585 305.866"/><polygon fill="#fff" points="1184.353 305.866 1205.207 305.78 1205.207 293.245 1184.353 293.331 1184.353 305.866"/><polyline fill="#1de9b6" points="1166.439 293.331 1166.439 279.703 1187.81 279.703 1205.207 293.331"/><polyline fill="#1de9b6" points="1184.353 293.331 1187.81 279.703 1162.982 279.703 1145.585 293.331"/><line x1="1200.098" x2="1200.098" y1="305.866" y2="422.238" fill="none" stroke="#ffd371" stroke-miterlimit="10" stroke-width="1.25"/><line x1="1193.621" x2="1193.621" y1="305.866" y2="422.238" fill="none" stroke="#ffd371" stroke-miterlimit="10" stroke-width="1.25"/><rect width="8.824" height="7.765" x="1153.155" y="332.043" fill="none" stroke="#737e90" stroke-miterlimit="10" stroke-width="1.25" transform="translate(2315.13444 671.85094) rotate(-180)"/><rect width="8.824" height="7.765" x="1167.958" y="332.043" fill="none" stroke="#737e90" stroke-miterlimit="10" stroke-width="1.25" transform="translate(2344.74055 671.85094) rotate(-180)"/><polyline fill="none" stroke="#737e90" stroke-miterlimit="10" stroke-width="1.25" points="1176.782 310.887 1153.155 310.887 1153.155 327.637"/><line x1="1147.358" x2="1141.716" y1="310.887" y2="310.887" fill="none" stroke="#737e90" stroke-miterlimit="10" stroke-width="1.25"/><line x1="1147.358" x2="1141.716" y1="314.34" y2="314.34" fill="none" stroke="#737e90" stroke-miterlimit="10" stroke-width="1.25"/><line x1="1147.358" x2="1141.716" y1="332.043" y2="332.043" fill="none" stroke="#737e90" stroke-miterlimit="10" stroke-width="1.25"/><line x1="1147.358" x2="1141.716" y1="335.496" y2="335.496" fill="none" stroke="#737e90" stroke-miterlimit="10" stroke-width="1.25"/><line x1="1147.358" x2="1141.716" y1="378.668" y2="378.668" fill="none" stroke="#737e90" stroke-miterlimit="10" stroke-width="1.25"/><rect width="8.824" height="7.765" x="1153.155" y="399.824" fill="none" stroke="#737e90" stroke-miterlimit="10" stroke-width="1.25" transform="translate(2315.13444 807.41298) rotate(-180)"/><rect width="8.824" height="7.765" x="1167.958" y="399.824" fill="none" stroke="#737e90" stroke-miterlimit="10" stroke-width="1.25" transform="translate(2344.74055 807.41298) rotate(-180)"/><polyline fill="none" stroke="#737e90" stroke-miterlimit="10" stroke-width="1.25" points="1176.782 378.668 1153.155 378.668 1153.155 395.418"/><line x1="1147.358" x2="1141.716" y1="382.121" y2="382.121" fill="none" stroke="#737e90" stroke-miterlimit="10" stroke-width="1.25"/><line x1="1147.358" x2="1141.716" y1="399.824" y2="399.824" fill="none" stroke="#737e90" stroke-miterlimit="10" stroke-width="1.25"/><line x1="1147.358" x2="1141.716" y1="403.277" y2="403.277" fill="none" stroke="#737e90" stroke-miterlimit="10" stroke-width="1.25"/><polyline fill="none" stroke="#1de9b6" stroke-miterlimit="10" stroke-width="1.25" points="1176.683 362.306 1171.082 362.306 1167.413 364.977 1153.007 364.977"/><line x1="1176.683" x2="1153.155" y1="358.541" y2="358.541" fill="none" stroke="#1de9b6" stroke-miterlimit="10" stroke-width="1.25"/><circle cx="1176.123" cy="348.849" r=".807" fill="#1de9b6"/><circle cx="1173.474" cy="348.849" r=".807" fill="#1de9b6"/><circle cx="1170.698" cy="348.849" r=".807" fill="#1de9b6"/><line x1="1153.007" x2="1165.947" y1="348.849" y2="348.849" fill="none" stroke="#1de9b6" stroke-miterlimit="10" stroke-width="1.25"/><rect width="17.457" height="114.038" x="1051.971" y="259.912" fill="#fff" transform="translate(2121.39944 633.86303) rotate(-180)"/><rect width="36.656" height="114.038" x="1015.303" y="259.912" fill="#c3cbd8" transform="translate(2067.26075 633.86303) rotate(-180)"/><polygon fill="#c3cbd8" points="1016.984 259.987 1050.302 259.912 1050.302 249.14 1016.984 249.214 1016.984 259.987"/><polygon fill="#fff" points="1050.302 259.987 1068.225 259.912 1068.225 249.14 1050.302 249.214 1050.302 259.987"/><polyline fill="#1de9b6" points="1034.907 249.214 1034.907 237.501 1053.273 237.501 1068.225 249.214"/><polyline fill="#031e28" points="1050.302 249.214 1053.273 237.501 1031.936 237.501 1016.984 249.214"/><rect width="8.042" height="6.192" x="1056.679" y="339.018" fill="#1de9b6" transform="translate(2121.39944 684.22766) rotate(-180)"/><rect width="8.042" height="6.192" x="1056.679" y="353.001" fill="#1de9b6" transform="translate(2121.39944 712.19445) rotate(-180)"/><rect width="8.042" height="6.192" x="1056.679" y="325.035" fill="#1de9b6" transform="translate(2121.39944 656.26088) rotate(-180)"/><rect width="8.042" height="6.192" x="1022.232" y="267.247" fill="#0f2631" transform="translate(2052.50708 540.68579) rotate(-180)"/><rect width="8.042" height="6.192" x="1022.232" y="281.694" fill="#0f2631" transform="translate(2052.50708 569.57957) rotate(-180)"/><rect width="8.042" height="6.192" x="1022.232" y="296.141" fill="#0f2631" transform="translate(2052.50708 598.47334) rotate(-180)"/><rect width="8.042" height="6.192" x="1022.232" y="310.588" fill="#0f2631" transform="translate(2052.50708 627.36711) rotate(-180)"/><rect width="8.042" height="6.192" x="1022.232" y="339.482" fill="#0f2631" transform="translate(2052.50708 685.15465) rotate(-180)"/><rect width="8.042" height="6.192" x="1022.232" y="325.035" fill="#0f2631" transform="translate(2052.50708 656.26088) rotate(-180)"/><rect width="23.55" height="99.046" x="335.072" y="165.406" fill="#2a3d58"/><rect width="14.584" height="100.033" x="320.488" y="165.406" fill="#173045"/><circle cx="341.097" cy="186.304" r="1.376" fill="#1de9b6"/><circle cx="354.921" cy="186.304" r="1.376" fill="#1de9b6"/><circle cx="361.833" cy="186.304" r="1.376" fill="#1de9b6"/><circle cx="348.009" cy="186.304" r="1.376" fill="#1de9b6"/><polyline fill="none" stroke="#1de9b6" stroke-miterlimit="10" stroke-width="1.25" points="339.834 178.416 346.218 178.416 350.399 181.46 362.834 181.46"/><line x1="339.834" x2="362.834" y1="174.487" y2="174.487" fill="none" stroke="#1de9b6" stroke-miterlimit="10" stroke-width="1.25"/><line x1="339.834" x2="362.834" y1="170.557" y2="170.557" fill="none" stroke="#1de9b6" stroke-miterlimit="10" stroke-width="1.25"/><rect width="23.55" height="99.046" x="1331.108" y="165.406" fill="#2a3d58"/><rect width="14.584" height="100.033" x="1316.524" y="165.406" fill="#173045"/><circle cx="1337.133" cy="186.304" r="1.376" fill="#18ffff"/><circle cx="1350.957" cy="186.304" r="1.376" fill="#18ffff"/><circle cx="1357.869" cy="186.304" r="1.376" fill="#18ffff"/><circle cx="1344.045" cy="186.304" r="1.376" fill="#18ffff"/><polyline fill="none" stroke="#737e90" stroke-miterlimit="10" stroke-width="1.25" points="1335.87 178.416 1342.254 178.416 1346.435 181.46 1358.87 181.46"/><line x1="1335.87" x2="1358.87" y1="174.487" y2="174.487" fill="none" stroke="#737e90" stroke-miterlimit="10" stroke-width="1.25"/><line x1="1335.87" x2="1358.87" y1="170.557" y2="170.557" fill="none" stroke="#737e90" stroke-miterlimit="10" stroke-width="1.25"/><rect width="23.55" height="194.886" x="221.526" y="301.927" fill="#2a3d58"/><rect width="14.584" height="100.033" x="206.942" y="301.927" fill="#173045"/><circle cx="227.551" cy="322.825" r="1.376" fill="#18ffff"/><circle cx="241.375" cy="322.825" r="1.376" fill="#18ffff"/><circle cx="248.287" cy="322.825" r="1.376" fill="#18ffff"/><circle cx="234.463" cy="322.825" r="1.376" fill="#18ffff"/><polyline fill="none" stroke="#737e90" stroke-miterlimit="10" stroke-width="1.25" points="226.288 314.937 232.672 314.937 236.853 317.98 249.288 317.98"/><line x1="226.288" x2="249.288" y1="311.007" y2="311.007" fill="none" stroke="#737e90" stroke-miterlimit="10" stroke-width="1.25"/><line x1="226.288" x2="249.288" y1="307.078" y2="307.078" fill="none" stroke="#737e90" stroke-miterlimit="10" stroke-width="1.25"/><rect width="16.154" height="261.263" x="356.623" y="234.081" fill="#434d72"/><rect width="12.888" height="12.888" x="343.736" y="234.081" fill="#031e28"/><rect width="12.888" height="200.028" x="343.736" y="246.969" fill="#434d72"/><rect width="12.888" height="170.818" x="330.848" y="259.857" fill="#434d72"/><rect width="12.888" height="12.888" x="330.848" y="246.969" fill="#031e28"/><rect width="12.888" height="68.982" x="317.96" y="259.857" fill="#031e28"/><rect width="19.811" height="225.224" x="340.274" y="266.147" fill="#0f2631" rx="9.906" ry="9.906"/><path fill="#031e28" d="M350.17948,266.14707a9.80061,9.80061,0,0,0-3.22192.552,9.93606,9.93606,0,0,1,6.68359,9.35364V481.46579a9.93606,9.93606,0,0,1-6.68359,9.35364,9.80061,9.80061,0,0,0,3.22192.552,9.93469,9.93469,0,0,0,9.90558-9.90564V276.05271A9.93469,9.93469,0,0,0,350.17948,266.14707Z"/><rect width="22.023" height="64.873" x="326.822" y="320.03" fill="#fff" transform="translate(675.66709 704.93377) rotate(-179.99998)"/><rect width="35.948" height="69.153" x="290.874" y="320.03" fill="#434d72" transform="translate(617.69656 709.21403) rotate(-179.99998)"/><rect width="24.155" height="7.314" x="296.771" y="312.716" fill="#434d72" transform="translate(617.69669 632.74622) rotate(-179.99998)"/><polyline fill="#434d72" points="320.926 312.716 308.848 304.493 296.771 312.716"/><rect width="24.155" height="7.314" x="320.926" y="312.716" fill="#fff" transform="translate(666.0066 632.74624) rotate(-179.99998)"/><polyline fill="#fff" points="320.926 312.716 333.003 304.493 345.081 312.716"/><polygon fill="#1de9b6" points="308.848 304.493 333.003 304.493 320.926 312.716 308.848 304.493"/><line x1="350.629" x2="289.011" y1="320.03" y2="320.03" fill="none" stroke="#fff" stroke-miterlimit="10" stroke-width="1.25"/><line x1="350.629" x2="289.011" y1="324.776" y2="324.776" fill="none" stroke="#fff" stroke-miterlimit="10" stroke-width="1.25"/><line x1="350.629" x2="289.011" y1="329.522" y2="329.522" fill="none" stroke="#fff" stroke-miterlimit="10" stroke-width="1.25"/><line x1="350.629" x2="289.011" y1="334.267" y2="334.267" fill="none" stroke="#fff" stroke-miterlimit="10" stroke-width="1.25"/><rect width="9.546" height="52.541" x="910.382" y="283.901" fill="#fff" transform="translate(1830.30987 620.34313) rotate(-180)"/><polygon fill="#fff" points="912.256 279.696 921.802 279.696 919.928 283.901 910.382 283.901 912.256 279.696"/><polygon fill="#c3cbd8" points="895.248 261.629 912.256 266.906 912.256 279.696 910.382 283.901 910.382 336.442 895.248 336.442 895.248 261.629"/><rect width="9.546" height="12.79" x="912.256" y="266.906" fill="#fff" transform="translate(1834.05845 546.60135) rotate(-180)"/><polygon fill="#031e28" points="921.802 266.906 905.574 261.629 895.248 261.629 912.256 266.906 921.802 266.906"/><rect width="35.642" height="94.916" x="895.036" y="290.442" fill="#fff"/><rect width="16.127" height="94.916" x="878.909" y="290.442" fill="#c3cbd8"/><circle cx="901.698" cy="313.55" r="1.521" fill="#18ffff"/><circle cx="916.984" cy="313.55" r="1.521" fill="#18ffff"/><circle cx="924.628" cy="313.55" r="1.521" fill="#18ffff"/><circle cx="909.341" cy="313.55" r="1.521" fill="#18ffff"/><polyline fill="none" stroke="#737e90" stroke-miterlimit="10" stroke-width="1.25" points="900.301 304.827 907.361 304.827 911.985 308.193 925.735 308.193"/><line x1="900.301" x2="925.735" y1="300.482" y2="300.482" fill="none" stroke="#737e90" stroke-miterlimit="10" stroke-width="1.25"/><line x1="900.301" x2="925.735" y1="296.137" y2="296.137" fill="none" stroke="#737e90" stroke-miterlimit="10" stroke-width="1.25"/><line x1="925.735" x2="900.443" y1="322.612" y2="322.612" fill="none" stroke="#737e90" stroke-miterlimit="10" stroke-width="1.25"/><line x1="903.521" x2="903.521" y1="330.106" y2="334.004" fill="none" stroke="#1de9b6" stroke-miterlimit="10" stroke-width="1.25"/><line x1="906.71" x2="906.71" y1="328.232" y2="335.503" fill="none" stroke="#1de9b6" stroke-miterlimit="10" stroke-width="1.25"/><line x1="909.899" x2="909.899" y1="327.258" y2="336.477" fill="none" stroke="#1de9b6" stroke-miterlimit="10" stroke-width="1.25"/><line x1="913.089" x2="913.089" y1="329.105" y2="334.004" fill="none" stroke="#1de9b6" stroke-miterlimit="10" stroke-width="1.25"/><line x1="916.278" x2="916.278" y1="327.258" y2="336.477" fill="none" stroke="#1de9b6" stroke-miterlimit="10" stroke-width="1.25"/><line x1="922.656" x2="922.656" y1="330.106" y2="334.004" fill="none" stroke="#1de9b6" stroke-miterlimit="10" stroke-width="1.25"/><line x1="919.467" x2="919.467" y1="328.232" y2="335.503" fill="none" stroke="#1de9b6" stroke-miterlimit="10" stroke-width="1.25"/><rect width="63.39" height="125.942" x="889.446" y="361.91" fill="#031e28"/><path fill="#031e28" d="M932.633,381.08892a34.956,34.956,0,0,0-34.956-34.95605l0,34.95619Z"/><path fill="#031e28" d="M946.16715,346.13344a34.95593,34.95593,0,0,0-34.95606,34.956h34.95618Z"/><rect width="17.36" height="212.804" x="191.024" y="294.004" fill="#fff" transform="translate(399.40894 800.81144) rotate(-180)"/><rect width="19.041" height="5.766" x="167.335" y="288.238" fill="#031e28" transform="translate(353.71064 582.24142) rotate(-180)"/><polyline fill="#031e28" points="186.376 288.238 176.855 281.755 167.335 288.238"/><rect width="19.041" height="5.766" x="186.376" y="288.238" fill="#fff" transform="translate(391.79346 582.24142) rotate(-180)"/><polyline fill="#fff" points="186.376 288.238 195.897 281.755 205.417 288.238"/><polygon fill="#c3cbd8" points="176.855 281.755 195.897 281.755 186.376 288.238 176.855 281.755"/><polygon fill="#2a3d58" points="191.026 343.4 160.52 343.4 160.52 392.869 191.026 343.4"/><polygon fill="#031e28" points="160.52 392.869 191.026 392.869 191.026 343.4 160.52 392.869"/><polygon fill="#2a3d58" points="191.026 442.339 160.52 442.339 160.52 491.808 191.026 442.339"/><polygon fill="#031e28" points="160.52 491.808 191.026 491.808 191.026 442.339 160.52 491.808"/><polygon fill="#1de9b6" points="160.52 293.931 191.026 293.931 191.026 343.4 160.52 293.931"/><polygon fill="#031e28" points="191.026 343.4 160.52 343.4 160.52 293.931 191.026 343.4"/><polygon fill="#1de9b6" points="160.52 392.869 191.026 392.869 191.026 442.339 160.52 392.869"/><polygon fill="#031e28" points="191.026 442.339 160.52 442.339 160.52 392.869 191.026 442.339"/><rect width="38.277" height="261.263" x="769.297" y="356.12" fill="#434d72"/><rect width="12.888" height="12.888" x="756.41" y="356.12" fill="#031e28"/><rect width="12.888" height="200.028" x="756.41" y="369.007" fill="#434d72"/><rect width="12.888" height="207.895" x="743.522" y="381.895" fill="#434d72"/><rect width="12.888" height="12.888" x="743.522" y="369.007" fill="#031e28"/><rect width="12.888" height="201.762" x="730.634" y="381.895" fill="#031e28"/><rect width="19.811" height="225.224" x="752.948" y="388.185" fill="#0f2631" rx="9.906" ry="9.906"/><path fill="#031e28" d="M762.85352,388.18545a9.80061,9.80061,0,0,0-3.22192.552,9.93606,9.93606,0,0,1,6.68359,9.35364V603.50417a9.93606,9.93606,0,0,1-6.68359,9.35364,9.80061,9.80061,0,0,0,3.22192.552,9.93469,9.93469,0,0,0,9.90558-9.90564V398.09109A9.93469,9.93469,0,0,0,762.85352,388.18545Z"/><rect width="8.824" height="7.765" x="793.041" y="383.556" fill="none" stroke="#737e90" stroke-miterlimit="10" stroke-width="1.25"/><rect width="8.824" height="7.765" x="778.238" y="383.556" fill="none" stroke="#737e90" stroke-miterlimit="10" stroke-width="1.25"/><polyline fill="none" stroke="#737e90" stroke-miterlimit="10" stroke-width="1.25" points="778.238 362.4 801.865 362.4 801.865 379.15"/><rect width="8.824" height="7.765" x="793.041" y="455.375" fill="none" stroke="#737e90" stroke-miterlimit="10" stroke-width="1.25"/><rect width="8.824" height="7.765" x="778.238" y="455.375" fill="none" stroke="#737e90" stroke-miterlimit="10" stroke-width="1.25"/><line x1="778.238" x2="801.865" y1="434.219" y2="434.219" fill="none" stroke="#737e90" stroke-miterlimit="10" stroke-width="1.25"/><line x1="799.564" x2="799.564" y1="441.712" y2="445.61" fill="none" stroke="#737e90" stroke-miterlimit="10" stroke-width="1.25"/><line x1="796.375" x2="796.375" y1="439.838" y2="447.109" fill="none" stroke="#737e90" stroke-miterlimit="10" stroke-width="1.25"/><line x1="793.186" x2="793.186" y1="438.864" y2="448.084" fill="none" stroke="#737e90" stroke-miterlimit="10" stroke-width="1.25"/><line x1="789.997" x2="789.997" y1="440.712" y2="445.61" fill="none" stroke="#737e90" stroke-miterlimit="10" stroke-width="1.25"/><line x1="786.807" x2="786.807" y1="438.864" y2="448.084" fill="none" stroke="#737e90" stroke-miterlimit="10" stroke-width="1.25"/><line x1="780.429" x2="780.429" y1="441.712" y2="445.61" fill="none" stroke="#737e90" stroke-miterlimit="10" stroke-width="1.25"/><line x1="783.618" x2="783.618" y1="439.838" y2="447.109" fill="none" stroke="#737e90" stroke-miterlimit="10" stroke-width="1.25"/><rect width="8.824" height="7.765" x="793.041" y="494.548" fill="none" stroke="#737e90" stroke-miterlimit="10" stroke-width="1.25"/><rect width="8.824" height="7.765" x="778.238" y="494.548" fill="none" stroke="#737e90" stroke-miterlimit="10" stroke-width="1.25"/><polyline fill="none" stroke="#737e90" stroke-miterlimit="10" stroke-width="1.25" points="778.238 473.392 801.865 473.392 801.865 490.143"/><circle cx="779.445" cy="533.751" r="1.207" fill="#1de9b6"/><circle cx="789.997" cy="533.751" r="1.207" fill="#1de9b6"/><circle cx="784.721" cy="533.751" r="1.207" fill="#1de9b6"/><polyline fill="none" stroke="#737e90" stroke-miterlimit="10" stroke-width="1.25" points="778.337 526.83 783.938 526.83 787.607 529.501 802.012 529.501"/><line x1="778.337" x2="801.865" y1="523.065" y2="523.065" fill="none" stroke="#737e90" stroke-miterlimit="10" stroke-width="1.25"/><circle cx="778.897" cy="513.373" r=".807" fill="#1de9b6"/><circle cx="781.546" cy="513.373" r=".807" fill="#1de9b6"/><circle cx="784.322" cy="513.373" r=".807" fill="#1de9b6"/><line x1="802.012" x2="789.073" y1="513.373" y2="513.373" fill="none" stroke="#737e90" stroke-miterlimit="10" stroke-width="1.25"/><circle cx="779.445" cy="422.759" r="1.207" fill="#1de9b6"/><circle cx="789.997" cy="422.759" r="1.207" fill="#1de9b6"/><circle cx="784.721" cy="422.759" r="1.207" fill="#1de9b6"/><polyline fill="none" stroke="#1de9b6" stroke-miterlimit="10" stroke-width="1.25" points="778.337 415.838 783.938 415.838 787.607 418.509 802.012 418.509"/><line x1="778.337" x2="801.865" y1="412.073" y2="412.073" fill="none" stroke="#1de9b6" stroke-miterlimit="10" stroke-width="1.25"/><circle cx="778.897" cy="402.38" r=".807" fill="#1de9b6"/><circle cx="781.546" cy="402.38" r=".807" fill="#1de9b6"/><circle cx="784.322" cy="402.38" r=".807" fill="#1de9b6"/><line x1="802.012" x2="789.073" y1="402.38" y2="402.38" fill="none" stroke="#1de9b6" stroke-miterlimit="10" stroke-width="1.25"/><path fill="#c3cbd8" d="M1244.40993,392.25213H1250.44a0,0,0,0,1,0,0v66.05814a0,0,0,0,1,0,0h-27.87563a0,0,0,0,1,0,0V414.09765A21.84552,21.84552,0,0,1,1244.40993,392.25213Z"/><rect width="21.754" height="66.058" x="1250.44" y="392.252" fill="#fff" transform="translate(2522.63406 850.56241) rotate(-180)"/><rect width="6.116" height="4.709" x="1258.259" y="401.199" fill="#1de9b6" transform="translate(2522.63406 807.10636) rotate(-180)"/><rect width="6.116" height="4.709" x="1258.259" y="412.185" fill="#1de9b6" transform="translate(2522.63406 829.07934) rotate(-180)"/><rect width="6.116" height="4.709" x="1258.259" y="423.172" fill="#1de9b6" transform="translate(2522.63406 851.05231) rotate(-180)"/><rect width="6.116" height="4.709" x="1258.259" y="434.158" fill="#1de9b6" transform="translate(2522.63406 873.02529) rotate(-180)"/><rect width="6.116" height="4.709" x="1258.259" y="445.145" fill="#1de9b6" transform="translate(2522.63406 894.99826) rotate(-180)"/><circle cx="1236.502" cy="418.2" r="7.221" fill="#031e28"/><path fill="#2e3554" d="M1232.79169,418.20035a7.21686,7.21686,0,0,1,5.46556-6.99672,7.22055,7.22055,0,1,0,0,13.99343A7.21686,7.21686,0,0,1,1232.79169,418.20035Z"/><circle cx="1236.502" cy="438.296" r="7.221" fill="#031e28"/><path fill="#2e3554" d="M1232.79169,438.29571a7.21686,7.21686,0,0,1,5.46556-6.99672,7.22055,7.22055,0,1,0,0,13.99343A7.21686,7.21686,0,0,1,1232.79169,438.29571Z"/><path fill="#2a3d58" d="M686.17887,499.97532a17.19327,17.19327,0,0,0-17.19327,17.19327h17.19327Z"/><path fill="#2a3d58" d="M686.17887,465.58871A17.19327,17.19327,0,0,0,668.9856,482.782h17.19327Z"/><path fill="#2a3d58" d="M703.37212,499.97525A17.19323,17.19323,0,0,0,686.17886,482.782v17.19334Z"/><path fill="#2a3d58" d="M703.37212,465.38913a17.19323,17.19323,0,0,0-17.19327-17.19327V465.3892Z"/><path fill="#2a3d58" d="M703.3722,482.58236a17.19341,17.19341,0,0,0,17.19363-17.19326l-17.19371,0Z"/><path fill="#2a3d58" d="M686.17887,430.138a17.19327,17.19327,0,0,0-17.19327,17.19327h17.19327Z"/><path fill="#2a3d58" d="M686.17887,395.75135a17.19327,17.19327,0,0,0-17.19327,17.19327h17.19327Z"/><path fill="#2a3d58" d="M703.37212,430.13789a17.19323,17.19323,0,0,0-17.19327-17.19327V430.138Z"/><path fill="#2a3d58" d="M703.37212,395.55177a17.19323,17.19323,0,0,0-17.19327-17.19327v17.19334Z"/><path fill="#2a3d58" d="M703.3722,412.745a17.19341,17.19341,0,0,0,17.19363-17.19326l-17.19371,0Z"/><rect width="2.868" height="46.041" x="679.596" y="260.641" fill="#173045"/><rect width="12.253" height="38.312" x="784.933" y="204.534" fill="#434d72" transform="translate(1582.11978 447.37919) rotate(-180)"/><polygon fill="#434d72" points="787.339 199.136 799.592 199.136 797.186 204.534 784.933 204.534 787.339 199.136"/><polygon fill="#173045" points="769.763 186.869 787.339 186.869 787.339 199.136 784.933 204.534 784.933 242.845 769.763 242.845 769.763 186.869"/><rect width="12.253" height="12.268" x="787.339" y="186.869" fill="#434d72" transform="translate(1586.93129 386.00515) rotate(-180)"/><line x1="800.595" x2="768.048" y1="204.534" y2="204.534" fill="none" stroke="#1de9b6" stroke-miterlimit="10" stroke-width="1.25"/><line x1="800.595" x2="768.048" y1="209.28" y2="209.28" fill="none" stroke="#1de9b6" stroke-miterlimit="10" stroke-width="1.25"/><line x1="800.595" x2="768.048" y1="214.025" y2="214.025" fill="none" stroke="#1de9b6" stroke-miterlimit="10" stroke-width="1.25"/><line x1="800.595" x2="768.048" y1="218.771" y2="218.771" fill="none" stroke="#1de9b6" stroke-miterlimit="10" stroke-width="1.25"/><line x1="774.872" x2="774.872" y1="186.869" y2="171.496" fill="none" stroke="#434d72" stroke-miterlimit="10" stroke-width="1.25"/><line x1="779.833" x2="779.833" y1="186.869" y2="179.182" fill="none" stroke="#434d72" stroke-miterlimit="10" stroke-width="1.25"/><rect width="30.181" height="44.701" x="723.944" y="296.649" fill="#173045"/><circle cx="728.667" cy="317.573" r="1.376" fill="#18ffff"/><circle cx="742.491" cy="317.573" r="1.376" fill="#18ffff"/><circle cx="749.403" cy="317.573" r="1.376" fill="#18ffff"/><circle cx="735.579" cy="317.573" r="1.376" fill="#18ffff"/><polyline fill="none" stroke="#737e90" stroke-miterlimit="10" stroke-width="1.25" points="727.404 309.685 733.788 309.685 737.969 312.729 750.404 312.729"/><line x1="727.404" x2="750.404" y1="305.755" y2="305.755" fill="none" stroke="#737e90" stroke-miterlimit="10" stroke-width="1.25"/><line x1="727.404" x2="750.404" y1="301.826" y2="301.826" fill="none" stroke="#737e90" stroke-miterlimit="10" stroke-width="1.25"/><circle cx="728.667" cy="341.349" r="1.376" fill="#18ffff"/><circle cx="742.491" cy="341.349" r="1.376" fill="#18ffff"/><circle cx="749.403" cy="341.349" r="1.376" fill="#18ffff"/><circle cx="735.579" cy="341.349" r="1.376" fill="#18ffff"/><polyline fill="none" stroke="#737e90" stroke-miterlimit="10" stroke-width="1.25" points="727.404 333.461 733.788 333.461 737.969 336.505 750.404 336.505"/><line x1="727.404" x2="750.404" y1="329.532" y2="329.532" fill="none" stroke="#737e90" stroke-miterlimit="10" stroke-width="1.25"/><line x1="727.404" x2="750.404" y1="325.602" y2="325.602" fill="none" stroke="#737e90" stroke-miterlimit="10" stroke-width="1.25"/><rect width="30.181" height="215.452" x="555.83" y="384.739" fill="#173045"/><circle cx="560.552" cy="405.664" r="1.376" fill="#18ffff"/><circle cx="574.376" cy="405.664" r="1.376" fill="#18ffff"/><circle cx="581.288" cy="405.664" r="1.376" fill="#18ffff"/><circle cx="567.464" cy="405.664" r="1.376" fill="#18ffff"/><polyline fill="none" stroke="#737e90" stroke-miterlimit="10" stroke-width="1.25" points="559.289 397.775 565.674 397.775 569.855 400.819 582.289 400.819"/><line x1="559.289" x2="582.289" y1="393.846" y2="393.846" fill="none" stroke="#737e90" stroke-miterlimit="10" stroke-width="1.25"/><line x1="559.289" x2="582.289" y1="389.917" y2="389.917" fill="none" stroke="#737e90" stroke-miterlimit="10" stroke-width="1.25"/><circle cx="560.552" cy="429.44" r="1.376" fill="#18ffff"/><circle cx="574.376" cy="429.44" r="1.376" fill="#18ffff"/><circle cx="581.288" cy="429.44" r="1.376" fill="#18ffff"/><circle cx="567.464" cy="429.44" r="1.376" fill="#18ffff"/><polyline fill="none" stroke="#737e90" stroke-miterlimit="10" stroke-width="1.25" points="559.289 421.552 565.674 421.552 569.855 424.596 582.289 424.596"/><line x1="559.289" x2="582.289" y1="417.622" y2="417.622" fill="none" stroke="#737e90" stroke-miterlimit="10" stroke-width="1.25"/><line x1="559.289" x2="582.289" y1="413.693" y2="413.693" fill="none" stroke="#737e90" stroke-miterlimit="10" stroke-width="1.25"/><rect width="47.597" height="181.812" x="433.371" y="398.061" fill="#434d72" transform="translate(914.33885 977.93346) rotate(-180)"/><rect width="12.888" height="12.888" x="480.968" y="398.061" fill="#031e28" transform="translate(974.82393 809.00908) rotate(-180)"/><rect width="12.888" height="168.924" x="480.968" y="410.948" fill="#434d72" transform="translate(974.82393 990.82129) rotate(-180)"/><rect width="12.888" height="156.037" x="493.856" y="423.836" fill="#434d72" transform="translate(1000.59959 1003.70911) rotate(-180)"/><rect width="12.888" height="12.888" x="493.856" y="410.948" fill="#031e28" transform="translate(1000.59959 834.78473) rotate(-180)"/><rect width="12.888" height="68.982" x="506.744" y="423.836" fill="#031e28" transform="translate(1026.37525 916.65441) rotate(-180)"/><rect width="41.171" height="174.815" x="432.8" y="405.058" fill="#031e28" transform="translate(906.77139 984.93054) rotate(-180)"/><rect width="41.171" height="161.927" x="445.688" y="417.946" fill="#031e28" transform="translate(932.54705 997.81837) rotate(-180)"/><rect width="41.171" height="149.039" x="458.576" y="430.833" fill="#031e28" transform="translate(958.32271 1010.7062) rotate(-180)"/><rect width="17.36" height="98.49" x="686.168" y="240.999" fill="#fff" transform="translate(1389.69745 580.48756) rotate(-180)"/><rect width="23.69" height="104.992" x="662.479" y="240.999" fill="#434d72" transform="translate(1348.64709 586.9897) rotate(-180)"/><rect width="19.041" height="5.766" x="662.479" y="235.233" fill="#031e28" transform="translate(1343.99915 476.23191) rotate(-180)"/><polyline fill="#031e28" points="681.52 235.233 672 228.75 662.479 235.233"/><rect width="19.041" height="5.766" x="681.52" y="235.233" fill="#fff" transform="translate(1382.08197 476.23191) rotate(-180)"/><polyline fill="#fff" points="681.52 235.233 691.041 228.75 700.562 235.233"/><polygon fill="#c3cbd8" points="672 228.75 691.041 228.75 681.52 235.233 672 228.75"/><line x1="678.882" x2="678.882" y1="228.75" y2="215.809" fill="none" stroke="#fff" stroke-miterlimit="10" stroke-width="1.25"/><line x1="684.159" x2="684.159" y1="228.75" y2="222.683" fill="none" stroke="#fff" stroke-miterlimit="10" stroke-width="1.25"/><polygon fill="#2a3d58" points="655.663 290.395 686.168 290.395 686.168 339.865 655.663 290.395"/><polygon fill="#031e28" points="686.168 339.865 655.662 339.865 655.663 290.395 686.168 339.865"/><polygon fill="#1de9b6" points="655.663 240.926 686.168 240.926 686.168 290.395 655.663 240.926"/><polygon fill="#031e28" points="686.168 290.395 655.662 290.395 655.663 240.926 686.168 290.395"/><polygon fill="#fff" points="529.832 350.09 554.65 350.09 542.918 257.507 529.832 350.09"/><path fill="#fff" d="M1124.14686,189.86784h-37.001c-1.80469,0-2.25586.47949-2.25586,2.39844V431.15983c0,1.91895.45117,2.39844,2.25586,2.39844h37.001c1.80469,0,2.25684-.47949,2.25684-2.39844V192.26627C1126.4037,190.34733,1125.95155,189.86784,1124.14686,189.86784Z"/><path fill="#fff" d="M8.30507-2.48446V631.042H1565.02333V-2.48446Zm253.459,193.31128c0,2.39844-1.80518,3.3584-3.60986,3.3584h-39.7085v93.0625h39.7085a3.67155,3.67155,0,0,1,3.60986,3.83789V331.861c0,2.87793-1.80518,3.83691-3.60986,3.83691h-39.7085v97.86035h39.7085a3.57,3.57,0,0,1,3.60986,3.35742v41.25488c0,2.87891-1.80518,3.83789-3.60986,3.83789H174.225a3.65387,3.65387,0,0,1-3.60986-3.83789V150.05241c0-2.39844,1.35352-3.83789,3.60986-3.83789h83.9292a3.67155,3.67155,0,0,1,3.60986,3.83789ZM416.44179,478.17057c0,2.87891-1.354,3.83789-3.60986,3.83789H325.29286a3.65387,3.65387,0,0,1-3.60986-3.83789V150.05241c0-2.39844,1.35352-3.83789,3.60986-3.83789H365.9037c2.25635,0,3.60986,1.43945,3.60986,3.83789V433.55827h43.31836a3.682,3.682,0,0,1,3.60986,3.83789Zm200.47852,3.83789h-42.416a3.67155,3.67155,0,0,1-3.60986-3.83789L560.516,398.06022H523.06386l-11.28076,80.11035c0,2.39844-1.354,3.83789-3.60986,3.83789h-42.416c-2.25635,0-3.60986-1.43945-3.60986-3.83789l53.69678-328.11816a3.65387,3.65387,0,0,1,3.60986-3.83789H565.931a3.65387,3.65387,0,0,1,3.60986,3.83789l50.98926,328.11816C620.53016,480.569,619.17665,482.00846,616.9203,482.00846ZM808.06093,232.56119c0,2.39844-1.35352,3.3584-3.60937,3.3584H763.84071c-1.80469,0-3.60937-.96-3.60937-3.3584V192.26627c0-1.91895-.45166-2.39844-2.25635-2.39844H720.974c-1.80518,0-2.25635.47949-2.25635,2.39844v92.583c0,1.91895.45117,2.39844,2.25635,2.39844H762.4872c35.647,0,45.57373,17.26953,45.57373,46.05176V434.99772c0,29.74121-9.92676,47.01074-45.12256,47.01074H717.36415c-36.09863,0-46.47705-17.26953-46.47705-46.05176V386.54752c0-2.39941,1.35352-3.3584,3.60986-3.3584H715.1078c1.80518,0,3.60986.959,3.60986,3.3584v44.6123c0,1.91895.45117,2.39844,2.25635,2.39844h37.001c1.80469,0,2.25635-.47949,2.25635-2.39844V338.09635c0-1.918-.45166-2.39844-2.25635-2.39844H716.46132c-32.48877,0-45.57422-6.71582-45.57422-46.05176V188.42838c0-29.74121,12.18311-47.01074,45.57422-47.01074H762.4872c33.39111,0,45.57373,17.26953,45.57373,46.53125Zm176.16113-41.73437c0,2.39844-1.80469,3.3584-3.60937,3.3584H945.86757V478.17057c0,2.87891-1.35352,3.83789-3.15918,3.83789H901.64686c-2.25684,0-3.61035-2.39844-3.61035-3.83789V194.18522H863.74257a3.29586,3.29586,0,0,1-3.60937-3.3584V150.05241c0-2.39844,1.35352-3.83789,3.60938-3.83789H980.61268a3.67117,3.67117,0,0,1,3.60938,3.83789Zm190.01172,244.1709c0,29.74121-9.92676,47.01074-45.123,47.01074h-45.57422c-36.09863,0-46.47754-17.26953-46.47754-46.05176V188.42838c0-29.74121,12.18359-47.01074,45.57422-47.01074h46.02637c33.3916,0,45.57422,17.26953,45.57422,46.53125Zm196.3291-202.43652c0,2.39844-1.35352,3.3584-3.61035,3.3584h-40.61035c-1.80469,0-3.61035-.96-3.61035-3.3584V192.26627c0-1.91895-.45117-2.39844-2.25586-2.39844h-37.001c-1.80469,0-2.25586.47949-2.25586,2.39844v92.583c0,1.91895.45117,2.39844,2.25586,2.39844h41.51367c35.64648,0,45.57422,17.26953,45.57422,46.05176V434.99772c0,29.74121-9.92773,47.01074-45.123,47.01074h-45.5752c-36.09863,0-46.47656-17.26953-46.47656-46.05176V386.54752c0-2.39941,1.35352-3.3584,3.60938-3.3584h40.61133c1.80469,0,3.61035.959,3.61035,3.3584v44.6123c0,1.91895.45117,2.39844,2.25586,2.39844h37.001c1.80469,0,2.25586-.47949,2.25586-2.39844V338.09635c0-1.918-.45117-2.39844-2.25586-2.39844h-41.51367c-32.48828,0-45.57422-6.71582-45.57422-46.05176V188.42838c0-29.74121,12.18359-47.01074,45.57422-47.01074h46.02637c33.39063,0,45.57422,17.26953,45.57422,46.53125Z"/><rect width="3.059" height="49.112" x="1258.981" y="209.828" fill="#031e28"/><path fill="#434d72" d="M1017.42843,484.98291h32.03543V343.93585h-24.07254s.75111,66.281,0,90.87182C1024.349,468.93289,1017.42843,484.98291,1017.42843,484.98291Z"/><path fill="#fff" d="M1035.269,486.0204h32.03543V343.93585h-24.07254s.75111,66.281,0,90.87182C1042.18954,468.93289,1035.269,486.0204,1035.269,486.0204Z"/><path fill="#fff" d="M1084.09915,484.98291h-32.71493V343.93585h24.752s-.75111,66.281,0,90.87182C1077.1786,468.93289,1084.09915,484.98291,1084.09915,484.98291Z"/><polygon fill="#1de9b6" points="1047.827 405.064 1071.506 405.064 1071.506 428.743 1047.827 405.064"/><polygon fill="#434d72" points="1071.506 428.743 1047.827 428.743 1047.827 405.064 1071.506 428.743"/><line x1="1050.387" x2="1016.505" y1="409.066" y2="409.066" fill="none" stroke="#fff" stroke-miterlimit="10" stroke-width="1.25"/><line x1="1050.387" x2="1016.505" y1="413.731" y2="413.731" fill="none" stroke="#fff" stroke-miterlimit="10" stroke-width="1.25"/><line x1="1050.387" x2="1016.505" y1="418.395" y2="418.395" fill="none" stroke="#fff" stroke-miterlimit="10" stroke-width="1.25"/><polygon fill="#1de9b6" points="1071.506 376.795 1047.827 376.795 1047.827 400.474 1071.506 376.795"/><polygon fill="#434d72" points="1047.827 400.474 1071.506 400.474 1071.506 376.795 1047.827 400.474"/><line x1="1050.387" x2="1016.505" y1="380.797" y2="380.797" fill="none" stroke="#fff" stroke-miterlimit="10" stroke-width="1.25"/><line x1="1050.387" x2="1016.505" y1="385.462" y2="385.462" fill="none" stroke="#fff" stroke-miterlimit="10" stroke-width="1.25"/><line x1="1050.387" x2="1016.505" y1="390.126" y2="390.126" fill="none" stroke="#fff" stroke-miterlimit="10" stroke-width="1.25"/><polygon fill="#1de9b6" points="1047.827 348.526 1071.506 348.526 1071.506 372.205 1047.827 348.526"/><polygon fill="#434d72" points="1071.506 372.205 1047.827 372.205 1047.827 348.526 1071.506 372.205"/><line x1="1050.387" x2="1016.505" y1="352.528" y2="352.528" fill="none" stroke="#fff" stroke-miterlimit="10" stroke-width="1.25"/><line x1="1050.387" x2="1016.505" y1="357.193" y2="357.193" fill="none" stroke="#fff" stroke-miterlimit="10" stroke-width="1.25"/><line x1="1050.387" x2="1016.505" y1="361.857" y2="361.857" fill="none" stroke="#fff" stroke-miterlimit="10" stroke-width="1.25"/><rect width="16.855" height="86.611" x="917.638" y="395.867" fill="#fff" transform="translate(1852.12995 878.34576) rotate(-180)"/><rect width="35.39" height="86.611" x="882.247" y="395.867" fill="#434d72" transform="translate(1799.88466 878.34576) rotate(-180)"/><polygon fill="#434d72" points="883.859 395.939 916.026 395.867 916.026 385.466 883.859 385.538 883.859 395.939"/><polygon fill="#fff" points="916.026 395.939 933.33 395.867 933.33 385.466 916.026 385.538 916.026 395.939"/><polyline fill="#1de9b6" points="901.162 385.538 901.162 374.23 918.895 374.23 933.33 385.538"/><polyline fill="#031e28" points="916.026 385.538 918.895 374.23 898.294 374.23 883.859 385.538"/><line x1="929.091" x2="929.091" y1="395.939" y2="482.479" fill="none" stroke="#1de9b6" stroke-miterlimit="10" stroke-width="1.25"/><line x1="923.717" x2="923.717" y1="395.939" y2="482.479" fill="none" stroke="#1de9b6" stroke-miterlimit="10" stroke-width="1.25"/><rect width="3.059" height="49.112" x="896.884" y="414.948" fill="#031e28"/><rect width="12.253" height="38.312" x="238.183" y="155.874" fill="#fff" transform="translate(488.61905 350.05897) rotate(-180)"/><polygon fill="#1de9b6" points="240.589 150.476 252.842 150.476 250.436 155.874 238.183 155.874 240.589 150.476"/><polygon fill="#434d72" points="223.012 138.209 240.589 138.209 240.589 150.476 238.183 155.874 238.183 194.185 223.012 194.185 223.012 138.209"/><rect width="12.253" height="12.268" x="240.589" y="138.209" fill="#fff" transform="translate(493.43055 288.68493) rotate(-180)"/><polygon fill="#1de9b6" points="252.856 138.209 240.589 138.209 240.589 150.476 252.856 138.209"/><line x1="253.845" x2="221.298" y1="155.874" y2="155.874" fill="none" stroke="#1de9b6" stroke-miterlimit="10" stroke-width="1.25"/><line x1="253.845" x2="221.298" y1="160.619" y2="160.619" fill="none" stroke="#1de9b6" stroke-miterlimit="10" stroke-width="1.25"/><line x1="253.845" x2="221.298" y1="165.365" y2="165.365" fill="none" stroke="#1de9b6" stroke-miterlimit="10" stroke-width="1.25"/><line x1="253.845" x2="221.298" y1="170.111" y2="170.111" fill="none" stroke="#1de9b6" stroke-miterlimit="10" stroke-width="1.25"/><line x1="228.122" x2="228.122" y1="138.209" y2="122.836" fill="none" stroke="#434d72" stroke-miterlimit="10" stroke-width="1.25"/><line x1="233.082" x2="233.082" y1="138.209" y2="130.522" fill="none" stroke="#434d72" stroke-miterlimit="10" stroke-width="1.25"/><rect width="15.801" height="96.524" x="345.768" y="393.04" fill="#fff" transform="translate(707.33608 882.60437) rotate(-180)"/><rect width="33.177" height="90.588" x="312.579" y="393.04" fill="#c3cbd8" transform="translate(658.33526 876.66822) rotate(-180)"/><polygon fill="#c3cbd8" points="314.101 393.107 344.257 393.04 344.257 383.29 314.101 383.357 314.101 393.107"/><polygon fill="#fff" points="344.257 393.107 360.479 393.04 360.479 383.29 344.257 383.357 344.257 393.107"/><polyline fill="#1de9b6" points="330.323 383.357 330.323 372.756 346.946 372.756 360.479 383.357"/><polyline fill="#031e28" points="344.257 383.357 346.946 372.756 327.634 372.756 314.101 383.357"/><rect width="7.279" height="5.604" x="350.029" y="399.679" fill="#1de9b6" transform="translate(707.33608 804.96179) rotate(-180)"/><rect width="7.279" height="5.604" x="350.029" y="412.755" fill="#1de9b6" transform="translate(707.33608 831.11348) rotate(-180)"/><rect width="7.279" height="5.604" x="350.029" y="425.831" fill="#1de9b6" transform="translate(707.33608 857.26518) rotate(-180)"/><rect width="7.279" height="5.604" x="350.029" y="438.906" fill="#1de9b6" transform="translate(707.33608 883.41687) rotate(-180)"/><rect width="7.279" height="5.604" x="350.029" y="465.058" fill="#1de9b6" transform="translate(707.33608 935.72026) rotate(-180)"/><rect width="7.279" height="5.604" x="350.029" y="451.982" fill="#1de9b6" transform="translate(707.33608 909.56857) rotate(-180)"/><rect width="7.279" height="5.604" x="332.004" y="399.679" fill="#0f2631" transform="translate(671.28721 804.96179) rotate(-180)"/><rect width="7.279" height="5.604" x="332.004" y="412.755" fill="#0f2631" transform="translate(671.28721 831.11348) rotate(-180)"/><rect width="7.279" height="5.604" x="332.004" y="425.831" fill="#0f2631" transform="translate(671.28721 857.26518) rotate(-180)"/><rect width="7.279" height="5.604" x="332.004" y="438.906" fill="#0f2631" transform="translate(671.28721 883.41687) rotate(-180)"/><rect width="7.279" height="5.604" x="332.004" y="465.058" fill="#0f2631" transform="translate(671.28721 935.72026) rotate(-180)"/><rect width="7.279" height="5.604" x="332.004" y="451.982" fill="#0f2631" transform="translate(671.28721 909.56857) rotate(-180)"/><rect width="7.279" height="5.604" x="318.851" y="399.679" fill="#0f2631" transform="translate(644.98175 804.96179) rotate(-180)"/><rect width="7.279" height="5.604" x="318.851" y="412.755" fill="#0f2631" transform="translate(644.98175 831.11348) rotate(-180)"/><rect width="7.279" height="5.604" x="318.851" y="425.831" fill="#0f2631" transform="translate(644.98175 857.26518) rotate(-180)"/><rect width="7.279" height="5.604" x="318.851" y="438.906" fill="#0f2631" transform="translate(644.98175 883.41687) rotate(-180)"/><rect width="7.279" height="5.604" x="318.851" y="465.058" fill="#0f2631" transform="translate(644.98175 935.72026) rotate(-180)"/><rect width="7.279" height="5.604" x="318.851" y="451.982" fill="#0f2631" transform="translate(644.98175 909.56857) rotate(-180)"/><rect width="2.868" height="46.041" x="198.518" y="418.02" fill="#031e28"/><polygon fill="#fff" points="785.129 306.797 785.129 269.508 796.838 306.797 785.129 306.797"/><polygon fill="#434d72" points="785.129 306.797 785.129 269.508 773.419 306.797 785.129 306.797"/><rect width="11.71" height="49.3" x="785.129" y="306.797" fill="#173045"/><rect width="11.71" height="49.323" x="773.419" y="306.797" fill="#031e28"/><polygon fill="#1de9b6" points="485.025 277.993 515.021 277.993 515.021 271.623 485.523 271.623 485.025 277.993"/><rect width="29.498" height="96.237" x="491.892" y="277.993" fill="#fff" transform="translate(1013.2824 652.22239) rotate(-180)"/><rect width="12.738" height="96.237" x="479.154" y="277.993" fill="#c3cbd8" transform="translate(971.04649 652.22239) rotate(-180)"/><polygon fill="#c3cbd8" points="491.892 277.992 485.523 271.623 479.154 277.993 491.892 277.992"/><polygon fill="#1de9b6" points="521.39 277.992 515.021 271.623 508.652 277.993 521.39 277.992"/><circle cx="506.641" cy="292.418" r="8.594" fill="#031e28"/><path fill="#2e3554" d="M511.0574,292.41812a8.58933,8.58933,0,0,0-6.505-8.32732,8.59372,8.59372,0,1,1,0,16.65464A8.58933,8.58933,0,0,0,511.0574,292.41812Z"/><circle cx="506.641" cy="316.335" r="8.594" fill="#031e28"/><path fill="#2e3554" d="M511.0574,316.33513a8.58933,8.58933,0,0,0-6.505-8.32732,8.59372,8.59372,0,1,1,0,16.65464A8.58933,8.58933,0,0,0,511.0574,316.33513Z"/><rect width="3.059" height="49.112" x="483.292" y="284.134" fill="#031e28"/><rect width="2.868" height="46.041" x="1059.266" y="270.891" fill="#173045"/></svg>