<svg xmlns="http://www.w3.org/2000/svg" xmlns:xlink="http://www.w3.org/1999/xlink" viewBox="0 0 1550 630"><defs><clipPath id="a"><path d="M474.15858,226.22952a44.99347,44.99347,0,1,1,89.98694,0Z" style="fill:none"/></clipPath><clipPath id="b"><path d="M561.3998,377.05524a57.05876,57.05876,0,0,1,114.11752,0Z" style="fill:none"/></clipPath></defs><title>hero-base</title><path d="M174.225,482.00851a3.65387,3.65387,0,0,1-3.60986-3.83789V150.05245c0-2.39844,1.35352-3.83789,3.60986-3.83789h83.9292a3.67155,3.67155,0,0,1,3.60986,3.83789v40.77441c0,2.39844-1.80518,3.3584-3.60986,3.3584h-39.7085v93.0625h39.7085a3.67155,3.67155,0,0,1,3.60986,3.83789V331.861c0,2.87793-1.80518,3.83691-3.60986,3.83691h-39.7085v97.86035h39.7085a3.57,3.57,0,0,1,3.60986,3.35742v41.25488c0,2.87891-1.80518,3.83789-3.60986,3.83789Z" style="fill:#0f2631"/><path d="M325.29286,482.00851a3.65387,3.65387,0,0,1-3.60986-3.83789V150.05245c0-2.39844,1.35352-3.83789,3.60986-3.83789H365.9037c2.25635,0,3.60986,1.43945,3.60986,3.83789V433.55831h43.31836a3.682,3.682,0,0,1,3.60986,3.83789v40.77441c0,2.87891-1.354,3.83789-3.60986,3.83789Z" style="fill:#0f2631"/><path d="M565.931,146.21456a3.65387,3.65387,0,0,1,3.60986,3.83789l50.98926,328.11816c0,2.39844-1.35352,3.83789-3.60986,3.83789h-42.416a3.67155,3.67155,0,0,1-3.60986-3.83789L560.516,398.06026H523.06386l-11.28076,80.11035c0,2.39844-1.354,3.83789-3.60986,3.83789h-42.416c-2.25635,0-3.60986-1.43945-3.60986-3.83789l53.69678-328.11816a3.65387,3.65387,0,0,1,3.60986-3.83789Zm-36.09863,203.875h24.81787l-11.73242-92.583Z" style="fill:#0f2631"/><path d="M670.8871,188.42843c0-29.74121,12.18311-47.01074,45.57422-47.01074H762.4872c33.39111,0,45.57373,17.26953,45.57373,46.53125v44.6123c0,2.39844-1.35352,3.3584-3.60937,3.3584H763.84071c-1.80469,0-3.60937-.96-3.60937-3.3584V192.26632c0-1.91895-.45166-2.39844-2.25635-2.39844H720.974c-1.80518,0-2.25635.47949-2.25635,2.39844v92.583c0,1.91895.45117,2.39844,2.25635,2.39844H762.4872c35.647,0,45.57373,17.26953,45.57373,46.05176V434.99776c0,29.74121-9.92676,47.01074-45.12256,47.01074H717.36415c-36.09863,0-46.47705-17.26953-46.47705-46.05176V386.54757c0-2.39941,1.35352-3.3584,3.60986-3.3584H715.1078c1.80518,0,3.60986.959,3.60986,3.3584v44.6123c0,1.91895.45117,2.39844,2.25635,2.39844h37.001c1.80469,0,2.25635-.47949,2.25635-2.39844V338.0964c0-1.918-.45166-2.39844-2.25635-2.39844H716.46132c-32.48877,0-45.57422-6.71582-45.57422-46.05176Z" style="fill:#0f2631"/><path d="M945.86757,194.18526V478.17062c0,2.87891-1.35352,3.83789-3.15918,3.83789H901.64686c-2.25684,0-3.61035-2.39844-3.61035-3.83789V194.18526H863.74257a3.29586,3.29586,0,0,1-3.60937-3.3584V150.05245c0-2.39844,1.35352-3.83789,3.60938-3.83789H980.61268a3.67117,3.67117,0,0,1,3.60938,3.83789v40.77441c0,2.39844-1.80469,3.3584-3.60937,3.3584Z" style="fill:#0f2631"/><path d="M1037.059,435.95675V188.42843c0-29.74121,12.18359-47.01074,45.57422-47.01074h46.02637c33.3916,0,45.57422,17.26953,45.57422,46.53125V434.99776c0,29.74121-9.92676,47.01074-45.123,47.01074h-45.57422C1047.43788,482.00851,1037.059,464.739,1037.059,435.95675Zm87.08789-246.08887h-37.001c-1.80469,0-2.25586.47949-2.25586,2.39844V431.15987c0,1.91895.45117,2.39844,2.25586,2.39844h37.001c1.80469,0,2.25684-.47949,2.25684-2.39844V192.26632C1126.4037,190.34737,1125.95155,189.86788,1124.14686,189.86788Z" style="fill:#0f2631"/><path d="M1233.38808,188.42843c0-29.74121,12.18359-47.01074,45.57422-47.01074h46.02637c33.39063,0,45.57422,17.26953,45.57422,46.53125v44.6123c0,2.39844-1.35352,3.3584-3.61035,3.3584h-40.61035c-1.80469,0-3.61035-.96-3.61035-3.3584V192.26632c0-1.91895-.45117-2.39844-2.25586-2.39844h-37.001c-1.80469,0-2.25586.47949-2.25586,2.39844v92.583c0,1.91895.45117,2.39844,2.25586,2.39844h41.51367c35.64648,0,45.57422,17.26953,45.57422,46.05176V434.99776c0,29.74121-9.92773,47.01074-45.123,47.01074h-45.5752c-36.09863,0-46.47656-17.26953-46.47656-46.05176V386.54757c0-2.39941,1.35352-3.3584,3.60938-3.3584h40.61133c1.80469,0,3.61035.959,3.61035,3.3584v44.6123c0,1.91895.45117,2.39844,2.25586,2.39844h37.001c1.80469,0,2.25586-.47949,2.25586-2.39844V338.0964c0-1.918-.45117-2.39844-2.25586-2.39844h-41.51367c-32.48828,0-45.57422-6.71582-45.57422-46.05176Z" style="fill:#0f2631"/><rect x="477.85785" y="226.22952" width="176.60124" height="148.00036" style="fill:#173045"/><rect x="567.49726" y="257.50655" width="47.59725" height="181.81221" style="fill:#434d72"/><rect x="554.60943" y="257.50655" width="12.88783" height="12.88783" style="fill:#031e28"/><rect x="554.60943" y="270.39438" width="12.88783" height="168.92438" style="fill:#434d72"/><rect x="513.18762" y="283.28221" width="41.42181" height="156.03655" style="fill:#434d72"/><rect x="541.7216" y="270.39438" width="12.88783" height="12.88783" style="fill:#031e28"/><rect x="528.51243" y="320.31726" width="30.66421" height="104.28605" style="fill:#031e28"/><rect x="574.49434" y="264.50363" width="41.17055" height="174.81513" style="fill:#031e28"/><rect x="561.60651" y="277.39146" width="41.17055" height="161.9273" style="fill:#031e28"/><rect x="517.06483" y="290.27929" width="50.35304" height="149.03947" style="fill:#031e28"/><path d="M474.15858,226.22952a44.99347,44.99347,0,1,1,89.98694,0Z" style="fill:#434d72"/><g style="clip-path:url(#a)"><circle cx="483.86492" cy="216.10535" r="1.08466" style="fill:#18ffff"/><circle cx="494.76578" cy="216.10535" r="1.08466" style="fill:#18ffff"/><circle cx="500.21621" cy="216.10535" r="1.08466" style="fill:#18ffff"/><circle cx="489.31535" cy="216.10535" r="1.08466" style="fill:#18ffff"/><polyline points="476.965 206.015 487.903 206.015 491.2 208.416 517.357 208.416" style="fill:none;stroke:#737e90;stroke-miterlimit:10;stroke-width:1.25px"/><polyline points="564.146 210.816 546.811 210.816 543.514 208.416 517.357 208.416" style="fill:none;stroke:#737e90;stroke-miterlimit:10;stroke-width:1.25px"/><line x1="476.96465" y1="202.90599" x2="560.92394" y2="202.90599" style="fill:none;stroke:#737e90;stroke-miterlimit:10;stroke-width:1.25px"/><line x1="509.72012" y1="214.7163" x2="509.72012" y2="217.78993" style="fill:none;stroke:#1de9b6;stroke-miterlimit:10;stroke-width:1.25px"/><line x1="512.23502" y1="213.23859" x2="512.23502" y2="218.9721" style="fill:none;stroke:#1de9b6;stroke-miterlimit:10;stroke-width:1.25px"/><line x1="514.74991" y1="212.47019" x2="514.74991" y2="219.74051" style="fill:none;stroke:#1de9b6;stroke-miterlimit:10;stroke-width:1.25px"/><line x1="517.26481" y1="213.92713" x2="517.26481" y2="217.78993" style="fill:none;stroke:#1de9b6;stroke-miterlimit:10;stroke-width:1.25px"/><line x1="519.7797" y1="212.47019" x2="519.7797" y2="219.74051" style="fill:none;stroke:#1de9b6;stroke-miterlimit:10;stroke-width:1.25px"/><line x1="524.80949" y1="214.7163" x2="524.80949" y2="217.78993" style="fill:none;stroke:#1de9b6;stroke-miterlimit:10;stroke-width:1.25px"/><line x1="522.2946" y1="213.23859" x2="522.2946" y2="218.9721" style="fill:none;stroke:#1de9b6;stroke-miterlimit:10;stroke-width:1.25px"/><line x1="527.32439" y1="213.23859" x2="527.32439" y2="218.9721" style="fill:none;stroke:#1de9b6;stroke-miterlimit:10;stroke-width:1.25px"/><line x1="529.83928" y1="212.47019" x2="529.83928" y2="219.74051" style="fill:none;stroke:#1de9b6;stroke-miterlimit:10;stroke-width:1.25px"/><line x1="532.35418" y1="213.92713" x2="532.35418" y2="217.78993" style="fill:none;stroke:#1de9b6;stroke-miterlimit:10;stroke-width:1.25px"/><line x1="534.86907" y1="212.47019" x2="534.86907" y2="219.74051" style="fill:none;stroke:#1de9b6;stroke-miterlimit:10;stroke-width:1.25px"/><line x1="539.89886" y1="214.7163" x2="539.89886" y2="217.78993" style="fill:none;stroke:#1de9b6;stroke-miterlimit:10;stroke-width:1.25px"/><line x1="537.38396" y1="213.23859" x2="537.38396" y2="218.9721" style="fill:none;stroke:#1de9b6;stroke-miterlimit:10;stroke-width:1.25px"/></g><path d="M561.3998,377.05524a57.05876,57.05876,0,0,1,114.11752,0Z" style="fill:#434d72"/><g style="clip-path:url(#b)"><circle cx="573.70896" cy="364.2162" r="1.37552" style="fill:#1de9b6"/><circle cx="587.53295" cy="364.2162" r="1.37552" style="fill:#1de9b6"/><circle cx="594.44495" cy="364.2162" r="1.37552" style="fill:#1de9b6"/><circle cx="580.62095" cy="364.2162" r="1.37552" style="fill:#1de9b6"/><polyline points="564.958 351.421 578.83 351.421 583.011 354.465 616.182 354.465" style="fill:none;stroke:#1de9b6;stroke-miterlimit:10;stroke-width:1.25px"/><polyline points="675.517 357.508 653.535 357.508 649.354 354.465 616.182 354.465" style="fill:none;stroke:#737e90;stroke-miterlimit:10;stroke-width:1.25px"/><line x1="564.95833" y1="347.47736" x2="671.43185" y2="347.47736" style="fill:none;stroke:#1de9b6;stroke-miterlimit:10;stroke-width:1.25px"/><line x1="606.49739" y1="362.45468" x2="606.49739" y2="366.35252" style="fill:none;stroke:#737e90;stroke-miterlimit:10;stroke-width:1.25px"/><line x1="609.68667" y1="360.58071" x2="609.68667" y2="367.85169" style="fill:none;stroke:#737e90;stroke-miterlimit:10;stroke-width:1.25px"/><line x1="612.87595" y1="359.60625" x2="612.87595" y2="368.82616" style="fill:none;stroke:#737e90;stroke-miterlimit:10;stroke-width:1.25px"/><line x1="616.06523" y1="361.45388" x2="616.06523" y2="366.35252" style="fill:none;stroke:#737e90;stroke-miterlimit:10;stroke-width:1.25px"/><line x1="619.25451" y1="359.60625" x2="619.25451" y2="368.82616" style="fill:none;stroke:#737e90;stroke-miterlimit:10;stroke-width:1.25px"/><line x1="625.63307" y1="362.45468" x2="625.63307" y2="366.35252" style="fill:none;stroke:#737e90;stroke-miterlimit:10;stroke-width:1.25px"/><line x1="622.44379" y1="360.58071" x2="622.44379" y2="367.85169" style="fill:none;stroke:#737e90;stroke-miterlimit:10;stroke-width:1.25px"/><line x1="628.82235" y1="360.58071" x2="628.82235" y2="367.85169" style="fill:none;stroke:#737e90;stroke-miterlimit:10;stroke-width:1.25px"/><line x1="632.01163" y1="359.60625" x2="632.01163" y2="368.82616" style="fill:none;stroke:#737e90;stroke-miterlimit:10;stroke-width:1.25px"/><line x1="635.20091" y1="361.45388" x2="635.20091" y2="366.35252" style="fill:none;stroke:#737e90;stroke-miterlimit:10;stroke-width:1.25px"/><line x1="638.39019" y1="359.60625" x2="638.39019" y2="368.82616" style="fill:none;stroke:#737e90;stroke-miterlimit:10;stroke-width:1.25px"/><line x1="644.76875" y1="362.45468" x2="644.76875" y2="366.35252" style="fill:none;stroke:#737e90;stroke-miterlimit:10;stroke-width:1.25px"/><line x1="641.57947" y1="360.58071" x2="641.57947" y2="367.85169" style="fill:none;stroke:#737e90;stroke-miterlimit:10;stroke-width:1.25px"/></g><rect x="1297.49634" y="444.315" width="22.6783" height="85.5478" style="fill:#2a3d58"/><rect x="1234.36293" y="458.31026" width="66.56286" height="147.10739" style="fill:#2a3d58"/><rect x="1336.6351" y="288.65938" width="51.69524" height="261.26261" style="fill:#434d72"/><rect x="1323.74727" y="288.65938" width="12.88783" height="12.88783" style="fill:#031e28"/><rect x="1323.74727" y="301.54721" width="12.88783" height="200.02777" style="fill:#434d72"/><rect x="1310.85944" y="314.43504" width="12.88783" height="170.81786" style="fill:#434d72"/><rect x="1310.85944" y="301.54721" width="12.88783" height="12.88783" style="fill:#031e28"/><rect x="1297.97161" y="314.43504" width="12.88783" height="68.98185" style="fill:#031e28"/><rect x="1320.28559" y="320.72524" width="19.81118" height="225.22436" rx="9.90558" ry="9.90558" style="fill:#0f2631"/><path d="M1330.1912,320.72521a9.80062,9.80062,0,0,0-3.22192.552,9.93607,9.93607,0,0,1,6.68359,9.35364V536.04393a9.93607,9.93607,0,0,1-6.68359,9.35364,9.80062,9.80062,0,0,0,3.22192.552,9.93469,9.93469,0,0,0,9.90558-9.90564V330.63085A9.93469,9.93469,0,0,0,1330.1912,320.72521Z" style="fill:#031e28"/><rect x="1318.89193" y="388.45416" width="12.88783" height="151.30804" transform="translate(2650.67169 928.21637) rotate(-180)" style="fill:#434d72"/><rect x="1327.57357" y="388.45416" width="21.3002" height="12.88783" transform="translate(2676.44735 789.79616) rotate(-180)" style="fill:#031e28"/><rect x="1331.77976" y="401.34199" width="12.88783" height="90.0732" transform="translate(2676.44735 892.75719) rotate(-180)" style="fill:#434d72"/><rect x="1344.66759" y="414.22982" width="12.88783" height="170.81786" transform="translate(2702.223 999.2775) rotate(-180)" style="fill:#434d72"/><rect x="1340.4614" y="401.34199" width="21.3002" height="12.88783" transform="translate(2702.223 815.57181) rotate(-180)" style="fill:#031e28"/><rect x="1357.55542" y="414.22982" width="34.35421" height="68.98185" transform="translate(2749.46504 897.44149) rotate(-180)" style="fill:#031e28"/><rect x="1328.31808" y="420.52002" width="19.81118" height="115.2698" rx="9.90558" ry="9.90558" transform="translate(2676.44735 956.30984) rotate(180)" style="fill:#0f2631"/><path d="M1338.22366,420.52a9.80061,9.80061,0,0,1,3.22192.552,9.93607,9.93607,0,0,0-6.68359,9.35364v95.45852a9.93607,9.93607,0,0,0,6.68359,9.35364,9.80061,9.80061,0,0,1-3.22192.552,9.93468,9.93468,0,0,1-9.90558-9.90564V430.42563A9.93468,9.93468,0,0,1,1338.22366,420.52Z" style="fill:#031e28"/><rect x="1046.04208" y="175.28156" width="30.18117" height="215.45197" style="fill:#2a3d58"/><circle cx="1050.76467" cy="196.20597" r="1.37552" style="fill:#18ffff"/><circle cx="1064.58867" cy="196.20597" r="1.37552" style="fill:#18ffff"/><circle cx="1071.50066" cy="196.20597" r="1.37552" style="fill:#18ffff"/><circle cx="1057.67667" cy="196.20597" r="1.37552" style="fill:#18ffff"/><polyline points="1049.502 188.318 1055.886 188.318 1060.067 191.362 1072.502 191.362" style="fill:none;stroke:#737e90;stroke-miterlimit:10;stroke-width:1.25px"/><line x1="1049.50181" y1="184.38827" x2="1072.50172" y2="184.38827" style="fill:none;stroke:#737e90;stroke-miterlimit:10;stroke-width:1.25px"/><line x1="1049.50181" y1="180.45886" x2="1072.50172" y2="180.45886" style="fill:none;stroke:#737e90;stroke-miterlimit:10;stroke-width:1.25px"/><circle cx="1050.76467" cy="219.9822" r="1.37552" style="fill:#18ffff"/><circle cx="1064.58867" cy="219.9822" r="1.37552" style="fill:#18ffff"/><circle cx="1071.50066" cy="219.9822" r="1.37552" style="fill:#18ffff"/><circle cx="1057.67667" cy="219.9822" r="1.37552" style="fill:#18ffff"/><polyline points="1049.502 212.094 1055.886 212.094 1060.067 215.138 1072.502 215.138" style="fill:none;stroke:#737e90;stroke-miterlimit:10;stroke-width:1.25px"/><line x1="1049.50181" y1="208.16449" x2="1072.50172" y2="208.16449" style="fill:none;stroke:#737e90;stroke-miterlimit:10;stroke-width:1.25px"/><line x1="1049.50181" y1="204.23508" x2="1072.50172" y2="204.23508" style="fill:none;stroke:#737e90;stroke-miterlimit:10;stroke-width:1.25px"/><polygon points="643.619 488.776 451.196 488.776 469.962 374.23 643.619 374.23 643.619 488.776" style="fill:#434d72"/><polygon points="1150.714 218.078 1150.714 163.08 1167.984 218.078 1150.714 218.078" style="fill:#fff"/><polygon points="1150.714 218.078 1150.714 163.08 1133.443 218.078 1150.714 218.078" style="fill:#434d72"/><rect x="1150.71368" y="218.0781" width="17.27072" height="186.29663" style="fill:#2a3d58"/><rect x="1133.44296" y="218.0781" width="17.27072" height="264.05503" style="fill:#173045"/><rect x="1097.31438" y="442.20901" width="22.6783" height="85.5478" style="fill:#2a3d58"/><rect x="1072.73995" y="452.88557" width="31.64896" height="85.5478" style="fill:#2a3d58"/><rect x="1074.53713" y="461.34094" width="79.82653" height="144.07669" style="fill:#2a3d58"/><rect x="598.64369" y="416.48324" width="22.6783" height="85.5478" style="fill:#2a3d58"/><rect x="563.24208" y="438.99351" width="41.71044" height="85.5478" style="fill:#2a3d58"/><rect x="455.12136" y="452.88557" width="61.26182" height="85.5478" style="fill:#2a3d58"/><rect x="565.03926" y="461.34094" width="79.82653" height="144.07669" style="fill:#2a3d58"/><rect x="370.05345" y="458.02373" width="22.6783" height="85.5478" style="fill:#434d72"/><rect x="1281.21553" y="177.09359" width="16.85485" height="162.88027" transform="translate(2579.28592 517.06745) rotate(-180)" style="fill:#434d72"/><rect x="1245.82509" y="177.09359" width="35.39045" height="159.87297" transform="translate(2527.04062 514.06014) rotate(-180)" style="fill:#2a3d58"/><polygon points="1247.436 177.165 1279.604 177.094 1279.604 166.693 1247.436 166.764 1247.436 177.165" style="fill:#2a3d58"/><polygon points="1279.604 177.165 1296.908 177.094 1296.908 166.693 1279.604 166.764 1279.604 177.165" style="fill:#434d72"/><polyline points="1264.74 166.764 1264.74 155.456 1282.473 155.456 1296.908 166.764" style="fill:#1de9b6"/><polyline points="1279.604 166.764 1282.473 155.456 1261.872 155.456 1247.436 166.764" style="fill:#031e28"/><line x1="1292.66922" y1="177.16532" x2="1292.66922" y2="334.98305" style="fill:none;stroke:#1de9b6;stroke-miterlimit:10;stroke-width:1.25px"/><line x1="1287.29496" y1="177.16532" x2="1287.29496" y2="339.97386" style="fill:none;stroke:#1de9b6;stroke-miterlimit:10;stroke-width:1.25px"/><circle cx="1272.12526" cy="285.15056" r="1.20692" style="fill:#1de9b6"/><circle cx="1261.57329" cy="285.15056" r="1.20692" style="fill:#1de9b6"/><circle cx="1266.84927" cy="285.15056" r="1.20692" style="fill:#1de9b6"/><polyline points="1273.233 278.229 1267.632 278.229 1263.963 280.9 1249.557 280.9" style="fill:none;stroke:#737e90;stroke-miterlimit:10;stroke-width:1.25px"/><line x1="1273.23333" y1="274.46421" x2="1249.70524" y2="274.46421" style="fill:none;stroke:#737e90;stroke-miterlimit:10;stroke-width:1.25px"/><circle cx="1272.67297" cy="264.7718" r="0.80701" style="fill:#1de9b6"/><circle cx="1270.02438" cy="264.7718" r="0.80701" style="fill:#1de9b6"/><circle cx="1267.24832" cy="264.7718" r="0.80701" style="fill:#1de9b6"/><line x1="1249.55744" y1="264.7718" x2="1262.49671" y2="264.7718" style="fill:none;stroke:#737e90;stroke-miterlimit:10;stroke-width:1.25px"/><circle cx="1272.12526" cy="202.91729" r="1.20692" style="fill:#1de9b6"/><circle cx="1261.57329" cy="202.91729" r="1.20692" style="fill:#1de9b6"/><circle cx="1266.84927" cy="202.91729" r="1.20692" style="fill:#1de9b6"/><polyline points="1273.233 195.996 1267.632 195.996 1263.963 198.667 1249.557 198.667" style="fill:none;stroke:#737e90;stroke-miterlimit:10;stroke-width:1.25px"/><line x1="1273.23333" y1="192.23093" x2="1249.70524" y2="192.23093" style="fill:none;stroke:#737e90;stroke-miterlimit:10;stroke-width:1.25px"/><circle cx="1272.67297" cy="182.53852" r="0.80701" style="fill:#1de9b6"/><circle cx="1270.02438" cy="182.53852" r="0.80701" style="fill:#1de9b6"/><circle cx="1267.24832" cy="182.53852" r="0.80701" style="fill:#1de9b6"/><line x1="1249.55744" y1="182.53852" x2="1262.49671" y2="182.53852" style="fill:none;stroke:#737e90;stroke-miterlimit:10;stroke-width:1.25px"/><rect x="717.97804" y="286.85035" width="29.54692" height="106.34733" style="fill:#2a3d58"/><rect x="697.54624" y="136.89594" width="23.5503" height="219.85056" style="fill:#2a3d58"/><rect x="666.37709" y="136.89594" width="31.16915" height="222.412" style="fill:#173045"/><circle cx="703.57066" cy="173.28937" r="1.37552" style="fill:#18ffff"/><circle cx="717.39466" cy="173.28937" r="1.37552" style="fill:#18ffff"/><circle cx="724.30665" cy="173.28937" r="1.37552" style="fill:#18ffff"/><circle cx="710.48266" cy="173.28937" r="1.37552" style="fill:#18ffff"/><polyline points="702.308 165.401 708.692 165.401 712.873 168.445 725.308 168.445" style="fill:none;stroke:#737e90;stroke-miterlimit:10;stroke-width:1.25px"/><line x1="702.3078" y1="161.47166" x2="725.3077" y2="161.47166" style="fill:none;stroke:#737e90;stroke-miterlimit:10;stroke-width:1.25px"/><line x1="702.3078" y1="157.54225" x2="725.3077" y2="157.54225" style="fill:none;stroke:#737e90;stroke-miterlimit:10;stroke-width:1.25px"/><path d="M186.91076,269.41231a17.19327,17.19327,0,0,0-17.19327,17.19327h17.19327Z" style="fill:#2a3d58"/><path d="M186.91076,235.02571A17.19327,17.19327,0,0,0,169.71749,252.219h17.19327Z" style="fill:#2a3d58"/><path d="M204.104,269.41225A17.19323,17.19323,0,0,0,186.91074,252.219v17.19334Z" style="fill:#2a3d58"/><path d="M204.104,234.82612a17.19323,17.19323,0,0,0-17.19327-17.19327v17.19334Z" style="fill:#2a3d58"/><path d="M204.10409,252.01936a17.19341,17.19341,0,0,0,17.19363-17.19326l-17.19371,0Z" style="fill:#2a3d58"/><path d="M186.91076,199.575a17.19327,17.19327,0,0,0-17.19327,17.19327h17.19327Z" style="fill:#2a3d58"/><path d="M186.91076,165.18834a17.19327,17.19327,0,0,0-17.19327,17.19327h17.19327Z" style="fill:#2a3d58"/><path d="M204.104,199.57488a17.19323,17.19323,0,0,0-17.19327-17.19327V199.575Z" style="fill:#2a3d58"/><path d="M204.104,164.98876a17.19323,17.19323,0,0,0-17.19327-17.19327v17.19334Z" style="fill:#2a3d58"/><path d="M204.10409,182.182a17.19341,17.19341,0,0,0,17.19363-17.19326l-17.19371,0Z" style="fill:#2a3d58"/><rect x="951.57472" y="171.0373" width="20.88129" height="54.58116" transform="translate(1924.03072 396.65576) rotate(-180)" style="fill:#fff"/><rect x="917.48987" y="171.0373" width="34.08484" height="205.58534" transform="translate(1869.06459 547.65994) rotate(-180)" style="fill:#434d72"/><rect x="923.08075" y="164.10197" width="22.9031" height="6.93533" transform="translate(1869.06459 335.13927) rotate(-180)" style="fill:#434d72"/><polyline points="945.984 164.102 934.532 156.305 923.081 164.102" style="fill:#434d72"/><rect x="945.98384" y="164.10197" width="22.9031" height="6.93533" transform="translate(1914.87078 335.13927) rotate(-180)" style="fill:#fff"/><polyline points="945.984 164.102 957.435 156.305 968.887 164.102" style="fill:#fff"/><polygon points="934.532 156.305 957.435 156.305 945.984 164.102 934.532 156.305" style="fill:#031e28"/><line x1="974.14774" y1="171.0373" x2="915.72315" y2="171.0373" style="fill:none;stroke:#1de9b6;stroke-miterlimit:10;stroke-width:1.25px"/><line x1="974.14774" y1="175.5371" x2="915.72315" y2="175.5371" style="fill:none;stroke:#1de9b6;stroke-miterlimit:10;stroke-width:1.25px"/><line x1="974.14774" y1="180.0369" x2="915.72315" y2="180.0369" style="fill:none;stroke:#1de9b6;stroke-miterlimit:10;stroke-width:1.25px"/><line x1="974.14774" y1="184.53669" x2="915.72315" y2="184.53669" style="fill:none;stroke:#1de9b6;stroke-miterlimit:10;stroke-width:1.25px"/><rect x="1186.29455" y="305.77981" width="20.31301" height="116.45815" transform="translate(2392.90211 728.01778) rotate(-180)" style="fill:#fff"/><rect x="1143.64294" y="305.77981" width="42.65161" height="185.59883" transform="translate(2329.9375 797.15846) rotate(-180)" style="fill:#434d72"/><polygon points="1145.585 305.866 1184.353 305.78 1184.353 293.245 1145.585 293.331 1145.585 305.866" style="fill:#434d72"/><polygon points="1184.353 305.866 1205.207 305.78 1205.207 293.245 1184.353 293.331 1184.353 305.866" style="fill:#fff"/><polyline points="1166.439 293.331 1166.439 279.703 1187.81 279.703 1205.207 293.331" style="fill:#1de9b6"/><polyline points="1184.353 293.331 1187.81 279.703 1162.982 279.703 1145.585 293.331" style="fill:#1de9b6"/><line x1="1200.09822" y1="305.86626" x2="1200.09822" y2="422.23796" style="fill:none;stroke:#ffd371;stroke-miterlimit:10;stroke-width:1.25px"/><line x1="1193.62131" y1="305.86626" x2="1193.62131" y2="422.23796" style="fill:none;stroke:#ffd371;stroke-miterlimit:10;stroke-width:1.25px"/><rect x="1153.15528" y="332.04296" width="8.82389" height="7.76502" transform="translate(2315.13444 671.85094) rotate(-180)" style="fill:none;stroke:#737e90;stroke-miterlimit:10;stroke-width:1.25px"/><rect x="1167.95833" y="332.04296" width="8.82389" height="7.76502" transform="translate(2344.74055 671.85094) rotate(-180)" style="fill:none;stroke:#737e90;stroke-miterlimit:10;stroke-width:1.25px"/><polyline points="1176.782 310.887 1153.155 310.887 1153.155 327.637" style="fill:none;stroke:#737e90;stroke-miterlimit:10;stroke-width:1.25px"/><line x1="1147.35806" y1="310.88705" x2="1141.71633" y2="310.88705" style="fill:none;stroke:#737e90;stroke-miterlimit:10;stroke-width:1.25px"/><line x1="1147.35806" y1="314.33966" x2="1141.71633" y2="314.33966" style="fill:none;stroke:#737e90;stroke-miterlimit:10;stroke-width:1.25px"/><line x1="1147.35806" y1="332.04296" x2="1141.71633" y2="332.04296" style="fill:none;stroke:#737e90;stroke-miterlimit:10;stroke-width:1.25px"/><line x1="1147.35806" y1="335.49558" x2="1141.71633" y2="335.49558" style="fill:none;stroke:#737e90;stroke-miterlimit:10;stroke-width:1.25px"/><line x1="1147.35806" y1="378.66807" x2="1141.71633" y2="378.66807" style="fill:none;stroke:#737e90;stroke-miterlimit:10;stroke-width:1.25px"/><rect x="1153.15528" y="399.82398" width="8.82389" height="7.76502" transform="translate(2315.13444 807.41298) rotate(-180)" style="fill:none;stroke:#737e90;stroke-miterlimit:10;stroke-width:1.25px"/><rect x="1167.95833" y="399.82398" width="8.82389" height="7.76502" transform="translate(2344.74055 807.41298) rotate(-180)" style="fill:none;stroke:#737e90;stroke-miterlimit:10;stroke-width:1.25px"/><polyline points="1176.782 378.668 1153.155 378.668 1153.155 395.418" style="fill:none;stroke:#737e90;stroke-miterlimit:10;stroke-width:1.25px"/><line x1="1147.35806" y1="382.12068" x2="1141.71633" y2="382.12068" style="fill:none;stroke:#737e90;stroke-miterlimit:10;stroke-width:1.25px"/><line x1="1147.35806" y1="399.82398" x2="1141.71633" y2="399.82398" style="fill:none;stroke:#737e90;stroke-miterlimit:10;stroke-width:1.25px"/><line x1="1147.35806" y1="403.27659" x2="1141.71633" y2="403.27659" style="fill:none;stroke:#737e90;stroke-miterlimit:10;stroke-width:1.25px"/><polyline points="1176.683 362.306 1171.082 362.306 1167.413 364.977 1153.007 364.977" style="fill:none;stroke:#1de9b6;stroke-miterlimit:10;stroke-width:1.25px"/><line x1="1176.68337" y1="358.5411" x2="1153.15528" y2="358.5411" style="fill:none;stroke:#1de9b6;stroke-miterlimit:10;stroke-width:1.25px"/><circle cx="1176.12301" cy="348.84869" r="0.80701" style="fill:#1de9b6"/><circle cx="1173.47442" cy="348.84869" r="0.80701" style="fill:#1de9b6"/><circle cx="1170.69835" cy="348.84869" r="0.80701" style="fill:#1de9b6"/><line x1="1153.00748" y1="348.84869" x2="1165.94675" y2="348.84869" style="fill:none;stroke:#1de9b6;stroke-miterlimit:10;stroke-width:1.25px"/><rect x="1051.97103" y="259.91228" width="17.45737" height="114.03846" transform="translate(2121.39944 633.86303) rotate(-180)" style="fill:#fff"/><rect x="1015.30258" y="259.91228" width="36.65558" height="114.03846" transform="translate(2067.26075 633.86303) rotate(-180)" style="fill:#c3cbd8"/><polygon points="1016.984 259.987 1050.302 259.912 1050.302 249.14 1016.984 249.214 1016.984 259.987" style="fill:#c3cbd8"/><polygon points="1050.302 259.987 1068.225 259.912 1068.225 249.14 1050.302 249.214 1050.302 259.987" style="fill:#fff"/><polyline points="1034.907 249.214 1034.907 237.501 1053.273 237.501 1068.225 249.214" style="fill:#1de9b6"/><polyline points="1050.302 249.214 1053.273 237.501 1031.936 237.501 1016.984 249.214" style="fill:#031e28"/><rect x="1056.67859" y="339.01802" width="8.04226" height="6.19163" transform="translate(2121.39944 684.22766) rotate(-180)" style="fill:#1de9b6"/><rect x="1056.67859" y="353.00141" width="8.04226" height="6.19163" transform="translate(2121.39944 712.19445) rotate(-180)" style="fill:#1de9b6"/><rect x="1056.67859" y="325.03463" width="8.04226" height="6.19163" transform="translate(2121.39944 656.26088) rotate(-180)" style="fill:#1de9b6"/><rect x="1022.23241" y="267.24708" width="8.04226" height="6.19163" transform="translate(2052.50708 540.68579) rotate(-180)" style="fill:#0f2631"/><rect x="1022.23241" y="281.69397" width="8.04226" height="6.19163" transform="translate(2052.50708 569.57957) rotate(-180)" style="fill:#0f2631"/><rect x="1022.23241" y="296.14085" width="8.04226" height="6.19163" transform="translate(2052.50708 598.47334) rotate(-180)" style="fill:#0f2631"/><rect x="1022.23241" y="310.58774" width="8.04226" height="6.19163" transform="translate(2052.50708 627.36711) rotate(-180)" style="fill:#0f2631"/><rect x="1022.23241" y="339.48151" width="8.04226" height="6.19163" transform="translate(2052.50708 685.15465) rotate(-180)" style="fill:#0f2631"/><rect x="1022.23241" y="325.03463" width="8.04226" height="6.19163" transform="translate(2052.50708 656.26088) rotate(-180)" style="fill:#0f2631"/><rect x="335.07217" y="165.40647" width="23.5503" height="99.04645" style="fill:#2a3d58"/><rect x="320.48788" y="165.40647" width="14.58429" height="100.03297" style="fill:#173045"/><circle cx="341.09659" cy="186.30424" r="1.37552" style="fill:#1de9b6"/><circle cx="354.92058" cy="186.30424" r="1.37552" style="fill:#1de9b6"/><circle cx="361.83258" cy="186.30424" r="1.37552" style="fill:#1de9b6"/><circle cx="348.00859" cy="186.30424" r="1.37552" style="fill:#1de9b6"/><polyline points="339.834 178.416 346.218 178.416 350.399 181.46 362.834 181.46" style="fill:none;stroke:#1de9b6;stroke-miterlimit:10;stroke-width:1.25px"/><line x1="339.83373" y1="174.48654" x2="362.83363" y2="174.48654" style="fill:none;stroke:#1de9b6;stroke-miterlimit:10;stroke-width:1.25px"/><line x1="339.83373" y1="170.55713" x2="362.83363" y2="170.55713" style="fill:none;stroke:#1de9b6;stroke-miterlimit:10;stroke-width:1.25px"/><rect x="1331.10841" y="165.40647" width="23.5503" height="99.04645" style="fill:#2a3d58"/><rect x="1316.52412" y="165.40647" width="14.58429" height="100.03297" style="fill:#173045"/><circle cx="1337.13283" cy="186.30424" r="1.37552" style="fill:#18ffff"/><circle cx="1350.95682" cy="186.30424" r="1.37552" style="fill:#18ffff"/><circle cx="1357.86882" cy="186.30424" r="1.37552" style="fill:#18ffff"/><circle cx="1344.04483" cy="186.30424" r="1.37552" style="fill:#18ffff"/><polyline points="1335.87 178.416 1342.254 178.416 1346.435 181.46 1358.87 181.46" style="fill:none;stroke:#737e90;stroke-miterlimit:10;stroke-width:1.25px"/><line x1="1335.86997" y1="174.48654" x2="1358.86987" y2="174.48654" style="fill:none;stroke:#737e90;stroke-miterlimit:10;stroke-width:1.25px"/><line x1="1335.86997" y1="170.55713" x2="1358.86987" y2="170.55713" style="fill:none;stroke:#737e90;stroke-miterlimit:10;stroke-width:1.25px"/><rect x="221.52628" y="301.92708" width="23.5503" height="194.88578" style="fill:#2a3d58"/><rect x="206.942" y="301.92708" width="14.58429" height="100.03297" style="fill:#173045"/><circle cx="227.5507" cy="322.82485" r="1.37552" style="fill:#18ffff"/><circle cx="241.3747" cy="322.82485" r="1.37552" style="fill:#18ffff"/><circle cx="248.28669" cy="322.82485" r="1.37552" style="fill:#18ffff"/><circle cx="234.4627" cy="322.82485" r="1.37552" style="fill:#18ffff"/><polyline points="226.288 314.937 232.672 314.937 236.853 317.98 249.288 317.98" style="fill:none;stroke:#737e90;stroke-miterlimit:10;stroke-width:1.25px"/><line x1="226.28784" y1="311.00715" x2="249.28775" y2="311.00715" style="fill:none;stroke:#737e90;stroke-miterlimit:10;stroke-width:1.25px"/><line x1="226.28784" y1="307.07774" x2="249.28775" y2="307.07774" style="fill:none;stroke:#737e90;stroke-miterlimit:10;stroke-width:1.25px"/><rect x="356.62338" y="234.08124" width="16.15357" height="261.26261" style="fill:#434d72"/><rect x="343.73555" y="234.08124" width="12.88783" height="12.88783" style="fill:#031e28"/><rect x="343.73555" y="246.96907" width="12.88783" height="200.02777" style="fill:#434d72"/><rect x="330.84772" y="259.8569" width="12.88783" height="170.81786" style="fill:#434d72"/><rect x="330.84772" y="246.96907" width="12.88783" height="12.88783" style="fill:#031e28"/><rect x="317.9599" y="259.8569" width="12.88783" height="68.98185" style="fill:#031e28"/><rect x="340.27388" y="266.1471" width="19.81118" height="225.22436" rx="9.90558" ry="9.90558" style="fill:#0f2631"/><path d="M350.17948,266.14707a9.80061,9.80061,0,0,0-3.22192.552,9.93606,9.93606,0,0,1,6.68359,9.35364V481.46579a9.93606,9.93606,0,0,1-6.68359,9.35364,9.80061,9.80061,0,0,0,3.22192.552,9.93469,9.93469,0,0,0,9.90558-9.90564V276.05271A9.93469,9.93469,0,0,0,350.17948,266.14707Z" style="fill:#031e28"/><rect x="326.82229" y="320.03026" width="22.02263" height="64.87314" transform="translate(675.66709 704.93377) rotate(-179.99998)" style="fill:#fff"/><rect x="290.8744" y="320.03025" width="35.94788" height="69.15343" transform="translate(617.69656 709.21403) rotate(-179.99998)" style="fill:#434d72"/><rect x="296.77092" y="312.71586" width="24.15495" height="7.31438" transform="translate(617.69669 632.74622) rotate(-179.99998)" style="fill:#434d72"/><polyline points="320.926 312.716 308.848 304.493 296.771 312.716" style="fill:#434d72"/><rect x="320.92588" y="312.71587" width="24.15495" height="7.31438" transform="translate(666.0066 632.74624) rotate(-179.99998)" style="fill:#fff"/><polyline points="320.926 312.716 333.003 304.493 345.081 312.716" style="fill:#fff"/><polygon points="308.848 304.493 333.003 304.493 320.926 312.716 308.848 304.493" style="fill:#1de9b6"/><line x1="350.62917" y1="320.03026" x2="289.01116" y2="320.03024" style="fill:none;stroke:#fff;stroke-miterlimit:10;stroke-width:1.25px"/><line x1="350.62917" y1="324.77599" x2="289.01116" y2="324.77597" style="fill:none;stroke:#fff;stroke-miterlimit:10;stroke-width:1.25px"/><line x1="350.62916" y1="329.52173" x2="289.01115" y2="329.5217" style="fill:none;stroke:#fff;stroke-miterlimit:10;stroke-width:1.25px"/><line x1="350.62915" y1="334.26746" x2="289.01114" y2="334.26744" style="fill:none;stroke:#fff;stroke-miterlimit:10;stroke-width:1.25px"/><rect x="910.38185" y="283.90085" width="9.54617" height="52.54143" transform="translate(1830.30987 620.34313) rotate(-180)" style="fill:#fff"/><polygon points="912.256 279.696 921.802 279.696 919.928 283.901 910.382 283.901 912.256 279.696" style="fill:#fff"/><polygon points="895.248 261.629 912.256 266.906 912.256 279.696 910.382 283.901 910.382 336.442 895.248 336.442 895.248 261.629" style="fill:#c3cbd8"/><rect x="912.25614" y="266.90554" width="9.54617" height="12.79027" transform="translate(1834.05845 546.60135) rotate(-180)" style="fill:#fff"/><polygon points="921.802 266.906 905.574 261.629 895.248 261.629 912.256 266.906 921.802 266.906" style="fill:#031e28"/><rect x="895.0362" y="290.44167" width="35.64164" height="94.91594" style="fill:#fff"/><rect x="878.90903" y="290.44167" width="16.12717" height="94.91594" style="fill:#c3cbd8"/><circle cx="901.69794" cy="313.55023" r="1.52104" style="fill:#18ffff"/><circle cx="916.98439" cy="313.55023" r="1.52104" style="fill:#18ffff"/><circle cx="924.62761" cy="313.55023" r="1.52104" style="fill:#18ffff"/><circle cx="909.34117" cy="313.55023" r="1.52104" style="fill:#18ffff"/><polyline points="900.301 304.827 907.361 304.827 911.985 308.193 925.735 308.193" style="fill:none;stroke:#737e90;stroke-miterlimit:10;stroke-width:1.25px"/><line x1="900.30148" y1="300.48232" x2="925.73457" y2="300.48232" style="fill:none;stroke:#737e90;stroke-miterlimit:10;stroke-width:1.25px"/><line x1="900.30148" y1="296.13722" x2="925.73457" y2="296.13722" style="fill:none;stroke:#737e90;stroke-miterlimit:10;stroke-width:1.25px"/><line x1="925.73457" y1="322.6123" x2="900.44267" y2="322.6123" style="fill:none;stroke:#737e90;stroke-miterlimit:10;stroke-width:1.25px"/><line x1="903.52078" y1="330.10597" x2="903.52078" y2="334.00382" style="fill:none;stroke:#1de9b6;stroke-miterlimit:10;stroke-width:1.25px"/><line x1="906.71006" y1="328.23201" x2="906.71006" y2="335.50299" style="fill:none;stroke:#1de9b6;stroke-miterlimit:10;stroke-width:1.25px"/><line x1="909.89934" y1="327.25755" x2="909.89934" y2="336.47745" style="fill:none;stroke:#1de9b6;stroke-miterlimit:10;stroke-width:1.25px"/><line x1="913.08862" y1="329.10517" x2="913.08862" y2="334.00382" style="fill:none;stroke:#1de9b6;stroke-miterlimit:10;stroke-width:1.25px"/><line x1="916.2779" y1="327.25755" x2="916.2779" y2="336.47745" style="fill:none;stroke:#1de9b6;stroke-miterlimit:10;stroke-width:1.25px"/><line x1="922.65646" y1="330.10597" x2="922.65646" y2="334.00382" style="fill:none;stroke:#1de9b6;stroke-miterlimit:10;stroke-width:1.25px"/><line x1="919.46718" y1="328.23201" x2="919.46718" y2="335.50299" style="fill:none;stroke:#1de9b6;stroke-miterlimit:10;stroke-width:1.25px"/><rect x="889.44592" y="361.91022" width="63.38971" height="125.94187" style="fill:#031e28"/><path d="M932.633,381.08892a34.956,34.956,0,0,0-34.956-34.95605l0,34.95619Z" style="fill:#031e28"/><path d="M946.16715,346.13344a34.95593,34.95593,0,0,0-34.95606,34.956h34.95618Z" style="fill:#031e28"/><rect x="191.02422" y="294.00369" width="17.3605" height="212.80405" transform="translate(399.40894 800.81144) rotate(-180)" style="fill:#fff"/><rect x="167.33462" y="288.23773" width="19.04141" height="5.76597" transform="translate(353.71064 582.24142) rotate(-180)" style="fill:#031e28"/><polyline points="186.376 288.238 176.855 281.755 167.335 288.238" style="fill:#031e28"/><rect x="186.37603" y="288.23773" width="19.04141" height="5.76597" transform="translate(391.79346 582.24142) rotate(-180)" style="fill:#fff"/><polyline points="186.376 288.238 195.897 281.755 205.417 288.238" style="fill:#fff"/><polygon points="176.855 281.755 195.897 281.755 186.376 288.238 176.855 281.755" style="fill:#c3cbd8"/><polygon points="191.026 343.4 160.52 343.4 160.52 392.869 191.026 343.4" style="fill:#2a3d58"/><polygon points="160.52 392.869 191.026 392.869 191.026 343.4 160.52 392.869" style="fill:#031e28"/><polygon points="191.026 442.339 160.52 442.339 160.52 491.808 191.026 442.339" style="fill:#2a3d58"/><polygon points="160.52 491.808 191.026 491.808 191.026 442.339 160.52 491.808" style="fill:#031e28"/><polygon points="160.52 293.931 191.026 293.931 191.026 343.4 160.52 293.931" style="fill:#1de9b6"/><polygon points="191.026 343.4 160.52 343.4 160.52 293.931 191.026 343.4" style="fill:#031e28"/><polygon points="160.52 392.869 191.026 392.869 191.026 442.339 160.52 392.869" style="fill:#1de9b6"/><polygon points="191.026 442.339 160.52 442.339 160.52 392.869 191.026 442.339" style="fill:#031e28"/><rect x="769.29742" y="356.11962" width="38.27749" height="261.26261" style="fill:#434d72"/><rect x="756.40959" y="356.11962" width="12.88783" height="12.88783" style="fill:#031e28"/><rect x="756.40959" y="369.00745" width="12.88783" height="200.02777" style="fill:#434d72"/><rect x="743.52176" y="381.89528" width="12.88783" height="207.89543" style="fill:#434d72"/><rect x="743.52176" y="369.00745" width="12.88783" height="12.88783" style="fill:#031e28"/><rect x="730.63393" y="381.89528" width="12.88783" height="201.7623" style="fill:#031e28"/><rect x="752.94791" y="388.18548" width="19.81118" height="225.22436" rx="9.90558" ry="9.90558" style="fill:#0f2631"/><path d="M762.85352,388.18545a9.80061,9.80061,0,0,0-3.22192.552,9.93606,9.93606,0,0,1,6.68359,9.35364V603.50417a9.93606,9.93606,0,0,1-6.68359,9.35364,9.80061,9.80061,0,0,0,3.22192.552,9.93469,9.93469,0,0,0,9.90558-9.90564V398.09109A9.93469,9.93469,0,0,0,762.85352,388.18545Z" style="fill:#031e28"/><rect x="793.04081" y="383.5559" width="8.82389" height="7.76502" style="fill:none;stroke:#737e90;stroke-miterlimit:10;stroke-width:1.25px"/><rect x="778.23775" y="383.5559" width="8.82389" height="7.76502" style="fill:none;stroke:#737e90;stroke-miterlimit:10;stroke-width:1.25px"/><polyline points="778.238 362.4 801.865 362.4 801.865 379.15" style="fill:none;stroke:#737e90;stroke-miterlimit:10;stroke-width:1.25px"/><rect x="793.04081" y="455.37463" width="8.82389" height="7.76502" style="fill:none;stroke:#737e90;stroke-miterlimit:10;stroke-width:1.25px"/><rect x="778.23775" y="455.37463" width="8.82389" height="7.76502" style="fill:none;stroke:#737e90;stroke-miterlimit:10;stroke-width:1.25px"/><line x1="778.23775" y1="434.21872" x2="801.86469" y2="434.21872" style="fill:none;stroke:#737e90;stroke-miterlimit:10;stroke-width:1.25px"/><line x1="799.56449" y1="441.71239" x2="799.56449" y2="445.61023" style="fill:none;stroke:#737e90;stroke-miterlimit:10;stroke-width:1.25px"/><line x1="796.37521" y1="439.83842" x2="796.37521" y2="447.1094" style="fill:none;stroke:#737e90;stroke-miterlimit:10;stroke-width:1.25px"/><line x1="793.18593" y1="438.86396" x2="793.18593" y2="448.08387" style="fill:none;stroke:#737e90;stroke-miterlimit:10;stroke-width:1.25px"/><line x1="789.99665" y1="440.71159" x2="789.99665" y2="445.61023" style="fill:none;stroke:#737e90;stroke-miterlimit:10;stroke-width:1.25px"/><line x1="786.80737" y1="438.86396" x2="786.80737" y2="448.08387" style="fill:none;stroke:#737e90;stroke-miterlimit:10;stroke-width:1.25px"/><line x1="780.42881" y1="441.71239" x2="780.42881" y2="445.61023" style="fill:none;stroke:#737e90;stroke-miterlimit:10;stroke-width:1.25px"/><line x1="783.61809" y1="439.83842" x2="783.61809" y2="447.1094" style="fill:none;stroke:#737e90;stroke-miterlimit:10;stroke-width:1.25px"/><rect x="793.04081" y="494.54812" width="8.82389" height="7.76502" style="fill:none;stroke:#737e90;stroke-miterlimit:10;stroke-width:1.25px"/><rect x="778.23775" y="494.54812" width="8.82389" height="7.76502" style="fill:none;stroke:#737e90;stroke-miterlimit:10;stroke-width:1.25px"/><polyline points="778.238 473.392 801.865 473.392 801.865 490.143" style="fill:none;stroke:#737e90;stroke-miterlimit:10;stroke-width:1.25px"/><circle cx="779.44467" cy="533.75146" r="1.20692" style="fill:#1de9b6"/><circle cx="789.99665" cy="533.75146" r="1.20692" style="fill:#1de9b6"/><circle cx="784.72066" cy="533.75146" r="1.20692" style="fill:#1de9b6"/><polyline points="778.337 526.83 783.938 526.83 787.607 529.501 802.012 529.501" style="fill:none;stroke:#737e90;stroke-miterlimit:10;stroke-width:1.25px"/><line x1="778.3366" y1="523.06511" x2="801.86469" y2="523.06511" style="fill:none;stroke:#737e90;stroke-miterlimit:10;stroke-width:1.25px"/><circle cx="778.89696" cy="513.3727" r="0.80701" style="fill:#1de9b6"/><circle cx="781.54556" cy="513.3727" r="0.80701" style="fill:#1de9b6"/><circle cx="784.32162" cy="513.3727" r="0.80701" style="fill:#1de9b6"/><line x1="802.01249" y1="513.3727" x2="789.07322" y2="513.3727" style="fill:none;stroke:#737e90;stroke-miterlimit:10;stroke-width:1.25px"/><circle cx="779.44467" cy="422.75924" r="1.20692" style="fill:#1de9b6"/><circle cx="789.99665" cy="422.75924" r="1.20692" style="fill:#1de9b6"/><circle cx="784.72066" cy="422.75924" r="1.20692" style="fill:#1de9b6"/><polyline points="778.337 415.838 783.938 415.838 787.607 418.509 802.012 418.509" style="fill:none;stroke:#1de9b6;stroke-miterlimit:10;stroke-width:1.25px"/><line x1="778.3366" y1="412.07289" x2="801.86469" y2="412.07289" style="fill:none;stroke:#1de9b6;stroke-miterlimit:10;stroke-width:1.25px"/><circle cx="778.89696" cy="402.38048" r="0.80701" style="fill:#1de9b6"/><circle cx="781.54556" cy="402.38048" r="0.80701" style="fill:#1de9b6"/><circle cx="784.32162" cy="402.38048" r="0.80701" style="fill:#1de9b6"/><line x1="802.01249" y1="402.38048" x2="789.07322" y2="402.38048" style="fill:none;stroke:#1de9b6;stroke-miterlimit:10;stroke-width:1.25px"/><path d="M1244.40993,392.25213H1250.44a0,0,0,0,1,0,0v66.05814a0,0,0,0,1,0,0h-27.87563a0,0,0,0,1,0,0V414.09765A21.84552,21.84552,0,0,1,1244.40993,392.25213Z" style="fill:#c3cbd8"/><rect x="1250.44004" y="392.25213" width="21.75397" height="66.05814" transform="translate(2522.63406 850.56241) rotate(-180)" style="fill:#fff"/><rect x="1258.25906" y="401.19889" width="6.11593" height="4.70858" transform="translate(2522.63406 807.10636) rotate(-180)" style="fill:#1de9b6"/><rect x="1258.25906" y="412.18538" width="6.11593" height="4.70858" transform="translate(2522.63406 829.07934) rotate(-180)" style="fill:#1de9b6"/><rect x="1258.25906" y="423.17187" width="6.11593" height="4.70858" transform="translate(2522.63406 851.05231) rotate(-180)" style="fill:#1de9b6"/><rect x="1258.25906" y="434.15836" width="6.11593" height="4.70858" transform="translate(2522.63406 873.02529) rotate(-180)" style="fill:#1de9b6"/><rect x="1258.25906" y="445.14484" width="6.11593" height="4.70858" transform="translate(2522.63406 894.99826) rotate(-180)" style="fill:#1de9b6"/><circle cx="1236.50223" cy="418.20034" r="7.2205" style="fill:#031e28"/><path d="M1232.79169,418.20035a7.21686,7.21686,0,0,1,5.46556-6.99672,7.22055,7.22055,0,1,0,0,13.99343A7.21686,7.21686,0,0,1,1232.79169,418.20035Z" style="fill:#2e3554"/><circle cx="1236.50223" cy="438.29571" r="7.2205" style="fill:#031e28"/><path d="M1232.79169,438.29571a7.21686,7.21686,0,0,1,5.46556-6.99672,7.22055,7.22055,0,1,0,0,13.99343A7.21686,7.21686,0,0,1,1232.79169,438.29571Z" style="fill:#2e3554"/><path d="M686.17887,499.97532a17.19327,17.19327,0,0,0-17.19327,17.19327h17.19327Z" style="fill:#2a3d58"/><path d="M686.17887,465.58871A17.19327,17.19327,0,0,0,668.9856,482.782h17.19327Z" style="fill:#2a3d58"/><path d="M703.37212,499.97525A17.19323,17.19323,0,0,0,686.17886,482.782v17.19334Z" style="fill:#2a3d58"/><path d="M703.37212,465.38913a17.19323,17.19323,0,0,0-17.19327-17.19327V465.3892Z" style="fill:#2a3d58"/><path d="M703.3722,482.58236a17.19341,17.19341,0,0,0,17.19363-17.19326l-17.19371,0Z" style="fill:#2a3d58"/><path d="M686.17887,430.138a17.19327,17.19327,0,0,0-17.19327,17.19327h17.19327Z" style="fill:#2a3d58"/><path d="M686.17887,395.75135a17.19327,17.19327,0,0,0-17.19327,17.19327h17.19327Z" style="fill:#2a3d58"/><path d="M703.37212,430.13789a17.19323,17.19323,0,0,0-17.19327-17.19327V430.138Z" style="fill:#2a3d58"/><path d="M703.37212,395.55177a17.19323,17.19323,0,0,0-17.19327-17.19327v17.19334Z" style="fill:#2a3d58"/><path d="M703.3722,412.745a17.19341,17.19341,0,0,0,17.19363-17.19326l-17.19371,0Z" style="fill:#2a3d58"/><rect x="679.59573" y="260.64093" width="2.8675" height="46.04052" style="fill:#173045"/><rect x="784.93338" y="204.53382" width="12.25301" height="38.31156" transform="translate(1582.11978 447.37919) rotate(-180)" style="fill:#434d72"/><polygon points="787.339 199.136 799.592 199.136 797.186 204.534 784.933 204.534 787.339 199.136" style="fill:#434d72"/><polygon points="769.763 186.869 787.339 186.869 787.339 199.136 784.933 204.534 784.933 242.845 769.763 242.845 769.763 186.869" style="fill:#173045"/><rect x="787.33914" y="186.86873" width="12.25301" height="12.26769" transform="translate(1586.93129 386.00515) rotate(-180)" style="fill:#434d72"/><line x1="800.59515" y1="204.53384" x2="768.04811" y2="204.53381" style="fill:none;stroke:#1de9b6;stroke-miterlimit:10;stroke-width:1.25px"/><line x1="800.59514" y1="209.27957" x2="768.04811" y2="209.27955" style="fill:none;stroke:#1de9b6;stroke-miterlimit:10;stroke-width:1.25px"/><line x1="800.59513" y1="214.0253" x2="768.0481" y2="214.02528" style="fill:none;stroke:#1de9b6;stroke-miterlimit:10;stroke-width:1.25px"/><line x1="800.59512" y1="218.77103" x2="768.04809" y2="218.77101" style="fill:none;stroke:#1de9b6;stroke-miterlimit:10;stroke-width:1.25px"/><line x1="774.87227" y1="186.86873" x2="774.87227" y2="171.4962" style="fill:none;stroke:#434d72;stroke-miterlimit:10;stroke-width:1.25px"/><line x1="779.83266" y1="186.86873" x2="779.83266" y2="179.18246" style="fill:none;stroke:#434d72;stroke-miterlimit:10;stroke-width:1.25px"/><rect x="723.94427" y="296.64874" width="30.18117" height="44.70064" style="fill:#173045"/><circle cx="728.66685" cy="317.57316" r="1.37552" style="fill:#18ffff"/><circle cx="742.49085" cy="317.57316" r="1.37552" style="fill:#18ffff"/><circle cx="749.40285" cy="317.57316" r="1.37552" style="fill:#18ffff"/><circle cx="735.57885" cy="317.57316" r="1.37552" style="fill:#18ffff"/><polyline points="727.404 309.685 733.788 309.685 737.969 312.729 750.404 312.729" style="fill:none;stroke:#737e90;stroke-miterlimit:10;stroke-width:1.25px"/><line x1="727.40399" y1="305.75545" x2="750.4039" y2="305.75545" style="fill:none;stroke:#737e90;stroke-miterlimit:10;stroke-width:1.25px"/><line x1="727.40399" y1="301.82604" x2="750.4039" y2="301.82604" style="fill:none;stroke:#737e90;stroke-miterlimit:10;stroke-width:1.25px"/><circle cx="728.66685" cy="341.34938" r="1.37552" style="fill:#18ffff"/><circle cx="742.49085" cy="341.34938" r="1.37552" style="fill:#18ffff"/><circle cx="749.40285" cy="341.34938" r="1.37552" style="fill:#18ffff"/><circle cx="735.57885" cy="341.34938" r="1.37552" style="fill:#18ffff"/><polyline points="727.404 333.461 733.788 333.461 737.969 336.505 750.404 336.505" style="fill:none;stroke:#737e90;stroke-miterlimit:10;stroke-width:1.25px"/><line x1="727.40399" y1="329.53167" x2="750.4039" y2="329.53167" style="fill:none;stroke:#737e90;stroke-miterlimit:10;stroke-width:1.25px"/><line x1="727.40399" y1="325.60226" x2="750.4039" y2="325.60226" style="fill:none;stroke:#737e90;stroke-miterlimit:10;stroke-width:1.25px"/><rect x="555.82957" y="384.73928" width="30.18117" height="215.45197" style="fill:#173045"/><circle cx="560.55216" cy="405.6637" r="1.37552" style="fill:#18ffff"/><circle cx="574.37616" cy="405.6637" r="1.37552" style="fill:#18ffff"/><circle cx="581.28815" cy="405.6637" r="1.37552" style="fill:#18ffff"/><circle cx="567.46416" cy="405.6637" r="1.37552" style="fill:#18ffff"/><polyline points="559.289 397.775 565.674 397.775 569.855 400.819 582.289 400.819" style="fill:none;stroke:#737e90;stroke-miterlimit:10;stroke-width:1.25px"/><line x1="559.2893" y1="393.84599" x2="582.28921" y2="393.84599" style="fill:none;stroke:#737e90;stroke-miterlimit:10;stroke-width:1.25px"/><line x1="559.2893" y1="389.91658" x2="582.28921" y2="389.91658" style="fill:none;stroke:#737e90;stroke-miterlimit:10;stroke-width:1.25px"/><circle cx="560.55216" cy="429.43992" r="1.37552" style="fill:#18ffff"/><circle cx="574.37616" cy="429.43992" r="1.37552" style="fill:#18ffff"/><circle cx="581.28815" cy="429.43992" r="1.37552" style="fill:#18ffff"/><circle cx="567.46416" cy="429.43992" r="1.37552" style="fill:#18ffff"/><polyline points="559.289 421.552 565.674 421.552 569.855 424.596 582.289 424.596" style="fill:none;stroke:#737e90;stroke-miterlimit:10;stroke-width:1.25px"/><line x1="559.2893" y1="417.62221" x2="582.28921" y2="417.62221" style="fill:none;stroke:#737e90;stroke-miterlimit:10;stroke-width:1.25px"/><line x1="559.2893" y1="413.6928" x2="582.28921" y2="413.6928" style="fill:none;stroke:#737e90;stroke-miterlimit:10;stroke-width:1.25px"/><rect x="433.3708" y="398.06062" width="47.59725" height="181.81221" transform="translate(914.33885 977.93346) rotate(-180)" style="fill:#434d72"/><rect x="480.96805" y="398.06062" width="12.88783" height="12.88783" transform="translate(974.82393 809.00908) rotate(-180)" style="fill:#031e28"/><rect x="480.96805" y="410.94845" width="12.88783" height="168.92438" transform="translate(974.82393 990.82129) rotate(-180)" style="fill:#434d72"/><rect x="493.85588" y="423.83628" width="12.88783" height="156.03655" transform="translate(1000.59959 1003.70911) rotate(-180)" style="fill:#434d72"/><rect x="493.85588" y="410.94845" width="12.88783" height="12.88783" transform="translate(1000.59959 834.78473) rotate(-180)" style="fill:#031e28"/><rect x="506.74371" y="423.83628" width="12.88783" height="68.98185" transform="translate(1026.37525 916.65441) rotate(-180)" style="fill:#031e28"/><rect x="432.80042" y="405.0577" width="41.17055" height="174.81513" transform="translate(906.77139 984.93054) rotate(-180)" style="fill:#031e28"/><rect x="445.68825" y="417.94553" width="41.17055" height="161.9273" transform="translate(932.54705 997.81837) rotate(-180)" style="fill:#031e28"/><rect x="458.57608" y="430.83336" width="41.17055" height="149.03947" transform="translate(958.32271 1010.7062) rotate(-180)" style="fill:#031e28"/><rect x="686.16848" y="240.99894" width="17.3605" height="98.48968" transform="translate(1389.69745 580.48756) rotate(-180)" style="fill:#fff"/><rect x="662.47861" y="240.99894" width="23.68987" height="104.99183" transform="translate(1348.64709 586.9897) rotate(-180)" style="fill:#434d72"/><rect x="662.47887" y="235.23297" width="19.04141" height="5.76597" transform="translate(1343.99915 476.23191) rotate(-180)" style="fill:#031e28"/><polyline points="681.52 235.233 672 228.75 662.479 235.233" style="fill:#031e28"/><rect x="681.52028" y="235.23297" width="19.04141" height="5.76597" transform="translate(1382.08197 476.23191) rotate(-180)" style="fill:#fff"/><polyline points="681.52 235.233 691.041 228.75 700.562 235.233" style="fill:#fff"/><polygon points="672 228.75 691.041 228.75 681.52 235.233 672 228.75" style="fill:#c3cbd8"/><line x1="678.88168" y1="228.75048" x2="678.88167" y2="215.80922" style="fill:none;stroke:#fff;stroke-miterlimit:10;stroke-width:1.25px"/><line x1="684.15889" y1="228.75048" x2="684.15888" y2="222.68276" style="fill:none;stroke:#fff;stroke-miterlimit:10;stroke-width:1.25px"/><polygon points="655.663 290.395 686.168 290.395 686.168 339.865 655.663 290.395" style="fill:#2a3d58"/><polygon points="686.168 339.865 655.662 339.865 655.663 290.395 686.168 339.865" style="fill:#031e28"/><polygon points="655.663 240.926 686.168 240.926 686.168 290.395 655.663 240.926" style="fill:#1de9b6"/><polygon points="686.168 290.395 655.662 290.395 655.663 240.926 686.168 290.395" style="fill:#031e28"/><polygon points="529.832 350.09 554.65 350.09 542.918 257.507 529.832 350.09" style="fill:#fff"/><path d="M1124.14686,189.86784h-37.001c-1.80469,0-2.25586.47949-2.25586,2.39844V431.15983c0,1.91895.45117,2.39844,2.25586,2.39844h37.001c1.80469,0,2.25684-.47949,2.25684-2.39844V192.26627C1126.4037,190.34733,1125.95155,189.86784,1124.14686,189.86784Z" style="fill:#fff"/><path d="M8.30507-2.48446V631.042H1565.02333V-2.48446Zm253.459,193.31128c0,2.39844-1.80518,3.3584-3.60986,3.3584h-39.7085v93.0625h39.7085a3.67155,3.67155,0,0,1,3.60986,3.83789V331.861c0,2.87793-1.80518,3.83691-3.60986,3.83691h-39.7085v97.86035h39.7085a3.57,3.57,0,0,1,3.60986,3.35742v41.25488c0,2.87891-1.80518,3.83789-3.60986,3.83789H174.225a3.65387,3.65387,0,0,1-3.60986-3.83789V150.05241c0-2.39844,1.35352-3.83789,3.60986-3.83789h83.9292a3.67155,3.67155,0,0,1,3.60986,3.83789ZM416.44179,478.17057c0,2.87891-1.354,3.83789-3.60986,3.83789H325.29286a3.65387,3.65387,0,0,1-3.60986-3.83789V150.05241c0-2.39844,1.35352-3.83789,3.60986-3.83789H365.9037c2.25635,0,3.60986,1.43945,3.60986,3.83789V433.55827h43.31836a3.682,3.682,0,0,1,3.60986,3.83789Zm200.47852,3.83789h-42.416a3.67155,3.67155,0,0,1-3.60986-3.83789L560.516,398.06022H523.06386l-11.28076,80.11035c0,2.39844-1.354,3.83789-3.60986,3.83789h-42.416c-2.25635,0-3.60986-1.43945-3.60986-3.83789l53.69678-328.11816a3.65387,3.65387,0,0,1,3.60986-3.83789H565.931a3.65387,3.65387,0,0,1,3.60986,3.83789l50.98926,328.11816C620.53016,480.569,619.17665,482.00846,616.9203,482.00846ZM808.06093,232.56119c0,2.39844-1.35352,3.3584-3.60937,3.3584H763.84071c-1.80469,0-3.60937-.96-3.60937-3.3584V192.26627c0-1.91895-.45166-2.39844-2.25635-2.39844H720.974c-1.80518,0-2.25635.47949-2.25635,2.39844v92.583c0,1.91895.45117,2.39844,2.25635,2.39844H762.4872c35.647,0,45.57373,17.26953,45.57373,46.05176V434.99772c0,29.74121-9.92676,47.01074-45.12256,47.01074H717.36415c-36.09863,0-46.47705-17.26953-46.47705-46.05176V386.54752c0-2.39941,1.35352-3.3584,3.60986-3.3584H715.1078c1.80518,0,3.60986.959,3.60986,3.3584v44.6123c0,1.91895.45117,2.39844,2.25635,2.39844h37.001c1.80469,0,2.25635-.47949,2.25635-2.39844V338.09635c0-1.918-.45166-2.39844-2.25635-2.39844H716.46132c-32.48877,0-45.57422-6.71582-45.57422-46.05176V188.42838c0-29.74121,12.18311-47.01074,45.57422-47.01074H762.4872c33.39111,0,45.57373,17.26953,45.57373,46.53125Zm176.16113-41.73437c0,2.39844-1.80469,3.3584-3.60937,3.3584H945.86757V478.17057c0,2.87891-1.35352,3.83789-3.15918,3.83789H901.64686c-2.25684,0-3.61035-2.39844-3.61035-3.83789V194.18522H863.74257a3.29586,3.29586,0,0,1-3.60937-3.3584V150.05241c0-2.39844,1.35352-3.83789,3.60938-3.83789H980.61268a3.67117,3.67117,0,0,1,3.60938,3.83789Zm190.01172,244.1709c0,29.74121-9.92676,47.01074-45.123,47.01074h-45.57422c-36.09863,0-46.47754-17.26953-46.47754-46.05176V188.42838c0-29.74121,12.18359-47.01074,45.57422-47.01074h46.02637c33.3916,0,45.57422,17.26953,45.57422,46.53125Zm196.3291-202.43652c0,2.39844-1.35352,3.3584-3.61035,3.3584h-40.61035c-1.80469,0-3.61035-.96-3.61035-3.3584V192.26627c0-1.91895-.45117-2.39844-2.25586-2.39844h-37.001c-1.80469,0-2.25586.47949-2.25586,2.39844v92.583c0,1.91895.45117,2.39844,2.25586,2.39844h41.51367c35.64648,0,45.57422,17.26953,45.57422,46.05176V434.99772c0,29.74121-9.92773,47.01074-45.123,47.01074h-45.5752c-36.09863,0-46.47656-17.26953-46.47656-46.05176V386.54752c0-2.39941,1.35352-3.3584,3.60938-3.3584h40.61133c1.80469,0,3.61035.959,3.61035,3.3584v44.6123c0,1.91895.45117,2.39844,2.25586,2.39844h37.001c1.80469,0,2.25586-.47949,2.25586-2.39844V338.09635c0-1.918-.45117-2.39844-2.25586-2.39844h-41.51367c-32.48828,0-45.57422-6.71582-45.57422-46.05176V188.42838c0-29.74121,12.18359-47.01074,45.57422-47.01074h46.02637c33.39063,0,45.57422,17.26953,45.57422,46.53125Z" style="fill:#fff"/><rect x="1258.98057" y="209.82815" width="3.05882" height="49.11231" style="fill:#031e28"/><path d="M1017.42843,484.98291h32.03543V343.93585h-24.07254s.75111,66.281,0,90.87182C1024.349,468.93289,1017.42843,484.98291,1017.42843,484.98291Z" style="fill:#434d72"/><path d="M1035.269,486.0204h32.03543V343.93585h-24.07254s.75111,66.281,0,90.87182C1042.18954,468.93289,1035.269,486.0204,1035.269,486.0204Z" style="fill:#fff"/><path d="M1084.09915,484.98291h-32.71493V343.93585h24.752s-.75111,66.281,0,90.87182C1077.1786,468.93289,1084.09915,484.98291,1084.09915,484.98291Z" style="fill:#fff"/><polygon points="1047.827 405.064 1071.506 405.064 1071.506 428.743 1047.827 405.064" style="fill:#1de9b6"/><polygon points="1071.506 428.743 1047.827 428.743 1047.827 405.064 1071.506 428.743" style="fill:#434d72"/><line x1="1050.38741" y1="409.06572" x2="1016.50489" y2="409.06572" style="fill:none;stroke:#fff;stroke-miterlimit:10;stroke-width:1.25px"/><line x1="1050.38741" y1="413.73052" x2="1016.50489" y2="413.73052" style="fill:none;stroke:#fff;stroke-miterlimit:10;stroke-width:1.25px"/><line x1="1050.38741" y1="418.39531" x2="1016.50489" y2="418.39531" style="fill:none;stroke:#fff;stroke-miterlimit:10;stroke-width:1.25px"/><polygon points="1071.506 376.795 1047.827 376.795 1047.827 400.474 1071.506 376.795" style="fill:#1de9b6"/><polygon points="1047.827 400.474 1071.506 400.474 1071.506 376.795 1047.827 400.474" style="fill:#434d72"/><line x1="1050.38741" y1="380.79679" x2="1016.50489" y2="380.79679" style="fill:none;stroke:#fff;stroke-miterlimit:10;stroke-width:1.25px"/><line x1="1050.38741" y1="385.46159" x2="1016.50489" y2="385.46159" style="fill:none;stroke:#fff;stroke-miterlimit:10;stroke-width:1.25px"/><line x1="1050.38741" y1="390.12638" x2="1016.50489" y2="390.12638" style="fill:none;stroke:#fff;stroke-miterlimit:10;stroke-width:1.25px"/><polygon points="1047.827 348.526 1071.506 348.526 1071.506 372.205 1047.827 348.526" style="fill:#1de9b6"/><polygon points="1071.506 372.205 1047.827 372.205 1047.827 348.526 1071.506 372.205" style="fill:#434d72"/><line x1="1050.38741" y1="352.52783" x2="1016.50489" y2="352.52783" style="fill:none;stroke:#fff;stroke-miterlimit:10;stroke-width:1.25px"/><line x1="1050.38741" y1="357.19263" x2="1016.50489" y2="357.19263" style="fill:none;stroke:#fff;stroke-miterlimit:10;stroke-width:1.25px"/><line x1="1050.38741" y1="361.85743" x2="1016.50489" y2="361.85743" style="fill:none;stroke:#fff;stroke-miterlimit:10;stroke-width:1.25px"/><rect x="917.63755" y="395.86717" width="16.85485" height="86.61142" transform="translate(1852.12995 878.34576) rotate(-180)" style="fill:#fff"/><rect x="882.2471" y="395.86717" width="35.39045" height="86.61142" transform="translate(1799.88466 878.34576) rotate(-180)" style="fill:#434d72"/><polygon points="883.859 395.939 916.026 395.867 916.026 385.466 883.859 385.538 883.859 395.939" style="fill:#434d72"/><polygon points="916.026 395.939 933.33 395.867 933.33 385.466 916.026 385.538 916.026 395.939" style="fill:#fff"/><polyline points="901.162 385.538 901.162 374.23 918.895 374.23 933.33 385.538" style="fill:#1de9b6"/><polyline points="916.026 385.538 918.895 374.23 898.294 374.23 883.859 385.538" style="fill:#031e28"/><line x1="929.09123" y1="395.9389" x2="929.09123" y2="482.47859" style="fill:none;stroke:#1de9b6;stroke-miterlimit:10;stroke-width:1.25px"/><line x1="923.71698" y1="395.9389" x2="923.71698" y2="482.47859" style="fill:none;stroke:#1de9b6;stroke-miterlimit:10;stroke-width:1.25px"/><rect x="896.88351" y="414.94782" width="3.05882" height="49.11231" style="fill:#031e28"/><rect x="238.18302" y="155.8737" width="12.25301" height="38.31156" transform="translate(488.61905 350.05897) rotate(-180)" style="fill:#fff"/><polygon points="240.589 150.476 252.842 150.476 250.436 155.874 238.183 155.874 240.589 150.476" style="fill:#1de9b6"/><polygon points="223.012 138.209 240.589 138.209 240.589 150.476 238.183 155.874 238.183 194.185 223.012 194.185 223.012 138.209" style="fill:#434d72"/><rect x="240.58877" y="138.20862" width="12.25301" height="12.26769" transform="translate(493.43055 288.68493) rotate(-180)" style="fill:#fff"/><polygon points="252.856 138.209 240.589 138.209 240.589 150.476 252.856 138.209" style="fill:#1de9b6"/><line x1="253.84478" y1="155.87373" x2="221.29775" y2="155.8737" style="fill:none;stroke:#1de9b6;stroke-miterlimit:10;stroke-width:1.25px"/><line x1="253.84477" y1="160.61946" x2="221.29774" y2="160.61944" style="fill:none;stroke:#1de9b6;stroke-miterlimit:10;stroke-width:1.25px"/><line x1="253.84476" y1="165.36519" x2="221.29773" y2="165.36517" style="fill:none;stroke:#1de9b6;stroke-miterlimit:10;stroke-width:1.25px"/><line x1="253.84476" y1="170.11092" x2="221.29772" y2="170.1109" style="fill:none;stroke:#1de9b6;stroke-miterlimit:10;stroke-width:1.25px"/><line x1="228.1219" y1="138.20862" x2="228.1219" y2="122.83609" style="fill:none;stroke:#434d72;stroke-miterlimit:10;stroke-width:1.25px"/><line x1="233.08229" y1="138.20862" x2="233.08229" y2="130.52235" style="fill:none;stroke:#434d72;stroke-miterlimit:10;stroke-width:1.25px"/><rect x="345.76772" y="393.04017" width="15.80063" height="96.52404" transform="translate(707.33608 882.60437) rotate(-180)" style="fill:#fff"/><rect x="312.57918" y="393.04017" width="33.17689" height="90.58789" transform="translate(658.33526 876.66822) rotate(-180)" style="fill:#c3cbd8"/><polygon points="314.101 393.107 344.257 393.04 344.257 383.29 314.101 383.357 314.101 393.107" style="fill:#c3cbd8"/><polygon points="344.257 393.107 360.479 393.04 360.479 383.29 344.257 383.357 344.257 393.107" style="fill:#fff"/><polyline points="330.323 383.357 330.323 372.756 346.946 372.756 360.479 383.357" style="fill:#1de9b6"/><polyline points="344.257 383.357 346.946 372.756 327.634 372.756 314.101 383.357" style="fill:#031e28"/><rect x="350.02852" y="399.67888" width="7.27903" height="5.60403" transform="translate(707.33608 804.96179) rotate(-180)" style="fill:#1de9b6"/><rect x="350.02852" y="412.75473" width="7.27903" height="5.60403" transform="translate(707.33608 831.11348) rotate(-180)" style="fill:#1de9b6"/><rect x="350.02852" y="425.83057" width="7.27903" height="5.60403" transform="translate(707.33608 857.26518) rotate(-180)" style="fill:#1de9b6"/><rect x="350.02852" y="438.90642" width="7.27903" height="5.60403" transform="translate(707.33608 883.41687) rotate(-180)" style="fill:#1de9b6"/><rect x="350.02852" y="465.05812" width="7.27903" height="5.60403" transform="translate(707.33608 935.72026) rotate(-180)" style="fill:#1de9b6"/><rect x="350.02852" y="451.98227" width="7.27903" height="5.60403" transform="translate(707.33608 909.56857) rotate(-180)" style="fill:#1de9b6"/><rect x="332.00409" y="399.67888" width="7.27903" height="5.60403" transform="translate(671.28721 804.96179) rotate(-180)" style="fill:#0f2631"/><rect x="332.00409" y="412.75473" width="7.27903" height="5.60403" transform="translate(671.28721 831.11348) rotate(-180)" style="fill:#0f2631"/><rect x="332.00409" y="425.83057" width="7.27903" height="5.60403" transform="translate(671.28721 857.26518) rotate(-180)" style="fill:#0f2631"/><rect x="332.00409" y="438.90642" width="7.27903" height="5.60403" transform="translate(671.28721 883.41687) rotate(-180)" style="fill:#0f2631"/><rect x="332.00409" y="465.05812" width="7.27903" height="5.60403" transform="translate(671.28721 935.72026) rotate(-180)" style="fill:#0f2631"/><rect x="332.00409" y="451.98227" width="7.27903" height="5.60403" transform="translate(671.28721 909.56857) rotate(-180)" style="fill:#0f2631"/><rect x="318.85136" y="399.67888" width="7.27903" height="5.60403" transform="translate(644.98175 804.96179) rotate(-180)" style="fill:#0f2631"/><rect x="318.85136" y="412.75473" width="7.27903" height="5.60403" transform="translate(644.98175 831.11348) rotate(-180)" style="fill:#0f2631"/><rect x="318.85136" y="425.83057" width="7.27903" height="5.60403" transform="translate(644.98175 857.26518) rotate(-180)" style="fill:#0f2631"/><rect x="318.85136" y="438.90642" width="7.27903" height="5.60403" transform="translate(644.98175 883.41687) rotate(-180)" style="fill:#0f2631"/><rect x="318.85136" y="465.05812" width="7.27903" height="5.60403" transform="translate(644.98175 935.72026) rotate(-180)" style="fill:#0f2631"/><rect x="318.85136" y="451.98227" width="7.27903" height="5.60403" transform="translate(644.98175 909.56857) rotate(-180)" style="fill:#0f2631"/><rect x="198.51789" y="418.01962" width="2.8675" height="46.04052" style="fill:#031e28"/><polygon points="785.129 306.797 785.129 269.508 796.838 306.797 785.129 306.797" style="fill:#fff"/><polygon points="785.129 306.797 785.129 269.508 773.419 306.797 785.129 306.797" style="fill:#434d72"/><rect x="785.12863" y="306.79698" width="11.70977" height="49.30024" style="fill:#173045"/><rect x="773.41886" y="306.79698" width="11.70977" height="49.32264" style="fill:#031e28"/><polygon points="485.025 277.993 515.021 277.993 515.021 271.623 485.523 271.623 485.025 277.993" style="fill:#1de9b6"/><rect x="491.89215" y="277.99251" width="29.4981" height="96.23737" transform="translate(1013.2824 652.22239) rotate(-180)" style="fill:#fff"/><rect x="479.15434" y="277.99251" width="12.73781" height="96.23737" transform="translate(971.04649 652.22239) rotate(-180)" style="fill:#c3cbd8"/><polygon points="491.892 277.992 485.523 271.623 479.154 277.993 491.892 277.992" style="fill:#c3cbd8"/><polygon points="521.39 277.992 515.021 271.623 508.652 277.993 521.39 277.992" style="fill:#1de9b6"/><circle cx="506.6412" cy="292.41812" r="8.59366" style="fill:#031e28"/><path d="M511.0574,292.41812a8.58933,8.58933,0,0,0-6.505-8.32732,8.59372,8.59372,0,1,1,0,16.65464A8.58933,8.58933,0,0,0,511.0574,292.41812Z" style="fill:#2e3554"/><circle cx="506.6412" cy="316.33513" r="8.59366" style="fill:#031e28"/><path d="M511.0574,316.33513a8.58933,8.58933,0,0,0-6.505-8.32732,8.59372,8.59372,0,1,1,0,16.65464A8.58933,8.58933,0,0,0,511.0574,316.33513Z" style="fill:#2e3554"/><rect x="483.29152" y="284.13442" width="3.05882" height="49.11231" style="fill:#031e28"/><rect x="1059.26597" y="270.891" width="2.8675" height="46.04052" style="fill:#173045"/></svg>