<svg xmlns="http://www.w3.org/2000/svg" width="20" height="16" viewBox="0 0 20 16"><path fill-rule="evenodd" d="M16.5827 1.62672C15.9722 1.41211 15.3048 1.29395 14.6058 1.29395C12.7033 1.29395 11.0418 2.172 10.1136 3.48421C9.18557 2.172 7.5234 1.29395 5.62096 1.29395C2.70743 1.29395 0.346191 3.34643 0.346191 5.87839C0.346191 7.25689 1.0491 8.49018 2.15693 9.33002L5.11823 11.9036L16.5827 1.62672ZM7.42858 13.9115L9.63224 15.8266C9.7599 15.9375 9.93304 15.9999 10.1136 15.9999C10.2942 15.9999 10.4674 15.9375 10.595 15.8266L18.0703 9.33002C19.1782 8.49018 19.8812 7.25689 19.8812 5.87839C19.8812 4.99062 19.5908 4.1618 19.0881 3.45973L7.42858 13.9115Z" clip-rule="evenodd"/><rect width="1.721" height="20.91" transform="matrix(0.716362 0.697728 -0.744622 0.667486 18.3291 0)"/></svg>