<svg xmlns="http://www.w3.org/2000/svg" width="533" height="853" fill="none" viewBox="0 0 533 853"><rect width="534" height="396" x="-1" y="188" fill="#0F2631"/><rect width="534" height="264" x="-1" y="589" fill="#031E28"/><path fill="#0F2631" d="M519.942 371H284.918V605.562H519.942V371Z"/><path fill="#031E28" d="M361.479 523.842H345.951L348.453 510.009H358.977L361.479 523.842Z"/><path fill="#031E28" d="M279 614H488V524H279V614Z"/><path fill="#031E28" d="M0 614H279V553H0V614Z"/><path fill="#031E28" d="M533 564.497H459.95V614H533V564.497Z"/><path fill="#031E28" d="M473.171 443.932H437.38V524.181H473.171V443.932Z"/><path fill="#173045" d="M363.996 523.842H348.467L350.97 510.009H361.494L363.996 523.842Z"/><path fill="#2A3D58" d="M397.54 460.661H314.924V513.197H397.54V460.661Z"/><path fill="#031E28" d="M314.924 460.661H311.349V513.197H314.924V460.661Z"/><path fill="#2A3D58" d="M469.143 399.932H444.622V443.932H469.143V399.932Z"/><path fill="#434D72" d="M466.994 438.507L446.771 438.447V402.047L466.994 402.107V438.507Z"/><path fill="#031E28" d="M444.621 399.932H441.047V443.932H444.621V399.932Z"/><path stroke="#18FFFF" stroke-miterlimit="10" stroke-width="1.25" d="M397.54 486.93H413.721C414.366 486.93 415.004 486.803 415.6 486.556C416.196 486.31 416.737 485.949 417.193 485.494C417.649 485.039 418.011 484.499 418.258 483.904C418.505 483.309 418.632 482.672 418.632 482.028V425.588C418.632 424.288 419.149 423.041 420.07 422.122C420.991 421.203 422.24 420.687 423.543 420.687H441.047"/><path fill="#434D72" d="M394.344 463.85H318.118V510.009H394.344V463.85Z"/><path fill="#173045" d="M382.942 467.266H322.107C321.58 467.266 321.152 467.692 321.152 468.219C321.152 468.746 321.58 469.172 322.107 469.172H382.942C383.47 469.172 383.897 468.746 383.897 468.219C383.897 467.692 383.47 467.266 382.942 467.266Z"/><path fill="#173045" d="M386.505 468.881C386.871 468.881 387.169 468.584 387.169 468.218C387.169 467.852 386.871 467.556 386.505 467.556C386.138 467.556 385.841 467.852 385.841 468.218C385.841 468.584 386.138 468.881 386.505 468.881Z"/><path fill="#173045" d="M388.765 468.881C389.132 468.881 389.429 468.584 389.429 468.218C389.429 467.852 389.132 467.556 388.765 467.556C388.399 467.556 388.102 467.852 388.102 468.218C388.102 468.584 388.399 468.881 388.765 468.881Z"/><path fill="#173045" d="M391.026 468.881C391.393 468.881 391.69 468.584 391.69 468.218C391.69 467.852 391.393 467.556 391.026 467.556C390.66 467.556 390.362 467.852 390.362 468.218C390.362 468.584 390.66 468.881 391.026 468.881Z"/><path fill="#031E28" d="M298.514 376.357C298.514 374.46 297.759 372.641 296.415 371.3C295.072 369.959 293.249 369.206 291.349 369.206V376.357L298.514 376.357Z"/><path fill="#031E28" d="M312.843 376.357C312.843 374.46 312.088 372.641 310.744 371.3C309.401 369.959 307.578 369.206 305.678 369.206V376.357L312.843 376.357Z"/><path fill="#031E28" d="M298.514 383.507C299.455 383.507 300.386 383.322 301.255 382.963C302.125 382.603 302.915 382.077 303.58 381.413C304.245 380.749 304.773 379.96 305.133 379.093C305.493 378.225 305.678 377.295 305.678 376.356H298.514L298.514 383.507Z"/><path fill="#031E28" d="M312.926 383.507C313.867 383.507 314.798 383.322 315.668 382.963C316.537 382.603 317.327 382.077 317.992 381.413C318.657 380.749 319.185 379.96 319.545 379.093C319.905 378.225 320.09 377.295 320.09 376.356H312.926L312.926 383.507Z"/><path fill="#031E28" d="M305.762 383.507C305.762 384.446 305.947 385.376 306.307 386.243C306.667 387.111 307.195 387.899 307.86 388.563C308.525 389.227 309.315 389.754 310.184 390.113C311.054 390.473 311.985 390.658 312.926 390.658V383.507L305.762 383.507Z"/><path fill="#031E28" d="M495.388 450.934C493.488 450.934 491.666 451.687 490.322 453.028C488.978 454.369 488.224 456.188 488.224 458.084H495.388V450.934Z"/><path fill="#031E28" d="M495.388 436.632C493.488 436.632 491.666 437.385 490.322 438.726C488.978 440.067 488.224 441.886 488.224 443.782H495.388V436.632Z"/><path fill="#031E28" d="M502.553 450.934C502.553 449.995 502.367 449.065 502.007 448.197C501.647 447.33 501.12 446.542 500.454 445.878C499.789 445.214 498.999 444.687 498.13 444.327C497.261 443.968 496.329 443.783 495.388 443.783V450.934L502.553 450.934Z"/><path fill="#031E28" d="M502.553 436.549C502.553 435.61 502.368 434.68 502.008 433.813C501.648 432.945 501.12 432.157 500.455 431.493C499.79 430.829 499 430.302 498.13 429.943C497.261 429.583 496.33 429.398 495.389 429.398V436.549L502.553 436.549Z"/><path fill="#031E28" d="M502.553 443.699C503.494 443.699 504.425 443.514 505.295 443.155C506.164 442.796 506.954 442.269 507.619 441.605C508.284 440.941 508.812 440.153 509.172 439.285C509.532 438.418 509.717 437.488 509.718 436.549H502.553L502.553 443.699Z"/><path stroke="#2A3D58" stroke-miterlimit="10" stroke-width="1.25" d="M466.994 480.386L490.957 504.302"/><path stroke="#2A3D58" stroke-miterlimit="10" stroke-width="1.25" d="M466.994 486.779L484.55 504.302"/><path stroke="#2A3D58" stroke-miterlimit="10" stroke-width="1.25" d="M466.994 493.173L478.144 504.301"/><path stroke="#2A3D58" stroke-miterlimit="10" stroke-width="1.25" d="M466.994 499.567L471.737 504.302"/><path stroke="#2A3D58" stroke-miterlimit="10" stroke-width="1.25" d="M486.213 480.386L490.957 485.12"/><path stroke="#2A3D58" stroke-miterlimit="10" stroke-width="1.25" d="M479.807 480.386L490.957 491.514"/><path stroke="#2A3D58" stroke-miterlimit="10" stroke-width="1.25" d="M473.4 480.386L490.957 497.908"/><path stroke="#2A3D58" stroke-miterlimit="10" stroke-width="1.25" d="M354.634 404.222L378.597 428.138"/><path stroke="#2A3D58" stroke-miterlimit="10" stroke-width="1.25" d="M354.634 410.615L372.191 428.137"/><path stroke="#2A3D58" stroke-miterlimit="10" stroke-width="1.25" d="M354.634 417.01L365.784 428.138"/><path stroke="#2A3D58" stroke-miterlimit="10" stroke-width="1.25" d="M354.634 423.403L359.378 428.138"/><path stroke="#2A3D58" stroke-miterlimit="10" stroke-width="1.25" d="M373.854 404.222L378.597 408.956"/><path stroke="#2A3D58" stroke-miterlimit="10" stroke-width="1.25" d="M367.447 404.222L378.597 415.35"/><path stroke="#2A3D58" stroke-miterlimit="10" stroke-width="1.25" d="M361.041 404.222L378.597 421.744"/><path fill="#031E28" fill-rule="evenodd" d="M298.706 189.043V167.786C298.706 166.797 297.717 166.054 296.729 166.054H274.984V115.575H296.729C297.717 115.575 298.706 115.08 298.706 113.595V92.562C298.706 91.3247 297.717 90.5819 296.729 90.5819H274.984V42.5772H296.729C297.717 42.5772 298.706 42.0823 298.706 40.845V19.8116C298.706 18.5744 297.717 17.832 296.729 17.832H250.768C249.533 17.832 248.792 18.5744 248.792 19.8116V189.043H298.706Z" clip-rule="evenodd"/><mask id="mask0" width="50" height="171" x="249" y="18" mask-type="alpha" maskUnits="userSpaceOnUse"><path fill="#fff" fill-rule="evenodd" d="M250.98 18C249.743 18 249 18.7414 249 19.9772V189H299V167.77C299 166.782 298.01 166.039 297.02 166.039H275.238V115.622H297.02C298.01 115.622 299 115.128 299 113.645V92.6377C299 91.4025 298.01 90.6601 297.02 90.6601H275.238V42.7148H297.02C298.01 42.7148 299 42.22 299 40.9843V19.9772C299 18.7414 298.01 18 297.02 18H250.98Z" clip-rule="evenodd"/></mask><g mask="url(#mask0)"><path fill="#2A3D58" fill-rule="evenodd" d="M259.795 76.3086C254.26 76.3086 249.772 80.7893 249.772 86.316H259.795V76.3086Z" clip-rule="evenodd"/></g><mask id="mask1" width="50" height="171" x="249" y="18" mask-type="alpha" maskUnits="userSpaceOnUse"><path fill="#fff" fill-rule="evenodd" d="M250.98 18C249.743 18 249 18.7414 249 19.9772V189H299V167.77C299 166.782 298.01 166.039 297.02 166.039H275.238V115.622H297.02C298.01 115.622 299 115.128 299 113.645V92.6377C299 91.4025 298.01 90.6601 297.02 90.6601H275.238V42.7148H297.02C298.01 42.7148 299 42.22 299 40.9843V19.9772C299 18.7414 298.01 18 297.02 18H250.98Z" clip-rule="evenodd"/></mask><g mask="url(#mask1)"><path fill="#2A3D58" fill-rule="evenodd" d="M259.795 56.293C254.26 56.293 249.772 60.7736 249.772 66.3003H259.795V56.293Z" clip-rule="evenodd"/></g><mask id="mask2" width="50" height="171" x="249" y="18" mask-type="alpha" maskUnits="userSpaceOnUse"><path fill="#fff" fill-rule="evenodd" d="M250.98 18C249.743 18 249 18.7414 249 19.9772V189H299V167.77C299 166.782 298.01 166.039 297.02 166.039H275.238V115.622H297.02C298.01 115.622 299 115.128 299 113.645V92.6377C299 91.4025 298.01 90.6601 297.02 90.6601H275.238V42.7148H297.02C298.01 42.7148 299 42.22 299 40.9843V19.9772C299 18.7414 298.01 18 297.02 18H250.98Z" clip-rule="evenodd"/></mask><g mask="url(#mask2)"><path fill="#2A3D58" fill-rule="evenodd" d="M269.818 76.3086C269.818 70.7815 265.331 66.3008 259.795 66.3008V76.3086H269.818Z" clip-rule="evenodd"/></g><mask id="mask3" width="50" height="171" x="249" y="18" mask-type="alpha" maskUnits="userSpaceOnUse"><path fill="#fff" fill-rule="evenodd" d="M250.98 18C249.743 18 249 18.7414 249 19.9772V189H299V167.77C299 166.782 298.01 166.039 297.02 166.039H275.238V115.622H297.02C298.01 115.622 299 115.128 299 113.645V92.6377C299 91.4025 298.01 90.6601 297.02 90.6601H275.238V42.7148H297.02C298.01 42.7148 299 42.22 299 40.9843V19.9772C299 18.7414 298.01 18 297.02 18H250.98Z" clip-rule="evenodd"/></mask><g mask="url(#mask3)"><path fill="#2A3D58" fill-rule="evenodd" d="M269.818 56.1773C269.818 50.6506 265.331 46.1699 259.795 46.1699V56.1773H269.818Z" clip-rule="evenodd"/></g><mask id="mask4" width="50" height="171" x="249" y="18" mask-type="alpha" maskUnits="userSpaceOnUse"><path fill="#fff" fill-rule="evenodd" d="M250.98 18C249.743 18 249 18.7414 249 19.9772V189H299V167.77C299 166.782 298.01 166.039 297.02 166.039H275.238V115.622H297.02C298.01 115.622 299 115.128 299 113.645V92.6377C299 91.4025 298.01 90.6601 297.02 90.6601H275.238V42.7148H297.02C298.01 42.7148 299 42.22 299 40.9843V19.9772C299 18.7414 298.01 18 297.02 18H250.98Z" clip-rule="evenodd"/></mask><g mask="url(#mask4)"><path fill="#2A3D58" fill-rule="evenodd" d="M269.818 66.1846C275.354 66.1846 279.842 61.7039 279.842 56.1768H269.818V66.1846Z" clip-rule="evenodd"/></g><mask id="mask5" width="50" height="171" x="249" y="18" mask-type="alpha" maskUnits="userSpaceOnUse"><path fill="#fff" fill-rule="evenodd" d="M250.98 18C249.743 18 249 18.7414 249 19.9772V189H299V167.77C299 166.782 298.01 166.039 297.02 166.039H275.238V115.622H297.02C298.01 115.622 299 115.128 299 113.645V92.6377C299 91.4025 298.01 90.6601 297.02 90.6601H275.238V42.7148H297.02C298.01 42.7148 299 42.22 299 40.9843V19.9772C299 18.7414 298.01 18 297.02 18H250.98Z" clip-rule="evenodd"/></mask><g mask="url(#mask5)"><path fill="#2A3D58" fill-rule="evenodd" d="M259.795 35.6592C254.26 35.6592 249.772 40.1399 249.772 45.6666H259.795V35.6592Z" clip-rule="evenodd"/></g><mask id="mask6" width="50" height="171" x="249" y="18" mask-type="alpha" maskUnits="userSpaceOnUse"><path fill="#fff" fill-rule="evenodd" d="M250.98 18C249.743 18 249 18.7414 249 19.9772V189H299V167.77C299 166.782 298.01 166.039 297.02 166.039H275.238V115.622H297.02C298.01 115.622 299 115.128 299 113.645V92.6377C299 91.4025 298.01 90.6601 297.02 90.6601H275.238V42.7148H297.02C298.01 42.7148 299 42.22 299 40.9843V19.9772C299 18.7414 298.01 18 297.02 18H250.98Z" clip-rule="evenodd"/></mask><g mask="url(#mask6)"><path fill="#2A3D58" fill-rule="evenodd" d="M259.795 15.6445C254.26 15.6445 249.772 20.1252 249.772 25.6519H259.795V15.6445Z" clip-rule="evenodd"/></g><mask id="mask7" width="50" height="171" x="249" y="18" mask-type="alpha" maskUnits="userSpaceOnUse"><path fill="#fff" fill-rule="evenodd" d="M250.98 18C249.743 18 249 18.7414 249 19.9772V189H299V167.77C299 166.782 298.01 166.039 297.02 166.039H275.238V115.622H297.02C298.01 115.622 299 115.128 299 113.645V92.6377C299 91.4025 298.01 90.6601 297.02 90.6601H275.238V42.7148H297.02C298.01 42.7148 299 42.22 299 40.9843V19.9772C299 18.7414 298.01 18 297.02 18H250.98Z" clip-rule="evenodd"/></mask><g mask="url(#mask7)"><path fill="#2A3D58" fill-rule="evenodd" d="M269.818 35.6592C269.818 30.132 265.331 25.6514 259.795 25.6514V35.6592H269.818Z" clip-rule="evenodd"/></g><mask id="mask8" width="50" height="170" x="249" y="18" mask-type="alpha" maskUnits="userSpaceOnUse"><path fill="#fff" fill-rule="evenodd" d="M250.98 18C249.743 18 249 18.7371 249 19.9656V188H299V166.894C299 165.912 298.01 165.174 297.02 165.174H275.238V115.051H297.02C298.01 115.051 299 114.56 299 113.086V92.2013C299 90.9732 298.01 90.2352 297.02 90.2352H275.238V42.5703H297.02C298.01 42.5703 299 42.0784 299 40.8499V19.9656C299 18.7371 298.01 18 297.02 18H250.98Z" clip-rule="evenodd"/></mask><g mask="url(#mask8)"><path fill="#2A3D58" fill-rule="evenodd" d="M269.818 25.4923C275.354 25.4923 279.842 21.0373 279.842 15.543H269.818V25.4923Z" clip-rule="evenodd"/></g><mask id="mask9" width="50" height="171" x="249" y="18" mask-type="alpha" maskUnits="userSpaceOnUse"><path fill="#fff" fill-rule="evenodd" d="M250.98 18C249.743 18 249 18.7414 249 19.9772V189H299V167.77C299 166.782 298.01 166.039 297.02 166.039H275.238V115.622H297.02C298.01 115.622 299 115.128 299 113.645V92.6377C299 91.4025 298.01 90.6601 297.02 90.6601H275.238V42.7148H297.02C298.01 42.7148 299 42.22 299 40.9843V19.9772C299 18.7414 298.01 18 297.02 18H250.98Z" clip-rule="evenodd"/></mask><g mask="url(#mask9)"><path fill="#2A3D58" fill-rule="evenodd" d="M280 188H294V95H280V188Z" clip-rule="evenodd"/><path fill="#173045" fill-rule="evenodd" d="M271.473 153.46H279.974V95.2344H271.473V153.46Z" clip-rule="evenodd"/><path fill="#18FFFF" fill-rule="evenodd" d="M284.289 107.398C284.289 107.84 283.929 108.199 283.487 108.199C283.044 108.199 282.685 107.84 282.685 107.398C282.685 106.956 283.044 106.598 283.487 106.598C283.929 106.598 284.289 106.956 284.289 107.398Z" clip-rule="evenodd"/><path fill="#18FFFF" fill-rule="evenodd" d="M292.347 107.398C292.347 107.84 291.988 108.199 291.545 108.199C291.102 108.199 290.744 107.84 290.744 107.398C290.744 106.956 291.102 106.598 291.545 106.598C291.988 106.598 292.347 106.956 292.347 107.398Z" clip-rule="evenodd"/><path fill="#18FFFF" fill-rule="evenodd" d="M296.376 107.398C296.376 107.84 296.017 108.199 295.574 108.199C295.131 108.199 294.772 107.84 294.772 107.398C294.772 106.956 295.131 106.598 295.574 106.598C296.017 106.598 296.376 106.956 296.376 107.398Z" clip-rule="evenodd"/><path fill="#18FFFF" fill-rule="evenodd" d="M288.317 107.398C288.317 107.84 287.959 108.199 287.515 108.199C287.073 108.199 286.714 107.84 286.714 107.398C286.714 106.956 287.073 106.598 287.515 106.598C287.959 106.598 288.317 106.956 288.317 107.398Z" clip-rule="evenodd"/><path stroke="#737E90" stroke-width="1.25" d="M282.75 102.806H286.472L288.909 104.578H296.158"/><path stroke="#737E90" stroke-width="1.25" d="M282.75 100.519H296.157"/><path stroke="#737E90" stroke-width="1.25" d="M282.75 98.2314H296.157"/></g><path fill="#fff" fill-rule="evenodd" d="M259.164 188.043H269.267V81.3906H259.164V188.043Z" clip-rule="evenodd"/><path fill="#031E28" fill-rule="evenodd" d="M245.377 81.3899H256.458V78.0293H245.377V81.3899Z" clip-rule="evenodd"/><path fill="#031E28" fill-rule="evenodd" d="M256.459 78.0297L250.918 74.252L245.378 78.0297" clip-rule="evenodd"/><path fill="#fff" fill-rule="evenodd" d="M256.459 81.3899H267.54V78.0293H256.459V81.3899Z" clip-rule="evenodd"/><path fill="#fff" fill-rule="evenodd" d="M256.459 78.0297L261.999 74.252L267.54 78.0297" clip-rule="evenodd"/><path fill="#18FFFF" fill-rule="evenodd" d="M250.918 74.252H261.999L256.459 78.0297L250.918 74.252Z" clip-rule="evenodd"/><path fill="#2A3D58" fill-rule="evenodd" d="M259.165 110.177H241.412V139.006L259.165 110.177Z" clip-rule="evenodd"/><path fill="#031E28" fill-rule="evenodd" d="M241.412 139.007L259.164 139.006V110.177L241.412 139.007Z" clip-rule="evenodd"/><path fill="#2A3D58" fill-rule="evenodd" d="M259.165 167.836H241.412V188.042L246.722 188.043L259.165 167.836Z" clip-rule="evenodd"/><path fill="#031E28" fill-rule="evenodd" d="M246.722 188.043H259.165V167.836L246.722 188.043Z" clip-rule="evenodd"/><path fill="#1DE9B6" fill-rule="evenodd" d="M241.412 81.3477H259.164V110.177L241.412 81.3477Z" clip-rule="evenodd"/><path fill="#031E28" fill-rule="evenodd" d="M259.165 110.177H241.412V81.3477L259.165 110.177Z" clip-rule="evenodd"/><path fill="#1DE9B6" fill-rule="evenodd" d="M241.412 139.006H259.164V167.836L241.412 139.006Z" clip-rule="evenodd"/><path fill="#031E28" fill-rule="evenodd" d="M259.165 167.836H241.412V139.007L259.165 167.836Z" clip-rule="evenodd"/><path fill="#031E28" fill-rule="evenodd" d="M263.524 180.495H265.193V153.664H263.524V180.495Z" clip-rule="evenodd"/><path fill="#031E28" fill-rule="evenodd" d="M263.525 156.518H281.92C283.014 156.518 283.908 157.413 283.908 158.509V176.192C283.908 177.287 283.014 178.183 281.92 178.183H263.525" clip-rule="evenodd"/><path fill="#18FFFF" fill-rule="evenodd" d="M279.308 167.351C279.308 170.539 276.727 173.124 273.543 173.124C270.359 173.124 267.777 170.539 267.777 167.351C267.777 164.161 270.359 161.577 273.543 161.577C276.727 161.577 279.308 164.161 279.308 167.351Z" clip-rule="evenodd"/><path fill="#031E28" fill-rule="evenodd" d="M272.409 165.322L275.599 167.358C275.733 167.444 275.733 167.64 275.6 167.726L272.409 169.772C272.264 169.865 272.074 169.761 272.074 169.588V165.505C272.074 165.333 272.264 165.229 272.409 165.322Z" clip-rule="evenodd"/><path fill="#fff" fill-rule="evenodd" d="M287.079 41.5811H294.21V19.2539H287.079V41.5811Z" clip-rule="evenodd"/><path fill="#1DE9B6" fill-rule="evenodd" d="M288.479 16.1084H295.61L294.209 19.2536H287.079L288.479 16.1084Z" clip-rule="evenodd"/><path fill="#434D72" fill-rule="evenodd" d="M278.25 8.95996H288.479V16.1092L287.078 19.2544V41.5816H278.25V8.95996Z" clip-rule="evenodd"/><path fill="#fff" fill-rule="evenodd" d="M288.479 16.1082H295.61V8.95898H288.479V16.1082Z" clip-rule="evenodd"/><path fill="#1DE9B6" fill-rule="evenodd" d="M295.618 8.95996H288.479V16.1092L295.618 8.95996Z" clip-rule="evenodd"/><path stroke="#1DE9B6" stroke-width="1.25" d="M296.193 19.2539H277.252"/><path stroke="#1DE9B6" stroke-width="1.25" d="M296.193 22.0195H277.252"/><path stroke="#1DE9B6" stroke-width="1.25" d="M296.193 24.7856L277.252 24.7852"/><path stroke="#1DE9B6" stroke-width="1.25" d="M296.193 27.5508H277.252"/><path stroke="#434D72" stroke-width="1.25" d="M281.224 8.95917V0"/><path stroke="#434D72" stroke-width="1.25" d="M284.11 8.95908V4.47949"/><path fill="#031E28" fill-rule="evenodd" d="M393.543 188.043V167.034C393.543 166.044 392.802 165.054 391.567 165.054H367.845V18.8116C367.845 17.5744 367.104 16.832 365.868 16.832H343.629C342.394 16.832 341.652 17.5744 341.652 18.8116V188.043H393.543Z" clip-rule="evenodd"/><mask id="mask10" width="53" height="173" x="341" y="17" mask-type="alpha" maskUnits="userSpaceOnUse"><path fill="#fff" fill-rule="evenodd" d="M343.63 17.833C342.394 17.833 341.652 18.5754 341.652 19.8126V189.043H393.544V168.034C393.544 167.045 392.802 166.054 391.567 166.054H367.846V19.8126C367.846 18.5754 367.104 17.833 365.868 17.833H343.63Z" clip-rule="evenodd"/></mask><g mask="url(#mask10)"><path fill="#2A3D58" fill-rule="evenodd" d="M345.512 81.089H359.217V23.3672H345.512V81.089Z" clip-rule="evenodd"/><path fill="#173045" fill-rule="evenodd" d="M337.024 81.664H345.512V23.3672H337.024V81.664Z" clip-rule="evenodd"/><path fill="#1DE9B6" fill-rule="evenodd" d="M349.818 35.5469C349.818 35.9894 349.459 36.3481 349.017 36.3481C348.575 36.3481 348.217 35.9894 348.217 35.5469C348.217 35.1043 348.575 34.7451 349.017 34.7451C349.459 34.7451 349.818 35.1043 349.818 35.5469Z" clip-rule="evenodd"/><path fill="#1DE9B6" fill-rule="evenodd" d="M357.863 35.5469C357.863 35.9894 357.504 36.3481 357.062 36.3481C356.62 36.3481 356.262 35.9894 356.262 35.5469C356.262 35.1043 356.62 34.7451 357.062 34.7451C357.504 34.7451 357.863 35.1043 357.863 35.5469Z" clip-rule="evenodd"/><path fill="#1DE9B6" fill-rule="evenodd" d="M361.885 35.5469C361.885 35.9894 361.527 36.3481 361.085 36.3481C360.643 36.3481 360.285 35.9894 360.285 35.5469C360.285 35.1043 360.643 34.7451 361.085 34.7451C361.527 34.7451 361.885 35.1043 361.885 35.5469Z" clip-rule="evenodd"/><path fill="#1DE9B6" fill-rule="evenodd" d="M353.841 35.5469C353.841 35.9894 353.482 36.3481 353.04 36.3481C352.598 36.3481 352.24 35.9894 352.24 35.5469C352.24 35.1043 352.598 34.7451 353.04 34.7451C353.482 34.7451 353.841 35.1043 353.841 35.5469Z" clip-rule="evenodd"/><path stroke="#1DE9B6" stroke-width="1.25" d="M348.282 30.9492H351.998L354.431 32.7233H361.667"/><path stroke="#1DE9B6" stroke-width="1.25" d="M348.282 28.6592H361.667"/><path stroke="#1DE9B6" stroke-width="1.25" d="M348.282 26.3691H361.667"/><path fill="#434D72" fill-rule="evenodd" d="M362.292 189.043H371.693V55.623H362.292V189.043Z" clip-rule="evenodd"/><path fill="#031E28" fill-rule="evenodd" d="M354.792 63.1343H362.293V55.623H354.792V63.1343Z" clip-rule="evenodd"/><path fill="#434D72" fill-rule="evenodd" d="M354.792 179.704H362.293V63.1338H354.792V179.704Z" clip-rule="evenodd"/><path fill="#434D72" fill-rule="evenodd" d="M347.292 170.192H354.793V70.6436H347.292V170.192Z" clip-rule="evenodd"/><path fill="#031E28" fill-rule="evenodd" d="M347.292 70.6445H354.793V63.1338H347.292V70.6445Z" clip-rule="evenodd"/><path fill="#031E28" fill-rule="evenodd" d="M339.792 110.844H347.292V70.6436H339.792V110.844Z" clip-rule="evenodd"/><path fill="#01293C" fill-rule="evenodd" d="M352.778 189.043V80.083C352.778 76.9086 355.372 74.3105 358.543 74.3105C361.713 74.3105 364.307 76.9086 364.307 80.083V189.043H352.778Z" clip-rule="evenodd"/><path fill="#031E28" fill-rule="evenodd" d="M364.307 189.043V80.083C364.307 76.9086 361.714 74.3105 358.543 74.3105C357.886 74.3105 357.257 74.4274 356.668 74.6325C358.924 75.4168 360.557 77.5656 360.557 80.083V189.043H364.307Z" clip-rule="evenodd"/><path fill="#fff" fill-rule="evenodd" d="M343.537 143.517H356.353V105.711H343.537V143.517Z" clip-rule="evenodd"/><path fill="#434D72" fill-rule="evenodd" d="M322.616 146.012H343.536V105.711H322.616V146.012Z" clip-rule="evenodd"/><path fill="#fff" fill-rule="evenodd" d="M340.105 105.712H354.163V101.45H340.105V105.712Z" clip-rule="evenodd"/><path fill="#fff" fill-rule="evenodd" d="M340.105 101.449L347.134 96.6562L354.163 101.449" clip-rule="evenodd"/><path fill="#1DE9B6" fill-rule="evenodd" d="M333.077 96.6562H347.134L340.106 101.449L333.077 96.6562Z" clip-rule="evenodd"/><path stroke="#fff" stroke-width="1.25" d="M357.391 105.711H321.532"/><path stroke="#fff" stroke-width="1.25" d="M357.391 108.477H321.532"/><path stroke="#fff" stroke-width="1.25" d="M357.391 111.243H321.532"/><path stroke="#fff" stroke-width="1.25" d="M357.391 114.009H321.532"/></g><path fill="#fff" fill-rule="evenodd" d="M345.612 188.042H354.808V137.254H345.612V188.042Z" clip-rule="evenodd"/><path fill="#C3CBD8" fill-rule="evenodd" d="M326.298 188.042H345.606V137.254H326.298V188.042Z" clip-rule="evenodd"/><path fill="#C3CBD8" fill-rule="evenodd" d="M327.184 138.294L344.733 138.255V132.572L327.184 132.611V138.294Z" clip-rule="evenodd"/><path fill="#fff" fill-rule="evenodd" d="M344.733 138.294L354.174 138.255V132.572L344.733 132.611V138.294Z" clip-rule="evenodd"/><path fill="#1DE9B6" fill-rule="evenodd" d="M336.624 132.611V126.434H346.298L354.174 132.611" clip-rule="evenodd"/><path fill="#031E28" fill-rule="evenodd" d="M344.733 132.611L346.298 126.434H335.059L327.184 132.611" clip-rule="evenodd"/><path fill="#1DE9B6" fill-rule="evenodd" d="M348.092 145.389H352.328V142.123H348.092V145.389Z" clip-rule="evenodd"/><path fill="#1DE9B6" fill-rule="evenodd" d="M348.092 153.009H352.328V149.743H348.092V153.009Z" clip-rule="evenodd"/><path fill="#1DE9B6" fill-rule="evenodd" d="M348.092 160.629H352.328V157.363H348.092V160.629Z" clip-rule="evenodd"/><path fill="#1DE9B6" fill-rule="evenodd" d="M348.092 168.25H352.328V164.984H348.092V168.25Z" clip-rule="evenodd"/><path fill="#1DE9B6" fill-rule="evenodd" d="M348.092 183.491H352.328V180.225H348.092V183.491Z" clip-rule="evenodd"/><path fill="#1DE9B6" fill-rule="evenodd" d="M348.092 175.87H352.328V172.604H348.092V175.87Z" clip-rule="evenodd"/><path fill="#01293C" fill-rule="evenodd" d="M337.603 145.389H341.839V142.123H337.603V145.389Z" clip-rule="evenodd"/><path fill="#01293C" fill-rule="evenodd" d="M337.603 153.009H341.839V149.743H337.603V153.009Z" clip-rule="evenodd"/><path fill="#01293C" fill-rule="evenodd" d="M337.603 160.629H341.839V157.363H337.603V160.629Z" clip-rule="evenodd"/><path fill="#01293C" fill-rule="evenodd" d="M337.603 168.25H341.839V164.984H337.603V168.25Z" clip-rule="evenodd"/><path fill="#01293C" fill-rule="evenodd" d="M337.603 183.491H341.839V180.225H337.603V183.491Z" clip-rule="evenodd"/><path fill="#01293C" fill-rule="evenodd" d="M337.603 175.87H341.839V172.604H337.603V175.87Z" clip-rule="evenodd"/><path fill="#01293C" fill-rule="evenodd" d="M329.949 145.389H334.185V142.123H329.949V145.389Z" clip-rule="evenodd"/><path fill="#01293C" fill-rule="evenodd" d="M329.948 153.009H334.184V149.743H329.948V153.009Z" clip-rule="evenodd"/><path fill="#01293C" fill-rule="evenodd" d="M329.948 160.629H334.184V157.363H329.948V160.629Z" clip-rule="evenodd"/><path fill="#01293C" fill-rule="evenodd" d="M329.948 168.249H334.184V164.983H329.948V168.249Z" clip-rule="evenodd"/><path fill="#01293C" fill-rule="evenodd" d="M329.948 183.491H334.184V180.225H329.948V183.491Z" clip-rule="evenodd"/><path fill="#01293C" fill-rule="evenodd" d="M329.949 175.87H334.185V172.604H329.949V175.87Z" clip-rule="evenodd"/><path fill="#031E28" fill-rule="evenodd" d="M452.782 122.998L459.948 75.2402L466.373 122.998H452.782ZM474.526 19.8116C474.526 19.0693 474.032 17.832 472.55 17.832H447.099C445.616 17.832 445.122 19.0693 445.122 19.8116L415.721 189.043H442.902L449.075 147.743H469.584L475.265 189.043H502.445L474.526 19.8116Z" clip-rule="evenodd"/><path fill="#fff" fill-rule="evenodd" d="M452.782 122.998H466.373L459.948 75.2402L452.782 122.998Z" clip-rule="evenodd"/><mask id="mask11" width="88" height="173" x="415" y="17" mask-type="alpha" maskUnits="userSpaceOnUse"><path fill="#fff" fill-rule="evenodd" d="M447.099 17.832C445.616 17.832 445.122 19.0688 445.122 19.8116L415.721 189.042H442.902L449.075 147.743H469.584L475.265 189.042H502.445L474.526 19.8116C474.526 19.0688 474.033 17.832 472.55 17.832H447.099ZM459.948 75.2405L466.373 122.998H452.782L459.948 75.2405Z" clip-rule="evenodd"/></mask><g mask="url(#mask11)"><path fill="#fff" fill-rule="evenodd" d="M442.294 189.042L448.468 147.742H468.977L474.657 189.042H442.294Z" clip-rule="evenodd"/></g><mask id="mask12" width="88" height="173" x="415" y="17" mask-type="alpha" maskUnits="userSpaceOnUse"><path fill="#fff" fill-rule="evenodd" d="M447.099 17.832C445.616 17.832 445.122 19.0688 445.122 19.8116L415.721 189.042H442.902L449.075 147.743H469.584L475.265 189.042H502.445L474.526 19.8116C474.526 19.0688 474.033 17.832 472.55 17.832H447.099ZM459.948 75.2405L466.373 122.998H452.782L459.948 75.2405Z" clip-rule="evenodd"/></mask><g mask="url(#mask12)"><path fill="#173045" fill-rule="evenodd" d="M425.208 137.297H527.981V51.0459H425.208V137.297Z" clip-rule="evenodd"/><path fill="#434D72" fill-rule="evenodd" d="M475.489 175.701H503.189V69.7451H475.489V175.701Z" clip-rule="evenodd"/><path fill="#031E28" fill-rule="evenodd" d="M467.989 77.2549H475.489V69.7441H467.989V77.2549Z" clip-rule="evenodd"/><path fill="#434D72" fill-rule="evenodd" d="M467.989 175.701H475.489V77.2559H467.989V175.701Z" clip-rule="evenodd"/><path fill="#434D72" fill-rule="evenodd" d="M443.884 175.701H467.989V84.7666H443.884V175.701Z" clip-rule="evenodd"/><path fill="#031E28" fill-rule="evenodd" d="M460.489 84.7671H467.989V77.2559H460.489V84.7671Z" clip-rule="evenodd"/><path fill="#031E28" fill-rule="evenodd" d="M452.802 167.124H470.647V106.35H452.802V167.124Z" clip-rule="evenodd"/><path fill="#031E28" fill-rule="evenodd" d="M479.561 175.7H503.52V73.8223H479.561V175.7Z" clip-rule="evenodd"/><path fill="#031E28" fill-rule="evenodd" d="M472.062 175.701H496.021V81.334H472.062V175.701Z" clip-rule="evenodd"/><path fill="#031E28" fill-rule="evenodd" d="M446.14 175.701H475.443V88.8447H446.14V175.701Z" clip-rule="evenodd"/><path fill="#434D72" fill-rule="evenodd" d="M423.055 51.0461C423.055 36.5648 434.778 24.8252 449.239 24.8252C463.7 24.8252 475.423 36.5648 475.423 51.0461H423.055Z" clip-rule="evenodd"/></g><mask id="mask13" width="37" height="28" x="439" y="24" mask-type="alpha" maskUnits="userSpaceOnUse"><path fill="#fff" fill-rule="evenodd" d="M444.166 25.3173L439.696 51.0461H475.423C475.423 36.5648 463.7 24.8252 449.239 24.8252C447.503 24.8252 445.807 24.9944 444.166 25.3173Z" clip-rule="evenodd"/></mask><g mask="url(#mask13)"><path stroke="#737E90" stroke-width="1.25" d="M424.688 39.2656H431.054L432.973 40.6646H448.194"/></g><mask id="mask14" width="37" height="28" x="439" y="24" mask-type="alpha" maskUnits="userSpaceOnUse"><path fill="#fff" fill-rule="evenodd" d="M444.166 25.3173L439.696 51.0461H475.423C475.423 36.5648 463.7 24.8252 449.239 24.8252C447.503 24.8252 445.807 24.9944 444.166 25.3173Z" clip-rule="evenodd"/></mask><g mask="url(#mask14)"><path stroke="#737E90" stroke-width="1.25" d="M475.423 42.064H465.335L463.416 40.665H448.194"/></g><mask id="mask15" width="37" height="28" x="439" y="24" mask-type="alpha" maskUnits="userSpaceOnUse"><path fill="#fff" fill-rule="evenodd" d="M444.166 25.3173L439.696 51.0461H475.423C475.423 36.5648 463.7 24.8252 449.239 24.8252C447.503 24.8252 445.807 24.9944 444.166 25.3173Z" clip-rule="evenodd"/></mask><g mask="url(#mask15)"><path stroke="#737E90" stroke-width="1.25" d="M424.688 37.4541H473.548"/></g><mask id="mask16" width="37" height="28" x="439" y="24" mask-type="alpha" maskUnits="userSpaceOnUse"><path fill="#fff" fill-rule="evenodd" d="M444.166 25.3173L439.696 51.0461H475.423C475.423 36.5648 463.7 24.8252 449.239 24.8252C447.503 24.8252 445.807 24.9944 444.166 25.3173Z" clip-rule="evenodd"/></mask><g mask="url(#mask16)"><path stroke="#1DE9B6" stroke-width="1.25" d="M443.75 44.3369V46.1285"/></g><mask id="mask17" width="37" height="28" x="439" y="24" mask-type="alpha" maskUnits="userSpaceOnUse"><path fill="#fff" fill-rule="evenodd" d="M444.166 25.3173L439.696 51.0461H475.423C475.423 36.5648 463.7 24.8252 449.239 24.8252C447.503 24.8252 445.807 24.9944 444.166 25.3173Z" clip-rule="evenodd"/></mask><g mask="url(#mask17)"><path stroke="#1DE9B6" stroke-width="1.25" d="M445.213 43.4756V46.8174"/></g><mask id="mask18" width="37" height="28" x="439" y="24" mask-type="alpha" maskUnits="userSpaceOnUse"><path fill="#fff" fill-rule="evenodd" d="M444.166 25.3173L439.696 51.0461H475.423C475.423 36.5648 463.7 24.8252 449.239 24.8252C447.503 24.8252 445.807 24.9944 444.166 25.3173Z" clip-rule="evenodd"/></mask><g mask="url(#mask18)"><path stroke="#1DE9B6" stroke-width="1.25" d="M446.677 43.0273V47.2642"/></g><mask id="mask19" width="37" height="28" x="439" y="24" mask-type="alpha" maskUnits="userSpaceOnUse"><path fill="#fff" fill-rule="evenodd" d="M444.166 25.3173L439.696 51.0461H475.423C475.423 36.5648 463.7 24.8252 449.239 24.8252C447.503 24.8252 445.807 24.9944 444.166 25.3173Z" clip-rule="evenodd"/></mask><g mask="url(#mask19)"><path stroke="#1DE9B6" stroke-width="1.25" d="M448.141 43.877V46.1281"/></g><mask id="mask20" width="37" height="28" x="439" y="24" mask-type="alpha" maskUnits="userSpaceOnUse"><path fill="#fff" fill-rule="evenodd" d="M444.166 25.3173L439.696 51.0461H475.423C475.423 36.5648 463.7 24.8252 449.239 24.8252C447.503 24.8252 445.807 24.9944 444.166 25.3173Z" clip-rule="evenodd"/></mask><g mask="url(#mask20)"><path stroke="#1DE9B6" stroke-width="1.25" d="M449.604 43.0273V47.2642"/></g><mask id="mask21" width="37" height="28" x="439" y="24" mask-type="alpha" maskUnits="userSpaceOnUse"><path fill="#fff" fill-rule="evenodd" d="M444.166 25.3173L439.696 51.0461H475.423C475.423 36.5648 463.7 24.8252 449.239 24.8252C447.503 24.8252 445.807 24.9944 444.166 25.3173Z" clip-rule="evenodd"/></mask><g mask="url(#mask21)"><path stroke="#1DE9B6" stroke-width="1.25" d="M452.531 44.3369V46.1285"/></g><mask id="mask22" width="37" height="28" x="439" y="24" mask-type="alpha" maskUnits="userSpaceOnUse"><path fill="#fff" fill-rule="evenodd" d="M444.166 25.3173L439.696 51.0461H475.423C475.423 36.5648 463.7 24.8252 449.239 24.8252C447.503 24.8252 445.807 24.9944 444.166 25.3173Z" clip-rule="evenodd"/></mask><g mask="url(#mask22)"><path stroke="#1DE9B6" stroke-width="1.25" d="M451.067 43.4756V46.8174"/></g><mask id="mask23" width="37" height="28" x="439" y="24" mask-type="alpha" maskUnits="userSpaceOnUse"><path fill="#fff" fill-rule="evenodd" d="M444.166 25.3173L439.696 51.0461H475.423C475.423 36.5648 463.7 24.8252 449.239 24.8252C447.503 24.8252 445.807 24.9944 444.166 25.3173Z" clip-rule="evenodd"/></mask><g mask="url(#mask23)"><path stroke="#1DE9B6" stroke-width="1.25" d="M453.995 43.4756V46.8174"/></g><mask id="mask24" width="37" height="28" x="439" y="24" mask-type="alpha" maskUnits="userSpaceOnUse"><path fill="#fff" fill-rule="evenodd" d="M444.166 25.3173L439.696 51.0461H475.423C475.423 36.5648 463.7 24.8252 449.239 24.8252C447.503 24.8252 445.807 24.9944 444.166 25.3173Z" clip-rule="evenodd"/></mask><g mask="url(#mask24)"><path stroke="#1DE9B6" stroke-width="1.25" d="M455.458 43.0273V47.2642"/></g><mask id="mask25" width="37" height="28" x="439" y="24" mask-type="alpha" maskUnits="userSpaceOnUse"><path fill="#fff" fill-rule="evenodd" d="M444.166 25.3173L439.696 51.0461H475.423C475.423 36.5648 463.7 24.8252 449.239 24.8252C447.503 24.8252 445.807 24.9944 444.166 25.3173Z" clip-rule="evenodd"/></mask><g mask="url(#mask25)"><path stroke="#1DE9B6" stroke-width="1.25" d="M456.922 43.877V46.1281"/></g><mask id="mask26" width="37" height="28" x="439" y="24" mask-type="alpha" maskUnits="userSpaceOnUse"><path fill="#fff" fill-rule="evenodd" d="M444.166 25.3173L439.696 51.0461H475.423C475.423 36.5648 463.7 24.8252 449.239 24.8252C447.503 24.8252 445.807 24.9944 444.166 25.3173Z" clip-rule="evenodd"/></mask><g mask="url(#mask26)"><path stroke="#1DE9B6" stroke-width="1.25" d="M458.386 43.0273V47.2642"/></g><mask id="mask27" width="37" height="28" x="439" y="24" mask-type="alpha" maskUnits="userSpaceOnUse"><path fill="#fff" fill-rule="evenodd" d="M444.166 25.3173L439.696 51.0461H475.423C475.423 36.5648 463.7 24.8252 449.239 24.8252C447.503 24.8252 445.807 24.9944 444.166 25.3173Z" clip-rule="evenodd"/></mask><g mask="url(#mask27)"><path stroke="#1DE9B6" stroke-width="1.25" d="M461.312 44.3369V46.1285"/></g><mask id="mask28" width="37" height="28" x="439" y="24" mask-type="alpha" maskUnits="userSpaceOnUse"><path fill="#fff" fill-rule="evenodd" d="M444.166 25.3173L439.696 51.0461H475.423C475.423 36.5648 463.7 24.8252 449.239 24.8252C447.503 24.8252 445.807 24.9944 444.166 25.3173Z" clip-rule="evenodd"/></mask><g mask="url(#mask28)"><path stroke="#1DE9B6" stroke-width="1.25" d="M459.849 43.4756V46.8174"/></g><mask id="mask29" width="88" height="173" x="415" y="17" mask-type="alpha" maskUnits="userSpaceOnUse"><path fill="#fff" fill-rule="evenodd" d="M447.099 17.832C445.616 17.832 445.122 19.0688 445.122 19.8116L415.721 189.042H443L449.075 147.743H469.584L475.265 189.042H502.445L474.526 19.8116C474.526 19.0688 474.033 17.832 472.55 17.832H447.099ZM459.948 75.2405L466.373 122.998H452.782L459.948 75.2405Z" clip-rule="evenodd"/></mask><g mask="url(#mask29)"><path fill="#434D72" fill-rule="evenodd" d="M473.825 138.944C473.825 120.579 488.692 105.691 507.031 105.691C525.369 105.691 540.236 120.579 540.236 138.944H473.825Z" clip-rule="evenodd"/></g><mask id="mask30" width="22" height="29" x="473" y="110" mask-type="alpha" maskUnits="userSpaceOnUse"><path fill="#fff" fill-rule="evenodd" d="M473.825 138.944H494.18L489.518 110.688C480.096 116.555 473.825 127.016 473.825 138.944Z" clip-rule="evenodd"/></mask><g mask="url(#mask30)"><path fill="#1DE9B6" fill-rule="evenodd" d="M481.789 131.461C481.789 131.904 481.431 132.263 480.989 132.263C480.547 132.263 480.188 131.904 480.188 131.461C480.188 131.019 480.547 130.66 480.989 130.66C481.431 130.66 481.789 131.019 481.789 131.461Z" clip-rule="evenodd"/></g><mask id="mask31" width="22" height="29" x="473" y="110" mask-type="alpha" maskUnits="userSpaceOnUse"><path fill="#fff" fill-rule="evenodd" d="M473.825 138.944H494.18L489.518 110.688C480.096 116.555 473.825 127.016 473.825 138.944Z" clip-rule="evenodd"/></mask><g mask="url(#mask31)"><path fill="#1DE9B6" fill-rule="evenodd" d="M489.834 131.461C489.834 131.904 489.475 132.263 489.033 132.263C488.591 132.263 488.233 131.904 488.233 131.461C488.233 131.019 488.591 130.66 489.033 130.66C489.475 130.66 489.834 131.019 489.834 131.461Z" clip-rule="evenodd"/></g><mask id="mask32" width="22" height="29" x="473" y="110" mask-type="alpha" maskUnits="userSpaceOnUse"><path fill="#fff" fill-rule="evenodd" d="M473.825 138.944H494.18L489.518 110.688C480.096 116.555 473.825 127.016 473.825 138.944Z" clip-rule="evenodd"/></mask><g mask="url(#mask32)"><path fill="#1DE9B6" fill-rule="evenodd" d="M493.857 131.461C493.857 131.904 493.498 132.263 493.056 132.263C492.614 132.263 492.256 131.904 492.256 131.461C492.256 131.019 492.614 130.66 493.056 130.66C493.498 130.66 493.857 131.019 493.857 131.461Z" clip-rule="evenodd"/></g><mask id="mask33" width="22" height="29" x="473" y="110" mask-type="alpha" maskUnits="userSpaceOnUse"><path fill="#fff" fill-rule="evenodd" d="M473.825 138.944H494.18L489.518 110.688C480.096 116.555 473.825 127.016 473.825 138.944Z" clip-rule="evenodd"/></mask><g mask="url(#mask33)"><path fill="#1DE9B6" fill-rule="evenodd" d="M485.811 131.461C485.811 131.904 485.453 132.263 485.011 132.263C484.569 132.263 484.21 131.904 484.21 131.461C484.21 131.019 484.569 130.66 485.011 130.66C485.453 130.66 485.811 131.019 485.811 131.461Z" clip-rule="evenodd"/></g><mask id="mask34" width="22" height="29" x="473" y="110" mask-type="alpha" maskUnits="userSpaceOnUse"><path fill="#fff" fill-rule="evenodd" d="M473.825 138.944H494.18L489.518 110.688C480.096 116.555 473.825 127.016 473.825 138.944Z" clip-rule="evenodd"/></mask><g mask="url(#mask34)"><path stroke="#1DE9B6" stroke-width="1.25" d="M475.896 124.006H483.969L486.402 125.78H505.707"/></g><mask id="mask35" width="22" height="29" x="473" y="110" mask-type="alpha" maskUnits="userSpaceOnUse"><path fill="#fff" fill-rule="evenodd" d="M473.825 138.944H494.18L489.518 110.688C480.096 116.555 473.825 127.016 473.825 138.944Z" clip-rule="evenodd"/></mask><g mask="url(#mask35)"><path stroke="#1DE9B6" stroke-width="1.25" d="M475.896 121.707H537.859"/></g><mask id="mask36" width="88" height="173" x="415" y="16" mask-type="alpha" maskUnits="userSpaceOnUse"><path fill="#fff" fill-rule="evenodd" d="M447.099 16.832C445.616 16.832 445.122 18.0688 445.122 18.8116L415.721 188.042H442.902L449.075 146.743H469.584L475.265 188.042H502.445L474.526 18.8116C474.526 18.0688 474.033 16.832 472.55 16.832H447.099ZM459.948 74.2405L466.373 121.998H452.782L459.948 74.2405Z" clip-rule="evenodd"/></mask><g mask="url(#mask36)"><path fill="#434D72" fill-rule="evenodd" d="M521.673 188.042H409.692L420.613 136.297H521.673V188.042Z" clip-rule="evenodd"/></g><mask id="mask37" width="88" height="173" x="415" y="16" mask-type="alpha" maskUnits="userSpaceOnUse"><path fill="#fff" fill-rule="evenodd" d="M447.099 16.832C445.616 16.832 445.122 18.0688 445.122 18.8116L415.721 188.042H442.902L449.075 146.743H469.584L475.265 188.042H502.445L474.526 18.8116C474.526 18.0688 474.033 16.832 472.55 16.832H447.099ZM459.948 74.2405L466.373 121.998H452.782L459.948 74.2405Z" clip-rule="evenodd"/></mask><g mask="url(#mask37)"><path fill="#2A3D58" fill-rule="evenodd" d="M474.897 188.042H505.272V174.039H474.897V188.042Z" clip-rule="evenodd"/><path fill="#173045" fill-rule="evenodd" d="M465.402 188.041H482.966V141.949H465.402V188.041Z" clip-rule="evenodd"/><path fill="#18FFFF" fill-rule="evenodd" d="M468.951 154.143C468.951 154.586 468.593 154.945 468.15 154.945C467.708 154.945 467.35 154.586 467.35 154.143C467.35 153.7 467.708 153.342 468.15 153.342C468.593 153.342 468.951 153.7 468.951 154.143Z" clip-rule="evenodd"/><path fill="#18FFFF" fill-rule="evenodd" d="M476.996 154.143C476.996 154.586 476.637 154.945 476.195 154.945C475.753 154.945 475.395 154.586 475.395 154.143C475.395 153.7 475.753 153.342 476.195 153.342C476.637 153.342 476.996 153.7 476.996 154.143Z" clip-rule="evenodd"/><path fill="#18FFFF" fill-rule="evenodd" d="M481.018 154.143C481.018 154.586 480.66 154.945 480.218 154.945C479.776 154.945 479.417 154.586 479.417 154.143C479.417 153.7 479.776 153.342 480.218 153.342C480.66 153.342 481.018 153.7 481.018 154.143Z" clip-rule="evenodd"/><path fill="#18FFFF" fill-rule="evenodd" d="M472.973 154.143C472.973 154.586 472.615 154.945 472.173 154.945C471.731 154.945 471.373 154.586 471.373 154.143C471.373 153.7 471.731 153.342 472.173 153.342C472.615 153.342 472.973 153.7 472.973 154.143Z" clip-rule="evenodd"/><path stroke="#737E90" stroke-width="1.25" d="M467.415 149.547H471.131L473.563 151.321H480.8"/><path stroke="#737E90" stroke-width="1.25" d="M467.415 147.257H480.8"/><path stroke="#737E90" stroke-width="1.25" d="M467.415 144.967H480.8"/><path fill="#18FFFF" fill-rule="evenodd" d="M468.951 168C468.951 168.442 468.593 168.801 468.15 168.801C467.708 168.801 467.35 168.442 467.35 168C467.35 167.557 467.708 167.198 468.15 167.198C468.593 167.198 468.951 167.557 468.951 168Z" clip-rule="evenodd"/><path fill="#18FFFF" fill-rule="evenodd" d="M476.996 168C476.996 168.442 476.637 168.801 476.195 168.801C475.753 168.801 475.395 168.442 475.395 168C475.395 167.557 475.753 167.198 476.195 167.198C476.637 167.198 476.996 167.557 476.996 168Z" clip-rule="evenodd"/><path fill="#18FFFF" fill-rule="evenodd" d="M481.018 168C481.018 168.442 480.66 168.801 480.218 168.801C479.776 168.801 479.417 168.442 479.417 168C479.417 167.557 479.776 167.198 480.218 167.198C480.66 167.198 481.018 167.557 481.018 168Z" clip-rule="evenodd"/><path fill="#18FFFF" fill-rule="evenodd" d="M472.973 168C472.973 168.442 472.615 168.801 472.173 168.801C471.731 168.801 471.373 168.442 471.373 168C471.373 167.557 471.731 167.198 472.173 167.198C472.615 167.198 472.973 167.557 472.973 168Z" clip-rule="evenodd"/><path stroke="#737E90" stroke-width="1.25" d="M467.415 163.402H471.131L473.563 165.176H480.8"/><path stroke="#737E90" stroke-width="1.25" d="M467.415 161.113H480.8"/><path stroke="#737E90" stroke-width="1.25" d="M467.415 158.823H480.8"/><path fill="#434D72" fill-rule="evenodd" d="M399.318 188.041H427.018V150.185H399.318V188.041Z" clip-rule="evenodd"/><path fill="#031E28" fill-rule="evenodd" d="M427.018 157.695H434.518V150.185H427.018V157.695Z" clip-rule="evenodd"/><path fill="#434D72" fill-rule="evenodd" d="M427.018 188.042H434.518V157.695H427.018V188.042Z" clip-rule="evenodd"/><path fill="#434D72" fill-rule="evenodd" d="M434.518 188.042H442.018V165.206H434.518V188.042Z" clip-rule="evenodd"/><path fill="#031E28" fill-rule="evenodd" d="M434.518 165.206H442.018V157.695H434.518V165.206Z" clip-rule="evenodd"/><path fill="#031E28" fill-rule="evenodd" d="M442.018 188.042H449.518V165.206H442.018V188.042Z" clip-rule="evenodd"/><path fill="#031E28" fill-rule="evenodd" d="M398.987 188.041H422.946V154.262H398.987V188.041Z" clip-rule="evenodd"/><path fill="#031E28" fill-rule="evenodd" d="M406.487 188.042H430.446V161.773H406.487V188.042Z" clip-rule="evenodd"/><path fill="#031E28" fill-rule="evenodd" d="M413.986 188.041H437.945V169.283H413.986V188.041Z" clip-rule="evenodd"/></g><rect width="534" height="183" x="-1" y="188" fill="#0F2631"/><path fill="#fff" fill-rule="evenodd" d="M432.181 137.298H449.347V81.2129H432.181V137.298Z" clip-rule="evenodd"/><path fill="#C3CBD8" fill-rule="evenodd" d="M424.768 137.298H432.181V81.2129H424.768V137.298Z" clip-rule="evenodd"/><path fill="#C3CBD8" fill-rule="evenodd" d="M432.181 81.2133L428.474 77.502L424.768 81.2133H432.181Z" clip-rule="evenodd"/><path fill="#1DE9B6" fill-rule="evenodd" d="M449.347 81.2133L445.641 77.502L441.935 81.2133H449.347Z" clip-rule="evenodd"/><path fill="#434D72" fill-rule="evenodd" d="M435.763 89.6198C435.763 92.3856 438.002 94.6277 440.764 94.6277C443.526 94.6277 445.765 92.3856 445.765 89.6198C445.765 86.8539 443.526 84.6113 440.764 84.6113C438.002 84.6113 435.763 86.8539 435.763 89.6198Z" clip-rule="evenodd"/><path fill="#2E3554" fill-rule="evenodd" d="M443.334 89.6198C443.334 87.2739 441.722 85.3113 439.548 84.7664C439.938 84.6688 440.344 84.6113 440.764 84.6113C443.526 84.6113 445.765 86.8539 445.765 89.6198C445.765 92.3856 443.526 94.6277 440.764 94.6277C440.344 94.6277 439.938 94.5702 439.548 94.4726C441.722 93.9282 443.334 91.9651 443.334 89.6198Z" clip-rule="evenodd"/><path fill="#434D72" fill-rule="evenodd" d="M435.763 103.558C435.763 106.324 438.002 108.566 440.764 108.566C443.526 108.566 445.765 106.324 445.765 103.558C445.765 100.792 443.526 98.5498 440.764 98.5498C438.002 98.5498 435.763 100.792 435.763 103.558Z" clip-rule="evenodd"/><path fill="#2E3554" fill-rule="evenodd" d="M443.334 103.558C443.334 101.212 441.722 99.2493 439.548 98.7049C439.938 98.6073 440.344 98.5498 440.764 98.5498C443.526 98.5498 445.765 100.792 445.765 103.558C445.765 106.324 443.526 108.566 440.764 108.566C440.344 108.566 439.938 108.509 439.548 108.411C441.722 107.866 443.334 105.903 443.334 103.558Z" clip-rule="evenodd"/><path fill="#031E28" fill-rule="evenodd" d="M427.137 113.414H428.917V84.793H427.137V113.414Z" clip-rule="evenodd"/><path fill="#031E28" fill-rule="evenodd" d="M428.917 88.8506H410.522C409.428 88.8506 408.534 89.7461 408.534 90.8415V108.525C408.534 109.62 409.428 110.516 410.522 110.516H428.917" clip-rule="evenodd"/><path fill="#18FFFF" fill-rule="evenodd" d="M424.245 102.577V95.6617V93.6496C424.245 93.5219 424.188 93.4012 424.09 93.3197C423.993 93.2386 423.864 93.2042 423.739 93.2282L416.208 94.6333C416.005 94.6715 415.859 94.8482 415.859 95.0547V97.0673V103.008C415.507 102.804 415.074 102.681 414.596 102.681C413.401 102.681 412.466 103.424 412.466 104.373C412.466 105.321 413.401 106.063 414.596 106.063C415.728 106.063 416.617 105.393 416.708 104.515C416.708 104.505 416.714 104.495 416.714 104.484V104.464C416.716 104.433 416.725 104.404 416.725 104.373C416.725 104.34 416.716 104.311 416.714 104.28V97.4226L423.39 96.1774V101.305C423.038 101.101 422.605 100.978 422.127 100.978C420.932 100.978 419.997 101.721 419.997 102.669C419.997 103.617 420.932 104.36 422.127 104.36C423.321 104.36 424.256 103.617 424.256 102.669C424.256 102.638 424.247 102.608 424.245 102.577Z" clip-rule="evenodd"/><path fill="#031E28" fill-rule="evenodd" d="M257.656 276.352H287.992V188.1H257.656V276.352Z" clip-rule="evenodd"/><path fill="#031E28" fill-rule="evenodd" d="M312.39 301.936H342.727V248.401H312.39V301.936Z" clip-rule="evenodd"/><path fill="#031E28" fill-rule="evenodd" d="M350.797 271.634H381.134V188.1H350.797V271.634Z" clip-rule="evenodd"/><path fill="#031E28" fill-rule="evenodd" d="M443.938 276.352H474.275V188.1H443.938V276.352Z" clip-rule="evenodd"/><path fill="#031E28" fill-rule="evenodd" d="M0 276H337V248H0V276Z" clip-rule="evenodd"/><path fill="#031E28" fill-rule="evenodd" d="M316.585 276.352H466.315V248.401H316.585V276.352Z" clip-rule="evenodd"/><path fill="#2A3D58" fill-rule="evenodd" d="M282.186 326.471H454.865V256.104H282.186V326.471Z" clip-rule="evenodd"/><path fill="#434D72" fill-rule="evenodd" d="M451.009 322.566H286.083V260.006H369.541H451.009V322.566Z" clip-rule="evenodd"/><path stroke="#1DE9B6" stroke-width="1.25" d="M313.298 309.408C312.539 308.894 311.831 308.309 311.185 307.662C310.539 307.015 309.954 306.306 309.441 305.546C308.927 304.785 308.485 303.973 308.124 303.118C307.762 302.264 307.482 301.366 307.291 300.437C307.101 299.507 307 298.545 307 297.56V296.027V294.493V292.961V291.427V289.894V288.36"/><path stroke="#1DE9B6" stroke-width="1.25" d="M333.103 305.545C332.589 306.305 332.005 307.014 331.358 307.661C330.713 308.308 330.005 308.893 329.246 309.408C328.486 309.922 327.675 310.365 326.822 310.727C325.968 311.089 325.073 311.37 324.144 311.561C323.216 311.751 322.256 311.852 321.271 311.852C320.288 311.852 319.327 311.751 318.399 311.561C317.471 311.37 316.575 311.089 315.722 310.727"/><path stroke="#1DE9B6" stroke-width="1.25" d="M335.543 292.961V294.494V296.027V297.561C335.543 298.546 335.444 299.508 335.253 300.438C335.062 301.367 334.782 302.264 334.42 303.119"/><path stroke="#1DE9B6" stroke-width="1.25" d="M333.103 277.309C333.616 278.069 334.058 278.881 334.42 279.736C334.781 280.591 335.062 281.487 335.253 282.417C335.443 283.347 335.543 284.309 335.543 285.294V286.827V288.36V289.894"/><path stroke="#1DE9B6" stroke-width="1.25" d="M318.399 271.292C319.328 271.101 320.288 271.001 321.272 271.001C322.256 271.001 323.216 271.101 324.145 271.292C325.073 271.482 325.969 271.764 326.822 272.126C327.675 272.488 328.486 272.931 329.246 273.445C330.005 273.959 330.713 274.544 331.359 275.192"/><path stroke="#1DE9B6" stroke-width="1.25" d="M307 285.293C307 284.308 307.1 283.346 307.29 282.416C307.481 281.487 307.762 280.59 308.123 279.735C308.485 278.881 308.927 278.069 309.441 277.308C309.954 276.548 310.539 275.839 311.185 275.192C311.831 274.545 312.538 273.96 313.298 273.445"/><path stroke="#1DE9B6" stroke-width="1.25" d="M310.742 302.012C310.452 301.327 310.227 300.608 310.075 299.864C309.922 299.12 309.842 298.349 309.842 297.561V296.027V294.494V292.96V291.427"/><path stroke="#1DE9B6" stroke-width="1.25" d="M321.272 309.007C320.484 309.007 319.715 308.926 318.971 308.774C318.228 308.621 317.511 308.396 316.827 308.106C316.144 307.816 315.494 307.461 314.886 307.049C314.278 306.637 313.711 306.169 313.194 305.651C312.677 305.133 312.208 304.565 311.797 303.956"/><path stroke="#1DE9B6" stroke-width="1.25" d="M332.702 294.493V296.026V297.56C332.702 298.349 332.622 299.119 332.469 299.864C332.317 300.608 332.092 301.327 331.802 302.011C331.513 302.695 331.158 303.346 330.747 303.955C330.335 304.564 329.868 305.132 329.35 305.65C328.833 306.168 328.266 306.637 327.658 307.049C327.05 307.461 326.4 307.815 325.716 308.105"/><path stroke="#1DE9B6" stroke-width="1.25" d="M332.469 282.989C332.622 283.733 332.702 284.504 332.702 285.293V286.826V288.36V289.893V291.426"/><path stroke="#1DE9B6" stroke-width="1.25" d="M318.971 274.08C319.714 273.927 320.484 273.847 321.272 273.847C322.06 273.847 322.829 273.927 323.572 274.08C324.316 274.232 325.033 274.458 325.716 274.747C326.4 275.037 327.05 275.392 327.658 275.804C328.266 276.216 328.833 276.685 329.35 277.203C329.867 277.721 330.336 278.289 330.747 278.898"/><path stroke="#1DE9B6" stroke-width="1.25" d="M311.797 278.898C312.208 278.289 312.677 277.721 313.194 277.203C313.711 276.685 314.278 276.216 314.886 275.805"/><path stroke="#1DE9B6" stroke-width="1.25" d="M309.842 288.359V286.825V285.292C309.842 284.503 309.922 283.733 310.075 282.988"/><path stroke="#1DE9B6" stroke-width="1.25" d="M312.684 289.893V288.36V286.826V285.293C312.684 284.701 312.744 284.124 312.86 283.565C312.974 283.007 313.144 282.468 313.361 281.953C313.58 281.44 313.847 280.951 314.156 280.493"/><path stroke="#1DE9B6" stroke-width="1.25" d="M313.361 300.9C313.143 300.386 312.974 299.847 312.859 299.289C312.744 298.73 312.684 298.152 312.684 297.561V296.027V294.494V292.961"/><path stroke="#1DE9B6" stroke-width="1.25" d="M324.607 305.48C324.093 305.699 323.555 305.868 322.998 305.983C322.44 306.099 321.862 306.159 321.272 306.159C320.682 306.159 320.105 306.099 319.547 305.983C318.989 305.868 318.451 305.699 317.938 305.48C317.424 305.262 316.936 304.995 316.479 304.685C316.022 304.375 315.596 304.023 315.207 303.633"/><path stroke="#1DE9B6" stroke-width="1.25" d="M329.86 294.493V296.026V297.56C329.86 298.151 329.799 298.729 329.684 299.288C329.569 299.846 329.4 300.385 329.182 300.899C328.964 301.413 328.697 301.902 328.388 302.359C328.078 302.817 327.726 303.244 327.337 303.634"/><path stroke="#1DE9B6" stroke-width="1.25" d="M329.86 288.359V289.893V291.426"/><path stroke="#1DE9B6" stroke-width="1.25" d="M327.337 279.219C327.726 279.609 328.078 280.035 328.388 280.493C328.697 280.951 328.964 281.44 329.182 281.953C329.4 282.468 329.569 283.006 329.684 283.565C329.799 284.123 329.86 284.701 329.86 285.293"/><path stroke="#1DE9B6" stroke-width="1.25" d="M316.479 278.167C316.936 277.858 317.424 277.59 317.937 277.372C318.45 277.154 318.989 276.984 319.546 276.869C320.104 276.754 320.681 276.693 321.271 276.693C321.862 276.693 322.439 276.754 322.997 276.869C323.555 276.984 324.093 277.154 324.606 277.372"/><path stroke="#1DE9B6" stroke-width="1.25" d="M317.394 301.445C317.145 301.196 316.921 300.924 316.723 300.631C316.526 300.338 316.356 300.026 316.217 299.698C316.078 299.369 315.97 299.024 315.896 298.666C315.823 298.309 315.785 297.939 315.785 297.561V296.027V294.494V292.96V291.427"/><path stroke="#1DE9B6" stroke-width="1.25" d="M325.151 301.444C324.902 301.693 324.63 301.918 324.338 302.116C324.046 302.313 323.734 302.484 323.406 302.623C323.078 302.762 322.733 302.87 322.376 302.944C322.02 303.017 321.65 303.056 321.272 303.056C320.894 303.056 320.524 303.017 320.168 302.944C319.811 302.87 319.466 302.762 319.138 302.623"/><path stroke="#1DE9B6" stroke-width="1.25" d="M326.76 288.359V289.893V291.426V292.96V294.493V296.026V297.56C326.76 297.938 326.721 298.308 326.648 298.666C326.575 299.023 326.467 299.368 326.328 299.697"/><path stroke="#1DE9B6" stroke-width="1.25" d="M320.167 279.91C320.524 279.837 320.893 279.798 321.272 279.798C321.65 279.798 322.02 279.837 322.376 279.91C322.733 279.983 323.078 280.091 323.406 280.231C323.734 280.37 324.046 280.54 324.338 280.738C324.629 280.935 324.902 281.16 325.15 281.409C325.399 281.658 325.623 281.93 325.821 282.222C326.018 282.515 326.188 282.827 326.327 283.156C326.466 283.485 326.574 283.829 326.648 284.187C326.721 284.544 326.759 284.914 326.759 285.293"/><path stroke="#1DE9B6" stroke-width="1.25" d="M315.785 288.361V286.827V285.294C315.785 284.915 315.823 284.545 315.896 284.188C315.97 283.83 316.078 283.485 316.217 283.157C316.356 282.828 316.526 282.516 316.723 282.223C316.921 281.931 317.145 281.658 317.394 281.41C317.642 281.161 317.914 280.936 318.206 280.738"/><path stroke="#1DE9B6" stroke-width="1.25" d="M318.885 294.494V292.961V291.427V289.894"/><path stroke="#1DE9B6" stroke-width="1.25" d="M323.659 292.961V294.494V296.027V297.561C323.659 297.726 323.642 297.886 323.611 298.042C323.579 298.197 323.532 298.348 323.471 298.49C323.411 298.633 323.337 298.769 323.251 298.897C323.165 299.024 323.067 299.142 322.959 299.251C322.851 299.359 322.733 299.456 322.606 299.543C322.479 299.628 322.343 299.703 322.2 299.764C322.058 299.824 321.908 299.871 321.753 299.903C321.597 299.935 321.436 299.952 321.272 299.952C321.107 299.952 320.947 299.935 320.791 299.903C320.636 299.871 320.486 299.824 320.344 299.764C320.201 299.703 320.065 299.628 319.938 299.543C319.811 299.456 319.693 299.359 319.585 299.251C319.477 299.142 319.379 299.024 319.293 298.897C319.207 298.769 319.133 298.633 319.073 298.49C319.012 298.348 318.965 298.197 318.933 298.042C318.902 297.886 318.885 297.726 318.885 297.561"/><path stroke="#1DE9B6" stroke-width="1.25" d="M323.61 284.812C323.642 284.968 323.659 285.129 323.659 285.294V286.827V288.36V289.894"/><path stroke="#1DE9B6" stroke-width="1.25" d="M318.885 286.826V285.293C318.885 285.128 318.902 284.967 318.934 284.812C318.965 284.656 319.012 284.506 319.073 284.363C319.133 284.221 319.207 284.085 319.293 283.957C319.379 283.83 319.477 283.712 319.585 283.603C319.693 283.495 319.811 283.397 319.938 283.311C320.065 283.225 320.201 283.151 320.344 283.09C320.486 283.03 320.636 282.983 320.791 282.951C320.947 282.919 321.107 282.902 321.272 282.902C321.436 282.902 321.597 282.919 321.753 282.951C321.908 282.983 322.058 283.03 322.2 283.09C322.343 283.151 322.479 283.225 322.606 283.311"/><path fill="#0F2631" fill-rule="evenodd" d="M22.8687 611.938H256.992V378.354H22.8687V611.938Z" clip-rule="evenodd"/><path stroke="#031E28" stroke-width="15" d="M110.197 451.397V441.857C110.197 428.183 121.307 417.099 135.013 417.099C148.718 417.099 159.828 428.183 159.828 441.857V451.397"/><path stroke="#2A3D58" stroke-width="15" d="M116.122 451.397V441.857C116.122 428.183 127.232 417.099 140.937 417.099C154.643 417.099 165.753 428.183 165.753 441.857V451.397"/><path stroke="#2A3D58" stroke-width="1.25" d="M50.7344 422.176L74.6058 445.992"/><path stroke="#2A3D58" stroke-width="1.25" d="M50.7344 428.543L68.2239 445.992"/><path stroke="#2A3D58" stroke-width="1.25" d="M50.7344 434.91L61.8419 445.992"/><path stroke="#2A3D58" stroke-width="1.25" d="M50.7344 441.277L55.46 445.992"/><path stroke="#2A3D58" stroke-width="1.25" d="M69.8804 422.176L74.606 426.891"/><path stroke="#2A3D58" stroke-width="1.25" d="M63.4985 422.176L74.6061 433.258"/><path stroke="#2A3D58" stroke-width="1.25" d="M57.1167 422.176L74.6058 439.625"/><path stroke="#031E28" stroke-width="1.5" d="M162 301L210 349"/><path stroke="#031E28" stroke-width="1.5" d="M162 313.832L197.167 348.999"/><path stroke="#031E28" stroke-width="1.5" d="M162 326.665L184.335 349"/><path stroke="#031E28" stroke-width="1.5" d="M162 339.497L171.502 348.999"/><path stroke="#031E28" stroke-width="1.5" d="M200.498 301L210 310.502"/><path stroke="#031E28" stroke-width="1.5" d="M187.665 301L210 323.335"/><path stroke="#031E28" stroke-width="1.5" d="M174.833 301L210 336.167"/><path fill-rule="evenodd" stroke="#18FFFF" stroke-width="1.25" d="M221.219 394.102C221.219 349.311 184.824 313 139.93 313C95.0353 313 58.6416 349.311 58.6416 394.102C58.6416 438.893 95.0353 475.203 139.93 475.203C184.824 475.203 221.219 438.893 221.219 394.102Z" clip-rule="evenodd"/><path fill="#173045" fill-rule="evenodd" d="M200.178 489.523C196.236 489.523 193.041 492.711 193.041 496.644H200.178V489.523Z" clip-rule="evenodd"/><path fill="#173045" fill-rule="evenodd" d="M200.178 475.281C196.236 475.281 193.041 478.469 193.041 482.402H200.178V475.281Z" clip-rule="evenodd"/><path fill="#173045" fill-rule="evenodd" d="M207.315 489.523C207.315 485.59 204.119 482.402 200.178 482.402V489.523H207.315Z" clip-rule="evenodd"/><path fill="#173045" fill-rule="evenodd" d="M207.315 475.199C207.315 471.266 204.119 468.078 200.178 468.078V475.199H207.315Z" clip-rule="evenodd"/><path fill="#173045" fill-rule="evenodd" d="M207.315 482.319C211.257 482.319 214.452 479.132 214.452 475.199H207.315V482.319Z" clip-rule="evenodd"/><path fill="#173045" fill-rule="evenodd" d="M221.589 475.199C221.589 471.266 218.394 468.078 214.452 468.078V475.199H221.589Z" clip-rule="evenodd"/><path fill="#173045" fill-rule="evenodd" d="M235.864 475.199C235.864 471.266 232.668 468.078 228.727 468.078V475.199H235.864Z" clip-rule="evenodd"/><path fill="#173045" fill-rule="evenodd" d="M221.589 482.319C225.531 482.319 228.726 479.132 228.726 475.199H221.589V482.319Z" clip-rule="evenodd"/><path fill="#173045" fill-rule="evenodd" d="M235.946 482.319C239.888 482.319 243.083 479.132 243.083 475.199H235.946V482.319Z" clip-rule="evenodd"/><path fill="#173045" fill-rule="evenodd" d="M228.809 482.32C228.809 486.252 232.005 489.44 235.946 489.44V482.319L228.809 482.32Z" clip-rule="evenodd"/><path fill="#031E28" fill-rule="evenodd" d="M10 622H236V532H10V622Z" clip-rule="evenodd"/><path fill="#031E28" fill-rule="evenodd" d="M197.23 620.342H270V571.046H197.23V620.342Z" clip-rule="evenodd"/><path fill="#031E28" fill-rule="evenodd" d="M75.2275 553.361H204.633V511.422H75.2275V553.361Z" clip-rule="evenodd"/><path fill="#031E28" fill-rule="evenodd" d="M94.7383 511.422H167.921V445.58H94.7383V511.422Z" clip-rule="evenodd"/><path fill="#2A3D58" fill-rule="evenodd" d="M105.194 511.422H178.376V445.58H105.194V511.422Z" clip-rule="evenodd"/><path fill="#0F2631" fill-rule="evenodd" d="M124.954 474.459C124.954 483.505 132.303 490.838 141.37 490.838C150.436 490.838 157.785 483.505 157.785 474.459C157.785 465.414 150.436 458.081 141.369 458.081C132.303 458.081 124.954 465.414 124.954 474.459Z" clip-rule="evenodd"/><path fill="#031E28" fill-rule="evenodd" d="M149.805 474.459C149.805 466.79 144.514 460.37 137.379 458.589C138.659 458.269 139.991 458.081 141.369 458.081C150.436 458.081 157.785 465.414 157.785 474.46C157.785 483.505 150.436 490.838 141.369 490.838C139.991 490.838 138.659 490.65 137.379 490.33C144.514 488.549 149.805 482.13 149.805 474.459Z" clip-rule="evenodd"/><path fill="#18FFFF" fill-rule="evenodd" d="M228.36 400.965C228.36 400.196 227.729 399.566 226.958 399.566H225.039H214.507C213.737 399.566 213.106 400.196 213.106 400.965V413.386C213.106 414.156 213.737 414.785 214.507 414.785H220.178H226.958C227.729 414.785 228.36 414.156 228.36 413.387V400.965Z" clip-rule="evenodd"/><path fill="#031E28" fill-rule="evenodd" d="M224.845 407.175C224.845 409.442 223.004 411.278 220.733 411.278C218.461 411.278 216.62 409.442 216.62 407.175C216.62 404.909 218.461 403.072 220.733 403.072C223.004 403.072 224.845 404.909 224.845 407.175Z" clip-rule="evenodd"/><path fill="#18FFFF" fill-rule="evenodd" d="M219.924 405.735L222.199 407.182C222.295 407.243 222.295 407.382 222.199 407.443L219.924 408.897C219.82 408.963 219.685 408.889 219.685 408.767V405.865C219.685 405.743 219.82 405.669 219.924 405.735Z" clip-rule="evenodd"/><path fill="#18FFFF" fill-rule="evenodd" d="M67.3191 400.965C67.3191 400.196 66.6881 399.566 65.9172 399.566H63.9982H53.4668C52.6959 399.566 52.0649 400.196 52.0649 400.965V413.386C52.0649 414.156 52.6959 414.785 53.4668 414.785H59.1376H65.9176C66.6881 414.785 67.3191 414.156 67.3191 413.387V400.965Z" clip-rule="evenodd"/><path fill="#031E28" fill-rule="evenodd" d="M63.2538 409.585V404.67V403.24C63.2538 403.15 63.2136 403.064 63.1438 403.006C63.0741 402.948 62.9824 402.924 62.8927 402.941L57.5207 403.939C57.3763 403.966 57.2717 404.092 57.2717 404.239V405.669V409.89C57.0205 409.746 56.7121 409.658 56.3709 409.658C55.5191 409.658 54.8516 410.186 54.8516 410.86C54.8516 411.535 55.5191 412.062 56.3709 412.062C57.1783 412.062 57.813 411.586 57.8773 410.962C57.8777 410.955 57.8819 410.948 57.8819 410.94V410.926C57.8831 410.904 57.8902 410.883 57.8902 410.86C57.8902 410.838 57.8831 410.817 57.8819 410.795V405.922L62.6436 405.037V408.68C62.3925 408.536 62.0841 408.448 61.7428 408.448C60.891 408.448 60.2235 408.976 60.2235 409.65C60.2235 410.324 60.891 410.852 61.7428 410.852C62.5946 410.852 63.2621 410.324 63.2621 409.65C63.2621 409.628 63.2551 409.607 63.2538 409.585Z" clip-rule="evenodd"/><path fill="#1DE9B6" fill-rule="evenodd" d="M162.215 454.2C162.215 454.611 161.881 454.944 161.47 454.944C161.057 454.944 160.724 454.611 160.724 454.2C160.724 453.789 161.057 453.456 161.47 453.456C161.881 453.456 162.215 453.789 162.215 454.2Z" clip-rule="evenodd"/><path fill="#1DE9B6" fill-rule="evenodd" d="M169.709 454.2C169.709 454.611 169.376 454.944 168.964 454.944C168.552 454.944 168.218 454.611 168.218 454.2C168.218 453.789 168.552 453.456 168.964 453.456C169.376 453.456 169.709 453.789 169.709 454.2Z" clip-rule="evenodd"/><path fill="#1DE9B6" fill-rule="evenodd" d="M173.457 454.2C173.457 454.611 173.123 454.944 172.711 454.944C172.299 454.944 171.965 454.611 171.965 454.2C171.965 453.789 172.299 453.456 172.711 453.456C173.123 453.456 173.457 453.789 173.457 454.2Z" clip-rule="evenodd"/><path fill="#1DE9B6" fill-rule="evenodd" d="M165.962 454.2C165.962 454.611 165.628 454.944 165.217 454.944C164.804 454.944 164.471 454.611 164.471 454.2C164.471 453.789 164.804 453.456 165.217 453.456C165.628 453.456 165.962 453.789 165.962 454.2Z" clip-rule="evenodd"/><mask id="mask38" width="34" height="33" x="124" y="458" mask-type="alpha" maskUnits="userSpaceOnUse"><path fill="#fff" fill-rule="evenodd" d="M124.954 474.459C124.954 483.505 132.303 490.838 141.37 490.838C150.436 490.838 157.785 483.505 157.785 474.459C157.785 465.414 150.436 458.081 141.37 458.081C132.303 458.081 124.954 465.414 124.954 474.459Z" clip-rule="evenodd"/></mask><g mask="url(#mask38)"><path fill-rule="evenodd" stroke="#18FFFF" stroke-width="1.25" d="M221.219 394.102C221.219 349.311 184.824 313 139.93 313C95.0353 313 58.6416 349.311 58.6416 394.102C58.6416 438.893 95.0353 475.203 139.93 475.203C184.824 475.203 221.219 438.893 221.219 394.102Z" clip-rule="evenodd"/></g><path fill="#18FFFF" fill-rule="evenodd" d="M148.993 468.248C148.993 467.479 148.362 466.85 147.592 466.85H145.672H135.141C134.37 466.85 133.739 467.479 133.739 468.248V480.67C133.739 481.439 134.37 482.068 135.141 482.068H140.812H147.592C148.362 482.068 148.993 481.439 148.993 480.67V468.248Z" clip-rule="evenodd"/><path fill="#031E28" fill-rule="evenodd" d="M136.806 482.189H145.927V469.863H136.806V482.189Z" clip-rule="evenodd"/><path fill="#18FFFF" fill-rule="evenodd" d="M144.19 474.031L142.997 473.66L141.804 474.031V469.863H144.19V474.031Z" clip-rule="evenodd"/><path fill="#18FFFF" fill-rule="evenodd" d="M138.629 476.124H143.199V475.521H138.629V476.124Z" clip-rule="evenodd"/><path fill="#18FFFF" fill-rule="evenodd" d="M138.629 477.083H142.103V477.686H138.629" clip-rule="evenodd"/><path fill="#434D72" fill-rule="evenodd" d="M123.195 500.201C123.195 503.823 120.252 506.759 116.622 506.759C112.991 506.759 110.048 503.823 110.048 500.201C110.048 496.58 112.991 493.644 116.622 493.644C120.252 493.644 123.195 496.58 123.195 500.201Z" clip-rule="evenodd"/><path stroke="#1DE9B6" stroke-width="1.25" d="M115.238 500.063L116.561 501.33L121.781 494.438"/><path stroke="#2A3D58" stroke-miterlimit="10" stroke-width="1.25" d="M91 207L116.519 232.465"/><path stroke="#2A3D58" stroke-miterlimit="10" stroke-width="1.25" d="M91 213.809L109.696 232.465"/><path stroke="#2A3D58" stroke-miterlimit="10" stroke-width="1.25" d="M91 220.615L102.874 232.464"/><path stroke="#2A3D58" stroke-miterlimit="10" stroke-width="1.25" d="M91 227.424L96.0516 232.465"/><path stroke="#2A3D58" stroke-miterlimit="10" stroke-width="1.25" d="M111.467 207L116.518 212.041"/><path stroke="#2A3D58" stroke-miterlimit="10" stroke-width="1.25" d="M104.645 207L116.518 218.849"/><path stroke="#2A3D58" stroke-miterlimit="10" stroke-width="1.25" d="M97.8223 207L116.518 225.657"/><path fill="#173045" fill-rule="evenodd" d="M374 304.701H431.976V272.15H374V304.701Z" clip-rule="evenodd"/><path fill="#173045" fill-rule="evenodd" d="M374 304.787H378.14V272H374V304.787Z" clip-rule="evenodd"/><path fill="#2A3D58" fill-rule="evenodd" d="M378.14 304.787H432.226V272H378.14V304.787Z" clip-rule="evenodd"/><path fill="#173045" fill-rule="evenodd" d="M422.116 277.649H381.557C381.091 277.649 380.709 277.263 380.709 276.791C380.709 276.319 381.091 275.933 381.557 275.933H422.116C422.582 275.933 422.963 276.319 422.963 276.791C422.963 277.263 422.582 277.649 422.116 277.649Z" clip-rule="evenodd"/><path fill="#173045" fill-rule="evenodd" d="M425.867 276.791C425.867 277.12 425.603 277.387 425.278 277.387C424.952 277.387 424.688 277.12 424.688 276.791C424.688 276.461 424.952 276.194 425.278 276.194C425.603 276.194 425.867 276.461 425.867 276.791Z" clip-rule="evenodd"/><path fill="#173045" fill-rule="evenodd" d="M427.874 276.791C427.874 277.12 427.611 277.387 427.285 277.387C426.96 277.387 426.696 277.12 426.696 276.791C426.696 276.461 426.96 276.194 427.285 276.194C427.611 276.194 427.874 276.461 427.874 276.791Z" clip-rule="evenodd"/><path fill="#173045" fill-rule="evenodd" d="M429.881 276.791C429.881 277.12 429.617 277.387 429.291 277.387C428.966 277.387 428.702 277.12 428.702 276.791C428.702 276.461 428.966 276.194 429.291 276.194C429.617 276.194 429.881 276.461 429.881 276.791Z" clip-rule="evenodd"/><path stroke="#1DE9B6" stroke-width="1.25" d="M381.115 282.653H406.525"/><path stroke="#1DE9B6" stroke-width="1.25" d="M381.115 288.43H389.339"/><path stroke="#1DE9B6" stroke-width="1.25" d="M381.115 291.256H394.382"/><path stroke="#1DE9B6" stroke-width="1.25" d="M397.298 291.256H403.61"/><path stroke="#1DE9B6" stroke-width="1.25" d="M406.526 291.256H412.838"/><path stroke="#1DE9B6" stroke-width="1.25" d="M381.115 285.604H401.093"/><path stroke="#1DE9B6" stroke-width="1.25" d="M404.635 285.604H412.838"/><path stroke="#1DE9B6" stroke-width="1.25" d="M381.115 294.082H406.525"/><path stroke="#1DE9B6" stroke-width="1.25" d="M381.115 299.734H389.339"/><path stroke="#1DE9B6" stroke-width="1.25" d="M381.115 296.908H401.093"/><path stroke="#1DE9B6" stroke-width="1.25" d="M404.635 296.908H412.838"/><path fill-rule="evenodd" stroke="#1DE9B6" stroke-width=".5" d="M438 300.124C438 305.579 433.625 310 428.229 310C422.833 310 418.458 305.579 418.458 300.124C418.458 294.67 422.833 290.248 428.229 290.248C433.625 290.248 438 294.67 438 300.124Z" clip-rule="evenodd"/><ellipse cx="428.229" cy="300.124" fill="#173045" rx="8.305" ry="8.395"/><path stroke="#1DE9B6" stroke-width=".5" d="M436.285 300.124C436.285 304.625 432.675 308.269 428.229 308.269C423.783 308.269 420.174 304.625 420.174 300.124C420.174 295.623 423.783 291.979 428.229 291.979C432.675 291.979 436.285 295.623 436.285 300.124Z"/><path stroke="#1DE9B6" d="M436.129 292.086L435.23 293"/><path stroke="#1DE9B6" d="M421.227 307.247L420.329 308.161"/><path stroke="#1DE9B6" d="M420.329 292.086L421.227 293"/><path stroke="#1DE9B6" d="M435.23 307.247L436.129 308.161"/><g filter="url(#filter0_d)"><path stroke="#1DE9B6" d="M424.101 301.675L427.628 303.339L432.382 297.655"/></g><defs><filter id="filter0_d" width="16.877" height="14.621" x="419.888" y="297.335" color-interpolation-filters="sRGB" filterUnits="userSpaceOnUse"><feFlood flood-opacity="0" result="BackgroundImageFix"/><feColorMatrix in="SourceAlpha" type="matrix" values="0 0 0 0 0 0 0 0 0 0 0 0 0 0 0 0 0 0 127 0"/><feOffset dy="4"/><feGaussianBlur stdDeviation="2"/><feColorMatrix type="matrix" values="0 0 0 0 0 0 0 0 0 0 0 0 0 0 0 0 0 0 0.25 0"/><feBlend in2="BackgroundImageFix" mode="normal" result="effect1_dropShadow"/><feBlend in="SourceGraphic" in2="effect1_dropShadow" mode="normal" result="shape"/></filter></defs></svg>