<svg xmlns="http://www.w3.org/2000/svg" viewBox="0 0 115.969 83.111"><title>logo-mark</title><polygon fill="#1de9b6" points="115.968 0 115.968 21.5 96.247 41.555 115.968 21.5 115.968 0 115.968 0"/><polygon fill="#66769e" points="68.97 0 27.624 41.555 49.019 41.555 76.493 13.868 82.849 13.868 55.375 41.555 74.734 41.555 115.968 0 68.97 0"/><polygon fill="#434d72" points="27.624 41.555 68.97 83.111 90.258 83.111 49.019 41.555 27.624 41.555"/><polygon fill="#434d72" points="55.375 41.555 96.614 83.111 115.968 83.111 115.968 83.111 74.734 41.555 55.375 41.555"/><polygon fill="#173045" points="115.968 0 74.734 41.555 115.968 83.111 115.968 61.61 96.247 41.555 96.247 41.555 115.968 21.5 115.968 0"/><polyline fill="#1de9b6" points="41.235 83.111 62.748 83.111 21.513 41.555 0 41.555 41.235 83.111"/><polyline fill="#5fffd1" points="41.235 0 62.748 0 21.513 41.555 0 41.555 41.235 0"/></svg>