<svg xmlns="http://www.w3.org/2000/svg" viewBox="0 0 173.559 89.174"><title>logo-text</title><path fill="#173045" d="M23.23193,23.97559a9.88361,9.88361,0,0,1-8.22119,4.01855c-6.04688,0-10.27-4.9165-10.27-11.95557,0-7.1626,3.86963-11.791,9.85889-11.791a9.1768,9.1768,0,0,1,8.24121,4.437l.26318.45508,3.895-2.52637-.25928-.4165C24.25244,2.20068,19.92627,0,14.55859,0,5.71436,0,0,6.29541,0,16.03857,0,25.73,6.01611,32.2417,14.96973,32.2417c5.03223,0,9.2627-1.96973,11.91162-5.54687l.29492-.39844-3.64795-2.74854Z"/><polygon fill="#173045" points="39.965 25.932 33.424 8.838 28.764 8.838 37.804 31.334 34.53 39.847 39.184 39.847 50.568 8.838 45.961 8.838 39.965 25.932"/><path fill="#173045" d="M58.51025,29.24268a8.12383,8.12383,0,0,0,6.73486,2.999c6.21631,0,10.07764-4.58594,10.07764-11.96875,0-7.30664-3.8457-11.8457-10.03662-11.8457A8.17852,8.17852,0,0,0,58.51025,11.29V.41113H54.22168V31.83057h4.28857Zm-.0415-8.80566c0-5.55518,1.98779-8.25586,6.07715-8.25586,4.07129,0,6.40625,2.94922,6.40625,8.0918,0,5.14355-2.37939,8.21436-6.36475,8.21436C60.41309,28.4873,58.46875,25.9292,58.46875,20.437Z"/><path fill="#173045" d="M90.11768,8.50928c-6.56787,0-10.48926,4.44385-10.48926,11.88672,0,7.69189,3.769,11.92773,10.6123,11.92773,5.50439,0,9.34668-3.19629,9.78857-8.14258l.04883-.54443h-4.313l-.05908.43262c-.522,3.84424-3.80273,4.418-5.71191,4.418-3.66064,0-5.77148-2.55908-5.97949-7.22119h16.09863V19.61523C100.11328,12.45361,96.56348,8.50928,90.11768,8.50928Zm-5.95947,9.249c.60693-3.647,2.6377-5.49463,6.0415-5.49463,3.1958,0,5.22852,2.04248,5.51416,5.49463Z"/><path fill="#173045" d="M110.22461,18.793c0-3.77979,2.07178-6.03613,5.54248-6.03613a4.962,4.962,0,0,1,1.30713.147l.63184.17236V8.60742l-.34229-.11377a3.94246,3.94246,0,0,0-1.14453-.06641,7.187,7.187,0,0,0-5.99463,2.7959V8.83838H105.936V31.83057h4.28857Z"/><path fill="#173045" d="M18.01318,69.71143A21.24748,21.24748,0,0,0,15.94336,67.271a8.62329,8.62329,0,0,0,7.04883-8.729c0-5.43018-3.67236-8.80371-9.58447-8.80371H1.10986V81.15771H5.76855V67.83887H7.85791c3.10059,0,3.10059,0,6.01318,3.87012l7.09668,9.44873h5.73828l-8.38135-11.042ZM5.76855,53.90381h7.39258c3.1875,0,5.09033,1.78027,5.09033,4.76172a4.80108,4.80108,0,0,1-5.13184,5.0083H5.76855Z"/><path fill="#173045" d="M38.57227,57.83643c-6.56787,0-10.48926,4.44385-10.48926,11.88672,0,7.69189,3.769,11.92773,10.6123,11.92773,5.50439,0,9.34668-3.19629,9.78857-8.14258l.04883-.54443h-4.313l-.05908.43262c-.52246,3.84424-3.80273,4.418-5.71191,4.418-3.66064,0-5.77148-2.55908-5.97949-7.22119H48.56787V68.94238C48.56787,61.78076,45.01807,57.83643,38.57227,57.83643Zm-5.95947,9.249c.60693-3.647,2.6377-5.49463,6.0415-5.49463,3.1958,0,5.22852,2.04248,5.51416,5.49463Z"/><path fill="#173045" d="M65.45459,57.75439a8.17852,8.17852,0,0,0-6.77588,2.86279V58.16553H54.39014v31.0083h4.28857v-10.604a8.12383,8.12383,0,0,0,6.73486,2.999c6.21631,0,10.07764-4.58594,10.07764-11.96875C75.49121,62.29346,71.64551,57.75439,65.45459,57.75439Zm5.666,11.8457c0,5.14355-2.37939,8.21436-6.36475,8.21436-4.17432,0-6.11865-2.55811-6.11865-8.05029,0-5.55518,1.98779-8.25586,6.07715-8.25586C68.78564,61.5083,71.12061,64.45752,71.12061,69.6001Z"/><path fill="#173045" d="M94.94141,71.44971c0,3.82471-2.20264,6.20068-5.74854,6.20068-2.85645,0-4.02148-1.59424-4.02148-5.502V58.16553H80.88281V73.05273c0,5.73047,2.44922,8.51611,7.48779,8.51611a7.919,7.919,0,0,0,6.5708-2.99463v2.5835H99.23V58.16553H94.94141Z"/><path fill="#173045" d="M116.95068,57.75439a8.17852,8.17852,0,0,0-6.77588,2.86279V49.73828h-4.28857V81.15771h4.28857V78.56982a8.12383,8.12383,0,0,0,6.73486,2.999c6.21631,0,10.07764-4.58594,10.07764-11.96875C126.9873,62.29346,123.1416,57.75439,116.95068,57.75439Zm5.666,11.8457c0,5.14355-2.37939,8.21436-6.36475,8.21436-4.17432,0-6.11865-2.55811-6.11865-8.05029,0-5.55518,1.98779-8.25586,6.07715-8.25586C120.28174,61.5083,122.6167,64.45752,122.6167,69.6001Z"/><rect width="4.289" height="31.419" x="132.494" y="49.738" fill="#173045"/><path fill="#173045" d="M145.55078,49.03955a2.84331,2.84331,0,1,0,2.80225,2.84326A2.79265,2.79265,0,0,0,145.55078,49.03955Z"/><rect width="4.289" height="22.992" x="143.407" y="58.166" fill="#173045"/><path fill="#173045" d="M169.19873,72.42969l-.0415.45459c-.29248,3.2168-2.13037,4.84814-5.4624,4.84814-4.05127,0-6.28271-2.87354-6.28271-8.09131,0-5.19141,2.23145-8.05029,6.28271-8.05029,2.28662,0,5.09082.84814,5.4624,4.88965l.042.4541h4.35938l-.03369-.53174c-.34375-5.41553-3.98779-8.64844-9.748-8.64844-6.72266,0-10.73584,4.459-10.73584,11.92773,0,7.44287,4.01318,11.88672,10.73584,11.88672,5.75928,0,9.40332-3.21777,9.748-8.60742l.03418-.53174Z"/></svg>