<svg xmlns="http://www.w3.org/2000/svg" viewBox="0 0 321.454 90.941"><title>logo</title><polygon fill="#1de9b6" points="115.968 0 115.968 21.5 96.247 41.555 115.968 21.5 115.968 0 115.968 0"/><polygon fill="#66769e" points="68.97 0 27.624 41.555 49.019 41.555 76.493 13.868 82.849 13.868 55.375 41.555 74.734 41.555 115.968 0 68.97 0"/><polygon fill="#434d72" points="27.624 41.555 68.97 83.111 90.258 83.111 49.019 41.555 27.624 41.555"/><polygon fill="#434d72" points="55.375 41.555 96.614 83.111 115.968 83.111 115.968 83.111 74.734 41.555 55.375 41.555"/><polygon fill="#173045" points="115.968 0 74.734 41.555 115.968 83.111 115.968 61.61 96.247 41.555 96.247 41.555 115.968 21.5 115.968 0"/><polyline fill="#1de9b6" points="41.235 83.111 62.748 83.111 21.513 41.555 0 41.555 41.235 83.111"/><polyline fill="#5fffd1" points="41.235 0 62.748 0 21.513 41.555 0 41.555 41.235 0"/><path fill="#173045" d="M171.12717,25.7431a9.88361,9.88361,0,0,1-8.22119,4.01855c-6.04687,0-10.27-4.9165-10.27-11.95557,0-7.1626,3.86963-11.791,9.85889-11.791a9.1768,9.1768,0,0,1,8.24121,4.437l.26318.45508,3.895-2.52637-.25928-.4165c-2.4873-3.99609-6.81348-6.19678-12.18115-6.19678-8.84424,0-14.55859,6.29541-14.55859,16.03857,0,9.69141,6.01611,16.20313,14.96973,16.20313,5.03223,0,9.2627-1.96973,11.91162-5.54687l.29492-.39844-3.64795-2.74854Z"/><polygon fill="#173045" points="187.861 27.7 181.319 10.606 176.659 10.606 185.699 33.102 182.426 41.614 187.079 41.614 198.463 10.606 193.857 10.606 187.861 27.7"/><path fill="#173045" d="M206.40549,31.01019a8.12383,8.12383,0,0,0,6.73486,2.999c6.21631,0,10.07764-4.58594,10.07764-11.96875,0-7.30664-3.8457-11.8457-10.03662-11.8457a8.17852,8.17852,0,0,0-6.77588,2.86279V2.17865h-4.28857V33.59808h4.28857Zm-.0415-8.80566c0-5.55518,1.98779-8.25586,6.07715-8.25586,4.07129,0,6.40625,2.94922,6.40625,8.0918,0,5.14355-2.37939,8.21436-6.36475,8.21436C208.30832,30.25482,206.364,27.69672,206.364,22.20453Z"/><path fill="#173045" d="M238.01291,10.27679c-6.56787,0-10.48926,4.44385-10.48926,11.88672,0,7.69189,3.769,11.92773,10.6123,11.92773,5.50439,0,9.34668-3.19629,9.78857-8.14258l.04883-.54443h-4.313l-.05908.43262c-.522,3.84424-3.80273,4.418-5.71191,4.418-3.66064,0-5.77148-2.55908-5.97949-7.22119h16.09863V21.38275C248.00851,14.22113,244.45871,10.27679,238.01291,10.27679Zm-5.95947,9.249c.60693-3.647,2.6377-5.49463,6.0415-5.49463,3.1958,0,5.22852,2.04248,5.51416,5.49463Z"/><path fill="#173045" d="M258.11984,20.56049c0-3.77979,2.07178-6.03613,5.54248-6.03613a4.962,4.962,0,0,1,1.30713.147l.63184.17236V10.37494l-.34229-.11377a3.94246,3.94246,0,0,0-1.14453-.06641,7.187,7.187,0,0,0-5.99463,2.7959V10.6059h-4.28857V33.59808h4.28857Z"/><path fill="#173045" d="M165.90842,71.47894a21.24748,21.24748,0,0,0-2.06982-2.44043,8.62329,8.62329,0,0,0,7.04883-8.729c0-5.43018-3.67236-8.80371-9.58447-8.80371H149.0051V82.92523h4.65869V69.60638h2.08936c3.10059,0,3.10059,0,6.01318,3.87012l7.09668,9.44873h5.73828l-8.38135-11.042ZM153.66379,55.67133h7.39258c3.1875,0,5.09033,1.78027,5.09033,4.76172a4.80108,4.80108,0,0,1-5.13184,5.0083h-7.35107Z"/><path fill="#173045" d="M186.4675,59.60394c-6.56787,0-10.48926,4.44385-10.48926,11.88672,0,7.69189,3.769,11.92773,10.6123,11.92773,5.50439,0,9.34668-3.19629,9.78857-8.14258l.04883-.54443h-4.313l-.05908.43262c-.52246,3.84424-3.80273,4.418-5.71191,4.418-3.66064,0-5.77148-2.55908-5.97949-7.22119H196.4631V70.7099C196.4631,63.54828,192.9133,59.60394,186.4675,59.60394ZM180.508,68.853c.60693-3.647,2.6377-5.49463,6.0415-5.49463,3.1958,0,5.22852,2.04248,5.51416,5.49463Z"/><path fill="#173045" d="M213.34982,59.52191a8.17852,8.17852,0,0,0-6.77588,2.86279V59.933h-4.28857v31.0083h4.28857v-10.604a8.12383,8.12383,0,0,0,6.73486,2.999c6.21631,0,10.07764-4.58594,10.07764-11.96875C223.38644,64.061,219.54074,59.52191,213.34982,59.52191Zm5.666,11.8457c0,5.14355-2.37939,8.21436-6.36475,8.21436-4.17432,0-6.11865-2.55811-6.11865-8.05029,0-5.55518,1.98779-8.25586,6.07715-8.25586C216.68088,63.27582,219.01584,66.225,219.01584,71.36761Z"/><path fill="#173045" d="M242.83664,73.21722c0,3.82471-2.20264,6.20068-5.74854,6.20068-2.85645,0-4.02148-1.59424-4.02148-5.502V59.933H228.778V74.82025c0,5.73047,2.44922,8.51611,7.48779,8.51611a7.919,7.919,0,0,0,6.5708-2.99463v2.5835h4.28857V59.933h-4.28857Z"/><path fill="#173045" d="M264.84592,59.52191A8.17852,8.17852,0,0,0,258.07,62.3847V51.5058h-4.28857V82.92523H258.07V80.33734a8.12383,8.12383,0,0,0,6.73486,2.999c6.21631,0,10.07764-4.58594,10.07764-11.96875C274.88254,64.061,271.03684,59.52191,264.84592,59.52191Zm5.666,11.8457c0,5.14355-2.37939,8.21436-6.36475,8.21436-4.17432,0-6.11865-2.55811-6.11865-8.05029,0-5.55518,1.98779-8.25586,6.07715-8.25586C268.177,63.27582,270.51193,66.225,270.51193,71.36761Z"/><rect width="4.289" height="31.419" x="280.389" y="51.506" fill="#173045"/><path fill="#173045" d="M293.446,50.80707a2.84331,2.84331,0,1,0,2.80225,2.84326A2.79265,2.79265,0,0,0,293.446,50.80707Z"/><rect width="4.289" height="22.992" x="291.302" y="59.933" fill="#173045"/><path fill="#173045" d="M317.094,74.1972l-.0415.45459c-.29248,3.2168-2.13037,4.84814-5.4624,4.84814-4.05127,0-6.28271-2.87354-6.28271-8.09131,0-5.19141,2.23145-8.05029,6.28271-8.05029,2.28662,0,5.09082.84814,5.4624,4.88965l.042.4541h4.35938l-.03369-.53174c-.34375-5.41553-3.98779-8.64844-9.748-8.64844-6.72266,0-10.73584,4.459-10.73584,11.92773,0,7.44287,4.01318,11.88672,10.73584,11.88672,5.75928,0,9.40332-3.21777,9.748-8.60742l.03418-.53174Z"/></svg>