<svg xmlns="http://www.w3.org/2000/svg" viewBox="0 0 636.36768 79.59064"><title>menu-bgtext</title><polygon points="21.196 22.084 32.058 22.084 32.058 0 21.196 0 21.196 0 10.862 0 10.862 0.001 0 10.862 0 11.042 0 11.042 0 68.728 0 79.59 10.862 79.59 21.196 79.59 32.058 79.59 32.058 79.59 32.058 57.506 21.196 57.506 21.196 68.728 10.862 68.728 10.862 45.226 10.863 45.226 10.863 10.862 21.196 10.862 21.196 22.084" style="fill:#434d72"/><polygon points="524.363 0 513.501 0 513.501 68.728 513.501 79.59 524.363 79.59 545.559 79.59 545.559 68.728 524.363 68.728 524.363 0" style="fill:#434d72"/><polygon points="558.042 10.862 568.64 10.862 568.64 68.728 558.042 68.728 558.042 79.59 568.64 79.59 579.502 79.59 590.1 79.59 590.1 68.728 579.502 68.728 579.502 10.862 590.1 10.862 590.1 0 558.042 0 558.042 10.862" style="fill:#434d72"/><polygon points="438.709 68.728 428.375 68.728 428.375 0 417.513 0 417.513 68.728 417.513 79.59 428.375 79.59 438.709 79.59 449.571 79.59 449.571 68.728 449.571 0 438.709 0 438.709 68.728" style="fill:#434d72"/><polygon points="149.272 10.862 149.272 34.364 149.272 45.226 149.272 68.728 149.272 79.59 160.134 79.59 181.331 79.59 181.331 68.728 160.134 68.728 160.134 45.226 181.331 45.226 181.331 34.364 160.134 34.364 160.134 10.862 181.331 10.862 181.331 0 149.272 0 149.272 10.862" style="fill:#434d72"/><polygon points="324.115 10.862 324.115 34.364 324.115 45.226 324.115 68.728 324.115 79.59 334.977 79.59 356.173 79.59 356.173 68.728 334.977 68.728 334.977 45.226 356.173 45.226 356.173 34.364 334.977 34.364 334.977 10.862 356.173 10.862 356.173 0 324.115 0 324.115 10.862" style="fill:#434d72"/><path d="M497.56494,0H486.70288l-21.1958.00006v79.59h32.05811L497.56494,45.226H486.70288V68.72833h-10.334V45.226h10.334l10.8623-10.86176Zm-21.196,34.3642V10.86182l10.334-.00006V34.3642Z" style="fill:#434d72"/><rect x="60.35571" y="39.79504" width="10.86182" height="39.79504" style="fill:#434d72"/><polygon points="70.954 24.082 65.787 29.765 60.62 24.082 60.619 0 49.757 0 49.757 28.325 60.356 39.795 65.787 39.794 71.218 39.795 81.816 28.325 81.816 0 70.954 0 70.954 24.082" style="fill:#434d72"/><path d="M393.30469,0l-21.1958.00006v79.59h10.86157V45.226h10.33423L404.16675,34.3642V0Zm0,34.3642H382.97046V10.86182l10.33423-.00006Z" style="fill:#434d72"/><rect x="297.31714" y="45.22595" width="10.86206" height="34.36414" style="fill:#434d72"/><path d="M297.31714,0l-21.1958.00006v79.59h10.86157V45.226h10.33423L308.1792,34.3642V0Zm0,34.3642H286.98291V10.86182l10.33423-.00006Z" style="fill:#434d72"/><path d="M231.08765,0H220.22559l-21.1958.00006v79.59H209.8916V45.226h10.334l.00024,34.36414h10.86206V45.226H220.22583L231.08789,34.3642l-.00024-23.50244h.00024V0ZM220.22583,34.3642H209.8916V10.86182l10.334-.00006Z" style="fill:#434d72"/><polygon points="636.367 57.506 625.505 57.506 625.505 57.506 625.505 68.729 615.171 68.729 615.171 10.862 625.505 10.862 625.505 22.084 636.367 22.084 636.367 10.862 636.367 0 625.505 0 625.505 0 604.309 0 604.309 10.862 604.309 68.729 604.309 79.59 604.309 79.591 625.505 79.591 625.505 79.59 636.368 68.728 636.368 57.506 636.367 57.506" style="fill:#434d72"/><path d="M131.573,0H120.71094L99.51514.00006v79.59h32.05811L131.573,45.226H120.71094V68.72833H110.377V45.226h10.334l10.8623-10.86176ZM110.377,34.3642V10.86182l10.334-.00006V34.3642Z" style="fill:#434d72"/></svg>