<svg xmlns="http://www.w3.org/2000/svg" xmlns:xlink="http://www.w3.org/1999/xlink" viewBox="0 0 160 160"><defs><clipPath id="a"><rect y="12.0875" width="135.825" height="135.825" style="fill:none"/></clipPath><clipPath id="d"><rect x="109.236" y="32.1265" width="6.243" height="6.272" style="fill:none"/></clipPath><clipPath id="e"><rect x="20.345" y="121.5956" width="6.2431" height="6.2722" style="fill:none"/></clipPath><clipPath id="f"><rect x="20.345" y="32.1265" width="6.2431" height="6.272" style="fill:none"/></clipPath><clipPath id="g"><rect x="109.236" y="121.5956" width="6.243" height="6.2722" style="fill:none"/></clipPath></defs><title>model-icon5</title><g style="clip-path:url(#a)"><polygon points="78.955 61.19 67.912 67.566 56.87 61.19 45.827 67.566 56.87 73.979 67.912 80.355 78.955 73.979 89.998 67.566 78.955 61.19" style="fill:#434d72"/><polygon points="78.955 82.527 67.912 88.903 56.87 82.527 45.827 88.903 56.87 95.316 67.912 101.692 78.955 95.316 89.998 88.903 78.955 82.527" style="fill:#434d72"/><g style="clip-path:url(#a)"><circle cx="67.9126" cy="79.9997" r="41.552" style="fill:none;stroke:#1de9b6;stroke-miterlimit:10;stroke-width:1.25px"/><circle cx="67.91295" cy="79.99994" r="53.9885" style="fill:none;stroke:#434d72;stroke-miterlimit:10;stroke-width:1.25px"/><g style="opacity:0.3000029921531677"><g style="clip-path:url(#a)"><circle cx="67.9125" cy="79.99995" r="67.28775" style="fill:none;stroke:#434d72;stroke-miterlimit:10;stroke-width:1.25px"/></g></g><line x1="67.9129" y1="26.0114" x2="67.9129" y2="33.44341" style="fill:none;stroke:#434d72;stroke-miterlimit:10;stroke-width:1.25px"/><g style="opacity:0.3000029921531677"><g style="clip-path:url(#d)"><line x1="115.0359" y1="32.5661" x2="109.67989" y2="37.95811" style="fill:none;stroke:#434d72;stroke-miterlimit:10;stroke-width:1.25px"/></g></g><g style="opacity:0.3000029921531677"><g style="clip-path:url(#e)"><line x1="26.1448" y1="122.0359" x2="20.7888" y2="127.4279" style="fill:none;stroke:#434d72;stroke-miterlimit:10;stroke-width:1.25px"/></g></g><g style="opacity:0.3000029921531677"><g style="clip-path:url(#f)"><line x1="20.7884" y1="32.5661" x2="26.1444" y2="37.95811" style="fill:none;stroke:#434d72;stroke-miterlimit:10;stroke-width:1.25px"/></g></g><g style="opacity:0.3000029921531677"><g style="clip-path:url(#g)"><line x1="109.6795" y1="122.0359" x2="115.03549" y2="127.4279" style="fill:none;stroke:#434d72;stroke-miterlimit:10;stroke-width:1.25px"/></g></g><line x1="101.5081" y1="46.1823" x2="97.6891" y2="50.0263" style="fill:none;stroke:#1de9b6;stroke-miterlimit:10;stroke-width:1.25px"/><line x1="38.1351" y1="109.9685" x2="34.3161" y2="113.8115" style="fill:none;stroke:#1de9b6;stroke-miterlimit:10;stroke-width:1.25px"/><line x1="34.3162" y1="46.1823" x2="38.1352" y2="50.0263" style="fill:none;stroke:#1de9b6;stroke-miterlimit:10;stroke-width:1.25px"/><line x1="97.6893" y1="109.9685" x2="101.50829" y2="113.8115" style="fill:none;stroke:#1de9b6;stroke-miterlimit:10;stroke-width:1.25px"/><line x1="67.9129" y1="126.5564" x2="67.9129" y2="133.9894" style="fill:none;stroke:#434d72;stroke-miterlimit:10;stroke-width:1.25px"/><line x1="121.9012" y1="79.99969" x2="114.46919" y2="79.99969" style="fill:none;stroke:#434d72;stroke-miterlimit:10;stroke-width:1.25px"/><line x1="21.3562" y1="79.99969" x2="13.9242" y2="79.99969" style="fill:none;stroke:#434d72;stroke-miterlimit:10;stroke-width:1.25px"/></g></g></svg>