<svg xmlns="http://www.w3.org/2000/svg" xmlns:xlink="http://www.w3.org/1999/xlink" viewBox="0 0 190 160"><defs><clipPath id="a"><rect width="184.943" height="130.506" y="14.747" fill="none"/></clipPath><clipPath id="c"><rect width="139.51" height="87.601" x="28.077" y="33.088" fill="none"/></clipPath><clipPath id="d"><polygon fill="none" points="167.587 33.088 141.744 33.088 28.077 33.088 28.077 57.317 134.752 57.317 134.752 120.688 167.587 120.688 167.587 33.088"/></clipPath><clipPath id="e"><rect width="143.682" height="87.601" x="41.261" y="14.747" fill="none"/></clipPath><clipPath id="f"><polygon fill="none" points="184.943 16.749 159.1 14.747 41.261 14.747 41.261 39.35 153.139 39.35 153.139 102.348 184.943 102.348 184.943 16.749"/></clipPath></defs><title>model-icon11</title><g clip-path="url(#a)"><polyline fill="none" stroke="#1de9b6" stroke-miterlimit="10" stroke-width="1.25" points="80.165 136.617 80.165 102.283 120.186 102.283 120.186 136.617"/><line x1="56.612" x2="23.5" y1="129.624" y2="129.624" fill="none" stroke="#1de9b6" stroke-miterlimit="10" stroke-width="1.25"/><line x1="71.963" x2="41.26" y1="122.711" y2="122.711" fill="none" stroke="#1de9b6" stroke-miterlimit="10" stroke-width="1.25"/><line x1="35.973" x2="23.5" y1="122.711" y2="122.711" fill="none" stroke="#1de9b6" stroke-miterlimit="10" stroke-width="1.25"/><rect width="30.368" height="20.076" x="80.165" y="73.836" fill="none" stroke="#1de9b6" stroke-miterlimit="10" stroke-width="1.25"/><rect width="48.463" height="34.517" x="23.5" y="73.835" fill="none" stroke="#1de9b6" stroke-miterlimit="10" stroke-width="1.25"/><line x1="71.963" x2="23.5" y1="115.986" y2="115.986" fill="none" stroke="#1de9b6" stroke-miterlimit="10" stroke-width="1.25"/><g clip-path="url(#a)"><path fill="#434d72" d="M.0001,136.6171s1.504,8.636,8.635,8.636h126.802c7.13,0,8.635-8.636,8.635-8.636Z"/><g opacity=".5"><g clip-path="url(#c)"><g clip-path="url(#d)"><polyline fill="none" stroke="#434d72" stroke-miterlimit="10" stroke-width="1.25" points="98.58 118.333 98.58 83.999 138.601 83.999 138.601 118.333"/><line x1="75.027" x2="41.915" y1="111.34" y2="111.34" fill="none" stroke="#434d72" stroke-miterlimit="10" stroke-width="1.25"/><line x1="90.379" x2="59.676" y1="104.427" y2="104.427" fill="none" stroke="#434d72" stroke-miterlimit="10" stroke-width="1.25"/><line x1="54.389" x2="41.916" y1="104.427" y2="104.427" fill="none" stroke="#434d72" stroke-miterlimit="10" stroke-width="1.25"/><rect width="30.368" height="20.075" x="98.58" y="55.552" fill="none" stroke="#434d72" stroke-miterlimit="10" stroke-width="1.25"/><rect width="48.463" height="34.517" x="41.915" y="55.551" fill="none" stroke="#434d72" stroke-miterlimit="10" stroke-width="1.25"/><line x1="90.379" x2="41.916" y1="97.702" y2="97.702" fill="none" stroke="#434d72" stroke-miterlimit="10" stroke-width="1.25"/><path fill="none" stroke="#434d72" stroke-miterlimit="10" stroke-width="1.25" d="M29.7369,118.3329V44.0619a3.00947,3.00947,0,0,1,3-3h115.429a3.00946,3.00946,0,0,1,3,3v74.271Z"/><line x1="29.737" x2="151.166" y1="45.599" y2="45.599" fill="none" stroke="#434d72" stroke-miterlimit="10" stroke-width="1.25"/></g></g></g><g opacity=".3"><g clip-path="url(#e)"><g clip-path="url(#f)"><polyline fill="none" stroke="#434d72" stroke-miterlimit="10" stroke-width="1.25" points="116.575 99.601 116.575 65.268 156.596 65.268 156.596 99.601"/><line x1="93.022" x2="59.91" y1="92.608" y2="92.608" fill="none" stroke="#434d72" stroke-miterlimit="10" stroke-width="1.25"/><line x1="108.374" x2="77.671" y1="85.695" y2="85.695" fill="none" stroke="#434d72" stroke-miterlimit="10" stroke-width="1.25"/><line x1="72.383" x2="59.91" y1="85.695" y2="85.695" fill="none" stroke="#434d72" stroke-miterlimit="10" stroke-width="1.25"/><rect width="30.368" height="20.076" x="116.575" y="36.819" fill="none" stroke="#434d72" stroke-miterlimit="10" stroke-width="1.25"/><rect width="48.463" height="34.518" x="59.911" y="36.819" fill="none" stroke="#434d72" stroke-miterlimit="10" stroke-width="1.25"/><line x1="108.374" x2="59.911" y1="78.97" y2="78.97" fill="none" stroke="#434d72" stroke-miterlimit="10" stroke-width="1.25"/><path fill="none" stroke="#434d72" stroke-miterlimit="10" stroke-width="1.25" d="M47.732,99.6015V25.3305a3.00947,3.00947,0,0,1,3-3H166.16a3.00882,3.00882,0,0,1,3,3v74.271Z"/><line x1="47.732" x2="169.16" y1="26.868" y2="26.868" fill="none" stroke="#434d72" stroke-miterlimit="10" stroke-width="1.25"/></g></g></g><path fill="none" stroke="#434d72" stroke-miterlimit="10" stroke-width="1.25" d="M11.3218,137.6181V62.3471a3.00882,3.00882,0,0,1,3-3h115.428a3.00883,3.00883,0,0,1,3,3v75.271Z"/><line x1="11.322" x2="132.75" y1="63.885" y2="63.885" fill="none" stroke="#434d72" stroke-miterlimit="10" stroke-width="1.25"/></g></g></svg>