<svg xmlns="http://www.w3.org/2000/svg" xmlns:xlink="http://www.w3.org/1999/xlink" viewBox="0 0 160 160"><defs><clipPath id="a"><rect y="21.331" width="121.311" height="117.338" style="fill:none"/></clipPath><clipPath id="c"><rect x="18.5717" y="54.7914" width="17.0922" height="51.3603" style="fill:none"/></clipPath><clipPath id="d"><rect x="25.6631" y="53.2833" width="9.6113" height="1.25" style="fill:none"/></clipPath><clipPath id="e"><rect x="85.9548" y="105.4666" width="9.6112" height="1.25" style="fill:none"/></clipPath><clipPath id="g"><rect x="1.72159" y="23.135" width="59.51801" height="31.3986" style="fill:none"/></clipPath><clipPath id="i"><rect x="59.9895" y="105.4666" width="59.51751" height="31.39849" style="fill:none"/></clipPath><clipPath id="j"><rect x="85.8594" y="53.2833" width="16.7986" height="51.3604" style="fill:none"/></clipPath></defs><title>model-icon7</title><g style="clip-path:url(#a)"><g style="clip-path:url(#a)"><g style="opacity:0.3000029921531677"><g style="clip-path:url(#c)"><polyline points="19.197 54.791 19.197 105.526 35.664 105.526" style="fill:none;stroke:#434d72;stroke-miterlimit:10;stroke-width:1.25px"/></g></g><g style="opacity:0.3000029921531677"><g style="clip-path:url(#d)"><line x1="35.2746" y1="53.9083" x2="25.6636" y2="53.9083" style="fill:none;stroke:#434d72;stroke-miterlimit:10;stroke-width:1.25px"/></g></g><g style="opacity:0.3000029921531677"><g style="clip-path:url(#e)"><line x1="95.5661" y1="106.0919" x2="85.9551" y2="106.0919" style="fill:none;stroke:#434d72;stroke-miterlimit:10;stroke-width:1.25px"/></g></g></g><rect x="12.73" y="47.442" width="12.933" height="12.933" style="fill:#434d72"/><g style="clip-path:url(#a)"><g style="opacity:0.3000029921531677"><g style="clip-path:url(#g)"><polyline points="60.614 32.359 60.614 23.76 2.346 23.759 2.346 53.909 12.73 53.909" style="fill:none;stroke:#434d72;stroke-miterlimit:10;stroke-width:1.25px"/></g></g></g><rect x="95.566" y="99.625" width="12.933" height="12.933" style="fill:#434d72"/><rect x="95.566" y="31.868" width="12.933" height="12.933" style="fill:#434d72"/><g style="clip-path:url(#a)"><g style="opacity:0.3000029921531677"><g style="clip-path:url(#i)"><polyline points="60.614 123.965 60.614 136.24 118.882 136.24 118.882 106.092 108.499 106.092" style="fill:none;stroke:#434d72;stroke-miterlimit:10;stroke-width:1.25px"/></g></g><circle cx="102.03269" cy="136.2403" r="1.804" style="fill:none;stroke:#1de9b6;stroke-miterlimit:10;stroke-width:1.25px"/><circle cx="19.1967" cy="23.76015" r="1.80425" style="fill:none;stroke:#1de9b6;stroke-miterlimit:10;stroke-width:1.25px"/><polyline points="87.327 80.159 118.964 80.159 118.964 36.68 118.964 23.76 102.032 23.76 102.032 33.568" style="fill:none;stroke:#434d72;stroke-miterlimit:10;stroke-width:1.25px"/><circle cx="118.88245" cy="53.9083" r="1.80375" style="fill:none;stroke:#1de9b6;stroke-miterlimit:10;stroke-width:1.25px"/><g style="opacity:0.3000029921531677"><g style="clip-path:url(#j)"><polyline points="102.032 104.644 102.032 53.909 85.859 53.909" style="fill:none;stroke:#434d72;stroke-miterlimit:10;stroke-width:1.25px"/></g></g><rect x="12.812" y="115.199" width="12.933" height="12.933" style="fill:#434d72"/><polyline points="60.614 79.841 2.346 79.841 2.346 123.32 2.346 136.24 19.279 136.24 19.279 126.432" style="fill:none;stroke:#434d72;stroke-miterlimit:10;stroke-width:1.25px"/><circle cx="2.4291" cy="106.0919" r="1.804" style="fill:none;stroke:#1de9b6;stroke-miterlimit:10;stroke-width:1.25px"/><path d="M87.3273,38.4151v82.829a6.05554,6.05554,0,0,1-6.056,6.056H39.9523a6.05553,6.05553,0,0,1-6.056-6.056V38.4151a6.05554,6.05554,0,0,1,6.056-6.056h41.319" style="fill:none;stroke:#1de9b6;stroke-miterlimit:10;stroke-width:1.25px"/><line x1="33.4791" y1="117.1065" x2="86.9101" y2="117.1065" style="fill:none;stroke:#1de9b6;stroke-miterlimit:10;stroke-width:1.25px"/><path d="M62.359,122.1427a1.7475,1.7475,0,1,1-1.747-1.748,1.7468,1.7468,0,0,1,1.747,1.748" style="fill:#1de9b6"/><path d="M87.3273,38.4151a6.05554,6.05554,0,0,0-6.056-6.056" style="fill:none;stroke:#1de9b6;stroke-miterlimit:10;stroke-width:1.25px"/><circle cx="60.61195" cy="79.82995" r="13.0105" style="fill:none;stroke:#1de9b6;stroke-miterlimit:10;stroke-width:1.25px"/></g></g></svg>