<svg xmlns="http://www.w3.org/2000/svg" viewBox="0 0 160 160"><title>model-icon1</title><path d="M55.62524,97.49155l0,0a12.425,12.425,0,0,0,17.52034.00037L90.71362,79.924" style="fill:none;stroke:#1de9b6;stroke-linecap:round;stroke-linejoin:round;stroke-width:1.25px"/><path d="M90.71358,62.4034l0,0A12.425,12.425,0,0,0,73.19322,62.403L55.6252,79.971" style="fill:none;stroke:#1de9b6;stroke-linecap:round;stroke-linejoin:round;stroke-width:1.25px"/><path d="M84.27993,68.83663l0,0a12.425,12.425,0,0,0,17.52034.00037l17.568-17.56793a12.42547,12.42547,0,0,0,0-17.52059l0,0a12.425,12.425,0,0,0-17.52034-.00037L84.27989,51.316" style="fill:none;stroke:#1de9b6;stroke-linecap:round;stroke-linejoin:round;stroke-width:1.25px"/><path d="M62.05873,91.05816l0,0a12.42506,12.42506,0,0,0-17.52035-.00037l-17.568,17.56793a12.42546,12.42546,0,0,0,.00005,17.52058l0,0a12.42506,12.42506,0,0,0,17.52035.00037l17.568-17.56793" style="fill:none;stroke:#1de9b6;stroke-linecap:round;stroke-linejoin:round;stroke-width:1.25px"/><circle cx="119.7544" cy="124.91735" r="9.22824" style="fill:#434d72"/><circle cx="119.75418" cy="124.91722" r="22.15095" style="fill:none;stroke:#434d72;stroke-miterlimit:10;stroke-width:1.25px;opacity:0.30000000000000004"/><circle cx="119.75397" cy="124.9171" r="29.0889" style="fill:none;stroke:#434d72;stroke-miterlimit:10;stroke-width:1.25px;opacity:0.30000000000000004"/><line x1="119.75436" y1="122.92799" x2="119.75436" y2="70.56069" style="fill:none;stroke:#434d72;stroke-miterlimit:10;stroke-width:1.25px"/><line x1="117.76501" y1="124.91732" x2="66.30193" y2="124.91732" style="fill:none;stroke:#434d72;stroke-miterlimit:10;stroke-width:1.25px"/><line x1="29.71422" y1="37.0724" x2="29.71416" y2="89.43981" style="fill:none;stroke:#434d72;stroke-miterlimit:10;stroke-width:1.25px"/><line x1="31.70357" y1="35.08306" x2="83.16667" y2="35.08306" style="fill:none;stroke:#434d72;stroke-miterlimit:10;stroke-width:1.25px"/><circle cx="119.75419" cy="124.91723" r="2.84811" style="fill:none;stroke:#1de9b6;stroke-linecap:round;stroke-linejoin:round;stroke-width:1.25px"/><circle cx="29.71438" cy="35.08315" r="9.22824" style="fill:#434d72"/><circle cx="29.71416" cy="35.08302" r="22.15095" style="fill:none;stroke:#434d72;stroke-miterlimit:10;stroke-width:1.25px;opacity:0.30000000000000004"/><circle cx="29.71396" cy="35.0829" r="29.0889" style="fill:none;stroke:#434d72;stroke-miterlimit:10;stroke-width:1.25px;opacity:0.30000000000000004"/><circle cx="29.71418" cy="35.08303" r="2.84811" style="fill:none;stroke:#1de9b6;stroke-linecap:round;stroke-linejoin:round;stroke-width:1.25px"/></svg>