<svg xmlns="http://www.w3.org/2000/svg" viewBox="0 0 160 160"><title>model-icon4</title><path d="M115.9688,70.13107c1.55045,1.15894,2.3863,2.39218,2.3863,3.67127,0,6.75773-23.33089,12.23595-52.111,12.23595s-52.111-5.47822-52.111-12.23595a4.40634,4.40634,0,0,1,1.83666-3.23155" style="fill:none;stroke:#434d72;stroke-miterlimit:10;stroke-width:1.25px"/><path d="M118.35511,88.61616c0,6.75773-23.33089,12.23595-52.111,12.23595s-52.111-5.47822-52.111-12.23595" style="fill:none;stroke:#434d72;stroke-miterlimit:10;stroke-width:1.25px"/><line x1="14.1331" y1="73.80234" x2="14.1331" y2="88.61616" style="fill:none;stroke:#434d72;stroke-miterlimit:10;stroke-width:1.25px"/><line x1="118.35511" y1="73.80234" x2="118.35511" y2="88.61616" style="fill:none;stroke:#434d72;stroke-miterlimit:10;stroke-width:1.25px"/><line x1="27.16085" y1="81.89485" x2="27.16085" y2="96.70788" style="fill:none;stroke:#434d72;stroke-miterlimit:10;stroke-width:1.25px"/><line x1="40.1886" y1="84.40055" x2="40.1886" y2="99.2967" style="fill:none;stroke:#434d72;stroke-miterlimit:10;stroke-width:1.25px"/><line x1="66.2441" y1="86.03828" x2="66.2441" y2="100.85211" style="fill:none;stroke:#434d72;stroke-miterlimit:10;stroke-width:1.25px"/><line x1="79.27185" y1="85.65228" x2="79.27185" y2="100.85211" style="fill:none;stroke:#434d72;stroke-miterlimit:10;stroke-width:1.25px"/><line x1="53.21635" y1="85.65228" x2="53.21635" y2="100.46609" style="fill:none;stroke:#434d72;stroke-miterlimit:10;stroke-width:1.25px"/><line x1="105.32736" y1="81.89485" x2="105.32736" y2="96.70788" style="fill:none;stroke:#434d72;stroke-miterlimit:10;stroke-width:1.25px"/><line x1="92.2996" y1="84.40055" x2="92.2996" y2="99.21455" style="fill:none;stroke:#434d72;stroke-miterlimit:10;stroke-width:1.25px"/><g style="opacity:0.30000000000000004"><ellipse cx="66.2441" cy="46.75257" rx="52.111" ry="12.23595" style="fill:none;stroke:#434d72;stroke-miterlimit:10;stroke-width:1.25px"/><path d="M118.35511,61.56639c0,6.75773-23.33089,12.23595-52.111,12.23595s-52.111-5.47822-52.111-12.23595" style="fill:none;stroke:#434d72;stroke-miterlimit:10;stroke-width:1.25px"/><line x1="14.1331" y1="46.75257" x2="14.1331" y2="61.56639" style="fill:none;stroke:#434d72;stroke-miterlimit:10;stroke-width:1.25px"/><line x1="118.35511" y1="46.75257" x2="118.35511" y2="61.56639" style="fill:none;stroke:#434d72;stroke-miterlimit:10;stroke-width:1.25px"/><line x1="27.16085" y1="54.84508" x2="27.16085" y2="69.65811" style="fill:none;stroke:#434d72;stroke-miterlimit:10;stroke-width:1.25px"/><line x1="40.1886" y1="57.35078" x2="40.1886" y2="72.24693" style="fill:none;stroke:#434d72;stroke-miterlimit:10;stroke-width:1.25px"/><line x1="66.2441" y1="58.98851" x2="66.2441" y2="73.80234" style="fill:none;stroke:#434d72;stroke-miterlimit:10;stroke-width:1.25px"/><line x1="79.27185" y1="58.60251" x2="79.27185" y2="73.80234" style="fill:none;stroke:#434d72;stroke-miterlimit:10;stroke-width:1.25px"/><line x1="53.21635" y1="58.60251" x2="53.21635" y2="73.41632" style="fill:none;stroke:#434d72;stroke-miterlimit:10;stroke-width:1.25px"/><line x1="105.32736" y1="54.84508" x2="105.32736" y2="69.65811" style="fill:none;stroke:#434d72;stroke-miterlimit:10;stroke-width:1.25px"/><line x1="92.2996" y1="57.35078" x2="92.2996" y2="72.16478" style="fill:none;stroke:#434d72;stroke-miterlimit:10;stroke-width:1.25px"/></g><path d="M115.9688,97.11773c1.55045,1.15894,2.3863,2.39218,2.3863,3.67127,0,6.75773-23.33089,12.23595-52.111,12.23595s-52.111-5.47822-52.111-12.23595a4.40634,4.40634,0,0,1,1.83666-3.23155" style="fill:none;stroke:#1de9b6;stroke-miterlimit:10;stroke-width:1.25px"/><path d="M118.35511,115.60283c0,6.75773-23.33089,12.23595-52.111,12.23595s-52.111-5.47822-52.111-12.23595" style="fill:none;stroke:#1de9b6;stroke-miterlimit:10;stroke-width:1.25px"/><line x1="14.1331" y1="100.789" x2="14.1331" y2="115.60283" style="fill:none;stroke:#1de9b6;stroke-miterlimit:10;stroke-width:1.25px"/><line x1="118.35511" y1="100.789" x2="118.35511" y2="115.60283" style="fill:none;stroke:#1de9b6;stroke-miterlimit:10;stroke-width:1.25px"/><line x1="27.16085" y1="108.88152" x2="27.16085" y2="123.69455" style="fill:none;stroke:#1de9b6;stroke-miterlimit:10;stroke-width:1.25px"/><line x1="40.1886" y1="111.38721" x2="40.1886" y2="126.28337" style="fill:none;stroke:#1de9b6;stroke-miterlimit:10;stroke-width:1.25px"/><line x1="66.2441" y1="113.02495" x2="66.2441" y2="127.83877" style="fill:none;stroke:#1de9b6;stroke-miterlimit:10;stroke-width:1.25px"/><line x1="79.27185" y1="112.63894" x2="79.27185" y2="127.83877" style="fill:none;stroke:#1de9b6;stroke-miterlimit:10;stroke-width:1.25px"/><line x1="53.21635" y1="112.63894" x2="53.21635" y2="127.45276" style="fill:none;stroke:#1de9b6;stroke-miterlimit:10;stroke-width:1.25px"/><line x1="105.32736" y1="108.88152" x2="105.32736" y2="123.69455" style="fill:none;stroke:#1de9b6;stroke-miterlimit:10;stroke-width:1.25px"/><line x1="92.2996" y1="111.38721" x2="92.2996" y2="126.20121" style="fill:none;stroke:#1de9b6;stroke-miterlimit:10;stroke-width:1.25px"/><circle cx="13.88015" cy="44.39717" r="13.88014" style="fill:#434d72"/><polyline points="19.266 42.859 13.88 48.245 8.495 42.859" style="fill:none;stroke:#1de9b6;stroke-miterlimit:10;stroke-width:1.25px"/><circle cx="118.48543" cy="115.60283" r="13.88024" style="fill:#434d72"/><polyline points="113.1 117.141 118.485 111.755 123.871 117.141" style="fill:none;stroke:#1de9b6;stroke-miterlimit:10;stroke-width:1.25px"/></svg>