<svg xmlns="http://www.w3.org/2000/svg" viewBox="0 0 160 160"><title>model-icon3</title><path d="M21.32714,140.80741A48.582,48.582,0,0,1,3.804,119.53653,48.0668,48.0668,0,0,1,0,100.74181V69.62909" style="fill:none;stroke:#434d72;stroke-miterlimit:10;stroke-width:1.25px;opacity:0.30000000000000004"/><path d="M88.396,127.74549A48.58243,48.58243,0,0,1,67.125,145.2687a48.24546,48.24546,0,0,1-37.589,0" style="fill:none;stroke:#434d72;stroke-miterlimit:10;stroke-width:1.25px;opacity:0.30000000000000004"/><path d="M96.66142,85.18545v15.55636a48.06613,48.06613,0,0,1-3.8041,18.79472" style="fill:none;stroke:#434d72;stroke-miterlimit:10;stroke-width:1.25px;opacity:0.30000000000000004"/><path d="M88.396,32.25451a48.07012,48.07012,0,0,1,8.26544,27.00368V74.81455" style="fill:none;stroke:#434d72;stroke-miterlimit:10;stroke-width:1.25px;opacity:0.30000000000000004"/><path d="M38.60242,11.91091a48.29313,48.29313,0,0,1,43.88716,13.188" style="fill:none;stroke:#434d72;stroke-miterlimit:10;stroke-width:1.25px;opacity:0.30000000000000004"/><path d="M0,59.25819a48.44985,48.44985,0,0,1,21.32714-40.0656" style="fill:none;stroke:#434d72;stroke-miterlimit:10;stroke-width:1.25px;opacity:0.30000000000000004"/><path d="M12.67067,115.794a38.49543,38.49543,0,0,1-3.04652-15.05215V80" style="fill:none;stroke:#434d72;stroke-miterlimit:10;stroke-width:1.25px;opacity:0.5"/><path d="M48.33049,139.44859a38.80155,38.80155,0,0,1-32.08694-17.08032" style="fill:none;stroke:#434d72;stroke-miterlimit:10;stroke-width:1.25px;opacity:0.5"/><path d="M87.03727,90.37091v10.37091a38.81647,38.81647,0,0,1-23.65481,35.66025" style="fill:none;stroke:#434d72;stroke-miterlimit:10;stroke-width:1.25px;opacity:0.5"/><path d="M86.24948,51.46714a38.73541,38.73541,0,0,1,.78779,7.791V80" style="fill:none;stroke:#434d72;stroke-miterlimit:10;stroke-width:1.25px;opacity:0.5"/><path d="M40.53959,21.33918A38.78194,38.78194,0,0,1,80.41773,37.63173" style="fill:none;stroke:#434d72;stroke-miterlimit:10;stroke-width:1.25px;opacity:0.5"/><path d="M16.24356,37.63173A39.0251,39.0251,0,0,1,26.70436,27.17084" style="fill:none;stroke:#434d72;stroke-miterlimit:10;stroke-width:1.25px;opacity:0.5"/><path d="M9.62415,69.62909V59.25819a38.73625,38.73625,0,0,1,.78777-7.791" style="fill:none;stroke:#434d72;stroke-miterlimit:10;stroke-width:1.25px"/><path d="M19.2481,74.81445V59.258a28.89831,28.89831,0,0,1,4.98434-16.23106" style="fill:none;stroke:#434d72;stroke-miterlimit:10;stroke-width:1.25px"/><path d="M21.54289,112.034a28.81537,28.81537,0,0,1-2.29478-11.29216V85.18542" style="fill:none;stroke:#434d72;stroke-miterlimit:10;stroke-width:1.25px"/><path d="M59.62274,127.52951a28.81537,28.81537,0,0,1-11.29216,2.29478h-.00006A28.89831,28.89831,0,0,1,32.09946,124.84a29.42617,29.42617,0,0,1-4.3084-3.55862" style="fill:none;stroke:#434d72;stroke-miterlimit:10;stroke-width:1.25px"/><path d="M77.413,90.3709v10.371a28.89831,28.89831,0,0,1-4.98434,16.23106,29.42617,29.42617,0,0,1-3.55862,4.3084" style="fill:none;stroke:#434d72;stroke-miterlimit:10;stroke-width:1.25px"/><polyline points="77.413 69.629 77.413 74.814 77.413 80" style="fill:none;stroke:#434d72;stroke-miterlimit:10;stroke-width:1.25px"/><path d="M68.87,38.71854a29.42616,29.42616,0,0,1,3.55862,4.3084,29.11961,29.11961,0,0,1,2.68956,4.9389A28.81537,28.81537,0,0,1,77.413,59.258" style="fill:none;stroke:#434d72;stroke-miterlimit:10;stroke-width:1.25px"/><path d="M32.09946,35.15992a29.11961,29.11961,0,0,1,4.9389-2.68956,28.81537,28.81537,0,0,1,11.29216-2.29478h.00006a28.81537,28.81537,0,0,1,11.29216,2.29478" style="fill:none;stroke:#434d72;stroke-miterlimit:10;stroke-width:1.25px"/><path d="M35.19646,113.87622a18.652,18.652,0,0,1-3.98641-5.90777,18.48175,18.48175,0,0,1-1.46269-7.22664V80" style="fill:none;stroke:#1de9b6;stroke-miterlimit:10;stroke-width:1.25px"/><path d="M61.46491,113.87622a18.65182,18.65182,0,0,1-5.90777,3.98645,18.54993,18.54993,0,0,1-14.453,0" style="fill:none;stroke:#1de9b6;stroke-miterlimit:10;stroke-width:1.25px"/><path d="M66.91405,69.62909v31.11272a18.48163,18.48163,0,0,1-1.46269,7.22664" style="fill:none;stroke:#1de9b6;stroke-miterlimit:10;stroke-width:1.25px"/><path d="M44.59011,41.05285A18.57626,18.57626,0,0,1,66.91405,59.25819" style="fill:none;stroke:#1de9b6;stroke-miterlimit:10;stroke-width:1.25px"/><path d="M29.74736,69.62909V59.25819a18.62958,18.62958,0,0,1,8.20042-15.40545" style="fill:none;stroke:#1de9b6;stroke-miterlimit:10;stroke-width:1.25px"/><polyline points="40.246 90.371 40.246 85.185 40.246 80 40.246 74.815" style="fill:none;stroke:#1de9b6;stroke-miterlimit:10;stroke-width:1.25px"/><path d="M56.415,85.18545v15.55636a8.08428,8.08428,0,1,1-16.16855,0" style="fill:none;stroke:#1de9b6;stroke-miterlimit:10;stroke-width:1.25px"/><path d="M56.25045,57.631a8.08979,8.08979,0,0,1,.16454,1.62717V74.81455" style="fill:none;stroke:#1de9b6;stroke-miterlimit:10;stroke-width:1.25px"/><path d="M40.24643,64.44364V59.25819a8.07608,8.07608,0,0,1,12.60109-6.70182" style="fill:none;stroke:#1de9b6;stroke-miterlimit:10;stroke-width:1.25px"/><circle cx="88.97593" cy="129.71064" r="15.83441" style="fill:#434d72"/><polyline points="85.645 129.377 88.832 132.436 101.406 115.794" style="fill:none;stroke:#1de9b6;stroke-miterlimit:10;stroke-width:1.25px"/></svg>