<svg xmlns="http://www.w3.org/2000/svg" xmlns:xlink="http://www.w3.org/1999/xlink" viewBox="0 0 160 160"><defs><clipPath id="a"><rect width="121.311" height="117.338" y="21.331" fill="none"/></clipPath><clipPath id="c"><rect width="17.092" height="51.36" x="18.572" y="54.791" fill="none"/></clipPath><clipPath id="d"><rect width="9.611" height="1.25" x="25.663" y="53.283" fill="none"/></clipPath><clipPath id="e"><rect width="9.611" height="1.25" x="85.955" y="105.467" fill="none"/></clipPath><clipPath id="g"><rect width="59.518" height="31.399" x="1.722" y="23.135" fill="none"/></clipPath><clipPath id="i"><rect width="59.518" height="31.398" x="59.989" y="105.467" fill="none"/></clipPath><clipPath id="j"><rect width="16.799" height="51.36" x="85.859" y="53.283" fill="none"/></clipPath></defs><title>model-icon7</title><g clip-path="url(#a)"><g clip-path="url(#a)"><g opacity=".3"><g clip-path="url(#c)"><polyline fill="none" stroke="#434d72" stroke-miterlimit="10" stroke-width="1.25" points="19.197 54.791 19.197 105.526 35.664 105.526"/></g></g><g opacity=".3"><g clip-path="url(#d)"><line x1="35.275" x2="25.664" y1="53.908" y2="53.908" fill="none" stroke="#434d72" stroke-miterlimit="10" stroke-width="1.25"/></g></g><g opacity=".3"><g clip-path="url(#e)"><line x1="95.566" x2="85.955" y1="106.092" y2="106.092" fill="none" stroke="#434d72" stroke-miterlimit="10" stroke-width="1.25"/></g></g></g><rect width="12.933" height="12.933" x="12.73" y="47.442" fill="#434d72"/><g clip-path="url(#a)"><g opacity=".3"><g clip-path="url(#g)"><polyline fill="none" stroke="#434d72" stroke-miterlimit="10" stroke-width="1.25" points="60.614 32.359 60.614 23.76 2.346 23.759 2.346 53.909 12.73 53.909"/></g></g></g><rect width="12.933" height="12.933" x="95.566" y="99.625" fill="#434d72"/><rect width="12.933" height="12.933" x="95.566" y="31.868" fill="#434d72"/><g clip-path="url(#a)"><g opacity=".3"><g clip-path="url(#i)"><polyline fill="none" stroke="#434d72" stroke-miterlimit="10" stroke-width="1.25" points="60.614 123.965 60.614 136.24 118.882 136.24 118.882 106.092 108.499 106.092"/></g></g><circle cx="102.033" cy="136.24" r="1.804" fill="none" stroke="#1de9b6" stroke-miterlimit="10" stroke-width="1.25"/><circle cx="19.197" cy="23.76" r="1.804" fill="none" stroke="#1de9b6" stroke-miterlimit="10" stroke-width="1.25"/><polyline fill="none" stroke="#434d72" stroke-miterlimit="10" stroke-width="1.25" points="87.327 80.159 118.964 80.159 118.964 36.68 118.964 23.76 102.032 23.76 102.032 33.568"/><circle cx="118.882" cy="53.908" r="1.804" fill="none" stroke="#1de9b6" stroke-miterlimit="10" stroke-width="1.25"/><g opacity=".3"><g clip-path="url(#j)"><polyline fill="none" stroke="#434d72" stroke-miterlimit="10" stroke-width="1.25" points="102.032 104.644 102.032 53.909 85.859 53.909"/></g></g><rect width="12.933" height="12.933" x="12.812" y="115.199" fill="#434d72"/><polyline fill="none" stroke="#434d72" stroke-miterlimit="10" stroke-width="1.25" points="60.614 79.841 2.346 79.841 2.346 123.32 2.346 136.24 19.279 136.24 19.279 126.432"/><circle cx="2.429" cy="106.092" r="1.804" fill="none" stroke="#1de9b6" stroke-miterlimit="10" stroke-width="1.25"/><path fill="none" stroke="#1de9b6" stroke-miterlimit="10" stroke-width="1.25" d="M87.3273,38.4151v82.829a6.05554,6.05554,0,0,1-6.056,6.056H39.9523a6.05553,6.05553,0,0,1-6.056-6.056V38.4151a6.05554,6.05554,0,0,1,6.056-6.056h41.319"/><line x1="33.479" x2="86.91" y1="117.106" y2="117.106" fill="none" stroke="#1de9b6" stroke-miterlimit="10" stroke-width="1.25"/><path fill="#1de9b6" d="M62.359,122.1427a1.7475,1.7475,0,1,1-1.747-1.748,1.7468,1.7468,0,0,1,1.747,1.748"/><path fill="none" stroke="#1de9b6" stroke-miterlimit="10" stroke-width="1.25" d="M87.3273,38.4151a6.05554,6.05554,0,0,0-6.056-6.056"/><circle cx="60.612" cy="79.83" r="13.011" fill="none" stroke="#1de9b6" stroke-miterlimit="10" stroke-width="1.25"/></g></g></svg>