<svg xmlns="http://www.w3.org/2000/svg" xmlns:xlink="http://www.w3.org/1999/xlink" viewBox="0 0 190 160"><defs><clipPath id="a"><rect width="186.963" height="129.247" y="15.377" fill="none"/></clipPath><clipPath id="c"><rect width="85.621" height="72.659" x="47.286" y="58.456" fill="none"/></clipPath><clipPath id="e"><rect width="52.916" height="26.486" x="54.828" y="22.895" fill="none"/></clipPath></defs><title>model-icon9</title><g clip-path="url(#a)"><polyline fill="none" stroke="#434d72" stroke-miterlimit="10" stroke-width="1.25" points="159.912 131.115 13.183 131.259 13.096 42.472 132.907 42.329"/><g clip-path="url(#a)"><g opacity=".3"><g clip-path="url(#c)"><polyline fill="none" stroke="#434d72" stroke-miterlimit="10" stroke-width="1.25" points="98.833 131.115 98.833 93.743 47.912 93.744 47.912 59.081 132.907 59.081"/></g></g></g><line x1="159.825" x2="159.912" y1="110.942" y2="131.115" fill="none" stroke="#434d72" stroke-miterlimit="10" stroke-width="1.25"/><rect width="12.741" height="88.786" x=".668" y="42.479" fill="#434d72"/><g clip-path="url(#a)"><rect width="12.74" height="88.786" x=".669" y="42.479" fill="none" stroke="#434d72" stroke-miterlimit="10" stroke-width="1.25"/><g opacity=".3"><g clip-path="url(#e)"><path fill="none" stroke="#434d72" stroke-miterlimit="10" stroke-width="1.25" d="M55.453,49.3796a25.833,25.833,0,1,1,51.666-.051"/></g></g></g><rect width="43.526" height="12.74" x="13.458" y="131.237" fill="#434d72"/><g clip-path="url(#a)"><rect width="43.525" height="12.74" x="13.458" y="131.237" fill="none" stroke="#434d72" stroke-miterlimit="10" stroke-width="1.25"/><rect width="128.933" height="12.74" x="56.988" y="131.15" fill="none" stroke="#434d72" stroke-miterlimit="10" stroke-width="1.25"/><path fill="none" stroke="#1de9b6" stroke-miterlimit="10" stroke-width="1.25" d="M186.3383,22.0573v82.829a6.05555,6.05555,0,0,1-6.056,6.056h-41.32a6.05532,6.05532,0,0,1-6.055-6.056V22.0573a6.05532,6.05532,0,0,1,6.055-6.056h41.32"/><line x1="132.49" x2="185.922" y1="100.749" y2="100.749" fill="none" stroke="#1de9b6" stroke-miterlimit="10" stroke-width="1.25"/><path fill="#1de9b6" d="M161.37,105.7848a1.74751,1.74751,0,1,1-1.748-1.748,1.747,1.747,0,0,1,1.748,1.748"/><path fill="none" stroke="#1de9b6" stroke-miterlimit="10" stroke-width="1.25" d="M186.3383,22.0573a6.05554,6.05554,0,0,0-6.056-6.056"/><line x1="142.059" x2="151.166" y1="43.868" y2="43.868" fill="none" stroke="#434d72" stroke-miterlimit="10" stroke-width="1.25"/><line x1="142.059" x2="156.75" y1="52.958" y2="52.958" fill="none" stroke="#434d72" stroke-miterlimit="10" stroke-width="1.25"/><line x1="159.978" x2="166.968" y1="52.958" y2="52.958" fill="none" stroke="#434d72" stroke-miterlimit="10" stroke-width="1.25"/><line x1="170.197" x2="177.186" y1="52.958" y2="52.958" fill="none" stroke="#434d72" stroke-miterlimit="10" stroke-width="1.25"/><line x1="142.059" x2="158.084" y1="34.778" y2="34.778" fill="none" stroke="#434d72" stroke-miterlimit="10" stroke-width="1.25"/><line x1="168.103" x2="177.186" y1="34.778" y2="34.778" fill="none" stroke="#434d72" stroke-miterlimit="10" stroke-width="1.25"/><line x1="142.059" x2="170.197" y1="62.047" y2="62.047" fill="none" stroke="#434d72" stroke-miterlimit="10" stroke-width="1.25"/><line x1="142.059" x2="151.166" y1="80.227" y2="80.227" fill="none" stroke="#434d72" stroke-miterlimit="10" stroke-width="1.25"/><line x1="142.059" x2="156.75" y1="89.317" y2="89.317" fill="none" stroke="#434d72" stroke-miterlimit="10" stroke-width="1.25"/><line x1="159.978" x2="166.968" y1="89.317" y2="89.317" fill="none" stroke="#434d72" stroke-miterlimit="10" stroke-width="1.25"/><line x1="170.197" x2="177.186" y1="89.317" y2="89.317" fill="none" stroke="#434d72" stroke-miterlimit="10" stroke-width="1.25"/><line x1="142.059" x2="164.182" y1="71.137" y2="71.137" fill="none" stroke="#434d72" stroke-miterlimit="10" stroke-width="1.25"/><line x1="168.103" x2="177.186" y1="71.137" y2="71.137" fill="none" stroke="#434d72" stroke-miterlimit="10" stroke-width="1.25"/><line x1="142.059" x2="151.166" y1="27.032" y2="27.032" fill="none" stroke="#434d72" stroke-miterlimit="10" stroke-width="1.25"/><polyline fill="none" stroke="#1de9b6" stroke-miterlimit="10" stroke-width="1.25" points="106.374 131.115 106.374 100.749 55.453 100.749 55.453 66.087 132.907 66.087"/></g></g></svg>