<svg xmlns="http://www.w3.org/2000/svg" xmlns:xlink="http://www.w3.org/1999/xlink" viewBox="0 0 160 160"><defs><clipPath id="a"><rect y="3.9215" width="111.847" height="152.157" style="fill:none"/></clipPath><clipPath id="c"><polygon points="79.426 21.608 79.426 21.782 33.173 21.782 33.173 38.008 79.426 38.008 79.426 70.992 95.654 70.993 95.654 21.608 79.426 21.608" style="fill:none"/></clipPath><clipPath id="d"><polygon points="95.62 3.922 95.62 4.095 49.368 4.095 49.368 20.323 95.62 20.323 95.62 63.951 111.847 63.951 111.847 3.922 95.62 3.922" style="fill:none"/></clipPath><clipPath id="e"><rect x="51.8106" y="6.7215" width="54.2164" height="54.2168" style="fill:none"/></clipPath></defs><title>model-icon6</title><g style="clip-path:url(#a)"><g style="clip-path:url(#a)"><ellipse cx="47.3628" cy="81.8269" rx="46.738" ry="9.183" style="fill:none;stroke:#434d72;stroke-miterlimit:10;stroke-width:1.25px"/><path d="M94.1008,81.8269c0,5.071-20.925,9.183-46.738,9.183-25.812,0-46.738-4.112-46.738-9.183s20.926-9.183,46.738-9.183c25.813,0,46.738,4.112,46.738,9.183" style="fill:#434d72"/><path d="M21.407,85.7615V51.4865a9.373,9.373,0,0,1,9.345-9.346H65.028a9.373,9.373,0,0,1,9.345,9.346v34.275" style="fill:none;stroke:#1de9b6;stroke-miterlimit:10;stroke-width:1.25px"/><path d="M21.407,81.4226l11.576-7.676a2.92006,2.92006,0,0,1,3.056-.105l5.955,3.383a2.923,2.923,0,0,0,3.263-.255l11.451-9.125a2.92062,2.92062,0,0,1,3.72.065l13.945,11.946" style="fill:none;stroke:#1de9b6;stroke-miterlimit:10;stroke-width:1.25px"/><circle cx="34.6842" cy="54.87505" r="4.73475" style="fill:none;stroke:#1de9b6;stroke-miterlimit:10;stroke-width:1.25px"/><path d="M.6252,81.8269v15.376c0,5.071,20.925,9.183,46.738,9.183,25.812,0,46.738-4.112,46.738-9.183V81.8269" style="fill:none;stroke:#434d72;stroke-miterlimit:10;stroke-width:1.25px"/><path d="M94.1008,86.7146v11.076a7.79673,7.79673,0,0,1-2.073,5.294l-34.97,37.802a7.79486,7.79486,0,0,0-2.073,5.294v7.393a1.88037,1.88037,0,0,1-1.88,1.88H41.6208a1.88037,1.88037,0,0,1-1.88-1.88v-7.393a7.79486,7.79486,0,0,0-2.073-5.294l-34.97-37.802a7.80145,7.80145,0,0,1-2.073-5.294V86.7146" style="fill:none;stroke:#434d72;stroke-miterlimit:10;stroke-width:1.25px"/></g><g style="clip-path:url(#c)"><path d="M45.587,25.03381H79.863a9.346,9.346,0,0,1,9.346,9.346v34.275a9.345,9.345,0,0,1-9.345,9.345H45.588a9.346,9.346,0,0,1-9.346-9.346V34.3788A9.345,9.345,0,0,1,45.587,25.03381Z" style="fill:none;stroke:#434d72;stroke-miterlimit:10;stroke-width:1.25px"/><path d="M36.2424,64.3152l11.576-7.676a2.92222,2.92222,0,0,1,3.056-.105l5.955,3.383a2.923,2.923,0,0,0,3.263-.255l11.451-9.125a2.92064,2.92064,0,0,1,3.72.066l13.945,11.945" style="fill:none;stroke:#434d72;stroke-miterlimit:10;stroke-width:1.25px"/><circle cx="49.5196" cy="37.76805" r="4.73475" style="fill:none;stroke:#434d72;stroke-miterlimit:10;stroke-width:1.25px"/></g><g style="clip-path:url(#d)"><g style="opacity:0.3000029921531677"><g style="clip-path:url(#e)"><path d="M61.78139,7.34631h34.275a9.346,9.346,0,0,1,9.346,9.346v34.275a9.346,9.346,0,0,1-9.346,9.346h-34.275a9.346,9.346,0,0,1-9.346-9.346V16.6923a9.346,9.346,0,0,1,9.346-9.346Z" style="fill:none;stroke:#434d72;stroke-miterlimit:10;stroke-width:1.25px"/><path d="M52.4358,46.6287l11.576-7.676a2.92006,2.92006,0,0,1,3.056-.105l5.955,3.383a2.923,2.923,0,0,0,3.263-.255l11.451-9.125a2.92062,2.92062,0,0,1,3.72.065l13.945,11.946" style="fill:none;stroke:#434d72;stroke-miterlimit:10;stroke-width:1.25px"/><circle cx="65.713" cy="20.08115" r="4.73475" style="fill:none;stroke:#434d72;stroke-miterlimit:10;stroke-width:1.25px"/></g></g></g></g></svg>