<svg xmlns="http://www.w3.org/2000/svg" viewBox="0 0 160 160"><title>model-icon4</title><path fill="none" stroke="#434d72" stroke-miterlimit="10" stroke-width="1.25" d="M115.9688,70.13107c1.55045,1.15894,2.3863,2.39218,2.3863,3.67127,0,6.75773-23.33089,12.23595-52.111,12.23595s-52.111-5.47822-52.111-12.23595a4.40634,4.40634,0,0,1,1.83666-3.23155"/><path fill="none" stroke="#434d72" stroke-miterlimit="10" stroke-width="1.25" d="M118.35511,88.61616c0,6.75773-23.33089,12.23595-52.111,12.23595s-52.111-5.47822-52.111-12.23595"/><line x1="14.133" x2="14.133" y1="73.802" y2="88.616" fill="none" stroke="#434d72" stroke-miterlimit="10" stroke-width="1.25"/><line x1="118.355" x2="118.355" y1="73.802" y2="88.616" fill="none" stroke="#434d72" stroke-miterlimit="10" stroke-width="1.25"/><line x1="27.161" x2="27.161" y1="81.895" y2="96.708" fill="none" stroke="#434d72" stroke-miterlimit="10" stroke-width="1.25"/><line x1="40.189" x2="40.189" y1="84.401" y2="99.297" fill="none" stroke="#434d72" stroke-miterlimit="10" stroke-width="1.25"/><line x1="66.244" x2="66.244" y1="86.038" y2="100.852" fill="none" stroke="#434d72" stroke-miterlimit="10" stroke-width="1.25"/><line x1="79.272" x2="79.272" y1="85.652" y2="100.852" fill="none" stroke="#434d72" stroke-miterlimit="10" stroke-width="1.25"/><line x1="53.216" x2="53.216" y1="85.652" y2="100.466" fill="none" stroke="#434d72" stroke-miterlimit="10" stroke-width="1.25"/><line x1="105.327" x2="105.327" y1="81.895" y2="96.708" fill="none" stroke="#434d72" stroke-miterlimit="10" stroke-width="1.25"/><line x1="92.3" x2="92.3" y1="84.401" y2="99.215" fill="none" stroke="#434d72" stroke-miterlimit="10" stroke-width="1.25"/><g opacity=".3"><ellipse cx="66.244" cy="46.753" fill="none" stroke="#434d72" stroke-miterlimit="10" stroke-width="1.25" rx="52.111" ry="12.236"/><path fill="none" stroke="#434d72" stroke-miterlimit="10" stroke-width="1.25" d="M118.35511,61.56639c0,6.75773-23.33089,12.23595-52.111,12.23595s-52.111-5.47822-52.111-12.23595"/><line x1="14.133" x2="14.133" y1="46.753" y2="61.566" fill="none" stroke="#434d72" stroke-miterlimit="10" stroke-width="1.25"/><line x1="118.355" x2="118.355" y1="46.753" y2="61.566" fill="none" stroke="#434d72" stroke-miterlimit="10" stroke-width="1.25"/><line x1="27.161" x2="27.161" y1="54.845" y2="69.658" fill="none" stroke="#434d72" stroke-miterlimit="10" stroke-width="1.25"/><line x1="40.189" x2="40.189" y1="57.351" y2="72.247" fill="none" stroke="#434d72" stroke-miterlimit="10" stroke-width="1.25"/><line x1="66.244" x2="66.244" y1="58.989" y2="73.802" fill="none" stroke="#434d72" stroke-miterlimit="10" stroke-width="1.25"/><line x1="79.272" x2="79.272" y1="58.603" y2="73.802" fill="none" stroke="#434d72" stroke-miterlimit="10" stroke-width="1.25"/><line x1="53.216" x2="53.216" y1="58.603" y2="73.416" fill="none" stroke="#434d72" stroke-miterlimit="10" stroke-width="1.25"/><line x1="105.327" x2="105.327" y1="54.845" y2="69.658" fill="none" stroke="#434d72" stroke-miterlimit="10" stroke-width="1.25"/><line x1="92.3" x2="92.3" y1="57.351" y2="72.165" fill="none" stroke="#434d72" stroke-miterlimit="10" stroke-width="1.25"/></g><path fill="none" stroke="#1de9b6" stroke-miterlimit="10" stroke-width="1.25" d="M115.9688,97.11773c1.55045,1.15894,2.3863,2.39218,2.3863,3.67127,0,6.75773-23.33089,12.23595-52.111,12.23595s-52.111-5.47822-52.111-12.23595a4.40634,4.40634,0,0,1,1.83666-3.23155"/><path fill="none" stroke="#1de9b6" stroke-miterlimit="10" stroke-width="1.25" d="M118.35511,115.60283c0,6.75773-23.33089,12.23595-52.111,12.23595s-52.111-5.47822-52.111-12.23595"/><line x1="14.133" x2="14.133" y1="100.789" y2="115.603" fill="none" stroke="#1de9b6" stroke-miterlimit="10" stroke-width="1.25"/><line x1="118.355" x2="118.355" y1="100.789" y2="115.603" fill="none" stroke="#1de9b6" stroke-miterlimit="10" stroke-width="1.25"/><line x1="27.161" x2="27.161" y1="108.882" y2="123.695" fill="none" stroke="#1de9b6" stroke-miterlimit="10" stroke-width="1.25"/><line x1="40.189" x2="40.189" y1="111.387" y2="126.283" fill="none" stroke="#1de9b6" stroke-miterlimit="10" stroke-width="1.25"/><line x1="66.244" x2="66.244" y1="113.025" y2="127.839" fill="none" stroke="#1de9b6" stroke-miterlimit="10" stroke-width="1.25"/><line x1="79.272" x2="79.272" y1="112.639" y2="127.839" fill="none" stroke="#1de9b6" stroke-miterlimit="10" stroke-width="1.25"/><line x1="53.216" x2="53.216" y1="112.639" y2="127.453" fill="none" stroke="#1de9b6" stroke-miterlimit="10" stroke-width="1.25"/><line x1="105.327" x2="105.327" y1="108.882" y2="123.695" fill="none" stroke="#1de9b6" stroke-miterlimit="10" stroke-width="1.25"/><line x1="92.3" x2="92.3" y1="111.387" y2="126.201" fill="none" stroke="#1de9b6" stroke-miterlimit="10" stroke-width="1.25"/><circle cx="13.88" cy="44.397" r="13.88" fill="#434d72"/><polyline fill="none" stroke="#1de9b6" stroke-miterlimit="10" stroke-width="1.25" points="19.266 42.859 13.88 48.245 8.495 42.859"/><circle cx="118.485" cy="115.603" r="13.88" fill="#434d72"/><polyline fill="none" stroke="#1de9b6" stroke-miterlimit="10" stroke-width="1.25" points="113.1 117.141 118.485 111.755 123.871 117.141"/></svg>