<svg xmlns="http://www.w3.org/2000/svg" xmlns:xlink="http://www.w3.org/1999/xlink" viewBox="0 0 1364.317 439.952"><defs><clipPath id="a"><path fill="none" d="M106.26272,238.53159a44.99347,44.99347,0,0,0-89.98694,0Z"/></clipPath><clipPath id="b"><path fill="none" d="M853.5148,212.39985a74.51614,74.51614,0,0,0-149.03229,0Z"/></clipPath></defs><title>model-bottom</title><rect width="453.64" height="232.039" x="237.396" y="113.34" fill="#031e28" transform="translate(928.43185 458.71882) rotate(-180)"/><rect width="143.965" height="98.739" x="295.617" y="86.568" fill="#031e28"/><rect width="88.108" height="139.233" x="427.236" y="46.074" fill="#031e28"/><rect width="128.498" height="107.679" y="237.23" fill="#031e28" transform="translate(128.49756 582.13843) rotate(-180)"/><path fill="#031e28" d="M106.26272,238.53159a44.99347,44.99347,0,0,0-89.98694,0Z"/><g clip-path="url(#a)"><circle cx="96.556" cy="228.407" r="1.085" fill="#1de9b6"/><circle cx="85.656" cy="228.407" r="1.085" fill="#1de9b6"/><circle cx="80.205" cy="228.407" r="1.085" fill="#1de9b6"/><circle cx="91.106" cy="228.407" r="1.085" fill="#1de9b6"/><polyline fill="none" stroke="#1de9b6" stroke-miterlimit="10" stroke-width="1.25" points="103.457 218.317 92.518 218.317 89.221 220.718 63.064 220.718"/><polyline fill="none" stroke="#1de9b6" stroke-miterlimit="10" stroke-width="1.25" points="16.276 223.118 33.61 223.118 36.907 220.718 63.064 220.718"/><line x1="103.457" x2="19.497" y1="215.208" y2="215.208" fill="none" stroke="#1de9b6" stroke-miterlimit="10" stroke-width="1.25"/><line x1="70.701" x2="70.701" y1="227.018" y2="230.092" fill="none" stroke="#737e90" stroke-miterlimit="10" stroke-width="1.25"/><line x1="68.186" x2="68.186" y1="225.541" y2="231.274" fill="none" stroke="#737e90" stroke-miterlimit="10" stroke-width="1.25"/><line x1="65.671" x2="65.671" y1="224.772" y2="232.043" fill="none" stroke="#737e90" stroke-miterlimit="10" stroke-width="1.25"/><line x1="63.157" x2="63.157" y1="226.229" y2="230.092" fill="none" stroke="#737e90" stroke-miterlimit="10" stroke-width="1.25"/><line x1="60.642" x2="60.642" y1="224.772" y2="232.043" fill="none" stroke="#737e90" stroke-miterlimit="10" stroke-width="1.25"/><line x1="55.612" x2="55.612" y1="227.018" y2="230.092" fill="none" stroke="#737e90" stroke-miterlimit="10" stroke-width="1.25"/><line x1="58.127" x2="58.127" y1="225.541" y2="231.274" fill="none" stroke="#737e90" stroke-miterlimit="10" stroke-width="1.25"/><line x1="53.097" x2="53.097" y1="225.541" y2="231.274" fill="none" stroke="#737e90" stroke-miterlimit="10" stroke-width="1.25"/><line x1="50.582" x2="50.582" y1="224.772" y2="232.043" fill="none" stroke="#737e90" stroke-miterlimit="10" stroke-width="1.25"/><line x1="48.067" x2="48.067" y1="226.229" y2="230.092" fill="none" stroke="#737e90" stroke-miterlimit="10" stroke-width="1.25"/><line x1="45.552" x2="45.552" y1="224.772" y2="232.043" fill="none" stroke="#737e90" stroke-miterlimit="10" stroke-width="1.25"/><line x1="40.522" x2="40.522" y1="227.018" y2="230.092" fill="none" stroke="#737e90" stroke-miterlimit="10" stroke-width="1.25"/><line x1="43.037" x2="43.037" y1="225.541" y2="231.274" fill="none" stroke="#737e90" stroke-miterlimit="10" stroke-width="1.25"/></g><rect width="39.415" height="304.09" x="186.069" fill="#031e28" transform="translate(411.55269 304.08952) rotate(-180)"/><circle cx="219.316" cy="27.326" r="1.796" fill="#737e90"/><circle cx="201.263" cy="27.326" r="1.796" fill="#737e90"/><circle cx="192.236" cy="27.326" r="1.796" fill="#737e90"/><circle cx="210.29" cy="27.326" r="1.796" fill="#737e90"/><polyline fill="none" stroke="#737e90" stroke-miterlimit="10" stroke-width="1.25" points="220.966 17.025 212.628 17.025 207.168 21 190.929 21"/><line x1="220.966" x2="190.929" y1="11.893" y2="11.893" fill="none" stroke="#737e90" stroke-miterlimit="10" stroke-width="1.25"/><line x1="220.966" x2="190.929" y1="6.761" y2="6.761" fill="none" stroke="#737e90" stroke-miterlimit="10" stroke-width="1.25"/><circle cx="219.316" cy="58.377" r="1.796" fill="#737e90"/><circle cx="201.263" cy="58.377" r="1.796" fill="#737e90"/><circle cx="192.236" cy="58.377" r="1.796" fill="#737e90"/><circle cx="210.29" cy="58.377" r="1.796" fill="#737e90"/><polyline fill="none" stroke="#1de9b6" stroke-miterlimit="10" stroke-width="1.25" points="220.966 48.075 212.628 48.075 207.168 52.05 190.929 52.05"/><line x1="220.966" x2="190.929" y1="42.944" y2="42.944" fill="none" stroke="#1de9b6" stroke-miterlimit="10" stroke-width="1.25"/><line x1="220.966" x2="190.929" y1="37.812" y2="37.812" fill="none" stroke="#1de9b6" stroke-miterlimit="10" stroke-width="1.25"/><rect width="39.415" height="304.09" x="223.321" y="16.269" fill="#031e28" transform="translate(486.05659 336.62676) rotate(-180)"/><circle cx="256.568" cy="43.595" r="1.796" fill="#737e90"/><circle cx="238.515" cy="43.595" r="1.796" fill="#737e90"/><circle cx="229.488" cy="43.595" r="1.796" fill="#737e90"/><circle cx="247.542" cy="43.595" r="1.796" fill="#737e90"/><polyline fill="none" stroke="#1de9b6" stroke-miterlimit="10" stroke-width="1.25" points="258.218 33.293 249.88 33.293 244.42 37.268 228.181 37.268"/><line x1="258.218" x2="228.181" y1="28.162" y2="28.162" fill="none" stroke="#1de9b6" stroke-miterlimit="10" stroke-width="1.25"/><line x1="258.218" x2="228.181" y1="23.03" y2="23.03" fill="none" stroke="#1de9b6" stroke-miterlimit="10" stroke-width="1.25"/><circle cx="256.568" cy="74.646" r="1.796" fill="#737e90"/><circle cx="238.515" cy="74.646" r="1.796" fill="#737e90"/><circle cx="229.488" cy="74.646" r="1.796" fill="#737e90"/><circle cx="247.542" cy="74.646" r="1.796" fill="#737e90"/><polyline fill="none" stroke="#1de9b6" stroke-miterlimit="10" stroke-width="1.25" points="258.218 64.344 249.88 64.344 244.42 68.319 228.181 68.319"/><line x1="258.218" x2="228.181" y1="59.212" y2="59.212" fill="none" stroke="#1de9b6" stroke-miterlimit="10" stroke-width="1.25"/><line x1="258.218" x2="228.181" y1="54.081" y2="54.081" fill="none" stroke="#1de9b6" stroke-miterlimit="10" stroke-width="1.25"/><rect width="344.294" height="237.438" x="474.118" y="202.514" fill="#2a3d58"/><rect width="16.831" height="16.831" x="457.287" y="202.514" fill="#031e28"/><rect width="16.831" height="220.608" x="457.287" y="219.345" fill="#2a3d58"/><rect width="16.831" height="203.777" x="440.456" y="236.176" fill="#2a3d58"/><rect width="16.831" height="16.831" x="440.456" y="219.345" fill="#031e28"/><rect width="45.364" height="200.944" x="395.092" y="236.176" fill="#031e28"/><rect width="881.061" height="227.516" x="483.256" y="212.436" fill="#031e28"/><rect width="53.767" height="211.47" x="466.425" y="228.483" fill="#031e28"/><rect width="53.767" height="194.639" x="449.594" y="245.313" fill="#031e28"/><path fill="#031e28" d="M853.5148,212.39985a74.51614,74.51614,0,0,0-149.03229,0Z"/><g clip-path="url(#b)"><circle cx="837.44" cy="195.633" r="1.796" fill="#1de9b6"/><circle cx="819.386" cy="195.633" r="1.796" fill="#1de9b6"/><circle cx="810.359" cy="195.633" r="1.796" fill="#1de9b6"/><circle cx="828.413" cy="195.633" r="1.796" fill="#1de9b6"/><polyline fill="none" stroke="#1de9b6" stroke-miterlimit="10" stroke-width="1.25" points="848.868 178.922 830.751 178.922 825.291 182.897 781.971 182.897"/><polyline fill="none" stroke="#1de9b6" stroke-miterlimit="10" stroke-width="1.25" points="704.483 186.873 733.191 186.873 738.651 182.897 781.971 182.897"/><line x1="848.868" x2="709.818" y1="173.772" y2="173.772" fill="none" stroke="#1de9b6" stroke-miterlimit="10" stroke-width="1.25"/><line x1="794.619" x2="794.619" y1="193.332" y2="198.423" fill="none" stroke="#737e90" stroke-miterlimit="10" stroke-width="1.25"/><line x1="790.454" x2="790.454" y1="190.885" y2="200.38" fill="none" stroke="#737e90" stroke-miterlimit="10" stroke-width="1.25"/><line x1="786.289" x2="786.289" y1="189.612" y2="201.653" fill="none" stroke="#737e90" stroke-miterlimit="10" stroke-width="1.25"/><line x1="782.124" x2="782.124" y1="192.025" y2="198.423" fill="none" stroke="#737e90" stroke-miterlimit="10" stroke-width="1.25"/><line x1="777.959" x2="777.959" y1="189.612" y2="201.653" fill="none" stroke="#737e90" stroke-miterlimit="10" stroke-width="1.25"/><line x1="769.629" x2="769.629" y1="193.332" y2="198.423" fill="none" stroke="#737e90" stroke-miterlimit="10" stroke-width="1.25"/><line x1="773.794" x2="773.794" y1="190.885" y2="200.38" fill="none" stroke="#737e90" stroke-miterlimit="10" stroke-width="1.25"/><line x1="765.464" x2="765.464" y1="190.885" y2="200.38" fill="none" stroke="#737e90" stroke-miterlimit="10" stroke-width="1.25"/><line x1="761.299" x2="761.299" y1="189.612" y2="201.653" fill="none" stroke="#737e90" stroke-miterlimit="10" stroke-width="1.25"/><line x1="757.134" x2="757.134" y1="192.025" y2="198.423" fill="none" stroke="#737e90" stroke-miterlimit="10" stroke-width="1.25"/><line x1="752.969" x2="752.969" y1="189.612" y2="201.653" fill="none" stroke="#737e90" stroke-miterlimit="10" stroke-width="1.25"/><line x1="744.639" x2="744.639" y1="193.332" y2="198.423" fill="none" stroke="#737e90" stroke-miterlimit="10" stroke-width="1.25"/><line x1="748.804" x2="748.804" y1="190.885" y2="200.38" fill="none" stroke="#737e90" stroke-miterlimit="10" stroke-width="1.25"/></g><rect width="21.859" height="215.426" x="680.106" y="113.524" fill="#2a3d58"/><rect width="45.897" height="211.449" x="701.965" y="113.524" fill="#173045"/><polygon fill="#173045" points="745.773 113.619 704.055 113.524 704.055 99.767 745.773 99.862 745.773 113.619"/><polygon fill="#2a3d58" points="704.055 113.619 681.614 113.524 681.614 99.767 704.055 99.862 704.055 113.619"/><polyline fill="#1de9b6" points="723.331 99.862 723.331 84.906 700.335 84.906 681.614 99.862"/><polyline fill="#031e28" points="704.055 99.862 700.335 84.906 727.052 84.906 745.773 99.862"/><line x1="687.111" x2="687.111" y1="113.619" y2="322.349" fill="none" stroke="#1de9b6" stroke-miterlimit="10" stroke-width="1.254"/><line x1="694.081" x2="694.081" y1="113.619" y2="328.95" fill="none" stroke="#1de9b6" stroke-miterlimit="10" stroke-width="1.254"/><ellipse cx="713.754" cy="256.44" fill="#1de9b6" rx="1.565" ry="1.596"/><ellipse cx="727.439" cy="256.44" fill="#1de9b6" rx="1.565" ry="1.596"/><ellipse cx="720.597" cy="256.44" fill="#1de9b6" rx="1.565" ry="1.596"/><ellipse cx="713.044" cy="229.487" fill="#1de9b6" rx="1.047" ry="1.067"/><ellipse cx="716.479" cy="229.487" fill="#1de9b6" rx="1.047" ry="1.067"/><ellipse cx="720.079" cy="229.487" fill="#1de9b6" rx="1.047" ry="1.067"/><ellipse cx="713.754" cy="147.678" fill="#1de9b6" rx="1.565" ry="1.596"/><ellipse cx="727.439" cy="147.678" fill="#1de9b6" rx="1.565" ry="1.596"/><ellipse cx="720.597" cy="147.678" fill="#1de9b6" rx="1.565" ry="1.596"/><polyline fill="none" stroke="#737e90" stroke-miterlimit="10" stroke-width="1.254" points="712.317 138.524 719.582 138.524 724.34 142.056 743.022 142.056"/><line x1="712.317" x2="742.83" y1="133.544" y2="133.544" fill="none" stroke="#737e90" stroke-miterlimit="10" stroke-width="1.254"/><ellipse cx="713.044" cy="120.725" fill="#1de9b6" rx="1.047" ry="1.067"/><ellipse cx="716.479" cy="120.725" fill="#1de9b6" rx="1.047" ry="1.067"/><ellipse cx="720.079" cy="120.725" fill="#1de9b6" rx="1.047" ry="1.067"/><line x1="743.022" x2="726.241" y1="120.725" y2="120.725" fill="none" stroke="#737e90" stroke-miterlimit="10" stroke-width="1.254"/><path fill="#173045" d="M551.94856,180.07692H598.8538a0,0,0,0,1,0,0V326.19409a0,0,0,0,1,0,0h-9.78386a37.12139,37.12139,0,0,1-37.12139-37.12139V180.07692A0,0,0,0,1,551.94856,180.07692Z" transform="translate(1150.80236 506.27101) rotate(-180)"/><rect width="36.605" height="146.117" x="515.344" y="180.077" fill="#2a3d58"/><ellipse cx="575.401" cy="224.605" fill="#031e28" rx="12.15" ry="12.391"/><path fill="#2e3554" d="M581.64476,224.605a12.34019,12.34019,0,0,0-9.19669-12.00662,11.91227,11.91227,0,0,1,2.95318-.384,12.393,12.393,0,0,1,0,24.78126,11.91227,11.91227,0,0,1-2.95318-.384A12.34019,12.34019,0,0,0,581.64476,224.605Z"/><ellipse cx="575.401" cy="259.089" fill="#031e28" rx="12.15" ry="12.391"/><path fill="#2e3554" d="M581.64476,259.08936a12.34019,12.34019,0,0,0-9.19669-12.00662,11.91227,11.91227,0,0,1,2.95318-.384,12.393,12.393,0,0,1,0,24.78126,11.91227,11.91227,0,0,1-2.95318-.384A12.34019,12.34019,0,0,0,581.64476,259.08936Z"/><rect width="4.405" height="70.722" x="530.792" y="204.748" fill="#031e28"/><path fill="#173045" d="M316.87167,274.14572H266.268V51.016h38.02539s-1.18647,105.028,0,143.872C305.93984,248.79283,316.87167,274.14572,316.87167,274.14572Z"/><path fill="#2a3d58" d="M288.69042,275.78457H238.08671V51.016h38.02539s-1.18647,105.028,0,143.872C277.7586,248.79283,288.69042,275.78457,288.69042,275.78457Z"/><path fill="#2a3d58" d="M211.55746,274.14572h51.67707V51.016H224.13578s1.18647,105.028,0,143.872C222.48929,248.79283,211.55746,274.14572,211.55746,274.14572Z"/><polygon fill="#173045" points="268.854 147.904 231.45 147.904 231.45 185.308 268.854 147.904"/><polygon fill="#031e28" points="231.45 185.308 268.854 185.308 268.854 147.904 231.45 185.308"/><line x1="264.809" x2="318.331" y1="154.226" y2="154.226" fill="none" stroke="#1de9b6" stroke-miterlimit="10" stroke-width="1.25"/><line x1="264.809" x2="318.331" y1="161.594" y2="161.594" fill="none" stroke="#1de9b6" stroke-miterlimit="10" stroke-width="1.25"/><line x1="264.809" x2="318.331" y1="168.963" y2="168.963" fill="none" stroke="#1de9b6" stroke-miterlimit="10" stroke-width="1.25"/><polygon fill="#031e28" points="231.45 103.25 268.854 103.25 268.854 140.654 231.45 103.25"/><polygon fill="#173045" points="268.854 140.654 231.45 140.654 231.45 103.25 268.854 140.654"/><line x1="264.809" x2="318.331" y1="109.571" y2="109.571" fill="none" stroke="#737e90" stroke-miterlimit="10" stroke-width="1.25"/><line x1="264.809" x2="318.331" y1="116.94" y2="116.94" fill="none" stroke="#737e90" stroke-miterlimit="10" stroke-width="1.25"/><line x1="264.809" x2="318.331" y1="124.309" y2="124.309" fill="none" stroke="#737e90" stroke-miterlimit="10" stroke-width="1.25"/><polygon fill="#173045" points="268.854 58.596 231.45 58.596 231.45 95.999 268.854 58.596"/><polygon fill="#031e28" points="231.45 95.999 268.854 95.999 268.854 58.596 231.45 95.999"/><line x1="264.809" x2="318.331" y1="64.917" y2="64.917" fill="none" stroke="#1de9b6" stroke-miterlimit="10" stroke-width="1.25"/><line x1="264.809" x2="318.331" y1="72.286" y2="72.286" fill="none" stroke="#1de9b6" stroke-miterlimit="10" stroke-width="1.25"/><line x1="264.809" x2="318.331" y1="79.654" y2="79.654" fill="none" stroke="#1de9b6" stroke-miterlimit="10" stroke-width="1.25"/><rect width="30.756" height="287.115" x="118.979" y="119.501" fill="#2a3d58" transform="translate(268.71308 526.11692) rotate(-180)"/><rect width="40.706" height="290.46" x="149.734" y="119.501" fill="#173045" transform="translate(340.1742 529.46204) rotate(-180)"/><circle cx="141.867" cy="167.029" r="1.796" fill="#737e90"/><circle cx="123.813" cy="167.029" r="1.796" fill="#737e90"/><circle cx="114.786" cy="167.029" r="1.796" fill="#737e90"/><circle cx="132.84" cy="167.029" r="1.796" fill="#737e90"/><polyline fill="none" stroke="#737e90" stroke-miterlimit="10" stroke-width="1.25" points="143.516 156.727 135.178 156.727 129.718 160.703 113.479 160.703"/><line x1="143.516" x2="113.479" y1="151.596" y2="151.596" fill="none" stroke="#737e90" stroke-miterlimit="10" stroke-width="1.25"/><line x1="143.516" x2="113.479" y1="146.464" y2="146.464" fill="none" stroke="#737e90" stroke-miterlimit="10" stroke-width="1.25"/><rect width="4.405" height="70.722" x="167.017" y="131.668" fill="#031e28" transform="translate(338.4392 334.05842) rotate(-180)"/><line x1="403.422" x2="403.422" y1="192.066" y2="197.156" fill="none" stroke="#737e90" stroke-miterlimit="10" stroke-width="1.25"/><line x1="399.257" x2="399.257" y1="189.619" y2="199.114" fill="none" stroke="#737e90" stroke-miterlimit="10" stroke-width="1.25"/><line x1="395.092" x2="395.092" y1="188.346" y2="200.387" fill="none" stroke="#737e90" stroke-miterlimit="10" stroke-width="1.25"/><line x1="390.927" x2="390.927" y1="190.759" y2="197.156" fill="none" stroke="#737e90" stroke-miterlimit="10" stroke-width="1.25"/><line x1="386.762" x2="386.762" y1="188.346" y2="200.387" fill="none" stroke="#737e90" stroke-miterlimit="10" stroke-width="1.25"/><line x1="378.432" x2="378.432" y1="192.066" y2="197.156" fill="none" stroke="#737e90" stroke-miterlimit="10" stroke-width="1.25"/><line x1="382.597" x2="382.597" y1="189.619" y2="199.114" fill="none" stroke="#737e90" stroke-miterlimit="10" stroke-width="1.25"/><line x1="374.267" x2="374.267" y1="189.619" y2="199.114" fill="none" stroke="#737e90" stroke-miterlimit="10" stroke-width="1.25"/><line x1="370.102" x2="370.102" y1="188.346" y2="200.387" fill="none" stroke="#737e90" stroke-miterlimit="10" stroke-width="1.25"/><line x1="365.937" x2="365.937" y1="190.759" y2="197.156" fill="none" stroke="#737e90" stroke-miterlimit="10" stroke-width="1.25"/><line x1="361.772" x2="361.772" y1="188.346" y2="200.387" fill="none" stroke="#737e90" stroke-miterlimit="10" stroke-width="1.25"/><line x1="353.442" x2="353.442" y1="192.066" y2="197.156" fill="none" stroke="#737e90" stroke-miterlimit="10" stroke-width="1.25"/><line x1="357.607" x2="357.607" y1="189.619" y2="199.114" fill="none" stroke="#737e90" stroke-miterlimit="10" stroke-width="1.25"/><rect width="49.981" height="22.232" x="353.442" y="214.294" fill="none" stroke="#737e90" stroke-miterlimit="10" stroke-width="1.25"/><g opacity=".5"><rect width="11.524" height="10.141" x="643.384" y="259.735" fill="none" stroke="#737e90" stroke-miterlimit="10" stroke-width="1.25"/><rect width="11.524" height="10.141" x="624.052" y="259.735" fill="none" stroke="#737e90" stroke-miterlimit="10" stroke-width="1.25"/><line x1="624.052" x2="654.908" y1="232.107" y2="232.107" fill="none" stroke="#737e90" stroke-miterlimit="10" stroke-width="1.25"/><line x1="651.904" x2="651.904" y1="241.893" y2="246.983" fill="none" stroke="#737e90" stroke-miterlimit="10" stroke-width="1.25"/><line x1="647.739" x2="647.739" y1="239.446" y2="248.941" fill="none" stroke="#737e90" stroke-miterlimit="10" stroke-width="1.25"/><line x1="643.574" x2="643.574" y1="238.173" y2="250.214" fill="none" stroke="#737e90" stroke-miterlimit="10" stroke-width="1.25"/><line x1="639.409" x2="639.409" y1="240.586" y2="246.983" fill="none" stroke="#737e90" stroke-miterlimit="10" stroke-width="1.25"/><line x1="635.244" x2="635.244" y1="238.173" y2="250.214" fill="none" stroke="#737e90" stroke-miterlimit="10" stroke-width="1.25"/><line x1="626.914" x2="626.914" y1="241.893" y2="246.983" fill="none" stroke="#737e90" stroke-miterlimit="10" stroke-width="1.25"/><line x1="631.079" x2="631.079" y1="239.446" y2="248.941" fill="none" stroke="#737e90" stroke-miterlimit="10" stroke-width="1.25"/><rect width="11.524" height="10.141" x="643.384" y="310.894" fill="none" stroke="#737e90" stroke-miterlimit="10" stroke-width="1.25"/><rect width="11.524" height="10.141" x="624.052" y="310.894" fill="none" stroke="#737e90" stroke-miterlimit="10" stroke-width="1.25"/><polyline fill="none" stroke="#737e90" stroke-miterlimit="10" stroke-width="1.25" points="624.052 283.265 654.908 283.265 654.908 305.141"/><circle cx="625.628" cy="362.092" r="1.576" fill="none" stroke="#737e90" stroke-miterlimit="10" stroke-width="1.25"/><circle cx="639.409" cy="362.092" r="1.576" fill="none" stroke="#737e90" stroke-miterlimit="10" stroke-width="1.25"/><circle cx="632.519" cy="362.092" r="1.576" fill="none" stroke="#737e90" stroke-miterlimit="10" stroke-width="1.25"/><polyline fill="none" stroke="#737e90" stroke-miterlimit="10" stroke-width="1.25" points="624.181 353.053 631.497 353.053 636.288 356.541 655.101 356.541"/><line x1="624.181" x2="654.908" y1="348.136" y2="348.136" fill="none" stroke="#737e90" stroke-miterlimit="10" stroke-width="1.25"/><circle cx="624.913" cy="335.478" r="1.054" fill="none" stroke="#737e90" stroke-miterlimit="10" stroke-width="1.25"/><circle cx="628.372" cy="335.478" r="1.054" fill="none" stroke="#737e90" stroke-miterlimit="10" stroke-width="1.25"/><circle cx="631.998" cy="335.478" r="1.054" fill="none" stroke="#737e90" stroke-miterlimit="10" stroke-width="1.25"/><line x1="655.101" x2="638.203" y1="335.478" y2="335.478" fill="none" stroke="#737e90" stroke-miterlimit="10" stroke-width="1.25"/></g><g opacity=".5"><rect width="11.524" height="10.141" x="775.059" y="325.898" fill="none" stroke="#737e90" stroke-miterlimit="10" stroke-width="1.25" transform="translate(1561.63944 661.9414) rotate(-179.99971)"/><rect width="11.524" height="10.141" x="794.391" y="325.898" fill="none" stroke="#737e90" stroke-miterlimit="10" stroke-width="1.25" transform="translate(1600.30348 661.94169) rotate(-179.99971)"/><line x1="805.914" x2="775.059" y1="363.668" y2="363.668" fill="none" stroke="#737e90" stroke-miterlimit="10" stroke-width="1.25"/><line x1="778.063" x2="778.063" y1="353.881" y2="348.791" fill="none" stroke="#737e90" stroke-miterlimit="10" stroke-width="1.25"/><line x1="782.228" x2="782.228" y1="356.329" y2="346.833" fill="none" stroke="#737e90" stroke-miterlimit="10" stroke-width="1.25"/><line x1="786.393" x2="786.393" y1="357.601" y2="345.561" fill="none" stroke="#737e90" stroke-miterlimit="10" stroke-width="1.25"/><line x1="790.558" x2="790.558" y1="355.188" y2="348.791" fill="none" stroke="#737e90" stroke-miterlimit="10" stroke-width="1.25"/><line x1="794.723" x2="794.723" y1="357.601" y2="345.561" fill="none" stroke="#737e90" stroke-miterlimit="10" stroke-width="1.25"/><line x1="803.053" x2="803.053" y1="353.882" y2="348.791" fill="none" stroke="#737e90" stroke-miterlimit="10" stroke-width="1.25"/><line x1="798.888" x2="798.888" y1="356.329" y2="346.833" fill="none" stroke="#737e90" stroke-miterlimit="10" stroke-width="1.25"/><rect width="11.524" height="10.141" x="775.059" y="274.74" fill="none" stroke="#737e90" stroke-miterlimit="10" stroke-width="1.25" transform="translate(1561.63971 559.62382) rotate(-179.99971)"/><rect width="11.524" height="10.141" x="794.391" y="274.74" fill="none" stroke="#737e90" stroke-miterlimit="10" stroke-width="1.25" transform="translate(1600.30375 559.62411) rotate(-179.99971)"/><polyline fill="none" stroke="#737e90" stroke-miterlimit="10" stroke-width="1.25" points="805.914 312.509 775.059 312.509 775.059 290.634"/><circle cx="804.338" cy="233.683" r="1.576" fill="none" stroke="#737e90" stroke-miterlimit="10" stroke-width="1.25"/><circle cx="790.558" cy="233.683" r="1.576" fill="none" stroke="#737e90" stroke-miterlimit="10" stroke-width="1.25"/><circle cx="797.448" cy="233.683" r="1.576" fill="none" stroke="#737e90" stroke-miterlimit="10" stroke-width="1.25"/><polyline fill="none" stroke="#737e90" stroke-miterlimit="10" stroke-width="1.25" points="805.785 242.722 798.47 242.722 793.679 239.234 774.866 239.234"/><line x1="805.785" x2="775.059" y1="247.639" y2="247.638" fill="none" stroke="#737e90" stroke-miterlimit="10" stroke-width="1.25"/><circle cx="805.053" cy="260.296" r="1.054" fill="none" stroke="#737e90" stroke-miterlimit="10" stroke-width="1.25"/><circle cx="801.595" cy="260.296" r="1.054" fill="none" stroke="#737e90" stroke-miterlimit="10" stroke-width="1.25"/><circle cx="797.969" cy="260.296" r="1.054" fill="none" stroke="#737e90" stroke-miterlimit="10" stroke-width="1.25"/><line x1="774.866" x2="791.764" y1="260.296" y2="260.296" fill="none" stroke="#737e90" stroke-miterlimit="10" stroke-width="1.25"/></g><path fill="#173045" d="M905.16,344.39995a17.19327,17.19327,0,0,0-17.19327,17.19327H905.16Z"/><path fill="#173045" d="M922.35327,344.39988A17.19323,17.19323,0,0,0,905.16,327.20661v17.19334Z"/><path fill="#173045" d="M922.35335,327.007A17.19341,17.19341,0,0,0,939.547,309.81373l-17.19371,0Z"/><path fill="#173045" d="M974.62717,309.81372A17.19327,17.19327,0,0,0,957.4339,327.007h17.19327Z"/><path fill="#173045" d="M974.62717,275.42712a17.19327,17.19327,0,0,0-17.19327,17.19327h17.19327Z"/><path fill="#173045" d="M991.82043,275.22753a17.19323,17.19323,0,0,0-17.19327-17.19327V275.2276Z"/><path fill="#173045" d="M991.82051,292.42077a17.19341,17.19341,0,0,0,17.19363-17.19326l-17.19371,0Z"/><path fill="#173045" d="M842.17052,344.39995a17.19327,17.19327,0,0,0-17.19327,17.19327h17.19327Z"/><path fill="#173045" d="M842.17052,310.01334a17.19327,17.19327,0,0,0-17.19327,17.19327h17.19327Z"/><path fill="#173045" d="M859.36377,309.81376a17.19323,17.19323,0,0,0-17.19327-17.19327v17.19334Z"/><path fill="#173045" d="M859.36385,327.007a17.19341,17.19341,0,0,0,17.19363-17.19326l-17.19371,0Z"/><path fill="#173045" d="M1084.42369,324.415a17.19325,17.19325,0,0,0-17.19321-17.19329v17.19328Z"/><path fill="#173045" d="M1067.23044,307.22184a17.19325,17.19325,0,0,0-17.19321-17.19329v17.19328Z"/><path fill="#173045" d="M1050.03726,341.6082a17.1932,17.1932,0,0,0,17.19322-17.19326H1050.0372Z"/><path fill="#173045" d="M1050.03726,290.02855a17.1932,17.1932,0,0,0,17.19322-17.19326H1050.0372Z"/><path fill="#173045" d="M1084.62327,341.60822a17.1932,17.1932,0,0,0,17.19322-17.19326H1084.6232Z"/><path fill="#173045" d="M870.55293,249.55943a17.19325,17.19325,0,0,0-17.19321-17.19329v17.19328Z"/><path fill="#173045" d="M904.93943,249.55945a17.19325,17.19325,0,0,0-17.19321-17.19329v17.19328Z"/><path fill="#173045" d="M870.553,266.75269a17.1932,17.1932,0,0,0,17.19322-17.19326H870.55293Z"/><path fill="#173045" d="M905.139,266.75271a17.1932,17.1932,0,0,0,17.19322-17.19326H905.13894Z"/><path fill="#173045" d="M887.94583,266.75278a17.19339,17.19339,0,0,0,17.1932,17.19365l0-17.19372Z"/><path fill="#173045" d="M647.10711,164.64481a17.19325,17.19325,0,0,0,17.19321,17.19328V164.64483Z"/><path fill="#173045" d="M612.72062,164.64479a17.19325,17.19325,0,0,0,17.19321,17.19328V164.6448Z"/><path fill="#173045" d="M647.107,147.45156a17.19319,17.19319,0,0,0-17.19321,17.19325h17.19328Z"/><path fill="#173045" d="M612.521,147.45154a17.19319,17.19319,0,0,0-17.19321,17.19325h17.19328Z"/><path fill="#173045" d="M629.71422,147.45147a17.19339,17.19339,0,0,0-17.1932-17.19364l0,17.19371Z"/><path fill="#173045" d="M486.93063,73.46513a17.19342,17.19342,0,0,0-17.19343-17.19319l.00015,17.19318Z"/><path fill="#173045" d="M487.13037,90.65829a17.193,17.193,0,0,0,17.19312-17.19317H487.13015Z"/><path fill="#173045" d="M469.93713,90.65837a17.19356,17.19356,0,0,0,17.19342,17.19355l-.00018-17.19362Z"/><line x1="540.687" x2="598.193" y1="31.42" y2="88.926" fill="none" stroke="#2a3d58" stroke-miterlimit="10" stroke-width="1.25"/><line x1="540.687" x2="582.819" y1="46.794" y2="88.926" fill="none" stroke="#2a3d58" stroke-miterlimit="10" stroke-width="1.25"/><line x1="540.687" x2="567.445" y1="62.168" y2="88.926" fill="none" stroke="#2a3d58" stroke-miterlimit="10" stroke-width="1.25"/><line x1="540.687" x2="552.071" y1="77.542" y2="88.926" fill="none" stroke="#2a3d58" stroke-miterlimit="10" stroke-width="1.25"/><line x1="586.809" x2="598.193" y1="31.42" y2="42.804" fill="none" stroke="#2a3d58" stroke-miterlimit="10" stroke-width="1.25"/><line x1="571.435" x2="598.193" y1="31.42" y2="58.178" fill="none" stroke="#2a3d58" stroke-miterlimit="10" stroke-width="1.25"/><line x1="556.061" x2="598.193" y1="31.42" y2="73.552" fill="none" stroke="#2a3d58" stroke-miterlimit="10" stroke-width="1.25"/><line x1="39.337" x2="96.843" y1="118.699" y2="176.204" fill="none" stroke="#2a3d58" stroke-miterlimit="10" stroke-width="1.25"/><line x1="39.337" x2="81.468" y1="134.072" y2="176.204" fill="none" stroke="#2a3d58" stroke-miterlimit="10" stroke-width="1.25"/><line x1="39.337" x2="66.094" y1="149.447" y2="176.204" fill="none" stroke="#2a3d58" stroke-miterlimit="10" stroke-width="1.25"/><line x1="39.337" x2="50.721" y1="164.821" y2="176.204" fill="none" stroke="#2a3d58" stroke-miterlimit="10" stroke-width="1.25"/><line x1="85.459" x2="96.843" y1="118.699" y2="130.083" fill="none" stroke="#2a3d58" stroke-miterlimit="10" stroke-width="1.25"/><line x1="70.085" x2="96.843" y1="118.699" y2="145.457" fill="none" stroke="#2a3d58" stroke-miterlimit="10" stroke-width="1.25"/><line x1="54.711" x2="96.843" y1="118.699" y2="160.831" fill="none" stroke="#2a3d58" stroke-miterlimit="10" stroke-width="1.25"/></svg>