<svg xmlns="http://www.w3.org/2000/svg" xmlns:xlink="http://www.w3.org/1999/xlink" viewBox="0 0 190 160"><defs><clipPath id="a"><rect y="14.747" width="184.94299" height="130.506" style="fill:none"/></clipPath><clipPath id="c"><rect x="28.0769" y="33.088" width="139.51011" height="87.6009" style="fill:none"/></clipPath><clipPath id="d"><polygon points="167.587 33.088 141.744 33.088 28.077 33.088 28.077 57.317 134.752 57.317 134.752 120.688 167.587 120.688 167.587 33.088" style="fill:none"/></clipPath><clipPath id="e"><rect x="41.261" y="14.747" width="143.68199" height="87.6008" style="fill:none"/></clipPath><clipPath id="f"><polygon points="184.943 16.749 159.1 14.747 41.261 14.747 41.261 39.35 153.139 39.35 153.139 102.348 184.943 102.348 184.943 16.749" style="fill:none"/></clipPath></defs><title>model-icon10</title><g style="clip-path:url(#a)"><polyline points="80.165 136.617 80.165 102.283 120.186 102.283 120.186 136.617" style="fill:none;stroke:#1de9b6;stroke-miterlimit:10;stroke-width:1.25px"/><line x1="56.6124" y1="129.6239" x2="23.5004" y2="129.6239" style="fill:none;stroke:#1de9b6;stroke-miterlimit:10;stroke-width:1.25px"/><line x1="71.9634" y1="122.7108" x2="41.2604" y2="122.7108" style="fill:none;stroke:#1de9b6;stroke-miterlimit:10;stroke-width:1.25px"/><line x1="35.9732" y1="122.7108" x2="23.5002" y2="122.7108" style="fill:none;stroke:#1de9b6;stroke-miterlimit:10;stroke-width:1.25px"/><rect x="80.16499" y="73.836" width="30.368" height="20.076" style="fill:none;stroke:#1de9b6;stroke-miterlimit:10;stroke-width:1.25px"/><rect x="23.5" y="73.835" width="48.463" height="34.517" style="fill:none;stroke:#1de9b6;stroke-miterlimit:10;stroke-width:1.25px"/><line x1="71.9634" y1="115.9862" x2="23.5004" y2="115.9862" style="fill:none;stroke:#1de9b6;stroke-miterlimit:10;stroke-width:1.25px"/><g style="clip-path:url(#a)"><path d="M.0001,136.6171s1.504,8.636,8.635,8.636h126.802c7.13,0,8.635-8.636,8.635-8.636Z" style="fill:#434d72"/><g style="opacity:0.5"><g style="clip-path:url(#c)"><g style="clip-path:url(#d)"><polyline points="98.58 118.333 98.58 83.999 138.601 83.999 138.601 118.333" style="fill:none;stroke:#434d72;stroke-miterlimit:10;stroke-width:1.25px"/><line x1="75.0274" y1="111.3397" x2="41.9154" y2="111.3397" style="fill:none;stroke:#434d72;stroke-miterlimit:10;stroke-width:1.25px"/><line x1="90.3785" y1="104.4267" x2="59.6765" y2="104.4267" style="fill:none;stroke:#434d72;stroke-miterlimit:10;stroke-width:1.25px"/><line x1="54.3887" y1="104.4267" x2="41.9157" y2="104.4267" style="fill:none;stroke:#434d72;stroke-miterlimit:10;stroke-width:1.25px"/><rect x="98.58" y="55.55199" width="30.368" height="20.075" style="fill:none;stroke:#434d72;stroke-miterlimit:10;stroke-width:1.25px"/><rect x="41.915" y="55.551" width="48.463" height="34.51699" style="fill:none;stroke:#434d72;stroke-miterlimit:10;stroke-width:1.25px"/><line x1="90.3785" y1="97.7021" x2="41.9155" y2="97.7021" style="fill:none;stroke:#434d72;stroke-miterlimit:10;stroke-width:1.25px"/><path d="M29.7369,118.3329V44.0619a3.00947,3.00947,0,0,1,3-3h115.429a3.00946,3.00946,0,0,1,3,3v74.271Z" style="fill:none;stroke:#434d72;stroke-miterlimit:10;stroke-width:1.25px"/><line x1="29.7369" y1="45.59949" x2="151.16589" y2="45.59949" style="fill:none;stroke:#434d72;stroke-miterlimit:10;stroke-width:1.25px"/></g></g></g><g style="opacity:0.300002992153168"><g style="clip-path:url(#e)"><g style="clip-path:url(#f)"><polyline points="116.575 99.601 116.575 65.268 156.596 65.268 156.596 99.601" style="fill:none;stroke:#434d72;stroke-miterlimit:10;stroke-width:1.25px"/><line x1="93.0225" y1="92.6083" x2="59.9105" y2="92.6083" style="fill:none;stroke:#434d72;stroke-miterlimit:10;stroke-width:1.25px"/><line x1="108.3736" y1="85.6952" x2="77.67059" y2="85.6952" style="fill:none;stroke:#434d72;stroke-miterlimit:10;stroke-width:1.25px"/><line x1="72.3834" y1="85.6952" x2="59.9104" y2="85.6952" style="fill:none;stroke:#434d72;stroke-miterlimit:10;stroke-width:1.25px"/><rect x="116.575" y="36.81899" width="30.368" height="20.076" style="fill:none;stroke:#434d72;stroke-miterlimit:10;stroke-width:1.25px"/><rect x="59.911" y="36.81899" width="48.463" height="34.51801" style="fill:none;stroke:#434d72;stroke-miterlimit:10;stroke-width:1.25px"/><line x1="108.3736" y1="78.9696" x2="59.91059" y2="78.9696" style="fill:none;stroke:#434d72;stroke-miterlimit:10;stroke-width:1.25px"/><path d="M47.732,99.6015V25.3305a3.00947,3.00947,0,0,1,3-3H166.16a3.00882,3.00882,0,0,1,3,3v74.271Z" style="fill:none;stroke:#434d72;stroke-miterlimit:10;stroke-width:1.25px"/><line x1="47.732" y1="26.8681" x2="169.15999" y2="26.8681" style="fill:none;stroke:#434d72;stroke-miterlimit:10;stroke-width:1.25px"/></g></g></g><path d="M11.3218,137.6181V62.3471a3.00882,3.00882,0,0,1,3-3h115.428a3.00883,3.00883,0,0,1,3,3v75.271Z" style="fill:none;stroke:#434d72;stroke-miterlimit:10;stroke-width:1.25px"/><line x1="11.3218" y1="63.8847" x2="132.7498" y2="63.8847" style="fill:none;stroke:#434d72;stroke-miterlimit:10;stroke-width:1.25px"/></g></g></svg>