<svg xmlns="http://www.w3.org/2000/svg" viewBox="0 0 160 160"><title>model-icon2</title><path fill="none" stroke="#434d72" stroke-miterlimit="10" stroke-width="1.25" d="M8.14676,55.38016A45.7019,45.7019,0,1,1,53.84842,101.0823" opacity=".3"/><path fill="none" stroke="#434d72" stroke-miterlimit="10" stroke-width="1.25" d="M18.14655,54.88455A36.19783,36.19783,0,1,1,54.34438,91.08238"/><circle cx="53.848" cy="55.38" r="27.629" fill="#434d72"/><line x1="9.361" x2="18.468" y1="84.018" y2="84.018" fill="none" stroke="#434d72" stroke-miterlimit="10" stroke-width="1.25"/><line x1="9.361" x2="24.052" y1="93.108" y2="93.108" fill="none" stroke="#434d72" stroke-miterlimit="10" stroke-width="1.25"/><line x1="27.28" x2="34.27" y1="93.108" y2="93.108" fill="none" stroke="#434d72" stroke-miterlimit="10" stroke-width="1.25"/><line x1="37.498" x2="44.488" y1="93.108" y2="93.108" fill="none" stroke="#434d72" stroke-miterlimit="10" stroke-width="1.25"/><line x1="9.361" x2="25.385" y1="74.928" y2="74.928" fill="none" stroke="#434d72" stroke-miterlimit="10" stroke-width="1.25"/><line x1="35.405" x2="44.488" y1="74.928" y2="74.928" fill="none" stroke="#434d72" stroke-miterlimit="10" stroke-width="1.25"/><line x1="9.361" x2="37.498" y1="102.198" y2="102.198" fill="none" stroke="#434d72" stroke-miterlimit="10" stroke-width="1.25"/><line x1="9.361" x2="18.468" y1="120.377" y2="120.377" fill="none" stroke="#434d72" stroke-miterlimit="10" stroke-width="1.25"/><line x1="9.361" x2="24.052" y1="129.467" y2="129.467" fill="none" stroke="#434d72" stroke-miterlimit="10" stroke-width="1.25"/><line x1="27.28" x2="34.27" y1="129.467" y2="129.467" fill="none" stroke="#434d72" stroke-miterlimit="10" stroke-width="1.25"/><line x1="37.498" x2="44.488" y1="129.467" y2="129.467" fill="none" stroke="#434d72" stroke-miterlimit="10" stroke-width="1.25"/><line x1="9.361" x2="31.483" y1="111.287" y2="111.287" fill="none" stroke="#434d72" stroke-miterlimit="10" stroke-width="1.25"/><line x1="35.405" x2="44.488" y1="111.287" y2="111.287" fill="none" stroke="#434d72" stroke-miterlimit="10" stroke-width="1.25"/><line x1="9.361" x2="18.468" y1="67.182" y2="67.182" fill="none" stroke="#434d72" stroke-miterlimit="10" stroke-width="1.25"/><rect width="19.724" height="18.149" x="43.987" y="48.237" fill="none" stroke="#1de9b6" stroke-miterlimit="10" stroke-width="1.25"/><path fill="none" stroke="#1de9b6" stroke-miterlimit="10" stroke-width="1.25" d="M48.311,48.23729V44.66957a5.53744,5.53744,0,1,1,11.07488,0v3.56772"/><circle cx="53.852" cy="57.312" r="1.932" fill="none" stroke="#1de9b6" stroke-miterlimit="10" stroke-width="1.25"/><path fill="none" stroke="#1de9b6" stroke-miterlimit="10" stroke-width="1.25" d="M53.84844,66.86843v77.397a6.05559,6.05559,0,0,1-6.05559,6.05559H6.47272a6.05559,6.05559,0,0,1-6.05559-6.05559V61.43607a6.05559,6.05559,0,0,1,6.05559-6.05559H44.48764"/><line x2="53.431" y1="140.128" y2="140.128" fill="none" stroke="#1de9b6" stroke-miterlimit="10" stroke-width="1.25"/><circle cx="27.133" cy="145.163" r="1.747" fill="#1de9b6"/></svg>