<svg xmlns="http://www.w3.org/2000/svg" xmlns:xlink="http://www.w3.org/1999/xlink" viewBox="0 0 190 160"><defs><clipPath id="a"><rect y="15.3765" width="186.963" height="129.24699" style="fill:none"/></clipPath><clipPath id="c"><rect x="47.2865" y="58.4556" width="85.6205" height="72.6593" style="fill:none"/></clipPath><clipPath id="e"><rect x="54.8278" y="22.8945" width="52.9162" height="26.4856" style="fill:none"/></clipPath></defs><title>model-icon9</title><g style="clip-path:url(#a)"><polyline points="159.912 131.115 13.183 131.259 13.096 42.472 132.907 42.329" style="fill:none;stroke:#434d72;stroke-miterlimit:10;stroke-width:1.25px"/><g style="clip-path:url(#a)"><g style="opacity:0.3000029921531677"><g style="clip-path:url(#c)"><polyline points="98.833 131.115 98.833 93.743 47.912 93.744 47.912 59.081 132.907 59.081" style="fill:none;stroke:#434d72;stroke-miterlimit:10;stroke-width:1.25px"/></g></g></g><line x1="159.8251" y1="110.9421" x2="159.91209" y2="131.1151" style="fill:none;stroke:#434d72;stroke-miterlimit:10;stroke-width:1.25px"/><rect x="0.6685" y="42.47868" width="12.74051" height="88.78554" style="fill:#434d72"/><g style="clip-path:url(#a)"><rect x="0.6686" y="42.47897" width="12.74001" height="88.78554" style="fill:none;stroke:#434d72;stroke-miterlimit:10;stroke-width:1.25px"/><g style="opacity:0.3000029921531677"><g style="clip-path:url(#e)"><path d="M55.453,49.3796a25.833,25.833,0,1,1,51.666-.051" style="fill:none;stroke:#434d72;stroke-miterlimit:10;stroke-width:1.25px"/></g></g></g><rect x="13.45829" y="131.23699" width="43.52552" height="12.74001" style="fill:#434d72"/><g style="clip-path:url(#a)"><rect x="13.45849" y="131.23699" width="43.52502" height="12.73951" style="fill:none;stroke:#434d72;stroke-miterlimit:10;stroke-width:1.25px"/><rect x="56.98846" y="131.15019" width="128.93256" height="12.73951" style="fill:none;stroke:#434d72;stroke-miterlimit:10;stroke-width:1.25px"/><path d="M186.3383,22.0573v82.829a6.05555,6.05555,0,0,1-6.056,6.056h-41.32a6.05532,6.05532,0,0,1-6.055-6.056V22.0573a6.05532,6.05532,0,0,1,6.055-6.056h41.32" style="fill:none;stroke:#1de9b6;stroke-miterlimit:10;stroke-width:1.25px"/><line x1="132.4897" y1="100.7487" x2="185.92169" y2="100.7487" style="fill:none;stroke:#1de9b6;stroke-miterlimit:10;stroke-width:1.25px"/><path d="M161.37,105.7848a1.74751,1.74751,0,1,1-1.748-1.748,1.747,1.747,0,0,1,1.748,1.748" style="fill:#1de9b6"/><path d="M186.3383,22.0573a6.05554,6.05554,0,0,0-6.056-6.056" style="fill:none;stroke:#1de9b6;stroke-miterlimit:10;stroke-width:1.25px"/><line x1="142.05901" y1="43.8678" x2="151.166" y2="43.8678" style="fill:none;stroke:#434d72;stroke-miterlimit:10;stroke-width:1.25px"/><line x1="142.05901" y1="52.9577" x2="156.75" y2="52.9577" style="fill:none;stroke:#434d72;stroke-miterlimit:10;stroke-width:1.25px"/><line x1="159.97839" y1="52.9577" x2="166.96838" y2="52.9577" style="fill:none;stroke:#434d72;stroke-miterlimit:10;stroke-width:1.25px"/><line x1="170.1967" y1="52.9577" x2="177.1857" y2="52.9577" style="fill:none;stroke:#434d72;stroke-miterlimit:10;stroke-width:1.25px"/><line x1="142.05901" y1="34.778" x2="158.084" y2="34.778" style="fill:none;stroke:#434d72;stroke-miterlimit:10;stroke-width:1.25px"/><line x1="168.10339" y1="34.778" x2="177.18639" y2="34.778" style="fill:none;stroke:#434d72;stroke-miterlimit:10;stroke-width:1.25px"/><line x1="142.05901" y1="62.0475" x2="170.19701" y2="62.0475" style="fill:none;stroke:#434d72;stroke-miterlimit:10;stroke-width:1.25px"/><line x1="142.05901" y1="80.2272" x2="151.166" y2="80.2272" style="fill:none;stroke:#434d72;stroke-miterlimit:10;stroke-width:1.25px"/><line x1="142.05901" y1="89.3171" x2="156.75" y2="89.3171" style="fill:none;stroke:#434d72;stroke-miterlimit:10;stroke-width:1.25px"/><line x1="159.97839" y1="89.3171" x2="166.96838" y2="89.3171" style="fill:none;stroke:#434d72;stroke-miterlimit:10;stroke-width:1.25px"/><line x1="170.1967" y1="89.3171" x2="177.1857" y2="89.3171" style="fill:none;stroke:#434d72;stroke-miterlimit:10;stroke-width:1.25px"/><line x1="142.05901" y1="71.1374" x2="164.18199" y2="71.1374" style="fill:none;stroke:#434d72;stroke-miterlimit:10;stroke-width:1.25px"/><line x1="168.10339" y1="71.1374" x2="177.18639" y2="71.1374" style="fill:none;stroke:#434d72;stroke-miterlimit:10;stroke-width:1.25px"/><line x1="142.05901" y1="27.0319" x2="151.166" y2="27.0319" style="fill:none;stroke:#434d72;stroke-miterlimit:10;stroke-width:1.25px"/><polyline points="106.374 131.115 106.374 100.749 55.453 100.749 55.453 66.087 132.907 66.087" style="fill:none;stroke:#1de9b6;stroke-miterlimit:10;stroke-width:1.25px"/></g></g></svg>