<svg xmlns="http://www.w3.org/2000/svg" xmlns:xlink="http://www.w3.org/1999/xlink" viewBox="0 0 160 160"><defs><clipPath id="a"><rect width="135.825" height="135.825" y="12.088" fill="none"/></clipPath><clipPath id="d"><rect width="6.243" height="6.272" x="109.236" y="32.127" fill="none"/></clipPath><clipPath id="e"><rect width="6.243" height="6.272" x="20.345" y="121.596" fill="none"/></clipPath><clipPath id="f"><rect width="6.243" height="6.272" x="20.345" y="32.127" fill="none"/></clipPath><clipPath id="g"><rect width="6.243" height="6.272" x="109.236" y="121.596" fill="none"/></clipPath></defs><title>model-icon5</title><g clip-path="url(#a)"><polygon fill="#434d72" points="78.955 61.19 67.912 67.566 56.87 61.19 45.827 67.566 56.87 73.979 67.912 80.355 78.955 73.979 89.998 67.566 78.955 61.19"/><polygon fill="#434d72" points="78.955 82.527 67.912 88.903 56.87 82.527 45.827 88.903 56.87 95.316 67.912 101.692 78.955 95.316 89.998 88.903 78.955 82.527"/><g clip-path="url(#a)"><circle cx="67.913" cy="80" r="41.552" fill="none" stroke="#1de9b6" stroke-miterlimit="10" stroke-width="1.25"/><circle cx="67.913" cy="80" r="53.989" fill="none" stroke="#434d72" stroke-miterlimit="10" stroke-width="1.25"/><g opacity=".3"><g clip-path="url(#a)"><circle cx="67.912" cy="80" r="67.288" fill="none" stroke="#434d72" stroke-miterlimit="10" stroke-width="1.25"/></g></g><line x1="67.913" x2="67.913" y1="26.011" y2="33.443" fill="none" stroke="#434d72" stroke-miterlimit="10" stroke-width="1.25"/><g opacity=".3"><g clip-path="url(#d)"><line x1="115.036" x2="109.68" y1="32.566" y2="37.958" fill="none" stroke="#434d72" stroke-miterlimit="10" stroke-width="1.25"/></g></g><g opacity=".3"><g clip-path="url(#e)"><line x1="26.145" x2="20.789" y1="122.036" y2="127.428" fill="none" stroke="#434d72" stroke-miterlimit="10" stroke-width="1.25"/></g></g><g opacity=".3"><g clip-path="url(#f)"><line x1="20.788" x2="26.144" y1="32.566" y2="37.958" fill="none" stroke="#434d72" stroke-miterlimit="10" stroke-width="1.25"/></g></g><g opacity=".3"><g clip-path="url(#g)"><line x1="109.68" x2="115.035" y1="122.036" y2="127.428" fill="none" stroke="#434d72" stroke-miterlimit="10" stroke-width="1.25"/></g></g><line x1="101.508" x2="97.689" y1="46.182" y2="50.026" fill="none" stroke="#1de9b6" stroke-miterlimit="10" stroke-width="1.25"/><line x1="38.135" x2="34.316" y1="109.969" y2="113.811" fill="none" stroke="#1de9b6" stroke-miterlimit="10" stroke-width="1.25"/><line x1="34.316" x2="38.135" y1="46.182" y2="50.026" fill="none" stroke="#1de9b6" stroke-miterlimit="10" stroke-width="1.25"/><line x1="97.689" x2="101.508" y1="109.969" y2="113.811" fill="none" stroke="#1de9b6" stroke-miterlimit="10" stroke-width="1.25"/><line x1="67.913" x2="67.913" y1="126.556" y2="133.989" fill="none" stroke="#434d72" stroke-miterlimit="10" stroke-width="1.25"/><line x1="121.901" x2="114.469" y1="80" y2="80" fill="none" stroke="#434d72" stroke-miterlimit="10" stroke-width="1.25"/><line x1="21.356" x2="13.924" y1="80" y2="80" fill="none" stroke="#434d72" stroke-miterlimit="10" stroke-width="1.25"/></g></g></svg>