<svg xmlns="http://www.w3.org/2000/svg" xmlns:xlink="http://www.w3.org/1999/xlink" viewBox="0 0 1364.31661 439.9522"><defs><clipPath id="a"><path d="M106.26272,238.53159a44.99347,44.99347,0,0,0-89.98694,0Z" style="fill:none"/></clipPath><clipPath id="b"><path d="M853.5148,212.39985a74.51614,74.51614,0,0,0-149.03229,0Z" style="fill:none"/></clipPath></defs><title>model-bottom</title><rect x="237.396" y="113.33967" width="453.63985" height="232.03949" transform="translate(928.43185 458.71882) rotate(-180)" style="fill:#031e28"/><rect x="295.61675" y="86.56828" width="143.96536" height="98.73938" style="fill:#031e28"/><rect x="427.23581" y="46.0742" width="88.10819" height="139.23347" style="fill:#031e28"/><rect y="237.22994" width="128.49756" height="107.67856" transform="translate(128.49756 582.13843) rotate(-180)" style="fill:#031e28"/><path d="M106.26272,238.53159a44.99347,44.99347,0,0,0-89.98694,0Z" style="fill:#031e28"/><g style="clip-path:url(#a)"><circle cx="96.55638" cy="228.40742" r="1.08466" style="fill:#1de9b6"/><circle cx="85.65552" cy="228.40742" r="1.08466" style="fill:#1de9b6"/><circle cx="80.20509" cy="228.40742" r="1.08466" style="fill:#1de9b6"/><circle cx="91.10595" cy="228.40742" r="1.08466" style="fill:#1de9b6"/><polyline points="103.457 218.317 92.518 218.317 89.221 220.718 63.064 220.718" style="fill:none;stroke:#1de9b6;stroke-miterlimit:10;stroke-width:1.25px"/><polyline points="16.276 223.118 33.61 223.118 36.907 220.718 63.064 220.718" style="fill:none;stroke:#1de9b6;stroke-miterlimit:10;stroke-width:1.25px"/><line x1="103.45666" y1="215.20806" x2="19.49736" y2="215.20806" style="fill:none;stroke:#1de9b6;stroke-miterlimit:10;stroke-width:1.25px"/><line x1="70.70118" y1="227.01837" x2="70.70118" y2="230.092" style="fill:none;stroke:#737e90;stroke-miterlimit:10;stroke-width:1.25px"/><line x1="68.18629" y1="225.54066" x2="68.18629" y2="231.27417" style="fill:none;stroke:#737e90;stroke-miterlimit:10;stroke-width:1.25px"/><line x1="65.67139" y1="224.77226" x2="65.67139" y2="232.04258" style="fill:none;stroke:#737e90;stroke-miterlimit:10;stroke-width:1.25px"/><line x1="63.1565" y1="226.22919" x2="63.1565" y2="230.092" style="fill:none;stroke:#737e90;stroke-miterlimit:10;stroke-width:1.25px"/><line x1="60.6416" y1="224.77226" x2="60.6416" y2="232.04258" style="fill:none;stroke:#737e90;stroke-miterlimit:10;stroke-width:1.25px"/><line x1="55.61182" y1="227.01837" x2="55.61182" y2="230.092" style="fill:none;stroke:#737e90;stroke-miterlimit:10;stroke-width:1.25px"/><line x1="58.12671" y1="225.54066" x2="58.12671" y2="231.27417" style="fill:none;stroke:#737e90;stroke-miterlimit:10;stroke-width:1.25px"/><line x1="53.09692" y1="225.54066" x2="53.09692" y2="231.27417" style="fill:none;stroke:#737e90;stroke-miterlimit:10;stroke-width:1.25px"/><line x1="50.58203" y1="224.77226" x2="50.58203" y2="232.04258" style="fill:none;stroke:#737e90;stroke-miterlimit:10;stroke-width:1.25px"/><line x1="48.06713" y1="226.22919" x2="48.06713" y2="230.092" style="fill:none;stroke:#737e90;stroke-miterlimit:10;stroke-width:1.25px"/><line x1="45.55224" y1="224.77226" x2="45.55224" y2="232.04258" style="fill:none;stroke:#737e90;stroke-miterlimit:10;stroke-width:1.25px"/><line x1="40.52245" y1="227.01837" x2="40.52245" y2="230.092" style="fill:none;stroke:#737e90;stroke-miterlimit:10;stroke-width:1.25px"/><line x1="43.03734" y1="225.54066" x2="43.03734" y2="231.27417" style="fill:none;stroke:#737e90;stroke-miterlimit:10;stroke-width:1.25px"/></g><rect x="186.06873" width="39.41523" height="304.08952" transform="translate(411.55269 304.08952) rotate(-180)" style="fill:#031e28"/><circle cx="219.31648" cy="27.32633" r="1.79637" style="fill:#737e90"/><circle cx="201.26297" cy="27.32633" r="1.79637" style="fill:#737e90"/><circle cx="192.23621" cy="27.32633" r="1.79637" style="fill:#737e90"/><circle cx="210.28972" cy="27.32633" r="1.79637" style="fill:#737e90"/><polyline points="220.966 17.025 212.628 17.025 207.168 21 190.929 21" style="fill:none;stroke:#737e90;stroke-miterlimit:10;stroke-width:1.25px"/><line x1="220.96572" y1="11.89295" x2="190.92889" y2="11.89295" style="fill:none;stroke:#737e90;stroke-miterlimit:10;stroke-width:1.25px"/><line x1="220.96572" y1="6.76132" x2="190.92889" y2="6.76132" style="fill:none;stroke:#737e90;stroke-miterlimit:10;stroke-width:1.25px"/><circle cx="219.31648" cy="58.377" r="1.79637" style="fill:#737e90"/><circle cx="201.26297" cy="58.377" r="1.79637" style="fill:#737e90"/><circle cx="192.23621" cy="58.377" r="1.79637" style="fill:#737e90"/><circle cx="210.28972" cy="58.377" r="1.79637" style="fill:#737e90"/><polyline points="220.966 48.075 212.628 48.075 207.168 52.05 190.929 52.05" style="fill:none;stroke:#1de9b6;stroke-miterlimit:10;stroke-width:1.25px"/><line x1="220.96572" y1="42.94361" x2="190.92889" y2="42.94361" style="fill:none;stroke:#1de9b6;stroke-miterlimit:10;stroke-width:1.25px"/><line x1="220.96572" y1="37.81198" x2="190.92889" y2="37.81198" style="fill:none;stroke:#1de9b6;stroke-miterlimit:10;stroke-width:1.25px"/><rect x="223.32068" y="16.26862" width="39.41523" height="304.08952" transform="translate(486.05659 336.62676) rotate(-180)" style="fill:#031e28"/><circle cx="256.56843" cy="43.59495" r="1.79637" style="fill:#737e90"/><circle cx="238.51492" cy="43.59495" r="1.79637" style="fill:#737e90"/><circle cx="229.48817" cy="43.59495" r="1.79637" style="fill:#737e90"/><circle cx="247.54167" cy="43.59495" r="1.79637" style="fill:#737e90"/><polyline points="258.218 33.293 249.88 33.293 244.42 37.268 228.181 37.268" style="fill:none;stroke:#1de9b6;stroke-miterlimit:10;stroke-width:1.25px"/><line x1="258.21767" y1="28.16156" x2="228.18084" y2="28.16156" style="fill:none;stroke:#1de9b6;stroke-miterlimit:10;stroke-width:1.25px"/><line x1="258.21767" y1="23.02993" x2="228.18084" y2="23.02993" style="fill:none;stroke:#1de9b6;stroke-miterlimit:10;stroke-width:1.25px"/><circle cx="256.56843" cy="74.64561" r="1.79637" style="fill:#737e90"/><circle cx="238.51492" cy="74.64561" r="1.79637" style="fill:#737e90"/><circle cx="229.48817" cy="74.64561" r="1.79637" style="fill:#737e90"/><circle cx="247.54167" cy="74.64561" r="1.79637" style="fill:#737e90"/><polyline points="258.218 64.344 249.88 64.344 244.42 68.319 228.181 68.319" style="fill:none;stroke:#1de9b6;stroke-miterlimit:10;stroke-width:1.25px"/><line x1="258.21767" y1="59.21223" x2="228.18084" y2="59.21223" style="fill:none;stroke:#1de9b6;stroke-miterlimit:10;stroke-width:1.25px"/><line x1="258.21767" y1="54.0806" x2="228.18084" y2="54.0806" style="fill:none;stroke:#1de9b6;stroke-miterlimit:10;stroke-width:1.25px"/><rect x="474.11801" y="202.51374" width="344.29362" height="237.43847" style="fill:#2a3d58"/><rect x="457.28709" y="202.51374" width="16.83092" height="16.83092" style="fill:#031e28"/><rect x="457.28709" y="219.34465" width="16.83092" height="220.60755" style="fill:#2a3d58"/><rect x="440.45617" y="236.17557" width="16.83092" height="203.77663" style="fill:#2a3d58"/><rect x="440.45617" y="219.34465" width="16.83092" height="16.83092" style="fill:#031e28"/><rect x="395.09233" y="236.17557" width="45.36384" height="200.94421" style="fill:#031e28"/><rect x="483.25588" y="212.43598" width="881.06073" height="227.51623" style="fill:#031e28"/><rect x="466.42496" y="228.48252" width="53.76686" height="211.46968" style="fill:#031e28"/><rect x="449.59404" y="245.31344" width="53.76686" height="194.63876" style="fill:#031e28"/><path d="M853.5148,212.39985a74.51614,74.51614,0,0,0-149.03229,0Z" style="fill:#031e28"/><g style="clip-path:url(#b)"><circle cx="837.4396" cy="195.63265" r="1.79637" style="fill:#1de9b6"/><circle cx="819.3861" cy="195.63265" r="1.79637" style="fill:#1de9b6"/><circle cx="810.35934" cy="195.63265" r="1.79637" style="fill:#1de9b6"/><circle cx="828.41285" cy="195.63265" r="1.79637" style="fill:#1de9b6"/><polyline points="848.868 178.922 830.751 178.922 825.291 182.897 781.971 182.897" style="fill:none;stroke:#1de9b6;stroke-miterlimit:10;stroke-width:1.25px"/><polyline points="704.483 186.873 733.191 186.873 738.651 182.897 781.971 182.897" style="fill:none;stroke:#1de9b6;stroke-miterlimit:10;stroke-width:1.25px"/><line x1="848.86752" y1="173.77248" x2="709.81796" y2="173.77248" style="fill:none;stroke:#1de9b6;stroke-miterlimit:10;stroke-width:1.25px"/><line x1="794.6194" y1="193.33218" x2="794.6194" y2="198.42259" style="fill:none;stroke:#737e90;stroke-miterlimit:10;stroke-width:1.25px"/><line x1="790.45434" y1="190.88487" x2="790.45434" y2="200.38044" style="fill:none;stroke:#737e90;stroke-miterlimit:10;stroke-width:1.25px"/><line x1="786.28929" y1="189.61226" x2="786.28929" y2="201.65304" style="fill:none;stroke:#737e90;stroke-miterlimit:10;stroke-width:1.25px"/><line x1="782.12423" y1="192.02518" x2="782.12423" y2="198.42259" style="fill:none;stroke:#737e90;stroke-miterlimit:10;stroke-width:1.25px"/><line x1="777.95918" y1="189.61226" x2="777.95918" y2="201.65304" style="fill:none;stroke:#737e90;stroke-miterlimit:10;stroke-width:1.25px"/><line x1="769.62907" y1="193.33218" x2="769.62907" y2="198.42259" style="fill:none;stroke:#737e90;stroke-miterlimit:10;stroke-width:1.25px"/><line x1="773.79412" y1="190.88487" x2="773.79412" y2="200.38044" style="fill:none;stroke:#737e90;stroke-miterlimit:10;stroke-width:1.25px"/><line x1="765.46402" y1="190.88487" x2="765.46402" y2="200.38044" style="fill:none;stroke:#737e90;stroke-miterlimit:10;stroke-width:1.25px"/><line x1="761.29896" y1="189.61226" x2="761.29896" y2="201.65304" style="fill:none;stroke:#737e90;stroke-miterlimit:10;stroke-width:1.25px"/><line x1="757.13391" y1="192.02518" x2="757.13391" y2="198.42259" style="fill:none;stroke:#737e90;stroke-miterlimit:10;stroke-width:1.25px"/><line x1="752.96885" y1="189.61226" x2="752.96885" y2="201.65304" style="fill:none;stroke:#737e90;stroke-miterlimit:10;stroke-width:1.25px"/><line x1="744.63874" y1="193.33218" x2="744.63874" y2="198.42259" style="fill:none;stroke:#737e90;stroke-miterlimit:10;stroke-width:1.25px"/><line x1="748.8038" y1="190.88487" x2="748.8038" y2="200.38044" style="fill:none;stroke:#737e90;stroke-miterlimit:10;stroke-width:1.25px"/></g><rect x="680.10646" y="113.52365" width="21.85878" height="215.42628" style="fill:#2a3d58"/><rect x="701.96524" y="113.52365" width="45.89729" height="211.44881" style="fill:#173045"/><polygon points="745.773 113.619 704.055 113.524 704.055 99.767 745.773 99.862 745.773 113.619" style="fill:#173045"/><polygon points="704.055 113.619 681.614 113.524 681.614 99.767 704.055 99.862 704.055 113.619" style="fill:#2a3d58"/><polyline points="723.331 99.862 723.331 84.906 700.335 84.906 681.614 99.862" style="fill:#1de9b6"/><polyline points="704.055 99.862 700.335 84.906 727.052 84.906 745.773 99.862" style="fill:#031e28"/><line x1="687.11114" y1="113.61852" x2="687.11114" y2="322.34906" style="fill:none;stroke:#1de9b6;stroke-miterlimit:10;stroke-width:1.2535671889782px"/><line x1="694.08093" y1="113.61852" x2="694.08093" y2="328.94993" style="fill:none;stroke:#1de9b6;stroke-miterlimit:10;stroke-width:1.2535671889782px"/><ellipse cx="713.75426" cy="256.44036" rx="1.56523" ry="1.59628" style="fill:#1de9b6"/><ellipse cx="727.43895" cy="256.44036" rx="1.56523" ry="1.59628" style="fill:#1de9b6"/><ellipse cx="720.59661" cy="256.44036" rx="1.56523" ry="1.59628" style="fill:#1de9b6"/><ellipse cx="713.04395" cy="229.4873" rx="1.0466" ry="1.06735" style="fill:#1de9b6"/><ellipse cx="716.47886" cy="229.4873" rx="1.0466" ry="1.06735" style="fill:#1de9b6"/><ellipse cx="720.0791" cy="229.4873" rx="1.0466" ry="1.06735" style="fill:#1de9b6"/><ellipse cx="713.75426" cy="147.67821" rx="1.56523" ry="1.59628" style="fill:#1de9b6"/><ellipse cx="727.43895" cy="147.67821" rx="1.56523" ry="1.59628" style="fill:#1de9b6"/><ellipse cx="720.59661" cy="147.67821" rx="1.56523" ry="1.59628" style="fill:#1de9b6"/><polyline points="712.317 138.524 719.582 138.524 724.34 142.056 743.022 142.056" style="fill:none;stroke:#737e90;stroke-miterlimit:10;stroke-width:1.2535671889782px"/><line x1="712.31722" y1="133.54438" x2="742.83042" y2="133.54438" style="fill:none;stroke:#737e90;stroke-miterlimit:10;stroke-width:1.2535671889782px"/><ellipse cx="713.04395" cy="120.72515" rx="1.0466" ry="1.06735" style="fill:#1de9b6"/><ellipse cx="716.47886" cy="120.72515" rx="1.0466" ry="1.06735" style="fill:#1de9b6"/><ellipse cx="720.0791" cy="120.72515" rx="1.0466" ry="1.06735" style="fill:#1de9b6"/><line x1="743.0221" y1="120.72515" x2="726.24137" y2="120.72515" style="fill:none;stroke:#737e90;stroke-miterlimit:10;stroke-width:1.2535671889782px"/><path d="M551.94856,180.07692H598.8538a0,0,0,0,1,0,0V326.19409a0,0,0,0,1,0,0h-9.78386a37.12139,37.12139,0,0,1-37.12139-37.12139V180.07692A0,0,0,0,1,551.94856,180.07692Z" transform="translate(1150.80236 506.27101) rotate(-180)" style="fill:#173045"/><rect x="515.344" y="180.07692" width="36.60456" height="146.11717" style="fill:#2a3d58"/><ellipse cx="575.40118" cy="224.60498" rx="12.14965" ry="12.39063" style="fill:#031e28"/><path d="M581.64476,224.605a12.34019,12.34019,0,0,0-9.19669-12.00662,11.91227,11.91227,0,0,1,2.95318-.384,12.393,12.393,0,0,1,0,24.78126,11.91227,11.91227,0,0,1-2.95318-.384A12.34019,12.34019,0,0,0,581.64476,224.605Z" style="fill:#2e3554"/><ellipse cx="575.40118" cy="259.08936" rx="12.14965" ry="12.39063" style="fill:#031e28"/><path d="M581.64476,259.08936a12.34019,12.34019,0,0,0-9.19669-12.00662,11.91227,11.91227,0,0,1,2.95318-.384,12.393,12.393,0,0,1,0,24.78126,11.91227,11.91227,0,0,1-2.95318-.384A12.34019,12.34019,0,0,0,581.64476,259.08936Z" style="fill:#2e3554"/><rect x="530.79232" y="204.7477" width="4.4047" height="70.72173" style="fill:#031e28"/><path d="M316.87167,274.14572H266.268V51.016h38.02539s-1.18647,105.028,0,143.872C305.93984,248.79283,316.87167,274.14572,316.87167,274.14572Z" style="fill:#173045"/><path d="M288.69042,275.78457H238.08671V51.016h38.02539s-1.18647,105.028,0,143.872C277.7586,248.79283,288.69042,275.78457,288.69042,275.78457Z" style="fill:#2a3d58"/><path d="M211.55746,274.14572h51.67707V51.016H224.13578s1.18647,105.028,0,143.872C222.48929,248.79283,211.55746,274.14572,211.55746,274.14572Z" style="fill:#2a3d58"/><polygon points="268.854 147.904 231.45 147.904 231.45 185.308 268.854 147.904" style="fill:#173045"/><polygon points="231.45 185.308 268.854 185.308 268.854 147.904 231.45 185.308" style="fill:#031e28"/><line x1="264.80911" y1="154.22556" x2="318.33052" y2="154.22556" style="fill:none;stroke:#1de9b6;stroke-miterlimit:10;stroke-width:1.25px"/><line x1="264.80911" y1="161.59416" x2="318.33052" y2="161.59416" style="fill:none;stroke:#1de9b6;stroke-miterlimit:10;stroke-width:1.25px"/><line x1="264.80911" y1="168.96276" x2="318.33052" y2="168.96276" style="fill:none;stroke:#1de9b6;stroke-miterlimit:10;stroke-width:1.25px"/><polygon points="231.45 103.25 268.854 103.25 268.854 140.654 231.45 103.25" style="fill:#031e28"/><polygon points="268.854 140.654 231.45 140.654 231.45 103.25 268.854 140.654" style="fill:#173045"/><line x1="264.80911" y1="109.57145" x2="318.33052" y2="109.57145" style="fill:none;stroke:#737e90;stroke-miterlimit:10;stroke-width:1.25px"/><line x1="264.80911" y1="116.94005" x2="318.33052" y2="116.94005" style="fill:none;stroke:#737e90;stroke-miterlimit:10;stroke-width:1.25px"/><line x1="264.80911" y1="124.30865" x2="318.33052" y2="124.30865" style="fill:none;stroke:#737e90;stroke-miterlimit:10;stroke-width:1.25px"/><polygon points="268.854 58.596 231.45 58.596 231.45 95.999 268.854 58.596" style="fill:#173045"/><polygon points="231.45 95.999 268.854 95.999 268.854 58.596 231.45 95.999" style="fill:#031e28"/><line x1="264.80911" y1="64.9173" x2="318.33052" y2="64.9173" style="fill:none;stroke:#1de9b6;stroke-miterlimit:10;stroke-width:1.25px"/><line x1="264.80911" y1="72.2859" x2="318.33052" y2="72.2859" style="fill:none;stroke:#1de9b6;stroke-miterlimit:10;stroke-width:1.25px"/><line x1="264.80911" y1="79.65449" x2="318.33052" y2="79.65449" style="fill:none;stroke:#1de9b6;stroke-miterlimit:10;stroke-width:1.25px"/><rect x="118.97873" y="119.50105" width="30.75562" height="287.11482" transform="translate(268.71308 526.11692) rotate(-180)" style="fill:#2a3d58"/><rect x="149.73435" y="119.50105" width="40.7055" height="290.45994" transform="translate(340.1742 529.46204) rotate(-180)" style="fill:#173045"/><circle cx="141.86673" cy="167.02921" r="1.79637" style="fill:#737e90"/><circle cx="123.81322" cy="167.02921" r="1.79637" style="fill:#737e90"/><circle cx="114.78647" cy="167.02921" r="1.79637" style="fill:#737e90"/><circle cx="132.83998" cy="167.02921" r="1.79637" style="fill:#737e90"/><polyline points="143.516 156.727 135.178 156.727 129.718 160.703 113.479 160.703" style="fill:none;stroke:#737e90;stroke-miterlimit:10;stroke-width:1.25px"/><line x1="143.51597" y1="151.59582" x2="113.47914" y2="151.59582" style="fill:none;stroke:#737e90;stroke-miterlimit:10;stroke-width:1.25px"/><line x1="143.51597" y1="146.46419" x2="113.47914" y2="146.46419" style="fill:none;stroke:#737e90;stroke-miterlimit:10;stroke-width:1.25px"/><rect x="167.01725" y="131.66834" width="4.4047" height="70.72173" transform="translate(338.4392 334.05842) rotate(-180)" style="fill:#031e28"/><line x1="403.42244" y1="192.06594" x2="403.42244" y2="197.15635" style="fill:none;stroke:#737e90;stroke-miterlimit:10;stroke-width:1.25px"/><line x1="399.25739" y1="189.61863" x2="399.25739" y2="199.1142" style="fill:none;stroke:#737e90;stroke-miterlimit:10;stroke-width:1.25px"/><line x1="395.09233" y1="188.34603" x2="395.09233" y2="200.38681" style="fill:none;stroke:#737e90;stroke-miterlimit:10;stroke-width:1.25px"/><line x1="390.92728" y1="190.75895" x2="390.92728" y2="197.15635" style="fill:none;stroke:#737e90;stroke-miterlimit:10;stroke-width:1.25px"/><line x1="386.76222" y1="188.34603" x2="386.76222" y2="200.38681" style="fill:none;stroke:#737e90;stroke-miterlimit:10;stroke-width:1.25px"/><line x1="378.43211" y1="192.06594" x2="378.43211" y2="197.15635" style="fill:none;stroke:#737e90;stroke-miterlimit:10;stroke-width:1.25px"/><line x1="382.59717" y1="189.61863" x2="382.59717" y2="199.1142" style="fill:none;stroke:#737e90;stroke-miterlimit:10;stroke-width:1.25px"/><line x1="374.26706" y1="189.61863" x2="374.26706" y2="199.1142" style="fill:none;stroke:#737e90;stroke-miterlimit:10;stroke-width:1.25px"/><line x1="370.10201" y1="188.34603" x2="370.10201" y2="200.38681" style="fill:none;stroke:#737e90;stroke-miterlimit:10;stroke-width:1.25px"/><line x1="365.93695" y1="190.75895" x2="365.93695" y2="197.15635" style="fill:none;stroke:#737e90;stroke-miterlimit:10;stroke-width:1.25px"/><line x1="361.7719" y1="188.34603" x2="361.7719" y2="200.38681" style="fill:none;stroke:#737e90;stroke-miterlimit:10;stroke-width:1.25px"/><line x1="353.44179" y1="192.06594" x2="353.44179" y2="197.15635" style="fill:none;stroke:#737e90;stroke-miterlimit:10;stroke-width:1.25px"/><line x1="357.60684" y1="189.61863" x2="357.60684" y2="199.1142" style="fill:none;stroke:#737e90;stroke-miterlimit:10;stroke-width:1.25px"/><rect x="353.44179" y="214.29355" width="49.98065" height="22.23237" style="fill:none;stroke:#737e90;stroke-miterlimit:10;stroke-width:1.25px"/><g style="opacity:0.5"><rect x="643.38439" y="259.73515" width="11.5236" height="10.14077" style="fill:none;stroke:#737e90;stroke-miterlimit:10;stroke-width:1.25px"/><rect x="624.05227" y="259.73515" width="11.5236" height="10.14077" style="fill:none;stroke:#737e90;stroke-miterlimit:10;stroke-width:1.25px"/><line x1="624.05227" y1="232.1065" x2="654.90799" y2="232.1065" style="fill:none;stroke:#737e90;stroke-miterlimit:10;stroke-width:1.25px"/><line x1="651.90402" y1="241.89289" x2="651.90402" y2="246.9833" style="fill:none;stroke:#737e90;stroke-miterlimit:10;stroke-width:1.25px"/><line x1="647.73897" y1="239.44558" x2="647.73897" y2="248.94115" style="fill:none;stroke:#737e90;stroke-miterlimit:10;stroke-width:1.25px"/><line x1="643.57391" y1="238.17297" x2="643.57391" y2="250.21375" style="fill:none;stroke:#737e90;stroke-miterlimit:10;stroke-width:1.25px"/><line x1="639.40886" y1="240.58589" x2="639.40886" y2="246.9833" style="fill:none;stroke:#737e90;stroke-miterlimit:10;stroke-width:1.25px"/><line x1="635.24381" y1="238.17297" x2="635.24381" y2="250.21375" style="fill:none;stroke:#737e90;stroke-miterlimit:10;stroke-width:1.25px"/><line x1="626.9137" y1="241.89289" x2="626.9137" y2="246.9833" style="fill:none;stroke:#737e90;stroke-miterlimit:10;stroke-width:1.25px"/><line x1="631.07875" y1="239.44558" x2="631.07875" y2="248.94115" style="fill:none;stroke:#737e90;stroke-miterlimit:10;stroke-width:1.25px"/><rect x="643.38439" y="310.89395" width="11.5236" height="10.14077" style="fill:none;stroke:#737e90;stroke-miterlimit:10;stroke-width:1.25px"/><rect x="624.05227" y="310.89395" width="11.5236" height="10.14077" style="fill:none;stroke:#737e90;stroke-miterlimit:10;stroke-width:1.25px"/><polyline points="624.052 283.265 654.908 283.265 654.908 305.141" style="fill:none;stroke:#737e90;stroke-miterlimit:10;stroke-width:1.25px"/><circle cx="625.62846" cy="362.09173" r="1.57618" style="fill:none;stroke:#737e90;stroke-miterlimit:10;stroke-width:1.25px"/><circle cx="639.40886" cy="362.09173" r="1.57618" style="fill:none;stroke:#737e90;stroke-miterlimit:10;stroke-width:1.25px"/><circle cx="632.51866" cy="362.09173" r="1.57618" style="fill:none;stroke:#737e90;stroke-miterlimit:10;stroke-width:1.25px"/><polyline points="624.181 353.053 631.497 353.053 636.288 356.541 655.101 356.541" style="fill:none;stroke:#737e90;stroke-miterlimit:10;stroke-width:1.25px"/><line x1="624.18137" y1="348.13584" x2="654.90799" y2="348.13584" style="fill:none;stroke:#737e90;stroke-miterlimit:10;stroke-width:1.25px"/><circle cx="624.91317" cy="335.478" r="1.05392" style="fill:none;stroke:#737e90;stroke-miterlimit:10;stroke-width:1.25px"/><circle cx="628.37212" cy="335.478" r="1.05392" style="fill:none;stroke:#737e90;stroke-miterlimit:10;stroke-width:1.25px"/><circle cx="631.99753" cy="335.478" r="1.05392" style="fill:none;stroke:#737e90;stroke-miterlimit:10;stroke-width:1.25px"/><line x1="655.10101" y1="335.478" x2="638.20291" y2="335.478" style="fill:none;stroke:#737e90;stroke-miterlimit:10;stroke-width:1.25px"/></g><g style="opacity:0.5"><rect x="775.05878" y="325.89836" width="11.52354" height="10.14077" transform="translate(1561.63944 661.9414) rotate(-179.99971)" style="fill:none;stroke:#737e90;stroke-miterlimit:10;stroke-width:1.25px"/><rect x="794.3908" y="325.89845" width="11.52354" height="10.14077" transform="translate(1600.30348 661.94169) rotate(-179.99971)" style="fill:none;stroke:#737e90;stroke-miterlimit:10;stroke-width:1.25px"/><line x1="805.91434" y1="363.6679" x2="775.05877" y2="363.66775" style="fill:none;stroke:#737e90;stroke-miterlimit:10;stroke-width:1.25px"/><line x1="778.06272" y1="353.88137" x2="778.06272" y2="348.79096" style="fill:none;stroke:#737e90;stroke-miterlimit:10;stroke-width:1.25px"/><line x1="782.22776" y1="356.3287" x2="782.22776" y2="346.83313" style="fill:none;stroke:#737e90;stroke-miterlimit:10;stroke-width:1.25px"/><line x1="786.39279" y1="357.60133" x2="786.39279" y2="345.56055" style="fill:none;stroke:#737e90;stroke-miterlimit:10;stroke-width:1.25px"/><line x1="790.55783" y1="355.18843" x2="790.55783" y2="348.79102" style="fill:none;stroke:#737e90;stroke-miterlimit:10;stroke-width:1.25px"/><line x1="794.72286" y1="357.60137" x2="794.72286" y2="345.56059" style="fill:none;stroke:#737e90;stroke-miterlimit:10;stroke-width:1.25px"/><line x1="803.05293" y1="353.8815" x2="803.05293" y2="348.79109" style="fill:none;stroke:#737e90;stroke-miterlimit:10;stroke-width:1.25px"/><line x1="798.88789" y1="356.32879" x2="798.8879" y2="346.83322" style="fill:none;stroke:#737e90;stroke-miterlimit:10;stroke-width:1.25px"/><rect x="775.05879" y="274.73957" width="11.52354" height="10.14077" transform="translate(1561.63971 559.62382) rotate(-179.99971)" style="fill:none;stroke:#737e90;stroke-miterlimit:10;stroke-width:1.25px"/><rect x="794.39081" y="274.73967" width="11.52354" height="10.14077" transform="translate(1600.30375 559.62411) rotate(-179.99971)" style="fill:none;stroke:#737e90;stroke-miterlimit:10;stroke-width:1.25px"/><polyline points="805.914 312.509 775.059 312.509 775.059 290.634" style="fill:none;stroke:#737e90;stroke-miterlimit:10;stroke-width:1.25px"/><circle cx="804.33818" cy="233.68267" r="1.57618" style="fill:none;stroke:#737e90;stroke-miterlimit:10;stroke-width:1.25px"/><circle cx="790.55784" cy="233.6826" r="1.57618" style="fill:none;stroke:#737e90;stroke-miterlimit:10;stroke-width:1.25px"/><circle cx="797.44801" cy="233.68263" r="1.57618" style="fill:none;stroke:#737e90;stroke-miterlimit:10;stroke-width:1.25px"/><polyline points="805.785 242.722 798.47 242.722 793.679 239.234 774.866 239.234" style="fill:none;stroke:#737e90;stroke-miterlimit:10;stroke-width:1.25px"/><line x1="805.78526" y1="247.63857" x2="775.05879" y2="247.63841" style="fill:none;stroke:#737e90;stroke-miterlimit:10;stroke-width:1.25px"/><circle cx="805.05346" cy="260.29641" r="1.05391" style="fill:none;stroke:#737e90;stroke-miterlimit:10;stroke-width:1.25px"/><circle cx="801.59453" cy="260.29639" r="1.05391" style="fill:none;stroke:#737e90;stroke-miterlimit:10;stroke-width:1.25px"/><circle cx="797.96914" cy="260.29637" r="1.05391" style="fill:none;stroke:#737e90;stroke-miterlimit:10;stroke-width:1.25px"/><line x1="774.86577" y1="260.29626" x2="791.76379" y2="260.29634" style="fill:none;stroke:#737e90;stroke-miterlimit:10;stroke-width:1.25px"/></g><path d="M905.16,344.39995a17.19327,17.19327,0,0,0-17.19327,17.19327H905.16Z" style="fill:#173045"/><path d="M922.35327,344.39988A17.19323,17.19323,0,0,0,905.16,327.20661v17.19334Z" style="fill:#173045"/><path d="M922.35335,327.007A17.19341,17.19341,0,0,0,939.547,309.81373l-17.19371,0Z" style="fill:#173045"/><path d="M974.62717,309.81372A17.19327,17.19327,0,0,0,957.4339,327.007h17.19327Z" style="fill:#173045"/><path d="M974.62717,275.42712a17.19327,17.19327,0,0,0-17.19327,17.19327h17.19327Z" style="fill:#173045"/><path d="M991.82043,275.22753a17.19323,17.19323,0,0,0-17.19327-17.19327V275.2276Z" style="fill:#173045"/><path d="M991.82051,292.42077a17.19341,17.19341,0,0,0,17.19363-17.19326l-17.19371,0Z" style="fill:#173045"/><path d="M842.17052,344.39995a17.19327,17.19327,0,0,0-17.19327,17.19327h17.19327Z" style="fill:#173045"/><path d="M842.17052,310.01334a17.19327,17.19327,0,0,0-17.19327,17.19327h17.19327Z" style="fill:#173045"/><path d="M859.36377,309.81376a17.19323,17.19323,0,0,0-17.19327-17.19327v17.19334Z" style="fill:#173045"/><path d="M859.36385,327.007a17.19341,17.19341,0,0,0,17.19363-17.19326l-17.19371,0Z" style="fill:#173045"/><path d="M1084.42369,324.415a17.19325,17.19325,0,0,0-17.19321-17.19329v17.19328Z" style="fill:#173045"/><path d="M1067.23044,307.22184a17.19325,17.19325,0,0,0-17.19321-17.19329v17.19328Z" style="fill:#173045"/><path d="M1050.03726,341.6082a17.1932,17.1932,0,0,0,17.19322-17.19326H1050.0372Z" style="fill:#173045"/><path d="M1050.03726,290.02855a17.1932,17.1932,0,0,0,17.19322-17.19326H1050.0372Z" style="fill:#173045"/><path d="M1084.62327,341.60822a17.1932,17.1932,0,0,0,17.19322-17.19326H1084.6232Z" style="fill:#173045"/><path d="M870.55293,249.55943a17.19325,17.19325,0,0,0-17.19321-17.19329v17.19328Z" style="fill:#173045"/><path d="M904.93943,249.55945a17.19325,17.19325,0,0,0-17.19321-17.19329v17.19328Z" style="fill:#173045"/><path d="M870.553,266.75269a17.1932,17.1932,0,0,0,17.19322-17.19326H870.55293Z" style="fill:#173045"/><path d="M905.139,266.75271a17.1932,17.1932,0,0,0,17.19322-17.19326H905.13894Z" style="fill:#173045"/><path d="M887.94583,266.75278a17.19339,17.19339,0,0,0,17.1932,17.19365l0-17.19372Z" style="fill:#173045"/><path d="M647.10711,164.64481a17.19325,17.19325,0,0,0,17.19321,17.19328V164.64483Z" style="fill:#173045"/><path d="M612.72062,164.64479a17.19325,17.19325,0,0,0,17.19321,17.19328V164.6448Z" style="fill:#173045"/><path d="M647.107,147.45156a17.19319,17.19319,0,0,0-17.19321,17.19325h17.19328Z" style="fill:#173045"/><path d="M612.521,147.45154a17.19319,17.19319,0,0,0-17.19321,17.19325h17.19328Z" style="fill:#173045"/><path d="M629.71422,147.45147a17.19339,17.19339,0,0,0-17.1932-17.19364l0,17.19371Z" style="fill:#173045"/><path d="M486.93063,73.46513a17.19342,17.19342,0,0,0-17.19343-17.19319l.00015,17.19318Z" style="fill:#173045"/><path d="M487.13037,90.65829a17.193,17.193,0,0,0,17.19312-17.19317H487.13015Z" style="fill:#173045"/><path d="M469.93713,90.65837a17.19356,17.19356,0,0,0,17.19342,17.19355l-.00018-17.19362Z" style="fill:#173045"/><line x1="540.68707" y1="31.42049" x2="598.19282" y2="88.92624" style="fill:none;stroke:#2a3d58;stroke-miterlimit:10;stroke-width:1.25px"/><line x1="540.68707" y1="46.79429" x2="582.81866" y2="88.92624" style="fill:none;stroke:#2a3d58;stroke-miterlimit:10;stroke-width:1.25px"/><line x1="540.68707" y1="62.16834" x2="567.44474" y2="88.92624" style="fill:none;stroke:#2a3d58;stroke-miterlimit:10;stroke-width:1.25px"/><line x1="540.68707" y1="77.54239" x2="552.07083" y2="88.92624" style="fill:none;stroke:#2a3d58;stroke-miterlimit:10;stroke-width:1.25px"/><line x1="586.80907" y1="31.42049" x2="598.19282" y2="42.80434" style="fill:none;stroke:#2a3d58;stroke-miterlimit:10;stroke-width:1.25px"/><line x1="571.43515" y1="31.42049" x2="598.19282" y2="58.17839" style="fill:none;stroke:#2a3d58;stroke-miterlimit:10;stroke-width:1.25px"/><line x1="556.06124" y1="31.42049" x2="598.19282" y2="73.55244" style="fill:none;stroke:#2a3d58;stroke-miterlimit:10;stroke-width:1.25px"/><line x1="39.33678" y1="118.69866" x2="96.84253" y2="176.20442" style="fill:none;stroke:#2a3d58;stroke-miterlimit:10;stroke-width:1.25px"/><line x1="39.33678" y1="134.07247" x2="81.46837" y2="176.20442" style="fill:none;stroke:#2a3d58;stroke-miterlimit:10;stroke-width:1.25px"/><line x1="39.33678" y1="149.44652" x2="66.09445" y2="176.20442" style="fill:none;stroke:#2a3d58;stroke-miterlimit:10;stroke-width:1.25px"/><line x1="39.33678" y1="164.82056" x2="50.72053" y2="176.20442" style="fill:none;stroke:#2a3d58;stroke-miterlimit:10;stroke-width:1.25px"/><line x1="85.45877" y1="118.69866" x2="96.84253" y2="130.08252" style="fill:none;stroke:#2a3d58;stroke-miterlimit:10;stroke-width:1.25px"/><line x1="70.08486" y1="118.69866" x2="96.84253" y2="145.45656" style="fill:none;stroke:#2a3d58;stroke-miterlimit:10;stroke-width:1.25px"/><line x1="54.71094" y1="118.69866" x2="96.84253" y2="160.83061" style="fill:none;stroke:#2a3d58;stroke-miterlimit:10;stroke-width:1.25px"/></svg>