<svg xmlns="http://www.w3.org/2000/svg" viewBox="0 0 160 160"><title>model-icon1</title><path fill="none" stroke="#1de9b6" stroke-linecap="round" stroke-linejoin="round" stroke-width="1.25" d="M55.62524,97.49155l0,0a12.425,12.425,0,0,0,17.52034.00037L90.71362,79.924"/><path fill="none" stroke="#1de9b6" stroke-linecap="round" stroke-linejoin="round" stroke-width="1.25" d="M90.71358,62.4034l0,0A12.425,12.425,0,0,0,73.19322,62.403L55.6252,79.971"/><path fill="none" stroke="#1de9b6" stroke-linecap="round" stroke-linejoin="round" stroke-width="1.25" d="M84.27993,68.83663l0,0a12.425,12.425,0,0,0,17.52034.00037l17.568-17.56793a12.42547,12.42547,0,0,0,0-17.52059l0,0a12.425,12.425,0,0,0-17.52034-.00037L84.27989,51.316"/><path fill="none" stroke="#1de9b6" stroke-linecap="round" stroke-linejoin="round" stroke-width="1.25" d="M62.05873,91.05816l0,0a12.42506,12.42506,0,0,0-17.52035-.00037l-17.568,17.56793a12.42546,12.42546,0,0,0,.00005,17.52058l0,0a12.42506,12.42506,0,0,0,17.52035.00037l17.568-17.56793"/><circle cx="119.754" cy="124.917" r="9.228" fill="#434d72"/><circle cx="119.754" cy="124.917" r="22.151" fill="none" stroke="#434d72" stroke-miterlimit="10" stroke-width="1.25" opacity=".3"/><circle cx="119.754" cy="124.917" r="29.089" fill="none" stroke="#434d72" stroke-miterlimit="10" stroke-width="1.25" opacity=".3"/><line x1="119.754" x2="119.754" y1="122.928" y2="70.561" fill="none" stroke="#434d72" stroke-miterlimit="10" stroke-width="1.25"/><line x1="117.765" x2="66.302" y1="124.917" y2="124.917" fill="none" stroke="#434d72" stroke-miterlimit="10" stroke-width="1.25"/><line x1="29.714" x2="29.714" y1="37.072" y2="89.44" fill="none" stroke="#434d72" stroke-miterlimit="10" stroke-width="1.25"/><line x1="31.704" x2="83.167" y1="35.083" y2="35.083" fill="none" stroke="#434d72" stroke-miterlimit="10" stroke-width="1.25"/><circle cx="119.754" cy="124.917" r="2.848" fill="none" stroke="#1de9b6" stroke-linecap="round" stroke-linejoin="round" stroke-width="1.25"/><circle cx="29.714" cy="35.083" r="9.228" fill="#434d72"/><circle cx="29.714" cy="35.083" r="22.151" fill="none" stroke="#434d72" stroke-miterlimit="10" stroke-width="1.25" opacity=".3"/><circle cx="29.714" cy="35.083" r="29.089" fill="none" stroke="#434d72" stroke-miterlimit="10" stroke-width="1.25" opacity=".3"/><circle cx="29.714" cy="35.083" r="2.848" fill="none" stroke="#1de9b6" stroke-linecap="round" stroke-linejoin="round" stroke-width="1.25"/></svg>