<svg xmlns="http://www.w3.org/2000/svg" viewBox="0 0 160 160"><title>model-icon2</title><path d="M8.14676,55.38016A45.7019,45.7019,0,1,1,53.84842,101.0823" style="fill:none;stroke:#434d72;stroke-miterlimit:10;stroke-width:1.25px;opacity:0.30000000000000004"/><path d="M18.14655,54.88455A36.19783,36.19783,0,1,1,54.34438,91.08238" style="fill:none;stroke:#434d72;stroke-miterlimit:10;stroke-width:1.25px"/><circle cx="53.84843" cy="55.38048" r="27.62851" style="fill:#434d72"/><line x1="9.3608" y1="84.01778" x2="18.46789" y2="84.01778" style="fill:none;stroke:#434d72;stroke-miterlimit:10;stroke-width:1.25px"/><line x1="9.3608" y1="93.10767" x2="24.05188" y2="93.10767" style="fill:none;stroke:#434d72;stroke-miterlimit:10;stroke-width:1.25px"/><line x1="27.28024" y1="93.10767" x2="34.26976" y2="93.10767" style="fill:none;stroke:#434d72;stroke-miterlimit:10;stroke-width:1.25px"/><line x1="37.49812" y1="93.10767" x2="44.48764" y2="93.10767" style="fill:none;stroke:#434d72;stroke-miterlimit:10;stroke-width:1.25px"/><line x1="9.3608" y1="74.92789" x2="25.38541" y2="74.92789" style="fill:none;stroke:#434d72;stroke-miterlimit:10;stroke-width:1.25px"/><line x1="35.40507" y1="74.92789" x2="44.48764" y2="74.92789" style="fill:none;stroke:#434d72;stroke-miterlimit:10;stroke-width:1.25px"/><line x1="9.3608" y1="102.19756" x2="37.49812" y2="102.19756" style="fill:none;stroke:#434d72;stroke-miterlimit:10;stroke-width:1.25px"/><line x1="9.3608" y1="120.37734" x2="18.46789" y2="120.37734" style="fill:none;stroke:#434d72;stroke-miterlimit:10;stroke-width:1.25px"/><line x1="9.3608" y1="129.46722" x2="24.05188" y2="129.46722" style="fill:none;stroke:#434d72;stroke-miterlimit:10;stroke-width:1.25px"/><line x1="27.28024" y1="129.46722" x2="34.26976" y2="129.46722" style="fill:none;stroke:#434d72;stroke-miterlimit:10;stroke-width:1.25px"/><line x1="37.49812" y1="129.46722" x2="44.48764" y2="129.46722" style="fill:none;stroke:#434d72;stroke-miterlimit:10;stroke-width:1.25px"/><line x1="9.3608" y1="111.28745" x2="31.48306" y2="111.28745" style="fill:none;stroke:#434d72;stroke-miterlimit:10;stroke-width:1.25px"/><line x1="35.40507" y1="111.28745" x2="44.48764" y2="111.28745" style="fill:none;stroke:#434d72;stroke-miterlimit:10;stroke-width:1.25px"/><line x1="9.3608" y1="67.18181" x2="18.46789" y2="67.18181" style="fill:none;stroke:#434d72;stroke-miterlimit:10;stroke-width:1.25px"/><rect x="43.98653" y="48.23729" width="19.7238" height="18.1494" style="fill:none;stroke:#1de9b6;stroke-miterlimit:10;stroke-width:1.25px"/><path d="M48.311,48.23729V44.66957a5.53744,5.53744,0,1,1,11.07488,0v3.56772" style="fill:none;stroke:#1de9b6;stroke-miterlimit:10;stroke-width:1.25px"/><circle cx="53.85193" cy="57.31199" r="1.93151" style="fill:none;stroke:#1de9b6;stroke-miterlimit:10;stroke-width:1.25px"/><path d="M53.84844,66.86843v77.397a6.05559,6.05559,0,0,1-6.05559,6.05559H6.47272a6.05559,6.05559,0,0,1-6.05559-6.05559V61.43607a6.05559,6.05559,0,0,1,6.05559-6.05559H44.48764" style="fill:none;stroke:#1de9b6;stroke-miterlimit:10;stroke-width:1.25px"/><line y1="140.12767" x2="53.43131" y2="140.12767" style="fill:none;stroke:#1de9b6;stroke-miterlimit:10;stroke-width:1.25px"/><circle cx="27.13279" cy="145.16323" r="1.74738" style="fill:#1de9b6"/></svg>