<?xml version="1.0" encoding="utf-8"?>
<!-- Generator: Adobe Illustrator 21.0.2, SVG Export Plug-In . SVG Version: 6.00 Build 0)  -->
<svg version="1.1" id="Layer_1" xmlns="http://www.w3.org/2000/svg" xmlns:xlink="http://www.w3.org/1999/xlink" x="0px" y="0px"
	 viewBox="0 0 203.3 215.4" style="enable-background:new 0 0 203.3 215.4;" xml:space="preserve">
<style type="text/css">
	.st0{fill:#173045;}
	.st1{fill:#434D72;}
	.st2{fill:none;stroke:#1DE9B6;stroke-width:1.25;stroke-miterlimit:10;}
	.st3{fill:none;stroke:#1DE9B6;stroke-width:1.25;stroke-miterlimit:10;stroke-dasharray:4.8969,4.8969;}
	.st4{fill:none;stroke:#1DE9B6;stroke-width:1.25;stroke-miterlimit:10;stroke-dasharray:5.5361,5.5361;}
	.st5{fill:none;stroke:#1DE9B6;stroke-width:1.25;stroke-miterlimit:10;stroke-dasharray:5.1578,5.1578;}
</style>
<title>pillars-illus2</title>
<rect y="83.1" class="st0" width="11.2" height="87.6"/>
<rect x="11.2" y="83.1" class="st1" width="146.2" height="87.6"/>
<path class="st0" d="M20.4,93.6h109.6c1.3,0,2.3,1,2.3,2.3v0c0,1.3-1,2.3-2.3,2.3H20.4c-1.3,0-2.3-1-2.3-2.3v0
	C18.1,94.6,19.2,93.6,20.4,93.6z"/>
<circle class="st0" cx="138.6" cy="95.9" r="1.6"/>
<circle class="st0" cx="144" cy="95.9" r="1.6"/>
<circle class="st0" cx="149.5" cy="95.9" r="1.6"/>
<rect x="123.5" y="137.4" class="st2" width="67.6" height="65.6"/>
<path class="st2" d="M137.7,151.6c0,0-3.1,29.1,19.6,40.8c22.7-11.7,19.6-40.8,19.6-40.8l-19.6-3L137.7,151.6z"/>
<path class="st2" d="M157.3,186.5c-12.6-8.1-14.5-23.3-14.6-30.5l14.6-2.2l14.6,2.2c-0.1,3.6-0.5,7.2-1.4,10.7
	C168.4,175.6,163.9,182.3,157.3,186.5z"/>
<line class="st2" x1="157.3" y1="148.6" x2="157.3" y2="154"/>
<line class="st2" x1="137.7" y1="151.6" x2="142.7" y2="156"/>
<line class="st2" x1="176.9" y1="151.6" x2="171.9" y2="156"/>
<line class="st2" x1="157.3" y1="186.5" x2="157.3" y2="192.4"/>
<line class="st2" x1="80" y1="55.4" x2="80" y2="57.9"/>
<line class="st3" x1="80" y1="62.8" x2="80" y2="70.1"/>
<line class="st2" x1="80" y1="72.6" x2="80" y2="75.1"/>
<line class="st2" x1="28.5" y1="42.4" x2="28.5" y2="44.9"/>
<line class="st4" x1="28.5" y1="50.5" x2="28.5" y2="69.8"/>
<line class="st2" x1="28.5" y1="72.6" x2="28.5" y2="75.1"/>
<g>
	<line class="st2" x1="131.5" y1="23.7" x2="131.5" y2="26.2"/>
	<line class="st5" x1="131.5" y1="31.3" x2="131.5" y2="70"/>
	<line class="st2" x1="131.5" y1="72.6" x2="131.5" y2="75.1"/>
</g>
</svg>
