<svg xmlns="http://www.w3.org/2000/svg" viewBox="0 0 75.374 120.829"><title>pillars-text4</title><rect width="10.861" height="79.59" x=".49" y="41.239" fill="#fff"/><rect width="32.057" height="10.861" x=".49" y="41.239" fill="#fff"/><rect width="32.057" height="10.862" x=".49" y="75.603" fill="#fff"/><rect width="32.057" height="10.861" x=".49" y="109.968" fill="#fff"/><path fill="#0f2631" d="M64.512,41.2389h0Z"/><rect width="10.862" height="79.59" x="43.315" y="41.239" fill="#fff"/><rect width="32.059" height="10.861" x="43.315" y="41.239" fill="#fff"/><path fill="#fff" d="M43.3152,86.4648v0Z"/><rect width="32.059" height="10.861" x="43.315" y="109.968" fill="#fff"/><path fill="#fff" d="M64.512,120.8286h0Z"/><polygon fill="#1de9b6" points="16.519 14.334 24.778 9.566 16.519 4.769 16.519 14.334"/><polygon fill="#43af92" points="16.519 14.334 8.259 9.566 16.519 4.769 16.519 14.334"/><polygon fill="#43af92" points="24.777 0 16.519 4.769 24.777 9.566 24.777 0"/><polygon fill="#1de9b6" points="24.777 0 24.777 9.566 33.036 4.769 24.777 0"/><polygon fill="#43af92" points="8.258 0 0 4.769 8.258 9.566 8.258 0"/><polygon fill="#1de9b6" points="8.258 0 8.258 9.566 16.518 4.769 8.258 0"/><polygon fill="#1de9b6" points="16.519 27.486 24.778 22.718 16.519 17.921 16.519 27.486"/><polygon fill="#43af92" points="16.519 27.486 8.259 22.718 16.519 17.921 16.519 27.486"/><polygon fill="#43af92" points="24.777 13.153 16.518 17.922 24.777 22.718 24.777 13.153"/><polygon fill="#1de9b6" points="24.777 13.153 33.036 17.922 24.777 22.718 24.777 13.153"/><polygon fill="#43af92" points="0 17.921 8.258 22.718 8.258 13.153 0 17.921"/><polygon fill="#1de9b6" points="8.259 13.153 16.519 17.922 8.259 22.718 8.259 13.153"/></svg>