<svg xmlns="http://www.w3.org/2000/svg" viewBox="0 0 75.374 120.8286"><title>pillar-text2</title><rect x="0.49" y="41.2386" width="10.861" height="79.59" style="fill:#fff"/><rect x="0.49" y="41.2386" width="32.057" height="10.861" style="fill:#fff"/><rect x="0.49" y="75.6026" width="32.057" height="10.862" style="fill:#fff"/><rect x="0.49" y="109.9676" width="32.057" height="10.861" style="fill:#fff"/><rect x="43.315" y="41.2386" width="10.863" height="79.59" style="fill:#fff"/><rect x="43.315" y="41.2386" width="32.05899" height="10.861" style="fill:#fff"/><rect x="64.512" y="86.4646" width="10.862" height="34.364" style="fill:#fff"/><rect x="43.316" y="75.6026" width="21.196" height="10.862" style="fill:#fff"/><polygon points="64.512 41.239 64.512 86.465 75.374 75.603 75.374 41.239 64.512 41.239" style="fill:#fff"/><polygon points="16.519 14.334 24.778 9.566 16.519 4.769 16.519 14.334" style="fill:#1de9b6"/><polygon points="16.519 14.334 8.259 9.566 16.519 4.769 16.519 14.334" style="fill:#43af92"/><polygon points="24.777 0 16.519 4.769 24.777 9.566 24.777 0" style="fill:#43af92"/><polygon points="24.777 0 24.777 9.566 33.036 4.769 24.777 0" style="fill:#1de9b6"/><polygon points="8.259 0 0 4.769 8.259 9.566 8.259 0" style="fill:#43af92"/><polygon points="8.259 0 8.259 9.566 16.518 4.769 8.259 0" style="fill:#1de9b6"/><polygon points="16.519 27.486 24.778 22.718 16.519 17.921 16.519 27.486" style="fill:#1de9b6"/><polygon points="16.519 27.486 8.259 22.718 16.519 17.921 16.519 27.486" style="fill:#43af92"/><polygon points="24.777 13.153 16.518 17.922 24.777 22.718 24.777 13.153" style="fill:#43af92"/><polygon points="24.777 13.153 33.036 17.922 24.777 22.718 24.777 13.153" style="fill:#1de9b6"/><polygon points="0 17.921 8.259 22.718 8.259 13.153 0 17.921" style="fill:#43af92"/><polygon points="8.259 13.153 16.519 17.922 8.259 22.718 8.259 13.153" style="fill:#1de9b6"/></svg>