<svg xmlns="http://www.w3.org/2000/svg" viewBox="0 0 227.07 156.516"><title>pillars-illus1</title><polygon fill="#c3cbd8" points="172.119 106.924 217.446 106.946 217.451 97.322 172.877 97.3 172.119 106.924"/><rect width="44.575" height="49.565" x="182.48" y="106.94" fill="#434d72"/><rect width="19.248" height="49.565" x="163.232" y="106.924" fill="#173045"/><polygon fill="#173045" points="182.496 106.929 172.877 97.3 163.248 106.919 182.496 106.929"/><polyline fill="#c3cbd8" points="227.07 106.951 217.451 97.322 207.822 106.942"/><rect width="3.154" height="37.108" x="170.028" y="110.315" fill="#434d72"/><polygon fill="#434d72" points="184.12 103.515 180.967 100.361 216 100.386 219.154 103.54 184.12 103.515"/><polyline fill="none" stroke="#1de9b6" stroke-miterlimit="10" stroke-width="1.25" points="199.919 103.526 199.919 31.569 149.452 31.569"/><polygon fill="#c3cbd8" points="94.514 9.624 139.842 9.647 139.846 .022 95.272 0 94.514 9.624"/><rect width="44.575" height="49.565" x="104.875" y="9.64" fill="#434d72"/><rect width="19.248" height="49.565" x="85.627" y="9.624" fill="#173045"/><polygon fill="#173045" points="104.891 9.629 95.272 0 85.643 9.62 104.891 9.629"/><polyline fill="#c3cbd8" points="149.466 9.651 139.846 .022 130.217 9.642"/><rect width="3.154" height="37.108" x="92.423" y="13.015" fill="#434d72"/><polygon fill="#c3cbd8" points="8.903 106.924 54.23 106.946 54.235 97.322 9.66 97.3 8.903 106.924"/><rect width="44.575" height="49.565" x="19.264" y="106.94" fill="#434d72"/><rect width="19.248" height="49.565" x=".016" y="106.924" fill="#173045"/><polygon fill="#173045" points="19.28 106.929 9.66 97.3 .031 106.919 19.28 106.929"/><polyline fill="#c3cbd8" points="63.854 106.951 54.235 97.322 44.606 106.942"/><polygon fill="#434d72" points="21.199 103.515 18.046 100.361 53.079 100.386 56.233 103.54 21.199 103.515"/><polyline fill="none" stroke="#1de9b6" stroke-miterlimit="10" stroke-width="1.25" points="36.737 103.526 36.737 31.569 95.577 31.569"/><line x1="173.182" x2="63.84" y1="128.869" y2="128.869" fill="none" stroke="#1de9b6" stroke-miterlimit="10" stroke-width="1.25"/></svg>