<svg xmlns="http://www.w3.org/2000/svg" viewBox="0 0 207.076 129.172"><title>pillars-illus3</title><rect width="158.996" height="96.208" x="13.56" y="19.082" fill="#434d72"/><rect width="13.805" height="96.208" x=".047" y="19.166" fill="#173045"/><g opacity=".76"><path fill="none" stroke="#1de9b6" stroke-miterlimit="10" stroke-width="1.25" d="M44.295,66.24657l-.00246-2.511L44.29,61.2246l-.00246-2.511a13.99352,13.99352,0,0,1,2.40589-7.862"/><path fill="none" stroke="#1de9b6" stroke-miterlimit="10" stroke-width="1.25" d="M45.4238,84.26844a13.95339,13.95339,0,0,1-1.11656-5.46695l-.00246-2.511-.00246-2.511-.00246-2.511"/><path fill="none" stroke="#1de9b6" stroke-miterlimit="10" stroke-width="1.25" d="M63.87067,91.75382a13.95333,13.95333,0,0,1-5.46695,1.11656h0a13.99358,13.99358,0,0,1-7.862-2.40589,14.24938,14.24938,0,0,1-2.088-1.72116"/><path fill="none" stroke="#1de9b6" stroke-miterlimit="10" stroke-width="1.25" d="M72.46769,73.752l.00246,2.511.00246,2.511a13.99359,13.99359,0,0,1-2.40589,7.862,14.24915,14.24915,0,0,1-1.72116,2.088"/><polyline fill="none" stroke="#1de9b6" stroke-miterlimit="10" stroke-width="1.25" points="72.458 63.708 72.46 66.219 72.463 68.73"/><path fill="none" stroke="#1de9b6" stroke-miterlimit="10" stroke-width="1.25" d="M68.30643,48.74422a14.24893,14.24893,0,0,1,1.72524,2.08458,14.10075,14.10075,0,0,1,1.30471,2.3903,13.95333,13.95333,0,0,1,1.11656,5.46695"/><path fill="none" stroke="#1de9b6" stroke-miterlimit="10" stroke-width="1.25" d="M50.49921,47.03844a14.10075,14.10075,0,0,1,2.3903-1.30471,13.95332,13.95332,0,0,1,5.46695-1.11656h0A13.95338,13.95338,0,0,1,63.82562,45.723"/><path fill="none" stroke="#1de9b6" stroke-miterlimit="10" stroke-width="1.25" d="M52.03618,85.154a8.97067,8.97067,0,0,1-2.64489-6.35751l-.00246-2.511-.00246-2.511-.00246-2.511-.00246-2.511"/><path fill="none" stroke="#1de9b6" stroke-miterlimit="10" stroke-width="1.25" d="M64.75624,85.14157a8.98063,8.98063,0,0,1-9.85749,1.94"/><path fill="none" stroke="#1de9b6" stroke-miterlimit="10" stroke-width="1.25" d="M67.37393,63.71306l.00246,2.511.00246,2.511.00246,2.511.00246,2.511.00246,2.511.00246,2.511a8.94946,8.94946,0,0,1-.70486,3.50007"/><path fill="none" stroke="#1de9b6" stroke-miterlimit="10" stroke-width="1.25" d="M56.55039,49.88608a8.99523,8.99523,0,0,1,10.81862,8.805"/><path fill="none" stroke="#1de9b6" stroke-miterlimit="10" stroke-width="1.25" d="M49.37658,63.73068l-.00246-2.511-.00246-2.511A9.02106,9.02106,0,0,1,53.33528,51.245"/><polyline fill="none" stroke="#1de9b6" stroke-miterlimit="10" stroke-width="1.25" points="54.47 73.77 54.468 71.259 54.465 68.748 54.463 66.237"/><path fill="none" stroke="#1de9b6" stroke-miterlimit="10" stroke-width="1.25" d="M62.2973,71.25094l.00246,2.511.00246,2.511.00246,2.511a3.91468,3.91468,0,1,1-7.82934.01791V78.7916"/><path fill="none" stroke="#1de9b6" stroke-miterlimit="10" stroke-width="1.25" d="M62.20457,57.90825a3.91716,3.91716,0,0,1,.08044.78785l.00246,2.511.00246,2.511.00246,2.511"/><path fill="none" stroke="#1de9b6" stroke-miterlimit="10" stroke-width="1.25" d="M54.45812,61.21473l-.00246-2.511a3.91071,3.91071,0,0,1,6.09869-3.25122"/></g><path fill="none" stroke="#1de9b6" stroke-miterlimit="10" stroke-width="1.25" d="M63.41633,24.63419a23.98556,23.98556,0,0,1,47.9711-.04705"/><rect width="47.164" height="13.805" x="13.905" y="115.344" fill="#173045"/><rect width="145.995" height="13.805" x="61.075" y="115.25" fill="#c3cbd8"/><circle cx="75.333" cy="122.631" r="1.614" fill="#173045"/><circle cx="80.829" cy="122.626" r="1.614" fill="#173045"/><circle cx="86.325" cy="122.621" r="1.614" fill="#173045"/><rect style="isolation:isolate" width="58.252" height="68.69" x="29.193" y="34.369" fill="#173045" opacity=".33"/><rect width="58.252" height="68.69" x="29.254" y="34.369" fill="none" stroke="#1de9b6" stroke-miterlimit="10" stroke-width="1.25"/><rect style="isolation:isolate" width="61.466" height="19.072" x="98.002" y="33.796" fill="#173045" opacity=".33"/><rect style="isolation:isolate" width="61.466" height="41.187" x="98.002" y="62.283" fill="#173045" opacity=".33"/><circle cx="128.735" cy="75.885" r="6.73" fill="#173045"/><polygon fill="#173045" points="135.99 96.309 121.48 96.309 125.755 77.636 131.714 77.636 135.99 96.309"/><line x1="127.882" x2="158.615" y1="122.247" y2="122.247" fill="none" stroke="#173045" stroke-miterlimit="10" stroke-width="1.25"/><rect width="61.466" height="19.072" x="178.609" y="-.588" fill="none"/></svg>