<svg xmlns="http://www.w3.org/2000/svg" viewBox="0 0 117.766 120.8286"><title>pillars-text3</title><rect x="0.49" y="41.2386" width="10.861" height="45.226" style="fill:#fff"/><rect x="21.686" y="75.6026" width="10.862" height="45.226" style="fill:#fff"/><rect x="0.49" y="41.2386" width="32.058" height="10.861" style="fill:#fff"/><rect x="0.49" y="75.6026" width="32.058" height="10.862" style="fill:#fff"/><rect x="0.49" y="109.9676" width="32.058" height="10.861" style="fill:#fff"/><rect x="43.316" y="41.2386" width="10.862" height="79.59" style="fill:#fff"/><rect x="64.512" y="59.5826" width="10.861" height="61.246" style="fill:#fff"/><rect x="43.316" y="41.2386" width="21.196" height="10.862" style="fill:#fff"/><path d="M43.3161,86.4648v0Z" style="fill:#fff"/><rect x="43.316" y="109.9676" width="32.058" height="10.861" style="fill:#fff"/><path d="M64.512,120.8286h0Z" style="fill:#fff"/><rect x="85.708" y="41.2386" width="10.862" height="79.59" style="fill:#fff"/><rect x="106.904" y="86.4646" width="10.862" height="34.364" style="fill:#fff"/><rect x="85.709" y="75.6026" width="21.195" height="10.862" style="fill:#fff"/><polygon points="106.904 41.239 106.904 86.465 117.766 75.603 117.766 41.239 106.904 41.239" style="fill:#fff"/><polygon points="64.512 86.465 75.373 86.465 75.373 52.101 64.512 41.239 64.512 86.465" style="fill:#fff"/><polygon points="16.518 14.334 24.778 9.566 16.518 4.769 16.518 14.334" style="fill:#1de9b6"/><polygon points="16.518 14.334 8.259 9.566 16.518 4.769 16.518 14.334" style="fill:#43af92"/><polygon points="24.778 0 16.518 4.769 24.778 9.566 24.778 0" style="fill:#43af92"/><polygon points="24.778 0 24.778 9.566 33.036 4.769 24.778 0" style="fill:#1de9b6"/><polygon points="8.259 0 0 4.769 8.259 9.566 8.259 0" style="fill:#43af92"/><polygon points="8.259 0 8.259 9.566 16.517 4.769 8.259 0" style="fill:#1de9b6"/><polygon points="16.518 27.486 24.778 22.718 16.518 17.921 16.518 27.486" style="fill:#1de9b6"/><polygon points="16.518 27.486 8.259 22.718 16.518 17.921 16.518 27.486" style="fill:#43af92"/><polygon points="24.778 13.153 16.518 17.922 24.778 22.718 24.778 13.153" style="fill:#43af92"/><polygon points="24.778 13.153 33.037 17.922 24.778 22.718 24.778 13.153" style="fill:#1de9b6"/><polygon points="0 17.921 8.259 22.718 8.259 13.153 0 17.921" style="fill:#43af92"/><polygon points="8.259 13.153 16.518 17.922 8.259 22.718 8.259 13.153" style="fill:#1de9b6"/></svg>