<svg xmlns="http://www.w3.org/2000/svg" viewBox="0 0 227.07045 156.51602"><title>pillars-illus1</title><polygon points="172.119 106.924 217.446 106.946 217.451 97.322 172.877 97.3 172.119 106.924" style="fill:#c3cbd8"/><rect x="182.4799" y="106.94002" width="44.5748" height="49.56492" style="fill:#434d72"/><rect x="163.23171" y="106.92415" width="19.24822" height="49.56492" style="fill:#173045"/><polygon points="182.496 106.929 172.877 97.3 163.248 106.919 182.496 106.929" style="fill:#173045"/><polyline points="227.07 106.951 217.451 97.322 207.822 106.942" style="fill:#c3cbd8"/><rect x="170.02779" y="110.3147" width="3.15427" height="37.10812" style="fill:#434d72"/><polygon points="184.12 103.515 180.967 100.361 216 100.386 219.154 103.54 184.12 103.515" style="fill:#434d72"/><polyline points="199.919 103.526 199.919 31.569 149.452 31.569" style="fill:none;stroke:#1de9b6;stroke-miterlimit:10;stroke-width:1.25px"/><polygon points="94.514 9.624 139.842 9.647 139.846 0.022 95.272 0 94.514 9.624" style="fill:#c3cbd8"/><rect x="104.87511" y="9.64014" width="44.5748" height="49.56492" style="fill:#434d72"/><rect x="85.62689" y="9.62426" width="19.24822" height="49.56492" style="fill:#173045"/><polygon points="104.891 9.629 95.272 0 85.643 9.62 104.891 9.629" style="fill:#173045"/><polyline points="149.466 9.651 139.846 0.022 130.217 9.642" style="fill:#c3cbd8"/><rect x="92.42295" y="13.01481" width="3.15426" height="37.10812" style="fill:#434d72"/><polygon points="8.903 106.924 54.23 106.946 54.235 97.322 9.66 97.3 8.903 106.924" style="fill:#c3cbd8"/><rect x="19.26388" y="106.94" width="44.5748" height="49.56492" style="fill:#434d72"/><rect x="0.01567" y="106.92413" width="19.24821" height="49.56492" style="fill:#173045"/><polygon points="19.28 106.929 9.66 97.3 0.031 106.919 19.28 106.929" style="fill:#173045"/><polyline points="63.854 106.951 54.235 97.322 44.606 106.942" style="fill:#c3cbd8"/><polygon points="21.199 103.515 18.046 100.361 53.079 100.386 56.233 103.54 21.199 103.515" style="fill:#434d72"/><polyline points="36.737 103.526 36.737 31.569 95.577 31.569" style="fill:none;stroke:#1de9b6;stroke-miterlimit:10;stroke-width:1.25px"/><line x1="173.18205" y1="128.86877" x2="63.83951" y2="128.86877" style="fill:none;stroke:#1de9b6;stroke-miterlimit:10;stroke-width:1.25px"/></svg>