<svg xmlns="http://www.w3.org/2000/svg" viewBox="0 0 207.07642 129.17191"><title>pillars-illus3</title><rect x="13.5597" y="19.08172" width="158.99569" height="96.20798" style="fill:#434d72"/><rect x="0.04707" y="19.16599" width="13.80462" height="96.20798" style="fill:#173045"/><g style="opacity:0.7599999904632568"><path d="M44.295,66.24657l-.00246-2.511L44.29,61.2246l-.00246-2.511a13.99352,13.99352,0,0,1,2.40589-7.862" style="fill:none;stroke:#1de9b6;stroke-miterlimit:10;stroke-width:1.25px"/><path d="M45.4238,84.26844a13.95339,13.95339,0,0,1-1.11656-5.46695l-.00246-2.511-.00246-2.511-.00246-2.511" style="fill:none;stroke:#1de9b6;stroke-miterlimit:10;stroke-width:1.25px"/><path d="M63.87067,91.75382a13.95333,13.95333,0,0,1-5.46695,1.11656h0a13.99358,13.99358,0,0,1-7.862-2.40589,14.24938,14.24938,0,0,1-2.088-1.72116" style="fill:none;stroke:#1de9b6;stroke-miterlimit:10;stroke-width:1.25px"/><path d="M72.46769,73.752l.00246,2.511.00246,2.511a13.99359,13.99359,0,0,1-2.40589,7.862,14.24915,14.24915,0,0,1-1.72116,2.088" style="fill:none;stroke:#1de9b6;stroke-miterlimit:10;stroke-width:1.25px"/><polyline points="72.458 63.708 72.46 66.219 72.463 68.73" style="fill:none;stroke:#1de9b6;stroke-miterlimit:10;stroke-width:1.25px"/><path d="M68.30643,48.74422a14.24893,14.24893,0,0,1,1.72524,2.08458,14.10075,14.10075,0,0,1,1.30471,2.3903,13.95333,13.95333,0,0,1,1.11656,5.46695" style="fill:none;stroke:#1de9b6;stroke-miterlimit:10;stroke-width:1.25px"/><path d="M50.49921,47.03844a14.10075,14.10075,0,0,1,2.3903-1.30471,13.95332,13.95332,0,0,1,5.46695-1.11656h0A13.95338,13.95338,0,0,1,63.82562,45.723" style="fill:none;stroke:#1de9b6;stroke-miterlimit:10;stroke-width:1.25px"/><path d="M52.03618,85.154a8.97067,8.97067,0,0,1-2.64489-6.35751l-.00246-2.511-.00246-2.511-.00246-2.511-.00246-2.511" style="fill:none;stroke:#1de9b6;stroke-miterlimit:10;stroke-width:1.25px"/><path d="M64.75624,85.14157a8.98063,8.98063,0,0,1-9.85749,1.94" style="fill:none;stroke:#1de9b6;stroke-miterlimit:10;stroke-width:1.25px"/><path d="M67.37393,63.71306l.00246,2.511.00246,2.511.00246,2.511.00246,2.511.00246,2.511.00246,2.511a8.94946,8.94946,0,0,1-.70486,3.50007" style="fill:none;stroke:#1de9b6;stroke-miterlimit:10;stroke-width:1.25px"/><path d="M56.55039,49.88608a8.99523,8.99523,0,0,1,10.81862,8.805" style="fill:none;stroke:#1de9b6;stroke-miterlimit:10;stroke-width:1.25px"/><path d="M49.37658,63.73068l-.00246-2.511-.00246-2.511A9.02106,9.02106,0,0,1,53.33528,51.245" style="fill:none;stroke:#1de9b6;stroke-miterlimit:10;stroke-width:1.25px"/><polyline points="54.47 73.77 54.468 71.259 54.465 68.748 54.463 66.237" style="fill:none;stroke:#1de9b6;stroke-miterlimit:10;stroke-width:1.25px"/><path d="M62.2973,71.25094l.00246,2.511.00246,2.511.00246,2.511a3.91468,3.91468,0,1,1-7.82934.01791V78.7916" style="fill:none;stroke:#1de9b6;stroke-miterlimit:10;stroke-width:1.25px"/><path d="M62.20457,57.90825a3.91716,3.91716,0,0,1,.08044.78785l.00246,2.511.00246,2.511.00246,2.511" style="fill:none;stroke:#1de9b6;stroke-miterlimit:10;stroke-width:1.25px"/><path d="M54.45812,61.21473l-.00246-2.511a3.91071,3.91071,0,0,1,6.09869-3.25122" style="fill:none;stroke:#1de9b6;stroke-miterlimit:10;stroke-width:1.25px"/></g><path d="M63.41633,24.63419a23.98556,23.98556,0,0,1,47.9711-.04705" style="fill:none;stroke:#1de9b6;stroke-miterlimit:10;stroke-width:1.25px"/><rect x="13.90521" y="115.34417" width="47.16416" height="13.80462" style="fill:#173045"/><rect x="61.07468" y="115.25003" width="145.995" height="13.80462" style="fill:#c3cbd8"/><circle cx="75.33311" cy="122.63129" r="1.61401" style="fill:#173045"/><circle cx="80.82897" cy="122.62592" r="1.61401" style="fill:#173045"/><circle cx="86.32484" cy="122.62054" r="1.61401" style="fill:#173045"/><rect x="29.19305" y="34.36942" width="58.25158" height="68.68974" style="fill:#173045;opacity:0.33000001311302185;isolation:isolate"/><rect x="29.25431" y="34.36942" width="58.25157" height="68.6896" style="fill:none;stroke:#1de9b6;stroke-miterlimit:10;stroke-width:1.25px"/><rect x="98.00169" y="33.79628" width="61.46625" height="19.07194" style="fill:#173045;opacity:0.33000001311302185;isolation:isolate"/><rect x="98.00169" y="62.28291" width="61.46625" height="41.18687" style="fill:#173045;opacity:0.33000001311302185;isolation:isolate"/><circle cx="128.73482" cy="75.88542" r="6.73029" style="fill:#173045"/><polygon points="135.99 96.309 121.48 96.309 125.755 77.636 131.714 77.636 135.99 96.309" style="fill:#173045"/><line x1="127.88227" y1="122.24651" x2="158.61539" y2="122.24651" style="fill:none;stroke:#173045;stroke-miterlimit:10;stroke-width:1.25px"/><rect x="178.60948" y="-0.58829" width="61.46625" height="19.07194" style="fill:none"/></svg>