<svg xmlns="http://www.w3.org/2000/svg" width="126" height="168" fill="none" viewBox="0 0 126 168"><path fill="#172C3B" fill-opacity=".03" d="M41.7344 41.6934C36.2536 41.6934 30.8265 40.615 25.763 38.5197C20.6994 36.4245 16.0985 33.3533 12.223 29.4817C8.34755 25.6101 5.27336 21.0139 3.17599 15.9554C1.07861 10.8969 -0.000869751 5.47525 -0.000827789 -1.90735e-05H41.7344V41.6934Z"/><path fill="#172C3B" fill-opacity=".03" d="M41.7344 125.08C36.2536 125.08 30.8265 124.002 25.7629 121.907C20.6993 119.811 16.0984 116.74 12.2229 112.869C8.34737 108.997 5.27319 104.401 3.17583 99.3422C1.07849 94.2837 -0.000946045 88.862 -0.000827789 83.3867H41.7344V125.08Z"/><path fill="#172C3B" fill-opacity=".03" d="M83.4688 41.6933C83.4687 52.7511 79.0716 63.3559 71.2447 71.1749C63.4179 78.9939 52.8024 83.3866 41.7335 83.3867V41.6933H83.4688Z"/><path fill="#172C3B" fill-opacity=".03" d="M83.4688 125.564C83.4687 136.622 79.0716 147.227 71.2447 155.046C63.4179 162.865 52.8024 167.258 41.7335 167.258V125.564H83.4688Z"/><path fill="#172C3B" fill-opacity=".03" d="M83.469 83.8701C88.9498 83.87 94.3769 84.9484 99.4406 87.0437C104.504 89.1389 109.105 92.21 112.981 96.0816C116.856 99.9532 119.931 104.549 122.028 109.608C124.125 114.666 125.205 120.088 125.205 125.563H83.469V83.8701Z"/></svg>