<svg xmlns="http://www.w3.org/2000/svg" width="157" height="43" fill="none" viewBox="0 0 157 43"><path stroke="#1DE9B6" stroke-miterlimit="10" stroke-width="1.25" d="M2.8 38.6703C3.79411 38.6703 4.6 37.8644 4.6 36.8703C4.6 35.8762 3.79411 35.0703 2.8 35.0703C1.80589 35.0703 1 35.8762 1 36.8703C1 37.8644 1.80589 38.6703 2.8 38.6703Z"/><path stroke="#1DE9B6" stroke-miterlimit="10" stroke-width="1.25" d="M20.85 38.6703C21.8442 38.6703 22.65 37.8644 22.65 36.8703C22.65 35.8762 21.8442 35.0703 20.85 35.0703C19.8559 35.0703 19.05 35.8762 19.05 36.8703C19.05 37.8644 19.8559 38.6703 20.85 38.6703Z"/><path stroke="#1DE9B6" stroke-miterlimit="10" stroke-width="1.25" d="M29.88 38.6703C30.8741 38.6703 31.68 37.8644 31.68 36.8703C31.68 35.8762 30.8741 35.0703 29.88 35.0703C28.8858 35.0703 28.08 35.8762 28.08 36.8703C28.08 37.8644 28.8858 38.6703 29.88 38.6703Z"/><path stroke="#1DE9B6" stroke-miterlimit="10" stroke-width="1.25" d="M11.83 38.6703C12.8241 38.6703 13.63 37.8644 13.63 36.8703C13.63 35.8762 12.8241 35.0703 11.83 35.0703C10.8359 35.0703 10.03 35.8762 10.03 36.8703C10.03 37.8644 10.8359 38.6703 11.83 38.6703Z"/><path stroke="#1DE9B6" stroke-miterlimit="10" stroke-width="1.25" d="M127.19 38.6703C128.184 38.6703 128.99 37.8644 128.99 36.8703C128.99 35.8762 128.184 35.0703 127.19 35.0703C126.196 35.0703 125.39 35.8762 125.39 36.8703C125.39 37.8644 126.196 38.6703 127.19 38.6703Z"/><path stroke="#1DE9B6" stroke-miterlimit="10" stroke-width="1.25" d="M145.24 38.6703C146.234 38.6703 147.04 37.8644 147.04 36.8703C147.04 35.8762 146.234 35.0703 145.24 35.0703C144.246 35.0703 143.44 35.8762 143.44 36.8703C143.44 37.8644 144.246 38.6703 145.24 38.6703Z"/><path stroke="#1DE9B6" stroke-miterlimit="10" stroke-width="1.25" d="M154.27 38.6703C155.264 38.6703 156.07 37.8644 156.07 36.8703C156.07 35.8762 155.264 35.0703 154.27 35.0703C153.276 35.0703 152.47 35.8762 152.47 36.8703C152.47 37.8644 153.276 38.6703 154.27 38.6703Z"/><path stroke="#1DE9B6" stroke-miterlimit="10" stroke-width="1.25" d="M136.22 38.6703C137.214 38.6703 138.02 37.8644 138.02 36.8703C138.02 35.8762 137.214 35.0703 136.22 35.0703C135.226 35.0703 134.42 35.8762 134.42 36.8703C134.42 37.8644 135.226 38.6703 136.22 38.6703Z"/><path stroke="#1DE9B6" stroke-miterlimit="10" stroke-width="1.25" d="M1.01001 13.1504H27.13L32.59 17.1304H75.91"/><path stroke="#1DE9B6" stroke-miterlimit="10" stroke-width="1.25" d="M156.07 21.0999H124.69L119.23 17.1299H75.91"/><path stroke="#1DE9B6" stroke-miterlimit="10" stroke-width="1.25" d="M1.01001 1H156.07"/><path stroke="#1DE9B6" stroke-miterlimit="10" stroke-width="1.25" d="M53.55 34.5703V39.6603"/><path stroke="#1DE9B6" stroke-miterlimit="10" stroke-width="1.25" d="M57.71 32.1201V41.6101"/><path stroke="#1DE9B6" stroke-miterlimit="10" stroke-width="1.25" d="M61.88 30.8496V42.8896"/><path stroke="#1DE9B6" stroke-miterlimit="10" stroke-width="1.25" d="M66.04 33.2598V39.6598"/><path stroke="#1DE9B6" stroke-miterlimit="10" stroke-width="1.25" d="M70.21 30.8496V42.8896"/><path stroke="#1DE9B6" stroke-miterlimit="10" stroke-width="1.25" d="M78.54 34.5703V39.6603"/><path stroke="#1DE9B6" stroke-miterlimit="10" stroke-width="1.25" d="M74.37 32.1201V41.6101"/><path stroke="#1DE9B6" stroke-miterlimit="10" stroke-width="1.25" d="M82.7 32.1201V41.6101"/><path stroke="#1DE9B6" stroke-miterlimit="10" stroke-width="1.25" d="M86.87 30.8496V42.8896"/><path stroke="#1DE9B6" stroke-miterlimit="10" stroke-width="1.25" d="M91.03 33.2598V39.6598"/><path stroke="#1DE9B6" stroke-miterlimit="10" stroke-width="1.25" d="M95.2 30.8496V42.8896"/><path stroke="#1DE9B6" stroke-miterlimit="10" stroke-width="1.25" d="M103.53 34.5703V39.6603"/><path stroke="#1DE9B6" stroke-miterlimit="10" stroke-width="1.25" d="M99.36 32.1201V41.6101"/></svg>