<svg xmlns="http://www.w3.org/2000/svg" xmlns:xlink="http://www.w3.org/1999/xlink" viewBox="0 0 53 22.5"><defs><clipPath id="a"><rect width="53" height="22.5" style="fill:none"/></clipPath><clipPath id="b"><rect x="-43.95" y="-1.486" width="154.95" height="20.486" style="fill:none"/></clipPath></defs><title>rm-connector2-green</title><g style="clip-path:url(#a)"><g style="clip-path:url(#b)"><path d="M19.0419,17.0721a1.928,1.928,0,1,1-1.928-1.928,1.92775,1.92775,0,0,1,1.928,1.928" style="fill:#1de9b6"/><path d="M28.8978,17.0721a1.928,1.928,0,1,1-1.928-1.928,1.92775,1.92775,0,0,1,1.928,1.928" style="fill:#1de9b6"/><path d="M9.1857,17.0721a1.9275,1.9275,0,1,1-1.928-1.928,1.92775,1.92775,0,0,1,1.928,1.928" style="fill:#1de9b6"/><polyline points="-43.95 -0.861 -24.508 -0.861 -18.648 3.405 27.842 3.405" style="fill:none;stroke:#1de9b6;stroke-miterlimit:10;stroke-width:1.25px"/><polyline points="111 7.671 80.191 7.671 74.331 3.405 27.842 3.405" style="fill:none;stroke:#1de9b6;stroke-miterlimit:10;stroke-width:1.25px"/></g></g></svg>