<svg xmlns="http://www.w3.org/2000/svg" xmlns:xlink="http://www.w3.org/1999/xlink" viewBox="0 0 53 22.5"><defs><clipPath id="a"><rect width="53" height="22.5" fill="none"/></clipPath><clipPath id="b"><rect width="154.95" height="20.486" x="-43.95" y="-1.486" fill="none"/></clipPath></defs><title>rm-connector2-gray</title><g clip-path="url(#a)"><g clip-path="url(#b)"><path fill="#cfd7e5" d="M19.0419,17.0721a1.928,1.928,0,1,1-1.928-1.928h0a1.92775,1.92775,0,0,1,1.928,1.9275v.0005"/><path fill="#cfd7e5" d="M28.8978,17.0721a1.928,1.928,0,1,1-1.928-1.928h0a1.92775,1.92775,0,0,1,1.928,1.9275v.0005"/><path fill="#cfd7e5" d="M9.1857,17.0721a1.92775,1.92775,0,1,1,0-.0005v.0005"/><polyline fill="none" stroke="#cfd7e5" stroke-miterlimit="10" stroke-width="1.25" points="-43.95 -.861 -24.508 -.861 -18.648 3.405 27.842 3.405"/><polyline fill="none" stroke="#cfd7e5" stroke-miterlimit="10" stroke-width="1.25" points="111 7.671 80.191 7.671 74.331 3.405 27.842 3.405"/></g></g></svg>