<svg xmlns="http://www.w3.org/2000/svg" width="157" height="43" fill="none" viewBox="0 0 157 43"><path stroke="#AFB6C3" stroke-miterlimit="10" stroke-width="1.25" d="M154.27 38.6703C153.276 38.6703 152.47 37.8644 152.47 36.8703C152.47 35.8762 153.276 35.0703 154.27 35.0703C155.264 35.0703 156.07 35.8762 156.07 36.8703C156.07 37.8644 155.264 38.6703 154.27 38.6703Z"/><path stroke="#AFB6C3" stroke-miterlimit="10" stroke-width="1.25" d="M136.221 38.6703C135.226 38.6703 134.421 37.8644 134.421 36.8703C134.421 35.8762 135.226 35.0703 136.221 35.0703C137.215 35.0703 138.021 35.8762 138.021 36.8703C138.021 37.8644 137.215 38.6703 136.221 38.6703Z"/><path stroke="#AFB6C3" stroke-miterlimit="10" stroke-width="1.25" d="M127.19 38.6703C126.196 38.6703 125.39 37.8644 125.39 36.8703C125.39 35.8762 126.196 35.0703 127.19 35.0703C128.184 35.0703 128.99 35.8762 128.99 36.8703C128.99 37.8644 128.184 38.6703 127.19 38.6703Z"/><path stroke="#AFB6C3" stroke-miterlimit="10" stroke-width="1.25" d="M145.241 38.6703C144.246 38.6703 143.441 37.8644 143.441 36.8703C143.441 35.8762 144.246 35.0703 145.241 35.0703C146.235 35.0703 147.041 35.8762 147.041 36.8703C147.041 37.8644 146.235 38.6703 145.241 38.6703Z"/><path stroke="#AFB6C3" stroke-miterlimit="10" stroke-width="1.25" d="M29.8802 38.6703C28.8861 38.6703 28.0802 37.8644 28.0802 36.8703C28.0802 35.8762 28.8861 35.0703 29.8802 35.0703C30.8743 35.0703 31.6802 35.8762 31.6802 36.8703C31.6802 37.8644 30.8743 38.6703 29.8802 38.6703Z"/><path stroke="#AFB6C3" stroke-miterlimit="10" stroke-width="1.25" d="M11.8304 38.6703C10.8363 38.6703 10.0304 37.8644 10.0304 36.8703C10.0304 35.8762 10.8363 35.0703 11.8304 35.0703C12.8245 35.0703 13.6304 35.8762 13.6304 36.8703C13.6304 37.8644 12.8245 38.6703 11.8304 38.6703Z"/><path stroke="#AFB6C3" stroke-miterlimit="10" stroke-width="1.25" d="M2.80009 38.6703C1.80598 38.6703 1.00009 37.8644 1.00009 36.8703C1.00009 35.8762 1.80598 35.0703 2.80009 35.0703C3.79421 35.0703 4.6001 35.8762 4.6001 36.8703C4.6001 37.8644 3.79421 38.6703 2.80009 38.6703Z"/><path stroke="#AFB6C3" stroke-miterlimit="10" stroke-width="1.25" d="M20.8504 38.6703C19.8563 38.6703 19.0504 37.8644 19.0504 36.8703C19.0504 35.8762 19.8563 35.0703 20.8504 35.0703C21.8445 35.0703 22.6504 35.8762 22.6504 36.8703C22.6504 37.8644 21.8445 38.6703 20.8504 38.6703Z"/><path stroke="#AFB6C3" stroke-miterlimit="10" stroke-width="1.25" d="M156.061 13.1504H129.941L124.481 17.1304H81.1605"/><path stroke="#AFB6C3" stroke-miterlimit="10" stroke-width="1.25" d="M1.00015 21.0999H32.3802L37.8402 17.1299H81.1602"/><path stroke="#AFB6C3" stroke-miterlimit="10" stroke-width="1.25" d="M156.061 1H1.00055"/><path stroke="#AFB6C3" stroke-miterlimit="10" stroke-width="1.25" d="M103.521 34.5703V39.6603"/><path stroke="#AFB6C3" stroke-miterlimit="10" stroke-width="1.25" d="M99.3604 32.1201V41.6101"/><path stroke="#AFB6C3" stroke-miterlimit="10" stroke-width="1.25" d="M95.1904 30.8496V42.8896"/><path stroke="#AFB6C3" stroke-miterlimit="10" stroke-width="1.25" d="M91.0303 33.2598V39.6598"/><path stroke="#AFB6C3" stroke-miterlimit="10" stroke-width="1.25" d="M86.8604 30.8496V42.8896"/><path stroke="#AFB6C3" stroke-miterlimit="10" stroke-width="1.25" d="M78.5303 34.5703V39.6603"/><path stroke="#AFB6C3" stroke-miterlimit="10" stroke-width="1.25" d="M82.7002 32.1201V41.6101"/><path stroke="#AFB6C3" stroke-miterlimit="10" stroke-width="1.25" d="M74.3701 32.1201V41.6101"/><path stroke="#AFB6C3" stroke-miterlimit="10" stroke-width="1.25" d="M70.2002 30.8496V42.8896"/><path stroke="#AFB6C3" stroke-miterlimit="10" stroke-width="1.25" d="M66.0405 33.2598V39.6598"/><path stroke="#AFB6C3" stroke-miterlimit="10" stroke-width="1.25" d="M61.8701 30.8496V42.8896"/><path stroke="#AFB6C3" stroke-miterlimit="10" stroke-width="1.25" d="M53.5405 34.5703V39.6603"/><path stroke="#AFB6C3" stroke-miterlimit="10" stroke-width="1.25" d="M57.7104 32.1201V41.6101"/></svg>