<svg xmlns="http://www.w3.org/2000/svg" xmlns:xlink="http://www.w3.org/1999/xlink" viewBox="0 0 30.6736 3.593"><defs><clipPath id="a" transform="translate(0 0)"><rect x="0.0002" y="0.00027" width="30.673" height="3.59273" style="fill:none"/></clipPath><clipPath id="c" transform="translate(0 0)"><rect x="27.08046" y="0.00026" width="3.59274" height="3.59274" style="fill:none"/></clipPath><clipPath id="d" transform="translate(0 0)"><rect x="9.027" y="0.00026" width="3.5927" height="3.59274" style="fill:none"/></clipPath><clipPath id="e" transform="translate(0 0)"><rect x="18.0537" y="0.00026" width="3.59275" height="3.59274" style="fill:none"/></clipPath></defs><title>rm-dots-green</title><g style="clip-path:url(#a)"><g style="clip-path:url(#a)"><g style="opacity:0.25"><g style="clip-path:url(#c)"><path d="M27.0806,1.797A1.7965,1.7965,0,1,0,28.8766,0a1.79588,1.79588,0,0,0-1.796,1.797" transform="translate(0 0)" style="fill:#1de9b6"/></g></g><g style="opacity:0.75"><g style="clip-path:url(#d)"><path d="M9.0269,1.797A1.7965,1.7965,0,1,0,10.8229,0a1.79588,1.79588,0,0,0-1.796,1.797" transform="translate(0 0)" style="fill:#1de9b6"/></g></g><path d="M0,1.797A1.7965,1.7965,0,1,0,1.796,0,1.79652,1.79652,0,0,0,0,1.797" transform="translate(0 0)" style="fill:#1de9b6"/><g style="opacity:0.5"><g style="clip-path:url(#e)"><path d="M18.0537,1.797A1.7965,1.7965,0,1,0,19.8497,0a1.79588,1.79588,0,0,0-1.796,1.797" transform="translate(0 0)" style="fill:#1de9b6"/></g></g></g></g></svg>