<svg xmlns="http://www.w3.org/2000/svg" xmlns:xlink="http://www.w3.org/1999/xlink" viewBox="0 0 30.674 3.593"><defs><clipPath id="a" transform="translate(0 0)"><rect width="30.673" height="3.593" x="0" y="0" fill="none"/></clipPath><clipPath id="c" transform="translate(0 0)"><rect width="3.593" height="3.593" x="27.08" y="0" fill="none"/></clipPath><clipPath id="d" transform="translate(0 0)"><rect width="3.593" height="3.593" x="9.027" y="0" fill="none"/></clipPath><clipPath id="e" transform="translate(0 0)"><rect width="3.593" height="3.593" x="18.054" y="0" fill="none"/></clipPath></defs><title>rm-dots-green</title><g clip-path="url(#a)"><g clip-path="url(#a)"><g opacity=".25"><g clip-path="url(#c)"><path fill="#1de9b6" d="M27.0806,1.797A1.7965,1.7965,0,1,0,28.8766,0a1.79588,1.79588,0,0,0-1.796,1.797" transform="translate(0 0)"/></g></g><g opacity=".75"><g clip-path="url(#d)"><path fill="#1de9b6" d="M9.0269,1.797A1.7965,1.7965,0,1,0,10.8229,0a1.79588,1.79588,0,0,0-1.796,1.797" transform="translate(0 0)"/></g></g><path fill="#1de9b6" d="M0,1.797A1.7965,1.7965,0,1,0,1.796,0,1.79652,1.79652,0,0,0,0,1.797" transform="translate(0 0)"/><g opacity=".5"><g clip-path="url(#e)"><path fill="#1de9b6" d="M18.0537,1.797A1.7965,1.7965,0,1,0,19.8497,0a1.79588,1.79588,0,0,0-1.796,1.797" transform="translate(0 0)"/></g></g></g></g></svg>