<svg xmlns="http://www.w3.org/2000/svg" viewBox="0 0 90.91101 47.67505"><title>rm-year2018-gray</title><g style="opacity:0.5"><rect x="56.69202" width="6.50598" height="47.67499" style="fill:#cfd7e5"/><path d="M90.91083,6.506H90.911V0H71.708V.00019h-.00049v20.584l3.25342,3.25348-3.25342,3.25342v20.584h6.507V47.675H90.911V41.169h-.00018V27.091l-3.25341-3.2534,3.25342-3.25342ZM78.21448,41.169V27.091h6.18933V41.169Zm6.18933-20.584H78.21448V6.506h6.18933Z" style="fill:#cfd7e5"/><polygon points="0 0 0 6.506 12.696 6.506 12.696 20.595 6.507 20.595 0 20.595 0 27.102 0 41.169 0 47.675 6.507 47.675 19.203 47.675 19.203 41.169 6.507 41.169 6.507 27.102 12.696 27.102 19.203 27.102 19.203 20.595 19.203 6.506 19.203 0 12.696 0 0 0" style="fill:#cfd7e5"/><path d="M34.932,0H28.425V47.675H47.628V0Zm6.19,41.169h-6.19V6.506h6.19Z" style="fill:#cfd7e5"/></g></svg>