<svg xmlns="http://www.w3.org/2000/svg" viewBox="0 0 90.91101 47.67505"><title>Vector Smart Object</title><g style="opacity:0.3"><rect x="56.69202" width="6.50598" height="47.67499" style="fill:#1de9b6"/><path d="M90.91083,6.5062H90.911V.00021H71.708V.0004h-.00049v20.584l3.25342,3.25348-3.25342,3.25342v20.584h6.507V47.6752H90.911v-6.506h-.00018v-14.078L87.65741,23.8378l3.25342-3.25342Zm-12.69635,34.663v-14.078h6.18933v14.078Zm6.18933-20.584H78.21448V6.5062h6.18933v14.079Z" transform="translate(0 -0.00021)" style="fill:#1de9b6"/><polygon points="0 0 0 6.506 12.696 6.506 12.696 20.595 6.507 20.595 0 20.595 0 27.102 0 41.169 0 47.675 6.507 47.675 19.203 47.675 19.203 41.169 6.507 41.169 6.507 27.102 12.696 27.102 19.203 27.102 19.203 20.595 19.203 6.506 19.203 0 12.696 0 0 0" style="fill:#1de9b6"/><path d="M34.932.00021H28.425v47.675H47.628V.00021H34.932Zm6.19,41.169h-6.19V6.5062h6.19Z" transform="translate(0 -0.00021)" style="fill:#1de9b6"/></g></svg>