<?xml version="1.0" encoding="utf-8"?>
<!-- Generator: Adobe Illustrator 21.0.2, SVG Export Plug-In . SVG Version: 6.00 Build 0)  -->
<svg version="1.1" id="Layer_1" xmlns="http://www.w3.org/2000/svg" xmlns:xlink="http://www.w3.org/1999/xlink" x="0px" y="0px"
	 viewBox="0 0 230.2 230.2" style="enable-background:new 0 0 230.2 230.2;" xml:space="preserve">
<style type="text/css">
	.st0{opacity:0.25;fill:#1DE9B6;}
	.st1{fill:none;stroke:#1DE9B6;stroke-width:1.25;stroke-miterlimit:10;}
	.st2{fill:#0F2631;}
	.st3{fill:#434D72;}
	.st4{fill:#2A3D58;}
	.st5{fill:#173045;}
	.st6{fill:#1DE9B6;}
	.st7{fill:#43AF92;}
</style>
<title>shield-cyber</title>
<g>
	
		<rect x="33.9" y="34" transform="matrix(0.7071 0.7071 -0.7071 0.7071 115.3691 -47.6795)" class="st0" width="162.7" height="162.7"/>
	<line class="st1" x1="41.1" y1="124.8" x2="52.6" y2="124.8"/>
	<line class="st1" x1="41.1" y1="130.1" x2="52.6" y2="130.1"/>
	<polyline class="st1" points="12.1,114 35.7,114 42.3,118.7 94.4,118.7 	"/>
	<polyline class="st1" points="69,138.8 45.4,138.8 38.8,134 27.6,134 	"/>
	<line class="st1" x1="34.3" y1="90.5" x2="34.3" y2="107.5"/>
	<line class="st1" x1="27.8" y1="99" x2="27.8" y2="107.5"/>
	<polyline class="st1" points="41.1,107.5 41.1,94.1 51.3,80.9 	"/>
	<polygon class="st1" points="15.7,120.3 22.2,120.3 22.2,126.5 	"/>
	<rect x="27.8" y="120.3" class="st1" width="6.5" height="6.2"/>
	<path class="st1" d="M22.2,106.3c-0.9,0-6.5,0-6.5,0"/>
	<line class="st1" x1="37.9" y1="145.8" x2="49.9" y2="145.8"/>
	<line class="st1" x1="190.2" y1="124.8" x2="178.7" y2="124.8"/>
	<line class="st1" x1="190.2" y1="130.1" x2="178.7" y2="130.1"/>
	<polyline class="st1" points="219.2,114 195.6,114 189.1,118.7 136.9,118.7 	"/>
	<polyline class="st1" points="162.4,138.8 185.9,138.8 192.5,134 203.7,134 	"/>
	<line class="st1" x1="197" y1="90.5" x2="197" y2="107.5"/>
	<line class="st1" x1="203.5" y1="99" x2="203.5" y2="107.5"/>
	<polyline class="st1" points="190.2,107.5 190.2,94.1 180.1,80.9 	"/>
	<polygon class="st1" points="215.6,120.3 209.1,120.3 209.1,126.5 	"/>
	
		<rect x="197" y="120.3" transform="matrix(-1 -4.462221e-11 4.462221e-11 -1 400.5301 246.8337)" class="st1" width="6.5" height="6.2"/>
	<path class="st1" d="M209.1,106.3c0.9,0,6.5,0,6.5,0"/>
	<line class="st1" x1="193.4" y1="145.8" x2="181.4" y2="145.8"/>
	<line class="st1" x1="108.9" y1="54.5" x2="108.9" y2="66.1"/>
	<line class="st1" x1="114.2" y1="54.5" x2="114.2" y2="66.1"/>
	<polyline class="st1" points="98.1,25.6 98.1,49.1 102.9,55.7 102.9,107.9 	"/>
	<polyline class="st1" points="132.3,22.3 132.3,35.4 137.1,42 137.1,94.2 	"/>
	<polyline class="st1" points="122.9,82.4 122.9,58.9 115.2,52.3 115.2,41.1 	"/>
	<line class="st1" x1="74.6" y1="47.8" x2="91.6" y2="47.8"/>
	<line class="st1" x1="83.1" y1="41.2" x2="91.6" y2="41.2"/>
	<line class="st1" x1="141.9" y1="41.2" x2="150.3" y2="41.2"/>
	<polyline class="st1" points="91.6,54.5 78.2,54.5 65,64.7 	"/>
	<path class="st1" d="M90.4,35.7c0-0.9,0-6.5,0-6.5"/>
	<path class="st1" d="M139,35.7c0-0.9,0-6.5,0-6.5"/>
	<line class="st1" x1="129.9" y1="51.3" x2="129.9" y2="63.3"/>
	<polyline class="st1" points="176.5,123.9 142.5,123.9 136.5,119.6 89.5,119.6 	"/>
	<g>
		<rect x="106.2" y="22.3" class="st1" width="18.1" height="16.7"/>
		<path class="st1" d="M110.2,22.3V19c0-2.8,2.3-5.1,5.1-5.1c2.8,0,5.1,2.3,5.1,5.1v3.3"/>
		<circle class="st1" cx="115.2" cy="30.6" r="1.8"/>
	</g>
	<g>
		<path class="st2" d="M46.5,45.1v113.6c0,37.7,30.6,68.3,68.2,68.3c37.7,0,68.2-30.6,68.2-68.3V45.1H46.5z"/>
		<g>
			<path class="st3" d="M73.5,175.8l2.9,5.5l-1.4,0.8l-2-3.8l-1.7,0.9l1.9,3.5l-1.4,0.7L70,180l-1.9,1l2,3.9l-1.4,0.8l-3-5.7
				L73.5,175.8z"/>
			<path class="st3" d="M78.4,184.2l1.3,1.5l-5.5,4.6l2.6,3.2l-1.2,1l-3.9-4.7L78.4,184.2z"/>
			<path class="st3" d="M86.5,192.6l1.6,1.3l-2.8,9l-1.7-1.3l0.5-1.7l-2.5-1.9l-1.5,1l-1.7-1.3L86.5,192.6z M84.8,198.3l1.1-3.1
				l-2.7,1.8L84.8,198.3z"/>
			<path class="st3" d="M97.9,205.7c-0.2,1,0.4,1.7,1.3,1.9c0.9,0.3,1.4,0,1.6-0.4c0.5-1.7-4.4-2.1-3.5-5.1c0.5-1.5,1.9-2.3,3.8-1.7
				c2.3,0.7,2.9,2.1,2.6,3.9l-1.9-0.6c0.2-0.9-0.3-1.5-1.1-1.8c-0.8-0.3-1.2,0.1-1.4,0.5c-0.5,1.6,4.5,2,3.5,5.2
				c-0.5,1.5-2,2.2-3.9,1.5c-2.4-0.7-3.2-2-2.7-4.1L97.9,205.7z"/>
			<path class="st3" d="M107.9,202.2l6.3,0.5l-0.1,1.6l-4.2-0.4l-0.2,1.9l4,0.3l-0.1,1.6l-4-0.3l-0.2,2.1l4.4,0.4l-0.1,1.6l-6.4-0.5
				L107.9,202.2z"/>
			<path class="st3" d="M126.1,208.5c-0.5,1.4-1.5,2.3-3.3,2.6c-2.8,0.4-4.5-1.2-4.9-3.9c-0.4-2.7,0.9-4.7,3.5-5.1
				c2-0.3,3.1,0.4,4,1.9l-1.7,1c-0.5-0.9-1.1-1.4-2.1-1.2c-1.4,0.2-2,1.4-1.7,3.2c0.2,1.7,1.3,2.7,2.7,2.5c0.9-0.1,1.4-0.6,1.7-1.5
				L126.1,208.5z"/>
			<path class="st3" d="M128.2,200.8l1.9-0.8l1.9,4.8c0.5,1.3,1.4,1.6,2.4,1.2c1-0.4,1.4-1.3,0.9-2.6l-1.9-4.8l1.9-0.8l2,5
				c0.9,2.2,0,3.9-2.2,4.7c-2.1,0.9-4,0.3-4.9-1.9L128.2,200.8z"/>
			<path class="st3" d="M138.2,196.2l3.3-2.4c1.5-1.1,3-0.8,4,0.5c0.8,1.2,0.9,2.3-0.1,3.4c0.3,0,0.5,0.1,1.1,0.2l3.2,0.9l-1.9,1.4
				l-2.5-0.7c-1.4-0.4-1.6-0.3-2,0l-0.1,0.1l1.9,2.6l-1.6,1.2L138.2,196.2z M143.5,197.4c0.8-0.5,0.8-1.2,0.4-1.8
				c-0.4-0.6-1.1-0.7-1.7-0.3l-1.4,1l1.4,2L143.5,197.4z"/>
			<path class="st3" d="M146.3,189.9l4.2-4.7l1.2,1.1l-2.8,3.2l1.4,1.3l2.7-3l1.2,1.1l-2.7,3l1.6,1.4l2.9-3.3l1.2,1.1l-4.3,4.8
				L146.3,189.9z"/>
			<path class="st3" d="M152.5,182.5l1.7-3.1c1.2-2.2,3.6-2.8,5.9-1.6c2.3,1.3,3.1,3.6,1.8,5.8l-1.7,3.1L152.5,182.5z M160.5,182.9
				c0.6-1.2,0.1-2.5-1.4-3.3c-1.5-0.8-2.9-0.5-3.5,0.6l-0.7,1.3l4.9,2.7L160.5,182.9z"/>
		</g>
		<g>
			<g>
				<g>
					<rect x="122.7" y="110.6" class="st3" width="3.5" height="12.9"/>
					
						<rect x="119.3" y="97.7" transform="matrix(-1 -1.100616e-06 1.100616e-06 -1 242.0485 204.5745)" class="st3" width="3.5" height="9.2"/>
					<polygon class="st3" points="119.3,106.9 121.8,104.4 124.5,107.3 124.5,110.6 122.7,110.6 					"/>
					<rect x="126.1" y="97.7" class="st3" width="3.5" height="9.2"/>
					<polygon class="st3" points="129.6,106.9 127.1,104.4 124.5,107.3 124.5,110.6 126.2,110.6 					"/>
				</g>
				<g>
					
						<rect x="152" y="97.7" transform="matrix(-1 -1.983735e-05 1.983735e-05 -1 307.4358 221.1632)" class="st3" width="3.5" height="25.7"/>
					<g>
						
							<rect x="148.5" y="116.5" transform="matrix(-1.582398e-07 1 -1 -1.582398e-07 271.9881 -28.5923)" class="st3" width="3.5" height="10.4"/>
						<rect x="145.1" y="97.7" class="st3" width="3.5" height="25.7"/>
					</g>
				</g>
				<g>
					
						<rect x="139" y="97.7" transform="matrix(-1 -1.983735e-05 1.983735e-05 -1 281.5986 221.1629)" class="st3" width="3.5" height="25.7"/>
					<g>
						
							<rect x="135.6" y="116.5" transform="matrix(-1.582398e-07 1 -1 -1.582398e-07 259.0695 -15.6737)" class="st3" width="3.5" height="10.4"/>
						
							<rect x="135.6" y="94.3" transform="matrix(-1.582398e-07 1 -1 -1.582398e-07 236.8338 -37.9094)" class="st3" width="3.5" height="10.4"/>
						<rect x="132.2" y="97.7" class="st3" width="3.5" height="25.7"/>
					</g>
				</g>
				<g>
					<polygon class="st3" points="164.9,97.7 168.4,97.7 168.4,108.8 164.9,112.3 					"/>
					<rect x="158" y="97.7" class="st3" width="3.5" height="25.7"/>
					
						<rect x="161.5" y="94.3" transform="matrix(6.123234e-17 -1 1 6.123234e-17 63.7465 262.671)" class="st3" width="3.5" height="10.4"/>
					
						<rect x="159.7" y="107.2" transform="matrix(6.123234e-17 -1 1 6.123234e-17 50.8715 272.0317)" class="st3" width="3.5" height="6.9"/>
					
						<rect x="164.9" y="112.3" transform="matrix(-1 -1.100592e-06 1.100592e-06 -1 333.2749 235.7924)" class="st3" width="3.5" height="11.1"/>
				</g>
			</g>
			<g>
				<polygon class="st4" points="87.1,62.3 87.1,82.4 96,82.4 96,66.4 91.9,62.3 				"/>
				<polygon class="st4" points="99.1,62.3 99.1,82.4 108,82.4 108,66.4 103.9,62.3 				"/>
				<polygon class="st4" points="63.2,62.3 63.2,82.4 72.1,82.4 72.1,66.4 68,62.3 				"/>
				<polygon class="st4" points="75.1,62.3 75.1,82.4 84.1,82.4 84.1,66.4 80,62.3 				"/>
				<polygon class="st5" points="95.1,112.5 63.2,112.5 63.2,85.2 78.8,85.2 85.3,85.2 92.4,85.2 110.9,85.2 110.9,99.7 				"/>
				<rect x="63.2" y="115.3" class="st3" width="32" height="8.1"/>
				<polygon class="st3" points="95.1,112.5 63.2,112.5 63.2,102.7 77.8,91.5 110.9,91.5 110.9,99.7 				"/>
				<g>
					
						<rect x="93.7" y="74.9" transform="matrix(-1.178752e-05 -1 1 -1.178752e-05 16.2483 180.7123)" class="st3" width="9.5" height="14.6"/>
					<polygon class="st3" points="101.4,77.5 101.4,97.5 110.9,97.5 110.9,81.5 106.8,77.5 					"/>
				</g>
			</g>
			<g>
				<g>
					<g>
						<polygon class="st3" points="145.6,87.4 142.1,87.4 142.1,76.6 145.6,73.2 						"/>
					</g>
					
						<rect x="132.2" y="62.3" transform="matrix(-1 -1.983735e-05 1.983735e-05 -1 267.8855 150.3909)" class="st3" width="3.5" height="25.7"/>
					
						<rect x="152" y="62.3" transform="matrix(-1 -1.983735e-05 1.983735e-05 -1 307.4377 150.3913)" class="st3" width="3.5" height="25.7"/>
					
						<rect x="142.1" y="74.7" transform="matrix(2.331415e-05 1 -1 2.331415e-05 230.1393 -57.5202)" class="st3" width="3.5" height="23.3"/>
				</g>
				<g>
					
						<rect x="126.1" y="62.3" transform="matrix(-1 -1.983735e-05 1.983735e-05 -1 255.7623 150.3908)" class="st3" width="3.5" height="25.7"/>
					
						<rect x="122.7" y="81.1" transform="matrix(-1.582398e-07 1 -1 -1.582398e-07 210.765 -38.1412)" class="st3" width="3.5" height="10.4"/>
					
						<rect x="122.7" y="58.9" transform="matrix(-1.582398e-07 1 -1 -1.582398e-07 188.5293 -60.3769)" class="st3" width="3.5" height="10.4"/>
					<rect x="119.3" y="62.3" class="st3" width="3.5" height="25.7"/>
				</g>
				<g>
					
						<rect x="164.9" y="62.3" transform="matrix(-1 -1.983735e-05 1.983735e-05 -1 333.2737 150.3915)" class="st3" width="3.5" height="25.7"/>
					<g>
						
							<rect x="161.5" y="58.9" transform="matrix(-1.582388e-07 1 -1 -1.582388e-07 227.285 -99.1326)" class="st3" width="3.5" height="10.4"/>
						<rect x="158" y="62.3" class="st3" width="3.5" height="25.7"/>
					</g>
				</g>
			</g>
			<g>
				<g>
					<rect x="103.8" y="133.1" class="st3" width="3.5" height="25.7"/>
					
						<rect x="107.2" y="129.7" transform="matrix(6.123234e-17 -1 1 6.123234e-17 -25.8753 243.8204)" class="st3" width="3.5" height="10.4"/>
					
						<rect x="107.2" y="140.8" transform="matrix(6.123234e-17 -1 1 6.123234e-17 -36.9932 254.9382)" class="st3" width="3.5" height="10.4"/>
					
						<rect x="107.2" y="151.9" transform="matrix(6.123234e-17 -1 1 6.123234e-17 -48.1111 266.0561)" class="st3" width="3.5" height="10.4"/>
				</g>
				<g>
					<rect x="144.5" y="133.1" class="st3" width="3.5" height="25.7"/>
					
						<rect x="147.9" y="129.7" transform="matrix(6.123234e-17 -1 1 6.123234e-17 14.8018 284.4975)" class="st3" width="3.5" height="10.4"/>
					
						<rect x="147.9" y="140.8" transform="matrix(6.123234e-17 -1 1 6.123234e-17 3.684 295.6154)" class="st3" width="3.5" height="10.4"/>
					
						<rect x="147.9" y="151.9" transform="matrix(6.123234e-17 -1 1 6.123234e-17 -7.4339 306.7332)" class="st3" width="3.5" height="10.4"/>
				</g>
				<g>
					<polygon class="st3" points="124.2,133.1 127.7,133.1 127.7,144.2 124.2,147.7 					"/>
					<rect x="117.3" y="133.1" class="st3" width="3.5" height="25.7"/>
					
						<rect x="120.8" y="129.7" transform="matrix(6.123234e-17 -1 1 6.123234e-17 -12.3163 257.3795)" class="st3" width="3.5" height="10.4"/>
					
						<rect x="119" y="142.5" transform="matrix(6.123234e-17 -1 1 6.123234e-17 -25.1913 266.7402)" class="st3" width="3.5" height="6.9"/>
					
						<rect x="124.2" y="147.7" transform="matrix(-1 -1.100591e-06 1.100591e-06 -1 251.9205 306.5636)" class="st3" width="3.5" height="11.1"/>
				</g>
				<g>
					<rect x="130.9" y="133.1" class="st3" width="3.5" height="25.7"/>
					<g>
						
							<rect x="134.3" y="129.7" transform="matrix(6.123234e-17 -1 1 6.123234e-17 1.2427 270.9386)" class="st3" width="3.5" height="10.4"/>
						
							<rect x="137.8" y="133.1" transform="matrix(-1 -1.100591e-06 1.100591e-06 -1 279.0386 291.9317)" class="st3" width="3.5" height="25.7"/>
					</g>
				</g>
				<g>
					<rect x="76.7" y="133.1" class="st3" width="3.5" height="25.7"/>
					<g>
						
							<rect x="80.1" y="129.7" transform="matrix(6.123234e-17 -1 1 6.123234e-17 -52.9935 216.7023)" class="st3" width="3.5" height="10.4"/>
						
							<rect x="83.5" y="133.1" transform="matrix(-1 -1.100589e-06 1.100589e-06 -1 170.5661 291.9316)" class="st3" width="3.5" height="25.7"/>
					</g>
				</g>
				<g>
					<g>
						
							<rect x="66.5" y="151.9" transform="matrix(-3.530793e-07 1 -1 -3.530793e-07 225.3789 88.7883)" class="st3" width="3.5" height="10.4"/>
						<rect x="66.7" y="133.1" class="st3" width="3.5" height="25.7"/>
					</g>
					<g>
						<g>
							
								<rect x="66.5" y="129.7" transform="matrix(-3.530793e-07 1 -1 -3.530793e-07 203.1432 66.5526)" class="st3" width="3.5" height="10.4"/>
						</g>
					</g>
				</g>
				<g>
					<g>
						<rect x="93.8" y="133.1" class="st3" width="3.5" height="25.7"/>
					</g>
					<g>
						<g>
							
								<rect x="93.7" y="129.7" transform="matrix(-3.530783e-07 1 -1 -3.530783e-07 230.2614 39.4345)" class="st3" width="3.5" height="10.4"/>
						</g>
					</g>
				</g>
				<g>
					<g>
						<rect x="161.6" y="133.1" class="st3" width="3.5" height="25.7"/>
					</g>
					<g>
						<g>
							
								<rect x="161.5" y="129.7" transform="matrix(-3.530773e-07 1 -1 -3.530773e-07 298.0567 -28.3608)" class="st3" width="3.5" height="10.4"/>
						</g>
					</g>
				</g>
			</g>
		</g>
		<g>
			<g>
				<polygon class="st6" points="116.5,180 123,176.2 116.5,172.4 				"/>
				<polygon class="st7" points="116.5,180 109.9,176.2 116.5,172.4 				"/>
				<g>
					<polygon class="st7" points="123,168.6 116.5,172.4 123,176.2 					"/>
					<polygon class="st6" points="123,168.6 129.6,172.4 123,176.2 					"/>
				</g>
				<g>
					<polygon class="st7" points="109.9,168.6 103.3,172.4 109.9,176.2 					"/>
					<polygon class="st6" points="109.9,168.6 116.5,172.4 109.9,176.2 					"/>
				</g>
			</g>
			<g>
				<polygon class="st6" points="116.5,190.5 123,186.7 116.5,182.9 				"/>
				<polygon class="st7" points="116.5,190.5 109.9,186.7 116.5,182.9 				"/>
				<g>
					<polygon class="st7" points="123,179.1 116.5,182.9 123,186.7 					"/>
					<polygon class="st6" points="123,179.1 129.6,182.9 123,186.7 					"/>
				</g>
				<g>
					<polygon class="st7" points="109.9,179.1 103.3,182.9 109.9,186.7 					"/>
					<polygon class="st6" points="109.9,179.1 116.5,182.9 109.9,186.7 					"/>
				</g>
			</g>
		</g>
	</g>
</g>
</svg>
