<svg xmlns="http://www.w3.org/2000/svg" viewBox="0 0 197.89924 127.17403"><title>solution-illus3</title><path d="M171.60238,89.16412a72.65276,72.65276,0,0,0-145.30552,0" style="fill:none;stroke:#434d72;stroke-miterlimit:10;stroke-width:1.25px"/><polyline points="110.866 69.881 110.866 18.272 106.023 13.429 100.263 13.429 100.263 69.881" style="fill:none;stroke:#1de9b6;stroke-miterlimit:10;stroke-width:1.25px"/><polyline points="116.464 50.343 116.464 25.492 111.621 20.649 105.862 20.649" style="fill:none;stroke:#434d72;stroke-miterlimit:10;stroke-width:1.25px"/><polyline points="100.263 25.492 95.42 20.649 89.661 20.649 89.661 69.881" style="fill:none;stroke:#1de9b6;stroke-miterlimit:10;stroke-width:1.25px"/><polyline points="79.059 127.174 79.059 41.473 83.902 35.496 89.661 35.496" style="fill:none;stroke:#1de9b6;stroke-miterlimit:10;stroke-width:1.25px"/><rect x="73.11166" width="59.98759" height="59.98757" rx="10.58424" ry="10.58424" style="fill:#434d72"/><polyline points="115.26 19.382 96.32 38.322 90.951 32.603" style="fill:none;stroke:#1de9b6;stroke-miterlimit:10;stroke-width:1.25px"/><path d="M153.28333,65.22378h28.28016a7.71074,7.71074,0,0,1,7.71074,7.71074v28.28013a7.71073,7.71073,0,0,1-7.71073,7.71073H153.28333a7.71074,7.71074,0,0,1-7.71074-7.71074V72.93452A7.71074,7.71074,0,0,1,153.28333,65.22378Z" style="fill:#fff"/><rect x="137.57233" y="57.22375" width="59.70215" height="59.70166" rx="15.71094" ry="15.71094" transform="translate(254.49799 -80.34883) rotate(90)" style="fill:none;stroke:#434d72;stroke-miterlimit:10;stroke-width:1.25px;opacity:0.30000000000000004"/><path d="M153.28333,65.22378h28.28016a7.71074,7.71074,0,0,1,7.71074,7.71074v28.28013a7.71073,7.71073,0,0,1-7.71073,7.71073H153.28333a7.71074,7.71074,0,0,1-7.71074-7.71074V72.93452A7.71074,7.71074,0,0,1,153.28333,65.22378Z" style="fill:none;stroke:#434d72;stroke-miterlimit:10;stroke-width:1.25px"/><line x1="172.71718" y1="81.78081" x2="162.12964" y2="92.36835" style="fill:none;stroke:#434d72;stroke-miterlimit:10;stroke-width:1.25px"/><line x1="162.12964" y1="81.78081" x2="172.71718" y2="92.36835" style="fill:none;stroke:#434d72;stroke-miterlimit:10;stroke-width:1.25px"/><path d="M16.33575,65.22378H44.61591a7.71074,7.71074,0,0,1,7.71074,7.71074v28.28013a7.71073,7.71073,0,0,1-7.71073,7.71073H16.33575A7.71074,7.71074,0,0,1,8.625,101.21464V72.93452A7.71074,7.71074,0,0,1,16.33575,65.22378Z" style="fill:#fff"/><rect x="0.62476" y="57.22375" width="59.70215" height="59.70166" rx="15.71094" ry="15.71094" transform="translate(117.55041 56.59875) rotate(90)" style="fill:none;stroke:#434d72;stroke-miterlimit:10;stroke-width:1.25px;opacity:0.30000000000000004"/><path d="M16.33575,65.22378H44.61591a7.71074,7.71074,0,0,1,7.71074,7.71074v28.28013a7.71073,7.71073,0,0,1-7.71073,7.71073H16.33575A7.71074,7.71074,0,0,1,8.625,101.21464V72.93452A7.71074,7.71074,0,0,1,16.33575,65.22378Z" style="fill:none;stroke:#434d72;stroke-miterlimit:10;stroke-width:1.25px"/><line x1="35.7696" y1="81.78081" x2="25.18206" y2="92.36835" style="fill:none;stroke:#434d72;stroke-miterlimit:10;stroke-width:1.25px"/><line x1="25.18206" y1="81.78081" x2="35.7696" y2="92.36835" style="fill:none;stroke:#434d72;stroke-miterlimit:10;stroke-width:1.25px"/><polyline points="116.625 127.174 116.625 102.758 127.227 86.429 127.227 50.343 121.468 50.343 116.625 55.186 116.625 76.671 114.1 80.435 108.207 80.435" style="fill:none;stroke:#1de9b6;stroke-miterlimit:10;stroke-width:1.25px"/><line x1="116.62472" y1="102.75845" x2="108.20715" y2="102.75845" style="fill:none;stroke:#1de9b6;stroke-miterlimit:10;stroke-width:1.25px"/><path d="M164.14688,66.0979" style="fill:none;stroke:#434d72;stroke-miterlimit:10;stroke-width:1.25px"/><path d="M16.33575,65.22378H44.61591a7.71074,7.71074,0,0,1,7.71074,7.71074v28.28013a7.71073,7.71073,0,0,1-7.71073,7.71073H16.33575A7.71074,7.71074,0,0,1,8.625,101.21464V72.93452A7.71074,7.71074,0,0,1,16.33575,65.22378Z" style="fill:#fff"/><path d="M16.33575,65.22378H44.61591a7.71074,7.71074,0,0,1,7.71074,7.71074v28.28013a7.71073,7.71073,0,0,1-7.71073,7.71073H16.33575A7.71074,7.71074,0,0,1,8.625,101.21464V72.93452A7.71074,7.71074,0,0,1,16.33575,65.22378Z" style="fill:none;stroke:#434d72;stroke-miterlimit:10;stroke-width:1.25px"/><line x1="35.7696" y1="81.78081" x2="25.18206" y2="92.36835" style="fill:none;stroke:#434d72;stroke-miterlimit:10;stroke-width:1.25px"/><line x1="25.18206" y1="81.78081" x2="35.7696" y2="92.36835" style="fill:none;stroke:#434d72;stroke-miterlimit:10;stroke-width:1.25px"/></svg>