<svg xmlns="http://www.w3.org/2000/svg" viewBox="0 0 168.7965 128.05473"><title>solution-illus1</title><g style="opacity:0.30000000000000004"><polyline points="32.896 83.126 0.625 83.126 0.625 0.625 100.653 0.625 100.653 21.195" style="fill:none;stroke:#434d72;stroke-miterlimit:10;stroke-width:1.25px"/></g><polyline points="69.301 105.698 32.896 105.698 32.896 21.195 134.926 21.195 134.926 46.338" style="fill:none;stroke:#434d72;stroke-miterlimit:10;stroke-width:1.25px"/><path d="M115.80253,48.71669" style="fill:none;stroke:#1de9b6;stroke-miterlimit:10;stroke-width:1.25px"/><line x1="60.93167" y1="105.69786" x2="60.93167" y2="48.71669" style="fill:none;stroke:#434d72;stroke-miterlimit:10;stroke-width:1.25px"/><path d="M60.93167,48.71669V39.27762a4.8159,4.8159,0,0,0-4.80179-4.80179h0a4.8159,4.8159,0,0,0-4.80179,4.80179V64.09408h9.60359" style="fill:none;stroke:#434d72;stroke-miterlimit:10;stroke-width:1.25px"/><path d="M111.00073,34.47584h0a4.8159,4.8159,0,0,1,4.80179,4.80179V46.3381" style="fill:none;stroke:#434d72;stroke-miterlimit:10;stroke-width:1.25px"/><path d="M56.12987,34.47584" style="fill:none;stroke:#1de9b6;stroke-miterlimit:10;stroke-width:1.25px"/><line x1="111.00074" y1="34.47584" x2="56.12987" y2="34.47584" style="fill:none;stroke:#434d72;stroke-miterlimit:10;stroke-width:1.25px"/><rect x="67.45993" y="44.11641" width="101.33657" height="83.93832" style="fill:#434d72"/><line x1="147.99214" y1="69.60071" x2="147.99214" y2="128.05473" style="fill:none;stroke:#1de9b6;stroke-miterlimit:10;stroke-width:1.25px"/><line x1="107.28738" y1="81.12708" x2="130.89316" y2="81.12709" style="fill:none;stroke:#1de9b6;stroke-miterlimit:10;stroke-width:1.25px"/><line x1="107.28742" y1="87.805" x2="119.61237" y2="87.80502" style="fill:none;stroke:#1de9b6;stroke-miterlimit:10;stroke-width:1.25px"/><line x1="122.32078" y1="87.80502" x2="128.18458" y2="87.80503" style="fill:none;stroke:#1de9b6;stroke-miterlimit:10;stroke-width:1.25px"/><line x1="130.89299" y1="87.80503" x2="136.75679" y2="87.80504" style="fill:none;stroke:#1de9b6;stroke-miterlimit:10;stroke-width:1.25px"/><path d="M107.28734,74.44916" style="fill:none;stroke:#1de9b6;stroke-miterlimit:10;stroke-width:1.25px"/><line x1="107.28746" y1="94.48292" x2="130.89303" y2="94.48295" style="fill:none;stroke:#1de9b6;stroke-miterlimit:10;stroke-width:1.25px"/><line x1="107.28758" y1="114.51668" x2="119.61254" y2="114.5167" style="fill:none;stroke:#1de9b6;stroke-miterlimit:10;stroke-width:1.25px"/><line x1="122.32095" y1="114.5167" x2="128.18474" y2="114.51671" style="fill:none;stroke:#1de9b6;stroke-miterlimit:10;stroke-width:1.25px"/><line x1="130.89316" y1="114.51671" x2="136.75695" y2="114.51672" style="fill:none;stroke:#1de9b6;stroke-miterlimit:10;stroke-width:1.25px"/><line x1="107.2875" y1="101.16084" x2="125.84679" y2="101.16087" style="fill:none;stroke:#1de9b6;stroke-miterlimit:10;stroke-width:1.25px"/><line x1="129.13712" y1="101.16087" x2="136.75687" y2="101.16088" style="fill:none;stroke:#1de9b6;stroke-miterlimit:10;stroke-width:1.25px"/><line x1="107.2873" y1="68.75847" x2="130.89316" y2="68.75848" style="fill:none;stroke:#1de9b6;stroke-miterlimit:10;stroke-width:1.25px"/><line x1="107.28734" y1="74.44916" x2="136.7567" y2="74.44918" style="fill:none;stroke:#1de9b6;stroke-miterlimit:10;stroke-width:1.25px"/><line x1="107.28734" y1="107.83875" x2="136.7567" y2="107.83877" style="fill:none;stroke:#1de9b6;stroke-miterlimit:10;stroke-width:1.25px"/><line x1="97.18279" y1="128.05473" x2="97.18279" y2="69.60071" style="fill:none;stroke:#1de9b6;stroke-miterlimit:10;stroke-width:1.25px"/><path d="M97.18279,69.60071v-8.7404A4.45943,4.45943,0,0,0,92.73642,56.414h0a4.45943,4.45943,0,0,0-4.44636,4.44636V83.83988h8.89273" style="fill:none;stroke:#1de9b6;stroke-miterlimit:10;stroke-width:1.25px"/><path d="M97.18279,69.60071v-8.7404A4.45943,4.45943,0,0,0,92.73642,56.414h0a4.45943,4.45943,0,0,0-4.44636,4.44636V83.83988h8.89273" style="fill:none;stroke:#1de9b6;stroke-miterlimit:10;stroke-width:1.25px"/><path d="M143.54577,56.414h0a4.45943,4.45943,0,0,1,4.44636,4.44636v8.7404" style="fill:none;stroke:#1de9b6;stroke-miterlimit:10;stroke-width:1.25px"/><path d="M92.73641,56.414" style="fill:none;stroke:#1de9b6;stroke-miterlimit:10;stroke-width:1.25px"/><line x1="143.54578" y1="56.41396" x2="92.73641" y2="56.41396" style="fill:none;stroke:#1de9b6;stroke-miterlimit:10;stroke-width:1.25px"/></svg>