<svg xmlns="http://www.w3.org/2000/svg" viewBox="0 0 197.899 127.174"><title>solution-illus3</title><path fill="none" stroke="#434d72" stroke-miterlimit="10" stroke-width="1.25" d="M171.60238,89.16412a72.65276,72.65276,0,0,0-145.30552,0"/><polyline fill="none" stroke="#1de9b6" stroke-miterlimit="10" stroke-width="1.25" points="110.866 69.881 110.866 18.272 106.023 13.429 100.263 13.429 100.263 69.881"/><polyline fill="none" stroke="#434d72" stroke-miterlimit="10" stroke-width="1.25" points="116.464 50.343 116.464 25.492 111.621 20.649 105.862 20.649"/><polyline fill="none" stroke="#1de9b6" stroke-miterlimit="10" stroke-width="1.25" points="100.263 25.492 95.42 20.649 89.661 20.649 89.661 69.881"/><polyline fill="none" stroke="#1de9b6" stroke-miterlimit="10" stroke-width="1.25" points="79.059 127.174 79.059 41.473 83.902 35.496 89.661 35.496"/><rect width="59.988" height="59.988" x="73.112" fill="#434d72" rx="10.584" ry="10.584"/><polyline fill="none" stroke="#1de9b6" stroke-miterlimit="10" stroke-width="1.25" points="115.26 19.382 96.32 38.322 90.951 32.603"/><path fill="#fff" d="M153.28333,65.22378h28.28016a7.71074,7.71074,0,0,1,7.71074,7.71074v28.28013a7.71073,7.71073,0,0,1-7.71073,7.71073H153.28333a7.71074,7.71074,0,0,1-7.71074-7.71074V72.93452A7.71074,7.71074,0,0,1,153.28333,65.22378Z"/><rect width="59.702" height="59.702" x="137.572" y="57.224" fill="none" stroke="#434d72" stroke-miterlimit="10" stroke-width="1.25" opacity=".3" rx="15.711" ry="15.711" transform="translate(254.49799 -80.34883) rotate(90)"/><path fill="none" stroke="#434d72" stroke-miterlimit="10" stroke-width="1.25" d="M153.28333,65.22378h28.28016a7.71074,7.71074,0,0,1,7.71074,7.71074v28.28013a7.71073,7.71073,0,0,1-7.71073,7.71073H153.28333a7.71074,7.71074,0,0,1-7.71074-7.71074V72.93452A7.71074,7.71074,0,0,1,153.28333,65.22378Z"/><line x1="172.717" x2="162.13" y1="81.781" y2="92.368" fill="none" stroke="#434d72" stroke-miterlimit="10" stroke-width="1.25"/><line x1="162.13" x2="172.717" y1="81.781" y2="92.368" fill="none" stroke="#434d72" stroke-miterlimit="10" stroke-width="1.25"/><path fill="#fff" d="M16.33575,65.22378H44.61591a7.71074,7.71074,0,0,1,7.71074,7.71074v28.28013a7.71073,7.71073,0,0,1-7.71073,7.71073H16.33575A7.71074,7.71074,0,0,1,8.625,101.21464V72.93452A7.71074,7.71074,0,0,1,16.33575,65.22378Z"/><rect width="59.702" height="59.702" x=".625" y="57.224" fill="none" stroke="#434d72" stroke-miterlimit="10" stroke-width="1.25" opacity=".3" rx="15.711" ry="15.711" transform="translate(117.55041 56.59875) rotate(90)"/><path fill="none" stroke="#434d72" stroke-miterlimit="10" stroke-width="1.25" d="M16.33575,65.22378H44.61591a7.71074,7.71074,0,0,1,7.71074,7.71074v28.28013a7.71073,7.71073,0,0,1-7.71073,7.71073H16.33575A7.71074,7.71074,0,0,1,8.625,101.21464V72.93452A7.71074,7.71074,0,0,1,16.33575,65.22378Z"/><line x1="35.77" x2="25.182" y1="81.781" y2="92.368" fill="none" stroke="#434d72" stroke-miterlimit="10" stroke-width="1.25"/><line x1="25.182" x2="35.77" y1="81.781" y2="92.368" fill="none" stroke="#434d72" stroke-miterlimit="10" stroke-width="1.25"/><polyline fill="none" stroke="#1de9b6" stroke-miterlimit="10" stroke-width="1.25" points="116.625 127.174 116.625 102.758 127.227 86.429 127.227 50.343 121.468 50.343 116.625 55.186 116.625 76.671 114.1 80.435 108.207 80.435"/><line x1="116.625" x2="108.207" y1="102.758" y2="102.758" fill="none" stroke="#1de9b6" stroke-miterlimit="10" stroke-width="1.25"/><path fill="none" stroke="#434d72" stroke-miterlimit="10" stroke-width="1.25" d="M164.14688,66.0979"/><path fill="#fff" d="M16.33575,65.22378H44.61591a7.71074,7.71074,0,0,1,7.71074,7.71074v28.28013a7.71073,7.71073,0,0,1-7.71073,7.71073H16.33575A7.71074,7.71074,0,0,1,8.625,101.21464V72.93452A7.71074,7.71074,0,0,1,16.33575,65.22378Z"/><path fill="none" stroke="#434d72" stroke-miterlimit="10" stroke-width="1.25" d="M16.33575,65.22378H44.61591a7.71074,7.71074,0,0,1,7.71074,7.71074v28.28013a7.71073,7.71073,0,0,1-7.71073,7.71073H16.33575A7.71074,7.71074,0,0,1,8.625,101.21464V72.93452A7.71074,7.71074,0,0,1,16.33575,65.22378Z"/><line x1="35.77" x2="25.182" y1="81.781" y2="92.368" fill="none" stroke="#434d72" stroke-miterlimit="10" stroke-width="1.25"/><line x1="25.182" x2="35.77" y1="81.781" y2="92.368" fill="none" stroke="#434d72" stroke-miterlimit="10" stroke-width="1.25"/></svg>