<svg xmlns="http://www.w3.org/2000/svg" viewBox="0 0 168.797 128.055"><title>solution-illus1</title><g opacity=".3"><polyline fill="none" stroke="#434d72" stroke-miterlimit="10" stroke-width="1.25" points="32.896 83.126 .625 83.126 .625 .625 100.653 .625 100.653 21.195"/></g><polyline fill="none" stroke="#434d72" stroke-miterlimit="10" stroke-width="1.25" points="69.301 105.698 32.896 105.698 32.896 21.195 134.926 21.195 134.926 46.338"/><path fill="none" stroke="#1de9b6" stroke-miterlimit="10" stroke-width="1.25" d="M115.80253,48.71669"/><line x1="60.932" x2="60.932" y1="105.698" y2="48.717" fill="none" stroke="#434d72" stroke-miterlimit="10" stroke-width="1.25"/><path fill="none" stroke="#434d72" stroke-miterlimit="10" stroke-width="1.25" d="M60.93167,48.71669V39.27762a4.8159,4.8159,0,0,0-4.80179-4.80179h0a4.8159,4.8159,0,0,0-4.80179,4.80179V64.09408h9.60359"/><path fill="none" stroke="#434d72" stroke-miterlimit="10" stroke-width="1.25" d="M111.00073,34.47584h0a4.8159,4.8159,0,0,1,4.80179,4.80179V46.3381"/><path fill="none" stroke="#1de9b6" stroke-miterlimit="10" stroke-width="1.25" d="M56.12987,34.47584"/><line x1="111.001" x2="56.13" y1="34.476" y2="34.476" fill="none" stroke="#434d72" stroke-miterlimit="10" stroke-width="1.25"/><rect width="101.337" height="83.938" x="67.46" y="44.116" fill="#434d72"/><line x1="147.992" x2="147.992" y1="69.601" y2="128.055" fill="none" stroke="#1de9b6" stroke-miterlimit="10" stroke-width="1.25"/><line x1="107.287" x2="130.893" y1="81.127" y2="81.127" fill="none" stroke="#1de9b6" stroke-miterlimit="10" stroke-width="1.25"/><line x1="107.287" x2="119.612" y1="87.805" y2="87.805" fill="none" stroke="#1de9b6" stroke-miterlimit="10" stroke-width="1.25"/><line x1="122.321" x2="128.185" y1="87.805" y2="87.805" fill="none" stroke="#1de9b6" stroke-miterlimit="10" stroke-width="1.25"/><line x1="130.893" x2="136.757" y1="87.805" y2="87.805" fill="none" stroke="#1de9b6" stroke-miterlimit="10" stroke-width="1.25"/><path fill="none" stroke="#1de9b6" stroke-miterlimit="10" stroke-width="1.25" d="M107.28734,74.44916"/><line x1="107.287" x2="130.893" y1="94.483" y2="94.483" fill="none" stroke="#1de9b6" stroke-miterlimit="10" stroke-width="1.25"/><line x1="107.288" x2="119.613" y1="114.517" y2="114.517" fill="none" stroke="#1de9b6" stroke-miterlimit="10" stroke-width="1.25"/><line x1="122.321" x2="128.185" y1="114.517" y2="114.517" fill="none" stroke="#1de9b6" stroke-miterlimit="10" stroke-width="1.25"/><line x1="130.893" x2="136.757" y1="114.517" y2="114.517" fill="none" stroke="#1de9b6" stroke-miterlimit="10" stroke-width="1.25"/><line x1="107.287" x2="125.847" y1="101.161" y2="101.161" fill="none" stroke="#1de9b6" stroke-miterlimit="10" stroke-width="1.25"/><line x1="129.137" x2="136.757" y1="101.161" y2="101.161" fill="none" stroke="#1de9b6" stroke-miterlimit="10" stroke-width="1.25"/><line x1="107.287" x2="130.893" y1="68.758" y2="68.758" fill="none" stroke="#1de9b6" stroke-miterlimit="10" stroke-width="1.25"/><line x1="107.287" x2="136.757" y1="74.449" y2="74.449" fill="none" stroke="#1de9b6" stroke-miterlimit="10" stroke-width="1.25"/><line x1="107.287" x2="136.757" y1="107.839" y2="107.839" fill="none" stroke="#1de9b6" stroke-miterlimit="10" stroke-width="1.25"/><line x1="97.183" x2="97.183" y1="128.055" y2="69.601" fill="none" stroke="#1de9b6" stroke-miterlimit="10" stroke-width="1.25"/><path fill="none" stroke="#1de9b6" stroke-miterlimit="10" stroke-width="1.25" d="M97.18279,69.60071v-8.7404A4.45943,4.45943,0,0,0,92.73642,56.414h0a4.45943,4.45943,0,0,0-4.44636,4.44636V83.83988h8.89273"/><path fill="none" stroke="#1de9b6" stroke-miterlimit="10" stroke-width="1.25" d="M97.18279,69.60071v-8.7404A4.45943,4.45943,0,0,0,92.73642,56.414h0a4.45943,4.45943,0,0,0-4.44636,4.44636V83.83988h8.89273"/><path fill="none" stroke="#1de9b6" stroke-miterlimit="10" stroke-width="1.25" d="M143.54577,56.414h0a4.45943,4.45943,0,0,1,4.44636,4.44636v8.7404"/><path fill="none" stroke="#1de9b6" stroke-miterlimit="10" stroke-width="1.25" d="M92.73641,56.414"/><line x1="143.546" x2="92.736" y1="56.414" y2="56.414" fill="none" stroke="#1de9b6" stroke-miterlimit="10" stroke-width="1.25"/></svg>