<svg xmlns="http://www.w3.org/2000/svg" viewBox="0 0 212.98034 122.41307"><title>solution-illus2</title><circle cx="151.77381" cy="61.20653" r="21.9854" style="fill:#434d72"/><circle cx="61.20648" cy="61.20653" r="35.00456" style="fill:none;stroke:#1de9b6;stroke-miterlimit:10;stroke-width:1.25px"/><circle cx="61.20648" cy="61.20653" r="48.08689" style="fill:none;stroke:#1de9b6;stroke-miterlimit:10;stroke-width:1.25px"/><circle cx="61.20651" cy="61.20653" r="60.58152" style="fill:none;stroke:#1de9b6;stroke-miterlimit:10;stroke-width:1.25px;opacity:0.30000000000000004"/><circle cx="151.77381" cy="61.20653" r="35.00456" style="fill:none;stroke:#434d72;stroke-miterlimit:10;stroke-width:1.25px"/><circle cx="151.77381" cy="61.20653" r="48.08689" style="fill:none;stroke:#434d72;stroke-miterlimit:10;stroke-width:1.25px;opacity:0.30000000000000004"/><circle cx="151.77383" cy="61.20653" r="60.58152" style="fill:none;stroke:#434d72;stroke-miterlimit:10;stroke-width:1.25px;opacity:0.30000000000000004"/><path d="M157.73657,63.52029a2.98092,2.98092,0,0,0-1.12484-1.11941,5.87987,5.87987,0,0,0-1.42355-.51789,4.25063,4.25063,0,0,0,1.392-.74945,3.11363,3.11363,0,0,0,.80841-1.033,2.88284,2.88284,0,0,0,.27814-1.24686A2.84636,2.84636,0,0,0,157.142,57.2a3.354,3.354,0,0,0-1.51947-1.15637,4.7917,4.7917,0,0,0-.88927-.2467V53.45814h-2.24283v2.17844h-1.43861V53.45814h-2.24292v2.17844h-3.41434v1.83056h.51931a1.7273,1.7273,0,0,1,.70563.09583.5348.5348,0,0,1,.263.25765,2.12,2.12,0,0,1,.07944.74945v7.37945a2.10333,2.10333,0,0,1-.07944.74393.49369.49369,0,0,1-.263.25757,1.8563,1.8563,0,0,1-.70563.09048h-.51931V68.872h3.41434v2.17844h2.24292V68.872h1.44413v2.17844h2.23731V68.68425a5.56221,5.56221,0,0,0,.99063-.27814,3.9972,3.9972,0,0,0,1.79761-1.34813,3.25069,3.25069,0,0,0,.63162-1.94287A3.11327,3.11327,0,0,0,157.73657,63.52029Zm-7.50412-5.74357h1.4509a6.63267,6.63267,0,0,1,1.76617.15621,1.43576,1.43576,0,0,1,.75355.52475,1.52651,1.52651,0,0,1,.25757.89337,1.48924,1.48924,0,0,1-.27262.88777,1.6062,1.6062,0,0,1-.81936.56732,5.431,5.431,0,0,1-1.6853.19309h-1.4509Zm4.0994,8.1728a1.77049,1.77049,0,0,1-.94672.648,5.05556,5.05556,0,0,1-1.392.16039h-.9632a1.9855,1.9855,0,0,1-.59466-.05344.29734.29734,0,0,1-.15479-.18222,3.44212,3.44212,0,0,1-.048-.71115v-2.869h1.71265a5.01675,5.01675,0,0,1,1.67568.21375,1.66993,1.66993,0,0,1,.82338.61105,1.74847,1.74847,0,0,1,.2727.99473A1.85641,1.85641,0,0,1,154.33184,65.94953Z" style="fill:#1de9b6"/><circle cx="61.20643" cy="61.20653" r="21.9854" style="fill:#434d72"/><polygon points="65.601 54.46 61.206 56.997 56.812 54.46 52.418 56.997 56.812 59.549 61.206 62.086 65.601 59.549 69.995 56.997 65.601 54.46" style="fill:#1de9b6"/><polygon points="65.601 62.951 61.206 65.488 56.812 62.951 52.418 65.488 56.812 68.04 61.206 70.577 65.601 68.04 69.995 65.488 65.601 62.951" style="fill:#1de9b6"/></svg>