<?xml version="1.0" encoding="iso-8859-1"?>
<!-- Generator: Adobe Illustrator 19.0.0, SVG Export Plug-In . SVG Version: 6.00 Build 0)  -->
<svg version="1.1" id="Capa_1" xmlns="http://www.w3.org/2000/svg" xmlns:xlink="http://www.w3.org/1999/xlink" x="0px" y="0px"
	 viewBox="0 0 512 512" style="enable-background:new 0 0 512 512;" xml:space="preserve">
<g>
	<g>
		<path d="M256,165.004c-50.176,0-90.996,40.82-90.996,90.996c0,17.666,5.066,34.168,13.813,48.142
			c0.266,0.516,0.586,1.011,0.948,1.484c16.256,24.887,44.355,41.37,76.235,41.37c50.176,0,90.996-40.821,90.996-90.996
			S306.176,165.004,256,165.004z M190.288,282.841c-3.397-8.286-5.285-17.345-5.285-26.841
			c0.001-39.148,31.849-70.996,70.997-70.996c23.955,0,45.16,11.937,58.024,30.163l-54.921,54.921l-20.96-20.959
			c-3.906-3.905-10.236-3.904-14.143,0L190.288,282.841z M256,326.996c-22.264,0-42.158-10.31-55.185-26.397l30.257-30.257
			l20.96,20.959c3.906,3.905,10.236,3.904,14.143,0l57.312-57.312c2.268,6.934,3.51,14.328,3.51,22.01
			C326.996,295.147,295.147,326.996,256,326.996z"/>
	</g>
</g>
<g>
	<g>
		<path d="M409.845,249.101c-1.571-48.868-15.246-96.792-39.792-139.167C343.92,64.82,306.201,27.263,260.974,1.325
			c-3.08-1.767-6.869-1.767-9.949,0C205.799,27.263,168.08,64.82,141.946,109.933c-24.546,42.375-38.221,90.299-39.792,139.167
			C67.098,264.144,44,298.76,44,337.351V408c0,5.523,4.478,10,10,10h146.941c2.155,30.079,15.324,58.889,36.883,80.131
			l11.157,10.993c1.946,1.917,4.482,2.876,7.019,2.876s5.072-0.959,7.019-2.876l11.157-10.993
			c21.559-21.242,34.728-50.051,36.883-80.13H342v51.612c0,5.523,4.478,10,10,10c5.522,0,10-4.477,10-10V418h96
			c5.522,0,10-4.477,10-10v-70.648C468,298.76,444.901,264.144,409.845,249.101z M256,21.597
			C287.442,40.516,314.32,65.27,335.574,94H176.426C197.68,65.27,224.558,40.516,256,21.597z M64,398v-60.649
			c0-27.495,14.81-52.442,38-65.844V388c0,3.506,0.61,6.87,1.72,10H64z M260.139,483.884L256,487.962l-4.139-4.078
			c-17.769-17.507-28.747-41.135-30.858-65.884h69.994C288.885,442.749,277.907,466.377,260.139,483.884z M390,388
			c0,5.514-4.486,10-10,10H132c-5.514,0-10-4.486-10-10V258.588c0-36.21,7.152-71.494,20.428-104.088h45.279c5.522,0,10-4.477,10-10
			s-4.478-10-10-10h-36.194c3.515-6.992,7.326-13.831,11.417-20.5h186.14C375.355,156.854,390,206.772,390,258.588V388z M448,398
			h-39.72c1.11-3.13,1.72-6.494,1.72-10V271.508c23.19,13.401,38,38.348,38,65.844V398z"/>
	</g>
</g>
<g>
	<g>
		<path d="M231.069,137.43c-1.859-1.86-4.439-2.93-7.069-2.93s-5.21,1.07-7.07,2.93s-2.93,4.44-2.93,7.07s1.069,5.21,2.93,7.07
			c1.861,1.86,4.44,2.93,7.07,2.93s5.21-1.07,7.069-2.93c1.86-1.86,2.931-4.44,2.931-7.07S232.93,139.29,231.069,137.43z"/>
	</g>
</g>
<g>
	<g>
		<path d="M160,444.751c-5.522,0-10,4.477-10,10v30.806c0,5.523,4.478,10,10,10c5.522,0,10-4.477,10-10v-30.806
			C170,449.228,165.522,444.751,160,444.751z"/>
	</g>
</g>
<g>
	<g>
		<path d="M359.069,494.93C357.21,493.07,354.63,492,352,492s-5.21,1.07-7.07,2.93c-1.86,1.86-2.93,4.44-2.93,7.07
			s1.069,5.21,2.93,7.07c1.861,1.86,4.44,2.93,7.07,2.93s5.21-1.07,7.069-2.93c1.86-1.86,2.931-4.44,2.931-7.07
			S360.93,496.79,359.069,494.93z"/>
	</g>
</g>
<g>
</g>
<g>
</g>
<g>
</g>
<g>
</g>
<g>
</g>
<g>
</g>
<g>
</g>
<g>
</g>
<g>
</g>
<g>
</g>
<g>
</g>
<g>
</g>
<g>
</g>
<g>
</g>
<g>
</g>
</svg>
