<svg xmlns="http://www.w3.org/2000/svg" xmlns:xlink="http://www.w3.org/1999/xlink" viewBox="0 0 684.12817 1154.16311"><defs><clipPath id="a"><path d="M199.08875,398.95572V353.85709c0-2.09961-2.09961-3.6748-4.19971-3.6748H148.68934V243.08365H194.889c2.1001,0,4.19971-1.0498,4.19971-4.2002v-44.624a4.14075,4.14075,0,0,0-4.19971-4.2002H148.68934V88.21061H194.889c2.1001,0,4.19971-1.0498,4.19971-3.6748V39.9108a4.14075,4.14075,0,0,0-4.19971-4.2002H97.24012a3.86419,3.86419,0,0,0-4.2002,4.2002V398.95572Z" style="fill:none"/></clipPath><clipPath id="b"><path d="M400.584,398.95572V354.38248a4.14086,4.14086,0,0,0-4.2002-4.2002H345.9844V39.9108a3.86382,3.86382,0,0,0-4.19971-4.2002H294.53518a3.86419,3.86419,0,0,0-4.2002,4.2002V398.95572Z" style="fill:none"/></clipPath></defs><title>token</title><path d="M199.08875,398.95572V353.85709c0-2.09961-2.09961-3.6748-4.19971-3.6748H148.68934V243.08365H194.889c2.1001,0,4.19971-1.0498,4.19971-4.2002v-44.624a4.14075,4.14075,0,0,0-4.19971-4.2002H148.68934V88.21061H194.889c2.1001,0,4.19971-1.0498,4.19971-3.6748V39.9108a4.14075,4.14075,0,0,0-4.19971-4.2002H97.24012a3.86419,3.86419,0,0,0-4.2002,4.2002V398.95572Z" style="fill:#031e28"/><g style="clip-path:url(#a)"><path d="M115.93606,159.57193a21.25823,21.25823,0,0,0-21.25823,21.25823h21.25823Z" style="fill:#2a3d58"/><path d="M115.93606,117.05537a21.25823,21.25823,0,0,0-21.25823,21.25823h21.25823Z" style="fill:#2a3d58"/><path d="M137.19426,159.57184A21.25818,21.25818,0,0,0,115.936,138.31361l0,21.25832Z" style="fill:#2a3d58"/><path d="M137.19426,116.80861A21.25818,21.25818,0,0,0,115.936,95.55037l0,21.25832Z" style="fill:#2a3d58"/><path d="M137.19436,138.0668A21.2584,21.2584,0,0,0,158.453,116.80858l-21.25877,0Z" style="fill:#2a3d58"/><path d="M115.93606,73.22309A21.25823,21.25823,0,0,0,94.67783,94.48132h21.25823Z" style="fill:#2a3d58"/><path d="M115.93606,30.70653A21.25823,21.25823,0,0,0,94.67783,51.96477h21.25823Z" style="fill:#2a3d58"/><path d="M137.19426,73.223A21.25818,21.25818,0,0,0,115.936,51.96477l0,21.25832Z" style="fill:#2a3d58"/><path d="M137.19426,30.45977A21.25818,21.25818,0,0,0,115.936,9.20153l0,21.25832Z" style="fill:#2a3d58"/><path d="M137.19436,51.718A21.2584,21.2584,0,0,0,158.453,30.45974l-21.25877,0Z" style="fill:#2a3d58"/><rect x="158.73563" y="199.77409" width="29.11823" height="199.18164" style="fill:#2a3d58"/><rect x="140.70322" y="199.77409" width="18.03241" height="123.68353" style="fill:#173045"/><circle cx="166.18439" cy="225.61267" r="1.70073" style="fill:#18ffff"/><circle cx="183.27675" cy="225.61267" r="1.70073" style="fill:#18ffff"/><circle cx="191.82293" cy="225.61267" r="1.70073" style="fill:#18ffff"/><circle cx="174.73057" cy="225.61267" r="1.70073" style="fill:#18ffff"/><polyline points="164.623 215.859 172.517 215.859 177.686 219.623 193.061 219.623" style="fill:none;stroke:#737e90;stroke-miterlimit:10;stroke-width:1.25px"/><line x1="164.62295" y1="211.00093" x2="193.06066" y2="211.00093" style="fill:none;stroke:#737e90;stroke-miterlimit:10;stroke-width:1.25px"/><line x1="164.62295" y1="206.1425" x2="193.06066" y2="206.1425" style="fill:none;stroke:#737e90;stroke-miterlimit:10;stroke-width:1.25px"/></g><rect x="115.07714" y="172.67889" width="21.46499" height="226.27683" transform="translate(251.61927 571.63461) rotate(-180)" style="fill:#fff"/><rect x="85.78667" y="165.54969" width="23.54331" height="7.1292" transform="translate(195.11666 338.22858) rotate(-180)" style="fill:#031e28"/><polyline points="109.33 165.55 97.558 157.535 85.787 165.55" style="fill:#031e28"/><rect x="109.32999" y="165.54969" width="23.54331" height="7.1292" transform="translate(242.20329 338.22858) rotate(-180)" style="fill:#fff"/><polyline points="109.33 165.55 121.102 157.535 132.873 165.55" style="fill:#fff"/><polygon points="97.558 157.535 121.102 157.535 109.33 165.55 97.558 157.535" style="fill:#18ffff"/><polygon points="115.079 233.754 77.361 233.754 77.361 294.919 115.079 233.754" style="fill:#2a3d58"/><polygon points="77.361 294.919 115.079 294.919 115.079 233.754 77.361 294.919" style="fill:#031e28"/><polygon points="115.079 356.084 77.361 356.084 77.361 398.955 88.642 398.956 115.079 356.084" style="fill:#2a3d58"/><polygon points="88.642 398.956 115.079 398.956 115.079 356.084 88.642 398.956" style="fill:#031e28"/><polygon points="77.361 172.588 115.079 172.588 115.079 233.754 77.361 172.588" style="fill:#1de9b6"/><polygon points="115.079 233.754 77.361 233.754 77.361 172.589 115.079 233.754" style="fill:#031e28"/><polygon points="77.361 294.919 115.079 294.919 115.079 356.084 77.361 294.919" style="fill:#1de9b6"/><polygon points="115.079 356.084 77.361 356.084 77.361 294.919 115.079 356.084" style="fill:#031e28"/><rect x="124.34252" y="326.0156" width="3.54545" height="56.92576" style="fill:#031e28"/><rect x="174.38636" y="40.84862" width="15.14996" height="47.36947" transform="translate(363.92267 129.06671) rotate(-180)" style="fill:#fff"/><polygon points="177.361 34.175 192.511 34.175 189.536 40.849 174.386 40.849 177.361 34.175" style="fill:#1de9b6"/><polygon points="155.629 19.007 177.361 19.007 177.361 34.175 174.386 40.849 174.386 88.218 155.629 88.218 155.629 19.007" style="fill:#434d72"/><rect x="177.3609" y="19.00702" width="15.14996" height="15.16811" transform="translate(369.87175 53.18215) rotate(-180)" style="fill:#fff"/><polygon points="192.529 19.007 177.361 19.007 177.361 34.175 192.529 19.007" style="fill:#1de9b6"/><line x1="193.75098" y1="40.84864" x2="153.50895" y2="40.84862" style="fill:none;stroke:#1de9b6;stroke-miterlimit:10;stroke-width:1.25px"/><line x1="193.75098" y1="46.7164" x2="153.50894" y2="46.71637" style="fill:none;stroke:#1de9b6;stroke-miterlimit:10;stroke-width:1.25px"/><line x1="193.75097" y1="52.58415" x2="153.50893" y2="52.58413" style="fill:none;stroke:#1de9b6;stroke-miterlimit:10;stroke-width:1.25px"/><line x1="193.75096" y1="58.45191" x2="153.50892" y2="58.45188" style="fill:none;stroke:#1de9b6;stroke-miterlimit:10;stroke-width:1.25px"/><line x1="161.94652" y1="19.00702" x2="161.94652" style="fill:none;stroke:#434d72;stroke-miterlimit:10;stroke-width:1.25px"/><line x1="168.07968" y1="19.00702" x2="168.07968" y2="9.50351" style="fill:none;stroke:#434d72;stroke-miterlimit:10;stroke-width:1.25px"/><path d="M400.584,398.95572V354.38248a4.14086,4.14086,0,0,0-4.2002-4.2002H345.9844V39.9108a3.86382,3.86382,0,0,0-4.19971-4.2002H294.53518a3.86419,3.86419,0,0,0-4.2002,4.2002V398.95572Z" style="fill:#031e28"/><g style="clip-path:url(#b)"><rect x="298.53336" y="47.45475" width="29.11823" height="122.46376" style="fill:#2a3d58"/><rect x="280.50095" y="47.45475" width="18.03241" height="123.68353" style="fill:#173045"/><circle cx="305.98212" cy="73.29333" r="1.70073" style="fill:#1de9b6"/><circle cx="323.07448" cy="73.29333" r="1.70073" style="fill:#1de9b6"/><circle cx="331.62066" cy="73.29333" r="1.70073" style="fill:#1de9b6"/><circle cx="314.5283" cy="73.29333" r="1.70073" style="fill:#1de9b6"/><polyline points="304.421 63.54 312.314 63.54 317.484 67.304 332.858 67.304" style="fill:none;stroke:#1de9b6;stroke-miterlimit:10;stroke-width:1.25px"/><line x1="304.42068" y1="58.68159" x2="332.85839" y2="58.68159" style="fill:none;stroke:#1de9b6;stroke-miterlimit:10;stroke-width:1.25px"/><line x1="304.42068" y1="53.82316" x2="332.85839" y2="53.82316" style="fill:none;stroke:#1de9b6;stroke-miterlimit:10;stroke-width:1.25px"/><rect x="334.18706" y="115.88762" width="19.97271" height="283.06759" style="fill:#434d72"/><rect x="318.2522" y="115.88762" width="15.93486" height="15.93487" style="fill:#031e28"/><rect x="318.2522" y="131.82248" width="15.93486" height="247.31985" style="fill:#434d72"/><rect x="302.31734" y="147.75735" width="15.93486" height="211.20392" style="fill:#434d72"/><rect x="302.31734" y="131.82248" width="15.93486" height="15.93487" style="fill:#031e28"/><rect x="286.38248" y="147.75735" width="15.93486" height="85.29106" style="fill:#031e28"/><path d="M313.97209,398.95513V167.78227a12.28354,12.28354,0,0,1,12.24753-12.24754h0a12.28354,12.28354,0,0,1,12.24753,12.24754l0,231.173Z" style="fill:#01293c"/><path d="M338.46718,398.9552V167.78229a12.28352,12.28352,0,0,0-12.24753-12.24761,12.11774,12.11774,0,0,0-3.98367.68251,12.28522,12.28522,0,0,1,8.26378,11.5651V398.9552Z" style="fill:#031e28"/><rect x="294.33778" y="222.15735" width="27.22938" height="80.21094" transform="translate(615.90486 524.52574) rotate(-179.99998)" style="fill:#fff"/><rect x="249.89084" y="222.15734" width="44.44694" height="85.50321" transform="translate(544.22852 529.81797) rotate(-179.99998)" style="fill:#434d72"/><rect x="257.18146" y="213.11363" width="29.86584" height="9.0437" transform="translate(544.22868 435.27106) rotate(-179.99998)" style="fill:#434d72"/><polyline points="287.047 213.114 272.114 202.946 257.181 213.114" style="fill:#434d72"/><rect x="287.0473" y="213.11364" width="29.86584" height="9.0437" transform="translate(603.96037 435.27109) rotate(-179.99998)" style="fill:#fff"/><polyline points="287.047 213.114 301.98 202.946 316.913 213.114" style="fill:#fff"/><polygon points="272.114 202.946 301.98 202.946 287.047 213.114 272.114 202.946" style="fill:#1de9b6"/><line x1="323.77326" y1="222.15735" x2="247.58708" y2="222.15733" style="fill:none;stroke:#fff;stroke-miterlimit:10;stroke-width:1.25px"/><line x1="323.77325" y1="228.02511" x2="247.58707" y2="228.02508" style="fill:none;stroke:#fff;stroke-miterlimit:10;stroke-width:1.25px"/><line x1="323.77325" y1="233.89286" x2="247.58707" y2="233.89284" style="fill:none;stroke:#fff;stroke-miterlimit:10;stroke-width:1.25px"/><line x1="323.77324" y1="239.76062" x2="247.58706" y2="239.76059" style="fill:none;stroke:#fff;stroke-miterlimit:10;stroke-width:1.25px"/></g><rect x="298.74723" y="291.20134" width="19.53633" height="107.75387" transform="translate(617.0308 690.15654) rotate(-180)" style="fill:#fff"/><rect x="257.71202" y="291.20134" width="41.02081" height="107.75387" transform="translate(556.44485 690.15654) rotate(-180)" style="fill:#c3cbd8"/><polygon points="259.594 291.284 296.879 291.201 296.879 279.146 259.594 279.229 259.594 291.284" style="fill:#c3cbd8"/><polygon points="296.879 291.284 316.936 291.201 316.936 279.146 296.879 279.229 296.879 291.284" style="fill:#fff"/><polyline points="279.651 279.229 279.651 266.122 300.204 266.122 316.936 279.229" style="fill:#1de9b6"/><polyline points="296.879 279.229 300.204 266.122 276.326 266.122 259.594 279.229" style="fill:#031e28"/><rect x="304.0154" y="299.40962" width="8.99999" height="6.92898" transform="translate(617.03079 605.74823) rotate(-180)" style="fill:#1de9b6"/><rect x="304.0154" y="315.57696" width="8.99999" height="6.92898" transform="translate(617.03079 638.0829) rotate(-180)" style="fill:#1de9b6"/><rect x="304.0154" y="331.7443" width="8.99999" height="6.92898" transform="translate(617.03079 670.41758) rotate(-180)" style="fill:#1de9b6"/><rect x="304.0154" y="347.91164" width="8.99999" height="6.92898" transform="translate(617.03079 702.75226) rotate(-180)" style="fill:#1de9b6"/><rect x="304.0154" y="380.24632" width="8.99999" height="6.92898" transform="translate(617.03079 767.42161) rotate(-180)" style="fill:#1de9b6"/><rect x="304.0154" y="364.07898" width="8.99999" height="6.92898" transform="translate(617.03079 735.08693) rotate(-180)" style="fill:#1de9b6"/><rect x="281.7295" y="299.40962" width="8.99999" height="6.92898" transform="translate(572.45899 605.74823) rotate(-180)" style="fill:#01293c"/><rect x="281.7295" y="315.57696" width="8.99999" height="6.92898" transform="translate(572.45899 638.0829) rotate(-180)" style="fill:#01293c"/><rect x="281.7295" y="331.7443" width="8.99999" height="6.92898" transform="translate(572.45899 670.41758) rotate(-180)" style="fill:#01293c"/><rect x="281.7295" y="347.91164" width="8.99999" height="6.92898" transform="translate(572.45899 702.75226) rotate(-180)" style="fill:#01293c"/><rect x="281.7295" y="380.24632" width="8.99999" height="6.92898" transform="translate(572.45899 767.42161) rotate(-180)" style="fill:#01293c"/><rect x="281.7295" y="364.07898" width="8.99999" height="6.92898" transform="translate(572.45899 735.08693) rotate(-180)" style="fill:#01293c"/><rect x="265.46711" y="299.40962" width="8.99999" height="6.92898" transform="translate(539.93421 605.74823) rotate(-180)" style="fill:#01293c"/><rect x="265.46711" y="315.57696" width="8.99999" height="6.92898" transform="translate(539.93421 638.0829) rotate(-180)" style="fill:#01293c"/><rect x="265.46711" y="331.7443" width="8.99999" height="6.92898" transform="translate(539.93421 670.41758) rotate(-180)" style="fill:#01293c"/><rect x="265.46711" y="347.91164" width="8.99999" height="6.92898" transform="translate(539.93421 702.75226) rotate(-180)" style="fill:#01293c"/><rect x="265.46711" y="380.24632" width="8.99999" height="6.92898" transform="translate(539.93421 767.42161) rotate(-180)" style="fill:#01293c"/><rect x="265.46711" y="364.07898" width="8.99999" height="6.92898" transform="translate(539.93421 735.08693) rotate(-180)" style="fill:#01293c"/><path d="M84.60809,396.95412H53.15558v-.00052H0V595.83791H0V952.68972H92.21469v201.47339H471.24294v-95.33939h117.518v-106.134h95.36724V396.95412H629.53033m-349.62878,0H190.65692m254.61823,0H390.15057m181.63214,0H503.02344" style="fill:#0f2631"/><rect x="111.87359" y="396.95412" width="64.4543" height="187.23839" style="fill:#031e28"/><rect x="228.16385" y="524.89079" width="64.4543" height="113.58048" style="fill:#031e28"/><rect x="309.76318" y="396.95412" width="64.4543" height="177.22885" style="fill:#031e28"/><rect x="507.65277" y="396.95412" width="64.4543" height="187.23839" style="fill:#031e28"/><rect x="111.87359" y="524.89079" width="168.02796" height="59.30172" style="fill:#031e28"/><rect x="237.07464" y="524.89079" width="318.12011" height="59.30172" style="fill:#031e28"/><rect x="163.99056" y="668.52845" width="366.87795" height="149.29241" style="fill:#2a3d58"/><polygon points="522.676 809.54 172.271 809.54 172.271 676.809 349.586 676.809 522.676 676.809 522.676 809.54" style="fill:#434d72"/><rect x="143.25166" y="668.52845" width="20.73889" height="149.29241" style="fill:#031e28"/><line x1="530.86851" y1="750.34291" x2="684.12817" y2="750.34291" style="fill:none;stroke:#1de9b6;stroke-miterlimit:10;stroke-width:1.25px"/><line y1="750.34291" x2="153.62111" y2="750.34291" style="fill:none;stroke:#1de9b6;stroke-miterlimit:10;stroke-width:1.25px"/><line x1="530.86851" y1="733.78761" x2="684.12817" y2="733.78761" style="fill:none;stroke:#1de9b6;stroke-miterlimit:10;stroke-width:1.25px"/><line y1="733.78761" x2="153.62111" y2="733.78761" style="fill:none;stroke:#1de9b6;stroke-miterlimit:10;stroke-width:1.25px"/><rect x="1.42682" y="396.9536" width="682.70135" height="254.43102" style="fill:none"/><line x1="640.9375" y1="953.18981" x2="640.9375" y2="945.50354" style="fill:none;stroke:#1de9b6;stroke-miterlimit:10;stroke-width:1.25px"/><line x1="347.29483" y1="808.79102" x2="347.29483" y2="676.80919" style="fill:none;stroke:#737e90;stroke-miterlimit:10;stroke-width:1.25px;opacity:0.5"/><path d="M369.92307,689.91373h3.19238a2.1133,2.1133,0,0,1,2.34229,2.13477,1.98489,1.98489,0,0,1-1.64355,2.16309,3.10917,3.10917,0,0,1,.60449.6416l1.67188,2.0498h-1.88867l-1.29443-1.59668c-.72705-.8877-.84033-.93457-1.3125-.93457h-.085V696.903h-1.58691Zm2.87109,3.19238c.73682,0,1.05811-.36816,1.05811-.94434a.91528.91528,0,0,0-.9917-.96387H371.51v1.9082Z" style="fill:#1de9b6"/><path d="M378.70237,689.91373h4.94922v1.28418h-3.3623v1.4834h3.16406v1.25586h-3.16406v1.68164h3.45654V696.903h-5.04346Z" style="fill:#1de9b6"/><path d="M390.33372,693.07779h2.82373v2.21973a3.11049,3.11049,0,0,1-3.02246,1.7002c-2.23828,0-3.334-1.37012-3.334-3.55176,0-2.23828,1.2373-3.627,3.42871-3.627a3.00118,3.00118,0,0,1,2.82422,1.49219l-1.2373.79395a1.74986,1.74986,0,0,0-1.625-.98242c-1.09521,0-1.78516.82129-1.78516,2.2002,0,1.5498.64258,2.38965,1.79492,2.38965a1.501,1.501,0,0,0,1.40723-.66113v-.73633h-1.2749Z" style="fill:#1de9b6"/><path d="M396.46751,689.91373h1.58691V696.903h-1.58691Z" style="fill:#1de9b6"/><path d="M402.75461,694.57a1.27247,1.27247,0,0,0,1.4165,1.15234c.7085,0,1.07715-.32129,1.07715-.708,0-1.42676-3.84424-.5293-3.84424-3.02246a2.174,2.174,0,0,1,2.45557-2.17285c1.87988,0,2.72021.916,2.85254,2.34277h-1.53955a1.15564,1.15564,0,0,0-1.25635-1.06738c-.67041,0-.92578.33984-.92578.72754,0,1.34082,3.854.415,3.854,3.0791,0,1.26563-1.00146,2.09668-2.60693,2.09668-1.95508,0-2.90918-.75586-3.01318-2.42773Z" style="fill:#1de9b6"/><path d="M411.62815,691.19791h-2.05859v-1.28418h5.69531v1.28418h-2.0498V696.903h-1.58691Z" style="fill:#1de9b6"/><path d="M418.1218,689.91373H423.071v1.28418h-3.3623v1.4834h3.16406v1.25586h-3.16406v1.68164h3.45654V696.903H418.1218Z" style="fill:#1de9b6"/><path d="M426.38157,689.91373H429.574a2.1133,2.1133,0,0,1,2.34229,2.13477,1.98489,1.98489,0,0,1-1.64355,2.16309,3.10917,3.10917,0,0,1,.60449.6416l1.67188,2.0498h-1.88867l-1.29443-1.59668c-.72705-.8877-.84033-.93457-1.3125-.93457h-.085V696.903h-1.58691Zm2.87109,3.19238c.73682,0,1.05811-.36816,1.05811-.94434a.91528.91528,0,0,0-.9917-.96387h-1.35059v1.9082Z" style="fill:#1de9b6"/></svg>