<svg width="1024" height="1024" viewBox="0 0 24 24" fill="none" xmlns="http://www.w3.org/2000/svg">
<path fill-rule="evenodd" clip-rule="evenodd" d="M11.9023 19.8258L17.8537 16.3898L11.9023 12.9333V19.8258Z" fill="#2A3D58"/>
<path fill-rule="evenodd" clip-rule="evenodd" d="M11.9023 19.8258L5.95117 16.3898L11.9023 12.9333V19.8258Z" fill="#0F2631"/>
<path fill-rule="evenodd" clip-rule="evenodd" d="M17.8537 9.49756L11.9023 12.9335L17.8537 16.39V9.49756Z" fill="#0F2631"/>
<path fill-rule="evenodd" clip-rule="evenodd" d="M17.8538 9.49756L23.8049 12.9335L17.8538 16.39V9.49756Z" fill="#2A3D58"/>
<path fill-rule="evenodd" clip-rule="evenodd" d="M5.95114 9.49756L0 12.9335L5.95114 16.39V9.49756Z" fill="#0F2631"/>
<path fill-rule="evenodd" clip-rule="evenodd" d="M5.95117 9.49756L11.9023 12.9335L5.95117 16.39V9.49756Z" fill="#2A3D58"/>
<path fill-rule="evenodd" clip-rule="evenodd" d="M11.9023 10.3489L17.8537 6.913L11.9023 3.45654V10.3489Z" fill="#2A3D58"/>
<path fill-rule="evenodd" clip-rule="evenodd" d="M11.9023 10.3489L5.95117 6.913L11.9023 3.45654V10.3489Z" fill="#0F2631"/>
<path fill-rule="evenodd" clip-rule="evenodd" d="M17.8537 0.0205078L11.9023 3.45646L17.8537 6.91291V0.0205078Z" fill="#0F2631"/>
<path fill-rule="evenodd" clip-rule="evenodd" d="M17.8538 0.0205078L23.8049 3.45646L17.8538 6.91291V0.0205078Z" fill="#2A3D58"/>
<path fill-rule="evenodd" clip-rule="evenodd" d="M5.95114 0.0205078L0 3.45646L5.95114 6.91291V0.0205078Z" fill="#0F2631"/>
<path fill-rule="evenodd" clip-rule="evenodd" d="M5.95117 0.0205078L11.9023 3.45646L5.95117 6.91291V0.0205078Z" fill="#2A3D58"/>
</svg>
