<svg xmlns="http://www.w3.org/2000/svg" xmlns:xlink="http://www.w3.org/1999/xlink" viewBox="0 0 3246.17326 1205.28503"><defs><clipPath id="a"><rect y="496.7588" width="3246.17326" height="708.52622" style="fill:none"/></clipPath><linearGradient id="b" x1="-963.08593" y1="437.49116" x2="-525.60997" y2="437.49116" gradientTransform="translate(1550.34076 874.98231) rotate(180) scale(0.27092 1)" gradientUnits="userSpaceOnUse"><stop offset="0" stop-color="#0e2f3b" stop-opacity="0"/><stop offset="1" stop-color="#0e2f3b" stop-opacity="0.3"/></linearGradient><linearGradient id="c" x1="-1109.47044" y1="437.49116" x2="-671.99448" y2="437.49116" gradientTransform="matrix(-0.27092, 0, 0, 1, 1273.31187, 0)" xlink:href="#b"/><linearGradient id="d" x1="1689.80929" y1="603.27523" x2="1868.05481" y2="603.27523" gradientTransform="translate(238.57536 -289.27911)" gradientUnits="userSpaceOnUse"><stop offset="0" stop-color="#52575b"/><stop offset="1" stop-color="#8f8e91"/></linearGradient><linearGradient id="e" x1="1838.69924" y1="-34.09194" x2="1940.2452" y2="-34.09194" gradientTransform="translate(392.48697 337.73001)" gradientUnits="userSpaceOnUse"><stop offset="0.09785" stop-color="#0e2f3b"/><stop offset="0.90024" stop-color="#2a3d58"/></linearGradient><linearGradient id="f" x1="1889.47222" y1="-117.71283" x2="1889.47222" y2="31.48958" gradientTransform="translate(392.48697 337.73001)" gradientUnits="userSpaceOnUse"><stop offset="0" stop-color="#50468e"/><stop offset="1" stop-color="#705c84"/></linearGradient><linearGradient id="g" x1="4874.30681" y1="-796.02797" x2="4889.22029" y2="-796.02797" gradientTransform="matrix(0, 1, 1, 0.00001, 2877.54152, -4449.53296)" xlink:href="#d"/><linearGradient id="h" x1="4874.29853" y1="-218.45206" x2="4889.21201" y2="-218.45206" gradientTransform="matrix(0, 1, -1, 0.00001, 2528.40202, -4449.53296)" xlink:href="#d"/><linearGradient id="i" x1="4900.24804" y1="-525.01296" x2="4915.16155" y2="-525.01296" gradientTransform="matrix(0, 1, -1.00001, 0.00001, 1957.39839, -4475.4858)" xlink:href="#d"/><linearGradient id="j" x1="4900.2479" y1="-514.20373" x2="4915.1614" y2="-514.20373" gradientTransform="matrix(0, 1, 1.00001, 0.00001, 2860.15801, -4475.4858)" xlink:href="#d"/><linearGradient id="k" x1="4528.66693" y1="-1033.19073" x2="4543.58046" y2="-1033.19073" gradientTransform="matrix(0, -1, -1, -0.00001, 920.31009, 4968.3276)" xlink:href="#d"/><linearGradient id="l" x1="5176.48989" y1="-1215.43084" x2="5191.40344" y2="-1215.43084" gradientTransform="matrix(0, 1, 1, 0.00001, 2912.92304, -4864.69132)" xlink:href="#d"/><linearGradient id="m" x1="4072.9258" y1="-1305.2045" x2="4087.83933" y2="-1305.2045" gradientTransform="matrix(1, 0, 0.00002, -1.00001, -2446.88459, -209.23398)" xlink:href="#d"/><linearGradient id="n" x1="5745.21005" y1="-864.44692" x2="5760.1236" y2="-864.44692" gradientTransform="matrix(-1, 0, -0.00002, 1.00001, 7386.13221, 1783.36695)" xlink:href="#d"/><linearGradient id="o" x1="4157.62558" y1="-1305.2045" x2="4172.53911" y2="-1305.2045" gradientTransform="matrix(1, 0, 0.00002, -1.00001, -2446.88459, -209.23398)" xlink:href="#d"/><linearGradient id="p" x1="5660.51027" y1="-864.44692" x2="5675.42382" y2="-864.44692" gradientTransform="matrix(-1, 0, -0.00002, 1.00001, 7386.13221, 1783.36695)" xlink:href="#d"/><linearGradient id="q" x1="3988.22602" y1="-1305.2045" x2="4003.13955" y2="-1305.2045" gradientTransform="matrix(1, 0, 0.00002, -1.00001, -2446.88459, -209.23398)" xlink:href="#d"/><linearGradient id="r" x1="5829.90983" y1="-864.44692" x2="5844.82338" y2="-864.44692" gradientTransform="matrix(-1, 0, -0.00002, 1.00001, 7386.13221, 1783.36695)" xlink:href="#d"/><linearGradient id="s" x1="4270.53136" y1="-1101.02471" x2="4285.44489" y2="-1101.02471" gradientTransform="matrix(-1, 0, -0.00002, -1.00001, 5883.24092, -209.23398)" xlink:href="#d"/><linearGradient id="t" x1="5434.62623" y1="-1281.86497" x2="5449.53977" y2="-1281.86497" gradientTransform="matrix(1, 0, 0.00002, 1.00001, -3949.77588, 1783.36695)" xlink:href="#d"/><linearGradient id="u" x1="4312.0358" y1="-1101.02471" x2="4326.94933" y2="-1101.02471" gradientTransform="matrix(1, 0, 0.00002, -1.00001, -2657.78859, -209.23398)" xlink:href="#d"/><linearGradient id="v" x1="5393.12178" y1="-1281.86497" x2="5408.03533" y2="-1281.86497" gradientTransform="matrix(-1, 0, -0.00002, 1.00001, 7175.22821, 1783.36695)" xlink:href="#d"/><linearGradient id="w" x1="2632.85729" y1="-2470.57438" x2="2708.86803" y2="-2470.57438" gradientTransform="translate(-117.85789 2810.80825)" xlink:href="#e"/><linearGradient id="x" x1="2632.85729" y1="-2479.59406" x2="2708.86803" y2="-2479.59406" gradientTransform="translate(-126.87754 2819.82793)" gradientUnits="userSpaceOnUse"><stop offset="0" stop-color="#518989"/><stop offset="1" stop-color="#828d79"/></linearGradient><linearGradient id="y" x1="2060.01634" y1="-2095.65812" x2="2161.56243" y2="-2095.65812" gradientTransform="translate(704.57884 2423.12433)" xlink:href="#e"/><linearGradient id="z" x1="2110.78908" y1="-2179.27904" x2="2110.78908" y2="-2030.07668" gradientTransform="translate(695.55916 2432.14402)" xlink:href="#f"/><linearGradient id="aa" x1="3038.4684" y1="308.12591" x2="3114.47915" y2="308.12591" gradientTransform="matrix(1, 0, 0, 1, 0, 0)" xlink:href="#e"/><linearGradient id="ab" x1="3038.4684" y1="299.10623" x2="3114.47915" y2="299.10623" gradientTransform="matrix(1, 0, 0, 1, 0, 0)" xlink:href="#x"/><linearGradient id="ac" x1="4900.25491" y1="-1053.91089" x2="4915.16842" y2="-1053.91089" gradientTransform="matrix(0, 1, -1.00001, 0.00001, 1957.39839, -4475.4858)" xlink:href="#d"/><linearGradient id="ad" x1="4900.24102" y1="14.69418" x2="4915.15453" y2="14.69418" gradientTransform="matrix(0, 1, 1.00001, 0.00001, 2860.15801, -4475.4858)" xlink:href="#d"/><linearGradient id="ae" x1="3523.13155" y1="603.27523" x2="3701.37707" y2="603.27523" gradientTransform="translate(-2362.7913 -289.27911)" xlink:href="#d"/><linearGradient id="af" x1="3672.0215" y1="-34.09194" x2="3773.56746" y2="-34.09194" gradientTransform="translate(-2737.78325 337.73001)" xlink:href="#e"/><linearGradient id="ag" x1="3722.79448" y1="-117.71283" x2="3722.79448" y2="31.48958" gradientTransform="translate(-2737.78325 337.73001)" xlink:href="#f"/><linearGradient id="ah" x1="4874.29632" y1="-64.29318" x2="4889.20981" y2="-64.29318" gradientTransform="matrix(0, 1, -1, 0.00001, 1121.1661, -4449.53296)" xlink:href="#d"/><linearGradient id="ai" x1="4874.30901" y1="-950.18685" x2="4889.2225" y2="-950.18685" gradientTransform="matrix(0, 1, 1, 0.00001, 1470.30561, -4449.53296)" xlink:href="#d"/><linearGradient id="aj" x1="4900.25754" y1="-1256.74649" x2="4915.17105" y2="-1256.74649" gradientTransform="matrix(0, 1, 1.00001, 0.00001, 2041.30924, -4475.4858)" xlink:href="#d"/><linearGradient id="ak" x1="4900.23839" y1="217.52981" x2="4915.1519" y2="217.52981" gradientTransform="matrix(0, 1, -1.00001, 0.00001, 1138.54962, -4475.4858)" xlink:href="#d"/><linearGradient id="al" x1="4528.67741" y1="-1764.92552" x2="4543.59094" y2="-1764.92552" gradientTransform="matrix(0, -1, 1, -0.00001, 3078.39754, 4968.3276)" xlink:href="#d"/><linearGradient id="am" x1="5176.47941" y1="-483.69605" x2="5191.39296" y2="-483.69605" gradientTransform="matrix(0, 1, -1, 0.00001, 1085.78459, -4864.69132)" xlink:href="#d"/><linearGradient id="an" x1="2632.85774" y1="-637.25207" x2="2708.86848" y2="-637.25207" gradientTransform="translate(-1947.85942 977.48599)" xlink:href="#e"/><linearGradient id="ao" x1="2632.85774" y1="-646.27175" x2="2708.86848" y2="-646.27175" gradientTransform="translate(-1956.87907 986.50567)" xlink:href="#x"/><linearGradient id="ap" x1="2060.01634" y1="-262.33584" x2="2161.56243" y2="-262.33584" gradientTransform="translate(-1650.16734 589.80207)" xlink:href="#e"/><linearGradient id="aq" x1="2110.78908" y1="-345.95678" x2="2110.78908" y2="-196.75442" gradientTransform="translate(-1659.18703 598.82176)" xlink:href="#f"/><linearGradient id="ar" x1="4871.79067" y1="308.12591" x2="4947.80141" y2="308.12591" gradientTransform="translate(-4719.2994)" xlink:href="#e"/><linearGradient id="as" x1="4871.79067" y1="299.10623" x2="4947.80141" y2="299.10623" gradientTransform="translate(-4719.2994)" xlink:href="#x"/><linearGradient id="at" x1="4900.26442" y1="-1785.64442" x2="4915.17792" y2="-1785.64442" gradientTransform="matrix(0, 1, 1.00001, 0.00001, 2041.30924, -4475.4858)" xlink:href="#d"/><linearGradient id="au" x1="4900.23152" y1="746.42771" x2="4915.14503" y2="746.42771" gradientTransform="matrix(0, 1, -1.00001, 0.00001, 1138.54962, -4475.4858)" xlink:href="#d"/><linearGradient id="av" x1="1768.32756" y1="538.52155" x2="1768.32756" y2="496.7528" gradientUnits="userSpaceOnUse"><stop offset="0.00455" stop-color="#0e2f3b" stop-opacity="0"/><stop offset="1" stop-color="#0e2f3b"/></linearGradient><linearGradient id="aw" x1="1498.62921" y1="538.52155" x2="1498.62921" y2="496.75667" gradientTransform="translate(2997.25843 1035.27822) rotate(180)" xlink:href="#av"/><linearGradient id="ax" x1="-665.87211" y1="851.01569" x2="-125.43953" y2="851.01569" gradientTransform="matrix(-0.27092, 0, 0, 1, 1777.27723, 0)" xlink:href="#b"/><linearGradient id="ay" x1="-125.43969" y1="830.45645" x2="367.82716" y2="830.45645" gradientTransform="matrix(-0.27092, 0, 0, 1, 1777.27723, 0)" xlink:href="#b"/><linearGradient id="az" x1="-945.80687" y1="830.45645" x2="-452.54002" y2="830.45645" gradientTransform="translate(1332.76683 1660.91289) rotate(180) scale(0.27092 1)" xlink:href="#b"/><linearGradient id="ba" x1="1372.44515" y1="1304.48579" x2="1417.33024" y2="1304.48579" gradientTransform="translate(238.57536 -289.27911)" xlink:href="#e"/><linearGradient id="bb" x1="1611.0205" y1="1007.20027" x2="1655.90559" y2="1007.20027" gradientTransform="matrix(1, 0, 0, 1, 0, 0)" xlink:href="#d"/><linearGradient id="bc" x1="1590.04401" y1="1300.86391" x2="1634.9291" y2="1300.86391" gradientTransform="translate(169.84098 -655.74405)" xlink:href="#e"/><linearGradient id="bd" x1="1828.61936" y1="1003.5784" x2="1873.50446" y2="1003.5784" gradientTransform="translate(-76.74057 -358.45817)" xlink:href="#f"/><radialGradient id="be" cx="1633.35393" cy="1059.66188" r="149.08529" gradientTransform="translate(3266.70786 2119.32375) rotate(180)" gradientUnits="userSpaceOnUse"><stop offset="0" stop-color="#0e2f3b" stop-opacity="0"/><stop offset="1" stop-color="#0e2f3b"/></radialGradient><linearGradient id="bf" x1="1590.04391" y1="1018.70927" x2="1634.929" y2="1018.70927" gradientTransform="translate(-112.31354 -373.58916)" xlink:href="#e"/><linearGradient id="bg" x1="1828.61926" y1="721.42375" x2="1873.50436" y2="721.42375" gradientTransform="translate(-358.89511 -76.30328)" gradientUnits="userSpaceOnUse"><stop offset="0" stop-color="#518989"/><stop offset="0.26496" stop-color="#578987"/><stop offset="0.60608" stop-color="#678b82"/><stop offset="0.98748" stop-color="#818d79"/><stop offset="1" stop-color="#828d79"/></linearGradient><radialGradient id="bh" cx="152.56377" cy="587.83408" r="125.63008" gradientTransform="translate(1455.78115 3137.29068) rotate(180) scale(3.83629 3.88932)" xlink:href="#be"/><radialGradient id="bi" cx="532.05887" cy="587.83408" r="125.58607" gradientTransform="translate(4482.4964 3137.29068) rotate(180) scale(3.9023 3.88932)" xlink:href="#be"/><linearGradient id="bj" x1="1614.22273" y1="236.09194" x2="1652.74607" y2="236.09194" gradientTransform="matrix(1, 0, 0, 1, 0, 0)" xlink:href="#e"/><linearGradient id="bk" x1="1607.37112" y1="255.9053" x2="1659.59768" y2="255.9053" gradientTransform="matrix(1, 0, 0, 1, 0, 0)" xlink:href="#e"/><linearGradient id="bl" x1="1227.0498" y1="394.0289" x2="1562.76829" y2="394.0289" gradientTransform="translate(238.57536 -289.27911)" gradientUnits="userSpaceOnUse"><stop offset="0" stop-color="#0f2631"/><stop offset="1" stop-color="#2a3d58"/></linearGradient><linearGradient id="bm" x1="914.70626" y1="851.01569" x2="1455.99098" y2="851.01569" gradientTransform="translate(1703.18341 1702.03138) rotate(180) scale(0.27092 1)" xlink:href="#b"/><linearGradient id="bo" x1="-1744.63795" y1="341.95331" x2="-1525.90025" y2="341.95331" gradientTransform="translate(806.43295 749.81415) rotate(180) scale(0.27092 1)" xlink:href="#b"/><linearGradient id="bp" x1="-1744.63808" y1="77.50187" x2="-1525.90038" y2="77.50187" gradientTransform="translate(541.98144 485.36271) rotate(180) scale(0.27092 1)" xlink:href="#b"/><linearGradient id="bq" x1="-1744.63821" y1="-186.94592" x2="-1525.90051" y2="-186.94592" gradientTransform="translate(277.53359 220.91493) rotate(180) scale(0.27092 1)" xlink:href="#b"/><linearGradient id="br" x1="-1744.63834" y1="-451.39736" x2="-1525.90064" y2="-451.39736" gradientTransform="translate(13.08208 -43.53651) rotate(180) scale(0.27092 1)" xlink:href="#b"/><linearGradient id="bs" x1="-1744.63847" y1="-715.84748" x2="-1525.90076" y2="-715.84748" gradientTransform="translate(-251.36811 -307.98663) rotate(180) scale(0.27092 1)" xlink:href="#b"/><linearGradient id="bt" x1="-1635.26907" y1="341.95333" x2="-1525.90017" y2="341.95333" gradientTransform="translate(821.24827 734.99907) rotate(180) scale(0.27092 1)" xlink:href="#b"/><linearGradient id="bu" x1="-1635.2692" y1="77.50189" x2="-1525.9003" y2="77.50189" gradientTransform="translate(556.79669 470.54764) rotate(180) scale(0.27092 1)" xlink:href="#b"/><linearGradient id="bv" x1="-1635.26933" y1="-186.9459" x2="-1525.90043" y2="-186.9459" gradientTransform="translate(292.34877 206.09985) rotate(180) scale(0.27092 1)" xlink:href="#b"/><linearGradient id="bw" x1="-1635.26945" y1="-451.39734" x2="-1525.90056" y2="-451.39734" gradientTransform="translate(27.89719 -58.35159) rotate(180) scale(0.27092 1)" xlink:href="#b"/><linearGradient id="bx" x1="-1635.26958" y1="-715.84746" x2="-1525.90069" y2="-715.84746" gradientTransform="translate(-236.55307 -322.80171) rotate(180) scale(0.27092 1)" xlink:href="#b"/><linearGradient id="by" x1="-1744.63701" y1="2167.79872" x2="-1525.8993" y2="2167.79872" gradientTransform="translate(2632.27882 2575.6595) rotate(180) scale(0.27092 1)" xlink:href="#b"/><linearGradient id="bz" x1="-1744.63713" y1="1903.34728" x2="-1525.89943" y2="1903.34728" gradientTransform="translate(2367.82731 2311.20807) rotate(180) scale(0.27092 1)" xlink:href="#b"/><linearGradient id="ca" x1="-1744.63726" y1="1638.89949" x2="-1525.89956" y2="1638.89949" gradientTransform="translate(2103.37946 2046.76028) rotate(180) scale(0.27092 1)" xlink:href="#b"/><linearGradient id="cb" x1="-1744.63739" y1="1374.44805" x2="-1525.89969" y2="1374.44805" gradientTransform="translate(1838.92795 1782.30884) rotate(180) scale(0.27092 1)" xlink:href="#b"/><linearGradient id="cc" x1="-1744.63752" y1="1109.99792" x2="-1525.89981" y2="1109.99792" gradientTransform="translate(1574.47776 1517.85872) rotate(180) scale(0.27092 1)" xlink:href="#b"/><linearGradient id="cd" x1="-1635.26818" y1="2167.79874" x2="-1525.8993" y2="2167.79874" gradientTransform="translate(2647.0946 2560.84444) rotate(180) scale(0.27092 1)" xlink:href="#b"/><linearGradient id="ce" x1="-1635.26831" y1="1903.3473" x2="-1525.89943" y2="1903.3473" gradientTransform="translate(2382.64302 2296.393) rotate(180) scale(0.27092 1)" xlink:href="#b"/><linearGradient id="cf" x1="-1635.26843" y1="1638.8995" x2="-1525.89955" y2="1638.8995" gradientTransform="translate(2118.1951 2031.94522) rotate(180) scale(0.27092 1)" xlink:href="#b"/><linearGradient id="cg" x1="-1635.26856" y1="1374.44807" x2="-1525.89968" y2="1374.44807" gradientTransform="translate(1853.74352 1767.49378) rotate(180) scale(0.27092 1)" xlink:href="#b"/><linearGradient id="ch" x1="-1635.26869" y1="1109.99794" x2="-1525.89981" y2="1109.99794" gradientTransform="translate(1589.29326 1503.04366) rotate(180) scale(0.27092 1)" xlink:href="#b"/><linearGradient id="ci" x1="-1306.41723" y1="725.97623" x2="-1087.67953" y2="725.97623" gradientTransform="translate(1309.17939 1015.11363) rotate(180) scale(0.27092 1)" xlink:href="#b"/><linearGradient id="cj" x1="-1197.0484" y1="725.97625" x2="-1087.67952" y2="725.97625" gradientTransform="translate(1323.99479 1000.29854) rotate(180) scale(0.27092 1)" xlink:href="#b"/></defs><title>computers-bg</title><g style="isolation:isolate"><rect x="1455.69513" y="378.23679" width="355.56643" height="118.51521" style="fill:#0e2f3b"/><rect y="496.7588" width="3246.17326" height="708.52622" style="fill:#0e2f3b"/><g style="clip-path:url(#a)"><polygon points="1935.293 919.084 2019.101 835.276 2102.909 919.084 1935.293 919.084" style="fill:#8a8359"/><circle cx="2019.10287" cy="1019.42087" r="59.264" transform="translate(-220.06016 699.82073) rotate(-18.66559)" style="fill:#2a3d58"/><circle cx="2019.10274" cy="1019.42089" r="39.17071" transform="translate(-211.51118 644.77926) rotate(-17.25457)" style="fill:#0e2f3b"/><polygon points="2341.219 632.841 2341.219 751.363 2222.697 751.363 2341.219 632.841" style="fill:#2a3d58"/><polygon points="2341.219 869.57 2341.219 988.092 2222.697 988.092 2341.219 869.57" style="fill:#2a3d58"/><polygon points="2257.148 667.292 2306.767 667.292 2306.767 716.912 2257.148 667.292" style="fill:#828d79"/><polygon points="2306.767 716.912 2257.148 716.912 2257.148 667.292 2306.767 716.912" style="fill:#2a3d58"/><polygon points="2222.694 751.363 2341.216 751.363 2341.216 869.885 2222.694 751.363" style="fill:#518989"/><polygon points="2306.77 785.814 2306.77 835.434 2257.151 835.434 2306.77 785.814" style="fill:#0e2f3b"/><polygon points="2257.151 835.434 2257.151 785.814 2306.77 785.814 2257.151 835.434" style="fill:#2a3d58"/><polygon points="2222.694 1106.601 2222.694 988.078 2341.216 988.078 2222.694 1106.601" style="fill:#518989"/><polygon points="2257.145 1022.524 2306.765 1022.524 2306.764 1072.143 2257.145 1022.524" style="fill:#0e2f3b"/><polygon points="2306.764 1072.143 2257.145 1072.143 2257.145 1022.524 2306.764 1072.143" style="fill:#2a3d58"/><polygon points="2341.219 484.142 2341.219 602.664 2222.697 602.664 2341.219 484.142" style="fill:#0e2f3b"/><polygon points="2222.697 602.664 2222.697 484.142 2341.219 484.142 2222.697 602.664" style="fill:#2a3d58"/><polygon points="2281.958 493.784 2281.958 543.403 2232.338 543.403 2281.958 493.784" style="fill:#0e2f3b"/><polygon points="2487.286 893.792 2605.808 893.792 2605.808 1012.314 2487.286 893.792" style="fill:#2a3d58"/><polygon points="2630.354 626.721 2546.546 710.529 2462.738 626.721 2630.354 626.721" style="fill:#2a3d58"/><polygon points="2630.354 1163.381 2546.546 1247.189 2462.738 1163.381 2630.354 1163.381" style="fill:#2a3d58"/><circle cx="2546.54664" cy="526.38308" r="59.26404" transform="translate(-46.61005 720.07693) rotate(-15.95056)" style="fill:#2a3d58"/><circle cx="2546.54677" cy="526.38306" r="39.17073" transform="translate(-49.90395 669.29292) rotate(-14.82923)" style="fill:#0e2f3b"/><circle cx="2546.54664" cy="1074.43709" r="59.26404" transform="translate(-197.21954 741.17741) rotate(-15.95056)" style="fill:#2a3d58"/><circle cx="2546.54677" cy="1074.43708" r="39.17073" transform="translate(-190.17235 687.54697) rotate(-14.82923)" style="fill:#0e2f3b"/><polygon points="2870.139 658.235 2752.06 658.235 2752.061 540.157 2870.139 658.235" style="fill:#427aa0"/><polygon points="2752.06 658.235 2752.061 540.157 2870.139 540.157 2752.06 658.235" style="fill:#2a3d58"/><polygon points="2811.1 549.762 2811.1 599.196 2761.666 599.196 2811.1 549.762" style="fill:#0e2f3b"/><path d="M1981.73995,713.841h74.72254a6.793,6.793,0,0,1,6.793,6.793v0a6.793,6.793,0,0,1-6.793,6.793h-74.72255a6.793,6.793,0,0,1-6.793-6.793v0a6.793,6.793,0,0,1,6.793-6.793Z" transform="translate(4038.20186 1441.26946) rotate(-179.99996)" style="fill:#2a3d58"/><path d="M1981.73987,746.91379h74.72255a6.793,6.793,0,0,1,6.793,6.793v0a6.793,6.793,0,0,1-6.793,6.793h-74.72254a6.793,6.793,0,0,1-6.793-6.793v0a6.793,6.793,0,0,1,6.793-6.793Z" transform="translate(4038.2017 1507.41508) rotate(-179.99996)" style="fill:#2a3d58"/><path d="M1981.73981,779.9866h74.72255a6.793,6.793,0,0,1,6.793,6.793v0a6.793,6.793,0,0,1-6.793,6.793h-74.72256a6.793,6.793,0,0,1-6.793-6.793v0a6.793,6.793,0,0,1,6.793-6.793Z" transform="translate(4038.20153 1573.56071) rotate(-179.99996)" style="fill:#2a3d58"/><polygon points="2874.858 824.539 2756.544 824.539 2756.544 706.226 2874.858 824.539" style="fill:#427aa0"/><polygon points="2756.544 942.853 2756.544 824.539 2874.858 824.539 2756.544 942.853" style="fill:#638495"/><circle cx="2806.17713" cy="824.53919" r="39.10183" transform="matrix(0.34554, -0.93841, 0.93841, 0.34554, 1062.79196, 3172.96486)" style="fill:#0e2f3b"/><path d="M2786.91617,824.53936a19.2608,19.2608,0,1,0,38.52159.00025" style="fill:#427aa0"/><path d="M2771.57626,983.97192h74.72256a6.793,6.793,0,0,1,6.793,6.793v0a6.793,6.793,0,0,1-6.793,6.793h-74.72255a6.793,6.793,0,0,1-6.793-6.793v0a6.793,6.793,0,0,1,6.793-6.793Z" transform="translate(5617.87432 1981.53196) rotate(-179.99996)" style="fill:#2a3d58"/><path d="M2771.57621,1017.04474h74.72255a6.793,6.793,0,0,1,6.793,6.793v0a6.793,6.793,0,0,1-6.793,6.793h-74.72257a6.79295,6.79295,0,0,1-6.79295-6.79295v0a6.793,6.793,0,0,1,6.793-6.793Z" transform="translate(5617.87416 2047.67758) rotate(-179.99996)" style="fill:#2a3d58"/><path d="M2771.57614,1050.11755h74.72255a6.793,6.793,0,0,1,6.793,6.793v0a6.793,6.793,0,0,1-6.793,6.793h-74.72254a6.793,6.793,0,0,1-6.793-6.793v0a6.793,6.793,0,0,1,6.793-6.793Z" transform="translate(5617.87399 2113.82321) rotate(-179.99996)" style="fill:#2a3d58"/><polygon points="1331.673 935.761 1247.865 851.954 1164.058 935.761 1331.673 935.761" style="fill:#8a8359"/><polygon points="1195.473 766.835 1279.281 683.027 1195.473 599.219 1195.473 766.835" style="fill:#50468e"/><circle cx="1247.86354" cy="510.41018" r="59.26371" transform="translate(364.92824 1529.28565) rotate(-71.33441)" style="fill:#2a3d58"/><circle cx="1247.86366" cy="510.4102" r="39.1705" transform="translate(390.28539 1550.71871) rotate(-72.74543)" style="fill:#0e2f3b"/><polygon points="925.748 632.841 925.748 751.363 1044.27 751.363 925.748 632.841" style="fill:#2a3d58"/><polygon points="925.748 869.57 925.748 988.092 1044.27 988.092 925.748 869.57" style="fill:#2a3d58"/><polygon points="1009.818 667.292 960.199 667.292 960.199 716.912 1009.818 667.292" style="fill:#828d79"/><polygon points="960.199 716.912 1009.818 716.912 1009.818 667.292 960.199 716.912" style="fill:#2a3d58"/><polygon points="960.196 785.814 960.196 835.434 1009.816 835.434 960.196 785.814" style="fill:#0e2f3b"/><polygon points="1009.816 835.434 1009.816 785.814 960.196 785.814 1009.816 835.434" style="fill:#2a3d58"/><polygon points="925.748 1039.265 925.748 1157.787 1044.27 1157.787 925.748 1039.265" style="fill:#0e2f3b"/><polygon points="1044.27 1157.787 1044.27 1039.265 925.748 1039.266 1044.27 1157.787" style="fill:#2a3d58"/><polygon points="985.009 1048.907 985.009 1098.526 1034.628 1098.526 985.009 1048.907" style="fill:#0e2f3b"/><polygon points="720.421 776.372 804.229 692.564 720.421 608.756 720.421 776.372" style="fill:#2a3d58"/><polygon points="720.42 945.667 636.612 861.859 720.42 778.052 720.42 945.667" style="fill:#638495"/><polygon points="720.421 1245.99 804.229 1162.182 720.421 1078.374 720.421 1245.99" style="fill:#2a3d58"/><circle cx="720.41977" cy="526.38308" r="59.26373" transform="translate(16.32593 1074.41196) rotate(-74.04944)" style="fill:#2a3d58"/><circle cx="720.41964" cy="526.38306" r="39.17051" transform="translate(27.18537 1088.08569) rotate(-75.17077)" style="fill:#0e2f3b"/><polygon points="396.828 658.235 514.906 658.235 514.906 540.157 396.828 658.235" style="fill:#518989"/><polygon points="514.906 658.235 514.906 540.157 396.828 540.157 514.906 658.235" style="fill:#2a3d58"/><polygon points="455.867 549.762 455.867 599.196 505.3 599.196 455.867 549.762" style="fill:#0e2f3b"/><path d="M1210.50394,1009.56082h74.72254a6.793,6.793,0,0,1,6.793,6.793v0a6.793,6.793,0,0,1-6.793,6.793h-74.72255a6.793,6.793,0,0,1-6.793-6.793v0a6.793,6.793,0,0,1,6.793-6.793Z" style="fill:#2a3d58"/><path d="M1210.504,1042.63363h74.72255a6.793,6.793,0,0,1,6.793,6.793v0a6.793,6.793,0,0,1-6.793,6.793H1210.504a6.793,6.793,0,0,1-6.793-6.793v0a6.793,6.793,0,0,1,6.793-6.793Z" style="fill:#2a3d58"/><path d="M1210.50406,1075.70645h74.72256a6.793,6.793,0,0,1,6.793,6.793v0a6.793,6.793,0,0,1-6.793,6.793h-74.72255a6.793,6.793,0,0,1-6.793-6.793v0a6.793,6.793,0,0,1,6.793-6.793Z" style="fill:#2a3d58"/><polygon points="515.269 1057.116 396.955 1057.117 396.955 1175.43 515.269 1057.116" style="fill:#427aa0"/><polygon points="396.955 938.803 396.955 1057.117 515.269 1057.116 396.955 938.803" style="fill:#518989"/><circle cx="446.58829" cy="1057.11653" r="39.1017" transform="translate(-285.97484 173.77757) rotate(-16.76725)" style="fill:#0e2f3b"/><path d="M427.32731,1057.11638a19.26082,19.26082,0,1,1,38.52164-.00029" style="fill:#427aa0"/><path d="M420.66761,697.20608h74.72255a6.793,6.793,0,0,1,6.793,6.793v0a6.793,6.793,0,0,1-6.793,6.793H420.66758a6.793,6.793,0,0,1-6.793-6.793v0a6.793,6.793,0,0,1,6.793-6.793Z" style="fill:#2a3d58"/><path d="M420.66767,730.27889h74.72255a6.793,6.793,0,0,1,6.793,6.793v0a6.793,6.793,0,0,1-6.793,6.793H420.66766a6.793,6.793,0,0,1-6.793-6.793v0a6.793,6.793,0,0,1,6.793-6.793Z" style="fill:#2a3d58"/><path d="M420.66774,763.3517h74.72254a6.793,6.793,0,0,1,6.793,6.793v0a6.793,6.793,0,0,1-6.793,6.793H420.66772a6.793,6.793,0,0,1-6.793-6.793v0A6.793,6.793,0,0,1,420.66774,763.3517Z" style="fill:#2a3d58"/><polygon points="2045.143 486.774 1995.524 486.774 1995.524 536.393 2045.143 486.774" style="fill:#0e2f3b"/><polygon points="1995.524 536.393 2045.143 536.393 2045.143 486.774 1995.524 536.393" style="fill:#2a3d58"/><polygon points="2045.143 1180.475 1995.524 1180.475 1995.524 1230.095 2045.143 1180.475" style="fill:#0e2f3b"/><polygon points="1995.524 1230.095 2045.143 1230.095 2045.143 1180.475 1995.524 1230.095" style="fill:#2a3d58"/></g><rect x="1455.36971" y="496.76136" width="355.89185" height="708.52367" style="fill:#2a3d58;opacity:0.35000000000000003"/><polygon points="1785.886 1100.716 1481.212 1100.716 1480.972 914.039 1785.647 914.039 1785.886 1100.716" style="fill:#0e2f3b"/><polygon points="1692.745 378.233 1574.223 378.233 1574.223 259.711 1692.745 378.233" style="fill:#0e2f3b"/><polygon points="1574.223 259.717 1692.745 259.717 1692.745 378.239 1574.223 259.717" style="fill:#0e2f3b"/><polygon points="1633.484 318.97 1633.484 259.714 1574.228 259.714 1574.225 259.711 1574.225 318.97 1633.481 318.97 1633.484 318.973 1633.484 318.97 1633.484 318.97 1633.484 318.97" style="fill:#0e2f3b"/><polygon points="1692.745 378.231 1692.745 318.975 1633.488 318.975 1633.486 318.972 1633.486 378.231 1692.742 378.231 1692.745 378.234 1692.745 378.231 1692.745 378.231 1692.745 378.231" style="fill:#0e2f3b"/><polygon points="3016.048 378.23 3134.57 378.23 3134.57 496.752 3016.048 378.23" style="fill:#0e2f3b"/><polygon points="3134.57 496.752 3016.048 496.752 3016.048 378.23 3134.57 496.752" style="fill:#9b6053"/><circle cx="3075.30853" cy="437.49115" r="39.17063" style="fill:#9b6053"/><path d="M3061.66488,423.84765a19.29477,19.29477,0,1,0,27.28666,27.28719" style="fill:#0e2f3b"/><polygon points="2222.697 496.761 2222.697 378.239 2341.219 378.239 2222.697 496.761" style="fill:#518989"/><polygon points="2341.219 378.233 2341.219 496.755 2222.697 496.755 2341.219 378.233" style="fill:#0e2f3b"/><polygon points="2257.148 412.685 2306.767 412.685 2306.767 462.304 2257.148 412.685" style="fill:#0e2f3b"/><polygon points="2306.767 462.304 2257.148 462.304 2257.148 412.685 2306.767 462.304" style="fill:#2a3d58"/><polygon points="2751.597 496.752 2751.597 378.23 2870.119 378.23 2751.597 496.752" style="fill:#427aa0"/><polygon points="2870.119 378.224 2870.119 496.746 2751.597 496.746 2870.119 378.224" style="fill:#0e2f3b"/><rect x="2766.64527" y="463.80594" width="88.42599" height="13.604" rx="4.60484" style="fill:#0e2f3b"/><rect x="2766.64527" y="430.68918" width="88.42599" height="13.604" rx="4.60484" style="fill:#0e2f3b"/><rect x="2766.64527" y="397.57242" width="88.42599" height="13.604" rx="4.60484" style="fill:#0e2f3b"/><polygon points="2605.669 496.75 2487.147 496.75 2487.147 378.228 2605.669 496.75" style="fill:#2a3d58"/><polygon points="2487.147 378.233 2605.669 378.233 2605.669 496.755 2487.147 378.233" style="fill:#2a3d58"/><polygon points="2546.408 437.487 2546.408 378.231 2487.151 378.231 2487.148 378.228 2487.148 437.487 2546.405 437.487 2546.408 437.49 2546.408 437.487 2546.408 437.487 2546.408 437.487" style="fill:#0e2f3b"/><polygon points="2605.668 496.747 2605.668 437.491 2546.412 437.491 2546.409 437.488 2546.409 496.747 2605.665 496.747 2605.668 496.75 2605.668 496.747 2605.668 496.747 2605.668 496.747" style="fill:#0e2f3b"/><polygon points="1692.745 378.233 1574.223 378.233 1574.223 259.711 1692.745 378.233" style="fill:#2f4259"/><polygon points="1574.223 259.717 1692.745 259.717 1692.745 378.239 1574.223 259.717" style="fill:#0e2f3b"/><polygon points="1958.246 496.752 1958.246 378.23 2076.768 378.23 1958.246 496.752" style="fill:#0e2f3b"/><polygon points="2076.768 378.23 2076.768 496.752 1958.246 496.752 2076.768 378.23" style="fill:#0e2f3b"/><circle cx="2017.50741" cy="437.50301" r="59.264" transform="translate(-33.90471 668.70278) rotate(-18.66559)" style="fill:#2a3d58"/><polygon points="2076.768 496.758 1958.246 496.758 1958.246 378.236 2076.768 496.758" style="fill:#8a8359"/><circle cx="2017.50728" cy="437.50302" r="39.17071" transform="translate(-38.97586 618.1176) rotate(-17.25457)" style="fill:#0e2f3b"/><path d="M2031.151,451.14644a19.29473,19.29473,0,1,0-27.2867-27.287" style="fill:#8a8359"/><polygon points="1692.739 378.237 1692.739 496.759 1574.217 496.759 1692.739 378.237" style="fill:#2f4259"/><polygon points="1574.217 496.759 1574.217 378.237 1692.739 378.237 1574.217 496.759" style="fill:#2f4259"/><polygon points="1574.217 378.237 1574.217 496.759 1455.695 496.759 1574.217 378.237" style="fill:#0e2f3b"/><polygon points="1455.695 496.759 1455.695 378.237 1574.217 378.237 1455.695 496.759" style="fill:#0e2f3b"/><rect x="1596.11284" y="403.7619" width="74.7308" height="11.49699" rx="5.74849" transform="translate(3266.95625 819.0217) rotate(-179.99997)" style="fill:#0e2f3b"/><rect x="1596.11284" y="431.74948" width="74.7308" height="11.49699" rx="5.74849" transform="translate(3266.95623 874.99685) rotate(-179.99997)" style="fill:#0e2f3b"/><rect x="1596.11284" y="459.73705" width="74.7308" height="11.49699" rx="5.74849" transform="translate(3266.95621 930.972) rotate(-179.99997)" style="fill:#0e2f3b"/><polygon points="1811.262 496.758 1692.739 496.758 1692.739 378.236 1811.262 496.758" style="fill:#0e2f3b"/><polygon points="1692.739 378.236 1811.262 378.236 1811.262 496.758 1692.739 378.236" style="fill:#0e2f3b"/><rect x="1692.73986" y="378.23031" width="118.52169" height="118.52169" transform="translate(3504.00142 874.98231) rotate(-180)" style="mix-blend-mode:multiply;fill:url(#b)"/><polygon points="1455.37 496.758 1573.892 496.758 1573.892 378.236 1455.37 496.758" style="fill:#0e2f3b"/><polygon points="1573.892 378.236 1455.37 378.236 1455.37 496.758 1573.892 378.236" style="fill:#0e2f3b"/><rect x="1455.36971" y="378.23031" width="118.52169" height="118.52169" style="mix-blend-mode:multiply;fill:url(#c)"/><rect x="2269.45983" y="296.64785" width="24.04117" height="1.71723" rx="0.85861" style="fill:#fff"/><circle cx="2298.91412" cy="297.50647" r="0.85861" style="fill:#fff"/><path d="M1918.24556,370.53174v.83246a6.89529,6.89529,0,0,0,6.87507,6.87506H2109.8942a6.89526,6.89526,0,0,0,6.875-6.87506v-6.11044H1918.24556Z" style="fill:#0e2f3b"/><rect x="1928.38465" y="258.38054" width="178.24551" height="111.23116" rx="4.62992" style="fill:url(#d)"/><rect x="1968.25136" y="232.47633" width="98.51209" height="167.04277" transform="translate(1701.50969 2333.50512) rotate(-90)" style="fill:#e1f4f0"/><path d="M2086.23325,278.27269h8.90081a1.61673,1.61673,0,0,1,1.61673,1.61673v0a1.61672,1.61672,0,0,1-1.61672,1.61672h-8.90081a1.61673,1.61673,0,0,1-1.61673-1.61673v0A1.61673,1.61673,0,0,1,2086.23325,278.27269Z" style="fill:#fff"/><path d="M2034.40152,278.27269h8.90081a1.61673,1.61673,0,0,1,1.61673,1.61673v0a1.61672,1.61672,0,0,1-1.61672,1.61672h-8.90081a1.61673,1.61673,0,0,1-1.61673-1.61673v0a1.61673,1.61673,0,0,1,1.61673-1.61673Z" style="fill:#fff"/><path d="M1994.90341,278.27269h8.90081a1.61673,1.61673,0,0,1,1.61673,1.61673v0a1.61672,1.61672,0,0,1-1.61672,1.61672h-8.90081a1.61673,1.61673,0,0,1-1.61673-1.61673v0a1.61673,1.61673,0,0,1,1.61673-1.61673Z" style="fill:#fff"/><path d="M2011.15709,278.27269h15.89157a1.61673,1.61673,0,0,1,1.61673,1.61673v0a1.61672,1.61672,0,0,1-1.61672,1.61672h-15.89157a1.61673,1.61673,0,0,1-1.61673-1.61673v0a1.61673,1.61673,0,0,1,1.61673-1.61673Z" style="fill:#fff"/><path d="M2050.6552,278.27269h28.22518a1.61673,1.61673,0,0,1,1.61673,1.61673v0a1.61672,1.61672,0,0,1-1.61672,1.61672H2050.6552a1.61673,1.61673,0,0,1-1.61673-1.61673v0A1.61673,1.61673,0,0,1,2050.6552,278.27269Z" style="fill:#fff"/><path d="M2116.76925,365.25378v2.152a4.64352,4.64352,0,0,1-4.62991,4.62992l-189.26386,0a4.64353,4.64353,0,0,1-4.62992-4.62992v-2.152Z" style="fill:#8f8e91"/><rect x="1998.29571" y="367.21797" width="38.38583" height="2.3605" rx="1.18025" style="fill:#f9fbfc"/><polygon points="1951.883 280.459 1956.209 277.962 1960.535 275.449 1956.209 272.952 1951.883 275.449 1947.557 272.952 1943.231 275.449 1947.557 277.962 1951.883 280.459" style="fill:#52575b"/><polygon points="1951.883 282.338 1947.557 279.84 1943.231 282.338 1947.557 284.85 1951.883 287.348 1956.209 284.85 1960.535 282.338 1956.209 279.84 1951.883 282.338" style="fill:#52575b"/><polygon points="2062.261 335.312 2062.261 297.419 2100.154 297.419 2062.261 335.312" style="fill:#fff;opacity:0.5"/><polygon points="2101.029 325.147 2101.029 365.254 2060.922 365.254 2101.029 325.147" style="fill:#fff"/><circle cx="2036.68154" cy="320.26743" r="11.3743" transform="matrix(0.94017, -0.3407, 0.3407, 0.94017, 12.73486, 713.05587)" style="fill:#fff"/><rect x="1952.14459" y="309.94219" width="55.31154" height="55.31158" transform="translate(1642.20213 2317.39829) rotate(-89.99999)" style="fill:#fff"/><path d="M2239.87128,229.03686h84.17581a8.68505,8.68505,0,0,1,8.68505,8.68505V369.55422a8.685,8.685,0,0,1-8.685,8.685h-84.17583a8.685,8.685,0,0,1-8.685-8.685V237.72191A8.685,8.685,0,0,1,2239.87128,229.03686Z" style="fill:url(#e)"/><path d="M2235.81613,220.01718h92.28609a4.62992,4.62992,0,0,1,4.62992,4.62992V364.58967a4.62992,4.62992,0,0,1-4.62992,4.62992h-92.28608a4.62992,4.62992,0,0,1-4.62992-4.62992V224.64708a4.62991,4.62991,0,0,1,4.62991-4.62991Z" style="fill:url(#f)"/><rect x="2236.70641" y="231.04213" width="90.50554" height="120.54454" style="fill:#e1f4f0"/><circle cx="2281.95921" cy="359.89905" r="4.79017" transform="translate(-20.80809 175.16155) rotate(-4.37589)" style="fill:#fff"/><polygon points="2310.598 279.08 2310.598 303.928 2285.749 303.928 2310.598 279.08" style="fill:#fff;opacity:0.5"/><polygon points="2327.212 336.543 2297.718 336.543 2297.719 296.479 2327.212 325.972 2327.212 336.543" style="fill:#fff"/><circle cx="2248.55907" cy="279.07956" r="6.0856" transform="matrix(0.85234, -0.52299, 0.52299, 0.85234, 186.07214, 1217.18987)" style="fill:#fff;opacity:0.5"/><rect x="2237.49351" y="311.17234" width="39.9354" height="39.93551" transform="translate(1926.32047 2588.60121) rotate(-89.99998)" style="fill:#fff;opacity:0.5"/><rect x="2267.80737" y="259.71108" width="26.48089" height="26.48101" transform="translate(3701.01636 2078.87823) rotate(-135.00095)" style="fill:#fff"/><rect x="2312.26637" y="240.71387" width="12.13427" height="3.23345" rx="1.61672" style="fill:#fff"/><path d="M2278.88717,240.71388h28.22521a1.61672,1.61672,0,0,1,1.61672,1.61672v0a1.61673,1.61673,0,0,1-1.61673,1.61673h-28.2252a1.61672,1.61672,0,0,1-1.61672-1.61672v0a1.61672,1.61672,0,0,1,1.61672-1.61672Z" style="fill:#fff"/><polygon points="2248.559 243.864 2252.885 241.366 2257.211 238.854 2252.885 236.356 2248.559 238.854 2244.233 236.356 2239.907 238.854 2244.233 241.366 2248.559 243.864" style="fill:#705c84"/><polygon points="2248.559 245.743 2244.233 243.245 2239.907 245.743 2244.233 248.255 2248.559 250.753 2252.885 248.255 2257.211 245.743 2252.885 243.245 2248.559 245.743" style="fill:#705c84"/><path d="M2154.2305,496.76136l.00034-53.31108A11.231,11.231,0,0,0,2143,432.21925l-4.3711-.00007-47.03378-.00068" style="fill:none;stroke:#8f8e91;stroke-miterlimit:10;stroke-width:3px"/><rect x="2076.76848" y="424.76223" width="14.82663" height="14.91348" style="fill:#0e2f3b"/><rect x="2076.76848" y="424.76219" width="9.47712" height="14.91348" style="fill:url(#g)"/><path d="M2674.13522,496.76136l-.00034-53.31108a11.231,11.231,0,0,1,11.23086-11.231l4.3711-.00007,47.03378-.00068" style="fill:none;stroke:#8f8e91;stroke-miterlimit:10;stroke-width:3px"/><rect x="2736.77062" y="424.76223" width="14.82663" height="14.91348" style="fill:#0e2f3b"/><rect x="2742.12012" y="424.76219" width="9.47712" height="14.91348" style="fill:url(#h)"/><path d="M2433.20157,496.752l-.00019-53.30223a11.23108,11.23108,0,0,1,11.23092-11.231l4.37111-.00006,23.51692-.00062" style="fill:none;stroke:#8f8e91;stroke-miterlimit:10;stroke-width:3px"/><rect x="2472.32033" y="424.76175" width="14.82665" height="14.91352" style="fill:#0e2f3b"/><rect x="2477.66985" y="424.76172" width="9.47714" height="14.91352" style="fill:url(#i)"/><path d="M2395.16411,496.752l.00019-53.30223a11.23108,11.23108,0,0,0-11.23092-11.231l-4.3711-.00006-23.51693-.00062" style="fill:none;stroke:#8f8e91;stroke-miterlimit:10;stroke-width:3px"/><rect x="2341.2187" y="424.76175" width="14.82665" height="14.91352" style="fill:#0e2f3b"/><rect x="2341.2187" y="424.76172" width="9.47714" height="14.91352" style="fill:url(#j)"/><path d="M1868.52242,330.46887l-.00043,90.51868a11.231,11.231,0,0,0,11.23085,11.23107l4.3711.00007,59.29583.00068" style="fill:none;stroke:#8f8e91;stroke-miterlimit:10;stroke-width:3px"/><rect x="1943.41978" y="424.76215" width="14.82663" height="14.91352" style="fill:#0e2f3b"/><rect x="1948.76928" y="424.76219" width="9.47712" height="14.91352" style="fill:url(#k)"/><path d="M1868.522,330.46887a11.231,11.231,0,0,0-11.23086-11.231l-4.3711-.00006-146.147-.00055" style="fill:none;stroke:#8f8e91;stroke-miterlimit:10;stroke-width:3px"/><rect x="1692.7455" y="311.78093" width="14.82663" height="14.91353" style="fill:#0e2f3b"/><rect x="1692.7455" y="311.7809" width="9.47713" height="14.91353" style="fill:url(#l)"/><polyline points="1633.478 1086.534 1633.478 1074.466 1633.479 928.205" style="fill:none;stroke:#8f8e91;stroke-miterlimit:10;stroke-width:3px"/><rect x="1626.02166" y="1085.88927" width="14.91352" height="14.82665" style="fill:#2a3d58;opacity:0.25"/><rect x="1626.02162" y="1091.23878" width="14.91352" height="9.47714" style="fill:url(#m)"/><rect x="1626.02157" y="914.17693" width="14.91353" height="14.82666" style="fill:#2a3d58;opacity:0.25"/><rect x="1626.02161" y="914.17693" width="14.91353" height="9.47715" style="fill:url(#n)"/><polyline points="1718.178 1086.534 1718.178 1074.466 1718.179 928.205" style="fill:none;stroke:#8f8e91;stroke-miterlimit:10;stroke-width:3px"/><rect x="1710.72144" y="1085.88927" width="14.91352" height="14.82665" style="fill:#2a3d58;opacity:0.25"/><rect x="1710.7214" y="1091.23878" width="14.91352" height="9.47714" style="fill:url(#o)"/><rect x="1710.72135" y="914.17693" width="14.91353" height="14.82666" style="fill:#2a3d58;opacity:0.25"/><rect x="1710.72139" y="914.17693" width="14.91353" height="9.47715" style="fill:url(#p)"/><polyline points="1548.778 1086.534 1548.778 1074.466 1548.779 928.205" style="fill:none;stroke:#8f8e91;stroke-miterlimit:10;stroke-width:3px"/><rect x="1541.32188" y="1085.88927" width="14.91352" height="14.82665" style="fill:#2a3d58;opacity:0.25"/><rect x="1541.32184" y="1091.23878" width="14.91352" height="9.47714" style="fill:url(#q)"/><rect x="1541.32179" y="914.17693" width="14.91353" height="14.82666" style="fill:#2a3d58;opacity:0.25"/><rect x="1541.32182" y="914.17693" width="14.91353" height="9.47715" style="fill:url(#r)"/><path d="M1503.5192,806.81079l90.51868-.00032a11.23107,11.23107,0,0,1,11.23107,11.23088l.00007,4.37111.00072,59.29595" style="fill:none;stroke:#518989;stroke-miterlimit:10;stroke-width:3px"/><rect x="1597.81253" y="881.70841" width="14.91352" height="14.82665" style="fill:#0e2f3b"/><rect x="1597.81257" y="887.05792" width="14.91352" height="9.47714" style="fill:url(#s)"/><path d="M1503.5192,806.81036a11.23105,11.23105,0,0,1-11.23106-11.23089l-.00005-4.37111-.00066-280.42408" style="fill:none;stroke:#518989;stroke-miterlimit:10;stroke-width:3px"/><rect x="1484.83114" y="496.75669" width="14.91353" height="14.82666" style="fill:#0e2f3b"/><rect x="1484.83111" y="496.75669" width="14.91353" height="9.47715" style="fill:url(#t)"/><path d="M1763.43757,806.81079l-90.51867-.00032a11.23107,11.23107,0,0,0-11.23108,11.23088l-.00007,4.37111-.00072,59.29595" style="fill:none;stroke:#50468e;stroke-miterlimit:10;stroke-width:3px"/><rect x="1654.23072" y="881.70841" width="14.91352" height="14.82665" style="fill:#0e2f3b"/><rect x="1654.23068" y="887.05792" width="14.91352" height="9.47714" style="fill:url(#u)"/><path d="M1763.43757,806.81036a11.231,11.231,0,0,0,11.23106-11.23089l.00005-4.37111.00066-280.42408" style="fill:none;stroke:#50468e;stroke-miterlimit:10;stroke-width:3px"/><rect x="1767.2121" y="496.75669" width="14.91353" height="14.82666" style="fill:#0e2f3b"/><rect x="1767.21213" y="496.75669" width="14.91353" height="9.47715" style="fill:url(#v)"/><path d="M2523.67192,270.12057h58.64057a8.68507,8.68507,0,0,1,8.68507,8.68507V401.66229a8.685,8.685,0,0,1-8.685,8.685H2523.672a8.68507,8.68507,0,0,1-8.68507-8.68507V278.80558a8.685,8.685,0,0,1,8.685-8.685Z" transform="translate(2212.74834 2893.22485) rotate(-89.99978)" style="fill:url(#w)"/><path d="M2510.59713,270.12057H2577.348a4.62993,4.62993,0,0,1,4.62993,4.62993V405.71739a4.6299,4.6299,0,0,1-4.6299,4.6299h-66.75082a4.62993,4.62993,0,0,1-4.62993-4.62993V274.75047A4.62989,4.62989,0,0,1,2510.59713,270.12057Z" transform="translate(2203.72869 2884.20516) rotate(-89.99978)" style="fill:url(#x)"/><rect x="2507.18265" y="284.4495" width="66.97186" height="111.56886" transform="matrix(0, -1, 1, 0, 2200.42443, 2880.90114)" style="fill:#e1f4f0"/><path d="M2468.85667,342.51117h22.324a.85862.85862,0,0,1,.85862.85862v0a.85861.85861,0,0,1-.85861.85861h-22.324a.85862.85862,0,0,1-.85862-.85862v0a.85861.85861,0,0,1,.85861-.85861Z" transform="matrix(0, -1, 1, 0, 2136.63918, 2823.3871)" style="fill:#fff"/><circle cx="2480.01872" cy="325.93607" r="0.85861" style="fill:#fff"/><circle cx="2604.76539" cy="340.23395" r="4.79018" transform="translate(283.31576 1569.63765) rotate(-35.34683)" style="fill:#fff"/><circle cx="2586.9815" cy="315.16033" r="5.55779" transform="translate(294.54326 1554.72729) rotate(-35.34683)" style="fill:#fff"/><polygon points="2496.248 317.132 2500.574 314.635 2504.9 312.122 2500.574 309.625 2496.248 312.122 2491.922 309.625 2487.596 312.122 2491.922 314.635 2496.248 317.132" style="fill:#828d79"/><polygon points="2496.248 319.011 2491.922 316.514 2487.596 319.011 2491.922 321.524 2496.248 324.021 2500.574 321.524 2504.9 319.011 2500.574 316.514 2496.248 319.011" style="fill:#828d79"/><polygon points="2562.627 351.005 2562.627 373.72 2539.912 373.72 2562.627 351.005" style="fill:#fff;opacity:0.5"/><polygon points="2556.897 331.06 2584.903 331.06 2584.903 359.065 2556.897 331.06" style="fill:#fff"/><rect x="2506.58618" y="321.0375" width="31.66891" height="31.66905" style="fill:#fff"/><rect x="2764.5951" y="252.86505" width="101.54609" height="149.20236" rx="8.68505" transform="translate(2487.90191 3142.83437) rotate(-90)" style="fill:url(#y)"/><rect x="2755.57542" y="252.86505" width="101.54609" height="149.20236" rx="4.62992" transform="translate(2478.88223 3133.81469) rotate(-90)" style="fill:url(#z)"/><rect x="2757.79164" y="267.19398" width="90.50569" height="120.5445" transform="translate(2475.57825 3130.51071) rotate(-90)" style="fill:#e1f4f0"/><rect x="2725.88614" y="329.74349" width="24.04121" height="1.71723" rx="0.85861" transform="translate(2407.30465 3068.50885) rotate(-90)" style="fill:#fff"/><circle cx="2737.90675" cy="313.16836" r="0.85861" style="fill:#fff"/><circle cx="2871.62911" cy="327.46623" r="4.79018" style="fill:#fff"/><path d="M2846.55615,289.7412h8.90081a1.61672,1.61672,0,0,1,1.61672,1.61672v0a1.61673,1.61673,0,0,1-1.61673,1.61673h-8.90081a1.61673,1.61673,0,0,1-1.61673-1.61673v0a1.61673,1.61673,0,0,1,1.61673-1.61673Z" style="fill:#fff"/><rect x="2809.94351" y="289.7412" width="31.45863" height="3.23345" rx="1.61673" style="fill:#fff"/><polygon points="2757.667 292.891 2761.993 290.394 2766.319 287.881 2761.993 285.384 2757.667 287.881 2753.341 285.384 2749.015 287.881 2753.341 290.394 2757.667 292.891" style="fill:#705c84"/><polygon points="2757.667 294.77 2753.341 292.272 2749.015 294.77 2753.341 297.282 2757.667 299.78 2761.993 297.282 2766.319 294.77 2761.993 292.272 2757.667 294.77" style="fill:#705c84"/><polygon points="2859.317 372.719 2819.252 372.719 2819.252 332.655 2859.317 372.719" style="fill:#fff"/><circle cx="2853.41494" cy="346.23009" r="3.60415" transform="translate(590.92424 2119.0775) rotate(-45)" style="fill:#fff;opacity:0.5"/><rect x="2742.77229" y="332.78011" width="39.93545" height="39.93549" transform="translate(2409.9925 3115.48792) rotate(-90.00001)" style="fill:#fff;opacity:0.5"/><rect x="2791.89604" y="301.87136" width="18.39074" height="18.39082" transform="translate(4561.83986 2511.66681) rotate(-135.00092)" style="fill:#fff"/><rect x="3038.4684" y="238.01255" width="76.01075" height="140.22672" rx="8.68505" style="fill:url(#aa)"/><rect x="3038.4684" y="228.99287" width="76.01075" height="140.22672" rx="4.62992" style="fill:url(#ab)"/><rect x="3042.9878" y="240.01782" width="66.97195" height="111.56886" style="fill:#e1f4f0"/><rect x="3068.80026" y="234.29372" width="24.04121" height="1.71723" rx="0.85861" style="fill:#fff"/><circle cx="3098.2546" cy="235.15234" r="0.85861" style="fill:#fff"/><circle cx="3076.47378" cy="359.89906" r="4.79018" style="fill:#fff"/><polygon points="3054.055 251.691 3058.381 249.194 3062.706 246.681 3058.381 244.184 3054.055 246.681 3049.729 244.184 3045.403 246.681 3049.729 249.194 3054.055 251.691" style="fill:#828d79"/><polygon points="3054.055 253.57 3049.729 251.072 3045.403 253.57 3049.729 256.082 3054.055 258.58 3058.381 256.082 3062.706 253.57 3058.381 251.072 3054.055 253.57" style="fill:#828d79"/><circle cx="3101.54739" cy="251.07234" r="5.55778" style="fill:#fff"/><polygon points="3072.413 321.16 3072.413 351.587 3041.987 351.587 3072.413 321.16" style="fill:#fff"/><polygon points="3095.128 298.445 3095.128 321.16 3072.413 321.16 3095.128 298.445" style="fill:#fff;opacity:0.5"/><polygon points="3095.128 321.162 3109.959 321.162 3109.959 335.993 3095.128 321.162" style="fill:#fff"/><polygon points="3102.84 351.585 3072.413 351.585 3072.413 321.159 3102.84 351.585" style="fill:#fff"/><rect x="3043.07199" y="269.16539" width="31.66904" height="31.66903" style="fill:#fff"/><path d="M2962.10216,496.752l-.00019-53.30223a11.23107,11.23107,0,0,1,11.23091-11.231l4.37111-.00006,23.51693-.00062" style="fill:none;stroke:#8f8e91;stroke-miterlimit:10;stroke-width:3px"/><rect x="3001.22092" y="424.76175" width="14.82665" height="14.91352" style="fill:#0e2f3b"/><rect x="3006.57043" y="424.76172" width="9.47714" height="14.91352" style="fill:url(#ac)"/><path d="M2924.06468,496.752l.00019-53.30223a11.23108,11.23108,0,0,0-11.23092-11.231l-4.3711-.00006-23.51693-.00062" style="fill:none;stroke:#8f8e91;stroke-miterlimit:10;stroke-width:3px"/><rect x="2870.11926" y="424.76175" width="14.82665" height="14.91352" style="fill:#0e2f3b"/><rect x="2870.11926" y="424.76172" width="9.47714" height="14.91352" style="fill:url(#ad)"/><polygon points="250.923 378.23 132.401 378.23 132.401 496.752 250.923 378.23" style="fill:#0e2f3b"/><polygon points="132.401 496.752 250.923 496.752 250.923 378.23 132.401 496.752" style="fill:#8a8359"/><circle cx="191.66188" cy="437.49115" r="39.17063" style="fill:#8a8359"/><path d="M205.30553,423.84765a19.29477,19.29477,0,1,1-27.28666,27.28719" style="fill:#0e2f3b"/><polygon points="1044.274 496.761 1044.274 378.239 925.752 378.239 1044.274 496.761" style="fill:#828d79"/><polygon points="925.752 378.233 925.752 496.755 1044.274 496.755 925.752 378.233" style="fill:#0e2f3b"/><polygon points="1009.822 412.685 960.203 412.685 960.203 462.304 1009.822 412.685" style="fill:#0e2f3b"/><polygon points="960.203 462.304 1009.822 462.304 1009.822 412.685 960.203 462.304" style="fill:#2a3d58"/><polygon points="515.373 496.752 515.373 378.23 396.851 378.23 515.373 496.752" style="fill:#518989"/><polygon points="396.851 378.224 396.851 496.746 515.373 496.746 396.851 378.224" style="fill:#0e2f3b"/><rect x="411.89916" y="463.80594" width="88.42599" height="13.604" rx="4.60484" transform="translate(912.2243 941.21588) rotate(-180)" style="fill:#0e2f3b"/><rect x="411.89916" y="430.68918" width="88.42599" height="13.604" rx="4.60484" transform="translate(912.2243 874.98236) rotate(-180)" style="fill:#0e2f3b"/><rect x="411.89916" y="397.57242" width="88.42599" height="13.604" rx="4.60484" transform="translate(912.2243 808.74884) rotate(-180)" style="fill:#0e2f3b"/><polygon points="661.301 496.75 779.823 496.75 779.823 378.228 661.301 496.75" style="fill:#638495"/><polygon points="779.823 378.233 661.301 378.233 661.301 496.755 779.823 378.233" style="fill:#638495"/><polygon points="720.563 437.487 720.563 378.231 779.819 378.231 779.822 378.228 779.822 437.487 720.566 437.487 720.563 437.49 720.563 437.487 720.563 437.487 720.563 437.487" style="fill:#0e2f3b"/><polygon points="661.302 496.747 661.302 437.491 720.558 437.491 720.561 437.488 720.561 496.747 661.305 496.747 661.302 496.75 661.302 496.747 661.302 496.747 661.302 496.747" style="fill:#0e2f3b"/><polygon points="1308.724 496.752 1308.724 378.23 1190.202 378.23 1308.724 496.752" style="fill:#0e2f3b"/><polygon points="1190.202 378.23 1190.202 496.752 1308.724 496.752 1190.202 378.23" style="fill:#0e2f3b"/><circle cx="1249.46301" cy="437.50301" r="59.26371" transform="translate(435.08826 1481.22733) rotate(-71.33441)" style="fill:#2a3d58"/><polygon points="1190.202 496.758 1308.724 496.758 1308.724 378.236 1190.202 496.758" style="fill:#50468e"/><circle cx="1249.46313" cy="437.50302" r="39.1705" transform="matrix(0.29662, -0.955, 0.955, 0.29662, 461.0365, 1500.96457)" style="fill:#0e2f3b"/><path d="M1235.81946,451.14644a19.29473,19.29473,0,1,1,27.28671-27.287" style="fill:#50468e"/><rect x="973.46941" y="296.64785" width="24.04117" height="1.71723" rx="0.85861" transform="translate(1970.97999 595.01297) rotate(-180)" style="fill:#fff"/><circle cx="968.05629" cy="297.50647" r="0.85861" style="fill:#fff"/><path d="M1150.20116,370.53174v.83246a6.89529,6.89529,0,0,0,6.87507,6.87506H1341.8498a6.89526,6.89526,0,0,0,6.87505-6.87506v-6.11044H1150.20116Z" style="fill:#0e2f3b"/><rect x="1160.34025" y="258.38054" width="178.24551" height="111.23116" rx="4.62992" style="fill:url(#ae)"/><rect x="1200.20696" y="232.47633" width="98.51209" height="167.04277" transform="translate(933.46529 1565.46073) rotate(-90)" style="fill:#e1f4f0"/><path d="M1318.18885,278.27269h8.90081a1.61672,1.61672,0,0,1,1.61672,1.61672v0a1.61673,1.61673,0,0,1-1.61673,1.61673h-8.90081a1.61672,1.61672,0,0,1-1.61672-1.61672v0A1.61672,1.61672,0,0,1,1318.18885,278.27269Z" style="fill:#fff"/><rect x="1264.7404" y="278.27269" width="12.13426" height="3.23345" rx="1.61673" style="fill:#fff"/><rect x="1225.24228" y="278.27269" width="12.13426" height="3.23345" rx="1.61673" style="fill:#fff"/><path d="M1243.11269,278.27269h15.89157a1.61673,1.61673,0,0,1,1.61673,1.61673v0a1.61673,1.61673,0,0,1-1.61673,1.61673h-15.89157a1.61673,1.61673,0,0,1-1.61673-1.61673v0a1.61672,1.61672,0,0,1,1.61672-1.61672Z" style="fill:#fff"/><rect x="1280.99408" y="278.27269" width="31.45863" height="3.23345" rx="1.61673" style="fill:#fff"/><path d="M1348.72485,365.25378v2.152a4.64353,4.64353,0,0,1-4.62992,4.62992l-189.26386,0a4.64352,4.64352,0,0,1-4.62991-4.62992v-2.152Z" style="fill:#8f8e91"/><rect x="1230.25131" y="367.21797" width="38.38583" height="2.3605" rx="1.18025" style="fill:#f9fbfc"/><polygon points="1183.839 280.459 1188.165 277.962 1192.49 275.449 1188.165 272.952 1183.839 275.449 1179.513 272.952 1175.187 275.449 1179.513 277.962 1183.839 280.459" style="fill:#52575b"/><polygon points="1183.839 282.338 1179.513 279.84 1175.187 282.338 1179.513 284.85 1183.839 287.348 1188.165 284.85 1192.49 282.338 1188.165 279.84 1183.839 282.338" style="fill:#52575b"/><polygon points="1264.274 335.311 1294.216 335.311 1294.216 365.254 1264.274 335.311" style="fill:#fff;opacity:0.5"/><polygon points="1294.216 335.312 1294.216 297.419 1332.109 297.419 1294.216 335.312" style="fill:#fff;opacity:0.5"/><polygon points="1332.984 325.147 1332.984 365.254 1292.877 365.254 1332.984 325.147" style="fill:#fff"/><rect x="1175.37532" y="302.9834" width="62.27018" height="62.27018" transform="translate(872.39216 1540.62897) rotate(-90.00001)" style="fill:#fff"/><path d="M942.92332,229.03686h84.17583a8.685,8.685,0,0,1,8.685,8.685V369.55422a8.685,8.685,0,0,1-8.685,8.685H942.92331a8.685,8.685,0,0,1-8.685-8.685V237.72191a8.685,8.685,0,0,1,8.685-8.685Z" style="fill:url(#af)"/><rect x="934.23827" y="220.01718" width="101.54592" height="149.20241" rx="4.62992" style="fill:url(#ag)"/><rect x="939.75846" y="231.04213" width="90.50554" height="120.54454" style="fill:#e1f4f0"/><circle cx="985.01125" cy="359.89905" r="4.79017" transform="translate(-24.58879 76.20511) rotate(-4.3759)" style="fill:#fff"/><polygon points="1030.264 336.543 1000.77 336.543 1000.771 296.479 1030.264 325.972 1030.264 336.543" style="fill:#fff"/><polygon points="965.716 271.422 965.716 286.256 980.55 286.256 965.716 271.422" style="fill:#fff"/><circle cx="951.61112" cy="279.07956" r="6.0856" transform="translate(-5.43884 538.89584) rotate(-31.53324)" style="fill:#fff;opacity:0.5"/><rect x="940.54556" y="311.17234" width="39.9354" height="39.93551" transform="translate(629.37289 1291.65326) rotate(-89.99998)" style="fill:#fff;opacity:0.5"/><rect x="974.9045" y="259.86568" width="18.39073" height="18.39081" transform="translate(1489.72339 1155.17127) rotate(-135.00095)" style="fill:#fff"/><rect x="1015.31842" y="240.71387" width="12.13427" height="3.23345" rx="1.61672" style="fill:#fff"/><rect x="980.32249" y="240.71388" width="31.45864" height="3.23345" rx="1.61672" style="fill:#fff"/><polygon points="951.611 243.864 955.937 241.366 960.263 238.854 955.937 236.356 951.611 238.854 947.285 236.356 942.959 238.854 947.285 241.366 951.611 243.864" style="fill:#705c84"/><polygon points="951.611 245.743 947.285 243.245 942.959 245.743 947.285 248.255 951.611 250.753 955.937 248.255 960.263 245.743 955.937 243.245 951.611 245.743" style="fill:#705c84"/><path d="M1112.73992,496.75234l-.00035-53.30206a11.231,11.231,0,0,1,11.23087-11.231l4.3711-.00007,47.03377-.00068" style="fill:none;stroke:#8f8e91;stroke-miterlimit:10;stroke-width:3px"/><rect x="1175.37531" y="424.76223" width="14.82663" height="14.91348" style="fill:#0e2f3b"/><rect x="1180.72481" y="424.76219" width="9.47712" height="14.91348" style="fill:url(#ah)"/><path d="M592.83519,496.75234l.00035-53.30206a11.231,11.231,0,0,0-11.23087-11.231l-4.3711-.00007-47.03377-.00068" style="fill:none;stroke:#8f8e91;stroke-miterlimit:10;stroke-width:3px"/><rect x="515.37317" y="424.76223" width="14.82663" height="14.91348" style="fill:#0e2f3b"/><rect x="515.37317" y="424.76219" width="9.47712" height="14.91348" style="fill:url(#ai)"/><path d="M833.76884,496.752l.00019-53.30223a11.23108,11.23108,0,0,0-11.23092-11.231l-4.3711-.00006-23.51693-.00062" style="fill:none;stroke:#8f8e91;stroke-miterlimit:10;stroke-width:3px"/><rect x="779.82343" y="424.76175" width="14.82665" height="14.91352" style="fill:#0e2f3b"/><rect x="779.82343" y="424.76172" width="9.47714" height="14.91352" style="fill:url(#aj)"/><path d="M871.8063,496.752l-.00019-53.30223a11.23108,11.23108,0,0,1,11.23092-11.231l4.37111-.00006,23.51692-.00062" style="fill:none;stroke:#8f8e91;stroke-miterlimit:10;stroke-width:3px"/><rect x="910.92506" y="424.76175" width="14.82665" height="14.91352" style="fill:#0e2f3b"/><rect x="916.27458" y="424.76172" width="9.47714" height="14.91352" style="fill:url(#ak)"/><path d="M1398.448,330.46887l.00042,90.51868a11.231,11.231,0,0,1-11.23085,11.23107l-4.3711.00007-59.29583.00068" style="fill:none;stroke:#8f8e91;stroke-miterlimit:10;stroke-width:3px"/><rect x="1308.72401" y="424.76215" width="14.82663" height="14.91352" style="fill:#0e2f3b"/><rect x="1308.72401" y="424.76219" width="9.47712" height="14.91352" style="fill:url(#al)"/><path d="M1398.44842,330.46887a11.231,11.231,0,0,1,11.23086-11.231l4.3711-.00006,146.147-.00055" style="fill:none;stroke:#8f8e91;stroke-miterlimit:10;stroke-width:3px"/><rect x="1559.39828" y="311.78093" width="14.82663" height="14.91353" style="fill:#0e2f3b"/><rect x="1564.74779" y="311.7809" width="9.47713" height="14.91353" style="fill:url(#am)"/><path d="M693.67756,270.12057h58.64055a8.68508,8.68508,0,0,1,8.68508,8.68508V401.66229a8.685,8.685,0,0,1-8.685,8.685H693.67762a8.68507,8.68507,0,0,1-8.68507-8.68507V278.80559A8.685,8.685,0,0,1,693.67756,270.12057Z" transform="translate(382.76111 1063.23048) rotate(-89.99978)" style="fill:url(#an)"/><path d="M680.60276,270.12057h66.75082a4.62993,4.62993,0,0,1,4.62993,4.62993V405.7174a4.62989,4.62989,0,0,1-4.62989,4.62989H680.6028a4.62993,4.62993,0,0,1-4.62993-4.62993V274.75047a4.62989,4.62989,0,0,1,4.62989-4.62989Z" transform="translate(373.74147 1054.21079) rotate(-89.99978)" style="fill:url(#ao)"/><rect x="677.18828" y="284.4495" width="66.97186" height="111.56886" transform="matrix(0, -1, 1, 0, 370.43742, 1050.90677)" style="fill:#e1f4f0"/><path d="M638.8623,342.51117h22.324a.85862.85862,0,0,1,.85862.85862v0a.85861.85861,0,0,1-.85861.85861h-22.324a.85862.85862,0,0,1-.85862-.85862v0a.85861.85861,0,0,1,.85861-.85861Z" transform="translate(306.65196 993.39273) rotate(-89.99978)" style="fill:#fff"/><circle cx="650.02435" cy="325.93607" r="0.85861" style="fill:#fff"/><circle cx="774.77102" cy="340.23395" r="4.79018" transform="matrix(0.81566, -0.57852, 0.57852, 0.81566, -54.01625, 510.94109)" style="fill:#fff"/><circle cx="756.98713" cy="315.16033" r="5.55779" transform="translate(-42.78878 496.0306) rotate(-35.34682)" style="fill:#fff"/><polygon points="666.254 317.132 670.58 314.635 674.906 312.122 670.58 309.625 666.254 312.122 661.928 309.625 657.602 312.122 661.928 314.635 666.254 317.132" style="fill:#828d79"/><polygon points="666.254 319.011 661.928 316.514 657.602 319.011 661.928 321.524 666.254 324.021 670.58 321.524 674.906 319.011 670.58 316.514 666.254 319.011" style="fill:#828d79"/><polygon points="732.633 351.005 732.633 373.72 709.918 373.72 732.633 351.005" style="fill:#fff;opacity:0.5"/><polygon points="726.903 331.06 754.909 331.06 754.908 359.065 726.903 331.06" style="fill:#fff"/><rect x="676.59181" y="329.36562" width="31.66891" height="31.66905" style="fill:#fff"/><rect x="409.84891" y="252.86505" width="101.54609" height="149.20236" rx="8.68505" transform="translate(133.15572 788.08818) rotate(-90)" style="fill:url(#ap)"/><rect x="400.82923" y="252.86505" width="101.54609" height="149.20236" rx="4.62992" transform="translate(124.13604 779.0685) rotate(-90)" style="fill:url(#aq)"/><rect x="403.04545" y="267.19398" width="90.50569" height="120.5445" transform="translate(120.83206 775.76452) rotate(-90)" style="fill:#e1f4f0"/><rect x="371.13995" y="329.74349" width="24.04121" height="1.71723" rx="0.85861" transform="translate(52.55845 713.76266) rotate(-90)" style="fill:#fff"/><circle cx="383.16056" cy="313.16836" r="0.85861" style="fill:#fff"/><circle cx="516.88293" cy="327.46623" r="4.79018" style="fill:#fff"/><path d="M491.81,289.7412h8.90081a1.61673,1.61673,0,0,1,1.61673,1.61673v0a1.61672,1.61672,0,0,1-1.61672,1.61672H491.81a1.61672,1.61672,0,0,1-1.61672-1.61672v0A1.61673,1.61673,0,0,1,491.81,289.7412Z" style="fill:#fff"/><path d="M456.814,289.7412h28.22518a1.61673,1.61673,0,0,1,1.61673,1.61673v0a1.61672,1.61672,0,0,1-1.61672,1.61672H456.814a1.61672,1.61672,0,0,1-1.61672-1.61672v0a1.61673,1.61673,0,0,1,1.61673-1.61673Z" style="fill:#fff"/><polygon points="402.921 292.891 407.247 290.394 411.573 287.881 407.247 285.384 402.921 287.881 398.595 285.384 394.269 287.881 398.595 290.394 402.921 292.891" style="fill:#705c84"/><polygon points="402.921 294.77 398.595 292.272 394.269 294.77 398.595 297.282 402.921 299.78 407.247 297.282 411.573 294.77 407.247 292.272 402.921 294.77" style="fill:#705c84"/><polygon points="504.57 372.719 464.506 372.719 464.506 332.655 504.57 372.719" style="fill:#fff"/><circle cx="402.92087" cy="314.02698" r="6.08558" transform="translate(-87.97952 172.69412) rotate(-21.87061)" style="fill:#fff;opacity:0.5"/><circle cx="498.66875" cy="346.23009" r="3.60415" transform="translate(-98.76495 454.0205) rotate(-45)" style="fill:#fff;opacity:0.5"/><rect x="388.0261" y="332.78011" width="39.93545" height="39.93549" transform="translate(55.24602 760.74173) rotate(-90.00001)" style="fill:#fff;opacity:0.5"/><rect x="433.43083" y="303.41186" width="25.82893" height="25.82904" transform="translate(538.29117 855.61522) rotate(-135.00092)" style="fill:#fff"/><rect x="152.49126" y="238.01255" width="76.01075" height="140.22672" rx="8.68505" style="fill:url(#ar)"/><rect x="152.49126" y="228.99287" width="76.01075" height="140.22672" rx="4.62992" style="fill:url(#as)"/><rect x="157.01066" y="240.01782" width="66.97195" height="111.56886" style="fill:#e1f4f0"/><rect x="182.82312" y="234.29372" width="24.04121" height="1.71723" rx="0.85861" style="fill:#fff"/><circle cx="212.27746" cy="235.15234" r="0.85861" style="fill:#fff"/><circle cx="190.49664" cy="359.89906" r="4.79018" style="fill:#fff"/><polygon points="168.077 251.691 172.403 249.194 176.729 246.681 172.403 244.184 168.077 246.681 163.752 244.184 159.426 246.681 163.752 249.194 168.077 251.691" style="fill:#828d79"/><polygon points="168.077 253.57 163.752 251.072 159.426 253.57 163.752 256.082 168.077 258.58 172.403 256.082 176.729 253.57 172.403 251.072 168.077 253.57" style="fill:#828d79"/><circle cx="215.57026" cy="251.07234" r="5.55778" style="fill:#fff"/><polygon points="186.436 321.16 186.436 351.587 156.01 351.587 186.436 321.16" style="fill:#fff"/><polygon points="209.151 321.162 223.982 321.162 223.982 335.993 209.151 321.162" style="fill:#fff"/><polygon points="216.863 351.585 186.436 351.585 186.436 321.159 216.863 351.585" style="fill:#fff"/><rect x="157.09485" y="269.16539" width="31.66904" height="31.66903" style="fill:#fff"/><path d="M304.86826,496.752l.00019-53.30223a11.23108,11.23108,0,0,0-11.23092-11.231l-4.37111-.00006L265.7495,432.218" style="fill:none;stroke:#8f8e91;stroke-miterlimit:10;stroke-width:3px"/><rect x="250.92284" y="424.76175" width="14.82665" height="14.91352" style="fill:#0e2f3b"/><rect x="250.92284" y="424.76172" width="9.47714" height="14.91352" style="fill:url(#at)"/><path d="M342.90574,496.752l-.0002-53.30223a11.23108,11.23108,0,0,1,11.23092-11.231l4.37111-.00006,23.51693-.00062" style="fill:none;stroke:#8f8e91;stroke-miterlimit:10;stroke-width:3px"/><rect x="382.0245" y="424.76175" width="14.82665" height="14.91352" style="fill:#0e2f3b"/><rect x="387.37401" y="424.76172" width="9.47714" height="14.91352" style="fill:url(#au)"/><path d="M1718.17817,421.29169a33.8223,33.8223,0,0,1,67.6446,0" style="fill:#2a3d58"/><path d="M1762.82283,421.29183a10.82227,10.82227,0,0,0-21.64454,0" style="fill:#2f4259"/><path d="M1752.00055,410.46956a10.83445,10.83445,0,0,1,10.82227,10.822h22.99994a33.82229,33.82229,0,0,0-67.64459,0h23.00012A10.83445,10.83445,0,0,1,1752.00055,410.46956Z" style="fill:#0e2f3b"/><path d="M1752.00055,410.46956a10.83445,10.83445,0,0,1,10.82227,10.822h22.99994a33.82229,33.82229,0,0,0-67.64459,0h23.00012A10.83445,10.83445,0,0,1,1752.00055,410.46956Z" style="fill:#0e2f3b;opacity:0.5;mix-blend-mode:multiply"/><rect x="1718.17817" y="421.29169" width="67.64461" height="35.79027" style="fill:#2f4259"/><path d="M1730.34646,445.52692h55.47631a0,0,0,0,1,0,0v38.61534a0,0,0,0,1,0,0h-45.47631a10,10,0,0,1-10-10V445.52692A0,0,0,0,1,1730.34646,445.52692Z" style="fill:#2f4259"/><circle cx="1737.17509" cy="432.34283" r="2.75771" style="fill:#5e599e"/><rect x="1750.83234" y="484.14226" width="34.99044" height="54.37929" style="fill:#2f4259"/><rect x="1750.83234" y="496.7528" width="34.99044" height="41.76875" style="opacity:0.75;fill:url(#av)"/><path d="M1769.823,421.29138a17.82241,17.82241,0,0,0-35.61669-1H1725.197a26.82231,26.82231,0,0,1,53.626,1v75.46045l-9,.001Z" style="fill:#5e599e"/><rect x="1725.197" y="420.29138" width="9.00928" height="1.0002" style="fill:#5e599e"/><path d="M1504.13394,421.29183a10.82227,10.82227,0,1,1,21.64454,0" style="fill:#2f4259"/><path d="M1514.95622,410.46956a10.83445,10.83445,0,0,0-10.82227,10.822H1481.134a33.82229,33.82229,0,0,1,67.64459,0h-23.00012A10.83445,10.83445,0,0,0,1514.95622,410.46956Z" style="fill:#0e2f3b"/><path d="M1514.95622,410.46956a10.83445,10.83445,0,0,0-10.82227,10.822H1481.134a33.82229,33.82229,0,0,1,67.64459,0h-23.00012A10.83445,10.83445,0,0,0,1514.95622,410.46956Z" style="fill:#0e2f3b;opacity:0.5;mix-blend-mode:multiply"/><rect x="1481.134" y="421.29169" width="67.64461" height="35.79027" transform="translate(3029.9126 878.37364) rotate(-180)" style="fill:#2f4259"/><path d="M1491.134,445.52692h45.47631a0,0,0,0,1,0,0v38.61534a0,0,0,0,1,0,0H1481.134a0,0,0,0,1,0,0V455.52692A10,10,0,0,1,1491.134,445.52692Z" transform="translate(3017.7443 929.66918) rotate(-180)" style="fill:#2f4259"/><circle cx="1529.78168" cy="432.34283" r="2.75771" style="fill:#518989"/><rect x="1481.134" y="484.14226" width="34.99044" height="54.37929" transform="translate(2997.25843 1022.66382) rotate(-180)" style="fill:#2f4259"/><rect x="1481.134" y="496.75667" width="34.99044" height="41.76489" transform="translate(2997.25843 1035.27822) rotate(-180)" style="opacity:0.75;fill:url(#aw)"/><path d="M1497.1338,421.29138a17.82242,17.82242,0,0,1,35.6167-1h9.00927a26.82231,26.82231,0,0,0-53.626,1v75.46045l9,.001Z" style="fill:#518989"/><rect x="1532.7505" y="420.29138" width="9.00928" height="1.0002" style="fill:#518989"/><path d="M1719.75289,723.02733l-.07553-75.65281a75.2282,75.2282,0,0,0-150.45569.46261l.07552,75.1902" style="fill:none;stroke:#0e2f3b;stroke-miterlimit:10;stroke-width:30px;opacity:0.46"/><rect x="1811.26151" y="496.74635" width="146.41487" height="708.53867" style="opacity:0.25;mix-blend-mode:multiply;fill:url(#ax)"/><rect x="1677.62491" y="746.73599" width="133.63665" height="167.44091" style="opacity:0.7000000000000001;mix-blend-mode:multiply;fill:url(#ay)"/><rect x="1455.36971" y="746.73599" width="133.63665" height="167.44091" transform="translate(3044.37606 1660.9129) rotate(-180)" style="opacity:0.7000000000000001;mix-blend-mode:multiply;fill:url(#az)"/><polygon points="1529.471 914.039 1737.496 914.039 1737.496 706.014 1529.471 914.039" style="fill:#0e2f3b"/><polygon points="1737.496 706.013 1529.471 706.014 1529.471 914.039 1737.496 706.013" style="fill:#0e2f3b"/><circle cx="1633.46307" cy="810.02631" r="84.69061" transform="translate(332.28332 2087.24026) rotate(-70.84405)" style="fill:#2f4259"/><polygon points="1529.461 706.014 1529.461 914.039 1737.486 914.039 1529.461 706.014" style="fill:#2f4259"/><circle cx="1633.46305" cy="810.02649" r="55.97649" transform="translate(357.20797 2112.14685) rotate(-71.95134)" style="fill:#0e2f3b"/><path d="M1613.96609,790.52917a27.57289,27.57289,0,1,1,38.99419,38.99373" style="fill:#50468e"/><path d="M1652.96028,829.5229a27.573,27.573,0,1,1-38.9943-38.99378" style="fill:#518989"/><path d="M1543.28831,706.02857l-.07569-75.19042a90.32486,90.32486,0,0,1,89.9502-90.47364h.28271a90.3302,90.3302,0,0,1,90.22315,89.9502l.07519,75.68457-30,.02929-.07519-75.65332a60.28994,60.28994,0,0,0-60.2251-60.01074h-.188a60.2967,60.2967,0,0,0-60.043,60.41309l.07569,75.22168Z" style="fill:#2f4259"/><polygon points="1658.294 294.163 1608.675 294.163 1608.675 343.782 1658.294 294.163" style="fill:#0e2f3b"/><polygon points="1608.675 343.782 1658.294 343.782 1658.294 294.163 1608.675 343.782" style="fill:#2f4259"/><polyline points="1785.823 1007.378 1678.614 1007.378 1481.134 1007.377" style="fill:none;stroke:#8f8e91;stroke-miterlimit:10;stroke-width:3px;opacity:0.67"/><path d="M1617.49241,1000.75084h31.94127a6.47191,6.47191,0,0,1,6.47191,6.47191v15.96784a6.4719,6.4719,0,0,1-6.4719,6.4719h-31.94127a6.47191,6.47191,0,0,1-6.47191-6.47191v-15.96784a6.4719,6.4719,0,0,1,6.4719-6.4719Z" style="fill:url(#ba)"/><path d="M1615.65042,992.74444h35.62524a4.62992,4.62992,0,0,1,4.62992,4.62992v19.65182a4.62991,4.62991,0,0,1-4.62991,4.62991h-35.62524a4.62992,4.62992,0,0,1-4.62992-4.62992V997.37436A4.62991,4.62991,0,0,1,1615.65042,992.74444Z" style="fill:url(#bb)"/><circle cx="1622.13577" cy="1007.20027" r="3.06598" style="fill:#8f8e91"/><circle cx="1633.47872" cy="1007.20027" r="3.06598" style="fill:#8f8e91"/><circle cx="1644.82168" cy="1007.20027" r="3.06598" style="fill:#8f8e91"/><path d="M1766.3589,630.66374h31.94128a6.47192,6.47192,0,0,1,6.47192,6.47192v15.96786a6.4719,6.4719,0,0,1-6.4719,6.4719h-31.94128a6.47192,6.47192,0,0,1-6.47192-6.47192V637.13565a6.47191,6.47191,0,0,1,6.47191-6.47191Z" transform="translate(1137.20764 2427.44829) rotate(-89.99993)" style="fill:url(#bc)"/><path d="M1756.51051,630.66374h35.62526a4.62993,4.62993,0,0,1,4.62993,4.62993V654.9455a4.62992,4.62992,0,0,1-4.62992,4.62992h-35.62526a4.62992,4.62992,0,0,1-4.62992-4.62992V635.29366A4.62992,4.62992,0,0,1,1756.51051,630.66374Z" transform="translate(1129.20133 2419.44191) rotate(-89.99993)" style="fill:url(#bd)"/><circle cx="1774.32313" cy="656.44686" r="3.06598" style="fill:#8f8e91;opacity:0.44;mix-blend-mode:multiply"/><circle cx="1774.32314" cy="645.1039" r="3.06598" style="fill:#8f8e91;opacity:0.44;mix-blend-mode:multiply"/><circle cx="1774.32314" cy="633.76095" r="3.06598" style="fill:#8f8e91;opacity:0.44;mix-blend-mode:multiply"/><rect x="1480.88509" y="914.03873" width="304.93768" height="291.2463" transform="translate(3266.70786 2119.32375) rotate(-180)" style="opacity:0.75;fill:url(#be)"/><path d="M1484.204,630.66374h31.94128a6.47192,6.47192,0,0,1,6.47192,6.47192v15.96786a6.47191,6.47191,0,0,1-6.47191,6.47191H1484.204a6.47192,6.47192,0,0,1-6.47192-6.47192V637.13565a6.47191,6.47191,0,0,1,6.47191-6.47191Z" transform="translate(855.05312 2145.2934) rotate(-89.99993)" style="fill:url(#bf)"/><path d="M1474.35562,630.66374h35.62526a4.62993,4.62993,0,0,1,4.62993,4.62993V654.9455a4.62992,4.62992,0,0,1-4.62992,4.62992h-35.62526a4.62993,4.62993,0,0,1-4.62993-4.62993V635.29366a4.62992,4.62992,0,0,1,4.62992-4.62992Z" transform="translate(847.04679 2137.28702) rotate(-89.99993)" style="fill:url(#bg)"/><circle cx="1492.16825" cy="656.44686" r="3.06598" style="fill:#8f8e91;opacity:0.44;mix-blend-mode:multiply"/><circle cx="1492.16825" cy="645.1039" r="3.06598" style="fill:#8f8e91;opacity:0.44;mix-blend-mode:multiply"/><circle cx="1492.16826" cy="633.76095" r="3.06598" style="fill:#8f8e91;opacity:0.44;mix-blend-mode:multiply"/><rect x="285.30897" y="496.74635" width="1170.38616" height="708.53867" transform="translate(1741.0041 1702.03138) rotate(-180)" style="opacity:0.56;fill:url(#bh)"/><rect x="1811.26156" y="496.74635" width="1189.95936" height="708.53867" transform="translate(4812.48247 1702.03138) rotate(-180)" style="opacity:0.56;fill:url(#bi)"/><polygon points="1652.746 256.831 1614.223 256.831 1619.878 215.352 1647.091 215.352 1652.746 256.831" style="fill:url(#bj)"/><rect x="1607.37112" y="252.31364" width="52.22655" height="7.18331" style="fill:url(#bk)"/><rect x="1465.62517" y="16.98824" width="335.71847" height="209.49955" rx="8.68505" style="fill:#0f2631"/><rect x="1465.62516" y="0.00002" width="335.71847" height="209.49955" rx="4.62992" style="fill:url(#bl)"/><rect x="1540.71256" y="-59.33951" width="185.54367" height="335.71847" transform="translate(1524.96467 1742.00412) rotate(-90)" style="fill:#e1f4f0"/><polygon points="1717.14 144.597 1717.141 73.227 1788.51 73.227 1717.14 144.597" style="fill:#fff;opacity:0.5"/><polygon points="1482.213 200.991 1482.213 167.325 1515.879 167.325 1482.213 200.991" style="fill:#fff"/><polygon points="1515.88 121.133 1515.88 154.799 1482.214 154.799 1515.88 121.133" style="fill:#fff"/><polygon points="1792.679 125.45 1792.679 200.991 1717.138 200.991 1792.679 125.45" style="fill:#fff"/><rect x="1529.97183" y="110.65696" width="90.63453" height="90.63465" transform="translate(1419.31462 1731.26336) rotate(-89.99999)" style="fill:#fff"/><rect x="1568.75021" y="16.09493" width="51.85571" height="51.85537" transform="translate(1552.66371 1636.7009) rotate(-90.0003)" style="fill:#fff"/><circle cx="1633.4843" cy="8.01697" r="2.71997" style="fill:#fff"/><polygon points="1633.222 113.741 1669.025 93.07 1633.222 72.276 1633.222 113.741" style="fill:#2a3d58"/><polygon points="1633.222 113.741 1597.418 93.07 1633.222 72.276 1633.222 113.741" style="fill:#0f2631"/><polygon points="1669.025 51.605 1633.222 72.276 1669.025 93.07 1669.025 51.605" style="fill:#0f2631"/><polygon points="1669.025 51.605 1704.828 72.276 1669.025 93.07 1669.025 51.605" style="fill:#2a3d58"/><polygon points="1597.418 51.605 1561.615 72.276 1597.418 93.07 1597.418 51.605" style="fill:#0f2631"/><polygon points="1597.418 51.605 1633.222 72.276 1597.418 93.07 1597.418 51.605" style="fill:#2a3d58"/><polygon points="1633.222 170.757 1669.025 150.086 1633.222 129.291 1633.222 170.757" style="fill:#2a3d58"/><polygon points="1633.222 170.757 1597.418 150.086 1633.222 129.291 1633.222 170.757" style="fill:#0f2631"/><polygon points="1669.025 108.62 1633.222 129.291 1669.025 150.086 1669.025 108.62" style="fill:#0f2631"/><polygon points="1669.025 108.62 1704.828 129.291 1669.025 150.086 1669.025 108.62" style="fill:#2a3d58"/><polygon points="1597.418 108.62 1561.615 129.291 1597.418 150.086 1597.418 108.62" style="fill:#0f2631"/><polygon points="1597.418 108.62 1633.222 129.291 1597.418 150.086 1597.418 108.62" style="fill:#2a3d58"/><polygon points="1783.638 41.169 1765.363 22.894 1747.088 41.169 1783.638 41.169" style="fill:#fff"/><circle cx="1519.44558" cy="44.19755" r="7.43208" transform="translate(39.96289 393.19506) rotate(-14.9391)" style="fill:#fff"/><rect x="1308.72398" y="496.74635" width="146.64573" height="708.53867" transform="translate(2764.09368 1702.03138) rotate(-180)" style="opacity:0.35000000000000003;mix-blend-mode:multiply;fill:url(#bm)"/><rect x="1811.26151" y="496.74635" width="146.41487" height="708.53867" style="opacity:0.35000000000000003;mix-blend-mode:multiply;fill:url(#ax)"/><rect x="1219.83226" y="348.59993" width="59.26076" height="118.52169" transform="translate(1657.32375 -841.60176) rotate(90.00002)" style="mix-blend-mode:multiply;fill:url(#bo)"/><rect x="955.38083" y="348.59993" width="59.26076" height="118.52169" transform="translate(1392.87225 -577.15032) rotate(90.00002)" style="mix-blend-mode:multiply;fill:url(#bp)"/><rect x="690.93304" y="348.59993" width="59.26076" height="118.52169" transform="translate(1128.42439 -312.70254) rotate(90.00002)" style="mix-blend-mode:multiply;fill:url(#bq)"/><rect x="426.48161" y="348.59993" width="59.26076" height="118.52169" transform="translate(863.97289 -48.2511) rotate(90.00002)" style="mix-blend-mode:multiply;fill:url(#br)"/><rect x="162.03148" y="348.59993" width="59.26076" height="118.52169" transform="translate(599.5227 216.19902) rotate(90.00002)" style="mix-blend-mode:multiply;fill:url(#bs)"/><rect x="1234.64747" y="333.78473" width="29.63039" height="118.52169" transform="translate(1642.5089 -856.41689) rotate(90.00003)" style="mix-blend-mode:multiply;fill:url(#bt)"/><rect x="970.19604" y="333.78473" width="29.63039" height="118.52169" transform="translate(1378.05732 -591.96545) rotate(90.00003)" style="mix-blend-mode:multiply;fill:url(#bu)"/><rect x="705.74825" y="333.78473" width="29.63039" height="118.52169" transform="translate(1113.6094 -327.51767) rotate(90.00003)" style="mix-blend-mode:multiply;fill:url(#bv)"/><rect x="441.29682" y="333.78473" width="29.63039" height="118.52169" transform="translate(849.15782 -63.06623) rotate(90.00003)" style="mix-blend-mode:multiply;fill:url(#bw)"/><rect x="176.84669" y="333.78473" width="29.63039" height="118.52169" transform="translate(584.70756 201.38389) rotate(90.00003)" style="mix-blend-mode:multiply;fill:url(#bx)"/><rect x="3045.67763" y="348.59992" width="59.26076" height="118.52169" transform="translate(3483.16959 -2667.44714) rotate(90.00002)" style="mix-blend-mode:multiply;fill:url(#by)"/><rect x="2781.2262" y="348.59992" width="59.26076" height="118.52169" transform="translate(3218.71808 -2402.99571) rotate(90.00002)" style="mix-blend-mode:multiply;fill:url(#bz)"/><rect x="2516.77841" y="348.59992" width="59.26076" height="118.52169" transform="translate(2954.27023 -2138.54792) rotate(90.00002)" style="mix-blend-mode:multiply;fill:url(#ca)"/><rect x="2252.32698" y="348.59992" width="59.26076" height="118.52169" transform="translate(2689.81872 -1874.09649) rotate(90.00002)" style="mix-blend-mode:multiply;fill:url(#cb)"/><rect x="1987.87685" y="348.59992" width="59.26076" height="118.52169" transform="translate(2425.36853 -1609.64636) rotate(90.00002)" style="mix-blend-mode:multiply;fill:url(#cc)"/><rect x="3060.49284" y="333.78473" width="29.63038" height="118.52169" transform="translate(3468.35523 -2682.26225) rotate(90.00003)" style="mix-blend-mode:multiply;fill:url(#cd)"/><rect x="2796.04141" y="333.78473" width="29.63038" height="118.52169" transform="translate(3203.90365 -2417.81082) rotate(90.00003)" style="mix-blend-mode:multiply;fill:url(#ce)"/><rect x="2531.59362" y="333.78473" width="29.63038" height="118.52169" transform="translate(2939.45573 -2153.36303) rotate(90.00003)" style="mix-blend-mode:multiply;fill:url(#cf)"/><rect x="2267.14219" y="333.78473" width="29.63038" height="118.52169" transform="translate(2675.00415 -1888.9116) rotate(90.00003)" style="mix-blend-mode:multiply;fill:url(#cg)"/><rect x="2002.69206" y="333.78473" width="29.63038" height="118.52169" transform="translate(2410.55389 -1624.46147) rotate(90.00003)" style="mix-blend-mode:multiply;fill:url(#ch)"/><rect x="1603.85519" y="229.87652" width="59.26076" height="118.52169" transform="translate(1922.62337 -1344.34813) rotate(90.00002)" style="mix-blend-mode:multiply;fill:url(#ci)"/><rect x="1618.6704" y="215.06133" width="29.63038" height="118.52169" transform="translate(1907.80863 -1359.16327) rotate(90.00003)" style="mix-blend-mode:multiply;fill:url(#cj)"/></g></svg>