<svg xmlns="http://www.w3.org/2000/svg" viewBox="0 0 169.86726 38.67295"><title>logo</title><path d="M72.9576,22.97877c-.38575,3.93262-3.44043,6.355-7.72413,6.355-5.86328,0-8.53173-3.93212-8.53173-9.72558,0-5.688,2.77343-9.76074,8.35644-9.76074,5.75781,0,7.96973,3.89746,7.96973,9.02343v.84278H58.87849c.03516,5.16113,2.563,7.689,6.07422,7.689,3.01953,0,5.37207-1.26367,5.82813-4.42383Zm-2.10645-5.16113c-.14062-3.72168-2.21191-6.03906-5.688-6.03906-3.40576,0-5.72265,1.93115-6.21435,6.03906Z" style="fill:#01293c"/><path d="M78.81648,3.00075h2.10645V28.98268H78.81648Z" style="fill:#01293c"/><path d="M98.7989,25.96315h-.07031c-1.36963,2.10644-3.6167,3.3706-6.95215,3.3706-4.00244,0-5.93359-2.28222-5.93359-4.98584,0-5.477,5.72314-5.5122,9.65527-6.17919,2.8794-.45655,3.30078-.63184,3.30078-2.00147,0-2.52783-1.50976-4.38867-4.81005-4.38867-3.05469,0-4.56446,1.15869-5.05616,4.42383H86.75594c.42138-4.10791,2.77343-6.355,7.30273-6.355,4.24853,0,6.84668,2.07177,6.84668,6.84668V28.98268H98.7989Zm0-6.63574c-4.74023,1.26367-10.84912.56152-10.84912,4.73974,0,2.03662,1.72022,3.33545,4.10791,3.33545,3.93213,0,6.74121-2.3872,6.74121-6.144Z" style="fill:#01293c"/><path d="M107.83162,22.97877c.35107,3.33545,2.38769,4.42383,5.51269,4.42383,2.563,0,4.28321-.98291,4.28321-3.33545,0-5.5122-11.30567-1.40429-11.30567-8.88281,0-2.94922,2.21192-5.33691,6.31983-5.33691,3.93261,0,6.4956,2.07177,6.70605,6.355H117.171c-.28076-3.08985-1.79052-4.42383-4.52929-4.42383-3.12451,0-4.21289,1.65039-4.21289,3.44092,0,5.126,11.30517,1.43945,11.30517,8.77734,0,3.30029-2.52783,5.33691-6.706,5.33691-4.59912,0-7.12744-2.24707-7.37305-6.355Z" style="fill:#01293c"/><path d="M124.90877,12.0945h-2.70313v-1.896h2.70313V5.35329h2.10693V10.1985h4.38867v1.896H127.0157V24.45338c0,2.07178,1.01807,2.94922,2.563,2.94922a9.13068,9.13068,0,0,0,1.82568-.21045V29.053a9.21656,9.21656,0,0,1-2.1416.28076c-2.38769,0-4.354-1.40429-4.354-4.56445Z" style="fill:#01293c"/><path d="M133.65926,19.60817c0-5.82813,3.72168-9.76074,9.1289-9.76074,5.40674,0,9.12842,3.93261,9.12842,9.76074s-3.72168,9.72558-9.12842,9.72558C137.38094,29.33375,133.65926,25.43629,133.65926,19.60817Zm16.08056,0c0-4.66943-2.8789-7.82959-6.95166-7.82959-4.07324,0-6.95215,3.16016-6.95215,7.82959,0,4.66992,2.87891,7.79443,6.95215,7.79443C146.86092,27.4026,149.73982,24.27809,149.73982,19.60817Z" style="fill:#01293c"/><path d="M157.96492,22.97877c.35107,3.33545,2.38769,4.42383,5.51221,4.42383,2.56347,0,4.28369-.98291,4.28369-3.33545,0-5.5122-11.30567-1.40429-11.30567-8.88281,0-2.94922,2.21192-5.33691,6.31983-5.33691,3.93262,0,6.4956,2.07177,6.70605,6.355h-2.17675c-.28077-3.08985-1.79053-4.42383-4.5293-4.42383-3.12451,0-4.21289,1.65039-4.21289,3.44092,0,5.126,11.30517,1.43945,11.30517,8.77734,0,3.30029-2.52783,5.33691-6.706,5.33691-4.59912,0-7.12744-2.24707-7.37305-6.355Z" style="fill:#01293c"/><polygon points="23.241 20.168 34.862 13.458 23.241 6.709 23.241 20.168" style="fill:#2a3d58"/><polygon points="23.241 20.168 11.621 13.458 23.241 6.709 23.241 20.168" style="fill:#0f2631"/><polygon points="34.862 0 23.241 6.709 34.862 13.458 34.862 0" style="fill:#0f2631"/><polygon points="34.862 0 46.483 6.709 34.862 13.458 34.862 0" style="fill:#2a3d58"/><polygon points="11.621 0 0 6.709 11.621 13.458 11.621 0" style="fill:#0f2631"/><polygon points="11.621 0 23.241 6.709 11.621 13.458 11.621 0" style="fill:#2a3d58"/><polygon points="23.241 38.673 34.862 31.964 23.241 25.215 23.241 38.673" style="fill:#2a3d58"/><polygon points="23.241 38.673 11.621 31.964 23.241 25.215 23.241 38.673" style="fill:#0f2631"/><polygon points="34.862 18.505 23.241 25.215 34.862 31.964 34.862 18.505" style="fill:#0f2631"/><polygon points="34.862 18.505 46.483 25.215 34.862 31.964 34.862 18.505" style="fill:#2a3d58"/><polygon points="11.621 18.505 0 25.215 11.621 31.964 11.621 18.505" style="fill:#0f2631"/><polygon points="11.621 18.505 23.241 25.215 11.621 31.964 11.621 18.505" style="fill:#2a3d58"/></svg>