<svg xmlns="http://www.w3.org/2000/svg" width="21" height="22" viewBox="0 0 21 22"><g fill="none" fill-rule="nonzero"><path fill="#00ADEA" d="M7.111 9.384l1.414 1.414-2.02 2.02 2.02 2.02-1.414 1.415-3.434-3.435zM13.07 9.384l3.435 3.434-3.434 3.435-1.414-1.415 2.019-2.02-2.02-2.02z"/><path fill="#E9C408" d="M20.182 22V0H3.727A3.727 3.727 0 0 0 0 3.727v14.546A3.727 3.727 0 0 0 3.727 22h16.455zM18.18 2v18H3.727A1.727 1.727 0 0 1 2 18.273V3.727l.006-.149A1.727 1.727 0 0 1 3.727 2h14.454z"/></g></svg>