<svg xmlns="http://www.w3.org/2000/svg" width="15" height="26" viewBox="0 0 15 26"><g fill="none" fill-rule="nonzero"><path fill="#00ADEA" d="M12.968 14.459c-.193.019-.38.079-.549.176L7.26 17.58l-5.159-2.947a1.379 1.379 0 0 0-1.907.563l-.059.13c-.172.437-.109.937.174 1.32l5.8 7.871-.047-.075c.244.432.701.7 1.197.7l.135-.007c.399-.038.762-.25.993-.577l.023-.038 5.803-7.874a1.376 1.376 0 0 0-1.099-2.195l-.146.007zm-1.824 3.115l-3.884 5.27-3.883-5.27 3.884 2.22 3.883-2.22z"/><path fill="#E9C408" d="M.31 11.424l.072.09.064.068.036.035.074.063c.048.04.097.073.147.104l5.794 3.31.028.022a1.378 1.378 0 0 0 1.463.004l.032-.023 5.832-3.334.055-.037.097-.077.084-.079.111-.128.058-.082.052-.086.056-.112.05-.13.047-.194.017-.138.003-.107-.008-.136-.021-.135-.028-.109-.057-.158-.06-.117-.057-.095L8.447.722l.05.09A1.38 1.38 0 0 0 7.239.04l-.14.01c-.418.05-.79.288-1.01.647l-.021.036L.23 9.91l-.04.07c-.033.07-.033.07-.06.138a1.364 1.364 0 0 0-.09.533l.011.135.02.107.033.127.024.07.029.072.044.09.067.115.041.058zm6.951-8.99l5.08 7.984-5.08 2.903-5.081-2.903L7.26 2.433z"/></g></svg>