<svg xmlns="http://www.w3.org/2000/svg" xmlns:xlink="http://www.w3.org/1999/xlink" width="22" height="24" viewBox="0 0 22 24"><defs><path id="a" d="M8.993 12.119c.395.432.4 1.127.007 1.558a.936.936 0 0 1-1.418-.004L3.297 8.779a1.173 1.173 0 0 1 0-1.56l4.285-4.893A.94.94 0 0 1 9 2.32c.39.428.392 1.121-.007 1.559L6.414 6.902h11.584C18.55 6.902 19 7.39 19 8c0 .606-.452 1.097-1.002 1.097H6.414l2.58 3.023z"/></defs><g fill="none" fill-rule="evenodd"><path fill="#E9C408" fill-rule="nonzero" d="M22 18.343c0 3.255-4.987 5.5-11 5.5s-11-2.245-11-5.5c0-2.064 2.003-3.72 5-4.658V15.8c-1.849.675-3 1.619-3 2.543 0 1.714 3.967 3.5 9 3.5 5.033 0 9-1.786 9-3.5 0-.924-1.15-1.868-3-2.543v-2.114c2.997.937 5 2.594 5 4.657z"/><use fill="#00ADEA" transform="matrix(0 -1 -1 0 19 19)" xlink:href="#a"/></g></svg>