<svg xmlns="http://www.w3.org/2000/svg" width="194" height="322" viewBox="0 0 194 322"><g fill="none" fill-rule="evenodd"><path fill="#E9C408" d="M0 97h97v97H0z"/><path fill="#00DD62" d="M0 194h97L0 291z"/><path fill="#00ADEA" d="M97 291h97v-97z"/><path fill="#5856D6" d="M129.64 97H97v96.64h96.64V161c0-35.346-28.654-64-64-64z"/><path fill="#F45656" d="M130 194H97V97h97v33c0 35.346-28.654 64-64 64z"/><path fill="#00ADEA" d="M161 0h33v97H97V64c0-35.346 28.654-64 64-64z"/><g transform="rotate(135 -13.111 151.778)"><circle cx="8" cy="8" r="8" fill="#F48424"/><circle cx="40" cy="8" r="8" fill="#F48424"/><circle cx="72" cy="8" r="8" fill="#E9C408"/></g></g></svg>