<svg xmlns="http://www.w3.org/2000/svg" width="38" height="27" viewBox="0 0 38 27"><g fill="none" fill-rule="evenodd" stroke-width="2"><path stroke="#0BF" stroke-dasharray="2 2" d="M25 1l7.053 2.292 4.36 6v7.416l-4.36 6L25 25l-7.053-2.292-4.36-6V9.292l4.36-6L25 1z"/><path stroke="#E9C408" stroke-dasharray="2 2" d="M13 1l7.053 2.292 4.36 6v7.416l-4.36 6L13 25l-7.053-2.292-4.36-6V9.292l4.36-6L13 1z"/><path fill="#08B755" fill-opacity=".1" stroke="#00DD62" d="M19 3l1.053.343 4.36 6v7.416l-4.36 6-1.053.342-1.053-.342-4.36-6V9.343l4.36-6L19 3z"/></g></svg>