<svg xmlns="http://www.w3.org/2000/svg" xmlns:xlink="http://www.w3.org/1999/xlink" width="31" height="16" viewBox="0 0 31 16"><defs><path id="a" d="M0 0h15v14H0z"/></defs><g fill="none" fill-rule="evenodd"><path fill="#E9C408" fill-rule="nonzero" d="M8 16c3.862 0 7.096-2.754 7.837-6.4H19.2v3.2h3.2V9.6h3.2v4.8h3.2V9.6h1.6V6.4H15.837C15.096 2.754 11.862 0 8 0 3.589 0 0 3.589 0 8s3.589 8 8 8zM8 3.2c2.646 0 4.8 2.154 4.8 4.8s-2.154 4.8-4.8 4.8A4.806 4.806 0 0 1 3.2 8c0-2.646 2.154-4.8 4.8-4.8z"/><g transform="translate(16 2)"><mask id="b" fill="#fff"><use xlink:href="#a"/></mask><path fill="#00ADEA" fill-rule="nonzero" d="M-8 14c3.862 0 7.096-2.754 7.837-6.4H3.2v3.2h3.2V7.6h3.2v4.8h3.2V7.6h1.6V4.4H-.163C-.904.754-4.138-2-8-2c-4.411 0-8 3.589-8 8s3.589 8 8 8zm0-12.8c2.646 0 4.8 2.154 4.8 4.8s-2.154 4.8-4.8 4.8A4.806 4.806 0 0 1-12.8 6c0-2.646 2.154-4.8 4.8-4.8z" mask="url(#b)"/></g></g></svg>