<svg xmlns="http://www.w3.org/2000/svg" width="232" height="30" viewBox="0 0 232 30"><g fill="none" fill-rule="evenodd"><path fill="#FFF" fill-rule="nonzero" d="M57.628 23.52V11.448l6.888 12.072h2.808V7.2H64.54v11.328L58.084 7.2h-3.24v16.32h2.784zm17.256.288c1.656 0 2.88-.624 3.912-2.04l.096 1.752h2.448V11.064h-2.88v8.04c-.696 1.488-1.656 2.16-2.856 2.16-1.224 0-1.8-.672-1.8-2.232v-7.968h-2.88v8.232c0 2.976 1.344 4.512 3.96 4.512zm14.76 0c3.312 0 5.088-1.632 5.16-4.848h-2.76c-.096 1.704-.84 2.448-2.376 2.448-1.68 0-2.472-.888-2.472-2.928v-2.376c0-2.04.792-2.928 2.472-2.928 1.536 0 2.28.744 2.376 2.424h2.76c-.072-3.216-1.848-4.824-5.16-4.824-3.504 0-5.328 1.8-5.328 5.28v2.448c0 3.504 1.824 5.304 5.328 5.304zm10.608-.288V6h-2.88v17.52h2.88zm8.52.288c3.216 0 5.064-1.392 5.208-4.056h-2.76c-.096 1.08-.936 1.728-2.448 1.728-1.848 0-2.664-.936-2.664-2.952v-.384h7.944V16.08c0-3.432-1.872-5.304-5.424-5.304-3.504 0-5.4 1.848-5.4 5.28v2.448c0 3.48 1.92 5.304 5.544 5.304zm2.544-7.8h-5.208c0-2.016.792-2.904 2.616-2.904 1.8 0 2.592.888 2.592 2.904zm9.48 7.8c1.656 0 2.88-.624 3.912-2.04l.096 1.752h2.448V11.064h-2.88v8.04c-.696 1.488-1.656 2.16-2.856 2.16-1.224 0-1.8-.672-1.8-2.232v-7.968h-2.88v8.232c0 2.976 1.344 4.512 3.96 4.512zm14.232 0c3.408 0 5.112-1.32 5.112-3.936 0-2.376-1.224-3.504-4.464-3.864-2.04-.216-2.784-.624-2.784-1.608 0-.888.744-1.416 2.112-1.416 1.44 0 2.112.552 2.112 1.704h2.76c0-2.568-1.656-3.912-4.848-3.912s-4.968 1.368-4.968 3.936c0 2.304 1.224 3.312 4.392 3.696 2.112.264 2.856.696 2.856 1.728 0 .96-.744 1.464-2.28 1.464-1.68 0-2.472-.6-2.472-1.824h-2.736c0 2.688 1.68 4.032 5.208 4.032zm17.592 0c3.648 0 5.664-1.824 5.832-5.28h-1.344c-.168 2.712-1.704 4.008-4.488 4.008-3.12 0-4.632-1.656-4.632-5.136v-4.08c0-3.48 1.512-5.136 4.632-5.136 2.808 0 4.32 1.344 4.488 4.032h1.344c-.168-3.48-2.184-5.304-5.832-5.304-3.96 0-6 2.136-6 6.312v4.272c0 4.176 2.064 6.312 6 6.312zm14.064 0c3.36 0 5.208-1.872 5.208-5.304v-2.256c0-3.432-1.848-5.304-5.208-5.304-3.384 0-5.208 1.872-5.208 5.304v2.256c0 3.432 1.824 5.304 5.208 5.304zm0-1.176c-2.568 0-3.864-1.44-3.864-4.224V16.32c0-2.76 1.296-4.2 3.864-4.2 2.568 0 3.864 1.44 3.864 4.2v2.088c0 2.784-1.296 4.224-3.864 4.224zm10.224.888v-8.16c.984-2.232 2.328-3.192 4.056-3.192 1.848 0 2.712 1.104 2.712 3.36v7.992h1.344v-8.136c0-2.904-1.296-4.44-3.84-4.44-1.896 0-3.36.864-4.416 2.664l-.048-2.376h-1.152V23.52h1.344zm16.032.288c3.168 0 4.824-1.272 4.824-3.648 0-2.208-1.248-3.192-4.584-3.528-2.616-.264-3.576-.84-3.576-2.208 0-1.464 1.224-2.328 3.336-2.328s3.216.888 3.216 2.496h1.32c0-2.376-1.608-3.648-4.56-3.648-2.952 0-4.608 1.296-4.608 3.576 0 2.064 1.2 2.976 4.392 3.312 2.76.288 3.744.936 3.744 2.424 0 1.536-1.2 2.376-3.528 2.376-2.424 0-3.624-.888-3.624-2.592h-1.296c0 2.472 1.704 3.768 4.944 3.768zm12.72 0c3.36 0 5.208-1.872 5.208-5.304v-2.256c0-3.432-1.848-5.304-5.208-5.304-3.384 0-5.208 1.872-5.208 5.304v2.256c0 3.432 1.824 5.304 5.208 5.304zm0-1.176c-2.568 0-3.864-1.44-3.864-4.224V16.32c0-2.76 1.296-4.2 3.864-4.2 2.568 0 3.864 1.44 3.864 4.2v2.088c0 2.784-1.296 4.224-3.864 4.224zm10.224.888V6h-1.344v17.52h1.344zm8.88.288c2.904 0 4.68-1.368 4.848-3.888h-1.296c-.144 1.704-1.392 2.712-3.6 2.712-2.568 0-3.816-1.344-3.816-4.128v-.84h8.808v-1.512c0-3.384-1.776-5.208-5.064-5.208-3.288 0-5.088 1.824-5.088 5.208V18.6c0 3.384 1.848 5.208 5.208 5.208zm3.648-7.296H220.9v-.264c0-2.784 1.2-4.128 3.744-4.128 2.544 0 3.768 1.344 3.768 4.128v.264z"/><g stroke-width="2"><path stroke="#0BF" stroke-dasharray="2 2" d="M24 3l7.053 2.292 4.36 6v7.416l-4.36 6L24 27l-7.053-2.292-4.36-6v-7.416l4.36-6L24 3z"/><path stroke="#E9C408" stroke-dasharray="2 2" d="M12 3l7.053 2.292 4.36 6v7.416l-4.36 6L12 27l-7.053-2.292-4.36-6v-7.416l4.36-6L12 3z"/><path fill="#08B755" fill-opacity=".1" stroke="#00DD62" d="M18 5l1.053.343 4.36 6v7.416l-4.36 6-1.053.342-1.053-.342-4.36-6v-7.416l4.36-6L18 5z"/></g></g></svg>