<svg xmlns="http://www.w3.org/2000/svg" xmlns:xlink="http://www.w3.org/1999/xlink" width="539" height="500" viewBox="0 0 539 500"><defs><circle id="a" cx="37.84" cy="37.48" r="37"/><ellipse id="c" cx="60.36" cy="61" rx="60" ry="61"/><circle id="d" cx="49.14" cy="49.06" r="48.5"/></defs><g fill="none" fill-rule="evenodd" transform="translate(0 -9)"><path fill="#00ADEA" d="M249 106h97v97h-97z"/><path stroke="#00DD62" stroke-width="20" d="M452 213h77v77h-77z"/><path stroke="#242A37" stroke-width="20" d="M56.569 409.143l42.426 42.426-42.426 42.427-42.427-42.427z"/><path fill="#5856D6" d="M56 106h97v97H56z"/><path fill="#E9C408" d="M217 9h33v97h-97V73c0-35.346 28.654-64 64-64z"/><path fill="#F48424" d="M217 203h33v97h-97v-33c0-35.346 28.654-64 64-64z"/><path fill="#F45656" d="M120 203h33v97H56v-33c0-35.346 28.654-64 64-64z"/><g transform="translate(152.6 299.96)"><path fill="#E9C408" d="M64.4.04h33v97H.4v-33c0-35.346 28.654-64 64-64z"/><path fill="#00DD62" d="M160.4 194.04h33v-97h-97v33c0 35.346 28.654 64 64 64z"/><path fill="#003961" d="M129.4.04h-33v97h97v-33c0-35.346-28.654-64-64-64z"/><circle cx="96.4" cy="96.04" r="43" fill="#181B22"/></g><path fill="#E9C408" d="M249 203l97 97h-97z"/><path fill="#F45656" d="M346 299.64L442.64 203H346z"/><path fill="#E9C408" d="M56 107l97 97H56z"/><path fill="#00DD62" d="M249 9l97 97h-97z"/><circle cx="393" cy="154" r="37" fill="#E9C408"/><g transform="translate(163.16 116.52)"><mask id="b" fill="#fff"><use xlink:href="#a"/></mask><path fill="#F45656" d="M.84.48h74v37h-74z" mask="url(#b)"/></g><g transform="rotate(180 124.82 150.28)"><mask id="e" fill="#fff"><use xlink:href="#d"/></mask><path fill="#00DD62" d="M.64.56h49v48h-49z" mask="url(#e)"/></g><circle cx="43.6" cy="43.96" r="20" fill="#00ADEA" transform="translate(205.4 352.04)"/><path fill="#5856D6" d="M378 494h-33v-97h97v33c0 35.346-28.654 64-64 64z"/><g fill="#00DD62" transform="rotate(90 200 299)"><circle cx="8" cy="8" r="8"/><circle cx="40" cy="8" r="8"/><circle cx="72" cy="8" r="8"/></g><g fill="#F45656" transform="rotate(90 -113 225)"><circle cx="8" cy="8" r="8"/><circle cx="40" cy="8" r="8"/></g><g transform="rotate(45 195.272 473.902)"><circle cx="8.917" cy="40" r="8" fill="#00DD62"/><circle cx="41.444" cy="40" r="8" fill="#00ADEA"/><circle cx="40.737" cy="71.82" r="8" fill="#E9C408"/><circle cx="40.737" cy="8.18" r="8" fill="#F45656"/><circle cx="72.556" cy="40" r="8" fill="#5856D6"/></g><g transform="translate(24 49)"><circle cx="8" cy="8" r="8" fill="#00ADEA"/><circle cx="40" cy="8" r="8" fill="#00DD62"/><circle cx="72" cy="8" r="8" fill="#E9C408"/></g><path fill="#F48424" d="M490.5 396c-26.786 0-48.5-21.714-48.5-48.5V299h97v48.5c0 26.786-21.714 48.5-48.5 48.5z"/></g></svg>