<svg xmlns="http://www.w3.org/2000/svg" width="627" height="356" viewBox="0 0 627 356"><g fill="none" fill-rule="evenodd"><path fill="#E9C408" d="M0 89.428l269.24-.253h89.921L448.156-1H628c-96.812 24.453-156.812 54.12-180 89-23.188 34.88-31.522 89.214-25 163l-154.236 16L180 177 0 267V89.428z"/><path fill="#5856D6" d="M90 89h89v89H90z"/><path fill="#00DD62" d="M536 356h-89v-89h89z"/><path fill="#242A37" d="M449 178h89v89z"/><path fill="#003961" d="M602 356h25v-89h-89v25c0 35.346 28.654 64 64 64z"/><path fill="#E9C408" d="M563 179h-25v89h89v-25c0-35.346-28.654-64-64-64z"/><path fill="#00DD62" d="M270 267h89v89h-89z"/><path fill="#181B22" d="M359 89V0h-89z"/><path fill="#00DD62" d="M359 88h89v89h-89z"/><path fill="#F48424" d="M0 88.5h90v90H0z"/><path fill="#F45656" d="M422 177h25v89h-89v-25c0-35.346 28.654-64 64-64z"/><path fill="#00ADEA" d="M89 178h89l-89 89z"/><path fill="#5856D6" d="M180 268h89l-89 89z"/><path fill="#F45656" d="M563 179h-25V90h89v25c0 35.346-28.654 64-64 64zM473 88h-25V-1h89v25c0 35.346-28.654 64-64 64z"/><path fill="#242A37" d="M627 89h-89l89 89zM627 89h-89l89-89z"/><path fill="#F45656" d="M178 268H89v-89z"/><path fill="#242A37" d="M269 178l89 89h-89z"/><path fill="#00ADEA" d="M359 89l89 89h-89z"/><path fill="#F48424" d="M359 178l-89 89h89z"/><path fill="#5856D6" d="M270 179l-89 89h89zM448-1l-89 89h89zM90 89.5l-90 90h90z"/><path fill="#242A37" d="M180 267l89 89h-89z"/><path fill="#003961" d="M204 89h-25v89h89v-25c0-35.346-28.654-64-64-64zM385 266h-26v90h90v-26c0-35.346-28.654-64-64-64z"/><path fill="#F45656" d="M154 0h25v89H90V64c0-35.346 28.654-64 64-64zM64 178h25v89H0v-25c0-35.346 28.654-64 64-64z"/><g transform="translate(450 90)"><circle cx="43" cy="43" r="43" fill="#5856D6"/><circle cx="43" cy="43" r="20" fill="#00ADEA"/></g><g transform="translate(90 1)"><circle cx="44.5" cy="132.5" r="44.5" fill="#E9C408"/><circle cx="224.5" cy="310.5" r="44.5" fill="#003961"/><circle cx="133.5" cy="44.5" r="44.5" fill="#003961"/><circle cx="44" cy="133" r="21" fill="#00ADEA"/><circle cx="224" cy="311" r="21" fill="#F45656"/><circle cx="224" cy="133" r="21" fill="#F45656"/><circle cx="133" cy="45" r="21" fill="#E9C408"/></g><path fill="#242A37" d="M64 356h25v-89H0v25c0 35.346 28.654 64 64 64z"/><path fill="#00DD62" d="M602 88h25V-1h-89v25c0 35.346 28.654 64 64 64z"/></g></svg>