<svg xmlns="http://www.w3.org/2000/svg" width="24" height="24" viewBox="0 0 24 24"><g fill="none" fill-rule="nonzero"><path fill="#E9C408" d="M21.286.714h-8.572a2 2 0 0 0-2 2v8.572a2 2 0 0 0 2 2h8.572a2 2 0 0 0 2-2V2.714a2 2 0 0 0-2-2zm0 2v8.572h-8.572V2.714h8.572z"/><path fill="#00ADEA" d="M5.571 10.714l-.154.006c-1.674.12-2.48 2.178-1.265 3.403l.439.443-3.29 3.291a2 2 0 0 0 0 2.829L3.313 22.7l.128.117a2 2 0 0 0 2.7-.117l3.291-3.292.444.44c1.262 1.253 3.409.359 3.409-1.42v-5.714a2 2 0 0 0-2-2H5.57zm5.715 2v5.715l-1.857-1.843-4.7 4.7-2.015-2.015 4.7-4.7-1.843-1.857h5.715z"/></g></svg>