<svg xmlns="http://www.w3.org/2000/svg" width="24" height="18" viewBox="0 0 24 18"><g fill="none" fill-rule="nonzero"><path fill="#E9C408" d="M12 0C8.62 0 5.661 1.632 3.145 4.316a20.492 20.492 0 0 0-2.25 2.891l-.239.378c-.257.417-.441.75-.55.968a1 1 0 0 0 0 .894l.112.215a20.492 20.492 0 0 0 2.928 4.022C5.66 16.368 8.62 18 12 18c3.38 0 6.339-1.632 8.855-4.316a20.492 20.492 0 0 0 2.25-2.891l.239-.378c.257-.417.441-.75.55-.968a1 1 0 0 0 0-.894l-.112-.215a20.492 20.492 0 0 0-2.928-4.022C18.34 1.632 15.38 0 12 0zm0 2c2.745 0 5.224 1.368 7.395 3.684a18.513 18.513 0 0 1 2.03 2.609l.146.228.134.219.153.26-.153.26a18.513 18.513 0 0 1-2.31 3.056C17.224 14.632 14.745 16 12 16c-2.745 0-5.224-1.368-7.395-3.684a18.513 18.513 0 0 1-2.03-2.609l-.146-.228-.134-.219L2.14 9l.154-.26a18.513 18.513 0 0 1 2.31-3.056C6.776 3.368 9.255 2 12 2z"/><path fill="#00ADEA" d="M12 5a4 4 0 1 0 0 8 4 4 0 0 0 0-8zm0 2a2 2 0 1 1 0 4 2 2 0 0 1 0-4z"/></g></svg>