<svg xmlns="http://www.w3.org/2000/svg" width="24" height="20" viewBox="0 0 24 20"><g fill="none" fill-rule="evenodd"><path stroke="#000" stroke-linecap="round" stroke-linejoin="round" stroke-width="2" d="M16 14l-4-4-4 4"/><path fill="#00ADEA" fill-rule="nonzero" d="M12 9a1 1 0 0 1 .993.883L13 10v9a1 1 0 0 1-1.993.117L11 19v-9a1 1 0 0 1 1-1z"/><path fill="#E9C408" fill-rule="nonzero" d="M1.013 4.843a9 9 0 0 1 16.443 1.092l.022.065h.523a6 6 0 0 1 5.744 4.28l.066.24a6 6 0 0 1-2.942 6.748 1 1 0 1 1-.958-1.756 4 4 0 0 0-1.709-7.507L18 8h-1.26a1 1 0 0 1-.968-.75 7 7 0 1 0-12.023 6.388 1 1 0 1 1-1.498 1.324A9 9 0 0 1 1.013 4.843z"/><path fill="#00ADEA" fill-rule="nonzero" d="M11.293 9.293a1 1 0 0 1 1.32-.083l.094.083 4 4a1 1 0 0 1-1.32 1.497l-.094-.083L12 11.415l-3.293 3.292a1 1 0 0 1-1.32.083l-.094-.083a1 1 0 0 1-.083-1.32l.083-.094 4-4z"/></g></svg>