<svg xmlns="http://www.w3.org/2000/svg" width="26" height="24" viewBox="0 0 26 24"><g fill="none" fill-rule="nonzero"><path fill="#E9C408" d="M19.75.25a2.75 2.75 0 0 1 2.743 2.552L22.5 3v2.25a1.25 1.25 0 0 1-2.494.128L20 5.25V3a.25.25 0 0 0-.185-.241l-.065-.009H4a1 1 0 0 0-.993.883L3 3.75v16.5a1 1 0 0 0 .883.993L4 21.25h17.25a.25.25 0 0 0 .243-.193L21.5 21v-3a1.25 1.25 0 0 1 2.494-.128L24 18v3a2.75 2.75 0 0 1-2.582 2.745l-.168.005H4a3.5 3.5 0 0 1-3.495-3.308L.5 20.25V3.75A3.5 3.5 0 0 1 3.808.255L4 .25h15.75z"/><path fill="#E9C408" d="M4.4 3.265a1.25 1.25 0 0 1 1.628.363l.073.115a.51.51 0 0 0 .421.255L6.625 4H21.25a2.75 2.75 0 0 1 2.745 2.582L24 6.75v3.75a1.25 1.25 0 0 1-2.494.128L21.5 10.5V6.75a.25.25 0 0 0-.193-.243L21.25 6.5 6.684 6.499A3.006 3.006 0 0 1 3.92 4.967a1.25 1.25 0 0 1 .478-1.702z"/><path fill="#00ADEA" d="M22.75 9.25H19a5 5 0 0 0 0 10h3.75a2.75 2.75 0 0 0 2.75-2.75V12a2.75 2.75 0 0 0-2.75-2.75zM19 11.75h3.75A.25.25 0 0 1 23 12v4.5a.25.25 0 0 1-.25.25H19a2.5 2.5 0 1 1 0-5z"/><path fill="#00ADEA" d="M19 13.125l.123.007a1.125 1.125 0 1 1-.246 0l.123-.007z"/></g></svg>