<svg xmlns="http://www.w3.org/2000/svg" width="16" height="16" viewBox="0 0 16 16"><path fill="#FFF" fill-rule="nonzero" d="M11.916 3.615l2.25-2.25-1.13-1.13-2.278 2.276a5.26 5.26 0 0 0-.578-.363 4.623 4.623 0 0 0-4.36 0c-.2.106-.39.23-.578.362L2.966.234 1.834 1.366l2.25 2.25A6.779 6.779 0 0 0 3.005 5.6H0v1.6h1.846a9.23 9.23 0 0 0-.086 1.2c0 .406.034.81.086 1.209H0v1.6h2.202c.01.031.017.064.028.094.15.444.336.875.556 1.28.035.065.076.124.112.187l-1.864 1.864 1.132 1.132 1.688-1.69a5.982 5.982 0 0 0 1.654 1.295c.383.203.786.36 1.197.465a5.212 5.212 0 0 0 2.59 0 5.45 5.45 0 0 0 1.196-.463c.372-.197.731-.44 1.067-.723.206-.175.4-.37.587-.573l1.689 1.689 1.13-1.132-1.863-1.864c.037-.064.078-.124.113-.188.219-.404.406-.835.556-1.28.01-.03.016-.063.027-.094H16v-1.6h-1.846c.052-.4.085-.803.085-1.209 0-.402-.033-.804-.085-1.2H16V5.6h-3.005a6.795 6.795 0 0 0-1.079-1.985zm-6.571.983a3.918 3.918 0 0 1 1.222-1.035 3.019 3.019 0 0 1 2.865 0c.455.241.867.589 1.224 1.036.24.299.432.64.602 1.001H4.742c.17-.36.363-.703.603-1.002zM12.64 8.4c0 .418-.034.835-.1 1.242-.064.392-.16.779-.285 1.15-.12.358-.272.705-.447 1.03-.174.319-.37.617-.586.888a5.245 5.245 0 0 1-.696.718 4.46 4.46 0 0 1-.783.531 3.861 3.861 0 0 1-.845.328c-.032.008-.066.011-.098.019V9.6H7.2v4.705c-.032-.007-.066-.01-.098-.019a3.877 3.877 0 0 1-.845-.328 4.426 4.426 0 0 1-.783-.53 5.17 5.17 0 0 1-.696-.72 5.921 5.921 0 0 1-.585-.886 6.67 6.67 0 0 1-.448-1.032 7.26 7.26 0 0 1-.285-1.15 7.687 7.687 0 0 1-.005-2.44h9.089c.063.393.096.796.096 1.2z" opacity=".8"/></svg>