<svg xmlns="http://www.w3.org/2000/svg" width="20" height="20" viewBox="0 0 20 20"><g fill="none" fill-rule="nonzero"><path fill="#00ADEA" d="M10 4a3.939 3.939 0 0 0-3.934 3.934h2C8.066 6.867 8.934 6 10 6c1.066 0 1.934.867 1.934 1.934 0 .598-.481 1.032-1.216 1.626a9.208 9.208 0 0 0-.691.599C9.029 11.156 9 12.215 9 12.333V13h2l-.001-.633c.001-.016.033-.386.441-.793.15-.15.339-.3.535-.458.779-.631 1.958-1.584 1.958-3.182A3.937 3.937 0 0 0 10 4zM9 14h2v2H9v-2z"/><path fill="#E9C408" d="M10 0C4.486 0 0 4.486 0 10s4.486 10 10 10 10-4.486 10-10S15.514 0 10 0zm0 18c-4.411 0-8-3.589-8-8s3.589-8 8-8 8 3.589 8 8-3.589 8-8 8z"/></g></svg>