<svg xmlns="http://www.w3.org/2000/svg" width="16" height="16" viewBox="0 0 16 16"><path fill="#FFF" fill-rule="nonzero" d="M8 0c4.418 0 8 3.672 8 8.202 0 3.624-2.29 6.697-5.466 7.783-.406.08-.55-.175-.55-.394 0-.27.01-1.153.01-2.251 0-.765-.256-1.264-.544-1.518 1.782-.204 3.654-.897 3.654-4.048 0-.896-.31-1.627-.824-2.201.083-.207.358-1.042-.078-2.171 0 0-.67-.22-2.198.84A7.517 7.517 0 0 0 8 3.966a7.5 7.5 0 0 0-2.002.276c-1.53-1.06-2.201-.84-2.201-.84-.435 1.13-.16 1.964-.078 2.17a3.22 3.22 0 0 0-.824 2.202c0 3.143 1.868 3.847 3.645 4.054-.229.205-.436.566-.508 1.097-.456.21-1.614.572-2.328-.682 0 0-.423-.788-1.226-.845 0 0-.78-.01-.055.498 0 0 .524.252.888 1.2 0 0 .47 1.464 2.695.968.004.686.012 1.332.012 1.527 0 .217-.148.47-.547.395C2.292 14.902 0 11.826 0 8.202 0 3.672 3.582 0 8 0" opacity=".8"/></svg>