<svg xmlns="http://www.w3.org/2000/svg" width="285" height="85" fill="none" viewBox="0 0 285 85"><path fill="url(#paint0_linear)" d="M211.882 24.2147C211.882 22.4266 212.837 20.7746 214.387 19.8821L245.845 1.76207C247.39 0.872272 249.291 0.872273 250.836 1.76207L282.294 19.8821C283.844 20.7746 284.799 22.4266 284.799 24.2147V60.3863C284.799 62.1745 283.844 63.8265 282.294 64.719L250.836 82.839C249.291 83.7288 247.39 83.7288 245.845 82.839L214.387 64.719C212.837 63.8265 211.882 62.1744 211.882 60.3863V24.2147Z"/><mask id="mask0" width="74" height="83" x="211" y="1" mask-type="alpha" maskUnits="userSpaceOnUse"><path fill="url(#paint1_linear)" d="M211.882 24.2147C211.882 22.4266 212.837 20.7746 214.387 19.8821L245.845 1.76207C247.39 0.872272 249.291 0.872273 250.836 1.76207L282.294 19.8821C283.844 20.7746 284.799 22.4266 284.799 24.2147V60.3863C284.799 62.1745 283.844 63.8265 282.294 64.719L250.836 82.839C249.291 83.7288 247.39 83.7288 245.845 82.839L214.387 64.719C212.837 63.8265 211.882 62.1744 211.882 60.3863V24.2147Z"/></mask><g mask="url(#mask0)"><path fill="#0B697C" fill-rule="evenodd" d="M266.384 52.6138L248.237 63.1765L230.092 52.6138V73.8008L248.237 63.1766V63.1767L230.092 73.8008L248.237 84.3619V84.362L248.237 84.362L248.237 84.362V84.3619L266.384 73.8008L248.237 63.1767V63.1766L266.384 73.8008V52.6138ZM284.531 63.1766L266.384 52.6138V73.8008L284.531 63.1766ZM230.092 52.6138L211.945 63.1766L230.092 73.8008V52.6138Z" clip-rule="evenodd"/><path fill="#1D99A8" fill-rule="evenodd" d="M266.384 31.6138L248.237 42.1765L230.092 31.6138V52.8008L248.237 42.1766V42.1767L230.092 52.8008L248.237 63.3619V63.362L248.237 63.362L248.237 63.362V63.3619L266.384 52.8008L248.237 42.1767V42.1766L266.384 52.8008V31.6138ZM284.531 42.1766L266.384 31.6138V52.8008L284.531 42.1766ZM230.092 31.6138L211.945 42.1766L230.092 52.8008V31.6138Z" clip-rule="evenodd"/><path fill="#47E2E6" fill-rule="evenodd" d="M266.384 10.6138L248.237 21.1765L230.092 10.6138V31.8008L248.237 21.1766V21.1767L230.092 31.8008L248.237 42.3619V42.362L248.237 42.362L248.237 42.362V42.3619L266.384 31.8008L248.237 21.1767V21.1766L266.384 31.8008V10.6138ZM284.531 21.1766L266.384 10.6138V31.8008L284.531 21.1766ZM230.092 10.6138L211.945 21.1766L230.092 31.8008V10.6138Z" clip-rule="evenodd"/><path fill="#fff" d="M226.301 76.9817C225.218 76.9817 224.265 76.907 223.443 76.7575C222.621 76.6454 221.911 76.5146 221.313 76.3652V69.303C221.911 69.4525 222.546 69.5832 223.219 69.6953C223.854 69.8074 224.545 69.8635 225.293 69.8635C226.264 69.8635 227.142 69.6767 227.927 69.303C228.749 68.9293 229.384 68.2194 229.833 67.1731C230.281 66.1269 230.505 64.6323 230.505 62.6892V25.1926H238.968V62.6332C238.968 66.0709 238.427 68.8359 237.343 70.9284C236.297 73.0583 234.821 74.5903 232.915 75.5244C231.01 76.4959 228.805 76.9817 226.301 76.9817Z"/><path fill="#fff" d="M257.015 60.2195C254.364 60.2195 251.931 59.8168 249.716 59.0114C247.535 58.1725 245.79 56.9477 244.482 55.337C243.173 53.7263 242.519 51.78 242.519 49.4981L242.569 48.3908H249.968L249.918 49.1961C249.918 50.6726 250.572 51.8471 251.881 52.7196C253.19 53.592 255.018 54.0283 257.367 54.0283C259.85 54.0283 261.646 53.7095 262.753 53.0719C263.861 52.4008 264.414 51.5115 264.414 50.4042C264.414 49.431 264.045 48.6257 263.307 47.9881C262.602 47.3169 261.696 46.7968 260.589 46.4277C259.515 46.025 258.022 45.5552 256.109 45.0183C253.391 44.2465 251.193 43.5083 249.515 42.8036C247.837 42.0989 246.394 41.0586 245.186 39.6828C243.978 38.2734 243.374 36.4278 243.374 34.146C243.374 30.9917 244.649 28.5924 247.2 26.9481C249.75 25.3038 253.139 24.4817 257.367 24.4817C261.361 24.4817 264.616 25.3374 267.132 27.0488C269.683 28.7266 270.958 31.2601 270.958 34.6493V35.2534H263.709V34.8003C263.709 33.5252 263.122 32.5185 261.948 31.7802C260.807 31.042 259.246 30.6729 257.267 30.6729C255.153 30.6729 253.525 30.9581 252.384 31.5286C251.277 32.099 250.723 32.8876 250.723 33.8943C250.723 34.6661 251.059 35.3372 251.73 35.9077C252.401 36.4446 253.24 36.8976 254.247 37.2667C255.253 37.6023 256.679 38.0218 258.525 38.5251C261.277 39.2634 263.525 40.0016 265.27 40.7399C267.048 41.4445 268.575 42.5016 269.85 43.911C271.126 45.3203 271.763 47.1659 271.763 49.4478C271.763 53.139 270.438 55.8571 267.787 57.602C265.169 59.347 261.579 60.2195 257.015 60.2195Z"/></g><path fill="#01293C" d="M29.3777 49.1801C28.685 56.2983 23.2003 60.683 15.5088 60.683C4.98119 60.683 0.189941 53.5656 0.189941 43.0792C0.189941 32.7836 5.16969 25.4117 15.1941 25.4117C25.5324 25.4117 29.5039 32.4663 29.5039 41.7446V43.2701H4.09834C4.16147 52.612 8.70026 57.1876 15.0047 57.1876C20.4263 57.1876 24.6504 54.9003 25.4692 49.1802L29.3777 49.1801ZM25.5955 39.8382C25.343 33.1018 21.6239 28.9072 15.3826 28.9072C9.26745 28.9072 5.10744 32.4027 4.22458 39.8382H25.5955Z"/><path fill="#01293C" d="M39.8976 13.0188H43.6797V60.0474H39.8976V13.0188Z"/><path fill="#01293C" d="M75.7762 54.582H75.65C73.1908 58.3948 69.1561 60.6829 63.1673 60.6829C55.9808 60.6829 52.5134 56.552 52.5134 51.6583C52.5134 41.7447 62.7894 41.681 69.8496 40.4737C75.0196 39.6473 75.7762 39.33 75.7762 36.8509C75.7762 32.2754 73.0654 28.9072 67.1397 28.9072C61.6549 28.9072 58.9441 31.0045 58.0612 36.9146H54.1528C54.9094 29.479 59.1326 25.4117 67.265 25.4117C74.8934 25.4117 79.5584 29.1617 79.5584 37.8045V60.0475H75.7762V54.582ZM75.7762 42.571C67.265 44.8583 56.2964 43.5873 56.2964 51.1501C56.2964 54.8365 59.3851 57.1875 63.6722 57.1875C70.7325 57.1875 75.7762 52.8665 75.7762 46.0665V42.571Z"/><path fill="#01293C" d="M91.9946 49.1801C92.625 55.2174 96.2818 57.1874 101.893 57.1874C106.495 57.1874 109.583 55.4083 109.583 51.1501C109.583 41.1727 89.2838 48.6083 89.2838 35.0718C89.2838 29.7335 93.2554 25.4117 100.631 25.4117C107.692 25.4117 112.294 29.1617 112.672 36.9146H108.764C108.26 31.3218 105.549 28.9072 100.631 28.9072C95.0211 28.9072 93.0669 31.8945 93.0669 35.1354C93.0669 44.4138 113.366 37.7409 113.366 51.0229C113.366 56.9966 108.827 60.6829 101.325 60.6829C93.067 60.6829 88.5274 56.6156 88.0864 49.1801H91.9946Z"/><path fill="#01293C" d="M122.657 29.4789H117.804V26.0471H122.657V17.277H126.44V26.0471H134.32V29.4789H126.44V51.8491C126.44 55.5991 128.268 57.1873 131.042 57.1873C132.145 57.1718 133.243 57.0442 134.32 56.8064V60.1747C133.063 60.4954 131.772 60.666 130.475 60.6828C126.188 60.6828 122.657 58.141 122.657 52.421L122.657 29.4789Z"/><path fill="#01293C" d="M138.369 43.0791C138.369 32.5299 145.051 25.4117 154.76 25.4117C164.468 25.4117 171.15 32.5299 171.15 43.0791C171.15 53.6283 164.468 60.6829 154.76 60.6829C145.051 60.6829 138.369 53.6283 138.369 43.0791ZM167.242 43.0791C167.242 34.6272 162.072 28.9072 154.76 28.9072C147.446 28.9072 142.277 34.6272 142.277 43.0791C142.277 51.5319 147.446 57.1874 154.76 57.1874C162.072 57.1874 167.242 51.5319 167.242 43.0791Z"/><path fill="#01293C" d="M182.01 49.1801C182.64 55.2174 186.297 57.1874 191.907 57.1874C196.51 57.1874 199.599 55.4083 199.599 51.1501C199.599 41.1727 179.299 48.6083 179.299 35.0718C179.299 29.7335 183.271 25.4117 190.647 25.4117C197.708 25.4117 202.31 29.1617 202.687 36.9146H198.779C198.275 31.3218 195.564 28.9072 190.647 28.9072C185.036 28.9072 183.082 31.8945 183.082 35.1354C183.082 44.4138 203.381 37.7409 203.381 51.0229C203.381 56.9966 198.842 60.6829 191.34 60.6829C183.082 60.6829 178.543 56.6156 178.102 49.1801H182.01Z"/><defs><linearGradient id="paint0_linear" x1="248.34" x2="248.34" y1=".325" y2="84.276" gradientUnits="userSpaceOnUse"><stop stop-color="#2CD6D6"/><stop offset="1" stop-color="#0F7EA9"/></linearGradient><linearGradient id="paint1_linear" x1="211.882" x2="283.846" y1="42.3" y2="42.3" gradientUnits="userSpaceOnUse"><stop stop-color="#8AC151"/><stop offset="1" stop-color="#568D1C"/></linearGradient></defs></svg>