<svg xmlns="http://www.w3.org/2000/svg" xmlns:xlink="http://www.w3.org/1999/xlink" id="Layer_1" x="0" y="0" enable-background="new 0 0 1050 350" version="1.1" viewBox="0 0 1050 350" xml:space="preserve"><style type="text/css">.st0{fill:#fff}.st1{fill:#273c51}.st2{fill:url(#SVGID_1_)}.st3{fill:#466284}.st4{fill:#354d6a}.st5{fill:url(#SVGID_2_)}.st6{fill:url(#SVGID_3_)}.st7{fill:url(#SVGID_4_)}.st8{fill:url(#SVGID_5_)}.st9{fill:url(#SVGID_6_)}.st10{fill:url(#SVGID_7_)}.st11{fill:url(#SVGID_8_)}.st12{fill:url(#SVGID_9_)}.st13{fill:url(#SVGID_10_)}.st14{fill:none}</style><g><g><g><path d="M280.6,198.7c-15.2,0-31.5,6-31.5,20.6c0,13,14.9,16.8,32.6,19.7c24,3.8,47.6,8.6,47.6,35.6 c-0.2,26.9-25.9,35.6-48.8,35.6c-21.2,0-41.5-7.7-50.7-27.8l12.3-7.2c7.7,14.2,23.8,21.1,38.6,21.1c14.6,0,33.9-4.6,33.9-22.3 c0.2-14.9-16.6-19.2-34.6-21.9c-23.1-3.6-45.6-8.9-45.6-33.2c-0.3-25,25.2-33.6,45.9-33.6c17.8,0,34.8,3.6,45.4,21.8l-11.3,7 C307.9,203.7,294,198.9,280.6,198.7z" class="st0"/><path d="M353.8,188.1v49.2c7.2-11.1,18.5-14.9,29.3-15.1c23.8,0,35.5,15.8,35.5,39.1v46.6h-13.9v-46.4 c0-16.6-8.6-26-24-26S354,247.5,354,263v44.9h-14V187.9h13.9V188.1z" class="st0"/><path d="M504.4,308.2l-0.3-15.4c-6.7,11.7-19.5,17.1-31.2,17.1c-24.3,0-43.3-16.8-43.3-44.4 c0-27.4,19.4-43.9,43.5-43.7c12.7,0,25.2,5.8,31.4,16.8l0.2-15.4h13.7v84.6h-13.5L504.4,308.2z M473.5,235.2 c-16.8,0-30.3,12-30.3,30.8s13.5,31,30.3,31c40.8,0,40.8-62,0.2-62L473.5,235.2z" class="st0"/><path d="M529.5,223.6h13.4l0.7,16.3c6.7-11.3,19.2-17.8,32.6-17.8c24.3,0.5,42.1,17.6,42.1,43.7 c0,26.7-17.6,44-43,44c-12,0-25.4-5.1-32-17.1v55.2h-13.7V223.6z M604.2,266c0-19-12.5-30.3-29.8-30.3c-17.6,0-29.6,13-29.6,30.3 s12.5,30.3,29.6,30.5C591.3,296.5,604.2,285.1,604.2,266z" class="st0"/><path d="M708.9,294.3c-8.6,10.1-23.3,15.1-36.5,15.1c-26.2,0-44.5-17.3-44.5-44.2c0-25.5,18.3-43.9,43.9-43.9 c25.9,0,45.6,15.9,42.3,49.7h-72c1.5,15.6,14.4,25.4,30.7,25.4c9.6,0,21.2-3.8,26.9-10.6l9.4,8.6H708.9z M700.6,259.4 c-0.7-16.4-12-25.4-28.6-25.4c-14.7,0-27.6,8.9-30,25.2h58.6V259.4z" class="st0"/></g><g><path d="M771.2,198.7c-15.2,0-31.5,6-31.5,20.6c0,13,14.9,16.8,32.6,19.7c24,3.8,47.6,8.6,47.6,35.6 c-0.2,26.9-25.9,35.6-48.8,35.6c-21.2,0-41.5-7.7-50.7-27.8l12.3-7.2c7.7,14.2,23.8,21.1,38.6,21.1c14.6,0,33.9-4.6,33.9-22.3 c0.2-14.9-16.6-19.2-34.6-21.9c-23.1-3.6-45.6-8.9-45.6-33.2c-0.3-25,25.2-33.6,45.9-33.6c17.8,0,34.8,3.6,45.4,21.8l-11.3,7 C798.5,203.7,784.6,198.9,771.2,198.7z" class="st0"/><path d="M844.4,188.1v49.2c7.2-11.1,18.5-14.9,29.3-15.1c23.8,0,35.5,15.8,35.5,39.1v46.6h-13.9v-46.4 c0-16.6-8.6-26-24-26s-26.7,12.2-26.7,27.6v44.9h-14V187.9h13.9V188.1z" class="st0"/><path d="M920.6,307.8h14v-83.4h-14V307.8z M927.8,211.7l-11.1-12.2l11.1-12.2l11.1,12.2L927.8,211.7z" class="st0"/><g><polygon points="960.8 308 960.8 307.8 960.7 307.8" class="st0"/><path d="M974.7,217.6c0-12.7,5.8-18.3,14.9-18.3c0.2,0,0.4,0,0.5,0l3.2-12.1c-1.3-0.2-2.7-0.3-4-0.3 c-17.8,0-28.4,11.3-28.4,30.7v6.7h-16.6v12.3h16.6v71.3h13.9v-71.3h16.8v-12.3h-16.8V217.6z" class="st0"/></g><path d="M1046.1,296.1c-1.1,0.2-2.2,0.3-3.3,0.3c-10.1,0-13.4-6.3-13.4-16.3v-43.6h18v-12.2h-17.9v-25.8l-14,1.5 v24.2h-17v12.2h17v43.6c0,18.7,8.6,29.3,26.7,29c2.2-0.1,4.4-0.3,6.5-0.8L1046.1,296.1z" class="st0"/></g></g><polygon points="216 82.1 230.5 -.7 169.9 24.6 103.3 24.6 42.7 -.8 57.3 82.1 43.6 128.3 56.5 136.4 0 186 0 232.6 64.6 321.6 125.5 342 125.6 342.1 173.2 317.7 173.3 317.6 173.3 281.5 146.3 266.7 146.3 266.7 146.3 266.7 188.7 153.8 188.4 153.8 229.6 128.3" class="st1"/><g><linearGradient id="SVGID_1_" x1="136.736" x2="60.32" y1="25.992" y2="247.665" gradientUnits="userSpaceOnUse"><stop offset=".135" stop-color="#2B415B"/><stop offset=".376" stop-color="#3B5676"/><stop offset=".692" stop-color="#54769E"/><stop offset=".79" stop-color="#52749B"/><stop offset=".861" stop-color="#4D6C92"/><stop offset=".924" stop-color="#436082"/><stop offset=".982" stop-color="#364F6C"/><stop offset="1" stop-color="#314863"/></linearGradient><polygon points="97.7 100.3 0 186 136.1 264.3 136.6 102.9" class="st2"/><polygon points="83.8 153.3 136.2 293.4 136.6 161.1" class="st3"/><polygon points="188.7 153.8 136.2 293.4 136.6 161.1" class="st4"/><linearGradient id="SVGID_2_" x1="230.103" x2="34.047" y1="127.422" y2="14.229" gradientUnits="userSpaceOnUse"><stop offset="0" stop-color="#54769E"/><stop offset=".48" stop-color="#53749C"/><stop offset=".688" stop-color="#4F6F95"/><stop offset=".842" stop-color="#486588"/><stop offset=".909" stop-color="#435F80"/></linearGradient><polygon points="230.5 -.7 178.4 26.7 136.7 35.8 94.6 26.7 42.7 -.8 60.6 81.9 43.6 128.3 103.2 165.3 136.3 201.3 136.3 201.6 136.5 201.4 136.7 201.6 136.7 201.3 169.8 165.3 229.6 128.3 212.6 82" class="st5"/><linearGradient id="SVGID_3_" x1="342.528" x2="150.465" y1="63.83" y2="63.83" gradientUnits="userSpaceOnUse"><stop offset=".254" stop-color="#20344C"/><stop offset=".407" stop-color="#273D57"/><stop offset=".673" stop-color="#395373"/><stop offset="1" stop-color="#54769E"/></linearGradient><polygon points="230.5 -.7 216 82.1 229.6 128.3 212.6 82" class="st6"/><linearGradient id="SVGID_4_" x1="-74.328" x2="124.234" y1="63.778" y2="63.778" gradientUnits="userSpaceOnUse"><stop offset=".254" stop-color="#54769E"/><stop offset=".413" stop-color="#4D6E93"/><stop offset=".69" stop-color="#3C5777"/><stop offset="1" stop-color="#233850"/></linearGradient><polygon points="42.7 -.8 57.3 82.1 43.6 128.3 60.6 81.9" class="st7"/><linearGradient id="SVGID_5_" x1="138.43" x2="134.503" y1="-77.417" y2="85.563" gradientUnits="userSpaceOnUse"><stop offset=".007" stop-color="#54769E"/><stop offset=".199" stop-color="#507198"/><stop offset=".45" stop-color="#466488"/><stop offset=".732" stop-color="#354F6D"/><stop offset="1" stop-color="#21354D"/></linearGradient><polygon points="42.7 -.8 103.3 24.6 169.9 24.6 230.5 -.7 178.4 26.7 136.7 35.8 94.6 26.7" class="st8"/><linearGradient id="SVGID_6_" x1="173.28" x2="12.751" y1="-23.235" y2="132.569" gradientUnits="userSpaceOnUse"><stop offset=".254" stop-color="#54769E"/><stop offset=".41" stop-color="#4D6E93"/><stop offset=".681" stop-color="#3C5777"/><stop offset="1" stop-color="#22364E"/></linearGradient><polygon points="60.6 81.9 57.6 90.2 120.5 32.2" class="st9"/><linearGradient id="SVGID_7_" x1="114.997" x2="248.776" y1="-2.444" y2="116.847" gradientUnits="userSpaceOnUse"><stop offset=".254" stop-color="#54769E"/><stop offset=".41" stop-color="#4D6E93"/><stop offset=".681" stop-color="#3C5777"/><stop offset="1" stop-color="#22364E"/></linearGradient><polygon points="212.6 82 153 32.2 215.5 89.8" class="st10"/><linearGradient id="SVGID_8_" x1="-31.933" x2="255.118" y1="230.841" y2="333.289" gradientUnits="userSpaceOnUse"><stop offset=".266" stop-color="#54769E"/><stop offset="1" stop-color="#425E7F"/></linearGradient><polygon points="0 186 146.3 266.7 164.8 313 125.6 327.9 64.6 321.6 0 232.6" class="st11"/><polygon points="121.1 252.8 64.8 321.4 64.6 321.6 125.5 342 125.6 342.1 173.2 317.7 173.3 317.6 173.3 281.5" class="st0"/><linearGradient id="SVGID_9_" x1="97.761" x2="268.61" y1="-67.941" y2="84.28" gradientUnits="userSpaceOnUse"><stop offset=".461" stop-color="#54769E" stop-opacity="0"/><stop offset=".57" stop-color="#52739A" stop-opacity=".216"/><stop offset=".676" stop-color="#4A698E" stop-opacity=".427"/><stop offset=".782" stop-color="#3D597B" stop-opacity=".636"/><stop offset=".886" stop-color="#2C435F" stop-opacity=".842"/><stop offset=".966" stop-color="#1B2E45"/></linearGradient><polygon points="212.6 82 230.5 -.7 178.4 26.7 153 32.2" class="st12"/><polygon points="136.6 201.6 120.1 183.5 136.6 165.3 153.2 183.5" class="st0"/><linearGradient id="SVGID_10_" x1="136.61" x2="136.61" y1="347.973" y2="-96.23" gradientUnits="userSpaceOnUse"><stop offset=".254" stop-color="#54769E"/><stop offset=".41" stop-color="#4D6E93"/><stop offset=".681" stop-color="#3C5777"/><stop offset="1" stop-color="#22364E"/></linearGradient><polygon points="135 35.4 136.7 35.8 138.2 35.5 136.6 141" class="st13"/><path d="M77.6,35.5" class="st14"/><path d="M75.1,35.5" class="st14"/></g></g></svg>