<svg xmlns="http://www.w3.org/2000/svg" xmlns:xlink="http://www.w3.org/1999/xlink" viewBox="0 0 13.44 20"><defs><linearGradient id="a" x1="11.25" x2="6.79" y1="412.23" y2="399.3" gradientTransform="matrix(1, 0, 0, -1, -3.28, 413.79)" gradientUnits="userSpaceOnUse"><stop offset=".13" stop-color="#2b415b"/><stop offset=".38" stop-color="#3b5676"/><stop offset=".69" stop-color="#54769e"/><stop offset=".79" stop-color="#52749b"/><stop offset=".86" stop-color="#4d6c92"/><stop offset=".92" stop-color="#436082"/><stop offset=".98" stop-color="#364f6c"/><stop offset="1" stop-color="#314863"/></linearGradient><linearGradient id="b" x1="16.7" x2="5.26" y1="406.31" y2="412.92" gradientTransform="matrix(1, 0, 0, -1, -3.28, 413.79)" gradientUnits="userSpaceOnUse"><stop offset="0" stop-color="#54769e"/><stop offset=".48" stop-color="#53749c"/><stop offset=".69" stop-color="#4f6f95"/><stop offset=".84" stop-color="#486588"/><stop offset=".91" stop-color="#435f80"/></linearGradient><linearGradient id="c" x1="23.26" x2="12.05" y1="410.02" y2="410.02" gradientTransform="matrix(1, 0, 0, -1, -3.28, 413.79)" gradientUnits="userSpaceOnUse"><stop offset=".25" stop-color="#20344c"/><stop offset=".41" stop-color="#273d57"/><stop offset=".67" stop-color="#395373"/><stop offset="1" stop-color="#54769e"/></linearGradient><linearGradient id="d" x1="-1.06" x2="10.52" y1="410.03" y2="410.03" gradientTransform="matrix(1, 0, 0, -1, -3.28, 413.79)" gradientUnits="userSpaceOnUse"><stop offset=".25" stop-color="#54769e"/><stop offset=".41" stop-color="#4d6e93"/><stop offset=".69" stop-color="#3c5777"/><stop offset="1" stop-color="#233850"/></linearGradient><linearGradient id="e" x1="11.35" x2="11.12" y1="418.26" y2="408.75" gradientTransform="matrix(1, 0, 0, -1, -3.28, 413.79)" gradientUnits="userSpaceOnUse"><stop offset=".01" stop-color="#54769e"/><stop offset=".2" stop-color="#507198"/><stop offset=".45" stop-color="#466488"/><stop offset=".73" stop-color="#354f6d"/><stop offset="1" stop-color="#21354d"/></linearGradient><linearGradient id="f" x1="13.38" x2="4.02" y1="415.1" y2="406.01" gradientTransform="matrix(1, 0, 0, -1, -3.28, 413.79)" gradientUnits="userSpaceOnUse"><stop offset=".25" stop-color="#54769e"/><stop offset=".41" stop-color="#4d6e93"/><stop offset=".68" stop-color="#3c5777"/><stop offset="1" stop-color="#22364e"/></linearGradient><linearGradient id="g" x1="9.98" x2="17.79" y1="413.89" y2="406.93" xlink:href="#f"/><linearGradient id="h" x1="1.41" x2="18.16" y1="400.28" y2="394.3" gradientTransform="matrix(1, 0, 0, -1, -3.28, 413.79)" gradientUnits="userSpaceOnUse"><stop offset=".27" stop-color="#54769e"/><stop offset="1" stop-color="#425e7f"/></linearGradient><linearGradient id="i" x1="8.98" x2="18.95" y1="417.71" y2="408.83" gradientTransform="matrix(1, 0, 0, -1, -3.28, 413.79)" gradientUnits="userSpaceOnUse"><stop offset=".46" stop-color="#54769e" stop-opacity="0"/><stop offset=".57" stop-color="#52739a" stop-opacity=".22"/><stop offset=".68" stop-color="#4a698e" stop-opacity=".43"/><stop offset=".78" stop-color="#3d597b" stop-opacity=".64"/><stop offset=".89" stop-color="#2c435f" stop-opacity=".84"/><stop offset=".97" stop-color="#1b2e45"/></linearGradient><linearGradient id="j" x1="11.25" x2="11.25" y1="393.45" y2="419.36" xlink:href="#f"/></defs><title>logo-shapeshift--small</title><polygon fill="#273c51" points="12.6 4.83 13.44 .01 9.91 1.48 6.03 1.48 2.49 0 3.34 4.83 2.54 7.53 3.29 8 0 10.89 0 13.61 3.77 18.8 7.32 19.99 7.33 20 10.1 18.58 10.11 18.57 10.11 16.46 8.53 15.6 8.53 15.6 8.53 15.6 11.01 9.02 10.99 9.02 13.39 7.53 12.6 4.83"/><polygon fill="url(#a)" points="5.7 5.9 0 10.89 7.94 15.46 7.97 6.05 5.7 5.9"/><polygon fill="#466284" points="4.89 8.99 7.94 17.16 7.97 9.44 4.89 8.99"/><polygon fill="#354d6a" points="11.01 9.02 7.94 17.16 7.97 9.44 11.01 9.02"/><polygon fill="url(#b)" points="13.44 .01 10.4 1.6 7.97 2.13 5.52 1.6 2.49 0 3.54 4.82 2.54 7.53 6.02 9.69 7.95 11.79 7.95 11.8 7.96 11.79 7.97 11.8 7.97 11.79 9.9 9.69 13.39 7.53 12.4 4.83 13.44 .01"/><polygon fill="url(#c)" points="13.44 .01 12.6 4.83 13.39 7.53 12.4 4.83 13.44 .01"/><polygon fill="url(#d)" points="2.49 0 3.34 4.83 2.54 7.53 3.54 4.82 2.49 0"/><polygon fill="url(#e)" points="2.49 0 6.03 1.48 9.91 1.48 13.44 .01 10.4 1.6 7.97 2.13 5.52 1.6 2.49 0"/><polygon fill="url(#f)" points="3.54 4.82 3.36 5.31 7.03 1.93 3.54 4.82"/><polygon fill="url(#g)" points="12.4 4.83 8.92 1.93 12.57 5.28 12.4 4.83"/><polygon fill="url(#h)" points="0 10.89 8.53 15.6 9.61 18.3 7.33 19.17 3.77 18.8 0 13.61 0 10.89"/><polygon fill="#fff" points="7.06 14.79 3.78 18.79 3.77 18.8 7.32 19.99 7.33 20 10.1 18.58 10.11 18.57 10.11 16.46 7.06 14.79"/><polygon fill="url(#i)" points="12.4 4.83 13.44 .01 10.4 1.6 8.92 1.93 12.4 4.83"/><polygon fill="#fff" points="7.97 11.8 7 10.75 7.97 9.69 8.94 10.75 7.97 11.8"/><polygon fill="url(#j)" points="7.87 2.11 7.97 2.13 8.06 2.12 7.97 8.27 7.87 2.11"/><path fill="none" d="M7.8,2.12" transform="translate(-3.28)"/><path fill="none" d="M7.66,2.12" transform="translate(-3.28)"/></svg>