<svg xmlns="http://www.w3.org/2000/svg" viewBox="0 0 527.44 445.03"><title>onboarding_icon-06</title><rect width="448" height="400" x="15.72" y="14.52" fill="#dfdfe3"/><path fill="#ffa21a" d="M495.72,270.52h16v-32h-16v-32h-144v32h16v32h-16v16a72,72,0,1,0,16,142.19v1.81h144v-32h-16v-32h16v-32h-16Z"/><path fill="#a1abb8" d="M273.34,374.52H55.72v-48h24v-80h-24v-64h24v-80h-24v-48h368v144h-32v-64h16v-16h-32v80H358.59c-7.7-58.8-58-104.38-118.86-104.38a120,120,0,1,0,38.14,233.68A79.84,79.84,0,0,0,273.34,374.52Z"/><path fill="#7d8694" d="M295.21,302a104.51,104.51,0,1,1,15.42-12"/><rect width="16" height="16" x="71.72" y="70.52"/><rect width="16" height="16" x="391.72" y="70.52"/><rect width="16" height="16" x="71.72" y="342.52"/><rect width="16" height="24" x="231.72" y="278.52"/><rect width="16" height="24" x="231.72" y="126.52"/><rect width="24" height="16" x="151.72" y="206.52"/><rect width="24" height="16" x="303.72" y="206.52"/><rect width="15.99" height="24" x="285.43" y="256.24" transform="translate(-103.72 286.19) rotate(-45.02)"/><rect width="15.99" height="24" x="177.96" y="148.74" transform="translate(-59.19 178.66) rotate(-45.02)"/><rect width="24" height="15.99" x="173.99" y="260.28" transform="translate(-135.21 210.03) rotate(-44.99)"/><rect width="24" height="15.99" x="281.45" y="152.79" transform="translate(-27.76 254.54) rotate(-44.99)"/><path d="M287.07,207.88l14.78-15.32-21.12-2.63a48,48,0,1,0,6.34,18Zm-47.34,43.8a37.16,37.16,0,1,1,37.16-37.16,37.16,37.16,0,0,1-37.16,37.16h0Z"/><path fill="#fff" d="M351.72,310.52a48,48,0,1,0,48,48A48,48,0,0,0,351.72,310.52Zm0,90.19a42.19,42.19,0,1,1,42.19-42.19A42.19,42.19,0,0,1,351.72,400.71Z"/><path d="M503.72,294.52v-16h16v-48h-16v-32h-32V6.52H7.72v416h72v16h72v-16H303.93a79.28,79.28,0,0,0,55.79,15.59v.41h160v-48h-16v-16h16v-48h-16v-32Zm-16-80v16h-128v-16Zm-57.62,160h57.62v16H425a78.74,78.74,0,0,0,5.11-16Zm-14.54-64h72.15v16H425a79.93,79.93,0,0,0-9.43-16Zm-7.85-16H399.5a79.43,79.43,0,0,0-39.79-15.59v-.41h128v16ZM295.2,301.95A104.51,104.51,0,1,1,310.63,290a80.34,80.34,0,0,0-15.42,12Zm-21.87,72.57H55.72v-48h24v-80h-24v-64h24v-80h-24v-48h368v144h-32v-64h16v-16h-32v80H358.59c-7.7-58.8-58-104.38-118.86-104.38a120,120,0,1,0,38.14,233.68,79.84,79.84,0,0,0-4.53,46.7Zm-209.62-112v48h-16v-48Zm0-144v48h-16v-48Zm296,128v16H349.45a119.82,119.82,0,0,0,5.71-16Zm-16,27.24v5.17c-1.17.12-2.3.34-3.46.51,1.22-1.86,2.37-3.76,3.47-5.68Zm-264,132.76h-56v-384h432v176h-16v-160h-400v64h-8v80h8v64h-8v80h8v64H278.45a79.93,79.93,0,0,0,9.42,16H79.71Zm208-48a63.7,63.7,0,0,1,17.74-44.1,120.92,120.92,0,0,0,14.78-11.55,63.63,63.63,0,0,1,71.48,5.77v1.88h2.19a64,64,0,1,1-106.19,48Zm216,64H399.51a80.46,80.46,0,0,0,16-16h88.16Zm0-64h-72a79.87,79.87,0,0,0-1.62-16h73.62Zm-128-96v-16h128v16Z"/><rect width="16" height="48" x="47.72" y="118.52" fill="#ffce00"/><rect width="16" height="48" x="47.72" y="262.52" fill="#ffce00"/><circle cx="239.72" cy="214.52" r="36.78" fill="#fff"/><path fill="#0e97c0" stroke="#000" stroke-miterlimit="10" stroke-width="2" d="M239.72,175a39.57,39.57,0,1,0,39.57,39.57A39.57,39.57,0,0,0,239.72,175ZM254,227.45l-10.18,10.31a5.67,5.67,0,0,1-8,.07l-.07-.07-10.21-10.3a5.84,5.84,0,0,1,0-8.19h0a3.53,3.53,0,0,1,5,0l0,0,5.16,5.21a5.67,5.67,0,0,0,8,.07l.07-.07,5.15-5.22a3.53,3.53,0,0,1,5,0l0,0h0a5.84,5.84,0,0,1,0,8.18ZM264.73,211h0a3.4,3.4,0,0,1-4.81.09l0,0L255,206a5.47,5.47,0,0,0-7.73,0l-.07.07-5,5.08a3.45,3.45,0,0,1-2.84,1,3.33,3.33,0,0,1-2.1-1l-4.92-5a5.47,5.47,0,0,0-7.73,0l-.07.07-5,5.08a3.4,3.4,0,0,1-4.81.09l0,0h0a5.63,5.63,0,0,1,.07-7.9l9.9-10a5.47,5.47,0,0,1,7.73-.16l.07.07,7.37,7.46,7.5-7.6a5.47,5.47,0,0,1,7.73-.15l.07.07,9.72,9.83a5.63,5.63,0,0,1-.07,7.89Z"/></svg>