<?xml version="1.0" encoding="utf-8"?>
<!-- Generator: Adobe Illustrator 23.0.2, SVG Export Plug-In . SVG Version: 6.00 Build 0)  -->
<svg version="1.1" id="Layer_1" xmlns="http://www.w3.org/2000/svg" xmlns:xlink="http://www.w3.org/1999/xlink" x="0px" y="0px"
	 viewBox="0 0 193.6 164.6" style="enable-background:new 0 0 193.6 164.6;" xml:space="preserve">
<style type="text/css">
	.st0{fill:#13252F;}
	.st1{fill:#FFFFFF;}
	.st2{fill:url(#SVGID_1_);}
	.st3{fill:url(#SVGID_2_);}
	.st4{fill:url(#SVGID_3_);}
	.st5{fill:url(#SVGID_4_);}
</style>
<g>
	<g>
		<path d="M98.2,164l95.3-55.4l-48-29.4l-48.8,27.9L48,79.2L0,108.6l46.9,27.1l0,0L96.2,164l1,0.6l0,0h0 M98.2,161.7l-0.1-11
			L97.8,110l45.3,25.6L98.2,161.7z M96.2,152.9l0.1,8.7l-45.3-26L95.8,110L96.2,152.9z M145.6,81.5l45.9,25.9l-46.5,27l-46.3-26.2
			L145.6,81.5z M2,107.5L48,81.5l46.8,26.8L49,134.5L2,107.5z"/>
		<path d="M97.6,85.1l29.1-16.8l20.7-12l0,0l46.2-26.6L146.1,0.3L145.6,0L97.8,27.4l0,0l-1,0.6L48,0L0,29l95.6,56.1l1,0.6L97.6,85.1
			z M136.6,60.3l-39,22.5l0.2-52l45.6,25.6L136.6,60.3z M50.9,56.8l44.9-26l-0.2,52L50.9,56.8z M191.6,28.6l-46.2,26.6L98.8,29.1
			l46.8-26.8L191.6,28.6z M48,2.3l46.8,26.8l-46,26.6L2,28.6L48,2.3z"/>
	</g>
	<polygon class="st0" points="48.9,136.7 48,0 0,27.5 0,108.6 	"/>
	<polygon class="st0" points="145.1,136.8 145.6,0 193.6,27.5 193.6,108.6 	"/>
</g>
</svg>
