<svg xmlns="http://www.w3.org/2000/svg" viewBox="0 0 406.446 78.259"><title>app1-comp-scroll</title><rect width="57.196" height="77.009" x=".625" y=".625" fill="none" stroke="#1de9b6" stroke-miterlimit="10" stroke-width="1.25"/><line x1="8.53" x2="35.081" y1="44.611" y2="44.611" fill="none" stroke="#1de9b6" stroke-miterlimit="10" stroke-width="1.25"/><line x1="8.53" x2="49.451" y1="61.123" y2="61.123" fill="none" stroke="#1de9b6" stroke-miterlimit="10" stroke-width="1.25"/><line x1="8.53" x2="45.248" y1="52.867" y2="52.867" fill="none" stroke="#1de9b6" stroke-miterlimit="10" stroke-width="1.25"/><line x1="8.53" x2="42.249" y1="69.379" y2="69.379" fill="none" stroke="#1de9b6" stroke-miterlimit="10" stroke-width="1.25"/><line x1="8.53" x2="35.081" y1="11.012" y2="11.012" fill="none" stroke="#1de9b6" stroke-miterlimit="10" stroke-width="1.25"/><line x1="8.53" x2="49.451" y1="27.523" y2="27.523" fill="none" stroke="#1de9b6" stroke-miterlimit="10" stroke-width="1.25"/><line x1="8.53" x2="45.248" y1="19.267" y2="19.267" fill="none" stroke="#1de9b6" stroke-miterlimit="10" stroke-width="1.25"/><rect width="57.196" height="77.009" x="87.625" y=".625" fill="none" stroke="#1de9b6" stroke-miterlimit="10" stroke-width="1.25"/><line x1="95.53" x2="122.081" y1="44.611" y2="44.611" fill="none" stroke="#1de9b6" stroke-miterlimit="10" stroke-width="1.25"/><line x1="95.53" x2="136.451" y1="61.123" y2="61.123" fill="none" stroke="#1de9b6" stroke-miterlimit="10" stroke-width="1.25"/><line x1="95.53" x2="132.248" y1="52.867" y2="52.867" fill="none" stroke="#1de9b6" stroke-miterlimit="10" stroke-width="1.25"/><line x1="95.53" x2="129.249" y1="69.379" y2="69.379" fill="none" stroke="#1de9b6" stroke-miterlimit="10" stroke-width="1.25"/><line x1="95.53" x2="122.081" y1="11.012" y2="11.012" fill="none" stroke="#1de9b6" stroke-miterlimit="10" stroke-width="1.25"/><line x1="95.53" x2="136.451" y1="27.523" y2="27.523" fill="none" stroke="#1de9b6" stroke-miterlimit="10" stroke-width="1.25"/><line x1="95.53" x2="132.248" y1="19.267" y2="19.267" fill="none" stroke="#1de9b6" stroke-miterlimit="10" stroke-width="1.25"/><rect width="57.196" height="77.009" x="174.625" y=".625" fill="none" stroke="#1de9b6" stroke-miterlimit="10" stroke-width="1.25"/><line x1="182.53" x2="209.081" y1="44.611" y2="44.611" fill="none" stroke="#1de9b6" stroke-miterlimit="10" stroke-width="1.25"/><line x1="182.53" x2="223.451" y1="61.123" y2="61.123" fill="none" stroke="#1de9b6" stroke-miterlimit="10" stroke-width="1.25"/><line x1="182.53" x2="219.248" y1="52.867" y2="52.867" fill="none" stroke="#1de9b6" stroke-miterlimit="10" stroke-width="1.25"/><line x1="182.53" x2="216.249" y1="69.379" y2="69.379" fill="none" stroke="#1de9b6" stroke-miterlimit="10" stroke-width="1.25"/><line x1="182.53" x2="209.081" y1="11.012" y2="11.012" fill="none" stroke="#1de9b6" stroke-miterlimit="10" stroke-width="1.25"/><line x1="182.53" x2="223.451" y1="27.523" y2="27.523" fill="none" stroke="#1de9b6" stroke-miterlimit="10" stroke-width="1.25"/><line x1="182.53" x2="219.248" y1="19.267" y2="19.267" fill="none" stroke="#1de9b6" stroke-miterlimit="10" stroke-width="1.25"/><rect width="57.196" height="77.009" x="261.625" y=".625" fill="none" stroke="#1de9b6" stroke-miterlimit="10" stroke-width="1.25"/><line x1="269.53" x2="296.081" y1="44.611" y2="44.611" fill="none" stroke="#1de9b6" stroke-miterlimit="10" stroke-width="1.25"/><line x1="269.53" x2="310.451" y1="61.123" y2="61.123" fill="none" stroke="#1de9b6" stroke-miterlimit="10" stroke-width="1.25"/><line x1="269.53" x2="306.248" y1="52.867" y2="52.867" fill="none" stroke="#1de9b6" stroke-miterlimit="10" stroke-width="1.25"/><line x1="269.53" x2="303.249" y1="69.379" y2="69.379" fill="none" stroke="#1de9b6" stroke-miterlimit="10" stroke-width="1.25"/><line x1="269.53" x2="296.081" y1="11.012" y2="11.012" fill="none" stroke="#1de9b6" stroke-miterlimit="10" stroke-width="1.25"/><line x1="269.53" x2="310.451" y1="27.523" y2="27.523" fill="none" stroke="#1de9b6" stroke-miterlimit="10" stroke-width="1.25"/><line x1="269.53" x2="306.248" y1="19.267" y2="19.267" fill="none" stroke="#1de9b6" stroke-miterlimit="10" stroke-width="1.25"/><rect width="57.196" height="77.009" x="348.625" y=".625" fill="none" stroke="#1de9b6" stroke-miterlimit="10" stroke-width="1.25"/><line x1="356.53" x2="383.081" y1="44.611" y2="44.611" fill="none" stroke="#1de9b6" stroke-miterlimit="10" stroke-width="1.25"/><line x1="356.53" x2="397.451" y1="61.123" y2="61.123" fill="none" stroke="#1de9b6" stroke-miterlimit="10" stroke-width="1.25"/><line x1="356.53" x2="393.248" y1="52.867" y2="52.867" fill="none" stroke="#1de9b6" stroke-miterlimit="10" stroke-width="1.25"/><line x1="356.53" x2="390.249" y1="69.379" y2="69.379" fill="none" stroke="#1de9b6" stroke-miterlimit="10" stroke-width="1.25"/><line x1="356.53" x2="383.081" y1="11.012" y2="11.012" fill="none" stroke="#1de9b6" stroke-miterlimit="10" stroke-width="1.25"/><line x1="356.53" x2="397.451" y1="27.523" y2="27.523" fill="none" stroke="#1de9b6" stroke-miterlimit="10" stroke-width="1.25"/><line x1="356.53" x2="393.248" y1="19.267" y2="19.267" fill="none" stroke="#1de9b6" stroke-miterlimit="10" stroke-width="1.25"/></svg>