<svg xmlns="http://www.w3.org/2000/svg" viewBox="0 0 406.44617 78.25915"><title>app1-comp-scroll</title><rect x="0.625" y="0.625" width="57.19617" height="77.00915" style="fill:none;stroke:#1de9b6;stroke-miterlimit:10;stroke-width:1.25px"/><line x1="8.53018" y1="44.61118" x2="35.08122" y2="44.61118" style="fill:none;stroke:#1de9b6;stroke-miterlimit:10;stroke-width:1.25px"/><line x1="8.53018" y1="61.1229" x2="49.45123" y2="61.1229" style="fill:none;stroke:#1de9b6;stroke-miterlimit:10;stroke-width:1.25px"/><line x1="8.53018" y1="52.86704" x2="45.24774" y2="52.86704" style="fill:none;stroke:#1de9b6;stroke-miterlimit:10;stroke-width:1.25px"/><line x1="8.53018" y1="69.37876" x2="42.24894" y2="69.37876" style="fill:none;stroke:#1de9b6;stroke-miterlimit:10;stroke-width:1.25px"/><line x1="8.53018" y1="11.01155" x2="35.08122" y2="11.01155" style="fill:none;stroke:#1de9b6;stroke-miterlimit:10;stroke-width:1.25px"/><line x1="8.53018" y1="27.52327" x2="49.45123" y2="27.52327" style="fill:none;stroke:#1de9b6;stroke-miterlimit:10;stroke-width:1.25px"/><line x1="8.53018" y1="19.26741" x2="45.24774" y2="19.26741" style="fill:none;stroke:#1de9b6;stroke-miterlimit:10;stroke-width:1.25px"/><rect x="87.625" y="0.625" width="57.19617" height="77.00915" style="fill:none;stroke:#1de9b6;stroke-miterlimit:10;stroke-width:1.25px"/><line x1="95.53018" y1="44.61118" x2="122.08122" y2="44.61118" style="fill:none;stroke:#1de9b6;stroke-miterlimit:10;stroke-width:1.25px"/><line x1="95.53018" y1="61.1229" x2="136.45123" y2="61.1229" style="fill:none;stroke:#1de9b6;stroke-miterlimit:10;stroke-width:1.25px"/><line x1="95.53018" y1="52.86704" x2="132.24774" y2="52.86704" style="fill:none;stroke:#1de9b6;stroke-miterlimit:10;stroke-width:1.25px"/><line x1="95.53018" y1="69.37876" x2="129.24894" y2="69.37876" style="fill:none;stroke:#1de9b6;stroke-miterlimit:10;stroke-width:1.25px"/><line x1="95.53018" y1="11.01155" x2="122.08122" y2="11.01155" style="fill:none;stroke:#1de9b6;stroke-miterlimit:10;stroke-width:1.25px"/><line x1="95.53018" y1="27.52327" x2="136.45123" y2="27.52327" style="fill:none;stroke:#1de9b6;stroke-miterlimit:10;stroke-width:1.25px"/><line x1="95.53018" y1="19.26741" x2="132.24774" y2="19.26741" style="fill:none;stroke:#1de9b6;stroke-miterlimit:10;stroke-width:1.25px"/><rect x="174.625" y="0.625" width="57.19617" height="77.00915" style="fill:none;stroke:#1de9b6;stroke-miterlimit:10;stroke-width:1.25px"/><line x1="182.53018" y1="44.61118" x2="209.08122" y2="44.61118" style="fill:none;stroke:#1de9b6;stroke-miterlimit:10;stroke-width:1.25px"/><line x1="182.53018" y1="61.1229" x2="223.45123" y2="61.1229" style="fill:none;stroke:#1de9b6;stroke-miterlimit:10;stroke-width:1.25px"/><line x1="182.53018" y1="52.86704" x2="219.24774" y2="52.86704" style="fill:none;stroke:#1de9b6;stroke-miterlimit:10;stroke-width:1.25px"/><line x1="182.53018" y1="69.37876" x2="216.24894" y2="69.37876" style="fill:none;stroke:#1de9b6;stroke-miterlimit:10;stroke-width:1.25px"/><line x1="182.53018" y1="11.01155" x2="209.08122" y2="11.01155" style="fill:none;stroke:#1de9b6;stroke-miterlimit:10;stroke-width:1.25px"/><line x1="182.53018" y1="27.52327" x2="223.45123" y2="27.52327" style="fill:none;stroke:#1de9b6;stroke-miterlimit:10;stroke-width:1.25px"/><line x1="182.53018" y1="19.26741" x2="219.24774" y2="19.26741" style="fill:none;stroke:#1de9b6;stroke-miterlimit:10;stroke-width:1.25px"/><rect x="261.625" y="0.625" width="57.19617" height="77.00915" style="fill:none;stroke:#1de9b6;stroke-miterlimit:10;stroke-width:1.25px"/><line x1="269.53018" y1="44.61118" x2="296.08122" y2="44.61118" style="fill:none;stroke:#1de9b6;stroke-miterlimit:10;stroke-width:1.25px"/><line x1="269.53018" y1="61.1229" x2="310.45123" y2="61.1229" style="fill:none;stroke:#1de9b6;stroke-miterlimit:10;stroke-width:1.25px"/><line x1="269.53018" y1="52.86704" x2="306.24774" y2="52.86704" style="fill:none;stroke:#1de9b6;stroke-miterlimit:10;stroke-width:1.25px"/><line x1="269.53018" y1="69.37876" x2="303.24894" y2="69.37876" style="fill:none;stroke:#1de9b6;stroke-miterlimit:10;stroke-width:1.25px"/><line x1="269.53018" y1="11.01155" x2="296.08122" y2="11.01155" style="fill:none;stroke:#1de9b6;stroke-miterlimit:10;stroke-width:1.25px"/><line x1="269.53018" y1="27.52327" x2="310.45123" y2="27.52327" style="fill:none;stroke:#1de9b6;stroke-miterlimit:10;stroke-width:1.25px"/><line x1="269.53018" y1="19.26741" x2="306.24774" y2="19.26741" style="fill:none;stroke:#1de9b6;stroke-miterlimit:10;stroke-width:1.25px"/><rect x="348.625" y="0.625" width="57.19617" height="77.00915" style="fill:none;stroke:#1de9b6;stroke-miterlimit:10;stroke-width:1.25px"/><line x1="356.53018" y1="44.61118" x2="383.08122" y2="44.61118" style="fill:none;stroke:#1de9b6;stroke-miterlimit:10;stroke-width:1.25px"/><line x1="356.53018" y1="61.1229" x2="397.45123" y2="61.1229" style="fill:none;stroke:#1de9b6;stroke-miterlimit:10;stroke-width:1.25px"/><line x1="356.53018" y1="52.86704" x2="393.24774" y2="52.86704" style="fill:none;stroke:#1de9b6;stroke-miterlimit:10;stroke-width:1.25px"/><line x1="356.53018" y1="69.37876" x2="390.24894" y2="69.37876" style="fill:none;stroke:#1de9b6;stroke-miterlimit:10;stroke-width:1.25px"/><line x1="356.53018" y1="11.01155" x2="383.08122" y2="11.01155" style="fill:none;stroke:#1de9b6;stroke-miterlimit:10;stroke-width:1.25px"/><line x1="356.53018" y1="27.52327" x2="397.45123" y2="27.52327" style="fill:none;stroke:#1de9b6;stroke-miterlimit:10;stroke-width:1.25px"/><line x1="356.53018" y1="19.26741" x2="393.24774" y2="19.26741" style="fill:none;stroke:#1de9b6;stroke-miterlimit:10;stroke-width:1.25px"/></svg>