<svg xmlns="http://www.w3.org/2000/svg" viewBox="0 0 36.74646 36.74658"><title>app1-card</title><path d="M36.74646,3.377A3.38663,3.38663,0,0,0,33.36987.00024H28.746V0H3.37659A3.3865,3.3865,0,0,0,0,3.37646V33.36987a3.38655,3.38655,0,0,0,3.37659,3.37671H33.37a3.38647,3.38647,0,0,0,3.37646-3.37646Z" style="fill:#18ffff"/><rect x="7.5141" y="4.53155" width="21.71825" height="29.2415" style="fill:#031e28"/><line x1="10.51582" y1="20.23295" x2="20.59765" y2="20.23295" style="fill:none;stroke:#18ffff;stroke-miterlimit:10"/><line x1="10.51582" y1="26.50269" x2="26.05416" y2="26.50269" style="fill:none;stroke:#18ffff;stroke-miterlimit:10"/><line x1="10.51582" y1="23.36782" x2="24.45804" y2="23.36782" style="fill:none;stroke:#18ffff;stroke-miterlimit:10"/><line x1="10.51582" y1="29.63756" x2="23.31935" y2="29.63756" style="fill:none;stroke:#18ffff;stroke-miterlimit:10"/><line x1="10.51582" y1="8.47548" x2="20.59765" y2="8.47548" style="fill:none;stroke:#18ffff;stroke-miterlimit:10"/><line x1="10.51582" y1="14.74522" x2="26.05416" y2="14.74522" style="fill:none;stroke:#18ffff;stroke-miterlimit:10"/><line x1="10.51582" y1="11.61035" x2="24.45804" y2="11.61035" style="fill:none;stroke:#18ffff;stroke-miterlimit:10"/></svg>