<svg xmlns="http://www.w3.org/2000/svg" viewBox="0 0 36.746 36.747"><title>app1-card</title><path fill="#18ffff" d="M36.74646,3.377A3.38663,3.38663,0,0,0,33.36987.00024H28.746V0H3.37659A3.3865,3.3865,0,0,0,0,3.37646V33.36987a3.38655,3.38655,0,0,0,3.37659,3.37671H33.37a3.38647,3.38647,0,0,0,3.37646-3.37646Z"/><rect width="21.718" height="29.241" x="7.514" y="4.532" fill="#031e28"/><line x1="10.516" x2="20.598" y1="20.233" y2="20.233" fill="none" stroke="#18ffff" stroke-miterlimit="10"/><line x1="10.516" x2="26.054" y1="26.503" y2="26.503" fill="none" stroke="#18ffff" stroke-miterlimit="10"/><line x1="10.516" x2="24.458" y1="23.368" y2="23.368" fill="none" stroke="#18ffff" stroke-miterlimit="10"/><line x1="10.516" x2="23.319" y1="29.638" y2="29.638" fill="none" stroke="#18ffff" stroke-miterlimit="10"/><line x1="10.516" x2="20.598" y1="8.475" y2="8.475" fill="none" stroke="#18ffff" stroke-miterlimit="10"/><line x1="10.516" x2="26.054" y1="14.745" y2="14.745" fill="none" stroke="#18ffff" stroke-miterlimit="10"/><line x1="10.516" x2="24.458" y1="11.61" y2="11.61" fill="none" stroke="#18ffff" stroke-miterlimit="10"/></svg>