<svg xmlns="http://www.w3.org/2000/svg" viewBox="0 0 76.21912 133.99928"><title>app2-building</title><rect x="16.63501" y="8.31766" width="59.58412" height="125.68162" transform="translate(92.85413 142.31694) rotate(-180)" style="fill:#434d72"/><rect y="8.31766" width="16.63501" height="125.68162" transform="translate(16.63501 142.31694) rotate(-180)" style="fill:#031e28"/><polygon points="16.635 8.318 8.318 0 0 8.318 16.635 8.318" style="fill:#031e28"/><circle cx="46.42706" cy="35.34032" r="11.22293" style="fill:#173045"/><path d="M52.19441,35.34033a11.21728,11.21728,0,0,0-8.4952-10.8751,11.223,11.223,0,1,1,0,21.7502A11.21728,11.21728,0,0,0,52.19441,35.34033Z" style="fill:#2e3554"/><circle cx="46.42706" cy="100.01962" r="11.22293" style="fill:#173045"/><path d="M52.19441,100.01963a11.21728,11.21728,0,0,0-8.4952-10.8751,11.223,11.223,0,1,1,0,21.7502A11.21728,11.21728,0,0,0,52.19441,100.01963Z" style="fill:#2e3554"/><circle cx="46.42706" cy="67.67997" r="11.22293" style="fill:#173045"/><path d="M52.19441,67.68a11.21728,11.21728,0,0,0-8.4952-10.8751,11.223,11.223,0,1,1,0,21.7502A11.21728,11.21728,0,0,0,52.19441,67.68Z" style="fill:#2e3554"/></svg>