<svg xmlns="http://www.w3.org/2000/svg" viewBox="0 0 76.219 133.999"><title>app2-building</title><rect width="59.584" height="125.682" x="16.635" y="8.318" fill="#434d72" transform="translate(92.85413 142.31694) rotate(-180)"/><rect width="16.635" height="125.682" y="8.318" fill="#031e28" transform="translate(16.63501 142.31694) rotate(-180)"/><polygon fill="#031e28" points="16.635 8.318 8.318 0 0 8.318 16.635 8.318"/><circle cx="46.427" cy="35.34" r="11.223" fill="#173045"/><path fill="#2e3554" d="M52.19441,35.34033a11.21728,11.21728,0,0,0-8.4952-10.8751,11.223,11.223,0,1,1,0,21.7502A11.21728,11.21728,0,0,0,52.19441,35.34033Z"/><circle cx="46.427" cy="100.02" r="11.223" fill="#173045"/><path fill="#2e3554" d="M52.19441,100.01963a11.21728,11.21728,0,0,0-8.4952-10.8751,11.223,11.223,0,1,1,0,21.7502A11.21728,11.21728,0,0,0,52.19441,100.01963Z"/><circle cx="46.427" cy="67.68" r="11.223" fill="#173045"/><path fill="#2e3554" d="M52.19441,67.68a11.21728,11.21728,0,0,0-8.4952-10.8751,11.223,11.223,0,1,1,0,21.7502A11.21728,11.21728,0,0,0,52.19441,67.68Z"/></svg>