<svg xmlns="http://www.w3.org/2000/svg" viewBox="0 0 80.15723 7.57814"><title>app3-graphline</title><path d="M76.87793,3.72145a2.59827,2.59827,0,0,0-2.417,1.627,1.29907,1.29907,0,0,1-1.27881.84766,1.337,1.337,0,0,1-1.25342-.88477L70.584,1.698A2.57083,2.57083,0,0,0,68.25049.00173a2.59848,2.59848,0,0,0-2.47021,1.49121l-.68555,1.45117a1.36586,1.36586,0,0,1-1.22852.77734H61.81689a2.60533,2.60533,0,0,0-2.39844,1.582l-.085.19824a1.35806,1.35806,0,0,1-2.522-.06055L55.418,1.698a2.60875,2.60875,0,0,0-4.80371-.2041L49.9292,2.94313a1.3656,1.3656,0,0,1-1.22852.77832h-2.0498a2.60414,2.60414,0,0,0-2.39795,1.582l-.08545.19824.02014.00854a1.2782,1.2782,0,0,1-1.18176.68579,1.337,1.337,0,0,1-1.25342-.88477L40.40771,1.698A2.57083,2.57083,0,0,0,38.07422.00173,2.60035,2.60035,0,0,0,35.604,1.49294l-.68555,1.45117a1.36586,1.36586,0,0,1-1.22852.77734H31.64063a2.60533,2.60533,0,0,0-2.39844,1.582l-.085.19824a1.35806,1.35806,0,0,1-2.522-.06055L25.2417,1.698a2.60875,2.60875,0,0,0-4.80322-.20508l-.68555,1.4502a1.3656,1.3656,0,0,1-1.22852.77832h-2.0498a2.60533,2.60533,0,0,0-2.39844,1.582l-.085.19824a1.35806,1.35806,0,0,1-2.522-.06055L10.07568,1.698A2.57148,2.57148,0,0,0,7.7417.00173,2.60037,2.60037,0,0,0,5.27246,1.49294l-.68555,1.4502a1.3656,1.3656,0,0,1-1.22852.77832H0v1.25H3.3584A2.62028,2.62028,0,0,0,5.7168,3.47829l.68555-1.45117a1.35886,1.35886,0,0,1,2.50146.10645l1.39355,3.74316A2.56309,2.56309,0,0,0,12.6792,7.575a2.51659,2.51659,0,0,0,2.46143-1.58105l.085-.19824a1.35621,1.35621,0,0,1,1.249-.82422h2.0498a2.62028,2.62028,0,0,0,2.3584-1.49316l.68555-1.45117a1.35886,1.35886,0,0,1,2.50146.10645l1.39355,3.74316A2.56309,2.56309,0,0,0,27.84521,7.575c.02246.001.04541.001.06787.001a2.56134,2.56134,0,0,0,2.39307-1.582l.08545-.19824a1.35621,1.35621,0,0,1,1.249-.82422h2.04932a2.6192,2.6192,0,0,0,2.3584-1.49316l.68555-1.4502a1.35886,1.35886,0,0,1,2.502.10547l1.34473,3.61328a2.59186,2.59186,0,0,0,2.40723,1.69824c.01318.001.02637.001.03955.001a2.5929,2.5929,0,0,0,2.41553-1.627,1.35351,1.35351,0,0,1,1.25879-.84766h1.999a2.61948,2.61948,0,0,0,2.3584-1.49414l.68506-1.44922a1.35886,1.35886,0,0,1,2.502.10547l1.39355,3.74316A2.56309,2.56309,0,0,0,58.02148,7.575c.02246.001.04541.001.06787.001a2.56249,2.56249,0,0,0,2.39355-1.582l.085-.19824a1.35621,1.35621,0,0,1,1.249-.82422h2.04932a2.6192,2.6192,0,0,0,2.3584-1.49316l.68555-1.4502a1.35886,1.35886,0,0,1,2.502.10547l1.34473,3.61328a2.59186,2.59186,0,0,0,2.40723,1.69824c.01318.001.02637.001.03955.001a2.5929,2.5929,0,0,0,2.41553-1.627,1.35351,1.35351,0,0,1,1.25879-.84766h3.2793v-1.25Z" style="fill:#18ffff;opacity:0.25"/></svg>