<svg xmlns="http://www.w3.org/2000/svg" viewBox="0 0 107.94668 161.1223"><title>app3-print</title><path d="M55.27551,160.4973a52.17363,52.17363,0,0,1-43.145-22.96664" style="fill:none;stroke:#1de9b6;stroke-miterlimit:10;stroke-width:1.25px"/><path d="M106.26239,42.1951a52.08446,52.08446,0,0,1,1.05928,10.47605v27.89" style="fill:none;stroke:#1de9b6;stroke-miterlimit:10;stroke-width:1.25px"/><path d="M12.13056,23.59165a52.47419,52.47419,0,0,1,14.06588-14.066" style="fill:none;stroke:#1de9b6;stroke-miterlimit:10;stroke-width:1.25px"/><path d="M3.22992,66.61615v-13.945A52.08585,52.08585,0,0,1,4.28918,42.1951" style="fill:none;stroke:#1de9b6;stroke-miterlimit:10;stroke-width:1.25px"/><path d="M19.25618,123.635a38.74591,38.74591,0,0,1-3.08563-15.18373V87.5336" style="fill:none;stroke:#1de9b6;stroke-miterlimit:10;stroke-width:1.25px"/><path d="M70.45936,144.4706a38.74587,38.74587,0,0,1-15.18374,3.08563h-.00008a38.85739,38.85739,0,0,1-21.82471-6.70207,39.56718,39.56718,0,0,1-5.79319-4.785" style="fill:none;stroke:#1de9b6;stroke-miterlimit:10;stroke-width:1.25px"/><path d="M94.38062,94.50614v13.94508a38.85743,38.85743,0,0,1-6.70208,21.82471,39.56744,39.56744,0,0,1-4.785,5.7932" style="fill:none;stroke:#1de9b6;stroke-miterlimit:10;stroke-width:1.25px"/><polyline points="94.381 66.616 94.381 73.589 94.381 80.561" style="fill:none;stroke:#1de9b6;stroke-miterlimit:10;stroke-width:1.25px"/><path d="M82.89353,25.053a39.56723,39.56723,0,0,1,4.785,5.79319,39.15541,39.15541,0,0,1,3.61645,6.641A38.746,38.746,0,0,1,94.38062,52.6709" style="fill:none;stroke:#1de9b6;stroke-miterlimit:10;stroke-width:1.25px"/><path d="M37.61513,126.112a24.91046,24.91046,0,0,1-7.327-17.66087v-27.89" style="fill:none;stroke:#1de9b6;stroke-miterlimit:10;stroke-width:1.25px"/><path d="M72.93639,126.112a24.93749,24.93749,0,0,1-27.37768,5.36029" style="fill:none;stroke:#1de9b6;stroke-miterlimit:10;stroke-width:1.25px"/><path d="M80.26346,66.61615v41.835a24.85092,24.85092,0,0,1-1.96678,9.71713" style="fill:none;stroke:#1de9b6;stroke-miterlimit:10;stroke-width:1.25px"/><path d="M50.24609,28.19178A24.97814,24.97814,0,0,1,80.26346,52.67116" style="fill:none;stroke:#1de9b6;stroke-miterlimit:10;stroke-width:1.25px"/><path d="M30.28814,66.61615v-13.945a25.04981,25.04981,0,0,1,11.0265-20.71458" style="fill:none;stroke:#1de9b6;stroke-miterlimit:10;stroke-width:1.25px"/><polyline points="44.405 94.506 44.405 87.534 44.405 80.561 44.405 73.589" style="fill:none;stroke:#1de9b6;stroke-miterlimit:10;stroke-width:1.25px"/><path d="M65.92489,50.48322a10.87767,10.87767,0,0,1,.22124,2.18793v20.9175" style="fill:none;stroke:#1de9b6;stroke-miterlimit:10;stroke-width:1.25px"/><path d="M44.40547,59.64365v-6.9725A10.85931,10.85931,0,0,1,61.34923,43.6597" style="fill:none;stroke:#1de9b6;stroke-miterlimit:10;stroke-width:1.25px"/></svg>