<svg xmlns="http://www.w3.org/2000/svg" viewBox="0 0 36.746 36.747"><title>app4-card3</title><path fill="#18ffff" d="M36.74646,3.377A3.38663,3.38663,0,0,0,33.36987.00024H28.746V0H3.37659A3.3865,3.3865,0,0,0,0,3.37646V33.36987a3.38655,3.38655,0,0,0,3.37659,3.37671H33.37a3.38647,3.38647,0,0,0,3.37646-3.37646Z"/><rect width="18.771" height="25.274" x="8.988" y="6.008" fill="#031e28"/><line x1="11.582" x2="20.296" y1="19.693" y2="19.693" fill="none" stroke="#18ffff" stroke-miterlimit="10" stroke-width=".864"/><line x1="11.582" x2="25.012" y1="25.112" y2="25.112" fill="none" stroke="#18ffff" stroke-miterlimit="10" stroke-width=".864"/><line x1="11.582" x2="23.632" y1="22.403" y2="22.403" fill="none" stroke="#18ffff" stroke-miterlimit="10" stroke-width=".864"/><line x1="11.582" x2="22.648" y1="27.822" y2="27.822" fill="none" stroke="#18ffff" stroke-miterlimit="10" stroke-width=".864"/><line x1="11.582" x2="20.296" y1="9.417" y2="9.417" fill="none" stroke="#18ffff" stroke-miterlimit="10" stroke-width=".864"/><line x1="11.582" x2="25.012" y1="14.836" y2="14.836" fill="none" stroke="#18ffff" stroke-miterlimit="10" stroke-width=".864"/><line x1="11.582" x2="23.632" y1="12.127" y2="12.127" fill="none" stroke="#18ffff" stroke-miterlimit="10" stroke-width=".864"/></svg>