<svg xmlns="http://www.w3.org/2000/svg" viewBox="0 0 36.74646 37.03922"><title>app4-card2</title><path d="M36.74646,3.377A3.38663,3.38663,0,0,0,33.36987.00024H28.746V0H3.37659A3.3865,3.3865,0,0,0,0,3.37646V33.36987a3.38655,3.38655,0,0,0,3.37659,3.37671H33.37a3.38647,3.38647,0,0,0,3.37646-3.37646Z" style="fill:#18ffff"/><rect x="7.38722" y="7.27734" width="21.97202" height="29.76189" style="fill:#031e28"/><polygon points="25.175 17.342 22.301 16.445 19.428 17.342 19.428 7.277 25.175 7.277 25.175 17.342" style="fill:#18ffff"/><rect x="11.77903" y="20.9371" width="11.00865" height="1.45582" style="fill:#18ffff"/><polyline points="11.779 24.709 20.149 24.709 20.149 26.165 11.779 26.165" style="fill:#18ffff"/></svg>