<svg xmlns="http://www.w3.org/2000/svg" viewBox="0 0 36.74646 36.74658"><title>app4-card1</title><path d="M36.74646,3.377A3.38663,3.38663,0,0,0,33.36987.00024H28.746V0H3.37659A3.3865,3.3865,0,0,0,0,3.37646V33.36987a3.38655,3.38655,0,0,0,3.37659,3.37671H33.37a3.38647,3.38647,0,0,0,3.37646-3.37646Z" style="fill:#18ffff"/><circle cx="18.37323" cy="18.37329" r="9.90702" style="fill:#031e28"/><path d="M16.4251,14.89168l5.48129,3.49515a.37425.37425,0,0,1,.00063.63072L16.42566,22.5282a.37425.37425,0,0,1-.5761-.31516l.00006-7.00581A.37425.37425,0,0,1,16.4251,14.89168Z" style="fill:#18ffff"/></svg>