<svg xmlns="http://www.w3.org/2000/svg" viewBox="0 0 36.746 37.039"><title>app4-card2</title><path fill="#18ffff" d="M36.74646,3.377A3.38663,3.38663,0,0,0,33.36987.00024H28.746V0H3.37659A3.3865,3.3865,0,0,0,0,3.37646V33.36987a3.38655,3.38655,0,0,0,3.37659,3.37671H33.37a3.38647,3.38647,0,0,0,3.37646-3.37646Z"/><rect width="21.972" height="29.762" x="7.387" y="7.277" fill="#031e28"/><polygon fill="#18ffff" points="25.175 17.342 22.301 16.445 19.428 17.342 19.428 7.277 25.175 7.277 25.175 17.342"/><rect width="11.009" height="1.456" x="11.779" y="20.937" fill="#18ffff"/><polyline fill="#18ffff" points="11.779 24.709 20.149 24.709 20.149 26.165 11.779 26.165"/></svg>