<svg xmlns="http://www.w3.org/2000/svg" viewBox="0 0 36.74646 36.74658"><title>app4-card3</title><path d="M36.74646,3.377A3.38663,3.38663,0,0,0,33.36987.00024H28.746V0H3.37659A3.3865,3.3865,0,0,0,0,3.37646V33.36987a3.38655,3.38655,0,0,0,3.37659,3.37671H33.37a3.38647,3.38647,0,0,0,3.37646-3.37646Z" style="fill:#18ffff"/><rect x="8.98756" y="6.00847" width="18.77135" height="25.27379" style="fill:#031e28"/><line x1="11.58197" y1="19.69314" x2="20.29583" y2="19.69314" style="fill:none;stroke:#18ffff;stroke-miterlimit:10;stroke-width:0.864312241449244px"/><line x1="11.58197" y1="25.11215" x2="25.01195" y2="25.11215" style="fill:none;stroke:#18ffff;stroke-miterlimit:10;stroke-width:0.864312241449244px"/><line x1="11.58197" y1="22.40265" x2="23.6324" y2="22.40265" style="fill:none;stroke:#18ffff;stroke-miterlimit:10;stroke-width:0.864312241449244px"/><line x1="11.58197" y1="27.82166" x2="22.64822" y2="27.82166" style="fill:none;stroke:#18ffff;stroke-miterlimit:10;stroke-width:0.864312241449244px"/><line x1="11.58197" y1="9.41725" x2="20.29583" y2="9.41725" style="fill:none;stroke:#18ffff;stroke-miterlimit:10;stroke-width:0.864312241449244px"/><line x1="11.58197" y1="14.83627" x2="25.01195" y2="14.83627" style="fill:none;stroke:#18ffff;stroke-miterlimit:10;stroke-width:0.864312241449244px"/><line x1="11.58197" y1="12.12676" x2="23.6324" y2="12.12676" style="fill:none;stroke:#18ffff;stroke-miterlimit:10;stroke-width:0.864312241449244px"/></svg>