<svg xmlns="http://www.w3.org/2000/svg" viewBox="0 0 43.172 43.515"><title>cardfly3</title><path fill="#031e28" d="M43.17152,3.96741a3.97877,3.97877,0,0,0-3.967-3.96712H33.77216V0H3.967A3.97862,3.97862,0,0,0,0,3.96683v35.2377a3.97868,3.97868,0,0,0,3.967,3.96712H39.20468a3.97859,3.97859,0,0,0,3.96683-3.96683Z"/><rect width="25.814" height="34.966" x="8.679" y="8.55" fill="#18ffff"/><polygon fill="#031e28" points="29.577 20.375 26.201 19.32 22.825 20.375 22.825 8.55 29.577 8.55 29.577 20.375"/><rect width="12.934" height="1.71" x="13.839" y="24.598" fill="#031e28"/><polyline fill="#031e28" points="13.839 29.03 23.672 29.03 23.672 30.74 13.839 30.74"/></svg>