<svg xmlns="http://www.w3.org/2000/svg" viewBox="0 0 43.172 43.172"><title>cardfly2</title><path fill="#031e28" d="M43.17152,3.96741a3.97877,3.97877,0,0,0-3.967-3.96712H33.77216V0H3.967A3.97862,3.97862,0,0,0,0,3.96683v35.2377a3.97868,3.97868,0,0,0,3.967,3.96712H39.20468a3.97859,3.97859,0,0,0,3.96683-3.96683Z"/><rect width="25.007" height="33.67" x="9.082" y="5.114" fill="#18ffff"/><line x1="12.539" x2="24.147" y1="23.344" y2="23.344" fill="none" stroke="#031e28" stroke-miterlimit="10" stroke-width="1.151"/><line x1="12.539" x2="30.43" y1="30.563" y2="30.563" fill="none" stroke="#031e28" stroke-miterlimit="10" stroke-width="1.151"/><line x1="12.539" x2="28.592" y1="26.954" y2="26.954" fill="none" stroke="#031e28" stroke-miterlimit="10" stroke-width="1.151"/><line x1="12.539" x2="27.281" y1="34.173" y2="34.173" fill="none" stroke="#031e28" stroke-miterlimit="10" stroke-width="1.151"/><line x1="12.539" x2="24.147" y1="9.655" y2="9.655" fill="none" stroke="#031e28" stroke-miterlimit="10" stroke-width="1.151"/><line x1="12.539" x2="30.43" y1="16.874" y2="16.874" fill="none" stroke="#031e28" stroke-miterlimit="10" stroke-width="1.151"/><line x1="12.539" x2="28.592" y1="13.264" y2="13.264" fill="none" stroke="#031e28" stroke-miterlimit="10" stroke-width="1.151"/></svg>