<svg xmlns="http://www.w3.org/2000/svg" viewBox="0 0 43.17152 43.17165"><title>cardfly1</title><path d="M43.17152,3.96741a3.97877,3.97877,0,0,0-3.967-3.96712H33.77216V0H3.967A3.97862,3.97862,0,0,0,0,3.96683v35.2377a3.97868,3.97868,0,0,0,3.967,3.96712H39.20468a3.97859,3.97859,0,0,0,3.96683-3.96683Z" style="fill:#031e28"/><circle cx="21.58576" cy="21.58582" r="11.91149" style="fill:#18ffff"/><path d="M19.24347,17.39978l6.59031,4.20232a.45.45,0,0,1,.00076.75833l-6.59038,4.221a.45.45,0,0,1-.69267-.37893l.00008-8.42329a.45.45,0,0,1,.6919-.37943Z" style="fill:#031e28"/></svg>