<svg xmlns="http://www.w3.org/2000/svg" viewBox="0 0 157.55176 6.99079"><title>pillar3-graphline</title><path d="M154.57715,3.37786a2.41633,2.41633,0,0,0-2.24707,1.5127,1.17429,1.17429,0,0,1-2.18848-.03271L148.92188,1.58a2.42508,2.42508,0,0,0-4.46484-.18994L143.83594,2.705a1.18274,1.18274,0,0,1-1.0625.67285h-1.85937a2.42264,2.42264,0,0,0-2.22852,1.47021l-.07812.18066a1.1742,1.1742,0,0,1-2.17969-.05273L135.16406,1.58a2.42522,2.42522,0,0,0-4.46484-.18994L130.07715,2.706a1.178,1.178,0,0,1-1.06152.67188h-1.85937a2.42264,2.42264,0,0,0-2.22852,1.47021l-.07812.18066a1.1742,1.1742,0,0,1-2.17969-.05273L121.40625,1.58a2.42522,2.42522,0,0,0-4.46484-.18994L116.31934,2.706a1.178,1.178,0,0,1-1.06152.67188h-3.0459a2.41633,2.41633,0,0,0-2.24707,1.5127,1.17429,1.17429,0,0,1-2.18848-.03271L106.55664,1.58a2.42508,2.42508,0,0,0-4.46484-.18994L101.4707,2.705a1.18274,1.18274,0,0,1-1.0625.67285H98.54883a2.42061,2.42061,0,0,0-2.22852,1.47021l-.07715.17969A1.1747,1.1747,0,0,1,94.0625,4.976L92.79883,1.58A2.42508,2.42508,0,0,0,88.334,1.39007L87.71289,2.705a1.18274,1.18274,0,0,1-1.0625.67285H84.73145a2.4151,2.4151,0,0,0-2.24707,1.5127,1.17448,1.17448,0,0,1-2.18848-.03271L79.07617,1.58a2.42508,2.42508,0,0,0-4.46484-.18994L73.99023,2.705a1.18274,1.18274,0,0,1-1.0625.67285H71.06836a2.42264,2.42264,0,0,0-2.22852,1.47021l-.07812.18066A1.1742,1.1742,0,0,1,66.582,4.976L65.31836,1.58a2.42522,2.42522,0,0,0-4.46484-.18994L60.23145,2.706a1.178,1.178,0,0,1-1.06152.67188H57.31055A2.42264,2.42264,0,0,0,55.082,4.84807l-.07812.18066A1.1742,1.1742,0,0,1,52.82422,4.976L51.56055,1.58a2.42508,2.42508,0,0,0-4.46484-.18994L46.47363,2.706a1.178,1.178,0,0,1-1.06152.67188h-3.0459a2.41633,2.41633,0,0,0-2.24707,1.5127,1.17448,1.17448,0,0,1-2.18848-.03271L36.71094,1.58a2.42508,2.42508,0,0,0-4.46484-.18994L31.625,2.705a1.18274,1.18274,0,0,1-1.0625.67285H28.70313a2.42061,2.42061,0,0,0-2.22852,1.47021l-.07715.17969A1.1747,1.1747,0,0,1,24.2168,4.976L22.95313,1.58a2.42508,2.42508,0,0,0-4.46484-.18994L17.86719,2.705a1.18274,1.18274,0,0,1-1.0625.67285H14.94531A2.42061,2.42061,0,0,0,12.7168,4.84807l-.07715.17969A1.1747,1.1747,0,0,1,10.459,4.976L9.19531,1.58a2.42508,2.42508,0,0,0-4.46484-.18994L4.10938,2.705a1.18274,1.18274,0,0,1-1.0625.67285H0v1.25H3.04688A2.43679,2.43679,0,0,0,5.23926,3.23968l.62207-1.31543a1.17421,1.17421,0,0,1,2.16211.0918L9.28711,5.412a2.42457,2.42457,0,0,0,4.501.1084l.07715-.18066a1.17368,1.17368,0,0,1,1.08008-.71191h1.85938a2.43679,2.43679,0,0,0,2.19238-1.38818l.62207-1.31543a1.17421,1.17421,0,0,1,2.16211.0918l1.26367,3.396a2.42457,2.42457,0,0,0,4.501.1084l.07715-.18066a1.17368,1.17368,0,0,1,1.08008-.71191H30.5625a2.43679,2.43679,0,0,0,2.19238-1.38818L33.377,1.92425a1.17421,1.17421,0,0,1,2.16211.0918l1.21973,3.27734a2.42456,2.42456,0,0,0,4.51855.06787,1.1701,1.1701,0,0,1,1.08887-.7334h3.0459a2.43463,2.43463,0,0,0,2.19238-1.38818l.62207-1.31543a1.17421,1.17421,0,0,1,2.16211.0918l1.26367,3.396a2.42449,2.42449,0,0,0,4.501.1084l.07715-.17969a1.17482,1.17482,0,0,1,1.08008-.71289h1.85938A2.43463,2.43463,0,0,0,61.3623,3.23968l.62207-1.31543a1.17421,1.17421,0,0,1,2.16211.0918l1.26367,3.396a2.42449,2.42449,0,0,0,4.501.1084l.07715-.17969a1.17482,1.17482,0,0,1,1.08008-.71289h1.85938a2.43679,2.43679,0,0,0,2.19238-1.38818l.62207-1.31543a1.17421,1.17421,0,0,1,2.16211.0918L79.124,5.29339a2.42421,2.42421,0,0,0,4.51855.06689,1.17067,1.17067,0,0,1,1.08887-.73242h1.97461V4.6198a2.43257,2.43257,0,0,0,2.13672-1.38013l.62207-1.31543A1.17421,1.17421,0,0,1,91.627,2.016l1.26367,3.396a2.42449,2.42449,0,0,0,4.501.1084l.07715-.18066a1.17368,1.17368,0,0,1,1.08008-.71191h1.85937a2.43679,2.43679,0,0,0,2.19238-1.38818l.62207-1.31543a1.17421,1.17421,0,0,1,2.16211.0918l1.21973,3.27734a2.42494,2.42494,0,0,0,3.11914,1.42676A2.4327,2.4327,0,0,0,111.123,5.36126a1.1701,1.1701,0,0,1,1.08887-.7334h3.0459a2.43463,2.43463,0,0,0,2.19238-1.38818l.62207-1.31543a1.17421,1.17421,0,0,1,2.16211.0918L121.498,5.412a2.42449,2.42449,0,0,0,4.501.1084l.07715-.17969a1.17482,1.17482,0,0,1,1.08008-.71289h1.85938A2.43463,2.43463,0,0,0,131.208,3.23968l.62207-1.31543a1.17421,1.17421,0,0,1,2.16211.0918l1.26367,3.396a2.42449,2.42449,0,0,0,4.501.1084l.07715-.17969a1.17482,1.17482,0,0,1,1.08008-.71289h1.85938a2.43679,2.43679,0,0,0,2.19238-1.38818l.62207-1.31543A1.17421,1.17421,0,0,1,147.75,2.016l1.21973,3.27734a2.42494,2.42494,0,0,0,3.11914,1.42676,2.4327,2.4327,0,0,0,1.39941-1.35889,1.1701,1.1701,0,0,1,1.08887-.7334h2.97461v-1.25Z" style="fill:#737e90;opacity:0.5199999809265137;isolation:isolate"/></svg>