<svg xmlns="http://www.w3.org/2000/svg" viewBox="0 0 85.751 99.901"><title>pillar2-type</title><line x2="68.689" y1=".625" y2=".625" fill="none" stroke="#1de9b6" stroke-miterlimit="10" stroke-width="1.25"/><line x2="22.232" y1="16.054" y2="16.054" fill="none" stroke="#1de9b6" stroke-miterlimit="10" stroke-width="1.25"/><line x2="35.864" y1="23.601" y2="23.601" fill="none" stroke="#1de9b6" stroke-miterlimit="10" stroke-width="1.25"/><line x1="43.745" x2="60.808" y1="23.601" y2="23.601" fill="none" stroke="#1de9b6" stroke-miterlimit="10" stroke-width="1.25"/><line x1="68.689" x2="85.751" y1="23.601" y2="23.601" fill="none" stroke="#1de9b6" stroke-miterlimit="10" stroke-width="1.25"/><line x2="54.005" y1="8.506" y2="8.506" fill="none" stroke="#1de9b6" stroke-miterlimit="10" stroke-width="1.25"/><line x1="63.579" x2="85.751" y1="8.506" y2="8.506" fill="none" stroke="#1de9b6" stroke-miterlimit="10" stroke-width="1.25"/><line x2="68.689" y1="31.148" y2="31.148" fill="none" stroke="#1de9b6" stroke-miterlimit="10" stroke-width="1.25"/><line x2="22.232" y1="46.243" y2="46.243" fill="none" stroke="#1de9b6" stroke-miterlimit="10" stroke-width="1.25"/><line x2="54.005" y1="38.696" y2="38.696" fill="none" stroke="#1de9b6" stroke-miterlimit="10" stroke-width="1.25"/><line x1="63.579" x2="85.751" y1="38.696" y2="38.696" fill="none" stroke="#1de9b6" stroke-miterlimit="10" stroke-width="1.25"/><line x2="68.689" y1="53.658" y2="53.658" fill="none" stroke="#1de9b6" stroke-miterlimit="10" stroke-width="1.25"/><line x2="22.232" y1="69.087" y2="69.087" fill="none" stroke="#1de9b6" stroke-miterlimit="10" stroke-width="1.25"/><line x2="35.864" y1="76.634" y2="76.634" fill="none" stroke="#1de9b6" stroke-miterlimit="10" stroke-width="1.25"/><line x1="43.745" x2="60.808" y1="76.634" y2="76.634" fill="none" stroke="#1de9b6" stroke-miterlimit="10" stroke-width="1.25"/><line x1="68.689" x2="85.751" y1="76.634" y2="76.634" fill="none" stroke="#1de9b6" stroke-miterlimit="10" stroke-width="1.25"/><line x2="54.005" y1="61.539" y2="61.539" fill="none" stroke="#1de9b6" stroke-miterlimit="10" stroke-width="1.25"/><line x1="63.579" x2="85.751" y1="61.539" y2="61.539" fill="none" stroke="#1de9b6" stroke-miterlimit="10" stroke-width="1.25"/><line x2="68.689" y1="84.182" y2="84.182" fill="none" stroke="#1de9b6" stroke-miterlimit="10" stroke-width="1.25"/><line x2="22.232" y1="99.276" y2="99.276" fill="none" stroke="#1de9b6" stroke-miterlimit="10" stroke-width="1.25"/><line x2="54.005" y1="91.729" y2="91.729" fill="none" stroke="#1de9b6" stroke-miterlimit="10" stroke-width="1.25"/><line x1="63.579" x2="85.751" y1="91.729" y2="91.729" fill="none" stroke="#1de9b6" stroke-miterlimit="10" stroke-width="1.25"/></svg>