<svg xmlns="http://www.w3.org/2000/svg" viewBox="0 0 85.75143 99.90147"><title>pillar2-type</title><line y1="0.625" x2="68.68866" y2="0.625" style="fill:none;stroke:#1de9b6;stroke-miterlimit:10;stroke-width:1.25px"/><line y1="16.05355" x2="22.23217" y2="16.05355" style="fill:none;stroke:#1de9b6;stroke-miterlimit:10;stroke-width:1.25px"/><line y1="23.60101" x2="35.86376" y2="23.60101" style="fill:none;stroke:#1de9b6;stroke-miterlimit:10;stroke-width:1.25px"/><line x1="43.74483" y1="23.60101" x2="60.80759" y2="23.60101" style="fill:none;stroke:#1de9b6;stroke-miterlimit:10;stroke-width:1.25px"/><line x1="68.68866" y1="23.60101" x2="85.75143" y2="23.60101" style="fill:none;stroke:#1de9b6;stroke-miterlimit:10;stroke-width:1.25px"/><line y1="8.50608" x2="54.00473" y2="8.50608" style="fill:none;stroke:#1de9b6;stroke-miterlimit:10;stroke-width:1.25px"/><line x1="63.57911" y1="8.50608" x2="85.75143" y2="8.50608" style="fill:none;stroke:#1de9b6;stroke-miterlimit:10;stroke-width:1.25px"/><line y1="31.14848" x2="68.68866" y2="31.14848" style="fill:none;stroke:#1de9b6;stroke-miterlimit:10;stroke-width:1.25px"/><line y1="46.24344" x2="22.23217" y2="46.24344" style="fill:none;stroke:#1de9b6;stroke-miterlimit:10;stroke-width:1.25px"/><line y1="38.69597" x2="54.00473" y2="38.69597" style="fill:none;stroke:#1de9b6;stroke-miterlimit:10;stroke-width:1.25px"/><line x1="63.57911" y1="38.69597" x2="85.75143" y2="38.69597" style="fill:none;stroke:#1de9b6;stroke-miterlimit:10;stroke-width:1.25px"/><line y1="53.65803" x2="68.68866" y2="53.65803" style="fill:none;stroke:#1de9b6;stroke-miterlimit:10;stroke-width:1.25px"/><line y1="69.08658" x2="22.23217" y2="69.08658" style="fill:none;stroke:#1de9b6;stroke-miterlimit:10;stroke-width:1.25px"/><line y1="76.63404" x2="35.86376" y2="76.63404" style="fill:none;stroke:#1de9b6;stroke-miterlimit:10;stroke-width:1.25px"/><line x1="43.74483" y1="76.63404" x2="60.80759" y2="76.63404" style="fill:none;stroke:#1de9b6;stroke-miterlimit:10;stroke-width:1.25px"/><line x1="68.68866" y1="76.63404" x2="85.75143" y2="76.63404" style="fill:none;stroke:#1de9b6;stroke-miterlimit:10;stroke-width:1.25px"/><line y1="61.53911" x2="54.00473" y2="61.53911" style="fill:none;stroke:#1de9b6;stroke-miterlimit:10;stroke-width:1.25px"/><line x1="63.57911" y1="61.53911" x2="85.75143" y2="61.53911" style="fill:none;stroke:#1de9b6;stroke-miterlimit:10;stroke-width:1.25px"/><line y1="84.18151" x2="68.68866" y2="84.18151" style="fill:none;stroke:#1de9b6;stroke-miterlimit:10;stroke-width:1.25px"/><line y1="99.27647" x2="22.23217" y2="99.27647" style="fill:none;stroke:#1de9b6;stroke-miterlimit:10;stroke-width:1.25px"/><line y1="91.729" x2="54.00473" y2="91.729" style="fill:none;stroke:#1de9b6;stroke-miterlimit:10;stroke-width:1.25px"/><line x1="63.57911" y1="91.729" x2="85.75143" y2="91.729" style="fill:none;stroke:#1de9b6;stroke-miterlimit:10;stroke-width:1.25px"/></svg>