<svg xmlns="http://www.w3.org/2000/svg" xmlns:xlink="http://www.w3.org/1999/xlink" viewBox="0 0 547.28424 510.60018"><defs><clipPath id="a" transform="translate(-51.98405 -483.6605)"><path d="M0,0V198.88431H0V555.73611H92.21469V757.2095H471.24294V661.87011h117.518v-106.134h95.36724V.00052Z" style="fill:none"/></clipPath><clipPath id="b" transform="translate(-51.98405 -483.6605)"><path d="M230.81047,688.95058a44.99347,44.99347,0,1,1,89.98694,0Z" style="fill:none"/></clipPath></defs><title>token-city</title><g style="clip-path:url(#a)"><rect x="419.32608" y="630.30262" width="62.15985" height="237.43847" transform="translate(848.82795 1014.38321) rotate(-180)" style="fill:#434d72"/><rect x="481.48592" y="630.30262" width="16.83092" height="16.83092" transform="translate(927.81872 793.77566) rotate(-180)" style="fill:#031e28"/><rect x="481.48592" y="647.13354" width="16.83092" height="220.60755" transform="translate(927.81872 1031.21413) rotate(-180)" style="fill:#434d72"/><rect x="498.31684" y="663.96446" width="50.10972" height="203.77663" transform="translate(994.75936 1048.04504) rotate(-180)" style="fill:#434d72"/><rect x="498.31684" y="647.13354" width="16.83092" height="16.83092" transform="translate(961.48055 827.4375) rotate(-180)" style="fill:#031e28"/><rect x="418.58119" y="639.44049" width="53.76686" height="348.87967" transform="translate(838.9452 1144.10015) rotate(-180)" style="fill:#031e28"/><rect x="435.41211" y="656.27141" width="53.76686" height="337.98927" transform="translate(872.60703 1166.87159) rotate(-180)" style="fill:#031e28"/><rect x="452.24303" y="673.10233" width="98.85268" height="308.62747" transform="translate(951.35469 1171.17162) rotate(-180)" style="fill:#031e28"/><path d="M505.19281,720.89014a17.19327,17.19327,0,0,0-17.19327,17.19327h17.19327Z" transform="translate(-51.98405 -483.6605)" style="fill:#173045"/><path d="M505.19281,686.50353a17.19327,17.19327,0,0,0-17.19327,17.19327h17.19327Z" transform="translate(-51.98405 -483.6605)" style="fill:#173045"/><path d="M522.38606,720.89007a17.19323,17.19323,0,0,0-17.19327-17.19327v17.19334Z" transform="translate(-51.98405 -483.6605)" style="fill:#173045"/><path d="M522.38614,703.49718a17.19341,17.19341,0,0,0,17.19363-17.19326l-17.19371,0Z" transform="translate(-51.98405 -483.6605)" style="fill:#173045"/><path d="M413.43255,673.09513a17.19325,17.19325,0,0,0-17.19321-17.19329v17.19328Z" transform="translate(-51.98405 -483.6605)" style="fill:#173045"/><path d="M447.819,673.09515a17.19325,17.19325,0,0,0-17.19321-17.19329v17.19328Z" transform="translate(-51.98405 -483.6605)" style="fill:#173045"/><path d="M413.43261,690.28839a17.1932,17.1932,0,0,0,17.19322-17.19326H413.43255Z" transform="translate(-51.98405 -483.6605)" style="fill:#173045"/><path d="M448.01862,690.28841a17.1932,17.1932,0,0,0,17.19322-17.19326H448.01855Z" transform="translate(-51.98405 -483.6605)" style="fill:#173045"/><path d="M430.82544,690.28848a17.19339,17.19339,0,0,0,17.1932,17.19365l0-17.19372Z" transform="translate(-51.98405 -483.6605)" style="fill:#173045"/><rect x="90.585" y="203.98842" width="213.86769" height="107.67856" style="fill:#031e28"/><path d="M230.81047,688.95058a44.99347,44.99347,0,1,1,89.98694,0Z" transform="translate(-51.98405 -483.6605)" style="fill:#031e28"/><g style="clip-path:url(#b)"><circle cx="188.53276" cy="195.1659" r="1.08466" style="fill:#1de9b6"/><circle cx="199.43362" cy="195.1659" r="1.08466" style="fill:#1de9b6"/><circle cx="204.88405" cy="195.1659" r="1.08466" style="fill:#1de9b6"/><circle cx="193.98319" cy="195.1659" r="1.08466" style="fill:#1de9b6"/><polyline points="181.632 185.076 192.571 185.076 195.868 187.476 222.025 187.476" style="fill:none;stroke:#1de9b6;stroke-miterlimit:10;stroke-width:1.25px"/><polyline points="268.813 189.877 251.479 189.877 248.182 187.476 222.025 187.476" style="fill:none;stroke:#1de9b6;stroke-miterlimit:10;stroke-width:1.25px"/><line x1="181.63248" y1="181.96655" x2="265.59177" y2="181.96655" style="fill:none;stroke:#1de9b6;stroke-miterlimit:10;stroke-width:1.25px"/><line x1="214.38796" y1="193.77686" x2="214.38796" y2="196.85049" style="fill:none;stroke:#1de9b6;stroke-miterlimit:10;stroke-width:1.25px"/><line x1="216.90285" y1="192.29915" x2="216.90285" y2="198.03265" style="fill:none;stroke:#1de9b6;stroke-miterlimit:10;stroke-width:1.25px"/><line x1="219.41775" y1="191.53074" x2="219.41775" y2="198.80106" style="fill:none;stroke:#1de9b6;stroke-miterlimit:10;stroke-width:1.25px"/><line x1="221.93264" y1="192.98768" x2="221.93264" y2="196.85049" style="fill:none;stroke:#1de9b6;stroke-miterlimit:10;stroke-width:1.25px"/><line x1="224.44754" y1="191.53074" x2="224.44754" y2="198.80106" style="fill:none;stroke:#1de9b6;stroke-miterlimit:10;stroke-width:1.25px"/><line x1="229.47732" y1="193.77686" x2="229.47732" y2="196.85049" style="fill:none;stroke:#1de9b6;stroke-miterlimit:10;stroke-width:1.25px"/><line x1="226.96243" y1="192.29915" x2="226.96243" y2="198.03265" style="fill:none;stroke:#1de9b6;stroke-miterlimit:10;stroke-width:1.25px"/><line x1="231.99222" y1="192.29915" x2="231.99222" y2="198.03265" style="fill:none;stroke:#1de9b6;stroke-miterlimit:10;stroke-width:1.25px"/><line x1="234.50711" y1="191.53074" x2="234.50711" y2="198.80106" style="fill:none;stroke:#1de9b6;stroke-miterlimit:10;stroke-width:1.25px"/><line x1="237.02201" y1="192.98768" x2="237.02201" y2="196.85049" style="fill:none;stroke:#1de9b6;stroke-miterlimit:10;stroke-width:1.25px"/><line x1="239.5369" y1="191.53074" x2="239.5369" y2="198.80106" style="fill:none;stroke:#1de9b6;stroke-miterlimit:10;stroke-width:1.25px"/><line x1="244.56669" y1="193.77686" x2="244.56669" y2="196.85049" style="fill:none;stroke:#1de9b6;stroke-miterlimit:10;stroke-width:1.25px"/><line x1="242.0518" y1="192.29915" x2="242.0518" y2="198.03265" style="fill:none;stroke:#1de9b6;stroke-miterlimit:10;stroke-width:1.25px"/></g><rect x="50.49275" width="49.98866" height="472.5635" style="fill:#434d72"/><rect x="33.66183" width="16.83092" height="16.83092" style="fill:#031e28"/><rect x="33.66183" y="16.83092" width="16.83092" height="261.22716" style="fill:#434d72"/><rect x="16.83092" y="33.66183" width="16.83092" height="402.86841" style="fill:#434d72"/><rect x="16.83092" y="16.83092" width="16.83092" height="16.83092" style="fill:#031e28"/><rect y="33.66183" width="16.83092" height="394.85881" style="fill:#031e28"/><rect x="29.14104" y="41.87655" width="25.87251" height="425.4992" rx="12.93624" ry="12.93624" style="fill:#031e28"/><path d="M94.06136,525.537a12.79915,12.79915,0,0,0-4.20769.72089,12.976,12.976,0,0,1,8.72847,12.21542V938.0999a12.976,12.976,0,0,1-8.72847,12.21542,12.79915,12.79915,0,0,0,4.20769.72089A12.97425,12.97425,0,0,0,106.9976,938.0999V538.47332A12.97425,12.97425,0,0,0,94.06136,525.537Z" transform="translate(-51.98405 -483.6605)" style="fill:#173045"/><rect x="81.50053" y="35.83053" width="11.5236" height="10.14077" style="fill:none;stroke:#737e90;stroke-miterlimit:10;stroke-width:1.25px"/><rect x="62.16842" y="35.83053" width="11.5236" height="10.14077" style="fill:none;stroke:#737e90;stroke-miterlimit:10;stroke-width:1.25px"/><polyline points="62.168 8.202 93.024 8.202 93.024 30.077" style="fill:none;stroke:#737e90;stroke-miterlimit:10;stroke-width:1.25px"/><rect x="81.50053" y="129.62252" width="11.5236" height="10.14077" style="fill:none;stroke:#737e90;stroke-miterlimit:10;stroke-width:1.25px"/><rect x="62.16842" y="129.62252" width="11.5236" height="10.14077" style="fill:none;stroke:#737e90;stroke-miterlimit:10;stroke-width:1.25px"/><line x1="62.16842" y1="101.99386" x2="93.02413" y2="101.99386" style="fill:none;stroke:#737e90;stroke-miterlimit:10;stroke-width:1.25px"/><line x1="90.02017" y1="111.78025" x2="90.02017" y2="116.87066" style="fill:none;stroke:#737e90;stroke-miterlimit:10;stroke-width:1.25px"/><line x1="85.85511" y1="109.33294" x2="85.85511" y2="118.82851" style="fill:none;stroke:#737e90;stroke-miterlimit:10;stroke-width:1.25px"/><line x1="81.69006" y1="108.06034" x2="81.69006" y2="120.10112" style="fill:none;stroke:#737e90;stroke-miterlimit:10;stroke-width:1.25px"/><line x1="77.525" y1="110.47326" x2="77.525" y2="116.87066" style="fill:none;stroke:#737e90;stroke-miterlimit:10;stroke-width:1.25px"/><line x1="73.35995" y1="108.06034" x2="73.35995" y2="120.10112" style="fill:none;stroke:#737e90;stroke-miterlimit:10;stroke-width:1.25px"/><line x1="65.02984" y1="111.78025" x2="65.02984" y2="116.87066" style="fill:none;stroke:#737e90;stroke-miterlimit:10;stroke-width:1.25px"/><line x1="69.19489" y1="109.33294" x2="69.19489" y2="118.82851" style="fill:none;stroke:#737e90;stroke-miterlimit:10;stroke-width:1.25px"/><rect x="81.50053" y="180.78131" width="11.5236" height="10.14077" style="fill:none;stroke:#737e90;stroke-miterlimit:10;stroke-width:1.25px"/><rect x="62.16842" y="180.78131" width="11.5236" height="10.14077" style="fill:none;stroke:#737e90;stroke-miterlimit:10;stroke-width:1.25px"/><polyline points="62.168 153.153 93.024 153.153 93.024 175.028" style="fill:none;stroke:#737e90;stroke-miterlimit:10;stroke-width:1.25px"/><circle cx="63.7446" cy="231.9791" r="1.57618" style="fill:#1de9b6"/><circle cx="77.525" cy="231.9791" r="1.57618" style="fill:#1de9b6"/><circle cx="70.6348" cy="231.9791" r="1.57618" style="fill:#1de9b6"/><polyline points="62.298 222.94 69.613 222.94 74.404 226.428 93.217 226.428" style="fill:none;stroke:#1de9b6;stroke-miterlimit:10;stroke-width:1.25px"/><line x1="62.29751" y1="218.02321" x2="93.02413" y2="218.02321" style="fill:none;stroke:#1de9b6;stroke-miterlimit:10;stroke-width:1.25px"/><circle cx="63.02932" cy="205.36536" r="1.05392" style="fill:#1de9b6"/><circle cx="66.48826" cy="205.36536" r="1.05392" style="fill:#1de9b6"/><circle cx="70.11367" cy="205.36536" r="1.05392" style="fill:#1de9b6"/><line x1="93.21715" y1="205.36536" x2="76.31905" y2="205.36536" style="fill:none;stroke:#1de9b6;stroke-miterlimit:10;stroke-width:1.25px"/><circle cx="63.7446" cy="87.02831" r="1.57618" style="fill:#1de9b6"/><circle cx="77.525" cy="87.02831" r="1.57618" style="fill:#1de9b6"/><circle cx="70.6348" cy="87.02831" r="1.57618" style="fill:#1de9b6"/><polyline points="62.298 77.989 69.613 77.989 74.404 81.477 93.217 81.477" style="fill:none;stroke:#1de9b6;stroke-miterlimit:10;stroke-width:1.25px"/><line x1="62.29751" y1="73.07242" x2="93.02413" y2="73.07242" style="fill:none;stroke:#1de9b6;stroke-miterlimit:10;stroke-width:1.25px"/><circle cx="63.02932" cy="60.41458" r="1.05392" style="fill:#1de9b6"/><circle cx="66.48826" cy="60.41458" r="1.05392" style="fill:#1de9b6"/><circle cx="70.11367" cy="60.41458" r="1.05392" style="fill:#1de9b6"/><line x1="93.21715" y1="60.41458" x2="76.31905" y2="60.41458" style="fill:none;stroke:#1de9b6;stroke-miterlimit:10;stroke-width:1.25px"/><rect x="510.53999" y="28.1971" width="30.75562" height="287.11482" style="fill:#2a3d58"/><rect x="459.24923" y="28.1971" width="51.29076" height="290.45994" style="fill:#173045"/><circle cx="518.40761" cy="58.4955" r="1.79637" style="fill:#18ffff"/><circle cx="536.46111" cy="58.4955" r="1.79637" style="fill:#18ffff"/><circle cx="545.48787" cy="58.4955" r="1.79637" style="fill:#18ffff"/><circle cx="527.43436" cy="58.4955" r="1.79637" style="fill:#18ffff"/><polyline points="516.758 48.194 525.096 48.194 530.556 52.169 546.795 52.169" style="fill:none;stroke:#737e90;stroke-miterlimit:10;stroke-width:1.25px"/><line x1="516.75837" y1="43.06211" x2="546.7952" y2="43.06211" style="fill:none;stroke:#737e90;stroke-miterlimit:10;stroke-width:1.25px"/><line x1="516.75837" y1="37.93048" x2="546.7952" y2="37.93048" style="fill:none;stroke:#737e90;stroke-miterlimit:10;stroke-width:1.25px"/><rect x="400.52901" y="617.48753" width="22.01167" height="212.71422" transform="translate(771.08564 964.02877) rotate(-180)" style="fill:#2a3d58"/><rect x="354.3107" y="617.48753" width="46.21831" height="208.78682" transform="translate(702.85566 960.10137) rotate(-180)" style="fill:#173045"/><polygon points="304.431 133.921 346.441 133.827 346.441 120.244 304.431 120.338 304.431 133.921" style="fill:#173045"/><polygon points="346.441 133.921 369.039 133.827 369.039 120.244 346.441 120.338 346.441 133.921" style="fill:#2a3d58"/><polyline points="327.029 120.338 327.029 105.57 350.187 105.57 369.039 120.338" style="fill:#1de9b6"/><polyline points="346.441 120.338 350.187 105.57 323.283 105.57 304.431 120.338" style="fill:#031e28"/><line x1="363.50295" y1="133.9207" x2="363.50295" y2="340.02348" style="fill:none;stroke:#1de9b6;stroke-miterlimit:10;stroke-width:1.25px"/><line x1="356.48442" y1="133.9207" x2="356.48442" y2="346.54124" style="fill:none;stroke:#1de9b6;stroke-miterlimit:10;stroke-width:1.25px"/><circle cx="336.67348" cy="167.5516" r="1.57618" style="fill:#1de9b6"/><circle cx="322.89308" cy="167.5516" r="1.57618" style="fill:#1de9b6"/><circle cx="329.78328" cy="167.5516" r="1.57618" style="fill:#1de9b6"/><polyline points="338.121 158.513 330.805 158.513 326.014 162.001 307.201 162.001" style="fill:none;stroke:#737e90;stroke-miterlimit:10;stroke-width:1.25px"/><line x1="338.12057" y1="153.59571" x2="307.39395" y2="153.59571" style="fill:none;stroke:#737e90;stroke-miterlimit:10;stroke-width:1.25px"/><circle cx="337.38877" cy="140.93787" r="1.05392" style="fill:#1de9b6"/><circle cx="333.92982" cy="140.93787" r="1.05392" style="fill:#1de9b6"/><circle cx="330.30441" cy="140.93787" r="1.05392" style="fill:#1de9b6"/><line x1="307.20093" y1="140.93787" x2="324.09903" y2="140.93787" style="fill:none;stroke:#737e90;stroke-miterlimit:10;stroke-width:1.25px"/><polygon points="147.835 126.799 147.835 54.974 170.39 126.799 147.835 126.799" style="fill:#fff"/><polygon points="147.835 126.799 147.835 54.974 125.28 126.799 147.835 126.799" style="fill:#434d72"/><rect x="147.83519" y="126.79862" width="22.55477" height="243.29491" style="fill:#2a3d58"/><rect x="125.28042" y="126.79862" width="22.55477" height="344.84384" style="fill:#173045"/></g></svg>