<svg xmlns="http://www.w3.org/2000/svg" xmlns:xlink="http://www.w3.org/1999/xlink" viewBox="0 0 547.284 510.6"><defs><clipPath id="a" transform="translate(-51.98405 -483.6605)"><path fill="none" d="M0,0V198.88431H0V555.73611H92.21469V757.2095H471.24294V661.87011h117.518v-106.134h95.36724V.00052Z"/></clipPath><clipPath id="b" transform="translate(-51.98405 -483.6605)"><path fill="none" d="M230.81047,688.95058a44.99347,44.99347,0,1,1,89.98694,0Z"/></clipPath></defs><title>token-city</title><g clip-path="url(#a)"><rect width="62.16" height="237.438" x="419.326" y="630.303" fill="#434d72" transform="translate(848.82795 1014.38321) rotate(-180)"/><rect width="16.831" height="16.831" x="481.486" y="630.303" fill="#031e28" transform="translate(927.81872 793.77566) rotate(-180)"/><rect width="16.831" height="220.608" x="481.486" y="647.134" fill="#434d72" transform="translate(927.81872 1031.21413) rotate(-180)"/><rect width="50.11" height="203.777" x="498.317" y="663.964" fill="#434d72" transform="translate(994.75936 1048.04504) rotate(-180)"/><rect width="16.831" height="16.831" x="498.317" y="647.134" fill="#031e28" transform="translate(961.48055 827.4375) rotate(-180)"/><rect width="53.767" height="348.88" x="418.581" y="639.44" fill="#031e28" transform="translate(838.9452 1144.10015) rotate(-180)"/><rect width="53.767" height="337.989" x="435.412" y="656.271" fill="#031e28" transform="translate(872.60703 1166.87159) rotate(-180)"/><rect width="98.853" height="308.627" x="452.243" y="673.102" fill="#031e28" transform="translate(951.35469 1171.17162) rotate(-180)"/><path fill="#173045" d="M505.19281,720.89014a17.19327,17.19327,0,0,0-17.19327,17.19327h17.19327Z" transform="translate(-51.98405 -483.6605)"/><path fill="#173045" d="M505.19281,686.50353a17.19327,17.19327,0,0,0-17.19327,17.19327h17.19327Z" transform="translate(-51.98405 -483.6605)"/><path fill="#173045" d="M522.38606,720.89007a17.19323,17.19323,0,0,0-17.19327-17.19327v17.19334Z" transform="translate(-51.98405 -483.6605)"/><path fill="#173045" d="M522.38614,703.49718a17.19341,17.19341,0,0,0,17.19363-17.19326l-17.19371,0Z" transform="translate(-51.98405 -483.6605)"/><path fill="#173045" d="M413.43255,673.09513a17.19325,17.19325,0,0,0-17.19321-17.19329v17.19328Z" transform="translate(-51.98405 -483.6605)"/><path fill="#173045" d="M447.819,673.09515a17.19325,17.19325,0,0,0-17.19321-17.19329v17.19328Z" transform="translate(-51.98405 -483.6605)"/><path fill="#173045" d="M413.43261,690.28839a17.1932,17.1932,0,0,0,17.19322-17.19326H413.43255Z" transform="translate(-51.98405 -483.6605)"/><path fill="#173045" d="M448.01862,690.28841a17.1932,17.1932,0,0,0,17.19322-17.19326H448.01855Z" transform="translate(-51.98405 -483.6605)"/><path fill="#173045" d="M430.82544,690.28848a17.19339,17.19339,0,0,0,17.1932,17.19365l0-17.19372Z" transform="translate(-51.98405 -483.6605)"/><rect width="213.868" height="107.679" x="90.585" y="203.988" fill="#031e28"/><path fill="#031e28" d="M230.81047,688.95058a44.99347,44.99347,0,1,1,89.98694,0Z" transform="translate(-51.98405 -483.6605)"/><g clip-path="url(#b)"><circle cx="188.533" cy="195.166" r="1.085" fill="#1de9b6"/><circle cx="199.434" cy="195.166" r="1.085" fill="#1de9b6"/><circle cx="204.884" cy="195.166" r="1.085" fill="#1de9b6"/><circle cx="193.983" cy="195.166" r="1.085" fill="#1de9b6"/><polyline fill="none" stroke="#1de9b6" stroke-miterlimit="10" stroke-width="1.25" points="181.632 185.076 192.571 185.076 195.868 187.476 222.025 187.476"/><polyline fill="none" stroke="#1de9b6" stroke-miterlimit="10" stroke-width="1.25" points="268.813 189.877 251.479 189.877 248.182 187.476 222.025 187.476"/><line x1="181.632" x2="265.592" y1="181.967" y2="181.967" fill="none" stroke="#1de9b6" stroke-miterlimit="10" stroke-width="1.25"/><line x1="214.388" x2="214.388" y1="193.777" y2="196.85" fill="none" stroke="#1de9b6" stroke-miterlimit="10" stroke-width="1.25"/><line x1="216.903" x2="216.903" y1="192.299" y2="198.033" fill="none" stroke="#1de9b6" stroke-miterlimit="10" stroke-width="1.25"/><line x1="219.418" x2="219.418" y1="191.531" y2="198.801" fill="none" stroke="#1de9b6" stroke-miterlimit="10" stroke-width="1.25"/><line x1="221.933" x2="221.933" y1="192.988" y2="196.85" fill="none" stroke="#1de9b6" stroke-miterlimit="10" stroke-width="1.25"/><line x1="224.448" x2="224.448" y1="191.531" y2="198.801" fill="none" stroke="#1de9b6" stroke-miterlimit="10" stroke-width="1.25"/><line x1="229.477" x2="229.477" y1="193.777" y2="196.85" fill="none" stroke="#1de9b6" stroke-miterlimit="10" stroke-width="1.25"/><line x1="226.962" x2="226.962" y1="192.299" y2="198.033" fill="none" stroke="#1de9b6" stroke-miterlimit="10" stroke-width="1.25"/><line x1="231.992" x2="231.992" y1="192.299" y2="198.033" fill="none" stroke="#1de9b6" stroke-miterlimit="10" stroke-width="1.25"/><line x1="234.507" x2="234.507" y1="191.531" y2="198.801" fill="none" stroke="#1de9b6" stroke-miterlimit="10" stroke-width="1.25"/><line x1="237.022" x2="237.022" y1="192.988" y2="196.85" fill="none" stroke="#1de9b6" stroke-miterlimit="10" stroke-width="1.25"/><line x1="239.537" x2="239.537" y1="191.531" y2="198.801" fill="none" stroke="#1de9b6" stroke-miterlimit="10" stroke-width="1.25"/><line x1="244.567" x2="244.567" y1="193.777" y2="196.85" fill="none" stroke="#1de9b6" stroke-miterlimit="10" stroke-width="1.25"/><line x1="242.052" x2="242.052" y1="192.299" y2="198.033" fill="none" stroke="#1de9b6" stroke-miterlimit="10" stroke-width="1.25"/></g><rect width="49.989" height="472.563" x="50.493" fill="#434d72"/><rect width="16.831" height="16.831" x="33.662" fill="#031e28"/><rect width="16.831" height="261.227" x="33.662" y="16.831" fill="#434d72"/><rect width="16.831" height="402.868" x="16.831" y="33.662" fill="#434d72"/><rect width="16.831" height="16.831" x="16.831" y="16.831" fill="#031e28"/><rect width="16.831" height="394.859" y="33.662" fill="#031e28"/><rect width="25.873" height="425.499" x="29.141" y="41.877" fill="#031e28" rx="12.936" ry="12.936"/><path fill="#173045" d="M94.06136,525.537a12.79915,12.79915,0,0,0-4.20769.72089,12.976,12.976,0,0,1,8.72847,12.21542V938.0999a12.976,12.976,0,0,1-8.72847,12.21542,12.79915,12.79915,0,0,0,4.20769.72089A12.97425,12.97425,0,0,0,106.9976,938.0999V538.47332A12.97425,12.97425,0,0,0,94.06136,525.537Z" transform="translate(-51.98405 -483.6605)"/><rect width="11.524" height="10.141" x="81.501" y="35.831" fill="none" stroke="#737e90" stroke-miterlimit="10" stroke-width="1.25"/><rect width="11.524" height="10.141" x="62.168" y="35.831" fill="none" stroke="#737e90" stroke-miterlimit="10" stroke-width="1.25"/><polyline fill="none" stroke="#737e90" stroke-miterlimit="10" stroke-width="1.25" points="62.168 8.202 93.024 8.202 93.024 30.077"/><rect width="11.524" height="10.141" x="81.501" y="129.623" fill="none" stroke="#737e90" stroke-miterlimit="10" stroke-width="1.25"/><rect width="11.524" height="10.141" x="62.168" y="129.623" fill="none" stroke="#737e90" stroke-miterlimit="10" stroke-width="1.25"/><line x1="62.168" x2="93.024" y1="101.994" y2="101.994" fill="none" stroke="#737e90" stroke-miterlimit="10" stroke-width="1.25"/><line x1="90.02" x2="90.02" y1="111.78" y2="116.871" fill="none" stroke="#737e90" stroke-miterlimit="10" stroke-width="1.25"/><line x1="85.855" x2="85.855" y1="109.333" y2="118.829" fill="none" stroke="#737e90" stroke-miterlimit="10" stroke-width="1.25"/><line x1="81.69" x2="81.69" y1="108.06" y2="120.101" fill="none" stroke="#737e90" stroke-miterlimit="10" stroke-width="1.25"/><line x1="77.525" x2="77.525" y1="110.473" y2="116.871" fill="none" stroke="#737e90" stroke-miterlimit="10" stroke-width="1.25"/><line x1="73.36" x2="73.36" y1="108.06" y2="120.101" fill="none" stroke="#737e90" stroke-miterlimit="10" stroke-width="1.25"/><line x1="65.03" x2="65.03" y1="111.78" y2="116.871" fill="none" stroke="#737e90" stroke-miterlimit="10" stroke-width="1.25"/><line x1="69.195" x2="69.195" y1="109.333" y2="118.829" fill="none" stroke="#737e90" stroke-miterlimit="10" stroke-width="1.25"/><rect width="11.524" height="10.141" x="81.501" y="180.781" fill="none" stroke="#737e90" stroke-miterlimit="10" stroke-width="1.25"/><rect width="11.524" height="10.141" x="62.168" y="180.781" fill="none" stroke="#737e90" stroke-miterlimit="10" stroke-width="1.25"/><polyline fill="none" stroke="#737e90" stroke-miterlimit="10" stroke-width="1.25" points="62.168 153.153 93.024 153.153 93.024 175.028"/><circle cx="63.745" cy="231.979" r="1.576" fill="#1de9b6"/><circle cx="77.525" cy="231.979" r="1.576" fill="#1de9b6"/><circle cx="70.635" cy="231.979" r="1.576" fill="#1de9b6"/><polyline fill="none" stroke="#1de9b6" stroke-miterlimit="10" stroke-width="1.25" points="62.298 222.94 69.613 222.94 74.404 226.428 93.217 226.428"/><line x1="62.298" x2="93.024" y1="218.023" y2="218.023" fill="none" stroke="#1de9b6" stroke-miterlimit="10" stroke-width="1.25"/><circle cx="63.029" cy="205.365" r="1.054" fill="#1de9b6"/><circle cx="66.488" cy="205.365" r="1.054" fill="#1de9b6"/><circle cx="70.114" cy="205.365" r="1.054" fill="#1de9b6"/><line x1="93.217" x2="76.319" y1="205.365" y2="205.365" fill="none" stroke="#1de9b6" stroke-miterlimit="10" stroke-width="1.25"/><circle cx="63.745" cy="87.028" r="1.576" fill="#1de9b6"/><circle cx="77.525" cy="87.028" r="1.576" fill="#1de9b6"/><circle cx="70.635" cy="87.028" r="1.576" fill="#1de9b6"/><polyline fill="none" stroke="#1de9b6" stroke-miterlimit="10" stroke-width="1.25" points="62.298 77.989 69.613 77.989 74.404 81.477 93.217 81.477"/><line x1="62.298" x2="93.024" y1="73.072" y2="73.072" fill="none" stroke="#1de9b6" stroke-miterlimit="10" stroke-width="1.25"/><circle cx="63.029" cy="60.415" r="1.054" fill="#1de9b6"/><circle cx="66.488" cy="60.415" r="1.054" fill="#1de9b6"/><circle cx="70.114" cy="60.415" r="1.054" fill="#1de9b6"/><line x1="93.217" x2="76.319" y1="60.415" y2="60.415" fill="none" stroke="#1de9b6" stroke-miterlimit="10" stroke-width="1.25"/><rect width="30.756" height="287.115" x="510.54" y="28.197" fill="#2a3d58"/><rect width="51.291" height="290.46" x="459.249" y="28.197" fill="#173045"/><circle cx="518.408" cy="58.495" r="1.796" fill="#18ffff"/><circle cx="536.461" cy="58.495" r="1.796" fill="#18ffff"/><circle cx="545.488" cy="58.495" r="1.796" fill="#18ffff"/><circle cx="527.434" cy="58.495" r="1.796" fill="#18ffff"/><polyline fill="none" stroke="#737e90" stroke-miterlimit="10" stroke-width="1.25" points="516.758 48.194 525.096 48.194 530.556 52.169 546.795 52.169"/><line x1="516.758" x2="546.795" y1="43.062" y2="43.062" fill="none" stroke="#737e90" stroke-miterlimit="10" stroke-width="1.25"/><line x1="516.758" x2="546.795" y1="37.93" y2="37.93" fill="none" stroke="#737e90" stroke-miterlimit="10" stroke-width="1.25"/><rect width="22.012" height="212.714" x="400.529" y="617.488" fill="#2a3d58" transform="translate(771.08564 964.02877) rotate(-180)"/><rect width="46.218" height="208.787" x="354.311" y="617.488" fill="#173045" transform="translate(702.85566 960.10137) rotate(-180)"/><polygon fill="#173045" points="304.431 133.921 346.441 133.827 346.441 120.244 304.431 120.338 304.431 133.921"/><polygon fill="#2a3d58" points="346.441 133.921 369.039 133.827 369.039 120.244 346.441 120.338 346.441 133.921"/><polyline fill="#1de9b6" points="327.029 120.338 327.029 105.57 350.187 105.57 369.039 120.338"/><polyline fill="#031e28" points="346.441 120.338 350.187 105.57 323.283 105.57 304.431 120.338"/><line x1="363.503" x2="363.503" y1="133.921" y2="340.023" fill="none" stroke="#1de9b6" stroke-miterlimit="10" stroke-width="1.25"/><line x1="356.484" x2="356.484" y1="133.921" y2="346.541" fill="none" stroke="#1de9b6" stroke-miterlimit="10" stroke-width="1.25"/><circle cx="336.673" cy="167.552" r="1.576" fill="#1de9b6"/><circle cx="322.893" cy="167.552" r="1.576" fill="#1de9b6"/><circle cx="329.783" cy="167.552" r="1.576" fill="#1de9b6"/><polyline fill="none" stroke="#737e90" stroke-miterlimit="10" stroke-width="1.25" points="338.121 158.513 330.805 158.513 326.014 162.001 307.201 162.001"/><line x1="338.121" x2="307.394" y1="153.596" y2="153.596" fill="none" stroke="#737e90" stroke-miterlimit="10" stroke-width="1.25"/><circle cx="337.389" cy="140.938" r="1.054" fill="#1de9b6"/><circle cx="333.93" cy="140.938" r="1.054" fill="#1de9b6"/><circle cx="330.304" cy="140.938" r="1.054" fill="#1de9b6"/><line x1="307.201" x2="324.099" y1="140.938" y2="140.938" fill="none" stroke="#737e90" stroke-miterlimit="10" stroke-width="1.25"/><polygon fill="#fff" points="147.835 126.799 147.835 54.974 170.39 126.799 147.835 126.799"/><polygon fill="#434d72" points="147.835 126.799 147.835 54.974 125.28 126.799 147.835 126.799"/><rect width="22.555" height="243.295" x="147.835" y="126.799" fill="#2a3d58"/><rect width="22.555" height="344.844" x="125.28" y="126.799" fill="#173045"/></g></svg>