<svg xmlns="http://www.w3.org/2000/svg" xmlns:xlink="http://www.w3.org/1999/xlink" viewBox="0 0 300.10177 363.24512"><defs><clipPath id="a"><path d="M160.49416,4.2002A4.09772,4.09772,0,0,0,156.29494,0H102.22023A4.09829,4.09829,0,0,0,98.02,4.2002L35.5547,363.24512H93.303l13.11694-87.623h43.57422l12.06812,87.623h57.74756ZM114.29494,223.123,129.52,121.79883,143.16994,223.123Z" style="fill:none"/></clipPath><clipPath id="b"><path d="M51.13636,70.46893a55.63115,55.63115,0,1,1,111.2623,0Z" style="fill:none"/></clipPath><clipPath id="c"><path d="M159.00376,256.954a70.549,70.549,0,1,1,141.098,0Z" style="fill:none"/></clipPath></defs><title>token-a</title><path d="M160.49416,4.2002A4.09772,4.09772,0,0,0,156.29494,0H102.22023A4.09829,4.09829,0,0,0,98.02,4.2002L35.5547,363.24512H93.303l13.11694-87.623h43.57422l12.06812,87.623h57.74756ZM114.29494,223.123,129.52,121.79883,143.16994,223.123Z" style="fill:#031e28"/><polygon points="114.295 223.123 143.17 223.123 129.52 121.799 114.295 223.123" style="fill:#fff"/><g style="clip-path:url(#a)"><polygon points="92.012 363.245 105.129 275.622 148.703 275.622 160.771 363.245 92.012 363.245" style="fill:#fff"/><rect x="55.71023" y="70.46893" width="218.35457" height="182.99173" style="fill:#173045"/><rect x="162.53963" y="110.14151" width="58.85054" height="224.79763" style="fill:#434d72"/><rect x="146.60477" y="110.14151" width="15.93486" height="15.93487" style="fill:#031e28"/><rect x="146.60477" y="126.07638" width="15.93486" height="208.86276" style="fill:#434d72"/><rect x="95.38972" y="142.01124" width="51.21505" height="192.9279" style="fill:#434d72"/><rect x="130.66991" y="126.07638" width="15.93486" height="15.93487" style="fill:#031e28"/><rect x="114.33773" y="187.8024" width="37.91406" height="128.94215" style="fill:#031e28"/><rect x="171.19101" y="118.79289" width="50.90439" height="216.14625" style="fill:#031e28"/><rect x="155.25615" y="134.72776" width="50.90439" height="200.21138" style="fill:#031e28"/><rect x="100.1836" y="150.66263" width="62.25787" height="184.27651" style="fill:#031e28"/><path d="M51.13636,70.46893a55.63115,55.63115,0,1,1,111.2623,0Z" style="fill:#434d72"/><g style="clip-path:url(#b)"><circle cx="63.13754" cy="57.95112" r="1.34111" style="fill:#18ffff"/><circle cx="76.61566" cy="57.95112" r="1.34111" style="fill:#18ffff"/><circle cx="83.35471" cy="57.95112" r="1.34111" style="fill:#18ffff"/><circle cx="69.8766" cy="57.95112" r="1.34111" style="fill:#18ffff"/><polyline points="54.606 45.476 68.131 45.476 72.207 48.443 104.548 48.443" style="fill:none;stroke:#737e90;stroke-miterlimit:10;stroke-width:1.25px"/><polyline points="162.399 51.411 140.966 51.411 136.889 48.443 104.548 48.443" style="fill:none;stroke:#737e90;stroke-miterlimit:10;stroke-width:1.25px"/><line x1="54.60585" y1="41.63107" x2="158.4154" y2="41.63107" style="fill:none;stroke:#737e90;stroke-miterlimit:10;stroke-width:1.25px"/><line x1="95.10561" y1="56.23366" x2="95.10561" y2="60.03399" style="fill:none;stroke:#1de9b6;stroke-miterlimit:10;stroke-width:1.25px"/><line x1="98.21509" y1="54.40659" x2="98.21509" y2="61.49565" style="fill:none;stroke:#1de9b6;stroke-miterlimit:10;stroke-width:1.25px"/><line x1="101.32458" y1="53.4565" x2="101.32458" y2="62.44573" style="fill:none;stroke:#1de9b6;stroke-miterlimit:10;stroke-width:1.25px"/><line x1="104.43406" y1="55.2579" x2="104.43406" y2="60.03399" style="fill:none;stroke:#1de9b6;stroke-miterlimit:10;stroke-width:1.25px"/><line x1="107.54354" y1="53.4565" x2="107.54354" y2="62.44573" style="fill:none;stroke:#1de9b6;stroke-miterlimit:10;stroke-width:1.25px"/><line x1="113.76251" y1="56.23366" x2="113.76251" y2="60.03399" style="fill:none;stroke:#1de9b6;stroke-miterlimit:10;stroke-width:1.25px"/><line x1="110.65303" y1="54.40659" x2="110.65303" y2="61.49565" style="fill:none;stroke:#1de9b6;stroke-miterlimit:10;stroke-width:1.25px"/><line x1="116.872" y1="54.40659" x2="116.872" y2="61.49565" style="fill:none;stroke:#1de9b6;stroke-miterlimit:10;stroke-width:1.25px"/><line x1="119.98148" y1="53.4565" x2="119.98148" y2="62.44573" style="fill:none;stroke:#1de9b6;stroke-miterlimit:10;stroke-width:1.25px"/><line x1="123.09097" y1="55.2579" x2="123.09097" y2="60.03399" style="fill:none;stroke:#1de9b6;stroke-miterlimit:10;stroke-width:1.25px"/><line x1="126.20045" y1="53.4565" x2="126.20045" y2="62.44573" style="fill:none;stroke:#1de9b6;stroke-miterlimit:10;stroke-width:1.25px"/><line x1="132.41942" y1="56.23366" x2="132.41942" y2="60.03399" style="fill:none;stroke:#1de9b6;stroke-miterlimit:10;stroke-width:1.25px"/><line x1="129.30993" y1="54.40659" x2="129.30993" y2="61.49565" style="fill:none;stroke:#1de9b6;stroke-miterlimit:10;stroke-width:1.25px"/></g><path d="M159.00376,256.954a70.549,70.549,0,1,1,141.098,0Z" style="fill:#434d72"/><g style="clip-path:url(#c)"><circle cx="174.22314" cy="241.07947" r="1.70073" style="fill:#1de9b6"/><circle cx="191.3155" cy="241.07947" r="1.70073" style="fill:#1de9b6"/><circle cx="199.86168" cy="241.07947" r="1.70073" style="fill:#1de9b6"/><circle cx="182.76932" cy="241.07947" r="1.70073" style="fill:#1de9b6"/><polyline points="163.404 225.259 180.555 225.259 185.725 229.022 226.739 229.022" style="fill:none;stroke:#1de9b6;stroke-miterlimit:10;stroke-width:1.25px"/><polyline points="300.102 232.786 272.922 232.786 267.752 229.022 226.739 229.022" style="fill:none;stroke:#737e90;stroke-miterlimit:10;stroke-width:1.25px"/><line x1="163.40363" y1="220.3831" x2="295.05038" y2="220.3831" style="fill:none;stroke:#1de9b6;stroke-miterlimit:10;stroke-width:1.25px"/><line x1="214.76365" y1="238.90147" x2="214.76365" y2="243.72087" style="fill:none;stroke:#737e90;stroke-miterlimit:10;stroke-width:1.25px"/><line x1="218.70697" y1="236.58444" x2="218.70697" y2="245.57449" style="fill:none;stroke:#737e90;stroke-miterlimit:10;stroke-width:1.25px"/><line x1="222.65028" y1="235.37959" x2="222.65028" y2="246.77934" style="fill:none;stroke:#737e90;stroke-miterlimit:10;stroke-width:1.25px"/><line x1="226.59359" y1="237.66405" x2="226.59359" y2="243.72087" style="fill:none;stroke:#737e90;stroke-miterlimit:10;stroke-width:1.25px"/><line x1="230.5369" y1="235.37959" x2="230.5369" y2="246.77934" style="fill:none;stroke:#737e90;stroke-miterlimit:10;stroke-width:1.25px"/><line x1="238.42353" y1="238.90147" x2="238.42353" y2="243.72087" style="fill:none;stroke:#737e90;stroke-miterlimit:10;stroke-width:1.25px"/><line x1="234.48022" y1="236.58444" x2="234.48022" y2="245.57449" style="fill:none;stroke:#737e90;stroke-miterlimit:10;stroke-width:1.25px"/><line x1="242.36684" y1="236.58444" x2="242.36684" y2="245.57449" style="fill:none;stroke:#737e90;stroke-miterlimit:10;stroke-width:1.25px"/><line x1="246.31015" y1="235.37959" x2="246.31015" y2="246.77934" style="fill:none;stroke:#737e90;stroke-miterlimit:10;stroke-width:1.25px"/><line x1="250.25347" y1="237.66405" x2="250.25347" y2="243.72087" style="fill:none;stroke:#737e90;stroke-miterlimit:10;stroke-width:1.25px"/><line x1="254.19678" y1="235.37959" x2="254.19678" y2="246.77934" style="fill:none;stroke:#737e90;stroke-miterlimit:10;stroke-width:1.25px"/><line x1="262.0834" y1="238.90147" x2="262.0834" y2="243.72087" style="fill:none;stroke:#737e90;stroke-miterlimit:10;stroke-width:1.25px"/><line x1="258.14009" y1="236.58444" x2="258.14009" y2="245.57449" style="fill:none;stroke:#737e90;stroke-miterlimit:10;stroke-width:1.25px"/></g><polygon points="260.662 363.245 22.745 363.245 45.947 253.461 260.662 253.461 260.662 363.245" style="fill:#434d72"/><rect x="161.28161" y="333.53619" width="64.53434" height="29.70841" style="fill:#2a3d58"/><rect x="141.10778" y="265.45397" width="37.31682" height="97.79063" style="fill:#173045"/><circle cx="146.94692" cy="291.32549" r="1.70073" style="fill:#18ffff"/><circle cx="164.03928" cy="291.32549" r="1.70073" style="fill:#18ffff"/><circle cx="172.58547" cy="291.32549" r="1.70073" style="fill:#18ffff"/><circle cx="155.4931" cy="291.32549" r="1.70073" style="fill:#18ffff"/><polyline points="145.385 281.572 153.279 281.572 158.449 285.336 173.823 285.336" style="fill:none;stroke:#737e90;stroke-miterlimit:10;stroke-width:1.25px"/><line x1="145.38548" y1="276.71375" x2="173.82319" y2="276.71375" style="fill:none;stroke:#737e90;stroke-miterlimit:10;stroke-width:1.25px"/><line x1="145.38548" y1="271.85532" x2="173.82319" y2="271.85532" style="fill:none;stroke:#737e90;stroke-miterlimit:10;stroke-width:1.25px"/><circle cx="146.94692" cy="320.72307" r="1.70073" style="fill:#18ffff"/><circle cx="164.03928" cy="320.72307" r="1.70073" style="fill:#18ffff"/><circle cx="172.58547" cy="320.72307" r="1.70073" style="fill:#18ffff"/><circle cx="155.4931" cy="320.72307" r="1.70073" style="fill:#18ffff"/><polyline points="145.385 310.97 153.279 310.97 158.449 314.733 173.823 314.733" style="fill:none;stroke:#737e90;stroke-miterlimit:10;stroke-width:1.25px"/><line x1="145.38548" y1="306.11133" x2="173.82319" y2="306.11133" style="fill:none;stroke:#737e90;stroke-miterlimit:10;stroke-width:1.25px"/><line x1="145.38548" y1="301.2529" x2="173.82319" y2="301.2529" style="fill:none;stroke:#737e90;stroke-miterlimit:10;stroke-width:1.25px"/><rect x="0.70523" y="282.92564" width="58.85054" height="80.31896" transform="translate(60.261 646.17024) rotate(-180)" style="fill:#434d72"/><rect x="59.55577" y="282.92564" width="15.93486" height="15.93487" transform="translate(135.04639 581.78615) rotate(-180)" style="fill:#031e28"/><rect x="59.55577" y="298.86051" width="15.93486" height="64.38409" transform="translate(135.04639 662.10511) rotate(-180)" style="fill:#434d72"/><rect x="75.49063" y="314.79538" width="15.93486" height="48.44974" transform="translate(166.91612 678.04049) rotate(-180)" style="fill:#434d72"/><rect x="75.49063" y="298.86051" width="15.93486" height="15.93487" transform="translate(166.91612 613.65589) rotate(-180)" style="fill:#031e28"/><rect x="91.42549" y="314.79538" width="15.93486" height="48.44922" transform="translate(198.78584 678.03998) rotate(-180)" style="fill:#031e28"/><rect y="291.57703" width="50.90439" height="71.66757" transform="translate(50.90439 654.82162) rotate(-180)" style="fill:#031e28"/><rect x="15.93486" y="307.51189" width="50.90439" height="55.73271" transform="translate(82.77411 670.75649) rotate(-180)" style="fill:#031e28"/><rect x="31.86972" y="323.44676" width="50.90439" height="39.79784" transform="translate(114.64383 686.69136) rotate(-180)" style="fill:#031e28"/></g><polygon points="62.034 134.47 99.123 134.47 99.123 126.595 62.65 126.595 62.034 134.47" style="fill:#1de9b6"/><rect x="70.52503" y="134.47012" width="36.47225" height="118.99054" transform="translate(177.52231 387.93077) rotate(-180)" style="fill:#fff"/><rect x="54.77565" y="134.47012" width="15.74938" height="118.99054" transform="translate(125.30069 387.93077) rotate(-180)" style="fill:#c3cbd8"/><polygon points="70.525 134.47 62.65 126.595 54.776 134.47 70.525 134.47" style="fill:#c3cbd8"/><polygon points="106.997 134.47 99.123 126.595 91.248 134.47 106.997 134.47" style="fill:#1de9b6"/><circle cx="88.76116" cy="152.30633" r="10.62543" style="fill:#434d72"/><path d="M94.22146,152.30634a10.62009,10.62009,0,0,0-8.04293-10.29613,10.62552,10.62552,0,1,1,0,20.59225A10.62009,10.62009,0,0,0,94.22146,152.30634Z" style="fill:#2e3554"/><circle cx="88.76116" cy="181.87799" r="10.62543" style="fill:#434d72"/><path d="M94.22146,181.878a10.62009,10.62009,0,0,0-8.04293-10.29613,10.62552,10.62552,0,1,1,0,20.59225A10.62009,10.62009,0,0,0,94.22146,181.878Z" style="fill:#2e3554"/><rect x="59.80911" y="142.06414" width="3.782" height="60.72382" style="fill:#031e28"/></svg>