<svg xmlns="http://www.w3.org/2000/svg" viewBox="0 0 61.89392 87.9204"><title>token-print</title><path d="M14.00533,82.10986a30.4796,30.4796,0,0,1-10.99374-13.345A30.1564,30.1564,0,0,1,.625,56.9733V37.45365" style="fill:none;stroke:#1de9b6;stroke-miterlimit:10;stroke-width:1.25px"/><path d="M56.08331,73.915a30.47989,30.47989,0,0,1-13.34507,10.9938,30.26847,30.26847,0,0,1-23.58278,0" style="fill:none;stroke:#1de9b6;stroke-miterlimit:10;stroke-width:1.25px"/><path d="M61.26892,47.21348V56.9733a30.156,30.156,0,0,1-2.38663,11.79153" style="fill:none;stroke:#1de9b6;stroke-miterlimit:10;stroke-width:1.25px"/><path d="M56.08331,14.00539a30.15848,30.15848,0,0,1,5.18561,16.9417v9.75983" style="fill:none;stroke:#1de9b6;stroke-miterlimit:10;stroke-width:1.25px"/><path d="M24.84358,1.24213a30.29838,30.29838,0,0,1,27.53414,8.274" style="fill:none;stroke:#1de9b6;stroke-miterlimit:10;stroke-width:1.25px"/><path d="M.625,30.9471A30.39671,30.39671,0,0,1,14.00533,5.81054" style="fill:none;stroke:#1de9b6;stroke-miterlimit:10;stroke-width:1.25px"/><path d="M8.57439,66.4168A24.15146,24.15146,0,0,1,6.663,56.9733V43.9602" style="fill:none;stroke:#1de9b6;stroke-miterlimit:10;stroke-width:1.25px"/><path d="M30.94682,81.25736A24.34351,24.34351,0,0,1,10.816,70.54142" style="fill:none;stroke:#1de9b6;stroke-miterlimit:10;stroke-width:1.25px"/><path d="M55.23087,50.46675V56.9733A24.35287,24.35287,0,0,1,40.3902,79.346" style="fill:none;stroke:#1de9b6;stroke-miterlimit:10;stroke-width:1.25px"/><path d="M54.73662,26.05911a24.302,24.302,0,0,1,.49425,4.888V43.9602" style="fill:none;stroke:#1de9b6;stroke-miterlimit:10;stroke-width:1.25px"/><path d="M26.05893,7.15728A24.3312,24.3312,0,0,1,51.07787,17.379" style="fill:none;stroke:#1de9b6;stroke-miterlimit:10;stroke-width:1.25px"/><path d="M10.816,17.379a24.48376,24.48376,0,0,1,6.563-6.563" style="fill:none;stroke:#1de9b6;stroke-miterlimit:10;stroke-width:1.25px"/><path d="M6.663,37.45365V30.9471a24.30255,24.30255,0,0,1,.49424-4.888" style="fill:none;stroke:#1de9b6;stroke-miterlimit:10;stroke-width:1.25px"/><path d="M12.701,40.70686V30.947a18.13037,18.13037,0,0,1,3.1271-10.18312" style="fill:none;stroke:#1de9b6;stroke-miterlimit:10;stroke-width:1.25px"/><path d="M14.14068,64.05787A18.07833,18.07833,0,0,1,12.701,56.97334V47.21346" style="fill:none;stroke:#1de9b6;stroke-miterlimit:10;stroke-width:1.25px"/><path d="M38.03141,73.7795a18.07833,18.07833,0,0,1-7.08453,1.43971h0a18.13036,18.13036,0,0,1-10.18312-3.1271,18.46153,18.46153,0,0,1-2.703-2.23262" style="fill:none;stroke:#1de9b6;stroke-miterlimit:10;stroke-width:1.25px"/><path d="M49.19275,50.46675v6.50659a18.13037,18.13037,0,0,1-3.1271,10.18312,18.46153,18.46153,0,0,1-2.23262,2.703" style="fill:none;stroke:#1de9b6;stroke-miterlimit:10;stroke-width:1.25px"/><polyline points="49.193 37.454 49.193 40.707 49.193 43.96" style="fill:none;stroke:#1de9b6;stroke-miterlimit:10;stroke-width:1.25px"/><path d="M43.833,18.06083a18.46153,18.46153,0,0,1,2.23262,2.703A18.26921,18.26921,0,0,1,47.753,23.86245,18.07833,18.07833,0,0,1,49.19275,30.947" style="fill:none;stroke:#1de9b6;stroke-miterlimit:10;stroke-width:1.25px"/><path d="M20.76372,15.8282a18.2692,18.2692,0,0,1,3.09859-1.68739,18.07833,18.07833,0,0,1,7.08453-1.43971h0a18.07833,18.07833,0,0,1,7.08453,1.43971" style="fill:none;stroke:#1de9b6;stroke-miterlimit:10;stroke-width:1.25px"/><path d="M22.70673,65.21364a11.702,11.702,0,0,1-2.501-3.70645A11.59517,11.59517,0,0,1,19.288,56.9733V43.9602" style="fill:none;stroke:#1de9b6;stroke-miterlimit:10;stroke-width:1.25px"/><path d="M39.18716,65.21364a11.70187,11.70187,0,0,1-3.70645,2.501,11.63795,11.63795,0,0,1-9.06762,0" style="fill:none;stroke:#1de9b6;stroke-miterlimit:10;stroke-width:1.25px"/><path d="M42.60587,37.45365V56.9733a11.5951,11.5951,0,0,1-.91767,4.53389" style="fill:none;stroke:#1de9b6;stroke-miterlimit:10;stroke-width:1.25px"/><path d="M28.60016,19.52534A11.65447,11.65447,0,0,1,42.60587,30.9471" style="fill:none;stroke:#1de9b6;stroke-miterlimit:10;stroke-width:1.25px"/><path d="M19.288,37.45365V30.9471a11.68792,11.68792,0,0,1,5.14482-9.66515" style="fill:none;stroke:#1de9b6;stroke-miterlimit:10;stroke-width:1.25px"/><polyline points="25.875 50.467 25.875 47.213 25.875 43.96 25.875 40.707" style="fill:none;stroke:#1de9b6;stroke-miterlimit:10;stroke-width:1.25px"/><path d="M36.01891,47.21348V56.9733a5.072,5.072,0,1,1-10.1439,0" style="fill:none;stroke:#1de9b6;stroke-miterlimit:10;stroke-width:1.25px"/><path d="M35.91568,29.92624a5.07541,5.07541,0,0,1,.10323,1.02086v9.75983" style="fill:none;stroke:#1de9b6;stroke-miterlimit:10;stroke-width:1.25px"/><path d="M25.875,34.20037V30.9471a5.06681,5.06681,0,0,1,7.90573-4.20462" style="fill:none;stroke:#1de9b6;stroke-miterlimit:10;stroke-width:1.25px"/></svg>