<svg xmlns="http://www.w3.org/2000/svg" viewBox="0 0 43.17152 43.17165"><title>token-card1</title><path d="M43.17152,3.96741a3.97877,3.97877,0,0,0-3.967-3.96712H33.77216V0H3.967A3.97862,3.97862,0,0,0,0,3.96683v35.2377a3.97868,3.97868,0,0,0,3.967,3.96712H39.20468a3.97859,3.97859,0,0,0,3.96683-3.96683Z" style="fill:#18ffff"/><rect x="9.08224" y="5.11352" width="25.00703" height="33.66952" style="fill:#031e28"/><line x1="12.5385" y1="23.34412" x2="24.14702" y2="23.34412" style="fill:none;stroke:#18ffff;stroke-miterlimit:10;stroke-width:1.15142941474915px"/><line x1="12.5385" y1="30.56328" x2="30.42981" y2="30.56328" style="fill:none;stroke:#18ffff;stroke-miterlimit:10;stroke-width:1.15142941474915px"/><line x1="12.5385" y1="26.9537" x2="28.59198" y2="26.9537" style="fill:none;stroke:#18ffff;stroke-miterlimit:10;stroke-width:1.15142941474915px"/><line x1="12.5385" y1="34.17287" x2="27.28086" y2="34.17287" style="fill:none;stroke:#18ffff;stroke-miterlimit:10;stroke-width:1.15142941474915px"/><line x1="12.5385" y1="9.65467" x2="24.14702" y2="9.65467" style="fill:none;stroke:#18ffff;stroke-miterlimit:10;stroke-width:1.15142941474915px"/><line x1="12.5385" y1="16.87384" x2="30.42981" y2="16.87384" style="fill:none;stroke:#18ffff;stroke-miterlimit:10;stroke-width:1.15142941474915px"/><line x1="12.5385" y1="13.26425" x2="28.59198" y2="13.26425" style="fill:none;stroke:#18ffff;stroke-miterlimit:10;stroke-width:1.15142941474915px"/></svg>