<svg xmlns="http://www.w3.org/2000/svg" xmlns:xlink="http://www.w3.org/1999/xlink" viewBox="0 0 300.102 363.245"><defs><clipPath id="a"><path fill="none" d="M160.49416,4.2002A4.09772,4.09772,0,0,0,156.29494,0H102.22023A4.09829,4.09829,0,0,0,98.02,4.2002L35.5547,363.24512H93.303l13.11694-87.623h43.57422l12.06812,87.623h57.74756ZM114.29494,223.123,129.52,121.79883,143.16994,223.123Z"/></clipPath><clipPath id="b"><path fill="none" d="M51.13636,70.46893a55.63115,55.63115,0,1,1,111.2623,0Z"/></clipPath><clipPath id="c"><path fill="none" d="M159.00376,256.954a70.549,70.549,0,1,1,141.098,0Z"/></clipPath></defs><title>token-a</title><path fill="#031e28" d="M160.49416,4.2002A4.09772,4.09772,0,0,0,156.29494,0H102.22023A4.09829,4.09829,0,0,0,98.02,4.2002L35.5547,363.24512H93.303l13.11694-87.623h43.57422l12.06812,87.623h57.74756ZM114.29494,223.123,129.52,121.79883,143.16994,223.123Z"/><polygon fill="#fff" points="114.295 223.123 143.17 223.123 129.52 121.799 114.295 223.123"/><g clip-path="url(#a)"><polygon fill="#fff" points="92.012 363.245 105.129 275.622 148.703 275.622 160.771 363.245 92.012 363.245"/><rect width="218.355" height="182.992" x="55.71" y="70.469" fill="#173045"/><rect width="58.851" height="224.798" x="162.54" y="110.142" fill="#434d72"/><rect width="15.935" height="15.935" x="146.605" y="110.142" fill="#031e28"/><rect width="15.935" height="208.863" x="146.605" y="126.076" fill="#434d72"/><rect width="51.215" height="192.928" x="95.39" y="142.011" fill="#434d72"/><rect width="15.935" height="15.935" x="130.67" y="126.076" fill="#031e28"/><rect width="37.914" height="128.942" x="114.338" y="187.802" fill="#031e28"/><rect width="50.904" height="216.146" x="171.191" y="118.793" fill="#031e28"/><rect width="50.904" height="200.211" x="155.256" y="134.728" fill="#031e28"/><rect width="62.258" height="184.277" x="100.184" y="150.663" fill="#031e28"/><path fill="#434d72" d="M51.13636,70.46893a55.63115,55.63115,0,1,1,111.2623,0Z"/><g clip-path="url(#b)"><circle cx="63.138" cy="57.951" r="1.341" fill="#18ffff"/><circle cx="76.616" cy="57.951" r="1.341" fill="#18ffff"/><circle cx="83.355" cy="57.951" r="1.341" fill="#18ffff"/><circle cx="69.877" cy="57.951" r="1.341" fill="#18ffff"/><polyline fill="none" stroke="#737e90" stroke-miterlimit="10" stroke-width="1.25" points="54.606 45.476 68.131 45.476 72.207 48.443 104.548 48.443"/><polyline fill="none" stroke="#737e90" stroke-miterlimit="10" stroke-width="1.25" points="162.399 51.411 140.966 51.411 136.889 48.443 104.548 48.443"/><line x1="54.606" x2="158.415" y1="41.631" y2="41.631" fill="none" stroke="#737e90" stroke-miterlimit="10" stroke-width="1.25"/><line x1="95.106" x2="95.106" y1="56.234" y2="60.034" fill="none" stroke="#1de9b6" stroke-miterlimit="10" stroke-width="1.25"/><line x1="98.215" x2="98.215" y1="54.407" y2="61.496" fill="none" stroke="#1de9b6" stroke-miterlimit="10" stroke-width="1.25"/><line x1="101.325" x2="101.325" y1="53.456" y2="62.446" fill="none" stroke="#1de9b6" stroke-miterlimit="10" stroke-width="1.25"/><line x1="104.434" x2="104.434" y1="55.258" y2="60.034" fill="none" stroke="#1de9b6" stroke-miterlimit="10" stroke-width="1.25"/><line x1="107.544" x2="107.544" y1="53.456" y2="62.446" fill="none" stroke="#1de9b6" stroke-miterlimit="10" stroke-width="1.25"/><line x1="113.763" x2="113.763" y1="56.234" y2="60.034" fill="none" stroke="#1de9b6" stroke-miterlimit="10" stroke-width="1.25"/><line x1="110.653" x2="110.653" y1="54.407" y2="61.496" fill="none" stroke="#1de9b6" stroke-miterlimit="10" stroke-width="1.25"/><line x1="116.872" x2="116.872" y1="54.407" y2="61.496" fill="none" stroke="#1de9b6" stroke-miterlimit="10" stroke-width="1.25"/><line x1="119.981" x2="119.981" y1="53.456" y2="62.446" fill="none" stroke="#1de9b6" stroke-miterlimit="10" stroke-width="1.25"/><line x1="123.091" x2="123.091" y1="55.258" y2="60.034" fill="none" stroke="#1de9b6" stroke-miterlimit="10" stroke-width="1.25"/><line x1="126.2" x2="126.2" y1="53.456" y2="62.446" fill="none" stroke="#1de9b6" stroke-miterlimit="10" stroke-width="1.25"/><line x1="132.419" x2="132.419" y1="56.234" y2="60.034" fill="none" stroke="#1de9b6" stroke-miterlimit="10" stroke-width="1.25"/><line x1="129.31" x2="129.31" y1="54.407" y2="61.496" fill="none" stroke="#1de9b6" stroke-miterlimit="10" stroke-width="1.25"/></g><path fill="#434d72" d="M159.00376,256.954a70.549,70.549,0,1,1,141.098,0Z"/><g clip-path="url(#c)"><circle cx="174.223" cy="241.079" r="1.701" fill="#1de9b6"/><circle cx="191.315" cy="241.079" r="1.701" fill="#1de9b6"/><circle cx="199.862" cy="241.079" r="1.701" fill="#1de9b6"/><circle cx="182.769" cy="241.079" r="1.701" fill="#1de9b6"/><polyline fill="none" stroke="#1de9b6" stroke-miterlimit="10" stroke-width="1.25" points="163.404 225.259 180.555 225.259 185.725 229.022 226.739 229.022"/><polyline fill="none" stroke="#737e90" stroke-miterlimit="10" stroke-width="1.25" points="300.102 232.786 272.922 232.786 267.752 229.022 226.739 229.022"/><line x1="163.404" x2="295.05" y1="220.383" y2="220.383" fill="none" stroke="#1de9b6" stroke-miterlimit="10" stroke-width="1.25"/><line x1="214.764" x2="214.764" y1="238.901" y2="243.721" fill="none" stroke="#737e90" stroke-miterlimit="10" stroke-width="1.25"/><line x1="218.707" x2="218.707" y1="236.584" y2="245.574" fill="none" stroke="#737e90" stroke-miterlimit="10" stroke-width="1.25"/><line x1="222.65" x2="222.65" y1="235.38" y2="246.779" fill="none" stroke="#737e90" stroke-miterlimit="10" stroke-width="1.25"/><line x1="226.594" x2="226.594" y1="237.664" y2="243.721" fill="none" stroke="#737e90" stroke-miterlimit="10" stroke-width="1.25"/><line x1="230.537" x2="230.537" y1="235.38" y2="246.779" fill="none" stroke="#737e90" stroke-miterlimit="10" stroke-width="1.25"/><line x1="238.424" x2="238.424" y1="238.901" y2="243.721" fill="none" stroke="#737e90" stroke-miterlimit="10" stroke-width="1.25"/><line x1="234.48" x2="234.48" y1="236.584" y2="245.574" fill="none" stroke="#737e90" stroke-miterlimit="10" stroke-width="1.25"/><line x1="242.367" x2="242.367" y1="236.584" y2="245.574" fill="none" stroke="#737e90" stroke-miterlimit="10" stroke-width="1.25"/><line x1="246.31" x2="246.31" y1="235.38" y2="246.779" fill="none" stroke="#737e90" stroke-miterlimit="10" stroke-width="1.25"/><line x1="250.253" x2="250.253" y1="237.664" y2="243.721" fill="none" stroke="#737e90" stroke-miterlimit="10" stroke-width="1.25"/><line x1="254.197" x2="254.197" y1="235.38" y2="246.779" fill="none" stroke="#737e90" stroke-miterlimit="10" stroke-width="1.25"/><line x1="262.083" x2="262.083" y1="238.901" y2="243.721" fill="none" stroke="#737e90" stroke-miterlimit="10" stroke-width="1.25"/><line x1="258.14" x2="258.14" y1="236.584" y2="245.574" fill="none" stroke="#737e90" stroke-miterlimit="10" stroke-width="1.25"/></g><polygon fill="#434d72" points="260.662 363.245 22.745 363.245 45.947 253.461 260.662 253.461 260.662 363.245"/><rect width="64.534" height="29.708" x="161.282" y="333.536" fill="#2a3d58"/><rect width="37.317" height="97.791" x="141.108" y="265.454" fill="#173045"/><circle cx="146.947" cy="291.325" r="1.701" fill="#18ffff"/><circle cx="164.039" cy="291.325" r="1.701" fill="#18ffff"/><circle cx="172.585" cy="291.325" r="1.701" fill="#18ffff"/><circle cx="155.493" cy="291.325" r="1.701" fill="#18ffff"/><polyline fill="none" stroke="#737e90" stroke-miterlimit="10" stroke-width="1.25" points="145.385 281.572 153.279 281.572 158.449 285.336 173.823 285.336"/><line x1="145.385" x2="173.823" y1="276.714" y2="276.714" fill="none" stroke="#737e90" stroke-miterlimit="10" stroke-width="1.25"/><line x1="145.385" x2="173.823" y1="271.855" y2="271.855" fill="none" stroke="#737e90" stroke-miterlimit="10" stroke-width="1.25"/><circle cx="146.947" cy="320.723" r="1.701" fill="#18ffff"/><circle cx="164.039" cy="320.723" r="1.701" fill="#18ffff"/><circle cx="172.585" cy="320.723" r="1.701" fill="#18ffff"/><circle cx="155.493" cy="320.723" r="1.701" fill="#18ffff"/><polyline fill="none" stroke="#737e90" stroke-miterlimit="10" stroke-width="1.25" points="145.385 310.97 153.279 310.97 158.449 314.733 173.823 314.733"/><line x1="145.385" x2="173.823" y1="306.111" y2="306.111" fill="none" stroke="#737e90" stroke-miterlimit="10" stroke-width="1.25"/><line x1="145.385" x2="173.823" y1="301.253" y2="301.253" fill="none" stroke="#737e90" stroke-miterlimit="10" stroke-width="1.25"/><rect width="58.851" height="80.319" x=".705" y="282.926" fill="#434d72" transform="translate(60.261 646.17024) rotate(-180)"/><rect width="15.935" height="15.935" x="59.556" y="282.926" fill="#031e28" transform="translate(135.04639 581.78615) rotate(-180)"/><rect width="15.935" height="64.384" x="59.556" y="298.861" fill="#434d72" transform="translate(135.04639 662.10511) rotate(-180)"/><rect width="15.935" height="48.45" x="75.491" y="314.795" fill="#434d72" transform="translate(166.91612 678.04049) rotate(-180)"/><rect width="15.935" height="15.935" x="75.491" y="298.861" fill="#031e28" transform="translate(166.91612 613.65589) rotate(-180)"/><rect width="15.935" height="48.449" x="91.425" y="314.795" fill="#031e28" transform="translate(198.78584 678.03998) rotate(-180)"/><rect width="50.904" height="71.668" y="291.577" fill="#031e28" transform="translate(50.90439 654.82162) rotate(-180)"/><rect width="50.904" height="55.733" x="15.935" y="307.512" fill="#031e28" transform="translate(82.77411 670.75649) rotate(-180)"/><rect width="50.904" height="39.798" x="31.87" y="323.447" fill="#031e28" transform="translate(114.64383 686.69136) rotate(-180)"/></g><polygon fill="#1de9b6" points="62.034 134.47 99.123 134.47 99.123 126.595 62.65 126.595 62.034 134.47"/><rect width="36.472" height="118.991" x="70.525" y="134.47" fill="#fff" transform="translate(177.52231 387.93077) rotate(-180)"/><rect width="15.749" height="118.991" x="54.776" y="134.47" fill="#c3cbd8" transform="translate(125.30069 387.93077) rotate(-180)"/><polygon fill="#c3cbd8" points="70.525 134.47 62.65 126.595 54.776 134.47 70.525 134.47"/><polygon fill="#1de9b6" points="106.997 134.47 99.123 126.595 91.248 134.47 106.997 134.47"/><circle cx="88.761" cy="152.306" r="10.625" fill="#434d72"/><path fill="#2e3554" d="M94.22146,152.30634a10.62009,10.62009,0,0,0-8.04293-10.29613,10.62552,10.62552,0,1,1,0,20.59225A10.62009,10.62009,0,0,0,94.22146,152.30634Z"/><circle cx="88.761" cy="181.878" r="10.625" fill="#434d72"/><path fill="#2e3554" d="M94.22146,181.878a10.62009,10.62009,0,0,0-8.04293-10.29613,10.62552,10.62552,0,1,1,0,20.59225A10.62009,10.62009,0,0,0,94.22146,181.878Z"/><rect width="3.782" height="60.724" x="59.809" y="142.064" fill="#031e28"/></svg>