<svg version="1" xmlns="http://www.w3.org/2000/svg" width="1668" height="1668" viewBox="0 0 1251.000000 1251.000000"><path d="M612.7 11.6c-.1.1-7.2.5-15.7.8-8.5.4-17.3.8-19.5 1.1-8.7.9-17.2 1.7-21 2-3.9.3-18.1 2.2-22.1 2.9-1 .2-3.9.7-6.4 1-6.1.8-17 2.8-23 4.1-1.4.3-3.8.8-5.5 1-1.6.3-3.8.8-4.7 1.1-1.7.5-4.3 1.1-8.8 2-5.7 1.2-26.1 6.5-34 8.9-4.7 1.5-9.2 2.8-10 3-7.4 1.7-40.9 14.2-60.5 22.5-11.4 4.8-49.3 23.6-55.4 27.4-2.2 1.4-4.3 2.6-4.5 2.6-1.6 0-33.4 20.2-47.6 30.1-30.8 21.7-54.9 41.9-82.5 69.4-48.8 48.6-87.5 102.8-118 165.2-4.1 8.3-8.6 18-10.1 21.5-1.4 3.4-3.4 8.1-4.4 10.3-5.4 11.9-18.3 48-22.1 61.5-1.7 6-1.7 6.2-2.3 8.5-.3 1.1-1.4 5.1-2.6 9-1.1 3.8-2.3 8.3-2.5 9.8-.3 1.5-1.2 5.6-2.1 9-.8 3.4-1.7 7.3-2 8.7-.2 1.4-1.1 5.6-1.9 9.5-.8 3.8-1.7 8.6-2 10.5-.3 1.9-.8 4.2-1 5-.2.8-.6 3.5-.9 6-.4 2.5-.8 5.6-1 7-.9 5.2-2.7 18.1-3.1 21.7-.2 2.1-.6 6.9-1 10.8-.3 3.8-.8 8.3-1 10-2.3 18.1-2.3 78.3 0 99.5.2 1.9.6 6.9 1 11s.8 8.6 1 10c.3 1.4.7 5 1 8 .3 3 .7 6.2.9 7 .3.8.7 3.7 1.1 6.5 1 8.4 3.5 22.4 6.2 34.5 1.3 6.3 2.7 12.5 2.9 13.6.2 1.2 1.5 6.6 3 12 25.2 97.7 71.7 184.2 139.3 259.4 9.9 11 35.7 36.7 45.2 45 4 3.6 7.6 6.8 7.9 7.1.4.5 15.8 13.3 22.5 18.8 6 4.8 29.6 21.8 40 28.8 30.6 20.3 64.1 38.6 95 51.7 6.1 2.6 11.9 5.1 13 5.6 12.3 5.7 56.3 20.4 73 24.6.6.1 6.4 1.6 13 3.2 11.1 2.8 33.4 7.4 41.5 8.7 1.9.3 4.6.7 6 1 3.7.7 7.8 1.3 13.9 2 3 .4 6.2.8 7.1 1 .9.2 5.3.6 9.6 1s8.7.9 9.8 1.1c1.9.4 16.6 1.5 25.6 1.9 8.3.5 60 .5 64 .1 1.9-.2 8.4-.7 14.5-1.1 6-.4 11.6-.8 12.5-1 .8-.1 5.1-.6 9.4-1 4.3-.4 8.6-.8 9.5-1 .9-.1 3.9-.6 6.6-.9 2.8-.4 7.5-1.1 10.5-1.6s7.3-1.2 9.4-1.5c11.9-1.7 44.1-9 64.1-14.5 7.4-2 33.9-10.7 44.5-14.5 6.5-2.4 17.2-6.5 19.5-7.5 1.1-.5 6.1-2.7 11-4.9 30.2-13.1 65.1-31.4 84-44.1 2.2-1.5 8.7-5.8 14.5-9.6 9.2-6.1 42.7-30.6 44-32.3.3-.3 4.1-3.5 8.5-7.1 4.4-3.5 8.7-7.1 9.5-8 .8-.8 3.5-3.2 6-5.4 6-5.1 28.6-27.3 38-37.2 17.2-18.2 36.5-41.7 51.6-62.9 11.8-16.5 14.1-20.1 27.1-41.1 15-24.2 33.6-62.1 45.9-93.5 11.1-28.6 23.9-71.4 27.8-93.4.3-1.7 1-4.5 1.5-6.3.5-1.8 1-3.5 1-3.7-.1-.5 1-7.4 1.7-11 1.1-5.5 2.4-13.5 2.9-17.5.3-2.5.8-5.6 1-7 1-6.3 1.4-10.4 3-26.5 2.7-26.6 2.7-98.2 0-114.6-.2-1.3-.6-5.3-1-8.9-.4-3.6-.8-7.6-1-9-.2-1.4-.6-4.8-.9-7.6-.4-2.8-.8-6-1-7.1-.3-1.2-.8-4.3-1.2-7-.3-2.6-.8-5.7-1-6.8-.3-1.1-.7-3.6-1-5.5-.9-5.4-4.3-21.6-6.5-31-1.2-4.7-2.3-9.4-2.5-10.6-.2-1.1-2.2-8.3-4.3-16-19.8-69.9-52-135.9-95-194.9-5.7-7.8-24.6-32-27.6-35.1-.5-.6-3.5-4-6.5-7.4-29.5-33.9-66.6-67.5-103.5-94-4.9-3.6-9.1-6.8-9.3-7.3-.2-.4-.7-.7-1.2-.7-.4 0-5.4-3.1-11.1-6.9-9.9-6.5-26.7-16.8-35.4-21.6-12.5-6.9-16-8.8-26-13.8C867.2 60.1 833.1 46.6 800 37c-4.1-1.2-8.6-2.6-10-3.1-3.5-1.2-29.9-7.6-34.5-8.3-2-.4-4-.8-4.4-1-.3-.3-2.6-.7-5.1-1.1-2.5-.4-4.7-.8-5-1-.3-.1-2.5-.6-5-.9-2.5-.3-5.6-.8-7-1.1-1.3-.2-4.2-.7-6.5-1-2.2-.3-4.7-.8-5.5-1-.8-.2-4-.7-7-1-3-.3-6.6-.8-8-1-1.4-.3-5-.7-8-1-3-.3-7.7-.7-10.5-1-10.9-1.2-15.1-1.4-29.8-2.1-13.9-.6-40.6-1.1-41-.8zm212.8 267.8c3.3.9 10.3 3.7 15.5 6.3 9.5 4.6 9.6 4.7 40.8 36.2C928.6 369 1014.6 456.2 1017 459c5.4 6.2 12.9 21.4 14.6 29.5 1.6 7.4 1.8 10.1 1.7 19-.4 26.6-15 52.3-35 61.8-6.2 2.9-7.6 3.2-16.8 3.2-9.4 0-10.5-.2-16.8-3.3-5.5-2.7-9.4-6-20.5-17.2-61-61.6-76.2-76.5-81.6-80.4-33.5-23.8-78.4-24-114.1-.3-3.7 2.4-24 22-52.5 50.7-50 50.3-50.6 50.8-63.4 53.4-9.7 2-21.5.1-29.9-5-2.5-1.5-23.5-22.1-46.9-45.7-25.4-25.8-45.5-45.4-50.2-48.9-12.2-9.1-27-15.4-42.4-17.9-6.4-1-26.5-1.4-28-.5-.4.2-2.9.7-5.7 1.1-6.2.8-16.1 3.9-24.3 7.7-14.7 6.6-18.9 10.4-67.2 58.9-43.8 44.1-46.9 47-53.5 50.1-5.5 2.5-8.6 3.3-15.1 3.6-19.6 1-33.9-8.8-44.5-30.5-4.3-8.7-4.4-9.1-6.4-19.7-1.2-6.8-1.3-21.1 0-27.1 1-5 4.6-15.7 6.8-20 5.9-11.9 11.6-17.8 134.2-141l47-47.2 9.5-4.6c8.4-4 12.9-5.5 22-7.4 5.4-1.2 21.7-.5 28.5 1.2 9.4 2.3 20.3 7.6 27.1 13.1 5.2 4.3 20.1 19.1 101 101.2l31.9 32.3 59.5-60.2c32.7-33.1 62-62.7 65-65.7 14.5-14.6 29.5-22.9 45-24.9 2.5-.3 4.7-.7 4.8-.8 1-.9 19.5.6 24.7 1.9zM451.2 698c2.4.6 6.8 2.3 9.8 3.8 5.7 2.7 4.3 1.4 73.4 71 12.7 12.9 25.8 25.5 29.1 28.1 25.1 19.9 57.8 26.5 90 18.1 10.1-2.6 26-10.4 34.5-16.8 3.6-2.8 26.5-25.2 51-50 24.5-24.7 46.7-46.4 49.3-48.2 16.4-11 38.7-8.7 53.1 5.4 19.8 19.5 27.6 48.2 20.6 76.1-2.8 11.1-9.9 24-18.2 33-18.2 19.8-169.1 171.2-173.6 174.1-8.5 5.6-11.6 7.2-19.2 9.7-24.3 8.2-50.3 4.1-70.5-11.3-6.2-4.7-4.5-3-75.5-75-32.2-32.6-67.2-68.1-77.9-78.9-10.7-10.8-21.4-22.3-23.9-25.6-9.9-13.4-15-30.2-14.7-48 .2-6.4 1-13.7 2-17.5 4.7-17.9 18.1-37.4 30-43.8 9.1-4.8 21.6-6.5 30.7-4.2z"/></svg>