<?xml version="1.0" encoding="UTF-8"?>
<svg width="93px" height="24px" viewBox="0 0 93 24" version="1.1" xmlns="http://www.w3.org/2000/svg" xmlns:xlink="http://www.w3.org/1999/xlink">
    <!-- Generator: Sketch 53.1 (72631) - https://sketchapp.com -->
    <title>ledgernotconnected</title>
    <desc>Created with Sketch.</desc>
    <defs>
        <linearGradient x1="44.9130634%" y1="19.4168602%" x2="79.5731749%" y2="69.9935121%" id="linearGradient-1">
            <stop stop-color="#383C42" offset="0%"></stop>
            <stop stop-color="#2D3036" offset="100%"></stop>
        </linearGradient>
    </defs>
    <g id="ledgernotconnected" stroke="none" stroke-width="1" fill="none" fill-rule="evenodd">
        <g id="Ledger" opacity="0.897623698" transform="translate(0.000000, 0.000000)">
            <g id="Group-8">
                <rect id="Rectangle" fill="url(#linearGradient-1)" x="0" y="0" width="37.8857143" height="23.9571429" rx="5.57142857"></rect>
                <g id="Group-2" transform="translate(9.991597, 5.267821)">
                    <g id="Group-5" transform="translate(-0.000000, 0.357138)">
                        <g id="Group-6" transform="translate(0.124323, 0.383705)">
                            <path d="M1.46270665,4.3785873 L14.2769924,4.3785873 C15.8154999,4.3785873 17.0627067,5.62579406 17.0627067,7.16430158 L17.0627067,7.16430158 C17.0627067,8.7028091 15.8154999,9.95001587 14.2769924,9.95001587 L1.46270665,9.95001587 C0.847303644,9.95001587 0.348420937,9.45113316 0.348420937,8.83573015 L0.348420937,5.49287301 C0.348420937,4.87747 0.847303644,4.3785873 1.46270665,4.3785873 Z" id="Rectangle" stroke="#FFFFFF" stroke-width="0.835714286"></path>
                            <path d="M2.31618066,2.58426988 L13.3690428,2.43213823 C13.3954862,2.43177426 13.4172179,2.45291582 13.4175818,2.47935921 C13.417909,2.50313129 13.4007452,2.52354358 13.3772697,2.52730096 L12.8424479,2.61290186 C12.7650272,2.62529342 12.6891307,2.64582179 12.6160194,2.67414586 L1.20766343,7.09386217 L1.21723495,3.69531185 C1.21894785,3.08711359 1.70803759,2.59264037 2.31618066,2.58426988 Z" id="Rectangle-Copy-9" fill="#FFFFFF" transform="translate(7.618105, 4.758461) rotate(20.000000) translate(-7.618105, -4.758461) "></path>
                        </g>
                        <circle id="Oval" stroke="#FFFFFF" stroke-width="0.835714286" cx="14.4506355" cy="7.50542761" r="1.11428571"></circle>
                    </g>
                </g>
            </g>
        </g>
        <path d="M55.4089714,8.7936 C54.0439714,8.7936 53.4589714,8.232 53.4589714,6.9372 L53.4589714,3.396 L54.4105714,3.396 L54.4105714,6.9138 C54.4105714,7.6782 54.6835714,7.959 55.4245714,7.959 C56.1655714,7.959 56.4385714,7.6782 56.4385714,6.9138 L56.4385714,3.396 L57.3589714,3.396 L57.3589714,6.9372 C57.3589714,8.232 56.7817714,8.7936 55.4089714,8.7936 Z M59.8393714,8.7936 C58.6927714,8.7936 58.1467714,8.3568 58.1467714,7.4832 L59.0359714,7.4832 C59.0359714,7.881 59.2933714,8.076 59.8393714,8.076 C60.3385714,8.076 60.5803714,7.9122 60.5803714,7.6002 C60.5803714,7.2648 60.3385714,7.1244 59.6521714,7.0386 C58.6225714,6.9138 58.2247714,6.5862 58.2247714,5.8374 C58.2247714,5.0028 58.8019714,4.5582 59.8393714,4.5582 C60.8767714,4.5582 61.4149714,4.995 61.4149714,5.8296 L60.5179714,5.8296 C60.5179714,5.4552 60.2995714,5.2758 59.8315714,5.2758 C59.3869714,5.2758 59.1451714,5.4474 59.1451714,5.736 C59.1451714,6.0558 59.3869714,6.1884 60.0499714,6.2586 C61.1029714,6.3756 61.5007714,6.7422 61.5007714,7.5144 C61.5007714,8.3646 60.9469714,8.7936 59.8393714,8.7936 Z M63.9889714,8.7936 C62.8111714,8.7936 62.1871714,8.2008 62.1871714,7.0698 L62.1871714,6.2742 C62.1871714,5.1588 62.8033714,4.5582 63.9421714,4.5582 C65.0965714,4.5582 65.7049714,5.1666 65.7049714,6.282 L65.7049714,6.9528 L63.1231714,6.9528 L63.1231714,7.0776 C63.1231714,7.7328 63.3883714,8.037 63.9889714,8.037 C64.4803714,8.037 64.7533714,7.8264 64.7845714,7.4754 L65.6815714,7.4754 C65.6347714,8.3412 65.0341714,8.7936 63.9889714,8.7936 Z M63.1231714,6.2586 L64.8157714,6.2586 C64.8157714,5.6034 64.5583714,5.3148 63.9733714,5.3148 C63.3805714,5.3148 63.1231714,5.6034 63.1231714,6.2586 Z M68.6923714,8.7 L68.6923714,3.396 L69.6439714,3.396 L69.6439714,7.8498 L72.0307714,7.8498 L72.0307714,8.7 L68.6923714,8.7 Z M74.2849714,8.7936 C73.1071714,8.7936 72.4831714,8.2008 72.4831714,7.0698 L72.4831714,6.2742 C72.4831714,5.1588 73.0993714,4.5582 74.2381714,4.5582 C75.3925714,4.5582 76.0009714,5.1666 76.0009714,6.282 L76.0009714,6.9528 L73.4191714,6.9528 L73.4191714,7.0776 C73.4191714,7.7328 73.6843714,8.037 74.2849714,8.037 C74.7763714,8.037 75.0493714,7.8264 75.0805714,7.4754 L75.9775714,7.4754 C75.9307714,8.3412 75.3301714,8.7936 74.2849714,8.7936 Z M73.4191714,6.2586 L75.1117714,6.2586 C75.1117714,5.6034 74.8543714,5.3148 74.2693714,5.3148 C73.6765714,5.3148 73.4191714,5.6034 73.4191714,6.2586 Z M78.2473714,8.7936 C77.3113714,8.7936 76.7809714,8.2242 76.7809714,7.1244 L76.7809714,6.2352 C76.7809714,5.1354 77.3113714,4.5582 78.2473714,4.5582 C78.7309714,4.5582 79.0975714,4.7142 79.4017714,5.073 L79.4017714,3.006 L80.3377714,3.006 L80.3377714,8.7 L79.5421714,8.7 L79.5109714,8.1384 C79.1911714,8.5908 78.7933714,8.7936 78.2473714,8.7936 Z M78.4345714,8.0136 C78.8635714,8.0136 79.1911714,7.7484 79.4017714,7.257 L79.4017714,6.0948 C79.1911714,5.6034 78.8635714,5.3382 78.4267714,5.3382 C77.9743714,5.3382 77.7169714,5.6268 77.7169714,6.243 L77.7169714,7.1088 C77.7169714,7.7172 77.9743714,8.0136 78.4345714,8.0136 Z M83.0677714,10.2132 C82.0147714,10.2132 81.4297714,9.8076 81.3829714,8.9184 L82.2565714,8.9184 C82.2955714,9.3006 82.5763714,9.4566 83.0521714,9.4566 C83.6605714,9.4566 83.9257714,9.207 83.9257714,8.5986 L83.9257714,8.0448 C83.6215714,8.3958 83.2549714,8.5518 82.7713714,8.5518 C81.8353714,8.5518 81.3049714,7.9746 81.3049714,6.8748 L81.3049714,6.2274 C81.3049714,5.1276 81.8353714,4.5582 82.7713714,4.5582 C83.3173714,4.5582 83.7151714,4.761 84.0349714,5.2056 L84.0661714,4.6518 L84.8617714,4.6518 L84.8617714,8.5986 C84.8617714,9.6984 84.2689714,10.2132 83.0677714,10.2132 Z M82.9507714,7.7718 C83.3875714,7.7718 83.7151714,7.5066 83.9257714,7.0152 L83.9257714,6.087 C83.7151714,5.6034 83.3875714,5.3382 82.9585714,5.3382 C82.4983714,5.3382 82.2409714,5.6346 82.2409714,6.243 L82.2409714,6.867 C82.2409714,7.4832 82.4983714,7.7718 82.9507714,7.7718 Z M87.6307714,8.7936 C86.4529714,8.7936 85.8289714,8.2008 85.8289714,7.0698 L85.8289714,6.2742 C85.8289714,5.1588 86.4451714,4.5582 87.5839714,4.5582 C88.7383714,4.5582 89.3467714,5.1666 89.3467714,6.282 L89.3467714,6.9528 L86.7649714,6.9528 L86.7649714,7.0776 C86.7649714,7.7328 87.0301714,8.037 87.6307714,8.037 C88.1221714,8.037 88.3951714,7.8264 88.4263714,7.4754 L89.3233714,7.4754 C89.2765714,8.3412 88.6759714,8.7936 87.6307714,8.7936 Z M86.7649714,6.2586 L88.4575714,6.2586 C88.4575714,5.6034 88.2001714,5.3148 87.6151714,5.3148 C87.0223714,5.3148 86.7649714,5.6034 86.7649714,6.2586 Z M90.2983714,8.7 L90.2983714,4.6518 L91.0939714,4.6518 L91.1329714,5.3928 C91.3123714,4.8312 91.6555714,4.5738 92.2249714,4.5738 L92.5135714,4.5738 L92.5135714,5.463 L92.3029714,5.463 C91.6789714,5.463 91.3591714,5.7282 91.2343714,6.3756 L91.2343714,8.7 L90.2983714,8.7 Z" id="UseLedger" fill="#FFFFFF" fill-rule="nonzero"></path>
        <path d="M53.6461714,19.7 L53.6461714,14.396 L54.4807714,14.396 L56.9221714,18.4286 L56.9221714,14.396 L57.6007714,14.396 L57.6007714,19.7 L56.9143714,19.7 L54.3247714,15.4256 L54.3247714,19.7 L53.6461714,19.7 Z M60.5023714,19.7936 C59.3635714,19.7936 58.7629714,19.1852 58.7629714,18.0152 L58.7629714,17.36 C58.7629714,16.19 59.3635714,15.5816 60.5023714,15.5816 C61.6411714,15.5816 62.2417714,16.19 62.2417714,17.36 L62.2417714,18.0152 C62.2417714,19.1852 61.6411714,19.7936 60.5023714,19.7936 Z M60.5023714,19.193 C61.2121714,19.193 61.5553714,18.803 61.5553714,17.9918 L61.5553714,17.3756 C61.5553714,16.5644 61.2121714,16.1822 60.5023714,16.1822 C59.7925714,16.1822 59.4493714,16.5644 59.4493714,17.3756 L59.4493714,17.9918 C59.4493714,18.803 59.7925714,19.193 60.5023714,19.193 Z M66.6955714,19.7936 C65.5879714,19.7936 65.0419714,19.3646 65.0419714,18.5144 L65.6971714,18.5144 C65.6971714,18.9746 66.0247714,19.2086 66.6955714,19.2086 C67.3195714,19.2086 67.6315714,18.998 67.6315714,18.6158 C67.6315714,18.218 67.3585714,18.0464 66.5785714,17.9528 C65.5255714,17.828 65.1355714,17.516 65.1355714,16.7984 C65.1355714,16.0184 65.6893714,15.5816 66.6877714,15.5816 C67.6861714,15.5816 68.2165714,16.0106 68.2165714,16.8218 L67.5457714,16.8218 C67.5457714,16.3928 67.2571714,16.1666 66.6799714,16.1666 C66.1183714,16.1666 65.8063714,16.3772 65.8063714,16.7438 C65.8063714,17.1104 66.0793714,17.2586 66.8203714,17.3366 C67.8967714,17.4536 68.3023714,17.7968 68.3023714,18.5612 C68.3023714,19.3724 67.7563714,19.7936 66.6955714,19.7936 Z M69.2383714,14.9498 L69.2383714,14.1854 L69.9871714,14.1854 L69.9871714,14.9498 L69.2383714,14.9498 Z M69.2695714,19.7 L69.2695714,15.6752 L69.9559714,15.6752 L69.9559714,19.7 L69.2695714,19.7 Z M72.7717714,21.2132 C71.7499714,21.2132 71.1883714,20.792 71.1337714,19.9652 L71.7733714,19.9652 C71.8123714,20.4332 72.1945714,20.6204 72.7561714,20.6204 C73.4737714,20.6204 73.8013714,20.3162 73.8013714,19.6142 L73.8013714,18.9512 C73.4737714,19.3724 73.0681714,19.5674 72.5299714,19.5674 C71.5939714,19.5674 71.0479714,18.9902 71.0479714,17.8904 L71.0479714,17.2586 C71.0479714,16.1588 71.5939714,15.5816 72.5299714,15.5816 C73.1071714,15.5816 73.5361714,15.8078 73.8715714,16.2992 L73.9027714,15.6752 L74.4877714,15.6752 L74.4877714,19.6142 C74.4877714,20.6828 73.9183714,21.2132 72.7717714,21.2132 Z M72.6157714,18.9668 C73.1227714,18.9668 73.5361714,18.6392 73.8013714,18.0698 L73.8013714,17.0792 C73.5361714,16.5098 73.1227714,16.1822 72.6157714,16.1822 C72.0619714,16.1822 71.7343714,16.5644 71.7343714,17.282 L71.7343714,17.867 C71.7343714,18.5846 72.0619714,18.9668 72.6157714,18.9668 Z M75.7825714,19.7 L75.7825714,15.6752 L76.3675714,15.6752 L76.3909714,16.307 C76.7419714,15.8078 77.1709714,15.5816 77.7325714,15.5816 C78.5749714,15.5816 78.9961714,16.0886 78.9961714,17.0558 L78.9961714,19.7 L78.3097714,19.7 L78.3097714,17.1182 C78.3097714,16.4864 78.0757714,16.2134 77.5999714,16.2134 C77.1241714,16.2134 76.7575714,16.4942 76.4689714,17.087 L76.4689714,19.7 L75.7825714,19.7 Z M81.2659714,19.7936 C80.4391714,19.7936 79.9243714,19.349 79.9243714,18.5612 C79.9243714,17.7578 80.4547714,17.3054 81.5857714,17.3054 L82.5529714,17.3054 L82.5529714,17.087 C82.5529714,16.463 82.2643714,16.1744 81.6403714,16.1744 C81.0709714,16.1744 80.7355714,16.4084 80.7121714,16.8998 L80.0413714,16.8998 C80.1115714,16.0262 80.6575714,15.5816 81.6637714,15.5816 C82.7245714,15.5816 83.2393714,16.073 83.2393714,17.0714 L83.2393714,19.7 L82.6543714,19.7 L82.6309714,19.154 C82.3033714,19.5674 81.8509714,19.7936 81.2659714,19.7936 Z M81.3673714,19.2008 C81.9055714,19.2008 82.3111714,18.9356 82.5529714,18.4442 L82.5529714,17.8748 L81.6091714,17.8748 C80.9071714,17.8748 80.6107714,18.0932 80.6107714,18.5456 C80.6107714,18.9668 80.8603714,19.2008 81.3673714,19.2008 Z M84.4483714,19.7 L84.4483714,14.006 L85.1347714,14.006 L85.1347714,19.7 L84.4483714,19.7 Z" id="Nosignal" fill="#B2B4C3" fill-rule="nonzero"></path>
    </g>
</svg>