<?xml version="1.0" encoding="UTF-8"?>
<svg width="163px" height="137px" viewBox="0 0 163 137" version="1.1" xmlns="http://www.w3.org/2000/svg" xmlns:xlink="http://www.w3.org/1999/xlink">
    <!-- Generator: Sketch 53.1 (72631) - https://sketchapp.com -->
    <title>ledgerconnected</title>
    <desc>Created with Sketch.</desc>
    <defs>
        <linearGradient x1="125.940074%" y1="1.28523292%" x2="0%" y2="74.9148729%" id="linearGradient-1">
            <stop stop-color="#F4D2AE" offset="0%"></stop>
            <stop stop-color="#E5A776" offset="100%"></stop>
        </linearGradient>
        <rect id="path-2" x="0" y="0" width="37.8857143" height="23.9571429" rx="5.57142857"></rect>
        <filter x="-14.5%" y="-14.6%" width="129.0%" height="145.9%" filterUnits="objectBoundingBox" id="filter-3">
            <feMorphology radius="0.5" operator="erode" in="SourceAlpha" result="shadowSpreadOuter1"></feMorphology>
            <feOffset dx="0" dy="2" in="shadowSpreadOuter1" result="shadowOffsetOuter1"></feOffset>
            <feGaussianBlur stdDeviation="2" in="shadowOffsetOuter1" result="shadowBlurOuter1"></feGaussianBlur>
            <feColorMatrix values="0 0 0 0 0.0971502686   0 0 0 0 0.0899663813   0 0 0 0 0.160778986  0 0 0 0.658189467 0" type="matrix" in="shadowBlurOuter1"></feColorMatrix>
        </filter>
    </defs>
    <g id="ledgerconnected" stroke="none" stroke-width="1" fill="none" fill-rule="evenodd">
        <g id="Ledger">
            <g opacity="0.928780692">
                <rect id="Rectangle" fill="#56575C" x="13.3714286" y="24.5142857" width="20.6142857" height="66.8571429"></rect>
                <polyline id="Path-10" stroke="#FFFFFF" stroke-width="1.11428571" stroke-linecap="round" points="19.5897547 58.8095414 23.1858408 61.2857143 28.5040404 54.6"></polyline>
                <circle id="Oval" stroke="#787981" stroke-width="1.11428571" cx="23.4" cy="130.928571" r="11.7"></circle>
                <rect id="Rectangle" stroke="#787981" stroke-width="1.11428571" x="0.557142857" y="106.971429" width="46.2428571" height="73.5428571" rx="23.1214286"></rect>
                <rect id="Rectangle" stroke="#787981" stroke-width="1.11428571" x="0.557142857" y="0.557142857" width="46.2428571" height="177.171429"></rect>
                <rect id="Rectangle" fill="#787981" x="47.3571429" y="79.1142857" width="1.11428571" height="18.9428571"></rect>
                <rect id="Rectangle-Copy" fill="#787981" x="47.3571429" y="17.8285714" width="1.11428571" height="18.9428571"></rect>
            </g>
            <g opacity="0.897623698" transform="translate(69.642857, 89.142857)" id="Group-8">
                <g>
                    <g id="Rectangle">
                        <use fill="black" fill-opacity="1" filter="url(#filter-3)" xlink:href="#path-2"></use>
                        <use fill="url(#linearGradient-1)" fill-rule="evenodd" xlink:href="#path-2"></use>
                    </g>
                    <g id="Group-2" transform="translate(9.991597, 5.267821)">
                        <g id="Group-5" transform="translate(-0.000000, 0.357138)">
                            <g id="Group-6" transform="translate(0.124323, 0.383705)">
                                <path d="M1.46270665,4.3785873 L14.2769924,4.3785873 C15.8154999,4.3785873 17.0627067,5.62579406 17.0627067,7.16430158 L17.0627067,7.16430158 C17.0627067,8.7028091 15.8154999,9.95001587 14.2769924,9.95001587 L1.46270665,9.95001587 C0.847303644,9.95001587 0.348420937,9.45113316 0.348420937,8.83573015 L0.348420937,5.49287301 C0.348420937,4.87747 0.847303644,4.3785873 1.46270665,4.3785873 Z" id="Rectangle" stroke="#FFFFFF" stroke-width="0.835714286"></path>
                                <path d="M2.31618066,2.58426988 L13.3690428,2.43213823 C13.3954862,2.43177426 13.4172179,2.45291582 13.4175818,2.47935921 C13.417909,2.50313129 13.4007452,2.52354358 13.3772697,2.52730096 L12.8424479,2.61290186 C12.7650272,2.62529342 12.6891307,2.64582179 12.6160194,2.67414586 L1.20766343,7.09386217 L1.21723495,3.69531185 C1.21894785,3.08711359 1.70803759,2.59264037 2.31618066,2.58426988 Z" id="Rectangle-Copy-9" fill="#FFFFFF" transform="translate(7.618105, 4.758461) rotate(20.000000) translate(-7.618105, -4.758461) "></path>
                            </g>
                            <circle id="Oval" stroke="#FFFFFF" stroke-width="0.835714286" cx="14.4506355" cy="7.50542761" r="1.11428571"></circle>
                        </g>
                    </g>
                </g>
            </g>
            <path d="M125.051829,102.950743 C123.686829,102.950743 123.101829,102.389143 123.101829,101.094343 L123.101829,97.5531429 L124.053429,97.5531429 L124.053429,101.070943 C124.053429,101.835343 124.326429,102.116143 125.067429,102.116143 C125.808429,102.116143 126.081429,101.835343 126.081429,101.070943 L126.081429,97.5531429 L127.001829,97.5531429 L127.001829,101.094343 C127.001829,102.389143 126.424629,102.950743 125.051829,102.950743 Z M129.482229,102.950743 C128.335629,102.950743 127.789629,102.513943 127.789629,101.640343 L128.678829,101.640343 C128.678829,102.038143 128.936229,102.233143 129.482229,102.233143 C129.981429,102.233143 130.223229,102.069343 130.223229,101.757343 C130.223229,101.421943 129.981429,101.281543 129.295029,101.195743 C128.265429,101.070943 127.867629,100.743343 127.867629,99.9945429 C127.867629,99.1599429 128.444829,98.7153429 129.482229,98.7153429 C130.519629,98.7153429 131.057829,99.1521429 131.057829,99.9867429 L130.160829,99.9867429 C130.160829,99.6123429 129.942429,99.4329429 129.474429,99.4329429 C129.029829,99.4329429 128.788029,99.6045429 128.788029,99.8931429 C128.788029,100.212943 129.029829,100.345543 129.692829,100.415743 C130.745829,100.532743 131.143629,100.899343 131.143629,101.671543 C131.143629,102.521743 130.589829,102.950743 129.482229,102.950743 Z M133.631829,102.950743 C132.454029,102.950743 131.830029,102.357943 131.830029,101.226943 L131.830029,100.431343 C131.830029,99.3159429 132.446229,98.7153429 133.585029,98.7153429 C134.739429,98.7153429 135.347829,99.3237429 135.347829,100.439143 L135.347829,101.109943 L132.766029,101.109943 L132.766029,101.234743 C132.766029,101.889943 133.031229,102.194143 133.631829,102.194143 C134.123229,102.194143 134.396229,101.983543 134.427429,101.632543 L135.324429,101.632543 C135.277629,102.498343 134.677029,102.950743 133.631829,102.950743 Z M132.766029,100.415743 L134.458629,100.415743 C134.458629,99.7605429 134.201229,99.4719429 133.616229,99.4719429 C133.023429,99.4719429 132.766029,99.7605429 132.766029,100.415743 Z M138.335229,102.857143 L138.335229,97.5531429 L139.286829,97.5531429 L139.286829,102.006943 L141.673629,102.006943 L141.673629,102.857143 L138.335229,102.857143 Z M143.927829,102.950743 C142.750029,102.950743 142.126029,102.357943 142.126029,101.226943 L142.126029,100.431343 C142.126029,99.3159429 142.742229,98.7153429 143.881029,98.7153429 C145.035429,98.7153429 145.643829,99.3237429 145.643829,100.439143 L145.643829,101.109943 L143.062029,101.109943 L143.062029,101.234743 C143.062029,101.889943 143.327229,102.194143 143.927829,102.194143 C144.419229,102.194143 144.692229,101.983543 144.723429,101.632543 L145.620429,101.632543 C145.573629,102.498343 144.973029,102.950743 143.927829,102.950743 Z M143.062029,100.415743 L144.754629,100.415743 C144.754629,99.7605429 144.497229,99.4719429 143.912229,99.4719429 C143.319429,99.4719429 143.062029,99.7605429 143.062029,100.415743 Z M147.890229,102.950743 C146.954229,102.950743 146.423829,102.381343 146.423829,101.281543 L146.423829,100.392343 C146.423829,99.2925429 146.954229,98.7153429 147.890229,98.7153429 C148.373829,98.7153429 148.740429,98.8713429 149.044629,99.2301429 L149.044629,97.1631429 L149.980629,97.1631429 L149.980629,102.857143 L149.185029,102.857143 L149.153829,102.295543 C148.834029,102.747943 148.436229,102.950743 147.890229,102.950743 Z M148.077429,102.170743 C148.506429,102.170743 148.834029,101.905543 149.044629,101.414143 L149.044629,100.251943 C148.834029,99.7605429 148.506429,99.4953429 148.069629,99.4953429 C147.617229,99.4953429 147.359829,99.7839429 147.359829,100.400143 L147.359829,101.265943 C147.359829,101.874343 147.617229,102.170743 148.077429,102.170743 Z M152.710629,104.370343 C151.657629,104.370343 151.072629,103.964743 151.025829,103.075543 L151.899429,103.075543 C151.938429,103.457743 152.219229,103.613743 152.695029,103.613743 C153.303429,103.613743 153.568629,103.364143 153.568629,102.755743 L153.568629,102.201943 C153.264429,102.552943 152.897829,102.708943 152.414229,102.708943 C151.478229,102.708943 150.947829,102.131743 150.947829,101.031943 L150.947829,100.384543 C150.947829,99.2847429 151.478229,98.7153429 152.414229,98.7153429 C152.960229,98.7153429 153.358029,98.9181429 153.677829,99.3627429 L153.709029,98.8089429 L154.504629,98.8089429 L154.504629,102.755743 C154.504629,103.855543 153.911829,104.370343 152.710629,104.370343 Z M152.593629,101.928943 C153.030429,101.928943 153.358029,101.663743 153.568629,101.172343 L153.568629,100.244143 C153.358029,99.7605429 153.030429,99.4953429 152.601429,99.4953429 C152.141229,99.4953429 151.883829,99.7917429 151.883829,100.400143 L151.883829,101.024143 C151.883829,101.640343 152.141229,101.928943 152.593629,101.928943 Z M157.273629,102.950743 C156.095829,102.950743 155.471829,102.357943 155.471829,101.226943 L155.471829,100.431343 C155.471829,99.3159429 156.088029,98.7153429 157.226829,98.7153429 C158.381229,98.7153429 158.989629,99.3237429 158.989629,100.439143 L158.989629,101.109943 L156.407829,101.109943 L156.407829,101.234743 C156.407829,101.889943 156.673029,102.194143 157.273629,102.194143 C157.765029,102.194143 158.038029,101.983543 158.069229,101.632543 L158.966229,101.632543 C158.919429,102.498343 158.318829,102.950743 157.273629,102.950743 Z M156.407829,100.415743 L158.100429,100.415743 C158.100429,99.7605429 157.843029,99.4719429 157.258029,99.4719429 C156.665229,99.4719429 156.407829,99.7605429 156.407829,100.415743 Z M159.941229,102.857143 L159.941229,98.8089429 L160.736829,98.8089429 L160.775829,99.5499429 C160.955229,98.9883429 161.298429,98.7309429 161.867829,98.7309429 L162.156429,98.7309429 L162.156429,99.6201429 L161.945829,99.6201429 C161.321829,99.6201429 161.002029,99.8853429 160.877229,100.532743 L160.877229,102.857143 L159.941229,102.857143 Z" id="UseLedger" fill="#FFFFFF" fill-rule="nonzero"></path>
            <g id="Ledger-CONNECTED" transform="translate(67.795371, 10.549714)" fill-rule="nonzero">
                <path d="M7.07125714,6.50742857 L7.07125714,0.445714286 L8.1588,0.445714286 L8.1588,5.53577143 L10.8865714,5.53577143 L10.8865714,6.50742857 L7.07125714,6.50742857 Z M13.4628,6.6144 C12.1167429,6.6144 11.4036,5.93691429 11.4036,4.64434286 L11.4036,3.73508571 C11.4036,2.46034286 12.1078286,1.77394286 13.4093143,1.77394286 C14.7286286,1.77394286 15.4239429,2.46925714 15.4239429,3.744 L15.4239429,4.51062857 L12.4733143,4.51062857 L12.4733143,4.65325714 C12.4733143,5.40205714 12.7764,5.74971429 13.4628,5.74971429 C14.0244,5.74971429 14.3364,5.50902857 14.3720571,5.10788571 L15.3972,5.10788571 C15.3437143,6.09737143 14.6573143,6.6144 13.4628,6.6144 Z M12.4733143,3.71725714 L14.4077143,3.71725714 C14.4077143,2.96845714 14.1135429,2.63862857 13.4449714,2.63862857 C12.7674857,2.63862857 12.4733143,2.96845714 12.4733143,3.71725714 Z M17.9912571,6.6144 C16.9215429,6.6144 16.3153714,5.96365714 16.3153714,4.70674286 L16.3153714,3.69051429 C16.3153714,2.4336 16.9215429,1.77394286 17.9912571,1.77394286 C18.5439429,1.77394286 18.9629143,1.95222857 19.3105714,2.36228571 L19.3105714,-6.1817218e-13 L20.3802857,-6.1817218e-13 L20.3802857,6.50742857 L19.4710286,6.50742857 L19.4353714,5.8656 C19.0698857,6.38262857 18.6152571,6.6144 17.9912571,6.6144 Z M18.2052,5.72297143 C18.6954857,5.72297143 19.0698857,5.41988571 19.3105714,4.85828571 L19.3105714,3.53005714 C19.0698857,2.96845714 18.6954857,2.66537143 18.1962857,2.66537143 C17.6792571,2.66537143 17.3850857,2.9952 17.3850857,3.69942857 L17.3850857,4.68891429 C17.3850857,5.38422857 17.6792571,5.72297143 18.2052,5.72297143 Z M23.5002857,8.2368 C22.2968571,8.2368 21.6282857,7.77325714 21.5748,6.75702857 L22.5732,6.75702857 C22.6177714,7.19382857 22.9386857,7.37211429 23.4824571,7.37211429 C24.1777714,7.37211429 24.4808571,7.08685714 24.4808571,6.39154286 L24.4808571,5.75862857 C24.1332,6.15977143 23.7142286,6.33805714 23.1615429,6.33805714 C22.0918286,6.33805714 21.4856571,5.6784 21.4856571,4.42148571 L21.4856571,3.6816 C21.4856571,2.42468571 22.0918286,1.77394286 23.1615429,1.77394286 C23.7855429,1.77394286 24.2401714,2.00571429 24.6056571,2.51382857 L24.6413143,1.88091429 L25.5505714,1.88091429 L25.5505714,6.39154286 C25.5505714,7.64845714 24.8730857,8.2368 23.5002857,8.2368 Z M23.3665714,5.44662857 C23.8657714,5.44662857 24.2401714,5.14354286 24.4808571,4.58194286 L24.4808571,3.52114286 C24.2401714,2.96845714 23.8657714,2.66537143 23.3754857,2.66537143 C22.8495429,2.66537143 22.5553714,3.00411429 22.5553714,3.69942857 L22.5553714,4.41257143 C22.5553714,5.1168 22.8495429,5.44662857 23.3665714,5.44662857 Z M28.7151429,6.6144 C27.3690857,6.6144 26.6559429,5.93691429 26.6559429,4.64434286 L26.6559429,3.73508571 C26.6559429,2.46034286 27.3601714,1.77394286 28.6616571,1.77394286 C29.9809714,1.77394286 30.6762857,2.46925714 30.6762857,3.744 L30.6762857,4.51062857 L27.7256571,4.51062857 L27.7256571,4.65325714 C27.7256571,5.40205714 28.0287429,5.74971429 28.7151429,5.74971429 C29.2767429,5.74971429 29.5887429,5.50902857 29.6244,5.10788571 L30.6495429,5.10788571 C30.5960571,6.09737143 29.9096571,6.6144 28.7151429,6.6144 Z M27.7256571,3.71725714 L29.6600571,3.71725714 C29.6600571,2.96845714 29.3658857,2.63862857 28.6973143,2.63862857 C28.0198286,2.63862857 27.7256571,2.96845714 27.7256571,3.71725714 Z M31.7638286,6.50742857 L31.7638286,1.88091429 L32.6730857,1.88091429 L32.7176571,2.72777143 C32.9226857,2.08594286 33.3149143,1.79177143 33.9656571,1.79177143 L34.2954857,1.79177143 L34.2954857,2.808 L34.0548,2.808 C33.3416571,2.808 32.9761714,3.11108571 32.8335429,3.85097143 L32.8335429,6.50742857 L31.7638286,6.50742857 Z" id="Ledger" fill="#FFFFFF"></path>
                <path d="M1.7316,18.8448 C0.5616,18.8448 3.09796633e-12,18.2564571 3.09796633e-12,17.0196 L3.09796633e-12,15.9632571 C3.09796633e-12,14.7264 0.5616,14.1380571 1.7316,14.1380571 C2.8548,14.1380571 3.40302857,14.6729143 3.43645714,15.7894286 L2.64754286,15.7894286 C2.6208,15.1409143 2.35337143,14.8534286 1.73828571,14.8534286 C1.08308571,14.8534286 0.815657143,15.1877143 0.815657143,15.9766286 L0.815657143,17.0062286 C0.815657143,17.7951429 1.08308571,18.1294286 1.73828571,18.1294286 C2.35337143,18.1294286 2.6208,17.8419429 2.64754286,17.2001143 L3.43645714,17.2001143 C3.40302857,18.3099429 2.8548,18.8448 1.7316,18.8448 Z M5.91685714,18.8448 C4.69337143,18.8448 4.11171429,18.2497714 4.11171429,17.0129143 L4.11171429,15.9699429 C4.11171429,14.7330857 4.69337143,14.1380571 5.91685714,14.1380571 C7.14034286,14.1380571 7.722,14.7330857 7.722,15.9699429 L7.722,17.0129143 C7.722,18.2497714 7.14034286,18.8448 5.91685714,18.8448 Z M5.91685714,18.1294286 C6.61217143,18.1294286 6.90634286,17.7884571 6.90634286,17.0062286 L6.90634286,15.9766286 C6.90634286,15.1944 6.61217143,14.8534286 5.91685714,14.8534286 C5.22154286,14.8534286 4.92737143,15.1944 4.92737143,15.9766286 L4.92737143,17.0062286 C4.92737143,17.7884571 5.22154286,18.1294286 5.91685714,18.1294286 Z M8.658,18.7645714 L8.658,14.2182857 L9.56057143,14.2182857 L11.3590286,17.3739429 L11.3590286,14.2182857 L12.1345714,14.2182857 L12.1345714,18.7645714 L11.3523429,18.7645714 L9.43354286,15.4016571 L9.43354286,18.7645714 L8.658,18.7645714 Z M13.2444,18.7645714 L13.2444,14.2182857 L14.1469714,14.2182857 L15.9454286,17.3739429 L15.9454286,14.2182857 L16.7209714,14.2182857 L16.7209714,18.7645714 L15.9387429,18.7645714 L14.0199429,15.4016571 L14.0199429,18.7645714 L13.2444,18.7645714 Z M17.8308,18.7645714 L17.8308,14.2182857 L20.8794857,14.2182857 L20.8794857,14.9336571 L18.6464571,14.9336571 L18.6464571,16.0902857 L20.5452,16.0902857 L20.5452,16.7989714 L18.6464571,16.7989714 L18.6464571,18.0492 L20.9463429,18.0492 L20.9463429,18.7645714 L17.8308,18.7645714 Z M23.2997143,18.8448 C22.1297143,18.8448 21.5681143,18.2564571 21.5681143,17.0196 L21.5681143,15.9632571 C21.5681143,14.7264 22.1297143,14.1380571 23.2997143,14.1380571 C24.4229143,14.1380571 24.9711429,14.6729143 25.0045714,15.7894286 L24.2156571,15.7894286 C24.1889143,15.1409143 23.9214857,14.8534286 23.3064,14.8534286 C22.6512,14.8534286 22.3837714,15.1877143 22.3837714,15.9766286 L22.3837714,17.0062286 C22.3837714,17.7951429 22.6512,18.1294286 23.3064,18.1294286 C23.9214857,18.1294286 24.1889143,17.8419429 24.2156571,17.2001143 L25.0045714,17.2001143 C24.9711429,18.3099429 24.4229143,18.8448 23.2997143,18.8448 Z M26.6225143,18.7645714 L26.6225143,14.9470286 L25.3455429,14.9470286 L25.3455429,14.2182857 L28.7151429,14.2182857 L28.7151429,14.9470286 L27.4381714,14.9470286 L27.4381714,18.7645714 L26.6225143,18.7645714 Z M29.3168571,18.7645714 L29.3168571,14.2182857 L32.3655429,14.2182857 L32.3655429,14.9336571 L30.1325143,14.9336571 L30.1325143,16.0902857 L32.0312571,16.0902857 L32.0312571,16.7989714 L30.1325143,16.7989714 L30.1325143,18.0492 L32.4324,18.0492 L32.4324,18.7645714 L29.3168571,18.7645714 Z M33.228,18.7645714 L33.228,14.2182857 L34.866,14.2182857 C36.0694286,14.2182857 36.6109714,14.7798857 36.6109714,15.9966857 L36.6109714,16.9861714 C36.6109714,18.2096571 36.0694286,18.7645714 34.866,18.7645714 L33.228,18.7645714 Z M34.0436571,18.0492 L34.7523429,18.0492 C35.5145143,18.0492 35.7953143,17.7550286 35.7953143,16.9728 L35.7953143,16.0100571 C35.7953143,15.2278286 35.5145143,14.9336571 34.7523429,14.9336571 L34.0436571,14.9336571 L34.0436571,18.0492 Z" id="CONNECTED" fill="#E5A776"></path>
            </g>
            <path d="M86.6357143,42.3428571 L86.6357143,75.7714286" id="Line-4" stroke="#787981" stroke-width="0.557142857" stroke-linecap="square"></path>
        </g>
    </g>
</svg>