<?xml version="1.0" encoding="UTF-8"?>
<svg width="119px" height="35px" viewBox="0 0 119 35" version="1.1" xmlns="http://www.w3.org/2000/svg" xmlns:xlink="http://www.w3.org/1999/xlink">
    <!-- Generator: Sketch 53.1 (72631) - https://sketchapp.com -->
    <title>Logo</title>
    <desc>Created with Sketch.</desc>
    <g id="Symbols" stroke="none" stroke-width="1" fill="none" fill-rule="evenodd">
        <g id="Logonew" transform="translate(0.000000, -5.000000)">
            <g id="Logo">
                <g id="Symbol-new" opacity="0.792875744" transform="translate(0.000000, 10.028571)" stroke="#9799A6" stroke-width="0.557142857">
                    <polygon id="Fill-1" points="16.8390365 13.5970679 24.4166029 9.21998723 16.8390365 4.8168985"></polygon>
                    <polygon id="Fill-2" points="15.9970847 13.5970679 8.41951826 9.21998723 15.9970847 4.8168985"></polygon>
                    <polygon id="Fill-3" points="24.4166029 -6.39488462e-14 16.8390365 4.3770807 24.4166029 8.78016942"></polygon>
                    <polygon id="Fill-4" points="25.2585548 -6.39488462e-14 32.8361212 4.3770807 25.2585548 8.78016942"></polygon>
                    <polygon id="Fill-5" points="7.57756643 -6.39488462e-14 0 4.3770807 7.57756643 8.78016942"></polygon>
                    <polygon id="Fill-6" points="8.41951826 -6.39488462e-14 15.9970847 4.3770807 8.41951826 8.78016942"></polygon>
                    <polygon id="Fill-7" points="16.8390365 26.0966147 24.4166029 21.719534 16.8390365 17.3164453"></polygon>
                    <polygon id="Fill-8" points="15.9970847 26.0966147 8.41951826 21.719534 15.9970847 17.3164453"></polygon>
                    <polygon id="Fill-9" points="24.4166029 12.4995467 16.8390365 16.8766274 24.4166029 21.2797162"></polygon>
                    <polygon id="Fill-10" points="25.2585548 12.4995467 32.8361212 16.8766274 25.2585548 21.2797162"></polygon>
                    <polygon id="Fill-11" points="7.57756643 12.4995467 0 16.8766274 7.57756643 21.2797162"></polygon>
                    <polygon id="Fill-12" points="8.41951826 12.4995467 15.9970847 16.8766274 8.41951826 21.2797162"></polygon>
                </g>
                <path d="M56.94,22.2674286 C53.82,22.2674286 52.104,20.5737143 52.104,17.4314286 L52.104,15.1582857 C52.104,12.016 53.7754286,10.3222857 56.8285714,10.3222857 C59.8817143,10.3222857 61.5308571,12.016 61.5308571,15.1582857 L61.5308571,16.5622857 L53.352,16.5622857 L53.352,17.3422857 C53.352,19.9274286 54.5108571,21.1754286 56.8954286,21.1754286 C58.9457143,21.1754286 60.1045714,20.2394286 60.2382857,18.6571429 L61.4417143,18.6571429 C61.2857143,20.9971429 59.6365714,22.2674286 56.94,22.2674286 Z M53.352,15.4925714 L60.3274286,15.4925714 L60.3274286,15.2474286 C60.3274286,12.6622857 59.1908571,11.4142857 56.8285714,11.4142857 C54.4662857,11.4142857 53.352,12.6622857 53.352,15.2474286 L53.352,15.4925714 Z M64.3594465,22 L64.3594465,5.73142857 L65.6074465,5.73142857 L65.6074465,22 L64.3594465,22 Z M71.9348931,22.2674286 C69.6171788,22.2674286 68.2131788,21.064 68.2131788,18.88 C68.2131788,16.6514286 69.6617502,15.4257143 72.8931788,15.4257143 L76.1468931,15.4257143 L76.1468931,14.4005714 C76.1468931,12.3948571 75.1217502,11.4142857 72.9823216,11.4142857 C70.9988931,11.4142857 69.8846074,12.2611429 69.7731788,13.9102857 L68.5474645,13.9102857 C68.7703216,11.548 70.2857502,10.3222857 73.0268931,10.3222857 C75.9240359,10.3222857 77.3948931,11.704 77.3948931,14.4005714 L77.3948931,22 L76.3251788,22 L76.2806074,20.1057143 C75.2331788,21.532 73.7623216,22.2674286 71.9348931,22.2674286 Z M72.0908931,21.1977143 C73.8291788,21.1977143 75.2108931,20.3508571 76.1468931,18.7462857 L76.1468931,16.4954286 L72.9600359,16.4954286 C70.4863216,16.4954286 69.4611788,17.2308571 69.4611788,18.8354286 C69.4611788,20.3731429 70.3748931,21.1977143 72.0908931,21.1977143 Z M84.1903396,22.2674286 C81.1817682,22.2674286 79.5994825,21.064 79.5994825,18.7685714 L80.802911,18.7685714 C80.802911,20.3508571 81.9171967,21.1754286 84.1680539,21.1754286 C86.3297682,21.1754286 87.4440539,20.3954286 87.4440539,18.9691429 C87.4440539,17.5874286 86.5303396,16.9857143 83.9674825,16.7182857 C81.0034825,16.4062857 79.8891967,15.5594286 79.8891967,13.6428571 C79.8891967,11.5257143 81.426911,10.3222857 84.1680539,10.3222857 C86.9091967,10.3222857 88.4023396,11.5034286 88.4023396,13.7097143 L87.1766253,13.7097143 C87.1766253,12.2165714 86.1514825,11.392 84.1903396,11.392 C82.2291967,11.392 81.0926253,12.1942857 81.0926253,13.5537143 C81.0926253,14.824 81.9840539,15.3588571 84.4131967,15.604 C87.510911,15.916 88.6697682,16.8297143 88.6697682,18.88 C88.6697682,21.0862857 87.1320539,22.2674286 84.1903396,22.2674286 Z M94.5292147,22 C92.478929,22 91.6097861,20.9971429 91.6097861,18.6125714 L91.6097861,11.6148571 L89.4703576,11.6148571 L89.4703576,10.5897143 L91.6320719,10.5897143 L91.7435004,7.46971429 L92.8577861,7.46971429 L92.8577861,10.5897143 L95.9777861,10.5897143 L95.9777861,11.6148571 L92.8577861,11.6148571 L92.8577861,18.6125714 C92.8577861,20.3508571 93.3257861,20.908 94.7743576,20.908 L96.1115004,20.908 L96.1115004,22 L94.5292147,22 Z M102.327518,22.2674286 C99.1852327,22.2674286 97.4915184,20.5291429 97.4915184,17.3422857 L97.4915184,15.2474286 C97.4915184,12.0605714 99.1852327,10.3222857 102.327518,10.3222857 C105.447518,10.3222857 107.163518,12.0605714 107.163518,15.2474286 L107.163518,17.3422857 C107.163518,20.5291429 105.447518,22.2674286 102.327518,22.2674286 Z M102.327518,21.1754286 C104.71209,21.1754286 105.915518,19.8382857 105.915518,17.2531429 L105.915518,15.3142857 C105.915518,12.7514286 104.71209,11.4142857 102.327518,11.4142857 C99.942947,11.4142857 98.7395184,12.7514286 98.7395184,15.3142857 L98.7395184,17.2531429 C98.7395184,19.8382857 99.942947,21.1754286 102.327518,21.1754286 Z M113.624679,22.2674286 C110.616108,22.2674286 109.033822,21.064 109.033822,18.7685714 L110.237251,18.7685714 C110.237251,20.3508571 111.351536,21.1754286 113.602393,21.1754286 C115.764108,21.1754286 116.878393,20.3954286 116.878393,18.9691429 C116.878393,17.5874286 115.964679,16.9857143 113.401822,16.7182857 C110.437822,16.4062857 109.323536,15.5594286 109.323536,13.6428571 C109.323536,11.5257143 110.861251,10.3222857 113.602393,10.3222857 C116.343536,10.3222857 117.836679,11.5034286 117.836679,13.7097143 L116.610965,13.7097143 C116.610965,12.2165714 115.585822,11.392 113.624679,11.392 C111.663536,11.392 110.526965,12.1942857 110.526965,13.5537143 C110.526965,14.824 111.418393,15.3588571 113.847536,15.604 C116.945251,15.916 118.104108,16.8297143 118.104108,18.88 C118.104108,21.0862857 116.566393,22.2674286 113.624679,22.2674286 Z" id="elastos" fill="#FFFFFF" fill-rule="nonzero"></path>
                <path d="M52.7168571,37.3 L52.7168571,29.9791429 L53.2784571,29.9791429 L53.2784571,37.3 L52.7168571,37.3 Z M54.9420857,31.1023429 L54.9420857,30.2699714 L55.5638571,30.2699714 L55.5638571,31.1023429 L54.9420857,31.1023429 Z M54.9721714,37.3 L54.9721714,32.1653714 L55.5337714,32.1653714 L55.5337714,37.3 L54.9721714,37.3 Z M59.1228857,39.2455429 C57.8492571,39.2455429 57.1472571,38.7140286 57.0770571,37.7312286 L57.6085714,37.7312286 C57.6687429,38.4232 58.2002571,38.7541429 59.1028286,38.7541429 C60.2059714,38.7541429 60.6973714,38.2727714 60.6973714,37.2298 L60.6973714,36.1567429 C60.2360571,36.8487143 59.6142857,37.1997143 58.8220286,37.1997143 C57.6486857,37.1997143 56.9567143,36.4475714 56.9567143,35.0836857 L56.9567143,34.1510286 C56.9567143,32.7971714 57.6486857,32.0450286 58.8220286,32.0450286 C59.6443714,32.0450286 60.2862,32.4160857 60.7575429,33.1782571 L60.7776,32.1653714 L61.2589714,32.1653714 L61.2589714,37.2298 C61.2589714,38.5836571 60.5469429,39.2455429 59.1228857,39.2455429 Z M58.8822,36.6982857 C59.6744571,36.6982857 60.2862,36.2269429 60.6973714,35.3344 L60.6973714,33.9003143 C60.2862,33.0178 59.6744571,32.5364286 58.8822,32.5364286 C58.0097143,32.5364286 57.5183143,33.1180857 57.5183143,34.1911429 L57.5183143,35.0435714 C57.5183143,36.1266571 58.0097143,36.6982857 58.8822,36.6982857 Z M62.9526857,37.3 L62.9526857,29.9791429 L63.5142857,29.9791429 L63.5142857,33.0679429 C63.9455143,32.3759714 64.5372,32.0450286 65.2993714,32.0450286 C66.3624,32.0450286 66.9039429,32.6868571 66.9039429,33.9003143 L66.9039429,37.3 L66.3423429,37.3 L66.3423429,33.9604857 C66.3423429,33.0178 65.9813143,32.5564857 65.2091143,32.5564857 C64.4870571,32.5564857 63.9254571,32.9576286 63.5142857,33.8902857 L63.5142857,37.3 L62.9526857,37.3 Z M70.0016571,37.3 C69.0790286,37.3 68.6879143,36.8487143 68.6879143,35.7756571 L68.6879143,32.6266857 L67.7251714,32.6266857 L67.7251714,32.1653714 L68.6979429,32.1653714 L68.7480857,30.7613714 L69.2495143,30.7613714 L69.2495143,32.1653714 L70.6535143,32.1653714 L70.6535143,32.6266857 L69.2495143,32.6266857 L69.2495143,35.7756571 C69.2495143,36.5578857 69.4601143,36.8086 70.1119714,36.8086 L70.7136857,36.8086 L70.7136857,37.3 L70.0016571,37.3 Z M75.2343428,37.3 L73.5495428,32.1653714 L74.1412286,32.1653714 L75.5552571,36.598 L76.9993714,32.1653714 L77.5609714,32.1653714 L78.9950571,36.598 L80.4090857,32.1653714 L80.9807143,32.1653714 L79.2959143,37.3 L78.6942,37.3 L77.2701428,32.9576286 L75.8460857,37.3 L75.2343428,37.3 Z M83.1558,37.4203429 C82.1128286,37.4203429 81.4810286,36.8788 81.4810286,35.896 C81.4810286,34.8931429 82.1328857,34.3415714 83.5870286,34.3415714 L85.0512,34.3415714 L85.0512,33.8802571 C85.0512,32.9776857 84.5898857,32.5364286 83.6271428,32.5364286 C82.7346,32.5364286 82.2331714,32.9175143 82.1830286,33.6596286 L81.6314571,33.6596286 C81.7317428,32.5966 82.4136857,32.0450286 83.6472,32.0450286 C84.9509143,32.0450286 85.6128,32.6668 85.6128,33.8802571 L85.6128,37.3 L85.1314286,37.3 L85.1113714,36.4475714 C84.6400286,37.0894 83.9781428,37.4203429 83.1558,37.4203429 Z M83.226,36.9389714 C84.0082286,36.9389714 84.63,36.5578857 85.0512,35.8358286 L85.0512,34.8229429 L83.6171143,34.8229429 C82.5039428,34.8229429 82.0426286,35.1538857 82.0426286,35.8759429 C82.0426286,36.5679143 82.4538,36.9389714 83.226,36.9389714 Z M87.2062286,37.3 L87.2062286,29.9791429 L87.7678286,29.9791429 L87.7678286,37.3 L87.2062286,37.3 Z M89.4615428,37.3 L89.4615428,29.9791429 L90.0231428,29.9791429 L90.0231428,37.3 L89.4615428,37.3 Z M93.6222857,37.4203429 C92.2182857,37.4203429 91.4460857,36.6581714 91.4460857,35.2441429 L91.4460857,34.2212286 C91.4460857,32.8072 92.1982286,32.0450286 93.5721428,32.0450286 C94.9460571,32.0450286 95.6881714,32.8072 95.6881714,34.2212286 L95.6881714,34.8530286 L92.0076857,34.8530286 L92.0076857,35.2040286 C92.0076857,36.3673429 92.5291714,36.9289429 93.6022286,36.9289429 C94.5248571,36.9289429 95.0463428,36.5077429 95.1065143,35.7957143 L95.6480571,35.7957143 C95.5778571,36.8487143 94.8357428,37.4203429 93.6222857,37.4203429 Z M92.0076857,34.3716571 L95.1466286,34.3716571 L95.1466286,34.2613429 C95.1466286,33.0980286 94.6351714,32.5364286 93.5721428,32.5364286 C92.5091143,32.5364286 92.0076857,33.0980286 92.0076857,34.2613429 L92.0076857,34.3716571 Z M98.5552286,37.3 C97.6326,37.3 97.2414857,36.8487143 97.2414857,35.7756571 L97.2414857,32.6266857 L96.2787428,32.6266857 L96.2787428,32.1653714 L97.2515143,32.1653714 L97.3016571,30.7613714 L97.8030857,30.7613714 L97.8030857,32.1653714 L99.2070857,32.1653714 L99.2070857,32.6266857 L97.8030857,32.6266857 L97.8030857,35.7756571 C97.8030857,36.5578857 98.0136857,36.8086 98.6655428,36.8086 L99.2672571,36.8086 L99.2672571,37.3 L98.5552286,37.3 Z" id="lightwallet" fill="#9799A6" fill-rule="nonzero"></path>
            </g>
        </g>
    </g>
</svg>