<?xml version="1.0" encoding="UTF-8"?>
<svg width="13px" height="14px" viewBox="0 0 13 14" version="1.1" xmlns="http://www.w3.org/2000/svg" xmlns:xlink="http://www.w3.org/1999/xlink">
    <!-- Generator: Sketch 53.1 (72631) - https://sketchapp.com -->
    <title>Log out</title>
    <desc>Created with Sketch.</desc>
    <g id="Elastos" stroke="none" stroke-width="1" fill="none" fill-rule="evenodd">
        <g id="Elastos-Wallet.-Main" transform="translate(-213.000000, -479.000000)">
            <g id="Log-out" transform="translate(213.000000, 480.000000)">
                <polygon id="Path" fill="#B2B4C3" fill-rule="nonzero" transform="translate(4.222222, 6.030303) scale(-1, 1) translate(-4.222222, -6.030303) " points="5.56342487 3.27272727 4.90777525 3.9002841 6.66952646 5.58654909 0 5.58654909 0 6.47405697 6.66952646 6.47405697 4.90777525 8.16032196 5.56342487 8.78787879 8.44444444 6.03030303"></polygon>
                <path d="M0.571428571,3.15 C0.571428571,1.41030304 1.91457432,0 3.57142857,0 L9,0 C10.6568542,0 12,1.41030304 12,3.15 L12,8.85 C12,10.589697 10.6568542,12 9,12 L3.57142857,12 C1.91457432,12 0.571428571,10.589697 0.571428571,8.85 L0.571428571,8.6625 L0.571428571,8.6625" id="Path" stroke="#56575C" stroke-width="0.835714286"></path>
            </g>
        </g>
    </g>
</svg>