<?xml version="1.0" encoding="UTF-8"?>
<svg width="763px" height="75px" viewBox="0 0 763 75" version="1.1" xmlns="http://www.w3.org/2000/svg" xmlns:xlink="http://www.w3.org/1999/xlink">
    <!-- Generator: Sketch 53.1 (72631) - https://sketchapp.com -->
    <title>success</title>
    <desc>Created with Sketch.</desc>
    <defs>
        <linearGradient x1="-1.11022302e-14%" y1="50%" x2="100%" y2="50%" id="linearGradient-1">
            <stop stop-color="#8FDA82" offset="0%"></stop>
            <stop stop-color="#4BB476" offset="100%"></stop>
        </linearGradient>
        <linearGradient x1="101.556793%" y1="50%" x2="-1.86286807%" y2="50%" id="linearGradient-2">
            <stop stop-color="#17181C" stop-opacity="0.453425481" offset="0%"></stop>
            <stop stop-color="#1A1A1E" stop-opacity="0.170044799" offset="100%"></stop>
        </linearGradient>
        <rect id="path-3" x="0" y="0" width="762.171429" height="74.6571429" rx="22.2857143"></rect>
        <filter x="-7.5%" y="-55.6%" width="115.1%" height="254.0%" filterUnits="objectBoundingBox" id="filter-5">
            <feOffset dx="0" dy="16" in="SourceAlpha" result="shadowOffsetOuter1"></feOffset>
            <feGaussianBlur stdDeviation="16.5" in="shadowOffsetOuter1" result="shadowBlurOuter1"></feGaussianBlur>
            <feColorMatrix values="0 0 0 0 0.0175721056   0 0 0 0 0.0612828351   0 0 0 0 0.0338370629  0 0 0 0.274311626 0" type="matrix" in="shadowBlurOuter1"></feColorMatrix>
        </filter>
    </defs>
    <g id="success" stroke="none" stroke-width="1" fill="none" fill-rule="evenodd">
        <g id="Rectangle-3" transform="translate(-0.000000, -0.000000)">
            <mask id="mask-4" fill="white">
                <use xlink:href="#path-3"></use>
            </mask>
            <g id="Rectangle" opacity="0.900000036">
                <use fill="black" fill-opacity="1" filter="url(#filter-5)" xlink:href="#path-3"></use>
                <use fill="url(#linearGradient-1)" fill-rule="evenodd" xlink:href="#path-3"></use>
                <use fill-opacity="0.48" fill="url(#linearGradient-2)" fill-rule="evenodd" xlink:href="#path-3"></use>
            </g>
            <path d="M62.4,52.3714286 C61.169194,52.3714286 60.1714286,51.3736632 60.1714286,50.1428571 C60.1714286,48.9120511 61.169194,47.9142857 62.4,47.9142857 C63.630806,47.9142857 64.6285714,48.9120511 64.6285714,50.1428571 C64.6285714,51.3736632 63.630806,52.3714286 62.4,52.3714286 Z M34.5428571,63.5142857 C33.3120511,63.5142857 32.3142857,62.5165203 32.3142857,61.2857143 C32.3142857,60.0549083 33.3120511,59.0571429 34.5428571,59.0571429 C35.7736632,59.0571429 36.7714286,60.0549083 36.7714286,61.2857143 C36.7714286,62.5165203 35.7736632,63.5142857 34.5428571,63.5142857 Z M12.2571429,41.2285714 C11.0263368,41.2285714 10.0285714,40.230806 10.0285714,39 C10.0285714,37.769194 11.0263368,36.7714286 12.2571429,36.7714286 C13.4879489,36.7714286 14.4857143,37.769194 14.4857143,39 C14.4857143,40.230806 13.4879489,41.2285714 12.2571429,41.2285714 Z M101.4,57.9428571 C100.169194,57.9428571 99.1714286,56.9450917 99.1714286,55.7142857 C99.1714286,54.4834797 100.169194,53.4857143 101.4,53.4857143 C102.630806,53.4857143 103.628571,54.4834797 103.628571,55.7142857 C103.628571,56.9450917 102.630806,57.9428571 101.4,57.9428571 Z M79.95,69.0857143 C78.2576417,69.0857143 76.8857143,67.7137868 76.8857143,66.0214286 C76.8857143,64.3290703 78.2576417,62.9571429 79.95,62.9571429 C81.6423583,62.9571429 83.0142857,64.3290703 83.0142857,66.0214286 C83.0142857,67.7137868 81.6423583,69.0857143 79.95,69.0857143 Z M13.0928571,63.5142857 C11.4004989,63.5142857 10.0285714,62.1423583 10.0285714,60.45 C10.0285714,58.7576417 11.4004989,57.3857143 13.0928571,57.3857143 C14.7852154,57.3857143 16.1571429,58.7576417 16.1571429,60.45 C16.1571429,62.1423583 14.7852154,63.5142857 13.0928571,63.5142857 Z M33.4285714,20.6142857 C32.8131684,20.6142857 32.3142857,20.115403 32.3142857,19.5 C32.3142857,18.884597 32.8131684,18.3857143 33.4285714,18.3857143 C34.0439744,18.3857143 34.5428571,18.884597 34.5428571,19.5 C34.5428571,20.115403 34.0439744,20.6142857 33.4285714,20.6142857 Z M44.5714286,54.0428571 C43.9560256,54.0428571 43.4571429,53.5439744 43.4571429,52.9285714 C43.4571429,52.3131684 43.9560256,51.8142857 44.5714286,51.8142857 C45.1868316,51.8142857 45.6857143,52.3131684 45.6857143,52.9285714 C45.6857143,53.5439744 45.1868316,54.0428571 44.5714286,54.0428571 Z M61.2857143,31.7571429 C60.6703113,31.7571429 60.1714286,31.2582601 60.1714286,30.6428571 C60.1714286,30.0274541 60.6703113,29.5285714 61.2857143,29.5285714 C61.9011173,29.5285714 62.4,30.0274541 62.4,30.6428571 C62.4,31.2582601 61.9011173,31.7571429 61.2857143,31.7571429 Z M11.1428571,26.1857143 C10.5274541,26.1857143 10.0285714,25.6868316 10.0285714,25.0714286 C10.0285714,24.4560256 10.5274541,23.9571429 11.1428571,23.9571429 C11.7582601,23.9571429 12.2571429,24.4560256 12.2571429,25.0714286 C12.2571429,25.6868316 11.7582601,26.1857143 11.1428571,26.1857143 Z M18.3857143,52.9285714 C17.7703113,52.9285714 17.2714286,52.4296887 17.2714286,51.8142857 C17.2714286,51.1988827 17.7703113,50.7 18.3857143,50.7 C19.0011173,50.7 19.5,51.1988827 19.5,51.8142857 C19.5,52.4296887 19.0011173,52.9285714 18.3857143,52.9285714 Z M62.4,66.3 C61.784597,66.3 61.2857143,65.8011173 61.2857143,65.1857143 C61.2857143,64.5703113 61.784597,64.0714286 62.4,64.0714286 C63.015403,64.0714286 63.5142857,64.5703113 63.5142857,65.1857143 C63.5142857,65.8011173 63.015403,66.3 62.4,66.3 Z" id="Combined-Shape" fill="#FFFFFF" opacity="0.295363653" mask="url(#mask-4)"></path>
            <path d="M103.628571,67.4142857 C102.397765,67.4142857 101.4,66.4165203 101.4,65.1857143 C101.4,63.9549083 102.397765,62.9571429 103.628571,62.9571429 C104.859377,62.9571429 105.857143,63.9549083 105.857143,65.1857143 C105.857143,66.4165203 104.859377,67.4142857 103.628571,67.4142857 Z M75.7714286,78.5571429 C74.5406226,78.5571429 73.5428571,77.5593774 73.5428571,76.3285714 C73.5428571,75.0977654 74.5406226,74.1 75.7714286,74.1 C77.0022346,74.1 78,75.0977654 78,76.3285714 C78,77.5593774 77.0022346,78.5571429 75.7714286,78.5571429 Z M53.4857143,56.2714286 C52.2549083,56.2714286 51.2571429,55.2736632 51.2571429,54.0428571 C51.2571429,52.8120511 52.2549083,51.8142857 53.4857143,51.8142857 C54.7165203,51.8142857 55.7142857,52.8120511 55.7142857,54.0428571 C55.7142857,55.2736632 54.7165203,56.2714286 53.4857143,56.2714286 Z M142.628571,72.9857143 C141.397765,72.9857143 140.4,71.9879489 140.4,70.7571429 C140.4,69.5263368 141.397765,68.5285714 142.628571,68.5285714 C143.859377,68.5285714 144.857143,69.5263368 144.857143,70.7571429 C144.857143,71.9879489 143.859377,72.9857143 142.628571,72.9857143 Z M121.178571,84.1285714 C119.486213,84.1285714 118.114286,82.756644 118.114286,81.0642857 C118.114286,79.3719274 119.486213,78 121.178571,78 C122.87093,78 124.242857,79.3719274 124.242857,81.0642857 C124.242857,82.756644 122.87093,84.1285714 121.178571,84.1285714 Z M54.3214286,78.5571429 C52.6290703,78.5571429 51.2571429,77.1852154 51.2571429,75.4928571 C51.2571429,73.8004989 52.6290703,72.4285714 54.3214286,72.4285714 C56.0137868,72.4285714 57.3857143,73.8004989 57.3857143,75.4928571 C57.3857143,77.1852154 56.0137868,78.5571429 54.3214286,78.5571429 Z M74.6571429,35.6571429 C74.0417399,35.6571429 73.5428571,35.1582601 73.5428571,34.5428571 C73.5428571,33.9274541 74.0417399,33.4285714 74.6571429,33.4285714 C75.2725459,33.4285714 75.7714286,33.9274541 75.7714286,34.5428571 C75.7714286,35.1582601 75.2725459,35.6571429 74.6571429,35.6571429 Z M85.8,69.0857143 C85.184597,69.0857143 84.6857143,68.5868316 84.6857143,67.9714286 C84.6857143,67.3560256 85.184597,66.8571429 85.8,66.8571429 C86.415403,66.8571429 86.9142857,67.3560256 86.9142857,67.9714286 C86.9142857,68.5868316 86.415403,69.0857143 85.8,69.0857143 Z M102.514286,46.8 C101.898883,46.8 101.4,46.3011173 101.4,45.6857143 C101.4,45.0703113 101.898883,44.5714286 102.514286,44.5714286 C103.129689,44.5714286 103.628571,45.0703113 103.628571,45.6857143 C103.628571,46.3011173 103.129689,46.8 102.514286,46.8 Z M52.3714286,41.2285714 C51.7560256,41.2285714 51.2571429,40.7296887 51.2571429,40.1142857 C51.2571429,39.4988827 51.7560256,39 52.3714286,39 C52.9868316,39 53.4857143,39.4988827 53.4857143,40.1142857 C53.4857143,40.7296887 52.9868316,41.2285714 52.3714286,41.2285714 Z M59.6142857,67.9714286 C58.9988827,67.9714286 58.5,67.4725459 58.5,66.8571429 C58.5,66.2417399 58.9988827,65.7428571 59.6142857,65.7428571 C60.2296887,65.7428571 60.7285714,66.2417399 60.7285714,66.8571429 C60.7285714,67.4725459 60.2296887,67.9714286 59.6142857,67.9714286 Z M103.628571,81.3428571 C103.013168,81.3428571 102.514286,80.8439744 102.514286,80.2285714 C102.514286,79.6131684 103.013168,79.1142857 103.628571,79.1142857 C104.243974,79.1142857 104.742857,79.6131684 104.742857,80.2285714 C104.742857,80.8439744 104.243974,81.3428571 103.628571,81.3428571 Z" id="Combined-Shape-Copy" fill="#FFFFFF" opacity="0.295363653" mask="url(#mask-4)" transform="translate(98.057143, 58.778571) scale(-1, 1) translate(-98.057143, -58.778571) "></path>
        </g>
        <polyline id="Path-7" stroke="#FFFFFF" stroke-width="1.67142857" stroke-linecap="round" points="28.9714286 38.0905317 36.8373769 44.0142857 47.9142857 31.2"></polyline>
    </g>
</svg>