<?xml version="1.0" encoding="utf-8"?>
<!-- Generator: Adobe Illustrator 23.0.2, SVG Export Plug-In . SVG Version: 6.00 Build 0)  -->
<svg version="1.1" id="Layer_1" xmlns="http://www.w3.org/2000/svg" xmlns:xlink="http://www.w3.org/1999/xlink" x="0px" y="0px"
	 viewBox="0 0 193.6 164.6" style="enable-background:new 0 0 193.6 164.6;" xml:space="preserve">
<style type="text/css">
	.st0{fill:#13252F;}
	.st1{fill:#FFFFFF;}
	.st2{fill:url(#SVGID_1_);}
	.st3{fill:url(#SVGID_2_);}
	.st4{fill:url(#SVGID_3_);}
	.st5{fill:url(#SVGID_4_);}
</style>
<g>
	<polygon class="st1" points="97.2,164.6 97.2,164.6 97.2,164.6 	"/>
	<path class="st1" d="M145.8,0.1L145.6,0v0l0,0v0L97.8,27.4v0l-1,0.6L48,0v0v0l0,0l0,0L0,27.5v81.1l46.9,27.1l0,0L96.2,164l1,0.6
		l0,0l1-0.6l46.8-27.2v0l48.5-28.2V27.5L145.8,0.1z M145.6,2.3l-0.2,52.9l0,0L98.8,29.1L145.6,2.3z M97.8,30.8l45.6,25.6l-6.8,3.9
		l-39,22.5L97.8,30.8z M94.8,29.1l-46,26.6l-0.4-0.2L48,2.3L94.8,29.1z M95.8,30.8l-0.2,52l-44.6-26L95.8,30.8z M48.9,134.5
		l-0.4-52.6l46.2,26.4L48.9,134.5L48.9,134.5z M51,135.6L95.8,110l0.3,42.9l0.1,8.7L51,135.6z M96.8,107.2L48.5,79.5l-0.2-22.1
		l47.2,27.7l1,0.6l1-0.6l29.1-16.8l18.7-10.8l-0.1,21.8L96.8,107.2z M98.2,161.7l-0.1-11L97.8,110l45.3,25.6L98.2,161.7z
		 M145.1,134.5l-46.3-26.2l46.5-26.6L145.1,134.5L145.1,134.5z"/>
</g>
</svg>
