<?xml version="1.0" standalone="no"?>
<!DOCTYPE svg PUBLIC "-//W3C//DTD SVG 1.1//EN" "http://www.w3.org/Graphics/SVG/1.1/DTD/svg11.dtd" >
<svg xmlns="http://www.w3.org/2000/svg">
<metadata>Generated by IcoMoon</metadata>
<defs>
<font id="icomoon" horiz-adv-x="1024">
<font-face units-per-em="1024" ascent="960" descent="-64" />
<missing-glyph horiz-adv-x="1024" />
<glyph unicode="&#x20;" horiz-adv-x="512" d="" />
<glyph unicode="&#xe900;" glyph-name="m" horiz-adv-x="1290" d="M152.951 751.106c0.162 1.508 0.254 3.258 0.254 5.029 0 14.707-6.355 27.93-16.469 37.072l-0.043 0.039-120.434 145.082v21.672h373.947l289.041-633.905 254.115 633.905h356.484v-21.672l-102.971-98.727c-7.235-5.554-11.853-14.206-11.853-23.936 0-1.752 0.15-3.469 0.437-5.138l-0.025 0.179v-725.409c-0.262-1.491-0.411-3.208-0.411-4.96 0-9.73 4.618-18.382 11.781-23.884l0.071-0.053 100.562-98.727v-21.672h-505.822v21.672l104.175 101.136c10.237 10.234 10.237 13.244 10.237 28.896v586.347l-289.643-735.642h-39.141l-337.215 735.642v-493.037c-0.393-2.746-0.617-5.917-0.617-9.14 0-18.463 7.357-35.207 19.298-47.462l-0.014 0.015 135.488-164.346v-21.671h-384.184v21.671l135.488 164.346c11.383 11.784 18.397 27.851 18.397 45.557 0 3.897-0.34 7.715-0.991 11.425l0.057-0.394z" />
<glyph unicode="&#xe901;" glyph-name="telegram" horiz-adv-x="1176" d="M20.774 468.996l270.999-101.145 104.893-337.336c4.157-13.119 16.224-22.46 30.472-22.46 7.688 0 14.742 2.72 20.25 7.25l-0.055-0.044 151.060 123.147c7.693 6.305 17.632 10.127 28.464 10.127 9.948 0 19.143-3.223 26.598-8.682l-0.127 0.088 272.458-197.81c5.197-3.815 11.72-6.105 18.778-6.105 15.329 0 28.135 10.801 31.224 25.207l0.038 0.21 199.59 960.063c0.423 1.951 0.666 4.191 0.666 6.489 0 17.644-14.303 31.947-31.947 31.947-4.132 0-8.081-0.785-11.706-2.213l0.217 0.075-1112.189-429.049c-12.069-4.75-20.456-16.305-20.456-29.819 0-13.633 8.536-25.273 20.554-29.866l0.219-0.074zM379.762 421.693l529.634 326.202c1.38 0.866 3.056 1.379 4.853 1.379 5.097 0 9.229-4.132 9.229-9.229 0-2.666-1.131-5.068-2.938-6.753l-0.006-0.005-437.101-406.307c-14.9-13.887-25.092-32.652-28.027-53.739l-0.054-0.476-14.89-110.343c-0.926-6.74-6.647-11.876-13.568-11.876-6.225 0-11.479 4.155-13.141 9.842l-0.024 0.097-57.265 201.213c-1.294 4.375-2.038 9.402-2.038 14.603 0 19.091 10.032 35.839 25.113 45.26l0.224 0.131z" />
<glyph unicode="&#xe902;" glyph-name="chevron-right" horiz-adv-x="444" d="M0 704.005v0 0 0 0l147.802-256.006-147.802-255.995 147.802-256.006 148.684 256.006 147.802 255.995-147.802 256.006-148.684 255.995-147.802-255.995z" />
<glyph unicode="&#xe903;" glyph-name="chevron-down" horiz-adv-x="2360" d="M1770.099 960v0 0 0 0l-590.025-340.657-590.050 340.657-590.025-340.657 590.025-342.69 590.050-340.657 590.025 340.657 590.050 342.69-590.050 340.657z" />
<glyph unicode="&#xe904;" glyph-name="audio" horiz-adv-x="1280" d="M0 734.556v-573.113h341.41l326.989-225.444v1024.002l-326.989-225.444zM76.318 658.237h238.812v-420.476h-238.812zM592.082 81.312l-200.634 138.327v456.719l200.634 138.327zM866.446 734.602l276.912 191.013 43.339-62.829-276.912-191.013-43.339 62.829zM866.432 161.364l43.326 62.838 276.952-190.954-43.326-62.838-276.952 190.954zM888.095 486.159h391.523v-76.318h-391.523v76.318z" />
<glyph unicode="&#xe905;" glyph-name="cat-exchange" horiz-adv-x="1465" d="M1465.192-64l-502.434 872.8-228.888-392.951-226.206 392.951-507.664-871.529 1009.768-0.697zM962.465 693.875l403.052-700.153-388.923 0.481-209.593 364.094zM555.229-5.277l178.351 306.197 176.52-306.636zM507.372 693.873l193.077-335.4-212.158-364.23-388.166 0.48zM933.166 959.493l-396.337 0.507 197.134-342.473zM833.041 902.042l-98.786-169.589-97.752 169.825z" />
<glyph unicode="&#xe906;" glyph-name="cat-partnerships" horiz-adv-x="996" d="M995.677 958.734l-994.375 1.266 296.344-511.748-297.646-510.986 994.4-1.266-294.599 511.749zM107.473 898.696l782.2-0.979-225.108-388.762-164.804 286.281-166.673-286.138zM629.176 447.836l-130.297-225.025-130.498 225.345 131.072 225.023zM888.539-2.696l-782.2 0.979 226.599 389.025 165.941-286.557 165.532 285.879zM559.288 448.784c0-33.553-27.2-60.753-60.753-60.753s-60.753 27.2-60.753 60.753c0 33.553 27.2 60.753 60.753 60.753s60.753-27.2 60.753-60.753z" />
<glyph unicode="&#xe907;" glyph-name="cat-tech" horiz-adv-x="1185" d="M595.607 960l-595.607-1022.488 1185.049-1.513zM860.076 382.053l222.672-386.797-438.532 0.554zM593.874 26.884l-215.467 385.507h430.914zM808.58 471.508h-429.119l215.823 370.511zM327.506 382.319l215.954-386.381-440.698 0.553z" />
<glyph unicode="&#xe908;" glyph-name="cat-weekly" d="M511.293 638.458l-185.127 321.542 372.16-0.449zM423.283 903.781l88.296-153.368 89.194 153.138zM697.834-64l-372.16 0.449 187.034 321.092zM423.228-7.551l177.488-0.23-88.295 153.368zM1023.551 261.673l-321.092 187.034 321.542 185.127zM814.413 448.421l153.138-89.194 0.23 177.489zM0 262.166l0.449 372.16 321.092-187.034zM56.449 536.772l-0.23-177.488 153.368 88.295zM646.174 583.16l96.471 358.276 262.824-263.482zM771.553 833.010l-46.016-170.881 171.373 45.216zM281.356-45.447l-262.814 263.482 359.284 94.793zM127.101 188.644l125.347-125.664 46.014 170.88zM741.954-45.458l-94.782 359.284 358.265-96.47zM726.14 234.463l45.205-171.362 125.665 125.347zM376.828 582.174l-358.264 96.47 263.482 262.814zM126.99 707.554l170.869-46.016-45.205 171.361z" />
<glyph unicode="&#xe909;" glyph-name="play" horiz-adv-x="885" d="M1.297 960l883.53-511.606-884.827-512.396 1.297 1024.002z" />
<glyph unicode="&#xe90a;" glyph-name="search" d="M890.876 826.899c-82.204 82.305-195.821 133.219-321.33 133.219-250.815 0-454.14-203.325-454.14-454.14 0-116.649 43.979-223.025 116.26-303.454l-0.369 0.417-231.297-231.297 35.644-35.644 231.263 231.263c80.002-71.928 186.378-115.918 303.029-115.918 250.76 0 454.042 203.281 454.042 454.042 0 0.060 0 0.12 0 0.18v-0.009c0.001 0.372 0.002 0.812 0.002 1.253 0 125.097-50.884 238.31-133.083 320.070l-0.020 0.020zM855.231 219.859c-73.115-73.112-174.12-118.332-285.686-118.332-223.139 0-404.030 180.89-404.030 404.030 0 111.573 45.225 212.582 118.343 285.698v0c73.115 73.111 174.12 118.331 285.686 118.331 223.14 0 404.030-180.89 404.030-404.030 0-111.573-45.225-212.583-118.344-285.699v0z" />
<glyph unicode="&#xe90b;" glyph-name="close-x" d="M1024.056 852.16l-107.84 107.84-404.218-404.157-404.157 404.157-107.84-107.84 404.218-404.157-404.218-404.218 107.84-107.779 404.157 404.157 404.218-404.157 107.84 107.779-404.218 404.218 404.218 404.157z" />
<glyph unicode="&#xe90c;" glyph-name="settings" horiz-adv-x="1142" d="M157.834 752.254v207.746h-51.098v-207.746c-61.252-12.324-106.737-65.696-106.737-129.691s45.486-117.366 105.891-129.548l0.847-0.143v-556.87h51.098v556.87c61.239 12.337 106.711 65.704 106.711 129.691s-45.472 117.353-105.864 129.548l-0.847 0.143zM132.285 541.388c-0.004 0-0.008 0-0.012 0-44.832 0-81.175 36.343-81.175 81.175s36.343 81.175 81.175 81.175c44.832 0 81.175-36.343 81.175-81.175 0-0.004 0-0.009 0-0.013v0.001c-0.059-44.801-36.361-81.104-81.157-81.163h-0.006zM596.58 346.965v613.035h-51.098v-613.035c-61.239-12.337-106.711-65.704-106.711-129.691s45.472-117.353 105.864-129.548l0.847-0.143v-151.582h51.098v151.582c61.239 12.337 106.711 65.704 106.711 129.691s-45.472 117.353-105.864 129.548l-0.847 0.143zM571.032 136.1c-0.004 0-0.008 0-0.012 0-44.832 0-81.175 36.343-81.175 81.175s36.343 81.175 81.175 81.175c44.827 0 81.168-36.336 81.175-81.162v-0.001c-0.046-44.811-36.353-81.127-81.157-81.186h-0.006zM1142.064 622.551c-0.095 63.964-45.532 117.289-105.885 129.558l-0.851 0.144v207.746h-51.098v-207.746c-61.239-12.337-106.711-65.704-106.711-129.691s45.472-117.353 105.864-129.548l0.847-0.143v-556.87h51.098v556.87c61.199 12.409 106.634 65.723 106.736 129.667v0.011zM1009.778 541.388c-44.826 0.007-81.162 36.348-81.162 81.175 0 44.832 36.343 81.175 81.175 81.175s81.175-36.343 81.175-81.175c0-0.004 0-0.009 0-0.013v0.001c-0.047-44.815-36.371-81.13-81.184-81.163h-0.003z" />
<glyph unicode="&#xe90d;" glyph-name="big-x" d="M1023.964 919.046l-40.954 40.954-471.028-471.028-471.028 471.028-40.954-40.954 471.028-471.028-471.028-471.028 40.954-41.010 471.028 471.028 471.028-471.028 40.954 41.010-471.028 471.028 471.028 471.028z" />
<glyph unicode="&#xe90e;" glyph-name="cat-team" horiz-adv-x="1030" d="M46.377 480.413l0.64 479.587 413.816-239.608zM102.333 863.94l-0.371-287.333 248.242 143.785zM479.553-17.522l-479.553 0.607 239.608 413.85zM96.059 38.4l287.3-0.337-143.751 248.242zM790.362 499.166l-240.013 414.423 479.621-0.573zM646.543 858.072l143.819-248.276 143.549 247.905zM982.952-64l-413.85 239.608 414.457 240.013zM679.732 175.608l247.905-143.549 0.337 287.368z" />
<glyph unicode="&#xe90f;" glyph-name="discord" horiz-adv-x="1424" d="M1248.292 831.991c-175.541 131.656-342.549 127.999-342.549 127.999l-17.066-19.505c207.236-63.39 303.54-154.818 303.54-154.818-105.995 59.567-230.162 101.028-362.257 116.58l-4.672 0.448c-33.901 3.952-73.179 6.207-112.984 6.207-46.985 0-93.237-3.142-138.556-9.226l5.294 0.581c-7.475-0.231-14.602-1.108-21.51-2.578l0.786 0.14c-102.586-11.93-196.121-39.023-282.362-79.156l5.641 2.356c-45.104-20.724-71.923-35.352-71.923-35.352s101.18 96.304 320.606 159.694l-12.19 14.628s-167.008 3.657-342.549-127.999c0 0-175.541-318.168-175.541-710.698 0 0 102.399-176.76 371.806-185.293 0 0 45.104 54.857 81.675 101.18-154.818 46.323-213.331 143.846-213.331 143.846s12.19-8.533 34.133-20.724c1.367-1.477 2.98-2.702 4.78-3.613l0.096-0.044c3.657-2.438 7.314-3.657 10.971-6.095 24.526-13.922 53.828-27.851 84.141-39.768l4.848-1.679c50.567-20.719 110.592-38.826 172.648-51.318l6.55-1.1c48.438-9.753 104.12-15.334 161.105-15.334 54.667 0 108.134 5.137 159.945 14.954l-5.321-0.838c66.642 11.848 125.95 30.037 181.936 54.427l-5.176-2.009c53.635 20.475 99.845 44.676 142.683 73.504l-2.494-1.581s-60.952-99.961-220.645-145.065c36.571-46.323 80.456-98.742 80.456-98.742 269.407 8.533 373.025 185.293 373.025 185.293 0 392.529-175.541 710.698-175.541 710.698zM483.957 234.664c-68.266 0-124.342 60.952-124.342 135.313s54.857 135.313 124.342 135.313 125.561-60.952 124.342-135.313c0-74.361-54.857-135.313-124.342-135.313zM928.905 234.664c-68.266 0-124.342 60.952-124.342 135.313s54.857 135.313 124.342 135.313 124.342-60.952 124.342-135.313-54.857-135.313-124.342-135.313z" />
<glyph unicode="&#xe910;" glyph-name="chevron-left" horiz-adv-x="444" d="M444 704.005v0 0 0 0l-147.802-256.006 147.802-255.995-147.802-256.006-148.684 256.006-147.802 255.995 147.802 256.006 148.684 255.995 147.802-255.995z" />
<glyph unicode="&#xf04c;" glyph-name="pause" horiz-adv-x="878" d="M877.714 841.143v-804.571c0-20-16.571-36.571-36.571-36.571h-292.571c-20 0-36.571 16.571-36.571 36.571v804.571c0 20 16.571 36.571 36.571 36.571h292.571c20 0 36.571-16.571 36.571-36.571zM365.714 841.143v-804.571c0-20-16.571-36.571-36.571-36.571h-292.571c-20 0-36.571 16.571-36.571 36.571v804.571c0 20 16.571 36.571 36.571 36.571h292.571c20 0 36.571-16.571 36.571-36.571z" />
<glyph unicode="&#xf099;" glyph-name="twitter" horiz-adv-x="951" d="M925.714 717.714c-25.143-36.571-56.571-69.143-92.571-95.429 0.571-8 0.571-16 0.571-24 0-244-185.714-525.143-525.143-525.143-104.571 0-201.714 30.286-283.429 82.857 14.857-1.714 29.143-2.286 44.571-2.286 86.286 0 165.714 29.143 229.143 78.857-81.143 1.714-149.143 54.857-172.571 128 11.429-1.714 22.857-2.857 34.857-2.857 16.571 0 33.143 2.286 48.571 6.286-84.571 17.143-148 91.429-148 181.143v2.286c24.571-13.714 53.143-22.286 83.429-23.429-49.714 33.143-82.286 89.714-82.286 153.714 0 34.286 9.143 65.714 25.143 93.143 90.857-112 227.429-185.143 380.571-193.143-2.857 13.714-4.571 28-4.571 42.286 0 101.714 82.286 184.571 184.571 184.571 53.143 0 101.143-22.286 134.857-58.286 41.714 8 81.714 23.429 117.143 44.571-13.714-42.857-42.857-78.857-81.143-101.714 37.143 4 73.143 14.286 106.286 28.571z" />
<glyph unicode="&#xf09a;" glyph-name="facebook, facebook-f" horiz-adv-x="602" d="M548 944v-150.857h-89.714c-70.286 0-83.429-33.714-83.429-82.286v-108h167.429l-22.286-169.143h-145.143v-433.714h-174.857v433.714h-145.714v169.143h145.714v124.571c0 144.571 88.571 223.429 217.714 223.429 61.714 0 114.857-4.571 130.286-6.857z" />
<glyph unicode="&#xf09b;" glyph-name="github" horiz-adv-x="878" d="M438.857 877.714c242.286 0 438.857-196.571 438.857-438.857 0-193.714-125.714-358.286-300-416.571-22.286-4-30.286 9.714-30.286 21.143 0 14.286 0.571 61.714 0.571 120.571 0 41.143-13.714 67.429-29.714 81.143 97.714 10.857 200.571 48 200.571 216.571 0 48-17.143 86.857-45.143 117.714 4.571 11.429 19.429 56-4.571 116.571-36.571 11.429-120.571-45.143-120.571-45.143-34.857 9.714-72.571 14.857-109.714 14.857s-74.857-5.143-109.714-14.857c0 0-84 56.571-120.571 45.143-24-60.571-9.143-105.143-4.571-116.571-28-30.857-45.143-69.714-45.143-117.714 0-168 102.286-205.714 200-216.571-12.571-11.429-24-30.857-28-58.857-25.143-11.429-89.143-30.857-127.429 36.571-24 41.714-67.429 45.143-67.429 45.143-42.857 0.571-2.857-26.857-2.857-26.857 28.571-13.143 48.571-64 48.571-64 25.714-78.286 148-52 148-52 0-36.571 0.571-70.857 0.571-81.714 0-11.429-8-25.143-30.286-21.143-174.286 58.286-300 222.857-300 416.571 0 242.286 196.571 438.857 438.857 438.857zM166.286 247.428c1.143 2.286-0.571 5.143-4 6.857-3.429 1.143-6.286 0.571-7.429-1.143-1.143-2.286 0.571-5.143 4-6.857 2.857-1.714 6.286-1.143 7.429 1.143zM184 228c2.286 1.714 1.714 5.714-1.143 9.143-2.857 2.857-6.857 4-9.143 1.714-2.286-1.714-1.714-5.714 1.143-9.143 2.857-2.857 6.857-4 9.143-1.714zM201.143 202.286c2.857 2.286 2.857 6.857 0 10.857-2.286 4-6.857 5.714-9.714 3.429-2.857-1.714-2.857-6.286 0-10.286s7.429-5.714 9.714-4zM225.143 178.286c2.286 2.286 1.143 7.429-2.286 10.857-4 4-9.143 4.571-11.429 1.714-2.857-2.286-1.714-7.429 2.286-10.857 4-4 9.143-4.571 11.429-1.714zM257.714 164c1.143 3.429-2.286 7.429-7.429 9.143-4.571 1.143-9.714-0.571-10.857-4s2.286-7.429 7.429-8.571c4.571-1.714 9.714 0 10.857 3.429zM293.714 161.143c0 4-4.571 6.857-9.714 6.286-5.143 0-9.143-2.857-9.143-6.286 0-4 4-6.857 9.714-6.286 5.143 0 9.143 2.857 9.143 6.286zM326.857 166.857c-0.571 3.429-5.143 5.714-10.286 5.143-5.143-1.143-8.571-4.571-8-8.571 0.571-3.429 5.143-5.714 10.286-4.571s8.571 4.571 8 8z" />
<glyph unicode="&#xf0e1;" glyph-name="linkedin" horiz-adv-x="878" d="M199.429 593.714v-566.286h-188.571v566.286h188.571zM211.429 768.571c0.571-54.286-40.571-97.714-106.286-97.714v0h-1.143c-63.429 0-104 43.429-104 97.714 0 55.429 42.286 97.714 106.286 97.714 64.571 0 104.571-42.286 105.143-97.714zM877.714 352v-324.571h-188v302.857c0 76-27.429 128-95.429 128-52 0-82.857-34.857-96.571-68.571-4.571-12.571-6.286-29.143-6.286-46.286v-316h-188c2.286 513.143 0 566.286 0 566.286h188v-82.286h-1.143c24.571 38.857 69.143 95.429 170.857 95.429 124 0 216.571-81.143 216.571-254.857z" />
<glyph unicode="&#xf16a;" glyph-name="youtube" d="M406.286 306.286l276.571 142.857-276.571 144.571v-287.429zM512 798.857c215.429 0 358.286-10.286 358.286-10.286 20-2.286 64-2.286 102.857-43.429 0 0 31.429-30.857 40.571-101.714 10.857-82.857 10.286-165.714 10.286-165.714v-77.714s0.571-82.857-10.286-165.714c-9.143-70.286-40.571-101.714-40.571-101.714-38.857-40.571-82.857-40.571-102.857-42.857 0 0-142.857-10.857-358.286-10.857v0c-266.286 2.286-348 10.286-348 10.286-22.857 4-74.286 2.857-113.143 43.429 0 0-31.429 31.429-40.571 101.714-10.857 82.857-10.286 165.714-10.286 165.714v77.714s-0.571 82.857 10.286 165.714c9.143 70.857 40.571 101.714 40.571 101.714 38.857 41.143 82.857 41.143 102.857 43.429 0 0 142.857 10.286 358.286 10.286v0z" />
<glyph unicode="&#xf16d;" glyph-name="instagram" horiz-adv-x="878" d="M585.143 438.857c0 80.571-65.714 146.286-146.286 146.286s-146.286-65.714-146.286-146.286 65.714-146.286 146.286-146.286 146.286 65.714 146.286 146.286zM664 438.857c0-124.571-100.571-225.143-225.143-225.143s-225.143 100.571-225.143 225.143 100.571 225.143 225.143 225.143 225.143-100.571 225.143-225.143zM725.714 673.143c0-29.143-23.429-52.571-52.571-52.571s-52.571 23.429-52.571 52.571 23.429 52.571 52.571 52.571 52.571-23.429 52.571-52.571zM438.857 798.857c-64 0-201.143 5.143-258.857-17.714-20-8-34.857-17.714-50.286-33.143s-25.143-30.286-33.143-50.286c-22.857-57.714-17.714-194.857-17.714-258.857s-5.143-201.143 17.714-258.857c8-20 17.714-34.857 33.143-50.286s30.286-25.143 50.286-33.143c57.714-22.857 194.857-17.714 258.857-17.714s201.143-5.143 258.857 17.714c20 8 34.857 17.714 50.286 33.143s25.143 30.286 33.143 50.286c22.857 57.714 17.714 194.857 17.714 258.857s5.143 201.143-17.714 258.857c-8 20-17.714 34.857-33.143 50.286s-30.286 25.143-50.286 33.143c-57.714 22.857-194.857 17.714-258.857 17.714zM877.714 438.857c0-60.571 0.571-120.571-2.857-181.143-3.429-70.286-19.429-132.571-70.857-184s-113.714-67.429-184-70.857c-60.571-3.429-120.571-2.857-181.143-2.857s-120.571-0.571-181.143 2.857c-70.286 3.429-132.571 19.429-184 70.857s-67.429 113.714-70.857 184c-3.429 60.571-2.857 120.571-2.857 181.143s-0.571 120.571 2.857 181.143c3.429 70.286 19.429 132.571 70.857 184s113.714 67.429 184 70.857c60.571 3.429 120.571 2.857 181.143 2.857s120.571 0.571 181.143-2.857c70.286-3.429 132.571-19.429 184-70.857s67.429-113.714 70.857-184c3.429-60.571 2.857-120.571 2.857-181.143z" />
<glyph unicode="&#xf281;" glyph-name="reddit" d="M1024 467.428c0-44.571-25.143-82.857-62.286-101.714 4.571-17.714 6.857-36 6.857-54.857 0-180.571-204-326.857-455.429-326.857-250.857 0-454.857 146.286-454.857 326.857 0 18.286 2.286 36.571 6.286 53.714-38.286 18.857-64.571 57.714-64.571 102.857 0 62.857 50.857 113.714 113.714 113.714 32.571 0 61.714-13.714 82.857-36 77.143 53.714 180 88.571 294.286 92.571l66.286 297.714c2.286 10.286 13.143 17.143 23.429 14.857l210.857-46.286c13.714 27.429 42.857 46.857 76 46.857 47.429 0 85.714-38.286 85.714-85.143 0-47.429-38.286-85.714-85.714-85.714-46.857 0-85.143 38.286-85.143 85.143l-190.857 42.286-59.429-269.714c114.857-3.429 218.857-37.714 296.571-91.429 20.571 21.714 49.714 34.857 81.714 34.857 62.857 0 113.714-50.857 113.714-113.714zM238.857 353.714c0-47.429 38.286-85.714 85.143-85.714 47.429 0 85.714 38.286 85.714 85.714 0 46.857-38.286 85.143-85.714 85.143-46.857 0-85.143-38.286-85.143-85.143zM701.714 150.857c8.571 8.571 8.571 21.143 0 29.714-8 8-21.143 8-29.143 0-34.286-34.857-108-46.857-160.571-46.857s-126.286 12-160.571 46.857c-8 8-21.143 8-29.143 0-8.571-8-8.571-21.143 0-29.714 54.286-54.286 158.857-58.286 189.714-58.286s135.429 4 189.714 58.286zM700 268c46.857 0 85.143 38.286 85.143 85.714 0 46.857-38.286 85.143-85.143 85.143-47.429 0-85.714-38.286-85.714-85.143 0-47.429 38.286-85.714 85.714-85.714z" />
</font>
</defs>
</svg>
