<svg xmlns="http://www.w3.org/2000/svg" viewBox="0 0 619.23891 636.78926"><title>cr-shapes</title><polyline points="280.798 636.789 280.798 573.564 289.881 561.087 289.881 523.981" style="fill:none;stroke:#1de9b6;stroke-miterlimit:10;stroke-width:1.25px"/><line x1="269.07224" y1="523.98099" x2="269.07222" y2="636.78926" style="fill:none;stroke:#1de9b6;stroke-miterlimit:10;stroke-width:1.25px"/><line x1="248.26305" y1="555.50913" x2="248.26303" y2="636.78925" style="fill:none;stroke:#1de9b6;stroke-miterlimit:10;stroke-width:1.25px"/><polyline points="257.346 636.789 257.346 555.509 248.263 547.894 248.263 539.299" style="fill:none;stroke:#1de9b6;stroke-miterlimit:10;stroke-width:1.25px"/><line x1="280.79801" y1="523.981" x2="280.798" y2="560.48328" style="fill:none;stroke:#1de9b6;stroke-miterlimit:10;stroke-width:1.25px"/><rect x="248.06257" y="525.08469" width="9.4844" height="9.08342" transform="translate(782.43122 276.82175) rotate(90.00001)" style="fill:none;stroke:#1de9b6;stroke-miterlimit:10;stroke-width:1.25px"/><circle cx="476.78828" cy="106.06486" r="1.79636" transform="translate(7.02917 239.8677) rotate(-28.44032)" style="fill:#1de9b6"/><circle cx="458.73482" cy="106.06486" r="1.79636" transform="translate(4.85038 231.26991) rotate(-28.44032)" style="fill:#1de9b6"/><circle cx="449.70809" cy="106.06486" r="1.79636" transform="translate(3.76101 226.97113) rotate(-28.44034)" style="fill:#1de9b6"/><circle cx="467.76155" cy="106.06486" r="1.79636" transform="translate(5.93978 235.56883) rotate(-28.44032)" style="fill:#1de9b6"/><circle cx="352.39923" cy="106.06486" r="1.79636" transform="translate(-7.98291 180.62818) rotate(-28.4403)" style="fill:#1de9b6"/><circle cx="334.34577" cy="106.06486" r="1.79636" transform="translate(-10.1617 172.03043) rotate(-28.44032)" style="fill:#1de9b6"/><circle cx="325.31903" cy="106.06486" r="1.79636" transform="translate(-11.25108 167.73163) rotate(-28.44034)" style="fill:#1de9b6"/><circle cx="343.3725" cy="106.06486" r="1.79636" transform="translate(-9.07229 176.32936) rotate(-28.44032)" style="fill:#1de9b6"/><polyline points="478.585 129.781 452.462 129.781 447.002 125.806 403.682 125.806" style="fill:none;stroke:#1de9b6;stroke-miterlimit:10;stroke-width:1.25px"/><polyline points="323.523 121.831 354.902 121.831 360.362 125.806 403.682 125.806" style="fill:none;stroke:#1de9b6;stroke-miterlimit:10;stroke-width:1.25px"/><line x1="478.5848" y1="141.93625" x2="323.52283" y2="141.93625" style="fill:none;stroke:#1de9b6;stroke-miterlimit:10;stroke-width:1.25px"/><line x1="426.04393" y1="108.36534" x2="426.04391" y2="103.27493" style="fill:none;stroke:#1de9b6;stroke-miterlimit:10;stroke-width:1.25px"/><line x1="421.8789" y1="110.81265" x2="421.87885" y2="101.31708" style="fill:none;stroke:#1de9b6;stroke-miterlimit:10;stroke-width:1.25px"/><line x1="417.71386" y1="112.08526" x2="417.7138" y2="100.04447" style="fill:none;stroke:#1de9b6;stroke-miterlimit:10;stroke-width:1.25px"/><line x1="413.5488" y1="109.67234" x2="413.54878" y2="103.27493" style="fill:none;stroke:#1de9b6;stroke-miterlimit:10;stroke-width:1.25px"/><line x1="409.38377" y1="112.08526" x2="409.38372" y2="100.04447" style="fill:none;stroke:#1de9b6;stroke-miterlimit:10;stroke-width:1.25px"/><line x1="401.05367" y1="108.36534" x2="401.05364" y2="103.27493" style="fill:none;stroke:#1de9b6;stroke-miterlimit:10;stroke-width:1.25px"/><line x1="405.21872" y1="110.81265" x2="405.21868" y2="101.31708" style="fill:none;stroke:#1de9b6;stroke-miterlimit:10;stroke-width:1.25px"/><line x1="396.88863" y1="110.81265" x2="396.88859" y2="101.31708" style="fill:none;stroke:#1de9b6;stroke-miterlimit:10;stroke-width:1.25px"/><line x1="392.7236" y1="112.08526" x2="392.72354" y2="100.04447" style="fill:none;stroke:#1de9b6;stroke-miterlimit:10;stroke-width:1.25px"/><line x1="388.55854" y1="109.67234" x2="388.55851" y2="103.27493" style="fill:none;stroke:#1de9b6;stroke-miterlimit:10;stroke-width:1.25px"/><line x1="384.39351" y1="112.08526" x2="384.39345" y2="100.04447" style="fill:none;stroke:#1de9b6;stroke-miterlimit:10;stroke-width:1.25px"/><line x1="376.0634" y1="108.36534" x2="376.06338" y2="103.27493" style="fill:none;stroke:#1de9b6;stroke-miterlimit:10;stroke-width:1.25px"/><line x1="380.22846" y1="110.81265" x2="380.22842" y2="101.31708" style="fill:none;stroke:#1de9b6;stroke-miterlimit:10;stroke-width:1.25px"/><polyline points="154.569 243.423 173.62 243.423 186.096 252.506 223.202 252.506" style="fill:none;stroke:#1de9b6;stroke-miterlimit:10;stroke-width:1.25px"/><line x1="223.202" y1="231.6971" x2="154.56869" y2="231.69711" style="fill:none;stroke:#1de9b6;stroke-miterlimit:10;stroke-width:1.25px"/><line x1="191.67422" y1="210.88792" x2="154.56869" y2="210.88793" style="fill:none;stroke:#1de9b6;stroke-miterlimit:10;stroke-width:1.25px"/><polyline points="154.569 219.971 191.674 219.971 199.29 210.888 207.884 210.888" style="fill:none;stroke:#1de9b6;stroke-miterlimit:10;stroke-width:1.25px"/><line x1="223.202" y1="243.42286" x2="186.70013" y2="243.42287" style="fill:none;stroke:#1de9b6;stroke-miterlimit:10;stroke-width:1.25px"/><rect x="212.8145" y="210.88792" width="9.48429" height="9.08342" transform="translate(435.11333 430.85922) rotate(179.99999)" style="fill:none;stroke:#1de9b6;stroke-miterlimit:10;stroke-width:1.25px"/><rect x="486.47096" y="434.67332" width="132.76795" height="132.76795" style="fill:#172d39"/><rect x="373.39052" y="321.59288" width="113.08044" height="113.08044" style="fill:#172d39"/><rect width="113.08044" height="113.08044" style="fill:#172d39"/><rect x="486.47096" y="266.31315" width="55.27969" height="55.27973" style="fill:#172d39"/><line x1="471.25649" y1="526.34407" x2="528.76224" y2="583.84982" style="fill:none;stroke:#1de9b6;stroke-miterlimit:10;stroke-width:1.25px"/><line x1="471.25649" y1="541.71787" x2="513.38807" y2="583.84982" style="fill:none;stroke:#1de9b6;stroke-miterlimit:10;stroke-width:1.25px"/><line x1="471.25649" y1="557.09192" x2="498.01415" y2="583.84982" style="fill:none;stroke:#1de9b6;stroke-miterlimit:10;stroke-width:1.25px"/><line x1="471.25649" y1="572.46597" x2="482.64024" y2="583.84982" style="fill:none;stroke:#1de9b6;stroke-miterlimit:10;stroke-width:1.25px"/><line x1="517.37848" y1="526.34407" x2="528.76224" y2="537.72792" style="fill:none;stroke:#1de9b6;stroke-miterlimit:10;stroke-width:1.25px"/><line x1="502.00457" y1="526.34407" x2="528.76224" y2="553.10197" style="fill:none;stroke:#1de9b6;stroke-miterlimit:10;stroke-width:1.25px"/><line x1="486.63065" y1="526.34407" x2="528.76224" y2="568.47602" style="fill:none;stroke:#1de9b6;stroke-miterlimit:10;stroke-width:1.25px"/><path d="M102.66139,488.0803a51.21914,51.21914,0,0,0-51.21916,51.21912h51.21916Z" style="fill:#172d39"/><path d="M153.8805,488.0801A51.219,51.219,0,0,0,102.66135,436.861l0,51.21933Z" style="fill:#172d39"/><path d="M153.88073,436.26632A51.21954,51.21954,0,0,0,205.101,385.04723l-51.22047.00007Z" style="fill:#172d39"/><circle cx="117.42714" cy="113.08044" r="29.58566" transform="translate(-23.43637 31.02076) rotate(-13.69687)" style="fill:none;stroke:#1de9b6;stroke-miterlimit:10;stroke-width:1.25px"/><path d="M103.7949,107.54525a14.75774,14.75774,0,0,1,8.09712-8.09713" style="fill:none;stroke:#1de9b6;stroke-miterlimit:10;stroke-width:1.25px"/><path d="M111.892,126.71272a14.75784,14.75784,0,0,1-8.09711-8.09717" style="fill:none;stroke:#1de9b6;stroke-miterlimit:10;stroke-width:1.25px"/><path d="M122.96227,99.44815a14.71751,14.71751,0,0,1,0,27.2646" style="fill:none;stroke:#1de9b6;stroke-miterlimit:10;stroke-width:1.25px"/><path d="M125.5789,133.15717a21.6866,21.6866,0,0,1-28.22838-11.925" style="fill:none;stroke:#1de9b6;stroke-miterlimit:10;stroke-width:1.25px"/><path d="M125.5789,93.00374a21.68718,21.68718,0,0,1,11.92488,28.22853" style="fill:none;stroke:#1de9b6;stroke-miterlimit:10;stroke-width:1.25px"/><path d="M97.35052,104.9286A21.73415,21.73415,0,0,1,109.2754,93.0037" style="fill:none;stroke:#1de9b6;stroke-miterlimit:10;stroke-width:1.25px"/></svg>