<svg xmlns="http://www.w3.org/2000/svg" viewBox="0 0 1499.95867 999.98449"><title>footer-signup-bg</title><rect x="0.00615" width="1499.95249" height="999.97211" style="fill:#172e3a"/><polygon points="249.993 249.993 0 249.993 0 0 249.993 249.993" style="fill:#172e3a"/><polygon points="0 0.013 249.993 0.013 249.993 250.006 0 0.013" style="fill:#4f799c"/><polygon points="249.993 249.993 249.993 0 499.986 0 249.993 249.993" style="fill:#172e3a"/><polygon points="749.979 250.006 749.979 0.013 999.972 0.013 749.979 250.006" style="fill:#4f799c"/><polygon points="999.972 0 999.972 249.993 749.979 249.993 999.972 0" style="fill:#172e3a"/><polygon points="999.972 0 1249.965 0 1249.965 249.993 999.972 0" style="fill:#172e3a"/><polygon points="1249.965 249.993 999.972 249.993 999.972 0 1249.965 249.993" style="fill:#2e3d56"/><polygon points="1249.965 249.993 1249.965 0 1499.958 0 1249.965 249.993" style="fill:#6a8292"/><polygon points="1499.958 0 1499.958 249.993 1249.965 249.993 1499.958 0" style="fill:#2e3d56"/><polygon points="1249.966 249.993 1499.959 249.993 1499.959 499.986 1249.966 249.993" style="fill:#172e3a"/><polygon points="1499.959 499.999 1249.966 499.999 1249.966 250.005 1499.959 499.999" style="fill:#2e3d56"/><polygon points="1249.966 499.986 999.972 499.986 999.972 249.993 1249.966 499.986" style="fill:#172e3a"/><polygon points="999.972 249.993 1249.965 249.993 1249.965 499.987 999.972 249.993" style="fill:#6a8292"/><polygon points="999.972 499.986 749.979 499.986 749.979 249.993 999.972 499.986" style="fill:#4f799c"/><polygon points="749.979 250.005 999.972 250.005 999.972 499.999 749.979 250.005" style="fill:#172e3a"/><polygon points="749.979 250.005 749.979 499.998 499.986 499.998 749.979 250.005" style="fill:#2e3d56"/><polygon points="499.986 499.998 499.986 250.005 749.979 250.005 499.986 499.998" style="fill:#172e3a"/><polygon points="499.986 249.993 499.986 249.993 499.986 249.993 249.993 499.986 249.993 249.993 249.994 249.993 499.986 0 499.986 0 749.979 0 749.979 249.993 749.979 249.993 499.986 249.993" style="fill:#6a8292"/><polygon points="499.986 249.993 499.986 499.986 249.993 499.986 499.986 249.993" style="fill:#172e3a"/><polygon points="249.993 249.993 249.993 499.986 0 499.986 249.993 249.993" style="fill:#172e3a"/><polygon points="0 499.986 0 249.993 249.993 249.993 0 499.986" style="fill:#2e3d56"/><polygon points="249.993 749.979 0 749.979 0 499.986 249.993 749.979" style="fill:#2e3d56"/><polygon points="0 499.998 249.993 499.998 249.993 749.992 0 499.998" style="fill:#2e3d56"/><polygon points="124.996 624.979 124.996 499.992 0.009 499.992 0.003 499.986 0.003 624.979 124.99 624.979 124.996 624.985 124.996 624.979 124.996 624.979 124.996 624.979" style="fill:#172e3a"/><polygon points="249.992 749.975 249.992 624.988 125.005 624.988 124.999 624.982 124.999 749.975 249.985 749.975 249.992 749.981 249.992 749.975 249.992 749.975 249.992 749.975" style="fill:#172e3a"/><polygon points="249.993 749.979 249.993 499.986 499.986 499.986 249.993 749.979" style="fill:#172e3a"/><polygon points="499.986 499.986 499.986 749.979 249.993 749.979 499.986 499.986" style="fill:#6a8292"/><polygon points="499.986 499.986 749.979 499.986 749.979 749.979 499.986 499.986" style="fill:#2e3d56"/><polygon points="749.979 749.979 499.986 749.979 499.986 499.986 749.979 749.979" style="fill:#172e3a"/><polygon points="749.979 749.992 749.979 499.998 999.972 499.998 749.979 749.992" style="fill:#4f799c"/><polygon points="999.972 499.986 999.972 749.979 749.979 749.979 999.972 499.986" style="fill:#172e3a"/><polygon points="999.972 499.986 1249.965 499.986 1249.965 749.979 999.972 499.986" style="fill:#172e3a"/><polygon points="1249.965 749.979 999.972 749.979 999.972 499.986 1249.965 749.979" style="fill:#2e3d56"/><polygon points="1249.966 749.992 1249.966 499.999 1499.959 499.999 1249.966 749.992" style="fill:#4f799c"/><polygon points="1499.958 499.986 1499.958 749.979 1249.965 749.979 1499.958 499.986" style="fill:#172e3a"/><polygon points="1249.966 749.979 1499.959 749.979 1499.959 999.972 1249.966 749.979" style="fill:#172e3a"/><polygon points="1499.959 999.972 1249.966 999.972 1249.966 749.979 1499.959 999.972" style="fill:#4f799c"/><polygon points="999.973 999.972 999.973 749.979 1249.966 749.979 999.973 999.972" style="fill:#172e3a"/><polygon points="1249.965 749.979 1249.966 999.972 999.973 999.972 1249.965 749.979" style="fill:#2e3d56"/><polygon points="499.986 749.991 749.979 749.991 749.979 999.984 499.986 749.991" style="fill:#4f799c"/><polygon points="749.979 999.972 499.986 999.972 499.986 749.979 749.979 999.972" style="fill:#172e3a"/><polygon points="749.979 999.972 749.979 749.979 999.972 749.979 749.979 999.972" style="fill:#2e3d56"/><polygon points="999.972 749.979 999.972 999.972 749.979 999.972 999.972 749.979" style="fill:#172e3a"/><polygon points="499.986 999.972 249.993 999.972 249.993 749.979 499.986 999.972" style="fill:#4f799c"/><polygon points="249.993 749.979 499.986 749.979 499.986 999.972 249.993 749.979" style="fill:#172e3a"/><polygon points="249.993 749.991 249.993 999.984 0 999.984 249.993 749.991" style="fill:#4f799c"/><polygon points="0 999.972 0 749.979 249.993 749.979 0 999.972" style="fill:#2e3d56"/><circle cx="1124.96885" cy="124.99669" r="82.62082" style="fill:#2e3d56"/><path d="M1096.19093,96.21908a40.69757,40.69757,0,1,0,57.5545,57.55562" style="fill:#172e3a"/><circle cx="374.98973" cy="874.98777" r="82.62099" transform="translate(-248.49716 155.62348) rotate(-17.71779)" style="fill:#172e3a"/><path d="M403.76771,903.76521a40.6975,40.6975,0,1,0-57.55461-57.55529" style="fill:#2e3d56"/><rect x="624.9827" y="0.0126" width="124.99641" height="249.98029" style="fill:#172e3a"/><rect x="624.9827" y="749.99759" width="124.99641" height="249.98029" style="fill:#172e3a"/><polygon points="427.32 572.657 427.319 677.317 322.659 677.317 427.32 572.657" style="fill:#172e3a"/><polygon points="1427.292 177.355 1322.632 177.355 1322.632 72.696 1427.292 177.355" style="fill:#172e3a"/><polygon points="874.967 770.325 874.966 874.985 770.307 874.985 874.967 770.325" style="fill:#172e3a"/><polygon points="124.997 270.33 124.997 374.989 20.337 374.989 124.997 270.33" style="fill:#172e3a"/></svg>