<svg xmlns="http://www.w3.org/2000/svg" viewBox="0 0 1499.92721 999.96329"><title>menu-signup-bg</title><rect x="0.00615" width="1499.92103" height="999.9509" style="fill:#172e3a"/><polygon points="249.988 249.988 0 249.988 0 0 249.988 249.988" style="fill:#172e3a"/><polygon points="0 0.013 249.988 0.013 249.988 250 0 0.013" style="fill:#172e3a"/><polygon points="249.982 124.991 124.991 249.988 0 124.991 249.982 124.991" style="fill:#2e3d56"/><polygon points="0.006 124.997 124.997 0 249.988 124.997 0.006 124.997" style="fill:#4e4888"/><polygon points="249.988 249.988 249.988 0 499.976 0 249.988 249.988" style="fill:#172e3a"/><polygon points="499.976 0 499.976 249.988 249.988 249.988 499.976 0" style="fill:#2e3d56"/><polygon points="499.976 0 749.964 0 749.964 249.988 499.976 0" style="fill:#2e3d56"/><polygon points="749.963 249.988 499.976 249.988 499.976 0 749.963 249.988" style="fill:#2e3d56"/><polygon points="749.964 250 749.964 0.013 999.951 0.013 749.964 250" style="fill:#4e4888"/><polygon points="999.951 0 999.951 249.988 749.964 249.988 999.951 0" style="fill:#172e3a"/><polygon points="822.626 72.672 927.284 72.672 927.284 177.329 822.626 72.672" style="fill:#4e4888"/><polygon points="927.289 177.329 822.631 177.329 822.631 72.672 927.289 177.329" style="fill:#172e3a"/><polygon points="999.951 0 1249.939 0 1249.939 249.988 999.951 0" style="fill:#172e3a"/><polygon points="1249.939 249.988 999.951 249.988 999.951 0 1249.939 249.988" style="fill:#2e3d56"/><polygon points="1249.939 249.988 1249.939 0 1499.927 0 1249.939 249.988" style="fill:#6d5d80"/><polygon points="1499.927 0 1499.927 249.988 1249.939 249.988 1499.927 0" style="fill:#2e3d56"/><polygon points="1249.939 249.988 1499.927 249.988 1499.927 499.976 1249.939 249.988" style="fill:#172e3a"/><polygon points="1499.927 499.988 1249.939 499.988 1249.939 250 1499.927 499.988" style="fill:#4e4888"/><polygon points="1249.939 499.976 999.951 499.976 999.951 249.988 1249.939 499.976" style="fill:#172e3a"/><polygon points="999.951 249.988 1249.939 249.988 1249.939 499.976 999.951 249.988" style="fill:#2e3d56"/><polygon points="999.951 499.976 749.963 499.976 749.964 249.988 999.951 499.976" style="fill:#4e4888"/><polygon points="749.964 250 999.951 250 999.951 499.988 749.964 250" style="fill:#172e3a"/><polygon points="749.964 250 749.964 499.988 499.976 499.988 749.964 250" style="fill:#2e3d56"/><polygon points="499.976 499.988 499.976 250 749.964 250 499.976 499.988" style="fill:#172e3a"/><polygon points="249.988 499.976 249.988 249.988 499.976 249.988 249.988 499.976" style="fill:#6d5d80"/><polygon points="499.976 249.988 499.976 499.976 249.988 499.976 499.976 249.988" style="fill:#172e3a"/><polygon points="249.988 249.988 249.988 499.976 0 499.975 249.988 249.988" style="fill:#172e3a"/><polygon points="0 499.975 0 249.988 249.988 249.988 0 499.975" style="fill:#2e3d56"/><polygon points="249.988 749.963 0 749.963 0 499.976 249.988 749.963" style="fill:#2e3d56"/><polygon points="0 499.988 249.988 499.988 249.988 749.976 0 499.988" style="fill:#2e3d56"/><polygon points="124.993 624.966 124.993 499.982 0.009 499.982 0.003 499.976 0.003 624.966 124.987 624.966 124.993 624.972 124.993 624.966 124.993 624.966 124.993 624.966" style="fill:#172e3a"/><polygon points="249.986 749.959 249.986 624.975 125.002 624.975 124.996 624.969 124.996 749.959 249.98 749.959 249.986 749.965 249.986 749.959 249.986 749.959 249.986 749.959" style="fill:#172e3a"/><polygon points="249.988 749.963 249.988 499.976 499.976 499.976 249.988 749.963" style="fill:#172e3a"/><polygon points="499.976 499.976 499.976 749.963 249.988 749.963 499.976 499.976" style="fill:#6d5d80"/><polygon points="499.976 499.975 749.964 499.975 749.964 749.963 499.976 499.975" style="fill:#2e3d56"/><polygon points="749.963 749.963 499.976 749.963 499.976 499.975 749.963 749.963" style="fill:#172e3a"/><polygon points="749.964 749.976 749.964 499.988 999.951 499.988 749.964 749.976" style="fill:#4e4888"/><polygon points="999.951 499.976 999.951 749.963 749.964 749.963 999.951 499.976" style="fill:#172e3a"/><polygon points="999.951 499.975 1249.939 499.975 1249.939 749.963 999.951 499.975" style="fill:#172e3a"/><polygon points="1249.939 749.963 999.951 749.963 999.951 499.975 1249.939 749.963" style="fill:#2e3d56"/><polygon points="1249.939 749.976 1249.939 499.988 1499.927 499.988 1249.939 749.976" style="fill:#4e4888"/><polygon points="1499.927 499.976 1499.927 749.963 1249.939 749.963 1499.927 499.976" style="fill:#172e3a"/><polygon points="1249.939 749.963 1499.927 749.963 1499.927 999.951 1249.939 749.963" style="fill:#172e3a"/><polygon points="1499.927 999.951 1249.939 999.951 1249.939 749.963 1499.927 999.951" style="fill:#4e4888"/><polygon points="999.952 999.951 999.952 749.963 1249.939 749.963 999.952 999.951" style="fill:#172e3a"/><polygon points="1249.939 749.963 1249.939 999.951 999.952 999.951 1249.939 749.963" style="fill:#6d5d80"/><polygon points="499.976 749.975 749.964 749.975 749.964 999.963 499.976 749.975" style="fill:#4e4888"/><polygon points="749.964 999.951 499.976 999.951 499.976 749.963 749.964 999.951" style="fill:#172e3a"/><polygon points="749.964 999.951 749.964 749.963 999.951 749.963 749.964 999.951" style="fill:#2e3d56"/><polygon points="999.951 749.963 999.951 999.951 749.964 999.951 999.951 749.963" style="fill:#172e3a"/><polygon points="499.976 999.951 249.988 999.951 249.988 749.963 499.976 999.951" style="fill:#6d5d80"/><polygon points="249.988 749.963 499.976 749.963 499.976 999.951 249.988 749.963" style="fill:#172e3a"/><polygon points="249.988 749.975 249.988 999.963 0 999.963 249.988 749.975" style="fill:#4e4888"/><polygon points="0 999.951 0 749.963 249.988 749.963 0 999.951" style="fill:#2e3d56"/><circle cx="1124.94526" cy="124.99404" r="82.61908" style="fill:#2e3d56"/><path d="M1096.16794,96.217a40.69671,40.69671,0,1,0,57.55329,57.5544" style="fill:#172e3a"/><circle cx="374.98187" cy="874.96921" r="82.61925" transform="translate(-239.17997 147.65376) rotate(-16.9802)" style="fill:#172e3a"/><path d="M403.75924,903.74605a40.69664,40.69664,0,1,0-57.5534-57.55407" style="fill:#2e3d56"/><rect x="624.96959" y="0.0126" width="124.99378" height="249.97499" style="fill:#172e3a"/><rect x="624.96959" y="749.98168" width="124.99378" height="249.97499" style="fill:#172e3a"/><polygon points="1322.599 572.641 1427.257 572.641 1427.257 677.298 1322.599 572.641" style="fill:#172e3a"/><polygon points="1427.262 677.298 1322.604 677.298 1322.604 572.641 1427.262 677.298" style="fill:#2e3d56"/></svg>