<svg xmlns="http://www.w3.org/2000/svg" viewBox="0 0 641.90392 401.19721"><title>shape-cluster1</title><polygon points="160.479 80.238 80.242 80.238 80.242 160.475 160.479 80.238" style="fill:#0e2f3b"/><polygon points="80.242 160.475 160.479 160.475 160.479 80.238 80.242 160.475" style="fill:#0e2f3b"/><polygon points="160.479 160.475 80.242 160.475 80.242 240.713 160.479 160.475" style="fill:#0e2f3b"/><polygon points="80.242 240.717 160.479 240.717 160.479 160.479 80.242 240.717" style="fill:#0e2f3b"/><polygon points="160.479 320.954 160.479 240.717 80.242 240.717 160.479 320.954" style="fill:#0e2f3b"/><polygon points="80.242 240.713 80.242 320.95 160.479 320.95 80.242 240.713" style="fill:#0e2f3b"/><polygon points="160.479 320.95 80.242 320.95 80.242 401.187 160.479 320.95" style="fill:#0e2f3b"/><polygon points="80.242 401.187 160.479 401.187 160.479 320.95 80.242 401.187" style="fill:#0e2f3b"/><polygon points="137.165 137.152 137.165 103.561 103.574 103.561 137.165 137.152" style="fill:#0e2f3b"/><polygon points="320.954 80.238 320.954 160.475 401.192 160.475 320.954 80.238" style="fill:#0e2f3b"/><polygon points="377.869 103.563 344.278 103.563 344.278 137.154 377.869 103.563" style="fill:#0e2f3b"/><polygon points="344.276 137.154 377.868 137.154 377.868 103.563 344.276 137.154" style="fill:#0e2f3b"/><polygon points="320.954 80.238 240.717 80.238 240.717 160.475 320.954 80.238" style="fill:#0e2f3b"/><polygon points="240.717 160.475 320.954 160.475 320.954 80.238 240.717 160.475" style="fill:#0e2f3b"/><polygon points="240.717 160.475 240.717 80.238 160.479 80.238 240.717 160.475" style="fill:#0e2f3b"/><polygon points="160.479 80.238 160.479 160.475 240.717 160.475 160.479 80.238" style="fill:#0e2f3b"/><polygon points="240.717 240.713 320.954 240.713 320.954 160.475 240.717 240.713" style="fill:#0e2f3b"/><polygon points="320.954 160.475 240.717 160.475 240.717 240.713 320.954 160.475" style="fill:#0e2f3b"/><polygon points="320.954 240.713 401.192 240.713 401.191 160.475 320.954 240.713" style="fill:#0e2f3b"/><polygon points="401.191 160.479 320.954 160.479 320.954 240.717 401.191 160.479" style="fill:#0e2f3b"/><polygon points="481.429 240.713 481.429 320.95 561.666 320.95 481.429 240.713" style="fill:#0e2f3b"/><polygon points="481.429 240.712 401.191 240.713 401.192 320.95 481.429 240.712" style="fill:#0e2f3b"/><polygon points="401.192 320.95 481.429 320.95 481.429 240.713 401.192 320.95" style="fill:#0e2f3b"/><polygon points="401.192 320.954 401.192 240.717 320.954 240.717 401.192 320.954" style="fill:#0e2f3b"/><polygon points="320.954 240.713 320.954 320.95 401.192 320.95 320.954 240.713" style="fill:#0e2f3b"/><polygon points="320.954 240.713 240.717 240.713 240.717 320.95 320.954 240.713" style="fill:#0e2f3b"/><polygon points="240.717 320.95 320.954 320.95 320.954 240.713 240.717 320.95" style="fill:#0e2f3b"/><polygon points="240.716 320.954 240.716 240.717 160.479 240.717 240.716 320.954" style="fill:#0e2f3b"/><polygon points="160.479 240.713 160.479 320.95 240.717 320.95 160.479 240.713" style="fill:#0e2f3b"/><polygon points="240.716 320.95 160.479 320.95 160.479 401.187 240.716 320.95" style="fill:#0e2f3b"/><polygon points="160.479 401.187 240.716 401.187 240.716 320.95 160.479 401.187" style="fill:#0e2f3b"/><polygon points="320.954 401.187 320.954 320.95 240.716 320.95 320.954 401.187" style="fill:#0e2f3b"/><polygon points="240.717 320.95 240.716 401.187 320.954 401.187 240.717 320.95" style="fill:#0e2f3b"/><polygon points="481.429 320.954 401.191 320.954 401.192 401.191 481.429 320.954" style="fill:#0e2f3b"/><polygon points="401.192 401.187 481.429 401.187 481.429 320.95 401.192 401.187" style="fill:#0e2f3b"/><polygon points="401.192 401.187 401.192 320.95 320.954 320.95 401.192 401.187" style="fill:#0e2f3b"/><polygon points="320.954 320.95 320.954 401.187 401.191 401.187 320.954 320.95" style="fill:#0e2f3b"/><polygon points="481.429 401.187 561.666 401.187 561.666 320.95 481.429 401.187" style="fill:#0e2f3b"/><polygon points="561.666 320.95 481.429 320.95 481.429 401.187 561.666 320.95" style="fill:#0e2f3b"/><polygon points="561.666 320.954 561.666 401.191 641.904 401.191 561.666 320.954" style="fill:#0e2f3b"/><circle cx="280.8353" cy="120.35644" r="26.51788" style="fill:#0e2f3b"/><path d="M290.07183,111.12a13.06225,13.06225,0,1,1-18.47263,18.473" style="fill:#0e2f3b"/><rect x="401.19156" y="320.95594" width="40.1187" height="80.23336" transform="translate(842.50183 722.14524) rotate(-180)" style="fill:#0e2f3b"/><polygon points="217.395 264.036 183.804 264.036 183.804 297.627 217.395 264.036" style="fill:#0e2f3b"/><polygon points="183.802 297.627 217.394 297.627 217.394 264.036 183.802 297.627" style="fill:#0e2f3b"/><rect x="331.14131" y="298.64993" width="59.86296" height="9.20969" rx="4.60484" transform="translate(722.14558 606.50956) rotate(-180)" style="fill:#0e2f3b"/><rect x="331.14131" y="276.23043" width="59.86296" height="9.20969" rx="4.60484" transform="translate(722.14558 561.67054) rotate(-180)" style="fill:#0e2f3b"/><rect x="331.14131" y="253.81092" width="59.86296" height="9.20969" rx="4.60484" transform="translate(722.14558 516.83152) rotate(180)" style="fill:#0e2f3b"/><polygon points="160.479 240.709 240.717 240.709 240.717 160.471 160.479 240.709" style="fill:#0e2f3b"/><polygon points="240.717 160.475 160.479 160.475 160.479 240.713 240.717 160.475" style="fill:#0e2f3b"/><polygon points="200.598 200.589 200.598 160.473 240.714 160.473 240.716 160.471 240.716 200.589 200.6 200.589 200.598 200.591 200.598 200.589 200.598 200.589 200.598 200.589" style="fill:#0e2f3b"/><polygon points="160.48 240.707 160.48 200.592 200.595 200.592 200.597 200.59 200.597 240.707 160.482 240.707 160.48 240.709 160.48 240.707 160.48 240.707 160.48 240.707" style="fill:#0e2f3b"/><circle cx="361.07277" cy="361.07662" r="40.12057" transform="translate(-95.32226 590.10381) rotate(-71.64862)" style="fill:#0e2f3b"/><polygon points="320.954 401.191 401.192 401.191 401.191 320.954 320.954 401.191" style="fill:#0e2f3b"/><circle cx="361.07285" cy="361.07663" r="26.51779" transform="translate(-89.71105 600.95955) rotate(-73.0198)" style="fill:#0e2f3b"/><path d="M351.83631,370.313A13.06222,13.06222,0,1,1,370.309,351.84013" style="fill:#0e2f3b"/><rect x="469.19673" y="356.46384" width="59.86297" height="9.20969" rx="4.60484" transform="translate(138.05953 860.19689) rotate(-90)" style="fill:#0e2f3b"/><rect x="491.61623" y="356.46384" width="59.86297" height="9.20969" rx="4.60484" transform="translate(160.47903 882.61639) rotate(-90)" style="fill:#0e2f3b"/><rect x="514.03573" y="356.46384" width="59.86297" height="9.20969" rx="4.60484" transform="translate(182.89854 905.03589) rotate(-90)" style="fill:#0e2f3b"/><path d="M267.77286,240.71661a13.06219,13.06219,0,1,1,26.12438,0" style="fill:#0e2f3b"/><path d="M293.89753,240.71672a13.06218,13.06218,0,0,1-26.12435-.00011" style="fill:#0e2f3b"/><polygon points="80.242 0 80.242 80.238 160.479 80.238 80.242 0" style="fill:#0e2f3b"/><polygon points="160.479 80.238 160.479 0 80.242 0 160.479 80.238" style="fill:#0e2f3b"/><polygon points="160.479 80.238 240.717 80.238 240.717 0 160.479 80.238" style="fill:#0e2f3b"/><polygon points="240.717 0 160.479 0 160.479 80.238 240.717 0" style="fill:#0e2f3b"/><path d="M95.03373,13.09475H145.687a4.60484,4.60484,0,0,1,4.60484,4.60484v0a4.60484,4.60484,0,0,1-4.60484,4.60484H95.03372a4.60483,4.60483,0,0,1-4.60483-4.60483v0A4.60484,4.60484,0,0,1,95.03373,13.09475Z" style="fill:#0e2f3b"/><rect x="90.42889" y="35.51425" width="59.86298" height="9.20968" rx="4.60484" style="fill:#0e2f3b"/><rect x="90.4289" y="57.93375" width="59.86298" height="9.20968" rx="4.60484" style="fill:#0e2f3b"/><polygon points="0.004 80.237 80.242 80.237 80.242 0 0.004 80.237" style="fill:#0e2f3b"/><polygon points="80.241 0 0.004 0 0.004 80.237 80.241 0" style="fill:#0e2f3b"/><polygon points="80.238 240.712 80.238 160.475 0 160.475 80.238 240.712" style="fill:#0e2f3b"/><polygon points="0.004 160.475 0.004 240.712 80.242 240.712 0.004 160.475" style="fill:#0e2f3b"/><polygon points="0.004 160.475 80.241 160.475 80.241 80.238 0.004 160.475" style="fill:#0e2f3b"/><polygon points="80.241 80.238 0.004 80.238 0.004 160.475 80.241 80.238" style="fill:#0e2f3b"/><polygon points="0.004 240.712 0.004 320.95 80.241 320.95 0.004 240.712" style="fill:#0e2f3b"/><polygon points="80.241 320.95 80.241 240.712 0.004 240.712 80.241 320.95" style="fill:#0e2f3b"/><polygon points="80.238 320.95 0 320.95 0 401.187 80.238 320.95" style="fill:#0e2f3b"/><polygon points="0.004 401.187 80.242 401.187 80.242 320.95 0.004 401.187" style="fill:#0e2f3b"/><circle cx="40.11879" cy="280.83121" r="26.51793" transform="translate(-240.81613 241.44523) rotate(-73.88926)" style="fill:#0e2f3b"/><path d="M30.88242,271.59467a13.06221,13.06221,0,1,1,18.47287,18.47265" style="fill:#0e2f3b"/><rect x="20.05945" y="140.41775" width="40.1187" height="80.23334" transform="translate(-140.41562 220.65323) rotate(-90)" style="fill:#0e2f3b"/><polygon points="160.479 80.238 80.242 80.238 80.242 160.475 160.479 80.238" style="fill:#638495"/><polygon points="80.242 160.475 160.479 160.475 160.479 80.238 80.242 160.475" style="fill:#2a3d58"/><polygon points="160.479 160.475 80.242 160.475 80.242 240.713 160.479 160.475" style="fill:#0e2f3b"/><polygon points="80.242 240.717 160.479 240.717 160.479 160.479 80.242 240.717" style="fill:#52575b"/><polygon points="160.479 320.954 160.479 240.717 80.242 240.717 160.479 320.954" style="fill:#8a8359"/><polygon points="80.242 240.713 80.242 320.95 160.479 320.95 80.242 240.713" style="fill:#0e2f3b"/><polygon points="160.479 320.95 80.242 320.95 80.242 401.187 160.479 320.95" style="fill:#0e2f3b"/><polygon points="80.242 401.187 160.479 401.187 160.479 320.95 80.242 401.187" style="fill:#427aa0"/><polygon points="137.165 137.152 137.165 103.561 103.574 103.561 137.165 137.152" style="fill:#0e2f3b"/><polygon points="320.954 80.238 320.954 160.475 401.192 160.475 320.954 80.238" style="fill:#0e2f3b"/><polygon points="377.869 103.563 344.278 103.563 344.278 137.154 377.869 103.563" style="fill:#8f8e91"/><polygon points="344.276 137.154 377.868 137.154 377.868 103.563 344.276 137.154" style="fill:#0e2f3b"/><polygon points="320.954 80.238 240.717 80.238 240.717 160.475 320.954 80.238" style="fill:#0e2f3b"/><polygon points="240.717 160.475 320.954 160.475 320.954 80.238 240.717 160.475" style="fill:#2a3d58"/><polygon points="240.717 160.475 240.717 80.238 160.479 80.238 240.717 160.475" style="fill:#518989"/><polygon points="160.479 80.238 160.479 160.475 240.717 160.475 160.479 80.238" style="fill:#2a3d58"/><polygon points="240.717 240.713 320.954 240.713 320.954 160.475 240.717 240.713" style="fill:#0e2f3b"/><polygon points="320.954 160.475 240.717 160.475 240.717 240.713 320.954 160.475" style="fill:#2a3d58"/><polygon points="320.954 240.713 401.192 240.713 401.191 160.475 320.954 240.713" style="fill:#427aa0"/><polygon points="401.191 160.479 320.954 160.479 320.954 240.717 401.191 160.479" style="fill:#0e2f3b"/><polygon points="481.429 240.713 481.429 320.95 561.666 320.95 481.429 240.713" style="fill:#518989"/><polygon points="481.429 240.712 401.191 240.713 401.192 320.95 481.429 240.712" style="fill:#828d79"/><polygon points="401.192 320.95 481.429 320.95 481.429 240.713 401.192 320.95" style="fill:#0e2f3b"/><polygon points="401.192 320.954 401.192 240.717 320.954 240.717 401.192 320.954" style="fill:#427aa0"/><polygon points="320.954 240.713 320.954 320.95 401.192 320.95 320.954 240.713" style="fill:#0e2f3b"/><polygon points="320.954 240.713 240.717 240.713 240.717 320.95 320.954 240.713" style="fill:#0e2f3b"/><polygon points="240.717 320.95 320.954 320.95 320.954 240.713 240.717 320.95" style="fill:#9b6053"/><polygon points="240.716 320.954 240.716 240.717 160.479 240.717 240.716 320.954" style="fill:#50468e"/><polygon points="160.479 240.713 160.479 320.95 240.717 320.95 160.479 240.713" style="fill:#0e2f3b"/><polygon points="240.716 320.95 160.479 320.95 160.479 401.187 240.716 320.95" style="fill:#0e2f3b"/><polygon points="160.479 401.187 240.716 401.187 240.716 320.95 160.479 401.187" style="fill:#50468e"/><polygon points="320.954 401.187 320.954 320.95 240.716 320.95 320.954 401.187" style="fill:#0e2f3b"/><polygon points="240.717 320.95 240.716 401.187 320.954 401.187 240.717 320.95" style="fill:#705c84"/><polygon points="481.429 320.954 401.191 320.954 401.192 401.191 481.429 320.954" style="fill:#50468e"/><polygon points="401.192 401.187 481.429 401.187 481.429 320.95 401.192 401.187" style="fill:#0e2f3b"/><polygon points="401.192 401.187 401.192 320.95 320.954 320.95 401.192 401.187" style="fill:#0e2f3b"/><polygon points="320.954 320.95 320.954 401.187 401.191 401.187 320.954 320.95" style="fill:#0e2f3b"/><polygon points="481.429 401.187 561.666 401.187 561.666 320.95 481.429 401.187" style="fill:#705c84"/><polygon points="561.666 320.95 481.429 320.95 481.429 401.187 561.666 320.95" style="fill:#0e2f3b"/><polygon points="561.666 320.954 561.666 401.191 641.904 401.191 561.666 320.954" style="fill:#638495"/><circle cx="280.8353" cy="120.35644" r="26.51788" style="fill:#2a3d58"/><path d="M290.07183,111.12a13.06225,13.06225,0,1,1-18.47263,18.473" style="fill:#0e2f3b"/><rect x="401.19156" y="320.95594" width="40.1187" height="80.23336" transform="translate(842.50183 722.14524) rotate(-180)" style="fill:#0e2f3b"/><polygon points="217.395 264.036 183.804 264.036 183.804 297.627 217.395 264.036" style="fill:#0e2f3b"/><polygon points="183.802 297.627 217.394 297.627 217.394 264.036 183.802 297.627" style="fill:#2a3d58"/><rect x="331.14131" y="298.64993" width="59.86296" height="9.20969" rx="4.60484" transform="translate(722.14558 606.50956) rotate(-180)" style="fill:#0e2f3b"/><rect x="331.14131" y="276.23043" width="59.86296" height="9.20969" rx="4.60484" transform="translate(722.14558 561.67054) rotate(-180)" style="fill:#0e2f3b"/><rect x="331.14131" y="253.81092" width="59.86296" height="9.20969" rx="4.60484" transform="translate(722.14558 516.83152) rotate(180)" style="fill:#0e2f3b"/><polygon points="160.479 240.709 240.717 240.709 240.717 160.471 160.479 240.709" style="fill:#828d79"/><polygon points="240.717 160.475 160.479 160.475 160.479 240.713 240.717 160.475" style="fill:#828d79"/><polygon points="200.598 200.589 200.598 160.473 240.714 160.473 240.716 160.471 240.716 200.589 200.6 200.589 200.598 200.591 200.598 200.589 200.598 200.589 200.598 200.589" style="fill:#0e2f3b"/><polygon points="160.48 240.707 160.48 200.592 200.595 200.592 200.597 200.59 200.597 240.707 160.482 240.707 160.48 240.709 160.48 240.707 160.48 240.707 160.48 240.707" style="fill:#0e2f3b"/><circle cx="361.07277" cy="361.07662" r="40.12057" transform="translate(-95.32226 590.10381) rotate(-71.64862)" style="fill:#2a3d58"/><polygon points="320.954 401.191 401.192 401.191 401.191 320.954 320.954 401.191" style="fill:#8a8359"/><circle cx="361.07285" cy="361.07663" r="26.51779" transform="translate(-89.71105 600.95955) rotate(-73.0198)" style="fill:#0e2f3b"/><path d="M351.83631,370.313A13.06222,13.06222,0,1,1,370.309,351.84013" style="fill:#8a8359"/><rect x="469.19673" y="356.46384" width="59.86297" height="9.20969" rx="4.60484" transform="translate(138.05953 860.19689) rotate(-90)" style="fill:#0e2f3b"/><rect x="491.61623" y="356.46384" width="59.86297" height="9.20969" rx="4.60484" transform="translate(160.47903 882.61639) rotate(-90)" style="fill:#0e2f3b"/><rect x="514.03573" y="356.46384" width="59.86297" height="9.20969" rx="4.60484" transform="translate(182.89854 905.03589) rotate(-90)" style="fill:#0e2f3b"/><path d="M267.77286,240.71661a13.06219,13.06219,0,1,1,26.12438,0" style="fill:#8a8359"/><path d="M293.89753,240.71672a13.06218,13.06218,0,0,1-26.12435-.00011" style="fill:#0e2f3b"/><polygon points="80.242 0 80.242 80.238 160.479 80.238 80.242 0" style="fill:#0e2f3b"/><polygon points="160.479 80.238 160.479 0 80.242 0 160.479 80.238" style="fill:#2a3d58"/><polygon points="160.479 80.238 240.717 80.238 240.717 0 160.479 80.238" style="fill:#2a3d58"/><polygon points="240.717 0 160.479 0 160.479 80.238 240.717 0" style="fill:#50468e"/><path d="M95.03373,13.09475H145.687a4.60484,4.60484,0,0,1,4.60484,4.60484v0a4.60484,4.60484,0,0,1-4.60484,4.60484H95.03372a4.60483,4.60483,0,0,1-4.60483-4.60483v0A4.60484,4.60484,0,0,1,95.03373,13.09475Z" style="fill:#0e2f3b"/><rect x="90.42889" y="35.51425" width="59.86298" height="9.20968" rx="4.60484" style="fill:#0e2f3b"/><rect x="90.4289" y="57.93375" width="59.86298" height="9.20968" rx="4.60484" style="fill:#0e2f3b"/><polygon points="0.004 80.237 80.242 80.237 80.242 0 0.004 80.237" style="fill:#0e2f3b"/><polygon points="80.241 0 0.004 0 0.004 80.237 80.241 0" style="fill:#705c84"/><polygon points="80.238 240.712 80.238 160.475 0 160.475 80.238 240.712" style="fill:#50468e"/><polygon points="0.004 160.475 0.004 240.712 80.242 240.712 0.004 160.475" style="fill:#0e2f3b"/><polygon points="0.004 160.475 80.241 160.475 80.241 80.238 0.004 160.475" style="fill:#2a3d58"/><polygon points="80.241 80.238 0.004 80.238 0.004 160.475 80.241 80.238" style="fill:#0e2f3b"/><polygon points="0.004 240.712 0.004 320.95 80.241 320.95 0.004 240.712" style="fill:#705c84"/><polygon points="80.241 320.95 80.241 240.712 0.004 240.712 80.241 320.95" style="fill:#0e2f3b"/><polygon points="80.238 320.95 0 320.95 0 401.187 80.238 320.95" style="fill:#50468e"/><polygon points="0.004 401.187 80.242 401.187 80.242 320.95 0.004 401.187" style="fill:#2a3d58"/><circle cx="40.11879" cy="280.83121" r="26.51793" transform="translate(-240.81613 241.44523) rotate(-73.88926)" style="fill:#0e2f3b"/><path d="M30.88242,271.59467a13.06221,13.06221,0,1,1,18.47287,18.47265" style="fill:#2a3d58"/><rect x="20.05945" y="140.41775" width="40.1187" height="80.23334" transform="translate(-140.41562 220.65323) rotate(-90)" style="fill:#0e2f3b"/></svg>