<svg xmlns="http://www.w3.org/2000/svg" viewBox="0 0 160.47894 320.94991"><title>shape-cluster2</title><polygon points="80.238 80.238 80.238 160.475 0 160.475 80.238 80.238" style="fill:#0e2f3b"/><polygon points="0.004 160.475 80.241 160.475 80.241 240.712 0.004 160.475" style="fill:#0e2f3b"/><polygon points="80.238 240.712 160.475 240.712 160.475 320.95 80.238 240.712" style="fill:#0e2f3b"/><polygon points="80.237 240.712 80.237 160.475 160.475 160.475 80.237 240.712" style="fill:#0e2f3b"/><polygon points="160.475 160.475 160.475 240.712 80.237 240.712 160.475 160.475" style="fill:#0e2f3b"/><polygon points="160.479 160.475 80.241 160.475 80.241 80.238 160.479 160.475" style="fill:#0e2f3b"/><polygon points="80.238 80.237 160.475 80.237 160.475 160.475 80.238 80.237" style="fill:#0e2f3b"/><polygon points="160.475 0 160.475 80.237 80.237 80.237 160.475 0" style="fill:#0e2f3b"/><polygon points="80.238 80.238 80.238 160.475 0 160.475 80.238 80.238" style="fill:#50468e"/><polygon points="0.004 160.475 80.241 160.475 80.241 240.712 0.004 160.475" style="fill:#2a3d58"/><polygon points="80.238 240.712 160.475 240.712 160.475 320.95 80.238 240.712" style="fill:#705c84"/><polygon points="80.237 240.712 80.237 160.475 160.475 160.475 80.237 240.712" style="fill:#2a3d58"/><polygon points="160.475 160.475 160.475 240.712 80.237 240.712 160.475 160.475" style="fill:#0e2f3b"/><polygon points="160.479 160.475 80.241 160.475 80.241 80.238 160.479 160.475" style="fill:#50468e"/><polygon points="80.238 80.237 160.475 80.237 160.475 160.475 80.238 80.237" style="fill:#0e2f3b"/><polygon points="160.475 0 160.475 80.237 80.237 80.237 160.475 0" style="fill:#2a3d58"/></svg>