<svg xmlns="http://www.w3.org/2000/svg" xmlns:xlink="http://www.w3.org/1999/xlink" viewBox="0 0 501.50002 601.49997"><defs><clipPath id="a"><rect x="0.0004" y="0.07718" width="501.49998" height="601.5" style="fill:none"/></clipPath></defs><title>use-cases-bg1</title><rect width="501.50002" height="601.49997" style="fill:#0e2f3b"/><g style="clip-path:url(#a)"><polygon points="374.56 282.803 374.56 129.79 527.573 129.79 374.56 282.803" style="fill:#2a3d58"/><polygon points="451.066 142.238 451.066 206.297 387.007 206.297 451.066 142.238" style="fill:#0e2f3b"/><polygon points="374.56 282.803 374.56 282.803 527.573 435.816 527.573 282.804 527.573 282.804 527.573 129.79 374.56 282.803" style="fill:#4f799c"/><polygon points="527.573 435.817 374.559 435.817 374.56 282.804 527.573 435.817" style="fill:#2a3d58"/><polygon points="387.007 359.31 451.066 359.31 451.066 423.369 387.007 359.31" style="fill:#0e2f3b"/><polygon points="374.56 83.007 374.56 -70.007 527.573 -70.007 374.56 83.007" style="fill:#638495"/><polygon points="527.573 -70.007 527.573 83.006 374.56 83.007 527.573 -70.007" style="fill:#638495"/><path d="M426.1198,1.67313l-.021-20.798a24.98409,24.98409,0,0,1,24.88037-25.02536h.07819a24.98566,24.98566,0,0,1,24.956,24.88053l.02088,20.93463-8.29807.00811-.02087-20.926a16.6764,16.6764,0,0,0-16.65848-16.59918h-.052a16.67821,16.67821,0,0,0-16.608,16.71051l.021,20.80658Z" style="fill:#2f4259"/><polygon points="422.298 54.932 479.839 54.932 479.838 -2.609 422.298 54.932" style="fill:#0e2f3b"/><polygon points="479.838 -2.609 422.298 -2.609 422.298 54.932 479.838 -2.609" style="fill:#0e2f3b"/><circle cx="451.06249" cy="26.16158" r="23.42572" style="fill:#638495"/><polygon points="422.295 -2.609 422.296 54.932 479.836 54.932 422.295 -2.609" style="fill:#2f4259"/><circle cx="451.06237" cy="26.16156" r="15.48331" style="fill:#0e2f3b"/><path d="M445.66951,20.76859a7.62676,7.62676,0,1,1,10.80014,10.77157l-.01422.01422" style="fill:#638495"/><path d="M456.45546,31.55438a7.62678,7.62678,0,0,1-10.786-10.78579" style="fill:#2f4259"/><polygon points="374.56 635.194 374.56 482.181 527.573 482.181 374.56 635.194" style="fill:#638495"/><polygon points="527.573 482.181 527.573 635.194 374.56 635.194 527.573 482.181" style="fill:#638495"/><path d="M426.1198,553.86063l-.021-20.798a24.98405,24.98405,0,0,1,24.88037-25.02539h.07819a24.98571,24.98571,0,0,1,24.956,24.8805l.02088,20.93463-8.29807.00811-.02087-20.926a16.6764,16.6764,0,0,0-16.65848-16.59918h-.052a16.67823,16.67823,0,0,0-16.608,16.71051l.021,20.80658Z" style="fill:#2f4259"/><polygon points="422.298 607.119 479.839 607.119 479.838 549.579 422.298 607.119" style="fill:#0e2f3b"/><polygon points="479.838 549.579 422.298 549.579 422.298 607.119 479.838 549.579" style="fill:#0e2f3b"/><circle cx="451.06249" cy="578.34919" r="23.42572" style="fill:#638495"/><polygon points="422.295 549.579 422.296 607.119 479.836 607.119 422.295 549.579" style="fill:#2f4259"/><circle cx="451.06038" cy="578.35327" r="15.48325" transform="translate(-168.32254 971.17993) rotate(-84.43296)" style="fill:#0e2f3b"/><path d="M445.66951,572.95615A7.62676,7.62676,0,1,1,456.45543,583.742" style="fill:#638495"/><path d="M456.45546,583.74191a7.62679,7.62679,0,1,1-10.786-10.78582" style="fill:#2f4259"/><polygon points="175.092 9.855 175.092 -143.158 328.105 -143.158 175.092 9.855" style="fill:#2a3d58"/><polygon points="175.092 9.855 175.092 9.855 328.105 162.868 328.105 9.855 328.105 9.855 328.105 -143.158 175.092 9.855" style="fill:#4f799c"/><polygon points="328.105 162.868 175.092 162.868 175.092 9.855 328.105 162.868" style="fill:#2a3d58"/><polygon points="187.539 86.362 251.598 86.362 251.598 150.421 187.539 86.362" style="fill:#0e2f3b"/><polygon points="328.105 408.489 328.105 561.503 175.092 561.503 328.105 408.489" style="fill:#4f799c"/><polygon points="175.092 561.502 175.092 408.489 328.105 408.489 175.092 561.502" style="fill:#2a3d58"/><polygon points="251.599 420.937 251.599 484.996 187.54 484.996 251.599 420.937" style="fill:#0e2f3b"/><polygon points="175.092 561.502 328.105 561.503 328.105 714.516 175.092 561.502" style="fill:#4f799c"/><polygon points="328.105 714.516 175.092 714.516 175.092 561.503 328.105 714.516" style="fill:#2a3d58"/><polygon points="175.092 362.246 175.092 209.233 328.105 209.233 175.092 362.246" style="fill:#638495"/><polygon points="328.105 209.233 328.105 362.246 175.092 362.246 328.105 209.233" style="fill:#638495"/><path d="M226.652,280.91238l-.021-20.798A24.984,24.984,0,0,1,251.51137,235.089h.07818a24.98571,24.98571,0,0,1,24.956,24.88049l.02087,20.93463-8.29806.00812-.02088-20.926a16.67642,16.67642,0,0,0-16.65841-16.59912h-.052a16.67822,16.67822,0,0,0-16.608,16.71051l.021,20.80658Z" style="fill:#2f4259"/><polygon points="222.831 334.171 280.371 334.171 280.371 276.63 222.831 334.171" style="fill:#0e2f3b"/><polygon points="280.371 276.63 222.83 276.63 222.831 334.171 280.371 276.63" style="fill:#0e2f3b"/><circle cx="251.59471" cy="305.40085" r="23.42572" style="fill:#638495"/><polygon points="222.827 276.63 222.828 334.171 280.368 334.171 222.827 276.63" style="fill:#2f4259"/><circle cx="251.59471" cy="305.40096" r="15.48331" transform="translate(-76.77243 526.1829) rotate(-84.43313)" style="fill:#0e2f3b"/><path d="M246.20171,300.00784a7.62677,7.62677,0,1,1,10.78592,10.78583h0" style="fill:#638495"/><path d="M256.98769,310.79367a7.6268,7.6268,0,1,1-10.786-10.78583" style="fill:#2f4259"/><polygon points="-28.26 282.803 -28.26 129.79 124.754 129.79 -28.26 282.803" style="fill:#2a3d58"/><polygon points="48.247 142.238 48.247 206.297 -15.812 206.297 48.247 142.238" style="fill:#0e2f3b"/><polygon points="-28.259 282.803 -28.26 282.803 124.753 435.816 124.753 282.804 124.754 282.804 124.754 129.79 -28.259 282.803" style="fill:#4f799c"/><polygon points="124.753 435.817 -28.26 435.817 -28.26 282.804 124.753 435.817" style="fill:#2a3d58"/><polygon points="-15.812 359.31 48.247 359.31 48.247 423.369 -15.812 359.31" style="fill:#0e2f3b"/><polygon points="-28.26 83.007 -28.26 -70.007 124.754 -70.007 -28.26 83.007" style="fill:#638495"/><polygon points="124.754 -70.007 124.754 83.006 -28.259 83.007 124.754 -70.007" style="fill:#638495"/><path d="M23.30035,1.67313l-.021-20.798A24.98407,24.98407,0,0,1,48.1597-44.15021h.0782a24.98568,24.98568,0,0,1,24.956,24.88053L73.21477,1.665l-8.29808.00812-.02087-20.926A16.67642,16.67642,0,0,0,48.23735-35.85211h-.052a16.6782,16.6782,0,0,0-16.608,16.71051l.021,20.80658Z" style="fill:#2f4259"/><polygon points="19.479 54.932 77.019 54.932 77.019 -2.609 19.479 54.932" style="fill:#0e2f3b"/><polygon points="77.019 -2.609 19.479 -2.609 19.479 54.932 77.019 -2.609" style="fill:#0e2f3b"/><circle cx="48.24303" cy="26.16159" r="23.42572" style="fill:#638495"/><polygon points="19.476 -2.609 19.476 54.932 77.016 54.932 19.476 -2.609" style="fill:#2f4259"/><circle cx="48.24298" cy="26.16156" r="15.4833" style="fill:#0e2f3b"/><path d="M42.85007,20.76859A7.62676,7.62676,0,0,1,53.636,31.55438h0" style="fill:#638495"/><path d="M53.636,31.55438A7.62678,7.62678,0,0,1,42.85,20.76859h0" style="fill:#2f4259"/><polygon points="-28.26 635.194 -28.26 482.181 124.754 482.181 -28.26 635.194" style="fill:#638495"/><polygon points="124.754 482.181 124.754 635.194 -28.259 635.194 124.754 482.181" style="fill:#638495"/><path d="M23.30035,553.86063l-.021-20.798A24.98411,24.98411,0,0,1,48.1597,508.03732h.0782a24.98572,24.98572,0,0,1,24.956,24.8805l.02087,20.93463-8.29808.00812-.02087-20.926a16.6764,16.6764,0,0,0-16.65847-16.59918h-.052a16.67822,16.67822,0,0,0-16.608,16.71051l.021,20.80658Z" style="fill:#2f4259"/><polygon points="19.479 607.119 77.019 607.119 77.019 549.579 19.479 607.119" style="fill:#0e2f3b"/><polygon points="77.019 549.579 19.479 549.579 19.479 607.119 77.019 549.579" style="fill:#0e2f3b"/><circle cx="48.24303" cy="578.34914" r="23.42572" style="fill:#638495"/><polygon points="19.476 549.579 19.476 607.119 77.016 607.119 19.476 549.579" style="fill:#2f4259"/><circle cx="48.24303" cy="578.34924" r="15.4833" transform="translate(-532.05844 570.26056) rotate(-84.43313)" style="fill:#0e2f3b"/><path d="M42.85007,572.95615A7.62677,7.62677,0,1,1,53.636,583.742" style="fill:#638495"/><path d="M53.636,583.74191A7.62679,7.62679,0,0,1,42.85,572.95609" style="fill:#2f4259"/></g></svg>