<svg xmlns="http://www.w3.org/2000/svg" xmlns:xlink="http://www.w3.org/1999/xlink" viewBox="0 0 646.778 429.59427"><defs><clipPath id="a"><rect width="646.778" height="429.59427" style="fill:none"/></clipPath><clipPath id="b"><circle cx="323.38902" cy="219.27777" r="105" style="fill:none"/></clipPath><clipPath id="c"><circle cx="270.2249" cy="429.59428" r="74.41194" style="fill:none"/></clipPath><clipPath id="d"><circle cx="101.60149" cy="104.52755" r="71.18637" transform="translate(-44.15375 102.45851) rotate(-45)" style="fill:none"/></clipPath><clipPath id="e"><circle cx="479.38903" cy="27.55158" r="59.15282" style="fill:none"/></clipPath><radialGradient id="f" cx="323.389" cy="268.9619" r="274.51617" gradientTransform="matrix(1, 0, 0, -1, 0, 483.75904)" gradientUnits="userSpaceOnUse"><stop offset="0" stop-color="#00303c" stop-opacity="0"/><stop offset="0.33814" stop-color="#00303c" stop-opacity="0.02876"/><stop offset="1" stop-color="#00303c"/></radialGradient></defs><title>use-cases-bg2</title><g style="clip-path:url(#a)"><rect width="646.778" height="429.59427" style="fill:#0e2f3b"/><circle cx="142.9847" cy="320.92352" r="40.12039" style="fill:#2a3d58"/><circle cx="142.98466" cy="320.9235" r="26.51769" transform="translate(-208.33827 323.8743) rotate(-66.46628)" style="fill:#0e2f3b"/><path d="M142.98476,333.98575a13.07127,13.07127,0,0,0,1.378-26.1062c-.45863-.0242-.91821-.0242-1.37781-.01816" style="fill:#8a8359"/><path d="M142.98492,307.86139a13.08009,13.08009,0,0,0-1.94754,26.08756c.64733.04834,1.29735.04834,1.94738.03625" style="fill:#2a3d58"/><circle cx="341.45801" cy="0.00001" r="40.1204" style="fill:#2a3d58"/><circle cx="341.45796" cy="-0.00005" r="26.51767" transform="translate(205.11769 313.05724) rotate(-66.46628)" style="fill:#0e2f3b"/><path d="M341.458,13.06222A13.06217,13.06217,0,0,0,354.52028.00014a13.06216,13.06216,0,0,0-13.06207-13.06226" style="fill:#8a8359"/><path d="M341.45821-13.06212A13.06192,13.06192,0,0,0,328.39607-.00031,13.062,13.062,0,0,0,341.458,13.06184v-.00015" style="fill:#2a3d58"/><circle cx="542.1624" cy="391.66136" r="84.19883" style="fill:#2a3d58"/><circle cx="542.16221" cy="391.66127" r="55.65143" transform="translate(-83.27477 154.66551) rotate(-15.09146)" style="fill:#0e2f3b"/><path d="M561.54631,411.04505a27.41281,27.41281,0,1,0-38.7511-38.784l-.01623.01624" style="fill:#8a8359"/><path d="M522.779,372.27726a27.41226,27.41226,0,1,0,38.7666,38.767" style="fill:#2a3d58"/><circle cx="323.38902" cy="219.27777" r="105" style="fill:#9b6053"/><circle cx="532.96617" cy="243.50498" r="41.43367" style="fill:#8a8359"/><circle cy="243.50498" r="41.43368" style="fill:#8a8359"/><circle cx="250.00188" cy="68.69114" r="29.26919" style="fill:#8a8359"/><circle cx="392.28242" cy="388.16059" r="23.16595" style="fill:#8a8359"/><circle cx="640.11491" cy="114.27777" r="77.27003" style="fill:#9b6053"/><circle cx="45.11741" cy="442.91459" r="77.27005" style="fill:#9b6053"/><path d="M475.56316,187.72234a13.06222,13.06222,0,1,0-18.451-18.49452l-.0217.0217" style="fill:#8a8359"/><path d="M457.09047,169.24952a13.062,13.062,0,0,0,18.428,18.51678l.04431-.0443" style="fill:#2a3d58"/><path d="M127.72569,230.42636a13.06206,13.06206,0,0,0-26.12411-.01608v.01676" style="fill:#8a8359"/><path d="M101.60158,230.427a13.06179,13.06179,0,1,0,26.12358-.00068h0" style="fill:#2a3d58"/><g style="clip-path:url(#b)"><path d="M323.22185,166.63591a33.82228,33.82228,0,0,0-33.82251,33.822v35.79023h12.16845v17.06055a10,10,0,0,0,10,10h10.48584v72.49384h34.99051V200.45816A33.8222,33.8222,0,0,0,323.222,166.63591Z" style="fill:#2f4259"/><path d="M381.28682,342.7551V321.59052a48.62233,48.62233,0,0,0-97.24466,0v21.16455Z" style="fill:#2f4259"/><path d="M323.22188,189.63594a10.83445,10.83445,0,0,1,10.82226,10.822h22.99994a33.8223,33.8223,0,0,0-67.64459,0h23.00012A10.83447,10.83447,0,0,1,323.22188,189.63594Z" style="fill:#0e2f3b"/><path d="M323.22188,189.63594a10.83445,10.83445,0,0,1,10.82226,10.822h22.99994a33.8223,33.8223,0,0,0-67.64459,0h23.00012A10.83447,10.83447,0,0,1,323.22188,189.63594Z" style="fill:#0e2f3b;opacity:0.5;isolation:isolate"/><circle cx="308.39641" cy="211.50922" r="2.75771" style="fill:#9b6053"/><path d="M323.22206,173.63543a26.8551,26.8551,0,0,0-26.80374,25.82225v1.00024h9.00928v-1.00024a17.82242,17.82242,0,0,1,35.6167,1v142.5816l9-.001V200.45768A26.85238,26.85238,0,0,0,323.22206,173.63543Z" style="fill:#9b6053"/></g><circle cx="270.2249" cy="429.59428" r="74.41194" style="fill:#8a8359"/><g style="clip-path:url(#c)"><path d="M270.11568,390.655A25.19512,25.19512,0,0,1,295.311,415.85v26.66113h-9.06464v12.70886a7.44929,7.44929,0,0,1-7.44925,7.44928h-7.81118v54.0026H244.92058V415.85013a25.19507,25.19507,0,0,1,25.195-25.1951Z" style="fill:#2f4259"/><path d="M270.11568,407.78836a8.07089,8.07089,0,0,0-8.0618,8.06162H244.92061a25.19513,25.19513,0,0,1,50.39026,0h-17.1334A8.07088,8.07088,0,0,0,270.11568,407.78836Z" style="fill:#0e2f3b"/><path d="M270.11568,407.78836a8.07089,8.07089,0,0,0-8.0618,8.06162H244.92061a25.19513,25.19513,0,0,1,50.39026,0h-17.1334A8.07088,8.07088,0,0,0,270.11568,407.78836Z" style="fill:#0e2f3b;opacity:0.5;isolation:isolate"/><circle cx="281.15956" cy="424.08234" r="2.05429" style="fill:#8a8359"/><path d="M270.11555,395.86914a20.00506,20.00506,0,0,1,19.9668,19.23569V415.85h-6.71124v-.74512a13.2764,13.2764,0,0,0-26.53183.74494V522.06256l-6.70435-.00073V415.84977A20.003,20.003,0,0,1,270.11555,395.86914Z" style="fill:#8a8359"/></g><circle cx="101.60149" cy="104.52755" r="71.18637" transform="translate(-44.15375 102.45851) rotate(-45)" style="fill:#9b6053"/><g style="clip-path:url(#d)"><path d="M101.7148,68.83815a22.93034,22.93034,0,0,1,22.93052,22.93018v24.26458h-8.2498v11.56647a6.77967,6.77967,0,0,1-6.77966,6.77965h-7.109v49.14834H78.78449V91.76852a22.9303,22.9303,0,0,1,22.93022-22.93037Z" style="fill:#2f4259"/><path d="M62.34879,188.24092V173.89207a32.96426,32.96426,0,0,1,65.92852,0v14.34885Z" style="fill:#2f4259"/><path d="M101.7148,84.4314a7.34539,7.34539,0,0,0-7.33713,7.337H78.78451a22.93035,22.93035,0,0,1,45.86069,0H109.05193A7.34538,7.34538,0,0,0,101.7148,84.4314Z" style="fill:#0e2f3b"/><path d="M101.7148,84.4314a7.34539,7.34539,0,0,0-7.33713,7.337H78.78451a22.93035,22.93035,0,0,1,45.86069,0H109.05193A7.34538,7.34538,0,0,0,101.7148,84.4314Z" style="fill:#0e2f3b;opacity:0.5;isolation:isolate"/><circle cx="111.76595" cy="99.26073" r="1.86964" style="fill:#9b6053"/><path d="M101.71468,73.58358a18.20686,18.20686,0,0,1,18.172,17.50661v.67814h-6.108v-.67814a12.083,12.083,0,0,0-24.1469.678v96.66543l-6.10169-.00067V91.76817A18.205,18.205,0,0,1,101.71468,73.58358Z" style="fill:#9b6053"/></g><circle cx="479.38903" cy="27.55158" r="59.15282" style="fill:#8a8359"/><g style="clip-path:url(#e)"><path d="M479.47581-3.40268a20.02852,20.02852,0,0,0-20.02865,20.02839V37.81963h7.20578V47.92237a5.92171,5.92171,0,0,0,5.92169,5.9217H478.784V96.77274h20.72028V16.62585A20.02851,20.02851,0,0,0,479.47588-3.40268Z" style="fill:#2f4259"/><path d="M513.86015,100.8898V88.3568a28.79267,28.79267,0,0,0-57.58532,0v12.533Z" style="fill:#2f4259"/><path d="M479.47581,10.21726a6.41584,6.41584,0,0,1,6.40864,6.40847h13.61987a20.02854,20.02854,0,0,0-40.05707,0h13.62A6.4158,6.4158,0,0,1,479.47581,10.21726Z" style="fill:#0e2f3b"/><path d="M479.47581,10.21726a6.41584,6.41584,0,0,1,6.40864,6.40847h13.61987a20.02854,20.02854,0,0,0-40.05707,0h13.62A6.4158,6.4158,0,0,1,479.47581,10.21726Z" style="fill:#0e2f3b;opacity:0.5;isolation:isolate"/><path d="M470.69664,21.53692a1.633,1.633,0,1,1-1.633,1.633A1.633,1.633,0,0,1,470.69664,21.53692Z" style="fill:#8a8359"/><path d="M479.47594.74222a15.90278,15.90278,0,0,0-15.87235,15.29117v.59231h5.335v-.59231a10.5539,10.5539,0,0,1,21.09113.59217v84.43252l5.32953-.00058v-84.432A15.90118,15.90118,0,0,0,479.47594.74222Z" style="fill:#8a8359"/></g><rect width="646.778" height="429.59427" style="opacity:0.25;isolation:isolate;fill:url(#f)"/></g></svg>