<svg xmlns="http://www.w3.org/2000/svg" xmlns:xlink="http://www.w3.org/1999/xlink" viewBox="0 0 646.77802 429.59426"><defs><clipPath id="a"><rect width="646.77802" height="429.59426" style="fill:none"/></clipPath><linearGradient id="b" x1="-3378.03162" y1="-292.8133" x2="-3320.30792" y2="-292.8133" gradientTransform="matrix(1, 0, 0, -1, 3673.11182, -84.36294)" gradientUnits="userSpaceOnUse"><stop offset="0.09785" stop-color="#0e2f3b"/><stop offset="0.90024" stop-color="#2a3d58"/></linearGradient><linearGradient id="e" x1="-3183.00928" y1="-191.76582" x2="-3125.28552" y2="-191.76582" xlink:href="#b"/><linearGradient id="h" x1="-3573.05771" y1="-394.08708" x2="-3515.33401" y2="-394.08708" xlink:href="#b"/></defs><title>use-cases-bg4</title><rect width="646.77802" height="429.59426" style="fill:#0e2f3b"/><g style="clip-path:url(#a)"><polygon points="475.677 358.157 475.677 257.005 374.524 257.005 374.519 257 374.519 358.157 475.672 358.157 475.677 358.162 475.677 358.157 475.677 358.157 475.677 358.157" style="fill:#52575b"/><polygon points="576.837 459.317 576.837 358.165 475.684 358.165 475.679 358.16 475.679 459.317 576.832 459.317 576.837 459.322 576.837 459.317 576.837 459.317 576.837 459.317" style="fill:#2a3d58"/><polygon points="273.36 155.836 273.36 54.683 172.208 54.683 172.203 54.678 172.203 155.836 273.355 155.836 273.36 155.841 273.36 155.836 273.36 155.836 273.36 155.836" style="fill:#52575b"/><polygon points="172.203 54.678 172.203 -46.474 71.05 -46.474 71.045 -46.479 71.045 54.679 172.198 54.679 172.203 54.683 172.203 54.679 172.203 54.679 172.203 54.678" style="fill:#2a3d58"/><polygon points="374.52 256.883 374.52 155.731 273.368 155.731 273.363 155.726 273.363 256.884 374.515 256.884 374.52 256.888 374.52 256.884 374.52 256.884 374.52 256.883" style="fill:#2a3d58"/><path d="M303.76514,173.0042H344.1189a8.685,8.685,0,0,1,8.685,8.685v53.52234a8.685,8.685,0,0,1-8.685,8.685H303.7652a8.685,8.685,0,0,1-8.685-8.685V181.68923a8.685,8.685,0,0,1,8.685-8.685Z" style="fill:url(#b)"/><path d="M303.76514,173.0042H344.1189a8.685,8.685,0,0,1,8.685,8.685v53.52234a8.685,8.685,0,0,1-8.685,8.685H303.7652a8.685,8.685,0,0,1-8.685-8.685V181.68923a8.685,8.685,0,0,1,8.685-8.685Z" style="fill:url(#b)"/><path d="M303.76514,173.0042H344.1189a8.685,8.685,0,0,1,8.685,8.685v53.52234a8.685,8.685,0,0,1-8.685,8.685H303.7652a8.685,8.685,0,0,1-8.685-8.685V181.68923a8.685,8.685,0,0,1,8.685-8.685Z" style="opacity:0.41999998688697815;isolation:isolate;fill:url(#b)"/><path d="M299.71008,168.71857h48.464a4.62992,4.62992,0,0,1,4.62989,4.62991V234.981a4.62992,4.62992,0,0,1-4.63,4.62991H299.71008a4.62991,4.62991,0,0,1-4.62994-4.62991V173.34847a4.62991,4.62991,0,0,1,4.62988-4.6299Z" style="fill:#8f8e91"/><rect x="301.92535" y="179.0186" width="31.97443" height="3.21141" rx="1.6057" style="fill:#2a3d58"/><rect x="301.92535" y="186.03101" width="31.97443" height="3.21141" rx="1.6057" style="fill:#2a3d58"/><rect x="301.92535" y="197.57697" width="31.97443" height="3.21141" rx="1.6057" style="fill:#2a3d58"/><rect x="301.92535" y="204.58937" width="31.97443" height="3.21141" rx="1.6057" style="fill:#2a3d58"/><path d="M303.53107,211.816h28.763a1.60573,1.60573,0,0,1,1.60571,1.60571v0a1.60573,1.60573,0,0,1-1.60571,1.60571h-28.763a1.60574,1.60574,0,0,1-1.60572-1.60571v0A1.60574,1.60574,0,0,1,303.53107,211.816Z" style="fill:#2a3d58"/><path d="M303.53107,226.86818h41.00769a1.60574,1.60574,0,0,1,1.60571,1.60572v0a1.60573,1.60573,0,0,1-1.60571,1.60571H303.53107a1.60574,1.60574,0,0,1-1.60572-1.60571v0A1.60575,1.60575,0,0,1,303.53107,226.86818Z" style="fill:#2a3d58"/><polygon points="468.385 54.678 468.385 -46.474 367.233 -46.474 367.228 -46.479 367.228 54.679 468.38 54.679 468.385 54.683 468.385 54.679 468.385 54.679 468.385 54.678" style="fill:#52575b"/><polygon points="670.703 256.996 670.703 155.843 569.55 155.843 569.545 155.838 569.545 256.996 670.698 256.996 670.703 257.001 670.703 256.996 670.703 256.996 670.703 256.996" style="fill:#52575b"/><polygon points="569.543 155.836 569.543 54.683 468.39 54.683 468.385 54.678 468.385 155.836 569.538 155.836 569.543 155.841 569.543 155.836 569.543 155.836 569.543 155.836" style="fill:#2a3d58"/><path d="M498.78754,71.95672H539.1413a8.685,8.685,0,0,1,8.685,8.685v53.52233a8.685,8.685,0,0,1-8.685,8.685H498.78754a8.685,8.685,0,0,1-8.685-8.685V80.64173A8.685,8.685,0,0,1,498.78754,71.95672Z" style="fill:url(#e)"/><path d="M498.78754,71.95672H539.1413a8.685,8.685,0,0,1,8.685,8.685v53.52233a8.685,8.685,0,0,1-8.685,8.685H498.78754a8.685,8.685,0,0,1-8.685-8.685V80.64173A8.685,8.685,0,0,1,498.78754,71.95672Z" style="fill:url(#e)"/><path d="M498.78754,71.95672H539.1413a8.685,8.685,0,0,1,8.685,8.685v53.52233a8.685,8.685,0,0,1-8.685,8.685H498.78754a8.685,8.685,0,0,1-8.685-8.685V80.64173A8.685,8.685,0,0,1,498.78754,71.95672Z" style="opacity:0.41999998688697815;isolation:isolate;fill:url(#e)"/><path d="M494.73248,67.67108h48.464a4.62991,4.62991,0,0,1,4.62988,4.62991v61.63256a4.62991,4.62991,0,0,1-4.62994,4.62992H494.73248a4.62992,4.62992,0,0,1-4.62994-4.62992h0V72.301a4.6299,4.6299,0,0,1,4.62988-4.62989Z" style="fill:#8f8e91"/><rect x="496.94775" y="77.97111" width="31.97443" height="3.21141" rx="1.6057" style="fill:#2a3d58"/><path d="M498.55345,84.98352h28.763a1.6057,1.6057,0,0,1,1.6057,1.6057v0a1.6057,1.6057,0,0,1-1.6057,1.6057h-28.763a1.60571,1.60571,0,0,1-1.60571-1.60571v0a1.6057,1.6057,0,0,1,1.6057-1.6057Z" style="fill:#2a3d58"/><rect x="496.94775" y="96.52948" width="31.97443" height="3.21141" rx="1.6057" style="fill:#2a3d58"/><rect x="496.94775" y="103.54189" width="31.97443" height="3.21141" rx="1.6057" style="fill:#2a3d58"/><rect x="496.94775" y="110.76854" width="31.97443" height="3.21141" rx="1.6057" style="fill:#2a3d58"/><rect x="496.94775" y="125.82071" width="44.21912" height="3.21141" rx="1.6057" style="fill:#2a3d58"/><polygon points="78.338 256.996 78.338 155.843 -22.815 155.843 -22.819 155.838 -22.819 256.996 78.333 256.996 78.338 257.001 78.338 256.996 78.338 256.996 78.338 256.996" style="fill:#52575b"/><polygon points="280.654 459.318 280.654 358.166 179.502 358.166 179.497 358.161 179.497 459.318 280.649 459.318 280.654 459.323 280.654 459.318 280.654 459.318 280.654 459.318" style="fill:#52575b"/><polygon points="179.494 358.157 179.494 257.005 78.342 257.005 78.337 257 78.337 358.157 179.489 358.157 179.494 358.162 179.494 358.157 179.494 358.157 179.494 358.157" style="fill:#2a3d58"/><path d="M108.73907,274.27794H149.0928a8.685,8.685,0,0,1,8.685,8.685v53.5224a8.685,8.685,0,0,1-8.685,8.685H108.73911a8.685,8.685,0,0,1-8.685-8.685v-53.5224a8.685,8.685,0,0,1,8.685-8.685Z" style="fill:url(#h)"/><path d="M108.73907,274.27794H149.0928a8.685,8.685,0,0,1,8.685,8.685v53.5224a8.685,8.685,0,0,1-8.685,8.685H108.73911a8.685,8.685,0,0,1-8.685-8.685v-53.5224a8.685,8.685,0,0,1,8.685-8.685Z" style="fill:url(#h)"/><path d="M108.73907,274.27794H149.0928a8.685,8.685,0,0,1,8.685,8.685v53.5224a8.685,8.685,0,0,1-8.685,8.685H108.73911a8.685,8.685,0,0,1-8.685-8.685v-53.5224a8.685,8.685,0,0,1,8.685-8.685Z" style="opacity:0.41999998688697815;isolation:isolate;fill:url(#h)"/><path d="M104.684,269.9923h48.464a4.6299,4.6299,0,0,1,4.62991,4.62991h0v61.63254a4.6299,4.6299,0,0,1-4.62991,4.62991H104.684a4.62992,4.62992,0,0,1-4.62994-4.62991V274.62221a4.62989,4.62989,0,0,1,4.62988-4.62991Z" style="fill:#8f8e91"/><path d="M108.505,280.29232h28.763a1.60571,1.60571,0,0,1,1.60571,1.60571v0a1.60571,1.60571,0,0,1-1.60571,1.60571H108.505a1.60571,1.60571,0,0,1-1.60571-1.60571v0A1.60571,1.60571,0,0,1,108.505,280.29232Z" style="fill:#2a3d58"/><path d="M108.505,287.30474h28.763a1.60571,1.60571,0,0,1,1.60571,1.60571v0a1.60571,1.60571,0,0,1-1.60571,1.60571H108.505a1.60571,1.60571,0,0,1-1.60571-1.60571v0A1.60571,1.60571,0,0,1,108.505,287.30474Z" style="fill:#2a3d58"/><path d="M108.505,298.8507h28.763a1.60571,1.60571,0,0,1,1.60571,1.60571v0a1.60571,1.60571,0,0,1-1.60571,1.60571H108.505a1.60571,1.60571,0,0,1-1.60571-1.60571v0A1.60571,1.60571,0,0,1,108.505,298.8507Z" style="fill:#2a3d58"/><path d="M108.505,305.86312h28.763a1.60571,1.60571,0,0,1,1.60571,1.60571v0a1.60571,1.60571,0,0,1-1.60571,1.60571H108.505a1.60571,1.60571,0,0,1-1.60571-1.60571v0A1.60571,1.60571,0,0,1,108.505,305.86312Z" style="fill:#2a3d58"/><path d="M108.505,313.08974h28.763a1.60571,1.60571,0,0,1,1.60571,1.60571v0a1.60572,1.60572,0,0,1-1.60571,1.60572H108.505a1.60572,1.60572,0,0,1-1.60571-1.60572v0A1.60571,1.60571,0,0,1,108.505,313.08974Z" style="fill:#2a3d58"/><path d="M108.505,328.14193h41.00766a1.60571,1.60571,0,0,1,1.60572,1.60571v0a1.60571,1.60571,0,0,1-1.60572,1.60571H108.505a1.60571,1.60571,0,0,1-1.60571-1.60571v0A1.60571,1.60571,0,0,1,108.505,328.14193Z" style="fill:#2a3d58"/></g></svg>