<svg xmlns="http://www.w3.org/2000/svg" xmlns:xlink="http://www.w3.org/1999/xlink" viewBox="0 0 501.49997 601.50001"><defs><clipPath id="a"><rect width="501.49997" height="601.50001" style="fill:none"/></clipPath><linearGradient id="b" x1="-459.99008" y1="589.30768" x2="-423.75809" y2="589.30768" gradientTransform="matrix(-1, 0, 0, 1, -307.15854, -550.90289)" gradientUnits="userSpaceOnUse"><stop offset="0.09785" stop-color="#0e2f3b"/><stop offset="0.90024" stop-color="#2a3d58"/></linearGradient><linearGradient id="d" x1="-459.9901" y1="912.83064" x2="-423.75809" y2="912.83064" xlink:href="#b"/><linearGradient id="f" x1="-725.48902" y1="552.07117" x2="-689.23862" y2="552.07117" xlink:href="#b"/><linearGradient id="h" x1="-725.47064" y1="1146.90101" x2="-689.23862" y2="1146.90101" xlink:href="#b"/><linearGradient id="j" x1="-725.46588" y1="850.18635" x2="-689.23718" y2="850.18635" xlink:href="#b"/><linearGradient id="l" x1="-592.54065" y1="1024.75819" x2="-556.30862" y2="1024.75819" xlink:href="#b"/></defs><title>use-cases-bg3</title><g style="clip-path:url(#a)"><rect width="501.49997" height="601.50001" style="fill:#00303c"/><rect x="335.41202" y="179.78461" width="99.42612" height="15.29628" rx="7.64813" style="fill:#518989"/><rect x="335.40982" y="105.31194" width="99.42612" height="15.29628" rx="7.64813" style="fill:#518989"/><rect x="68.48015" y="179.78413" width="99.4261" height="15.29628" rx="7.64813" style="fill:#828d79"/><rect x="68.47903" y="142.54778" width="99.42612" height="15.29628" rx="7.64813" style="fill:#828d79"/><rect x="68.47794" y="105.31145" width="99.42612" height="15.29628" rx="7.64813" style="fill:#828d79"/><rect x="-64.98355" y="105.30602" width="99.42611" height="15.29628" rx="7.64813" style="fill:#518989"/><rect x="-64.98575" y="30.83337" width="99.42611" height="15.29628" rx="7.64813" style="fill:#518989"/><rect x="201.94608" y="254.32212" width="99.42612" height="15.2963" rx="7.64813" style="fill:#828d79"/><rect x="201.94388" y="179.84943" width="99.42612" height="15.29628" rx="7.64813" style="fill:#828d79"/><path d="M476.52609,217.08576h84.12982a7.64815,7.64815,0,0,1,7.64814,7.64813h0a7.64815,7.64815,0,0,1-7.64814,7.64814H476.52609a7.64815,7.64815,0,0,1-7.64813-7.64814h0A7.64814,7.64814,0,0,1,476.52609,217.08576Z" style="fill:#828d79"/><rect x="468.87686" y="179.84943" width="99.42609" height="15.29628" rx="7.64813" style="fill:#828d79"/><rect x="468.87576" y="142.61311" width="99.42609" height="15.29628" rx="7.64813" style="fill:#828d79"/><path d="M160.25784,444.19184,76.128,444.18855a7.64814,7.64814,0,0,1-7.64783-7.64843h0a7.64815,7.64815,0,0,1,7.64843-7.64784l84.12984.0033a7.64812,7.64812,0,0,1,7.64783,7.64843h0A7.64812,7.64812,0,0,1,160.25784,444.19184Z" style="fill:#518989"/><path d="M160.26005,518.66453l-84.12983-.0033a7.64815,7.64815,0,0,1-7.64784-7.64843h0a7.64814,7.64814,0,0,1,7.64843-7.64783l84.12984.00329a7.64814,7.64814,0,0,1,7.64783,7.64843h0A7.64813,7.64813,0,0,1,160.26005,518.66453Z" style="fill:#518989"/><path d="M160.25786,566.33463,76.128,566.33134a7.64815,7.64815,0,0,1-7.64783-7.64843h0a7.64815,7.64815,0,0,1,7.64843-7.64784l84.12984.0033a7.64812,7.64812,0,0,1,7.64783,7.64843h0A7.64812,7.64812,0,0,1,160.25786,566.33463Z" style="fill:#518989"/><path d="M160.259,603.5709l-84.12984-.00329a7.64816,7.64816,0,0,1-7.64783-7.64844h0a7.64816,7.64816,0,0,1,7.64843-7.64783l84.12984.00329a7.64814,7.64814,0,0,1,7.64783,7.64844h0A7.64814,7.64814,0,0,1,160.259,603.5709Z" style="fill:#518989"/><path d="M293.72373,566.33466l-84.12986-.0033a7.64814,7.64814,0,0,1-7.64783-7.64843h0a7.64814,7.64814,0,0,1,7.64843-7.64783l84.12986.00329a7.64816,7.64816,0,0,1,7.64783,7.64843h0A7.64816,7.64816,0,0,1,293.72373,566.33466Z" style="fill:#518989"/><path d="M293.72488,603.57092l-84.12985-.00329a7.64815,7.64815,0,0,1-7.64784-7.64843h0a7.64815,7.64815,0,0,1,7.64844-7.64783l84.12985.00329a7.64813,7.64813,0,0,1,7.64783,7.64843h0A7.64813,7.64813,0,0,1,293.72488,603.57092Z" style="fill:#518989"/><path d="M209.59419,30.83336h84.12986a7.64812,7.64812,0,0,1,7.64812,7.64812v0a7.64813,7.64813,0,0,1-7.64813,7.64813H209.59419a7.64812,7.64812,0,0,1-7.64812-7.64812v0a7.64813,7.64813,0,0,1,7.64813-7.64813Z" style="fill:#518989"/><rect x="201.94715" y="68.06968" width="99.42612" height="15.29628" rx="7.64813" style="fill:#518989"/><rect x="201.94824" y="105.306" width="99.42612" height="15.29628" rx="7.64813" style="fill:#518989"/><path d="M427.18971,444.19235l-84.12985-.0033a7.64815,7.64815,0,0,1-7.64784-7.64843h0a7.64815,7.64815,0,0,1,7.64844-7.64783l84.12985.00329a7.64814,7.64814,0,0,1,7.64783,7.64843h0A7.64815,7.64815,0,0,1,427.18971,444.19235Z" style="fill:#518989"/><path d="M427.19077,481.42874l-84.12982-.0033a7.64815,7.64815,0,0,1-7.64784-7.64843h0a7.64815,7.64815,0,0,1,7.64844-7.64783l84.12982.00329a7.64814,7.64814,0,0,1,7.64783,7.64843h0A7.64815,7.64815,0,0,1,427.19077,481.42874Z" style="fill:#518989"/><path d="M427.19186,518.66506l-84.12982-.00329a7.64814,7.64814,0,0,1-7.64783-7.64843h0a7.64813,7.64813,0,0,1,7.64843-7.64783l84.12982.00329a7.64813,7.64813,0,0,1,7.64783,7.64843h0A7.64813,7.64813,0,0,1,427.19186,518.66506Z" style="fill:#518989"/><path d="M560.65347,518.6704l-84.12982-.0033a7.64813,7.64813,0,0,1-7.64783-7.64843h0a7.64813,7.64813,0,0,1,7.64843-7.64783l84.12982.00329a7.64814,7.64814,0,0,1,7.64783,7.64843h0A7.64815,7.64815,0,0,1,560.65347,518.6704Z" style="fill:#828d79"/><path d="M560.65565,593.14305l-84.12982-.00329a7.64814,7.64814,0,0,1-7.64783-7.64843h0a7.64813,7.64813,0,0,1,7.64843-7.64783l84.12982.00329a7.64815,7.64815,0,0,1,7.64784,7.64843h0A7.64815,7.64815,0,0,1,560.65565,593.14305Z" style="fill:#828d79"/><path d="M26.79193,406.89073l-84.12984-.00329a7.64815,7.64815,0,0,1-7.64783-7.64844h0a7.64815,7.64815,0,0,1,7.64843-7.64783l84.12984.0033a7.64812,7.64812,0,0,1,7.64783,7.64843h0A7.64812,7.64812,0,0,1,26.79193,406.89073Z" style="fill:#828d79"/><rect x="-64.98462" y="428.82912" width="99.4261" height="15.2963" rx="7.64813" style="fill:#828d79"/><path d="M-57.33542,466.06538h84.1299a7.6481,7.6481,0,0,1,7.6481,7.6481v.00006a7.64813,7.64813,0,0,1-7.64813,7.64813H-57.33539a7.64813,7.64813,0,0,1-7.64813-7.64813v-.00006A7.6481,7.6481,0,0,1-57.33542,466.06538Z" style="fill:#828d79"/><path d="M160.00774,83.3676H76.39041a7.9,7.9,0,0,1-7.9-7.9V1.34159a7.9,7.9,0,0,1,7.9-7.9H160.0085a7.9,7.9,0,0,1,7.9,7.9V75.46685a7.90074,7.90074,0,0,1-7.90074,7.90074h0Z" style="fill:#2a3d58"/><path d="M124.31441,66.92193a28.51714,28.51714,0,0,0,0-57.03428h-7.71486V66.92177Z" style="fill:url(#b)"/><path d="M124.31441,66.92193a28.51714,28.51714,0,0,0,0-57.03428h-7.71486V66.92177Z" style="opacity:0.2800000011920929;isolation:isolate;fill:url(#b)"/><circle cx="114.95929" cy="38.40479" r="28.51715" style="fill:#518989"/><polygon points="108.281 35.027 114.959 38.882 121.637 35.027 121.637 35.027 128.315 31.148 121.637 27.293 121.637 27.293 121.637 27.293 121.637 27.293 121.637 27.293 114.959 31.148 114.959 31.148 108.281 27.293 101.603 31.148 108.281 35.027 108.281 35.027" style="fill:#00303c"/><polyline points="108.281 45.661 114.959 49.516 121.637 45.661 128.315 41.782 121.637 37.927 121.637 37.927 121.637 37.927 121.637 37.927 121.637 37.927 114.959 41.782 114.959 41.782 108.281 37.927 101.603 41.782 108.281 45.661" style="fill:#00303c"/><path d="M293.72372,332.41806l-84.12985-.00329a7.64814,7.64814,0,0,1-7.64783-7.64843h0a7.64815,7.64815,0,0,1,7.64843-7.64784l84.12985.0033a7.64815,7.64815,0,0,1,7.64784,7.64843h0A7.64815,7.64815,0,0,1,293.72372,332.41806Z" style="fill:#828d79"/><rect x="201.94719" y="354.35645" width="99.42612" height="15.2963" rx="7.64813" style="fill:#828d79"/><path d="M293.726,406.89072l-84.12985-.0033a7.64815,7.64815,0,0,1-7.64784-7.64843h0a7.64814,7.64814,0,0,1,7.64843-7.64783l84.12986.00329a7.64815,7.64815,0,0,1,7.64783,7.64843h0A7.64815,7.64815,0,0,1,293.726,406.89072Z" style="fill:#828d79"/><path d="M160.00777,406.89069H76.39044a7.9,7.9,0,0,1-7.9-7.9v-74.126a7.9,7.9,0,0,1,7.9-7.9h83.61809a7.9,7.9,0,0,1,7.9,7.9v74.12525a7.90073,7.90073,0,0,1-7.90074,7.90072Z" style="fill:#2a3d58"/><path d="M124.31441,390.44489a28.51715,28.51715,0,1,0,0-57.0343h-7.71486v57.03412Z" style="fill:url(#d)"/><path d="M124.31441,390.44489a28.51715,28.51715,0,1,0,0-57.0343h-7.71486v57.03412Z" style="opacity:0.2800000011920929;isolation:isolate;fill:url(#d)"/><circle cx="114.95929" cy="361.92774" r="28.51715" style="fill:#828d79"/><polygon points="108.281 358.55 114.959 362.405 121.637 358.55 121.637 358.55 128.315 354.671 121.637 350.816 121.637 350.816 121.637 350.816 121.637 350.816 121.637 350.816 114.959 354.671 114.959 354.671 108.281 350.816 101.603 354.671 108.281 358.55 108.281 358.55" style="fill:#00303c"/><polyline points="108.281 369.184 114.959 373.039 121.637 369.184 128.315 365.305 121.637 361.45 121.637 361.45 121.637 361.45 121.637 361.45 121.637 361.45 114.959 365.305 114.959 365.305 108.281 361.45 101.603 365.305 108.281 369.184" style="fill:#00303c"/><path d="M343.30911-43.79473h83.61734a7.9,7.9,0,0,1,7.9,7.9v74.126a7.9,7.9,0,0,1-7.9,7.9h-83.6181a7.9,7.9,0,0,1-7.9-7.9V-35.894a7.90075,7.90075,0,0,1,7.90075-7.90075Z" style="fill:#2a3d58"/><path d="M389.79495,29.68542a28.51715,28.51715,0,0,0,.03675-57.03429h-7.75162V29.68527Z" style="fill:url(#f)"/><path d="M389.79495,29.68542a28.51715,28.51715,0,0,0,.03675-57.03429h-7.75162V29.68527Z" style="opacity:0.2800000011920929;isolation:isolate;fill:url(#f)"/><circle cx="380.43985" cy="1.16828" r="28.51715" style="fill:#828d79"/><polygon points="373.762 -2.21 380.44 1.646 387.117 -2.21 387.118 -2.21 393.795 -6.088 387.118 -9.944 387.118 -9.944 387.118 -9.944 387.118 -9.944 387.118 -9.944 380.44 -6.088 380.44 -6.088 373.762 -9.944 367.084 -6.088 373.762 -2.21 373.762 -2.21" style="fill:#00303c"/><polyline points="373.762 8.424 380.44 12.28 387.118 8.424 393.795 4.546 387.118 0.69 387.118 0.69 387.118 0.69 387.118 0.69 387.118 0.69 380.44 4.546 380.44 4.546 373.762 0.69 367.084 4.546 373.762 8.424" style="fill:#00303c"/><path d="M343.30911,551.035h83.61734a7.9,7.9,0,0,1,7.9,7.9h0v74.126a7.9,7.9,0,0,1-7.9,7.9H343.30835a7.9,7.9,0,0,1-7.9-7.9h0V558.9358a7.90076,7.90076,0,0,1,7.90075-7.90076Z" style="fill:#2a3d58"/><path d="M389.79495,624.51527a28.51716,28.51716,0,0,0,0-57.03431h-7.71487v57.03412Z" style="fill:url(#h)"/><path d="M389.79495,624.51527a28.51716,28.51716,0,0,0,0-57.03431h-7.71487v57.03412Z" style="opacity:0.2800000011920929;isolation:isolate;fill:url(#h)"/><circle cx="380.43985" cy="595.99805" r="28.51715" style="fill:#828d79"/><polygon points="373.762 592.62 380.44 596.475 387.117 592.62 387.118 592.62 393.795 588.741 387.118 584.886 387.118 584.886 387.118 584.886 387.118 584.886 387.118 584.886 380.44 588.741 380.44 588.741 373.762 584.886 367.084 588.741 373.762 592.62 373.762 592.62" style="fill:#00303c"/><polyline points="373.762 603.254 380.44 607.11 387.118 603.254 393.795 599.376 387.118 595.52 387.118 595.52 387.118 595.52 387.118 595.52 387.118 595.52 380.44 599.376 380.44 599.376 373.762 595.52 367.084 599.376 373.762 603.254" style="fill:#00303c"/><path d="M343.31055,254.32047h83.61734a7.9,7.9,0,0,1,7.9,7.9v74.126a7.9,7.9,0,0,1-7.9,7.9H343.30981a7.9,7.9,0,0,1-7.9-7.9V262.2212A7.90075,7.90075,0,0,1,343.31055,254.32047Z" style="fill:#2a3d58"/><path d="M389.79352,327.80061a28.51716,28.51716,0,0,0,0-57.03431h-7.71488v57.03412Z" style="fill:url(#j)"/><path d="M389.79352,327.80061a28.51716,28.51716,0,0,0,0-57.03431h-7.71488v57.03412Z" style="opacity:0.2800000011920929;isolation:isolate;fill:url(#j)"/><circle cx="380.43839" cy="299.28345" r="28.51715" style="fill:#518989"/><polygon points="373.76 295.905 380.438 299.761 387.116 295.905 387.116 295.905 393.794 292.027 387.116 288.171 387.116 288.171 387.116 288.171 387.116 288.171 387.116 288.171 380.438 292.027 380.438 292.027 373.76 288.171 367.082 292.027 373.76 295.905 373.76 295.905" style="fill:#00303c"/><polyline points="373.76 306.54 380.438 310.395 387.116 306.54 393.794 302.661 387.116 298.806 387.116 298.806 387.116 298.806 387.116 298.806 387.116 298.806 380.438 302.661 380.438 302.661 373.76 298.806 367.082 302.661 373.76 306.54" style="fill:#00303c"/><path d="M292.55835,518.81831H208.941a7.9,7.9,0,0,1-7.9-7.9v-74.126a7.9,7.9,0,0,1,7.9-7.9h83.61813a7.9,7.9,0,0,1,7.9,7.9h0v74.12525a7.90075,7.90075,0,0,1-7.90073,7.90076Z" style="fill:#2a3d58"/><path d="M256.865,502.37244a28.51715,28.51715,0,1,0,0-57.0343h-7.71487v57.03412Z" style="fill:url(#l)"/><path d="M256.865,502.37244a28.51715,28.51715,0,1,0,0-57.0343h-7.71487v57.03412Z" style="opacity:0.2800000011920929;isolation:isolate;fill:url(#l)"/><circle cx="247.50986" cy="473.85529" r="28.51715" style="fill:#518989"/><polygon points="240.832 470.477 247.51 474.333 254.187 470.477 254.188 470.477 260.865 466.599 254.188 462.743 254.188 462.743 254.188 462.743 254.188 462.743 254.188 462.743 247.51 466.599 247.51 466.599 240.832 462.743 234.154 466.599 240.832 470.477 240.832 470.477" style="fill:#00303c"/><polyline points="240.832 481.111 247.51 484.967 254.188 481.111 260.865 477.233 254.188 473.377 254.188 473.377 254.188 473.377 254.188 473.377 254.188 473.377 247.51 477.233 247.51 477.233 240.832 473.377 234.154 477.233 240.832 481.111" style="fill:#00303c"/></g></svg>