<svg xmlns="http://www.w3.org/2000/svg" xmlns:xlink="http://www.w3.org/1999/xlink" id="图层_1" x="0" y="0" enable-background="new 0 0 272.9 67.3" version="1.1" viewBox="0 0 272.9 67.3" xml:space="preserve"><style type="text/css">.st0{fill:#007896}.st1{font-family:&quot;Roboto&quot;,sans-serif}.st2{font-size:37.9666px}</style><g><g><path d="M24.7,8v14.7L12,15.3L24.7,8 M26.3,4.8L8,15.3l18.7,10.8V5L26.3,4.8L26.3,4.8z" class="st0"/></g><g><path d="M27.9,8l12.7,7.3l-12.7,7.3V8 M26.3,4.8l-0.4,0.2v20.6l0.5,0.3L44,15.7v-0.6L26.3,4.8L26.3,4.8z" class="st0"/></g><g><path d="M62.3,8L75,15.3l-12.7,7.3V8 M60.8,4.8L60.3,5v21.1L79,15.3L60.8,4.8L60.8,4.8z" class="st0"/></g><g><path d="M59.2,8v14.7l-12.7-7.3L59.2,8 M60.8,4.8L43,15.1v0.6l17.7,10.2l0.5-0.3V5.1L60.8,4.8L60.8,4.8z" class="st0"/></g><g><path d="M42,18v14.7l-12.7-7.3L42,18 M43.6,14.8L25.3,25.3l18.2,10.5l0.5-0.3V15L43.6,14.8L43.6,14.8z" class="st0"/></g><g><path d="M45,18l12.7,7.3L45,32.6V18 M43.5,14.8L43,15v20.5l0.5,0.3l18.2-10.5L43.5,14.8L43.5,14.8z" class="st0"/></g></g><g><g><path d="M24.7,35.1v14.7L12,42.4L24.7,35.1 M26.3,31.8L8,42.4l18.7,10.8V32.1L26.3,31.8L26.3,31.8z" class="st0"/></g><g><path d="M27.9,35.1l12.7,7.3l-12.7,7.3V35.1 M26.3,31.9l-0.4,0.2v20.6l0.5,0.3L44,42.8v-0.6L26.3,31.9L26.3,31.9z" class="st0"/></g><g><path d="M62.3,35.1L75,42.4l-12.7,7.3V35.1 M60.8,31.8l-0.4,0.3v21.1L79,42.4L60.8,31.8L60.8,31.8z" class="st0"/></g><g><path d="M59.2,35.1v14.7l-12.7-7.3L59.2,35.1 M60.8,31.9L43,42.1v0.6L60.7,53l0.5-0.3V32.1L60.8,31.9L60.8,31.9z" class="st0"/></g><g><path d="M42,45.1v14.7l-12.7-7.3L42,45.1 M43.6,41.8L25.3,52.4l18.2,10.5l0.5-0.3V42.1L43.6,41.8L43.6,41.8z" class="st0"/></g><g><path d="M45,45.1l12.7,7.3L45,59.7V45.1 M43.5,41.8L43,42.1v20.5l0.5,0.3l18.2-10.5L43.5,41.8L43.5,41.8z" class="st0"/></g></g><text class="st0 st1 st2" transform="matrix(1 0 0 1 95.2525 47.9523)">ELASTOS</text></svg>