<svg xmlns="http://www.w3.org/2000/svg" viewBox="0 0 535.2 905.92"><title>onboarding_icon-01</title><path fill="#0e97c0" stroke="#000" stroke-miterlimit="10" stroke-width="13" d="M261.53,33.68A168.17,168.17,0,0,0,99.43,201.74c0,92.79,75.38,168.17,168.17,168.17A168.17,168.17,0,0,0,435.77,201.74h0c0-82.84-68.27-168.13-158.27-168.07C273.51,33.67,265.51,33.54,261.53,33.68Zm66.88,223-43.26,43.84a24.11,24.11,0,0,1-34.09.29l-.29-.29-43.38-43.78a24.82,24.82,0,0,1,0-34.8h0a15,15,0,0,1,21.21-.18l.18.18,21.91,22.15a24.11,24.11,0,0,0,34.09.29l.29-.29L307,221.95a15,15,0,0,1,21.21-.18l.18.18h0a24.82,24.82,0,0,1,0,34.76Zm45.5-70.09h0a14.46,14.46,0,0,1-20.44.38l-.17-.17-20.92-21.16a23.29,23.29,0,0,0-32.87.06l-.28.29-21.3,21.58a14.68,14.68,0,0,1-12.07,4.33,14.13,14.13,0,0,1-9-4.2L236,166.63a23.29,23.29,0,0,0-32.87.06l-.28.29-21.3,21.58a14.46,14.46,0,0,1-20.44.38l-.17-.17h0a23.93,23.93,0,0,1,.3-33.58l42.1-42.62a23.29,23.29,0,0,1,32.87-.67l.3.3,31.35,31.72,31.88-32.29A23.29,23.29,0,0,1,332.6,111l.29.28,41.32,41.8a23.93,23.93,0,0,1-.3,33.55Z"/><rect width="46.5" height="10.5" x="193.01" y="429.09" fill="#ffce00"/><path fill="#8b572a" d="M376.66,454.59V599.81h-.86a7.5,7.5,0,0,0-7.5,7.5h0v2.83h-48a19.63,19.63,0,0,1-2.86-2.82c-1.87-2.34-3.29-5.82-4.8-9.5-2.41-5.88-5.13-12.54-10.84-17.1S289,575,282.8,574c-3.94-.66-7.66-1.28-10.39-2.59s-5.37-3.76-8.28-6.39c-4.75-4.29-10.13-9.16-17.36-10.8-7-1.59-13.81.41-19.84,2.17-3.89,1.14-7.57,2.22-10.7,2.22s-6.81-1.08-10.71-2.22c-6-1.76-12.86-3.76-19.83-2.17-7.23,1.64-12.62,6.51-17.36,10.8-2.91,2.63-5.66,5.12-8.28,6.39s-6.46,1.93-10.4,2.59c-6.25,1-13.33,2.22-19,6.75s-8.43,11.22-10.84,17.1c-1.5,3.68-2.93,7.16-4.8,9.51a19.63,19.63,0,0,1-2.86,2.81h-48v-2.83a7.5,7.5,0,0,0-7.5-7.5h-.86V454.59ZM357.71,580A7.51,7.51,0,0,0,352,566.11L326.65,576.6a7.5,7.5,0,0,0,2.87,14.4,7.65,7.65,0,0,0,2.87-.57Zm-34.63-45.75a7.5,7.5,0,0,0-10.37-10.84l-.06.06-.18.18-12.73,12.74A7.5,7.5,0,1,0,310.35,547Zm-42.49-39.48A7.51,7.51,0,0,0,266.73,489h0l-10.49,25.32a7.5,7.5,0,0,0,4.06,9.8h0a7.64,7.64,0,0,0,2.86.57,7.51,7.51,0,0,0,6.94-4.63Zm-56.83,9.35v-18a7.5,7.5,0,0,0-15,0v18a7.5,7.5,0,0,0,15,0Zm-51.54,20a7.52,7.52,0,0,0,4.06-9.8L165.79,489a7.5,7.5,0,0,0-13.86,5.74h0l10.49,25.32a7.49,7.49,0,0,0,6.93,4.63,7.65,7.65,0,0,0,2.87-.57ZM132.77,547a7.49,7.49,0,0,0,0-10.59h0L120,523.62A7.5,7.5,0,0,0,109.21,534l.18.18L122.16,547a7.5,7.5,0,0,0,10.61,0Zm-22.84,39.4a7.51,7.51,0,0,0-4.06-9.8L80.55,566.11A7.51,7.51,0,0,0,74.81,580h0l25.32,10.49A7.64,7.64,0,0,0,103,591,7.51,7.51,0,0,0,109.93,586.4Z"/><path fill="#8b572a" d="M368.3,658.79V769a66,66,0,0,0-26.38,45.57H90.6A66,66,0,0,0,64.22,769V658.79H172.78V701.9a7.5,7.5,0,0,0,7.5,7.5h72a7.5,7.5,0,0,0,7.5-7.5h0V658.79Z"/><path fill="#ffce00" d="M216.26,652.58a7.41,7.41,0,1,1-7.42,7.41,7.41,7.41,0,0,1,7.42-7.41Z"/><path fill="#dfdfe3" d="M244.73,625.58V694.4H187.78V625.58ZM238.67,660a22.42,22.42,0,1,0-22.43,22.41h0A22.44,22.44,0,0,0,238.67,660Z"/><path fill="#ffce00" d="M49.22,614.81V760.68a65.49,65.49,0,0,0-16.68-4.17V614.81Z"/><polygon fill="#ffce00" points="172.77 625.14 172.77 643.79 64.21 643.79 64.21 625.14 66.25 625.14 172.77 625.14"/><rect width="108.57" height="18.65" x="259.73" y="625.14" fill="#ffce00"/><path fill="#ffce00" d="M400,614.81v141.7a65.28,65.28,0,0,0-16.68,4.17V614.81Z"/><path fill="#ffce00" d="M410,771.63v42.94H367A51.11,51.11,0,0,1,410,771.63Z"/><path fill="#ffce00" d="M75.48,814.57H32.54V771.63A51.12,51.12,0,0,1,75.48,814.57Z"/><path fill="#ffa21a" d="M301.7,610.14H130.81c1.08-2.19,2-4.43,2.91-6.64,1.88-4.6,3.65-8.94,6.31-11.06s7.23-2.86,12.11-3.67,9.79-1.63,14.46-3.88,8.25-5.55,11.82-8.77,7.22-6.53,10.62-7.31c3.17-.72,7.61.58,12.3,2,4.52,1.32,9.64,2.82,14.92,2.82s10.4-1.5,14.92-2.82c4.69-1.37,9.12-2.67,12.3-1.94,3.4.77,6.9,3.94,10.61,7.3s7.26,6.56,11.83,8.77,9.64,3.07,14.45,3.88,9.49,1.57,12.12,3.67,4.43,6.46,6.3,11C299.7,605.7,300.62,608,301.7,610.14Z"/><path d="M415,607.31V822.07a7.5,7.5,0,0,1-7.5,7.5H25a7.5,7.5,0,0,1-7.5-7.5h0V607.31a7.5,7.5,0,0,1,7.5-7.5H40.82V447.09a7.5,7.5,0,0,1,7.5-7.5H178v-18a7.5,7.5,0,0,1,7.5-7.5H247a7.5,7.5,0,0,1,7.5,7.5h0v18H384.16a7.5,7.5,0,0,1,7.5,7.5V599.81h15.82a7.5,7.5,0,0,1,7.52,7.48h0ZM400,814.57V771.63a51.11,51.11,0,0,0-43,42.94Zm0-58.06V614.81H383.3V760.68A65.28,65.28,0,0,1,400,756.51Zm-23.32-156.7V454.59H55.86V599.81h.86a7.5,7.5,0,0,1,7.5,7.5h0v2.83h48a19.63,19.63,0,0,0,2.86-2.81c1.87-2.35,3.3-5.83,4.8-9.51,2.41-5.88,5.13-12.54,10.84-17.1s12.76-5.71,19-6.75c3.94-.66,7.67-1.28,10.4-2.59s5.37-3.76,8.28-6.39c4.74-4.29,10.13-9.16,17.36-10.8,7-1.59,13.8.41,19.83,2.17,3.9,1.14,7.58,2.22,10.71,2.22s6.81-1.08,10.7-2.22c6-1.76,12.87-3.76,19.84-2.17,7.23,1.64,12.61,6.51,17.36,10.8,2.91,2.63,5.65,5.12,8.28,6.39s6.45,1.93,10.39,2.59c6.25,1,13.34,2.22,19,6.75s8.43,11.22,10.84,17.1c1.51,3.68,2.93,7.16,4.8,9.5a19.64,19.64,0,0,0,2.86,2.82h48v-2.83a7.5,7.5,0,0,1,7.5-7.5ZM368.3,769V658.79H259.73V701.9a7.5,7.5,0,0,1-7.5,7.5h-72a7.5,7.5,0,0,1-7.5-7.5h0V658.79H64.22V769A66,66,0,0,1,90.6,814.57H341.92A66,66,0,0,1,368.3,769Zm0-125.21V625.14H259.73v18.65ZM130.81,610.14H301.7c-1.08-2.19-2-4.44-2.91-6.65-1.87-4.59-3.65-8.93-6.3-11s-7.24-2.86-12.12-3.67-9.79-1.63-14.45-3.88-8.26-5.55-11.83-8.77-7.21-6.53-10.61-7.3c-3.18-.73-7.61.57-12.3,1.94-4.52,1.32-9.64,2.82-14.92,2.82s-10.4-1.5-14.92-2.82c-4.69-1.37-9.13-2.67-12.3-2-3.4.78-6.91,4-10.62,7.31s-7.26,6.56-11.82,8.77-9.6,3.06-14.46,3.83-9.48,1.57-12.11,3.67-4.43,6.46-6.31,11.06C132.81,605.71,131.89,608,130.81,610.14ZM244.73,694.4V625.58H187.78V694.4Zm-5.22-254.81v-10.5H193v10.5Zm-66.73,204.2V625.14H64.22v18.65ZM56.72,814.57H75.48a51.12,51.12,0,0,0-42.94-42.94v42.94Zm-7.5-53.89V614.81H32.54v141.7A65.49,65.49,0,0,1,49.22,760.68Z"/><path fill="#ffa21a" d="M329.52,597a13.5,13.5,0,0,1-5.16-26l25.31-10.49a13.53,13.53,0,0,1,10.33,25h0L334.68,596A13.68,13.68,0,0,1,329.52,597Z"/><path d="M354.84,565.54A7.5,7.5,0,0,1,357.71,580l-25.32,10.49a7.65,7.65,0,0,1-2.87.57,7.5,7.5,0,0,1-2.87-14.43L352,566.11a7.47,7.47,0,0,1,2.87-.58m0-12h0A19.39,19.39,0,0,0,347.4,555l-25.31,10.49a19.48,19.48,0,0,0,14.8,36h0L362.21,591a19.5,19.5,0,0,0-7.46-37.52Z"/><path fill="#ffa21a" d="M305,555.16a13.51,13.51,0,0,1-9.55-23l12.73-12.74a13.5,13.5,0,0,1,19.37,18.81h0l-.27.27-12.69,12.7A13.41,13.41,0,0,1,305,555.16Z"/><path d="M317.78,521.42a7.5,7.5,0,0,1,5.3,12.81L310.35,547a7.5,7.5,0,0,1-10.61-10.6l12.73-12.74a7.47,7.47,0,0,1,5.31-2.21m0-12h0a19.37,19.37,0,0,0-13.78,5.7l-12.72,12.73a19.5,19.5,0,0,0,27.58,27.57l12.73-12.74a19.5,19.5,0,0,0-13.79-33.29Z"/><path fill="#ffa21a" d="M263.16,530.69A13.51,13.51,0,0,1,250.7,512l10.49-25.31a13.52,13.52,0,0,1,25,10.32h0L275.7,522.35A13.48,13.48,0,0,1,263.16,530.69Z"/><path d="M273.65,484.37a7.51,7.51,0,0,1,6.93,10.38L270.1,520.06a7.51,7.51,0,0,1-6.94,4.63,7.64,7.64,0,0,1-2.86-.57,7.5,7.5,0,0,1-4.06-9.8h0L266.73,489a7.49,7.49,0,0,1,6.93-4.64m0-12h0a19.43,19.43,0,0,0-18,12.06l-10.48,25.3a19.5,19.5,0,0,0,10.55,25.48h.1a19.5,19.5,0,0,0,25.38-10.58l10.49-25.33a19.51,19.51,0,0,0-18-27Z"/><path d="M216.26,637.58A22.41,22.41,0,1,1,193.84,660a22.41,22.41,0,0,1,22.42-22.42ZM223.67,660a7.42,7.42,0,1,0-7.43,7.41h0A7.42,7.42,0,0,0,223.67,660Z"/><path fill="#ffa21a" d="M216.26,517.59a13.52,13.52,0,0,1-13.5-13.5v-18a13.5,13.5,0,0,1,27,0h0v18A13.52,13.52,0,0,1,216.26,517.59Z"/><path d="M216.26,478.59a7.5,7.5,0,0,1,7.5,7.5h0v18a7.5,7.5,0,0,1-15,0v-18a7.49,7.49,0,0,1,7.48-7.5h0m0-12a19.52,19.52,0,0,0-19.5,19.5v18a19.5,19.5,0,0,0,39,0v-18a19.52,19.52,0,0,0-19.48-19.5Z"/><path fill="#ffa21a" d="M169.35,530.69a13.45,13.45,0,0,1-12.48-8.35L146.38,497a13.5,13.5,0,0,1,24.7-10.91l.13.31.11.26L181.82,512a13.53,13.53,0,0,1-7.3,17.64A13.68,13.68,0,0,1,169.35,530.69Z"/><path d="M158.85,484.37a7.51,7.51,0,0,1,6.93,4.64l10.49,25.32a7.52,7.52,0,0,1-4.06,9.8,7.65,7.65,0,0,1-2.87.57,7.49,7.49,0,0,1-6.93-4.63l-10.49-25.32a7.51,7.51,0,0,1,6.93-10.38m0-12h0a19.5,19.5,0,0,0-18,27l10.49,25.31a19.5,19.5,0,0,0,25.38,10.59h.12a19.54,19.54,0,0,0,10.54-25.47l-10.49-25.33a19.46,19.46,0,0,0-18-12Z"/><path fill="#ffa21a" d="M127.47,555.16a13.46,13.46,0,0,1-9.54-3.94l-12.75-12.76A13.5,13.5,0,0,1,124,519.11l.27.27L137,532.12a13.5,13.5,0,0,1-9.54,23Z"/><path d="M114.73,521.42a7.49,7.49,0,0,1,5.31,2.2l12.73,12.74A7.51,7.51,0,0,1,122.16,547h0l-12.73-12.74a7.5,7.5,0,0,1,5.3-12.8m0-12a19.5,19.5,0,0,0-13.79,33.29l12.73,12.74a19.5,19.5,0,1,0,27.93-27.22l-.35-.35-12.73-12.74a19.39,19.39,0,0,0-13.8-5.72Z"/><path fill="#ffa21a" d="M103,597a13.59,13.59,0,0,1-5.11-1L72.52,585.49a13.5,13.5,0,1,1,10.08-25l.26.11L108.18,571A13.5,13.5,0,0,1,103,597Z"/><path d="M77.67,565.54a7.48,7.48,0,0,1,2.87.58l25.32,10.49A7.5,7.5,0,0,1,103,591a7.64,7.64,0,0,1-2.86-.57L74.81,580a7.5,7.5,0,0,1,2.87-14.44m0-12h0a19.5,19.5,0,0,0-7.47,37.52l25.33,10.49h0a19.5,19.5,0,0,0,14.82-36.07L85.14,555a19.38,19.38,0,0,0-7.47-1.49Z"/><path fill="#4d3325" d="M84.26,722h64a10.67,10.67,0,0,0,0-21.33h-64A10.67,10.67,0,1,0,83.54,722Z" opacity=".5" style="isolation:isolate"/><path fill="#4d3325" d="M144.85,771.35h64a10.67,10.67,0,0,0,0-21.33h-64a10.67,10.67,0,1,0-.72,21.33Z" opacity=".5" style="isolation:isolate"/><path fill="#4d3325" d="M279.41,741.11h64a10.67,10.67,0,0,0,.65-21.33H279.41a10.67,10.67,0,0,0-.65,21.33Z" opacity=".5" style="isolation:isolate"/><path fill="#4d3325" d="M236.74,817.44h64a10.67,10.67,0,0,0,.65-21.33H236.74a10.67,10.67,0,0,0-.65,21.33Z" opacity=".5" style="isolation:isolate"/><path d="M522.09,687.53l-81.76-28.86a4.81,4.81,0,0,0-3.2,0l-81.76,28.86a4.82,4.82,0,0,0-3.21,4.54v57.71c0,74.68,11.07,102,84.4,139a4.79,4.79,0,0,0,4.33,0c73.33-37,84.4-64.27,84.4-139V692.07A4.82,4.82,0,0,0,522.09,687.53Z"/><path fill="#81cc3b" d="M438.73,671.54l-72.22,23.93-2.08,54.31c0,8.7.14,16.66.49,24h73.81Z"/><path fill="#7bba38" d="M515.18,773.82c.36-7.38.5-15.34.5-24l-2.15-54.31-74.8-25V773.82Z"/><path fill="#81cc3b" d="M438.73,771.67V874.74c59.57-30.37,73.85-49.8,76.45-103.07Z"/><path fill="#7bba38" d="M364.44,771.67c2.59,53.27,14.72,72.7,74.29,103.07V771.67Z"/><path style="isolation:isolate" d="M438.73,858.24c-67.83-34.58-77-48.12-77-119.65v9c0,71.53,9.12,94.69,77,129.27,67.83-34.58,77-57.73,77-129.27v-9C515.68,810.12,506.56,823.66,438.73,858.24Z" opacity=".1"/><path d="M409.88,745a28.79,28.79,0,0,0,10.44,22.19l-5.58,39.66a4.81,4.81,0,0,0,4.76,5.48H458a4.81,4.81,0,0,0,4.76-5.48l-5.58-39.66A28.85,28.85,0,1,0,409.88,745Z"/><path fill="#dfdfe3" d="M458,745a19.23,19.23,0,0,1-8.63,16,4.82,4.82,0,0,0-2.1,4.68l5.2,37H425l5.2-37a4.82,4.82,0,0,0-2.1-4.68A19.23,19.23,0,1,1,458,745Z"/><path style="isolation:isolate" d="M434.27,802.68l4.78-34a4.82,4.82,0,0,0-2-4.68,19.23,19.23,0,0,1,10.6-35.27c.59,0,1.15.12,1.73.17a19.23,19.23,0,0,0-21.2,32.1h0a4.82,4.82,0,0,1,2.1,4.68l-5.2,37Z" opacity=".1"/></svg>