<?xml version="1.0" encoding="utf-8"?>
<!-- Generator: Adobe Illustrator 23.0.2, SVG Export Plug-In . SVG Version: 6.00 Build 0)  -->
<svg version="1.1" id="Layer_1" xmlns="http://www.w3.org/2000/svg" xmlns:xlink="http://www.w3.org/1999/xlink" x="0px" y="0px"
	 viewBox="0 0 1056.3 164.6" style="enable-background:new 0 0 1056.3 164.6;" xml:space="preserve">
<style type="text/css">
	.st0{fill:#13252F;}
	.st1{fill:#FFFFFF;}
	.st2{fill:url(#SVGID_1_);}
	.st3{fill:url(#SVGID_2_);}
	.st4{fill:url(#SVGID_3_);}
	.st5{fill:url(#SVGID_4_);}
</style>
<g>
	<path class="st1" d="M264.4,86.5c0,17.2,7.7,25.6,23.6,25.6c13.7,0,21.3-6.2,22.3-16.8h8c-1.2,15.6-12.2,24.1-30.2,24.1
		c-20.8,0-32.1-11.3-32.1-32.3V72c0-21,11-32.2,31.4-32.2c20.4,0,31.5,11.3,31.5,32.2v9.4h-54.5V86.5z M264.4,72.6v1.6h46.4v-1.6
		c0-17.2-7.4-25.6-23.2-25.6C271.8,47,264.4,55.3,264.4,72.6z"/>
	<path class="st1" d="M341.2,9.1h8.3v108.5h-8.3V9.1z"/>
	<path class="st1" d="M431.4,66.9v50.7h-7.1L424,105c-7,9.5-16.8,14.4-29,14.4c-15.5,0-24.8-8-24.8-22.6c0-14.9,9.7-23,31.2-23h21.7
		v-6.8c0-13.4-6.7-19.9-21-19.9c-13.2,0-20.8,5.6-21.6,16.6h-8.2c1.5-15.8,11.7-23.9,29.9-23.9C421.6,39.7,431.4,48.9,431.4,66.9z
		 M423.1,95.9v-15h-21.3c-16.5,0-23.3,4.9-23.3,15.6c0,10.3,6.1,15.8,17.5,15.8C407.6,112.2,416.8,106.6,423.1,95.9z"/>
	<path class="st1" d="M449.5,96h8c0,10.6,7.4,16.1,22.4,16.1c14.4,0,21.8-5.2,21.8-14.7c0-9.2-6.1-13.2-23.2-15
		c-19.9-1.9-27.3-7.7-27.3-20.5c0-14.1,10.4-22.1,28.7-22.1s28.2,7.9,28.2,22.6h-8.2c0-10-6.8-15.5-20.1-15.5
		c-13.1,0-20.5,5.3-20.5,14.4c0,8.5,5.9,12,22.1,13.7C502.3,77,510,83.1,510,96.8c0,14.7-10.4,22.6-29.9,22.6
		C459.9,119.4,449.5,111.3,449.5,96z"/>
	<path class="st1" d="M563.2,110.3v7.3h-10.7c-13.5,0-19.5-6.7-19.5-22.6V48.3h-14.3v-6.8h14.4l0.7-20.8h7.4v20.8h20.8v6.8h-20.8V95
		c0,11.6,3.1,15.3,12.8,15.3H563.2z"/>
	<path class="st1" d="M575.7,86.5v-14c0-21.3,11.3-32.8,32.1-32.8c21,0,32.3,11.6,32.3,32.8v14c0,21.3-11.3,32.8-32.3,32.8
		C587,119.4,575.7,107.8,575.7,86.5z M631.7,85.9V73c0-17.1-8-26-23.9-26S584,55.9,584,73v12.9c0,17.2,7.9,26.2,23.8,26.2
		S631.7,103.2,631.7,85.9z"/>
	<path class="st1" d="M656,96h8c0,10.6,7.4,16.1,22.4,16.1c14.4,0,21.8-5.2,21.8-14.7c0-9.2-6.1-13.2-23.2-15
		c-19.9-1.9-27.3-7.7-27.3-20.5c0-14.1,10.4-22.1,28.7-22.1s28.2,7.9,28.2,22.6h-8.2c0-10-6.8-15.5-20.1-15.5
		c-13.1,0-20.5,5.3-20.5,14.4c0,8.5,5.9,12,22.1,13.7c20.7,2.1,28.4,8.2,28.4,21.8c0,14.7-10.4,22.6-29.9,22.6
		C666.4,119.4,656,111.3,656,96z"/>
	<path class="st1" d="M797.9,40.4v77.1h-15.2l-0.6-10.8c-6.4,8.8-14,12.6-24.2,12.6c-16.2,0-24.5-9.5-24.5-27.9v-51h17.8v49.3
		c0,9.7,3.6,13.8,11.1,13.8c7.4,0,13.4-4.2,17.7-13.4V40.4H797.9z"/>
	<path class="st1" d="M883.5,66.6v51h-17.8V68.2c0-9.5-3.6-13.8-10.8-13.8c-7.4,0-13.1,4.3-17.4,13.1v50.1h-17.8V40.4h15.2l0.6,10.6
		c6.2-8.6,13.8-12.3,23.9-12.3C875.3,38.7,883.5,48.2,883.5,66.6z"/>
	<path class="st1" d="M903.7,11.3h19v16.8h-19V11.3z M904.3,40.4h17.8v77.1h-17.8V40.4z"/>
	<path class="st1" d="M982.8,103.2v14.4h-14.3c-15.3,0-21.8-7.3-21.8-24.7V54.3h-12.2V40.4h12.5l1.2-19.8h16.3v19.8h17.4v13.8h-17.4
		v38c0,8.5,2.1,10.8,9.5,10.8H982.8z"/>
	<path class="st1" d="M1056.3,40.4l-28.7,85c-4.9,14.9-10.3,19.2-23.9,19.2h-9.5v-14.4h7.7c4.9,0,7.1-1.5,8.8-6.8l2.7-7.7l-27-75.2
		h18.9l17.2,52.6l15.9-52.6H1056.3z"/>
</g>
<g>
	<polygon class="st1" points="97.2,164.6 97.2,164.6 97.2,164.6 	"/>
	<path class="st1" d="M145.8,0.1L145.6,0v0l0,0v0L97.8,27.4v0l-1,0.6L48,0v0v0l0,0l0,0L0,27.5v81.1l46.9,27.1l0,0L96.2,164l1,0.6
		l0,0l1-0.6l46.8-27.2v0l48.5-28.2V27.5L145.8,0.1z M145.6,2.3l-0.2,52.9l0,0L98.8,29.1L145.6,2.3z M97.8,30.8l45.6,25.6l-6.8,3.9
		l-39,22.5L97.8,30.8z M94.8,29.1l-46,26.6l-0.4-0.2L48,2.3L94.8,29.1z M95.8,30.8l-0.2,52l-44.6-26L95.8,30.8z M48.9,134.5
		l-0.4-52.6l46.2,26.4L48.9,134.5L48.9,134.5z M51,135.6L95.8,110l0.3,42.9l0.1,8.7L51,135.6z M96.8,107.2L48.5,79.5l-0.2-22.1
		l47.2,27.7l1,0.6l1-0.6l29.1-16.8l18.7-10.8l-0.1,21.8L96.8,107.2z M98.2,161.7l-0.1-11L97.8,110l45.3,25.6L98.2,161.7z
		 M145.1,134.5l-46.3-26.2l46.5-26.6L145.1,134.5L145.1,134.5z"/>
</g>
</svg>
